<?xml version="1.0" encoding="utf-8" standalone="no"?>
<!DOCTYPE svg PUBLIC "-//W3C//DTD SVG 1.1//EN"
  "http://www.w3.org/Graphics/SVG/1.1/DTD/svg11.dtd">
<svg xmlns:xlink="http://www.w3.org/1999/xlink" width="486.72pt" height="432pt" viewBox="0 0 486.72 432" xmlns="http://www.w3.org/2000/svg" version="1.1">
 <metadata>
  <rdf:RDF xmlns:dc="http://purl.org/dc/elements/1.1/" xmlns:cc="http://creativecommons.org/ns#" xmlns:rdf="http://www.w3.org/1999/02/22-rdf-syntax-ns#">
   <cc:Work>
    <dc:type rdf:resource="http://purl.org/dc/dcmitype/StillImage"/>
    <dc:date>2024-07-18T09:20:45.585322</dc:date>
    <dc:format>image/svg+xml</dc:format>
    <dc:creator>
     <cc:Agent>
      <dc:title>Matplotlib v3.9.0, https://matplotlib.org/</dc:title>
     </cc:Agent>
    </dc:creator>
   </cc:Work>
  </rdf:RDF>
 </metadata>
 <defs>
  <style type="text/css">*{stroke-linejoin: round; stroke-linecap: butt}</style>
 </defs>
 <g id="figure_1">
  <g id="patch_1">
   <path d="M 0 432 
L 486.72 432 
L 486.72 0 
L 0 0 
z
" style="fill: #ffffff"/>
  </g>
  <g id="axes_1">
   <g id="patch_2">
    <path d="M 50.935755 134.800727 
L 164.93486 134.800727 
L 164.93486 22.848 
L 50.935755 22.848 
z
" style="fill: #eaeaf2"/>
   </g>
   <g id="matplotlib.axis_1">
    <g id="xtick_1">
     <g id="line2d_1">
      <path d="M 89.152591 134.800727 
L 89.152591 22.848 
" clip-path="url(#p6a82d19898)" style="fill: none; stroke: #ffffff; stroke-linecap: round"/>
     </g>
    </g>
    <g id="xtick_2">
     <g id="line2d_2">
      <path d="M 134.983683 134.800727 
L 134.983683 22.848 
" clip-path="url(#p6a82d19898)" style="fill: none; stroke: #ffffff; stroke-linecap: round"/>
     </g>
    </g>
   </g>
   <g id="matplotlib.axis_2">
    <g id="ytick_1">
     <g id="line2d_3">
      <path d="M 50.935755 134.800727 
L 164.93486 134.800727 
" clip-path="url(#p6a82d19898)" style="fill: none; stroke: #ffffff; stroke-linecap: round"/>
     </g>
     <g id="text_1">
      <!-- 0.0 -->
      <g style="fill: #262626" transform="translate(29.203755 137.950165) scale(0.088 -0.088)">
       <defs>
        <path id="ArialMT-30" d="M 266 2259 
Q 266 3072 433 3567 
Q 600 4063 929 4331 
Q 1259 4600 1759 4600 
Q 2128 4600 2406 4451 
Q 2684 4303 2865 4023 
Q 3047 3744 3150 3342 
Q 3253 2941 3253 2259 
Q 3253 1453 3087 958 
Q 2922 463 2592 192 
Q 2263 -78 1759 -78 
Q 1097 -78 719 397 
Q 266 969 266 2259 
z
M 844 2259 
Q 844 1131 1108 757 
Q 1372 384 1759 384 
Q 2147 384 2411 759 
Q 2675 1134 2675 2259 
Q 2675 3391 2411 3762 
Q 2147 4134 1753 4134 
Q 1366 4134 1134 3806 
Q 844 3388 844 2259 
z
" transform="scale(0.015625)"/>
        <path id="ArialMT-2e" d="M 581 0 
L 581 641 
L 1222 641 
L 1222 0 
L 581 0 
z
" transform="scale(0.015625)"/>
       </defs>
       <use xlink:href="#ArialMT-30"/>
       <use xlink:href="#ArialMT-2e" x="55.615234"/>
       <use xlink:href="#ArialMT-30" x="83.398438"/>
      </g>
     </g>
    </g>
    <g id="ytick_2">
     <g id="line2d_4">
      <path d="M 50.935755 112.410182 
L 164.93486 112.410182 
" clip-path="url(#p6a82d19898)" style="fill: none; stroke: #ffffff; stroke-linecap: round"/>
     </g>
     <g id="text_2">
      <!-- 0.2 -->
      <g style="fill: #262626" transform="translate(29.203755 115.559619) scale(0.088 -0.088)">
       <defs>
        <path id="ArialMT-32" d="M 3222 541 
L 3222 0 
L 194 0 
Q 188 203 259 391 
Q 375 700 629 1000 
Q 884 1300 1366 1694 
Q 2113 2306 2375 2664 
Q 2638 3022 2638 3341 
Q 2638 3675 2398 3904 
Q 2159 4134 1775 4134 
Q 1369 4134 1125 3890 
Q 881 3647 878 3216 
L 300 3275 
Q 359 3922 746 4261 
Q 1134 4600 1788 4600 
Q 2447 4600 2831 4234 
Q 3216 3869 3216 3328 
Q 3216 3053 3103 2787 
Q 2991 2522 2730 2228 
Q 2469 1934 1863 1422 
Q 1356 997 1212 845 
Q 1069 694 975 541 
L 3222 541 
z
" transform="scale(0.015625)"/>
       </defs>
       <use xlink:href="#ArialMT-30"/>
       <use xlink:href="#ArialMT-2e" x="55.615234"/>
       <use xlink:href="#ArialMT-32" x="83.398438"/>
      </g>
     </g>
    </g>
    <g id="ytick_3">
     <g id="line2d_5">
      <path d="M 50.935755 90.019636 
L 164.93486 90.019636 
" clip-path="url(#p6a82d19898)" style="fill: none; stroke: #ffffff; stroke-linecap: round"/>
     </g>
     <g id="text_3">
      <!-- 0.4 -->
      <g style="fill: #262626" transform="translate(29.203755 93.169074) scale(0.088 -0.088)">
       <defs>
        <path id="ArialMT-34" d="M 2069 0 
L 2069 1097 
L 81 1097 
L 81 1613 
L 2172 4581 
L 2631 4581 
L 2631 1613 
L 3250 1613 
L 3250 1097 
L 2631 1097 
L 2631 0 
L 2069 0 
z
M 2069 1613 
L 2069 3678 
L 634 1613 
L 2069 1613 
z
" transform="scale(0.015625)"/>
       </defs>
       <use xlink:href="#ArialMT-30"/>
       <use xlink:href="#ArialMT-2e" x="55.615234"/>
       <use xlink:href="#ArialMT-34" x="83.398438"/>
      </g>
     </g>
    </g>
    <g id="ytick_4">
     <g id="line2d_6">
      <path d="M 50.935755 67.629091 
L 164.93486 67.629091 
" clip-path="url(#p6a82d19898)" style="fill: none; stroke: #ffffff; stroke-linecap: round"/>
     </g>
     <g id="text_4">
      <!-- 0.6 -->
      <g style="fill: #262626" transform="translate(29.203755 70.778528) scale(0.088 -0.088)">
       <defs>
        <path id="ArialMT-36" d="M 3184 3459 
L 2625 3416 
Q 2550 3747 2413 3897 
Q 2184 4138 1850 4138 
Q 1581 4138 1378 3988 
Q 1113 3794 959 3422 
Q 806 3050 800 2363 
Q 1003 2672 1297 2822 
Q 1591 2972 1913 2972 
Q 2475 2972 2870 2558 
Q 3266 2144 3266 1488 
Q 3266 1056 3080 686 
Q 2894 316 2569 119 
Q 2244 -78 1831 -78 
Q 1128 -78 684 439 
Q 241 956 241 2144 
Q 241 3472 731 4075 
Q 1159 4600 1884 4600 
Q 2425 4600 2770 4297 
Q 3116 3994 3184 3459 
z
M 888 1484 
Q 888 1194 1011 928 
Q 1134 663 1356 523 
Q 1578 384 1822 384 
Q 2178 384 2434 671 
Q 2691 959 2691 1453 
Q 2691 1928 2437 2201 
Q 2184 2475 1800 2475 
Q 1419 2475 1153 2201 
Q 888 1928 888 1484 
z
" transform="scale(0.015625)"/>
       </defs>
       <use xlink:href="#ArialMT-30"/>
       <use xlink:href="#ArialMT-2e" x="55.615234"/>
       <use xlink:href="#ArialMT-36" x="83.398438"/>
      </g>
     </g>
    </g>
    <g id="ytick_5">
     <g id="line2d_7">
      <path d="M 50.935755 45.238545 
L 164.93486 45.238545 
" clip-path="url(#p6a82d19898)" style="fill: none; stroke: #ffffff; stroke-linecap: round"/>
     </g>
     <g id="text_5">
      <!-- 0.8 -->
      <g style="fill: #262626" transform="translate(29.203755 48.387983) scale(0.088 -0.088)">
       <defs>
        <path id="ArialMT-38" d="M 1131 2484 
Q 781 2613 612 2850 
Q 444 3088 444 3419 
Q 444 3919 803 4259 
Q 1163 4600 1759 4600 
Q 2359 4600 2725 4251 
Q 3091 3903 3091 3403 
Q 3091 3084 2923 2848 
Q 2756 2613 2416 2484 
Q 2838 2347 3058 2040 
Q 3278 1734 3278 1309 
Q 3278 722 2862 322 
Q 2447 -78 1769 -78 
Q 1091 -78 675 323 
Q 259 725 259 1325 
Q 259 1772 486 2073 
Q 713 2375 1131 2484 
z
M 1019 3438 
Q 1019 3113 1228 2906 
Q 1438 2700 1772 2700 
Q 2097 2700 2305 2904 
Q 2513 3109 2513 3406 
Q 2513 3716 2298 3927 
Q 2084 4138 1766 4138 
Q 1444 4138 1231 3931 
Q 1019 3725 1019 3438 
z
M 838 1322 
Q 838 1081 952 856 
Q 1066 631 1291 507 
Q 1516 384 1775 384 
Q 2178 384 2440 643 
Q 2703 903 2703 1303 
Q 2703 1709 2433 1975 
Q 2163 2241 1756 2241 
Q 1359 2241 1098 1978 
Q 838 1716 838 1322 
z
" transform="scale(0.015625)"/>
       </defs>
       <use xlink:href="#ArialMT-30"/>
       <use xlink:href="#ArialMT-2e" x="55.615234"/>
       <use xlink:href="#ArialMT-38" x="83.398438"/>
      </g>
     </g>
    </g>
    <g id="ytick_6">
     <g id="line2d_8">
      <path d="M 50.935755 22.848 
L 164.93486 22.848 
" clip-path="url(#p6a82d19898)" style="fill: none; stroke: #ffffff; stroke-linecap: round"/>
     </g>
     <g id="text_6">
      <!-- 1.0 -->
      <g style="fill: #262626" transform="translate(29.203755 25.997437) scale(0.088 -0.088)">
       <defs>
        <path id="ArialMT-31" d="M 2384 0 
L 1822 0 
L 1822 3584 
Q 1619 3391 1289 3197 
Q 959 3003 697 2906 
L 697 3450 
Q 1169 3672 1522 3987 
Q 1875 4303 2022 4600 
L 2384 4600 
L 2384 0 
z
" transform="scale(0.015625)"/>
       </defs>
       <use xlink:href="#ArialMT-31"/>
       <use xlink:href="#ArialMT-2e" x="55.615234"/>
       <use xlink:href="#ArialMT-30" x="83.398438"/>
      </g>
     </g>
    </g>
    <g id="text_7">
     <!-- Proportion -->
     <g style="fill: #262626" transform="translate(23.295755 100.968864) rotate(-90) scale(0.096 -0.096)">
      <defs>
       <path id="ArialMT-50" d="M 494 0 
L 494 4581 
L 2222 4581 
Q 2678 4581 2919 4538 
Q 3256 4481 3484 4323 
Q 3713 4166 3852 3881 
Q 3991 3597 3991 3256 
Q 3991 2672 3619 2267 
Q 3247 1863 2275 1863 
L 1100 1863 
L 1100 0 
L 494 0 
z
M 1100 2403 
L 2284 2403 
Q 2872 2403 3119 2622 
Q 3366 2841 3366 3238 
Q 3366 3525 3220 3729 
Q 3075 3934 2838 4000 
Q 2684 4041 2272 4041 
L 1100 4041 
L 1100 2403 
z
" transform="scale(0.015625)"/>
       <path id="ArialMT-72" d="M 416 0 
L 416 3319 
L 922 3319 
L 922 2816 
Q 1116 3169 1280 3281 
Q 1444 3394 1641 3394 
Q 1925 3394 2219 3213 
L 2025 2691 
Q 1819 2813 1613 2813 
Q 1428 2813 1281 2702 
Q 1134 2591 1072 2394 
Q 978 2094 978 1738 
L 978 0 
L 416 0 
z
" transform="scale(0.015625)"/>
       <path id="ArialMT-6f" d="M 213 1659 
Q 213 2581 725 3025 
Q 1153 3394 1769 3394 
Q 2453 3394 2887 2945 
Q 3322 2497 3322 1706 
Q 3322 1066 3130 698 
Q 2938 331 2570 128 
Q 2203 -75 1769 -75 
Q 1072 -75 642 372 
Q 213 819 213 1659 
z
M 791 1659 
Q 791 1022 1069 705 
Q 1347 388 1769 388 
Q 2188 388 2466 706 
Q 2744 1025 2744 1678 
Q 2744 2294 2464 2611 
Q 2184 2928 1769 2928 
Q 1347 2928 1069 2612 
Q 791 2297 791 1659 
z
" transform="scale(0.015625)"/>
       <path id="ArialMT-70" d="M 422 -1272 
L 422 3319 
L 934 3319 
L 934 2888 
Q 1116 3141 1344 3267 
Q 1572 3394 1897 3394 
Q 2322 3394 2647 3175 
Q 2972 2956 3137 2557 
Q 3303 2159 3303 1684 
Q 3303 1175 3120 767 
Q 2938 359 2589 142 
Q 2241 -75 1856 -75 
Q 1575 -75 1351 44 
Q 1128 163 984 344 
L 984 -1272 
L 422 -1272 
z
M 931 1641 
Q 931 1000 1190 694 
Q 1450 388 1819 388 
Q 2194 388 2461 705 
Q 2728 1022 2728 1688 
Q 2728 2322 2467 2637 
Q 2206 2953 1844 2953 
Q 1484 2953 1207 2617 
Q 931 2281 931 1641 
z
" transform="scale(0.015625)"/>
       <path id="ArialMT-74" d="M 1650 503 
L 1731 6 
Q 1494 -44 1306 -44 
Q 1000 -44 831 53 
Q 663 150 594 308 
Q 525 466 525 972 
L 525 2881 
L 113 2881 
L 113 3319 
L 525 3319 
L 525 4141 
L 1084 4478 
L 1084 3319 
L 1650 3319 
L 1650 2881 
L 1084 2881 
L 1084 941 
Q 1084 700 1114 631 
Q 1144 563 1211 522 
Q 1278 481 1403 481 
Q 1497 481 1650 503 
z
" transform="scale(0.015625)"/>
       <path id="ArialMT-69" d="M 425 3934 
L 425 4581 
L 988 4581 
L 988 3934 
L 425 3934 
z
M 425 0 
L 425 3319 
L 988 3319 
L 988 0 
L 425 0 
z
" transform="scale(0.015625)"/>
       <path id="ArialMT-6e" d="M 422 0 
L 422 3319 
L 928 3319 
L 928 2847 
Q 1294 3394 1984 3394 
Q 2284 3394 2536 3286 
Q 2788 3178 2913 3003 
Q 3038 2828 3088 2588 
Q 3119 2431 3119 2041 
L 3119 0 
L 2556 0 
L 2556 2019 
Q 2556 2363 2490 2533 
Q 2425 2703 2258 2804 
Q 2091 2906 1866 2906 
Q 1506 2906 1245 2678 
Q 984 2450 984 1813 
L 984 0 
L 422 0 
z
" transform="scale(0.015625)"/>
      </defs>
      <use xlink:href="#ArialMT-50"/>
      <use xlink:href="#ArialMT-72" x="66.699219"/>
      <use xlink:href="#ArialMT-6f" x="100"/>
      <use xlink:href="#ArialMT-70" x="155.615234"/>
      <use xlink:href="#ArialMT-6f" x="211.230469"/>
      <use xlink:href="#ArialMT-72" x="266.845703"/>
      <use xlink:href="#ArialMT-74" x="300.146484"/>
      <use xlink:href="#ArialMT-69" x="327.929688"/>
      <use xlink:href="#ArialMT-6f" x="350.146484"/>
      <use xlink:href="#ArialMT-6e" x="405.761719"/>
     </g>
    </g>
   </g>
   <g id="line2d_9">
    <path d="M 56.579203 134.800727 
L 56.579519 133.91921 
L 57.675816 133.91921 
L 57.764438 130.39314 
L 57.801 130.39314 
L 57.854664 128.630105 
L 58.180045 128.630105 
L 58.275932 121.577964 
L 58.308534 121.577964 
L 58.313893 120.696447 
L 59.577281 120.696447 
L 59.655917 119.37417 
L 59.766708 119.37417 
L 59.835375 114.525824 
L 61.716905 114.525824 
L 61.827147 109.677477 
L 61.858967 109.677477 
L 61.968761 106.151407 
L 61.971518 106.151407 
L 62.059883 99.540026 
L 62.093538 99.540026 
L 62.195568 96.013956 
L 62.246465 96.013956 
L 62.318353 93.369403 
L 62.380366 93.369403 
L 62.466245 91.606368 
L 62.539083 91.606368 
L 62.646501 88.521057 
L 62.710112 88.521057 
L 62.74207 86.317263 
L 63.132514 86.317263 
L 63.144636 85.435745 
L 63.804942 85.435745 
L 63.869761 79.705881 
L 64.716254 79.705881 
L 64.721564 76.179811 
L 65.964329 76.179811 
L 66.056355 69.568429 
L 66.37615 69.568429 
L 66.464615 63.838565 
L 66.4873 63.838565 
L 66.594854 55.904908 
L 66.600146 55.904908 
L 66.692522 52.378838 
L 67.139911 52.378838 
L 67.176259 49.734285 
L 67.977258 49.734285 
L 68.072777 44.004421 
L 68.097231 44.004421 
L 68.100794 43.122903 
L 68.824109 43.122903 
L 68.894612 40.91911 
L 68.996436 40.91911 
L 68.996646 40.037592 
L 69.416203 40.037592 
L 69.521379 36.070763 
L 69.568384 36.070763 
L 69.573699 35.189246 
L 70.306102 35.189246 
L 70.313966 32.544693 
L 70.770877 32.544693 
L 70.783464 31.663175 
L 71.709545 31.663175 
L 71.709545 31.222417 
L 73.131801 31.222417 
L 73.199566 26.37407 
L 73.96993 26.37407 
L 74.040727 22.848 
L 74.040727 22.848 
" clip-path="url(#p6a82d19898)" style="fill: none; stroke: #023eff; stroke-width: 1.5; stroke-linecap: round"/>
   </g>
   <g id="line2d_10">
    <path d="M 56.579517 134.800727 
L 56.579517 133.883082 
L 58.268208 133.883082 
L 58.308534 132.047791 
L 59.695265 132.047791 
L 59.793178 125.624274 
L 59.806856 125.624274 
L 59.832595 121.953693 
L 59.9874 121.953693 
L 60.069216 116.447821 
L 60.104789 116.447821 
L 60.194742 113.694885 
L 61.899683 113.694885 
L 61.899683 112.77724 
L 62.111873 112.77724 
L 62.177533 110.941949 
L 62.248408 110.941949 
L 62.248408 110.024304 
L 62.669095 110.024304 
L 62.753138 104.518432 
L 62.78557 104.518432 
L 62.823421 102.683142 
L 63.310154 102.683142 
L 63.36449 99.930206 
L 63.715881 99.930206 
L 63.818455 92.589043 
L 63.830011 92.589043 
L 63.884333 87.083171 
L 64.167073 87.083171 
L 64.221043 85.247881 
L 64.279713 85.247881 
L 64.343179 83.41259 
L 64.411589 83.41259 
L 64.411589 82.494945 
L 65.999746 82.494945 
L 66.08345 78.824364 
L 66.11613 78.824364 
L 66.11613 77.906718 
L 66.305253 77.906718 
L 66.357477 71.483201 
L 66.494508 71.483201 
L 66.494508 70.565556 
L 67.287289 70.565556 
L 67.287289 69.647911 
L 67.44208 69.647911 
L 67.482685 63.224393 
L 67.974221 63.224393 
L 68.025015 57.718522 
L 68.848124 57.718522 
L 68.874571 53.130295 
L 69.509635 53.130295 
L 69.576342 43.953842 
L 70.022798 43.953842 
L 70.123408 39.365615 
L 70.586576 39.365615 
L 70.696564 36.61268 
L 70.707781 36.61268 
L 70.756388 34.777389 
L 70.819509 34.777389 
L 70.819509 33.859744 
L 71.751714 33.859744 
L 71.861792 27.436227 
L 71.889134 27.436227 
L 71.889903 25.600936 
L 72.535431 25.600936 
L 72.535431 24.683291 
L 73.002765 24.683291 
L 73.052882 22.848 
L 73.052882 22.848 
" clip-path="url(#p6a82d19898)" style="fill: none; stroke: #ff7c00; stroke-width: 1.5; stroke-linecap: round"/>
   </g>
   <g id="line2d_11">
    <path d="M 68.563584 134.800727 
L 68.65843 127.337212 
L 68.692868 127.337212 
L 68.77773 125.098158 
L 68.828146 125.098158 
L 68.88901 122.859103 
L 68.945053 122.859103 
L 69.017547 119.127345 
L 72.899222 119.127345 
L 73.006247 114.649236 
L 73.040962 114.649236 
L 73.123832 112.410182 
L 73.172051 112.410182 
L 73.282184 110.171127 
L 74.906175 110.171127 
L 75.015417 102.707612 
L 75.059646 102.707612 
L 75.059646 101.961261 
L 77.976612 101.961261 
L 78.025604 100.468558 
L 78.205949 100.468558 
L 78.302785 98.229503 
L 78.358581 98.229503 
L 78.419339 96.7368 
L 78.485096 96.7368 
L 78.55598 95.244097 
L 78.631948 95.244097 
L 78.71308 93.751394 
L 78.888297 93.751394 
L 78.99007 86.287879 
L 79.026889 86.287879 
L 79.069006 84.795176 
L 80.146855 84.795176 
L 80.249659 82.556121 
L 80.292161 82.556121 
L 80.387406 80.317067 
L 80.440285 80.317067 
L 80.440285 79.570715 
L 81.30772 79.570715 
L 81.30772 78.824364 
L 81.878269 78.824364 
L 81.987189 76.585309 
L 82.050419 76.585309 
L 82.119408 75.092606 
L 82.19412 75.092606 
L 82.274501 73.599903 
L 82.360501 73.599903 
L 82.45207 72.1072 
L 82.549172 72.1072 
L 82.549172 71.360848 
L 83.603778 71.360848 
L 83.698072 68.375442 
L 84.696452 68.375442 
L 84.798396 64.643685 
L 84.831523 64.643685 
L 84.906953 62.40463 
L 84.949301 62.40463 
L 85.047189 60.165576 
L 85.09531 60.165576 
L 85.150462 58.672873 
L 86.019876 58.672873 
L 86.124009 52.702061 
L 86.162619 52.702061 
L 86.166469 51.209358 
L 86.326045 51.209358 
L 86.391628 49.716655 
L 86.463172 49.716655 
L 86.540672 48.223952 
L 86.624087 48.223952 
L 86.624087 47.4776 
L 87.036743 47.4776 
L 87.106137 45.984897 
L 88.187303 45.984897 
L 88.187303 45.238545 
L 96.110674 45.238545 
L 96.193209 42.999491 
L 96.228084 42.999491 
L 96.309524 40.760436 
L 96.356016 40.760436 
L 96.46066 38.521382 
L 96.518816 38.521382 
L 96.580874 37.028679 
L 96.64346 37.028679 
L 96.71334 35.535976 
L 96.787252 35.535976 
L 96.868986 34.043273 
L 96.947332 34.043273 
L 97.04172 31.804218 
L 97.934827 31.804218 
L 98.039541 29.565164 
L 98.102644 29.565164 
L 98.17913 25.833406 
L 98.248611 25.833406 
L 98.339671 23.594352 
L 98.430398 23.594352 
L 98.430398 22.848 
L 98.430398 22.848 
" clip-path="url(#p6a82d19898)" style="fill: none; stroke: #1ac938; stroke-width: 1.5; stroke-linecap: round"/>
   </g>
   <g id="line2d_12">
    <path d="M 68.563584 134.800727 
L 68.65843 127.184895 
L 68.692867 127.184895 
L 68.777726 124.900146 
L 68.828146 124.900146 
L 68.88901 122.615396 
L 68.945054 122.615396 
L 69.017547 118.807481 
L 75.015417 118.807481 
L 75.059649 117.284314 
L 76.832405 117.284314 
L 76.871378 111.953232 
L 77.976612 111.953232 
L 78.07457 106.62215 
L 78.096994 106.62215 
L 78.205949 103.575817 
L 78.251934 103.575817 
L 78.358581 101.291067 
L 78.419342 101.291067 
L 78.485096 99.767901 
L 78.55598 99.767901 
L 78.631948 98.244735 
L 78.71308 98.244735 
L 78.71308 97.483152 
L 78.888297 97.483152 
L 78.99007 89.86732 
L 79.026882 89.86732 
L 79.069006 88.344153 
L 79.541007 88.344153 
L 79.622415 85.297821 
L 79.658452 85.297821 
L 79.747672 80.728322 
L 79.792603 80.728322 
L 79.797058 79.205155 
L 79.987425 79.205155 
L 80.085684 72.350907 
L 80.112136 72.350907 
L 80.210455 69.304574 
L 80.249659 69.304574 
L 80.338065 67.019824 
L 80.84194 67.019824 
L 80.941147 62.450325 
L 80.968424 62.450325 
L 81.065459 59.403993 
L 81.900221 59.403993 
L 81.93068 54.834494 
L 82.320996 54.834494 
L 82.391568 53.311327 
L 83.726024 53.311327 
L 83.828119 46.457079 
L 83.861144 46.457079 
L 83.936654 44.172329 
L 83.979191 44.172329 
L 84.073953 41.887579 
L 84.12627 41.887579 
L 84.181943 40.364413 
L 84.24105 40.364413 
L 84.24105 39.60283 
L 85.047825 39.60283 
L 85.12323 36.556497 
L 85.161382 36.556497 
L 85.256781 34.271748 
L 85.31394 34.271748 
L 85.377359 32.748581 
L 85.447029 32.748581 
L 85.447029 31.986998 
L 85.604895 31.986998 
L 85.604895 31.225415 
L 93.604003 31.225415 
L 93.697199 28.179082 
L 93.732186 28.179082 
L 93.769174 26.655916 
L 94.491086 26.655916 
L 94.58197 24.371166 
L 94.634227 24.371166 
L 94.691062 22.848 
L 94.691062 22.848 
" clip-path="url(#p6a82d19898)" style="fill: none; stroke: #e8000b; stroke-width: 1.5; stroke-linecap: round"/>
   </g>
   <g id="patch_3">
    <path d="M 50.935755 134.800727 
L 50.935755 22.848 
" style="fill: none; stroke: #ffffff; stroke-width: 1.25; stroke-linejoin: miter; stroke-linecap: square"/>
   </g>
   <g id="patch_4">
    <path d="M 50.935755 134.800727 
L 164.93486 134.800727 
" style="fill: none; stroke: #ffffff; stroke-width: 1.25; stroke-linejoin: miter; stroke-linecap: square"/>
   </g>
   <g id="text_8">
    <!-- scenario = Landlocked -->
    <g style="fill: #262626" transform="translate(59.771807 16.848) scale(0.096 -0.096)">
     <defs>
      <path id="ArialMT-73" d="M 197 991 
L 753 1078 
Q 800 744 1014 566 
Q 1228 388 1613 388 
Q 2000 388 2187 545 
Q 2375 703 2375 916 
Q 2375 1106 2209 1216 
Q 2094 1291 1634 1406 
Q 1016 1563 777 1677 
Q 538 1791 414 1992 
Q 291 2194 291 2438 
Q 291 2659 392 2848 
Q 494 3038 669 3163 
Q 800 3259 1026 3326 
Q 1253 3394 1513 3394 
Q 1903 3394 2198 3281 
Q 2494 3169 2634 2976 
Q 2775 2784 2828 2463 
L 2278 2388 
Q 2241 2644 2061 2787 
Q 1881 2931 1553 2931 
Q 1166 2931 1000 2803 
Q 834 2675 834 2503 
Q 834 2394 903 2306 
Q 972 2216 1119 2156 
Q 1203 2125 1616 2013 
Q 2213 1853 2448 1751 
Q 2684 1650 2818 1456 
Q 2953 1263 2953 975 
Q 2953 694 2789 445 
Q 2625 197 2315 61 
Q 2006 -75 1616 -75 
Q 969 -75 630 194 
Q 291 463 197 991 
z
" transform="scale(0.015625)"/>
      <path id="ArialMT-63" d="M 2588 1216 
L 3141 1144 
Q 3050 572 2676 248 
Q 2303 -75 1759 -75 
Q 1078 -75 664 370 
Q 250 816 250 1647 
Q 250 2184 428 2587 
Q 606 2991 970 3192 
Q 1334 3394 1763 3394 
Q 2303 3394 2647 3120 
Q 2991 2847 3088 2344 
L 2541 2259 
Q 2463 2594 2264 2762 
Q 2066 2931 1784 2931 
Q 1359 2931 1093 2626 
Q 828 2322 828 1663 
Q 828 994 1084 691 
Q 1341 388 1753 388 
Q 2084 388 2306 591 
Q 2528 794 2588 1216 
z
" transform="scale(0.015625)"/>
      <path id="ArialMT-65" d="M 2694 1069 
L 3275 997 
Q 3138 488 2766 206 
Q 2394 -75 1816 -75 
Q 1088 -75 661 373 
Q 234 822 234 1631 
Q 234 2469 665 2931 
Q 1097 3394 1784 3394 
Q 2450 3394 2872 2941 
Q 3294 2488 3294 1666 
Q 3294 1616 3291 1516 
L 816 1516 
Q 847 969 1125 678 
Q 1403 388 1819 388 
Q 2128 388 2347 550 
Q 2566 713 2694 1069 
z
M 847 1978 
L 2700 1978 
Q 2663 2397 2488 2606 
Q 2219 2931 1791 2931 
Q 1403 2931 1139 2672 
Q 875 2413 847 1978 
z
" transform="scale(0.015625)"/>
      <path id="ArialMT-61" d="M 2588 409 
Q 2275 144 1986 34 
Q 1697 -75 1366 -75 
Q 819 -75 525 192 
Q 231 459 231 875 
Q 231 1119 342 1320 
Q 453 1522 633 1644 
Q 813 1766 1038 1828 
Q 1203 1872 1538 1913 
Q 2219 1994 2541 2106 
Q 2544 2222 2544 2253 
Q 2544 2597 2384 2738 
Q 2169 2928 1744 2928 
Q 1347 2928 1158 2789 
Q 969 2650 878 2297 
L 328 2372 
Q 403 2725 575 2942 
Q 747 3159 1072 3276 
Q 1397 3394 1825 3394 
Q 2250 3394 2515 3294 
Q 2781 3194 2906 3042 
Q 3031 2891 3081 2659 
Q 3109 2516 3109 2141 
L 3109 1391 
Q 3109 606 3145 398 
Q 3181 191 3288 0 
L 2700 0 
Q 2613 175 2588 409 
z
M 2541 1666 
Q 2234 1541 1622 1453 
Q 1275 1403 1131 1340 
Q 988 1278 909 1158 
Q 831 1038 831 891 
Q 831 666 1001 516 
Q 1172 366 1500 366 
Q 1825 366 2078 508 
Q 2331 650 2450 897 
Q 2541 1088 2541 1459 
L 2541 1666 
z
" transform="scale(0.015625)"/>
      <path id="ArialMT-20" transform="scale(0.015625)"/>
      <path id="ArialMT-3d" d="M 3381 2694 
L 356 2694 
L 356 3219 
L 3381 3219 
L 3381 2694 
z
M 3381 1303 
L 356 1303 
L 356 1828 
L 3381 1828 
L 3381 1303 
z
" transform="scale(0.015625)"/>
      <path id="ArialMT-4c" d="M 469 0 
L 469 4581 
L 1075 4581 
L 1075 541 
L 3331 541 
L 3331 0 
L 469 0 
z
" transform="scale(0.015625)"/>
      <path id="ArialMT-64" d="M 2575 0 
L 2575 419 
Q 2259 -75 1647 -75 
Q 1250 -75 917 144 
Q 584 363 401 755 
Q 219 1147 219 1656 
Q 219 2153 384 2558 
Q 550 2963 881 3178 
Q 1213 3394 1622 3394 
Q 1922 3394 2156 3267 
Q 2391 3141 2538 2938 
L 2538 4581 
L 3097 4581 
L 3097 0 
L 2575 0 
z
M 797 1656 
Q 797 1019 1065 703 
Q 1334 388 1700 388 
Q 2069 388 2326 689 
Q 2584 991 2584 1609 
Q 2584 2291 2321 2609 
Q 2059 2928 1675 2928 
Q 1300 2928 1048 2622 
Q 797 2316 797 1656 
z
" transform="scale(0.015625)"/>
      <path id="ArialMT-6c" d="M 409 0 
L 409 4581 
L 972 4581 
L 972 0 
L 409 0 
z
" transform="scale(0.015625)"/>
      <path id="ArialMT-6b" d="M 425 0 
L 425 4581 
L 988 4581 
L 988 1969 
L 2319 3319 
L 3047 3319 
L 1778 2088 
L 3175 0 
L 2481 0 
L 1384 1697 
L 988 1316 
L 988 0 
L 425 0 
z
" transform="scale(0.015625)"/>
     </defs>
     <use xlink:href="#ArialMT-73"/>
     <use xlink:href="#ArialMT-63" x="50"/>
     <use xlink:href="#ArialMT-65" x="100"/>
     <use xlink:href="#ArialMT-6e" x="155.615234"/>
     <use xlink:href="#ArialMT-61" x="211.230469"/>
     <use xlink:href="#ArialMT-72" x="266.845703"/>
     <use xlink:href="#ArialMT-69" x="300.146484"/>
     <use xlink:href="#ArialMT-6f" x="322.363281"/>
     <use xlink:href="#ArialMT-20" x="377.978516"/>
     <use xlink:href="#ArialMT-3d" x="405.761719"/>
     <use xlink:href="#ArialMT-20" x="464.160156"/>
     <use xlink:href="#ArialMT-4c" x="491.943359"/>
     <use xlink:href="#ArialMT-61" x="547.558594"/>
     <use xlink:href="#ArialMT-6e" x="603.173828"/>
     <use xlink:href="#ArialMT-64" x="658.789062"/>
     <use xlink:href="#ArialMT-6c" x="714.404297"/>
     <use xlink:href="#ArialMT-6f" x="736.621094"/>
     <use xlink:href="#ArialMT-63" x="792.236328"/>
     <use xlink:href="#ArialMT-6b" x="842.236328"/>
     <use xlink:href="#ArialMT-65" x="892.236328"/>
     <use xlink:href="#ArialMT-64" x="947.851562"/>
    </g>
   </g>
  </g>
  <g id="axes_2">
   <g id="patch_5">
    <path d="M 182.034725 134.800727 
L 296.03383 134.800727 
L 296.03383 22.848 
L 182.034725 22.848 
z
" style="fill: #eaeaf2"/>
   </g>
   <g id="matplotlib.axis_3">
    <g id="xtick_3">
     <g id="line2d_13">
      <path d="M 220.251562 134.800727 
L 220.251562 22.848 
" clip-path="url(#pc1ef3e40e2)" style="fill: none; stroke: #ffffff; stroke-linecap: round"/>
     </g>
    </g>
    <g id="xtick_4">
     <g id="line2d_14">
      <path d="M 266.082653 134.800727 
L 266.082653 22.848 
" clip-path="url(#pc1ef3e40e2)" style="fill: none; stroke: #ffffff; stroke-linecap: round"/>
     </g>
    </g>
   </g>
   <g id="matplotlib.axis_4">
    <g id="ytick_7">
     <g id="line2d_15">
      <path d="M 182.034725 134.800727 
L 296.03383 134.800727 
" clip-path="url(#pc1ef3e40e2)" style="fill: none; stroke: #ffffff; stroke-linecap: round"/>
     </g>
    </g>
    <g id="ytick_8">
     <g id="line2d_16">
      <path d="M 182.034725 112.410182 
L 296.03383 112.410182 
" clip-path="url(#pc1ef3e40e2)" style="fill: none; stroke: #ffffff; stroke-linecap: round"/>
     </g>
    </g>
    <g id="ytick_9">
     <g id="line2d_17">
      <path d="M 182.034725 90.019636 
L 296.03383 90.019636 
" clip-path="url(#pc1ef3e40e2)" style="fill: none; stroke: #ffffff; stroke-linecap: round"/>
     </g>
    </g>
    <g id="ytick_10">
     <g id="line2d_18">
      <path d="M 182.034725 67.629091 
L 296.03383 67.629091 
" clip-path="url(#pc1ef3e40e2)" style="fill: none; stroke: #ffffff; stroke-linecap: round"/>
     </g>
    </g>
    <g id="ytick_11">
     <g id="line2d_19">
      <path d="M 182.034725 45.238545 
L 296.03383 45.238545 
" clip-path="url(#pc1ef3e40e2)" style="fill: none; stroke: #ffffff; stroke-linecap: round"/>
     </g>
    </g>
    <g id="ytick_12">
     <g id="line2d_20">
      <path d="M 182.034725 22.848 
L 296.03383 22.848 
" clip-path="url(#pc1ef3e40e2)" style="fill: none; stroke: #ffffff; stroke-linecap: round"/>
     </g>
    </g>
   </g>
   <g id="line2d_21">
    <path d="M 196.659148 134.800727 
L 196.745703 130.168201 
L 196.78197 130.168201 
L 196.824642 128.624025 
L 197.063299 128.624025 
L 197.098855 123.991498 
L 203.90493 123.991498 
L 203.994252 118.586884 
L 204.028666 118.586884 
L 204.114487 116.270621 
L 204.16602 116.270621 
L 204.223348 114.726445 
L 204.286535 114.726445 
L 204.355639 113.18227 
L 205.290416 113.18227 
L 205.38914 110.866006 
L 205.445149 110.866006 
L 205.505613 109.321831 
L 206.458051 109.321831 
L 206.539487 106.23348 
L 208.062132 106.23348 
L 208.104266 102.373041 
L 266.518628 102.373041 
L 266.55935 91.563812 
L 268.244196 91.563812 
L 268.285946 90.019636 
L 271.297807 90.019636 
L 271.405196 84.615022 
L 271.432847 84.615022 
L 271.535753 79.210408 
L 271.576825 79.210408 
L 271.621379 77.666232 
L 272.359197 77.666232 
L 272.469159 70.717442 
L 272.911288 70.717442 
L 273.022334 58.364038 
L 273.048845 58.364038 
L 273.120582 56.819862 
L 273.419803 56.819862 
L 273.419803 56.047774 
L 274.11634 56.047774 
L 274.213295 52.959423 
L 274.337635 52.959423 
L 274.337635 52.187335 
L 275.415633 52.187335 
L 275.487433 46.782721 
L 275.531267 46.782721 
L 275.581192 44.466458 
L 276.278883 44.466458 
L 276.331073 39.061843 
L 276.552998 39.061843 
L 276.623903 35.973492 
L 276.666352 35.973492 
L 276.67845 34.429317 
L 277.566672 34.429317 
L 277.647137 25.936351 
L 279.081974 25.936351 
L 279.111499 22.848 
L 279.111499 22.848 
" clip-path="url(#pc1ef3e40e2)" style="fill: none; stroke: #ff7c00; stroke-width: 1.5; stroke-linecap: round"/>
   </g>
   <g id="line2d_22">
    <path d="M 187.76853 134.800727 
L 187.877466 103.161913 
L 187.916806 103.161913 
L 188.013771 95.860648 
L 189.843748 95.860648 
L 189.934306 88.559383 
L 189.987591 88.559383 
L 189.987591 86.125628 
L 193.088947 86.125628 
L 193.177601 47.185549 
L 193.202409 47.185549 
L 193.296081 32.58302 
L 193.346682 32.58302 
L 193.402894 27.71551 
L 193.464755 27.71551 
L 193.532301 22.848 
L 193.532301 22.848 
" clip-path="url(#pc1ef3e40e2)" style="fill: none; stroke: #1ac938; stroke-width: 1.5; stroke-linecap: round"/>
   </g>
   <g id="line2d_23">
    <path d="M 187.991513 134.800727 
L 188.078395 120.288337 
L 188.112516 120.288337 
L 188.152247 118.215138 
L 191.974365 118.215138 
L 191.98347 116.141939 
L 192.658247 116.141939 
L 192.738072 102.666148 
L 192.770059 102.666148 
L 192.849879 99.55635 
L 193.463178 99.55635 
L 193.507309 97.483152 
L 193.706713 97.483152 
L 193.817279 89.190357 
L 194.969577 89.190357 
L 195.055024 85.04396 
L 195.091916 85.04396 
L 195.178337 81.934162 
L 195.227821 81.934162 
L 195.281505 79.860963 
L 195.339395 79.860963 
L 195.339395 78.824364 
L 248.584178 78.824364 
L 248.686881 63.275374 
L 248.721393 63.275374 
L 248.721393 62.238774 
L 249.120548 62.238774 
L 249.229489 46.689785 
L 249.264134 46.689785 
L 249.264134 45.653185 
L 253.896406 45.653185 
L 253.960324 41.506788 
L 254.088308 41.506788 
L 254.183291 38.39699 
L 254.237572 38.39699 
L 254.2964 36.323791 
L 254.360003 36.323791 
L 254.453538 31.140795 
L 254.475308 31.140795 
L 254.475308 30.104195 
L 254.631063 30.104195 
L 254.725716 26.994397 
L 254.779691 26.994397 
L 254.779691 25.957798 
L 256.255669 25.957798 
L 256.277432 22.848 
L 256.277432 22.848 
" clip-path="url(#pc1ef3e40e2)" style="fill: none; stroke: #e8000b; stroke-width: 1.5; stroke-linecap: round"/>
   </g>
   <g id="patch_6">
    <path d="M 182.034725 134.800727 
L 182.034725 22.848 
" style="fill: none; stroke: #ffffff; stroke-width: 1.25; stroke-linejoin: miter; stroke-linecap: square"/>
   </g>
   <g id="patch_7">
    <path d="M 182.034725 134.800727 
L 296.03383 134.800727 
" style="fill: none; stroke: #ffffff; stroke-width: 1.25; stroke-linejoin: miter; stroke-linecap: square"/>
   </g>
   <g id="text_9">
    <!-- scenario = Coastal -->
    <g style="fill: #262626" transform="translate(199.147777 16.848) scale(0.096 -0.096)">
     <defs>
      <path id="ArialMT-43" d="M 3763 1606 
L 4369 1453 
Q 4178 706 3683 314 
Q 3188 -78 2472 -78 
Q 1731 -78 1267 223 
Q 803 525 561 1097 
Q 319 1669 319 2325 
Q 319 3041 592 3573 
Q 866 4106 1370 4382 
Q 1875 4659 2481 4659 
Q 3169 4659 3637 4309 
Q 4106 3959 4291 3325 
L 3694 3184 
Q 3534 3684 3231 3912 
Q 2928 4141 2469 4141 
Q 1941 4141 1586 3887 
Q 1231 3634 1087 3207 
Q 944 2781 944 2328 
Q 944 1744 1114 1308 
Q 1284 872 1643 656 
Q 2003 441 2422 441 
Q 2931 441 3284 734 
Q 3638 1028 3763 1606 
z
" transform="scale(0.015625)"/>
     </defs>
     <use xlink:href="#ArialMT-73"/>
     <use xlink:href="#ArialMT-63" x="50"/>
     <use xlink:href="#ArialMT-65" x="100"/>
     <use xlink:href="#ArialMT-6e" x="155.615234"/>
     <use xlink:href="#ArialMT-61" x="211.230469"/>
     <use xlink:href="#ArialMT-72" x="266.845703"/>
     <use xlink:href="#ArialMT-69" x="300.146484"/>
     <use xlink:href="#ArialMT-6f" x="322.363281"/>
     <use xlink:href="#ArialMT-20" x="377.978516"/>
     <use xlink:href="#ArialMT-3d" x="405.761719"/>
     <use xlink:href="#ArialMT-20" x="464.160156"/>
     <use xlink:href="#ArialMT-43" x="491.943359"/>
     <use xlink:href="#ArialMT-6f" x="564.160156"/>
     <use xlink:href="#ArialMT-61" x="619.775391"/>
     <use xlink:href="#ArialMT-73" x="675.390625"/>
     <use xlink:href="#ArialMT-74" x="725.390625"/>
     <use xlink:href="#ArialMT-61" x="753.173828"/>
     <use xlink:href="#ArialMT-6c" x="808.789062"/>
    </g>
   </g>
  </g>
  <g id="axes_3">
   <g id="patch_8">
    <path d="M 313.133695 134.800727 
L 427.1328 134.800727 
L 427.1328 22.848 
L 313.133695 22.848 
z
" style="fill: #eaeaf2"/>
   </g>
   <g id="matplotlib.axis_5">
    <g id="xtick_5">
     <g id="line2d_24">
      <path d="M 351.350532 134.800727 
L 351.350532 22.848 
" clip-path="url(#pf62ad78ab9)" style="fill: none; stroke: #ffffff; stroke-linecap: round"/>
     </g>
    </g>
    <g id="xtick_6">
     <g id="line2d_25">
      <path d="M 397.181624 134.800727 
L 397.181624 22.848 
" clip-path="url(#pf62ad78ab9)" style="fill: none; stroke: #ffffff; stroke-linecap: round"/>
     </g>
    </g>
   </g>
   <g id="matplotlib.axis_6">
    <g id="ytick_13">
     <g id="line2d_26">
      <path d="M 313.133695 134.800727 
L 427.1328 134.800727 
" clip-path="url(#pf62ad78ab9)" style="fill: none; stroke: #ffffff; stroke-linecap: round"/>
     </g>
    </g>
    <g id="ytick_14">
     <g id="line2d_27">
      <path d="M 313.133695 112.410182 
L 427.1328 112.410182 
" clip-path="url(#pf62ad78ab9)" style="fill: none; stroke: #ffffff; stroke-linecap: round"/>
     </g>
    </g>
    <g id="ytick_15">
     <g id="line2d_28">
      <path d="M 313.133695 90.019636 
L 427.1328 90.019636 
" clip-path="url(#pf62ad78ab9)" style="fill: none; stroke: #ffffff; stroke-linecap: round"/>
     </g>
    </g>
    <g id="ytick_16">
     <g id="line2d_29">
      <path d="M 313.133695 67.629091 
L 427.1328 67.629091 
" clip-path="url(#pf62ad78ab9)" style="fill: none; stroke: #ffffff; stroke-linecap: round"/>
     </g>
    </g>
    <g id="ytick_17">
     <g id="line2d_30">
      <path d="M 313.133695 45.238545 
L 427.1328 45.238545 
" clip-path="url(#pf62ad78ab9)" style="fill: none; stroke: #ffffff; stroke-linecap: round"/>
     </g>
    </g>
    <g id="ytick_18">
     <g id="line2d_31">
      <path d="M 313.133695 22.848 
L 427.1328 22.848 
" clip-path="url(#pf62ad78ab9)" style="fill: none; stroke: #ffffff; stroke-linecap: round"/>
     </g>
    </g>
   </g>
   <g id="line2d_32">
    <path d="M 389.809011 134.800727 
L 389.873377 128.215273 
L 389.956646 128.215273 
L 390.06514 117.239515 
L 390.070713 117.239515 
L 390.097798 110.654061 
L 392.180848 110.654061 
L 392.225228 97.483152 
L 392.84809 97.483152 
L 392.892728 93.092848 
L 394.113984 93.092848 
L 394.207057 77.726788 
L 394.41631 77.726788 
L 394.439856 66.75103 
L 395.033928 66.75103 
L 395.106777 51.38497 
L 395.149715 51.38497 
L 395.25795 44.799515 
L 395.263314 44.799515 
L 395.263314 42.604364 
L 404.558439 42.604364 
L 404.63633 33.823758 
L 404.672576 33.823758 
L 404.740061 29.433455 
L 404.788979 29.433455 
L 404.843065 25.043152 
L 404.902319 25.043152 
L 404.902319 22.848 
L 404.902319 22.848 
" clip-path="url(#pf62ad78ab9)" style="fill: none; stroke: #1ac938; stroke-width: 1.5; stroke-linecap: round"/>
   </g>
   <g id="line2d_33">
    <path d="M 390.064762 134.800727 
L 390.171207 116.420429 
L 390.20683 116.420429 
L 390.20683 114.749493 
L 391.270996 114.749493 
L 391.319404 103.052939 
L 403.048991 103.052939 
L 403.14968 88.014513 
L 404.386209 88.014513 
L 404.483961 69.634214 
L 404.51927 69.634214 
L 404.51927 67.963278 
L 408.864846 67.963278 
L 408.930261 62.950469 
L 416.627144 62.950469 
L 416.722658 46.241107 
L 416.75724 46.241107 
L 416.842033 41.228299 
L 416.892217 41.228299 
L 416.947527 37.886426 
L 417.007998 37.886426 
L 417.073567 34.544554 
L 417.144352 34.544554 
L 417.220257 31.202681 
L 417.301365 31.202681 
L 417.387669 27.860809 
L 421.784149 27.860809 
L 421.865222 24.518936 
L 421.951023 24.518936 
L 421.951023 22.848 
L 421.951023 22.848 
" clip-path="url(#pf62ad78ab9)" style="fill: none; stroke: #e8000b; stroke-width: 1.5; stroke-linecap: round"/>
   </g>
   <g id="patch_9">
    <path d="M 313.133695 134.800727 
L 313.133695 22.848 
" style="fill: none; stroke: #ffffff; stroke-width: 1.25; stroke-linejoin: miter; stroke-linecap: square"/>
   </g>
   <g id="patch_10">
    <path d="M 313.133695 134.800727 
L 427.1328 134.800727 
" style="fill: none; stroke: #ffffff; stroke-width: 1.25; stroke-linejoin: miter; stroke-linecap: square"/>
   </g>
   <g id="text_10">
    <!-- scenario = Insular -->
    <g style="fill: #262626" transform="translate(332.114998 16.848) scale(0.096 -0.096)">
     <defs>
      <path id="ArialMT-49" d="M 597 0 
L 597 4581 
L 1203 4581 
L 1203 0 
L 597 0 
z
" transform="scale(0.015625)"/>
      <path id="ArialMT-75" d="M 2597 0 
L 2597 488 
Q 2209 -75 1544 -75 
Q 1250 -75 995 37 
Q 741 150 617 320 
Q 494 491 444 738 
Q 409 903 409 1263 
L 409 3319 
L 972 3319 
L 972 1478 
Q 972 1038 1006 884 
Q 1059 663 1231 536 
Q 1403 409 1656 409 
Q 1909 409 2131 539 
Q 2353 669 2445 892 
Q 2538 1116 2538 1541 
L 2538 3319 
L 3100 3319 
L 3100 0 
L 2597 0 
z
" transform="scale(0.015625)"/>
     </defs>
     <use xlink:href="#ArialMT-73"/>
     <use xlink:href="#ArialMT-63" x="50"/>
     <use xlink:href="#ArialMT-65" x="100"/>
     <use xlink:href="#ArialMT-6e" x="155.615234"/>
     <use xlink:href="#ArialMT-61" x="211.230469"/>
     <use xlink:href="#ArialMT-72" x="266.845703"/>
     <use xlink:href="#ArialMT-69" x="300.146484"/>
     <use xlink:href="#ArialMT-6f" x="322.363281"/>
     <use xlink:href="#ArialMT-20" x="377.978516"/>
     <use xlink:href="#ArialMT-3d" x="405.761719"/>
     <use xlink:href="#ArialMT-20" x="464.160156"/>
     <use xlink:href="#ArialMT-49" x="491.943359"/>
     <use xlink:href="#ArialMT-6e" x="519.726562"/>
     <use xlink:href="#ArialMT-73" x="575.341797"/>
     <use xlink:href="#ArialMT-75" x="625.341797"/>
     <use xlink:href="#ArialMT-6c" x="680.957031"/>
     <use xlink:href="#ArialMT-61" x="703.173828"/>
     <use xlink:href="#ArialMT-72" x="758.789062"/>
    </g>
   </g>
  </g>
  <g id="axes_4">
   <g id="patch_11">
    <path d="M 50.935755 263.546364 
L 164.93486 263.546364 
L 164.93486 151.593636 
L 50.935755 151.593636 
z
" style="fill: #eaeaf2"/>
   </g>
   <g id="matplotlib.axis_7">
    <g id="xtick_7">
     <g id="line2d_34">
      <path d="M 89.152591 263.546364 
L 89.152591 151.593636 
" clip-path="url(#p9d2379d02b)" style="fill: none; stroke: #ffffff; stroke-linecap: round"/>
     </g>
    </g>
    <g id="xtick_8">
     <g id="line2d_35">
      <path d="M 134.983683 263.546364 
L 134.983683 151.593636 
" clip-path="url(#p9d2379d02b)" style="fill: none; stroke: #ffffff; stroke-linecap: round"/>
     </g>
    </g>
   </g>
   <g id="matplotlib.axis_8">
    <g id="ytick_19">
     <g id="line2d_36">
      <path d="M 50.935755 263.546364 
L 164.93486 263.546364 
" clip-path="url(#p9d2379d02b)" style="fill: none; stroke: #ffffff; stroke-linecap: round"/>
     </g>
     <g id="text_11">
      <!-- 0.0 -->
      <g style="fill: #262626" transform="translate(29.203755 266.695801) scale(0.088 -0.088)">
       <use xlink:href="#ArialMT-30"/>
       <use xlink:href="#ArialMT-2e" x="55.615234"/>
       <use xlink:href="#ArialMT-30" x="83.398438"/>
      </g>
     </g>
    </g>
    <g id="ytick_20">
     <g id="line2d_37">
      <path d="M 50.935755 241.155818 
L 164.93486 241.155818 
" clip-path="url(#p9d2379d02b)" style="fill: none; stroke: #ffffff; stroke-linecap: round"/>
     </g>
     <g id="text_12">
      <!-- 0.2 -->
      <g style="fill: #262626" transform="translate(29.203755 244.305256) scale(0.088 -0.088)">
       <use xlink:href="#ArialMT-30"/>
       <use xlink:href="#ArialMT-2e" x="55.615234"/>
       <use xlink:href="#ArialMT-32" x="83.398438"/>
      </g>
     </g>
    </g>
    <g id="ytick_21">
     <g id="line2d_38">
      <path d="M 50.935755 218.765273 
L 164.93486 218.765273 
" clip-path="url(#p9d2379d02b)" style="fill: none; stroke: #ffffff; stroke-linecap: round"/>
     </g>
     <g id="text_13">
      <!-- 0.4 -->
      <g style="fill: #262626" transform="translate(29.203755 221.91471) scale(0.088 -0.088)">
       <use xlink:href="#ArialMT-30"/>
       <use xlink:href="#ArialMT-2e" x="55.615234"/>
       <use xlink:href="#ArialMT-34" x="83.398438"/>
      </g>
     </g>
    </g>
    <g id="ytick_22">
     <g id="line2d_39">
      <path d="M 50.935755 196.374727 
L 164.93486 196.374727 
" clip-path="url(#p9d2379d02b)" style="fill: none; stroke: #ffffff; stroke-linecap: round"/>
     </g>
     <g id="text_14">
      <!-- 0.6 -->
      <g style="fill: #262626" transform="translate(29.203755 199.524165) scale(0.088 -0.088)">
       <use xlink:href="#ArialMT-30"/>
       <use xlink:href="#ArialMT-2e" x="55.615234"/>
       <use xlink:href="#ArialMT-36" x="83.398438"/>
      </g>
     </g>
    </g>
    <g id="ytick_23">
     <g id="line2d_40">
      <path d="M 50.935755 173.984182 
L 164.93486 173.984182 
" clip-path="url(#p9d2379d02b)" style="fill: none; stroke: #ffffff; stroke-linecap: round"/>
     </g>
     <g id="text_15">
      <!-- 0.8 -->
      <g style="fill: #262626" transform="translate(29.203755 177.133619) scale(0.088 -0.088)">
       <use xlink:href="#ArialMT-30"/>
       <use xlink:href="#ArialMT-2e" x="55.615234"/>
       <use xlink:href="#ArialMT-38" x="83.398438"/>
      </g>
     </g>
    </g>
    <g id="ytick_24">
     <g id="line2d_41">
      <path d="M 50.935755 151.593636 
L 164.93486 151.593636 
" clip-path="url(#p9d2379d02b)" style="fill: none; stroke: #ffffff; stroke-linecap: round"/>
     </g>
     <g id="text_16">
      <!-- 1.0 -->
      <g style="fill: #262626" transform="translate(29.203755 154.743074) scale(0.088 -0.088)">
       <use xlink:href="#ArialMT-31"/>
       <use xlink:href="#ArialMT-2e" x="55.615234"/>
       <use xlink:href="#ArialMT-30" x="83.398438"/>
      </g>
     </g>
    </g>
    <g id="text_17">
     <!-- Proportion -->
     <g style="fill: #262626" transform="translate(23.295755 229.7145) rotate(-90) scale(0.096 -0.096)">
      <use xlink:href="#ArialMT-50"/>
      <use xlink:href="#ArialMT-72" x="66.699219"/>
      <use xlink:href="#ArialMT-6f" x="100"/>
      <use xlink:href="#ArialMT-70" x="155.615234"/>
      <use xlink:href="#ArialMT-6f" x="211.230469"/>
      <use xlink:href="#ArialMT-72" x="266.845703"/>
      <use xlink:href="#ArialMT-74" x="300.146484"/>
      <use xlink:href="#ArialMT-69" x="327.929688"/>
      <use xlink:href="#ArialMT-6f" x="350.146484"/>
      <use xlink:href="#ArialMT-6e" x="405.761719"/>
     </g>
    </g>
   </g>
   <g id="line2d_42">
    <path d="M 67.002641 263.546364 
L 67.053398 258.410917 
L 73.042864 258.410917 
L 73.042864 257.383828 
L 73.246116 257.383828 
L 73.296866 252.248382 
L 73.651586 252.248382 
L 73.667517 249.167114 
L 74.08505 249.167114 
L 74.191484 241.97749 
L 74.224233 241.97749 
L 74.259752 239.923311 
L 78.245591 239.923311 
L 78.269735 233.760776 
L 78.732997 233.760776 
L 78.735431 230.679508 
L 99.014993 230.679508 
L 99.115689 218.354437 
L 99.143124 218.354437 
L 99.174027 216.300259 
L 105.14136 216.300259 
L 105.14136 215.273169 
L 105.747585 215.273169 
L 105.747585 214.24608 
L 106.072716 214.24608 
L 106.181609 196.785563 
L 106.213966 196.785563 
L 106.292522 193.704295 
L 106.341244 193.704295 
L 106.452234 187.54176 
L 106.465829 187.54176 
L 106.557399 178.297957 
L 106.589134 178.297957 
L 106.664438 175.216689 
L 106.853046 175.216689 
L 106.896565 173.16251 
L 110.352024 173.16251 
L 110.352024 172.135421 
L 110.784201 172.135421 
L 110.885932 159.81035 
L 110.910506 159.81035 
L 110.943522 156.729083 
L 111.271072 156.729083 
L 111.352817 152.620726 
L 111.389811 152.620726 
L 111.389811 151.593636 
L 111.389811 151.593636 
" clip-path="url(#p9d2379d02b)" style="fill: none; stroke: #023eff; stroke-width: 1.5; stroke-linecap: round"/>
   </g>
   <g id="line2d_43">
    <path d="M 67.002641 263.546364 
L 67.053399 250.824463 
L 73.651586 250.824463 
L 73.667517 243.191322 
L 74.109621 243.191322 
L 74.191484 233.013802 
L 74.224237 233.013802 
L 74.259756 227.925041 
L 111.331375 227.925041 
L 111.426015 197.392479 
L 111.455436 197.392479 
L 111.527767 187.214959 
L 111.568685 187.214959 
L 111.572503 179.581818 
L 117.297236 179.581818 
L 117.297236 177.037438 
L 117.510922 177.037438 
L 117.510922 174.493058 
L 117.891209 174.493058 
L 117.891209 171.948678 
L 119.064064 171.948678 
L 119.124353 164.315537 
L 119.184482 164.315537 
L 119.249078 159.226777 
L 119.318312 159.226777 
L 119.318312 156.682397 
L 119.536921 156.682397 
L 119.610833 151.593636 
L 119.610833 151.593636 
" clip-path="url(#p9d2379d02b)" style="fill: none; stroke: #ff7c00; stroke-width: 1.5; stroke-linecap: round"/>
   </g>
   <g id="patch_12">
    <path d="M 50.935755 263.546364 
L 50.935755 151.593636 
" style="fill: none; stroke: #ffffff; stroke-width: 1.25; stroke-linejoin: miter; stroke-linecap: square"/>
   </g>
   <g id="patch_13">
    <path d="M 50.935755 263.546364 
L 164.93486 263.546364 
" style="fill: none; stroke: #ffffff; stroke-width: 1.25; stroke-linejoin: miter; stroke-linecap: square"/>
   </g>
   <g id="text_18">
    <!-- scenario = Polar -->
    <g style="fill: #262626" transform="translate(73.118057 145.593636) scale(0.096 -0.096)">
     <use xlink:href="#ArialMT-73"/>
     <use xlink:href="#ArialMT-63" x="50"/>
     <use xlink:href="#ArialMT-65" x="100"/>
     <use xlink:href="#ArialMT-6e" x="155.615234"/>
     <use xlink:href="#ArialMT-61" x="211.230469"/>
     <use xlink:href="#ArialMT-72" x="266.845703"/>
     <use xlink:href="#ArialMT-69" x="300.146484"/>
     <use xlink:href="#ArialMT-6f" x="322.363281"/>
     <use xlink:href="#ArialMT-20" x="377.978516"/>
     <use xlink:href="#ArialMT-3d" x="405.761719"/>
     <use xlink:href="#ArialMT-20" x="464.160156"/>
     <use xlink:href="#ArialMT-50" x="491.943359"/>
     <use xlink:href="#ArialMT-6f" x="558.642578"/>
     <use xlink:href="#ArialMT-6c" x="614.257812"/>
     <use xlink:href="#ArialMT-61" x="636.474609"/>
     <use xlink:href="#ArialMT-72" x="692.089844"/>
    </g>
   </g>
  </g>
  <g id="axes_5">
   <g id="patch_14">
    <path d="M 182.034725 263.546364 
L 296.03383 263.546364 
L 296.03383 151.593636 
L 182.034725 151.593636 
z
" style="fill: #eaeaf2"/>
   </g>
   <g id="matplotlib.axis_9">
    <g id="xtick_9">
     <g id="line2d_44">
      <path d="M 220.251562 263.546364 
L 220.251562 151.593636 
" clip-path="url(#pa19d7cd47e)" style="fill: none; stroke: #ffffff; stroke-linecap: round"/>
     </g>
     <g id="text_19">
      <!-- 50 -->
      <g style="fill: #262626" transform="translate(215.357937 279.345239) scale(0.088 -0.088)">
       <defs>
        <path id="ArialMT-35" d="M 266 1200 
L 856 1250 
Q 922 819 1161 601 
Q 1400 384 1738 384 
Q 2144 384 2425 690 
Q 2706 997 2706 1503 
Q 2706 1984 2436 2262 
Q 2166 2541 1728 2541 
Q 1456 2541 1237 2417 
Q 1019 2294 894 2097 
L 366 2166 
L 809 4519 
L 3088 4519 
L 3088 3981 
L 1259 3981 
L 1013 2750 
Q 1425 3038 1878 3038 
Q 2478 3038 2890 2622 
Q 3303 2206 3303 1553 
Q 3303 931 2941 478 
Q 2500 -78 1738 -78 
Q 1113 -78 717 272 
Q 322 622 266 1200 
z
" transform="scale(0.015625)"/>
       </defs>
       <use xlink:href="#ArialMT-35"/>
       <use xlink:href="#ArialMT-30" x="55.615234"/>
      </g>
     </g>
    </g>
    <g id="xtick_10">
     <g id="line2d_45">
      <path d="M 266.082653 263.546364 
L 266.082653 151.593636 
" clip-path="url(#pa19d7cd47e)" style="fill: none; stroke: #ffffff; stroke-linecap: round"/>
     </g>
     <g id="text_20">
      <!-- 100 -->
      <g style="fill: #262626" transform="translate(258.742216 279.345239) scale(0.088 -0.088)">
       <use xlink:href="#ArialMT-31"/>
       <use xlink:href="#ArialMT-30" x="55.615234"/>
       <use xlink:href="#ArialMT-30" x="111.230469"/>
      </g>
     </g>
    </g>
    <g id="text_21">
     <!-- rtt -->
     <g style="fill: #262626" transform="translate(234.769027 291.965739) scale(0.096 -0.096)">
      <use xlink:href="#ArialMT-72"/>
      <use xlink:href="#ArialMT-74" x="33.300781"/>
      <use xlink:href="#ArialMT-74" x="61.083984"/>
     </g>
    </g>
   </g>
   <g id="matplotlib.axis_10">
    <g id="ytick_25">
     <g id="line2d_46">
      <path d="M 182.034725 263.546364 
L 296.03383 263.546364 
" clip-path="url(#pa19d7cd47e)" style="fill: none; stroke: #ffffff; stroke-linecap: round"/>
     </g>
    </g>
    <g id="ytick_26">
     <g id="line2d_47">
      <path d="M 182.034725 241.155818 
L 296.03383 241.155818 
" clip-path="url(#pa19d7cd47e)" style="fill: none; stroke: #ffffff; stroke-linecap: round"/>
     </g>
    </g>
    <g id="ytick_27">
     <g id="line2d_48">
      <path d="M 182.034725 218.765273 
L 296.03383 218.765273 
" clip-path="url(#pa19d7cd47e)" style="fill: none; stroke: #ffffff; stroke-linecap: round"/>
     </g>
    </g>
    <g id="ytick_28">
     <g id="line2d_49">
      <path d="M 182.034725 196.374727 
L 296.03383 196.374727 
" clip-path="url(#pa19d7cd47e)" style="fill: none; stroke: #ffffff; stroke-linecap: round"/>
     </g>
    </g>
    <g id="ytick_29">
     <g id="line2d_50">
      <path d="M 182.034725 173.984182 
L 296.03383 173.984182 
" clip-path="url(#pa19d7cd47e)" style="fill: none; stroke: #ffffff; stroke-linecap: round"/>
     </g>
    </g>
    <g id="ytick_30">
     <g id="line2d_51">
      <path d="M 182.034725 151.593636 
L 296.03383 151.593636 
" clip-path="url(#pa19d7cd47e)" style="fill: none; stroke: #ffffff; stroke-linecap: round"/>
     </g>
    </g>
   </g>
   <g id="line2d_52">
    <path d="M 222.018345 263.546364 
L 222.099939 259.729793 
L 222.133632 259.729793 
L 222.225471 255.913223 
L 222.285134 255.913223 
L 222.388131 252.096653 
L 222.429895 252.096653 
L 222.429895 250.824463 
L 223.657196 250.824463 
L 223.758414 247.007893 
L 244.647282 247.007893 
L 244.749712 239.374752 
L 244.884529 239.374752 
L 244.991861 234.285992 
L 245.020415 234.285992 
L 245.125894 212.65876 
L 245.145993 212.65876 
L 245.238227 206.29781 
L 245.27432 206.29781 
L 245.371435 202.48124 
L 245.433773 202.48124 
L 245.54477 188.487149 
L 245.547812 188.487149 
L 245.583135 182.126198 
L 245.772933 182.126198 
L 245.86174 178.309628 
L 245.897595 178.309628 
L 245.955625 175.765248 
L 246.266427 175.765248 
L 246.368976 169.404298 
L 246.37927 169.404298 
L 246.46942 164.315537 
L 246.494023 164.315537 
L 246.537227 160.498967 
L 249.764257 160.498967 
L 249.80563 155.410207 
L 250.940637 155.410207 
L 250.98059 151.593636 
L 250.98059 151.593636 
" clip-path="url(#pa19d7cd47e)" style="fill: none; stroke: #023eff; stroke-width: 1.5; stroke-linecap: round"/>
   </g>
   <g id="line2d_53">
    <path d="M 244.940328 263.546364 
L 244.940328 261.680485 
L 244.940328 261.680485 
L 244.940328 259.814606 
L 245.018128 259.814606 
L 245.018128 257.948727 
L 245.018128 257.948727 
L 245.018128 256.082848 
L 245.096432 256.082848 
L 245.096432 254.21697 
L 245.096432 254.21697 
L 245.096432 252.351091 
L 245.102614 252.351091 
L 245.102614 250.485212 
L 245.102614 250.485212 
L 245.102614 248.619333 
L 245.145993 248.619333 
L 245.145993 246.753455 
L 245.145993 246.753455 
L 245.145993 244.887576 
L 245.202639 244.887576 
L 245.202639 243.021697 
L 245.202639 243.021697 
L 245.202639 241.155818 
L 245.266249 241.155818 
L 245.266249 239.289939 
L 245.266249 239.289939 
L 245.266249 237.424061 
L 245.33656 237.424061 
L 245.33656 235.558182 
L 245.33656 235.558182 
L 245.33656 233.692303 
L 245.535644 233.692303 
L 245.535644 231.826424 
L 245.535644 231.826424 
L 245.535644 229.960545 
L 245.535847 229.960545 
L 245.535847 228.094667 
L 245.535847 228.094667 
L 245.535847 226.228788 
L 245.541106 226.228788 
L 245.541106 224.362909 
L 245.541106 224.362909 
L 245.541106 222.49703 
L 245.541616 222.49703 
L 245.541616 220.631152 
L 245.541616 220.631152 
L 245.541616 218.765273 
L 245.55233 218.765273 
L 245.55233 216.899394 
L 245.55233 216.899394 
L 245.55233 215.033515 
L 245.552785 215.033515 
L 245.552785 213.167636 
L 245.552785 213.167636 
L 245.552785 211.301758 
L 263.35188 211.301758 
L 263.35188 209.435879 
L 263.35188 209.435879 
L 263.35188 207.57 
L 263.361404 207.57 
L 263.361404 205.704121 
L 263.361404 205.704121 
L 263.361404 203.838242 
L 263.377636 203.838242 
L 263.377636 201.972364 
L 263.377636 201.972364 
L 263.377636 200.106485 
L 263.827289 200.106485 
L 263.827289 198.240606 
L 263.827289 198.240606 
L 263.827289 196.374727 
L 263.83559 196.374727 
L 263.83559 194.508848 
L 263.83559 194.508848 
L 263.83559 192.64297 
L 263.875305 192.64297 
L 263.875305 190.777091 
L 263.875305 190.777091 
L 263.875305 188.911212 
L 263.903187 188.911212 
L 263.903187 187.045333 
L 263.903187 187.045333 
L 263.903187 185.179455 
L 264.370806 185.179455 
L 264.370806 183.313576 
L 264.370806 183.313576 
L 264.370806 181.447697 
L 264.423444 181.447697 
L 264.423444 179.581818 
L 264.423444 179.581818 
L 264.423444 177.715939 
L 264.644348 177.715939 
L 264.644348 175.850061 
L 264.644348 175.850061 
L 264.644348 173.984182 
L 264.796158 173.984182 
L 264.796158 172.118303 
L 264.796158 172.118303 
L 264.796158 170.252424 
L 265.682555 170.252424 
L 265.682555 168.386545 
L 265.682555 168.386545 
L 265.682555 166.520667 
L 265.686366 166.520667 
L 265.686366 164.654788 
L 265.686366 164.654788 
L 265.686366 162.788909 
L 265.724857 162.788909 
L 265.724857 160.92303 
L 265.724857 160.92303 
L 265.724857 159.057152 
L 265.740515 159.057152 
L 265.740515 157.191273 
L 265.740515 157.191273 
L 265.740515 155.325394 
L 265.758704 155.325394 
L 265.758704 153.459515 
L 265.758704 153.459515 
L 265.758704 151.593636 
" clip-path="url(#pa19d7cd47e)" style="fill: none; stroke: #ff7c00; stroke-width: 1.5; stroke-linecap: round"/>
   </g>
   <g id="line2d_54">
    <path d="M 187.216503 263.546364 
L 187.254104 261.711073 
L 189.481548 261.711073 
L 189.577053 251.616975 
L 189.606753 251.616975 
L 189.678134 248.864039 
L 189.719901 248.864039 
L 189.815849 246.111103 
L 189.870146 246.111103 
L 189.928785 244.275812 
L 189.991824 244.275812 
L 190.059349 242.440522 
L 190.131451 242.440522 
L 190.131451 241.522876 
L 191.128732 241.522876 
L 191.211525 236.93465 
L 191.313045 236.93465 
L 191.391868 234.181714 
L 192.373553 234.181714 
L 192.463513 223.16997 
L 192.498033 223.16997 
L 192.583673 220.417034 
L 192.634776 220.417034 
L 192.691434 217.664098 
L 192.753649 217.664098 
L 192.821449 215.828808 
L 192.894887 215.828808 
L 192.894887 214.911162 
L 194.304218 214.911162 
L 194.414457 206.652355 
L 194.446536 206.652355 
L 194.521302 203.899419 
L 194.5641 203.899419 
L 194.610616 202.064128 
L 195.85403 202.064128 
L 195.947371 196.558256 
L 195.986267 196.558256 
L 196.083865 193.80532 
L 196.142527 193.80532 
L 196.142527 192.887675 
L 196.829206 192.887675 
L 196.932401 178.20535 
L 196.967362 178.20535 
L 197.052568 175.452414 
L 197.102862 175.452414 
L 197.158331 173.617124 
L 197.219029 173.617124 
L 197.284987 171.781833 
L 197.356245 171.781833 
L 197.43289 169.946542 
L 206.470282 169.946542 
L 206.564243 165.358316 
L 207.777516 165.358316 
L 207.885447 161.687735 
L 207.929239 161.687735 
L 207.929239 160.770089 
L 217.875039 160.770089 
L 217.934436 158.934799 
L 217.997568 158.934799 
L 217.997568 158.017154 
L 218.443508 158.017154 
L 218.463337 156.181863 
L 223.663553 156.181863 
L 223.732755 153.428927 
L 224.137687 153.428927 
L 224.137687 152.511282 
L 225.299807 152.511282 
L 225.299807 151.593636 
L 225.299807 151.593636 
" clip-path="url(#pa19d7cd47e)" style="fill: none; stroke: #1ac938; stroke-width: 1.5; stroke-linecap: round"/>
   </g>
   <g id="line2d_55">
    <path d="M 187.216503 263.546364 
L 187.254103 261.59936 
L 189.928785 261.59936 
L 190.03582 251.86434 
L 190.055756 251.86434 
L 190.146702 245.049826 
L 190.184086 245.049826 
L 190.27085 242.12932 
L 190.320361 242.12932 
L 190.374039 240.182316 
L 191.796079 240.182316 
L 191.796079 239.208814 
L 205.352978 239.208814 
L 205.371618 236.288308 
L 206.599745 236.288308 
L 206.68536 233.367802 
L 206.735554 233.367802 
L 206.795749 228.500292 
L 206.850957 228.500292 
L 206.922117 225.579787 
L 206.992994 225.579787 
L 206.992994 224.606285 
L 207.651725 224.606285 
L 207.749127 214.871265 
L 207.777516 214.871265 
L 207.885447 210.977257 
L 207.929239 210.977257 
L 207.929239 210.003755 
L 217.875039 210.003755 
L 217.934436 208.056751 
L 217.997568 208.056751 
L 217.997568 207.083249 
L 218.443508 207.083249 
L 218.524682 203.189241 
L 219.542161 203.189241 
L 219.650955 200.268735 
L 219.713003 200.268735 
L 219.780327 198.321731 
L 221.847216 198.321731 
L 221.890651 195.401225 
L 222.095799 195.401225 
L 222.186351 189.560213 
L 222.213464 189.560213 
L 222.315363 182.7457 
L 222.440651 182.7457 
L 222.488233 180.798696 
L 223.175385 180.798696 
L 223.257542 177.87819 
L 223.308239 177.87819 
L 223.365385 175.931186 
L 223.513334 175.931186 
L 223.620164 172.037178 
L 223.659623 172.037178 
L 223.659623 171.063676 
L 225.219308 171.063676 
L 225.258015 167.169668 
L 225.419749 167.169668 
L 225.457208 165.222664 
L 228.348296 165.222664 
L 228.36973 154.514142 
L 230.021222 154.514142 
L 230.102141 151.593636 
L 230.102141 151.593636 
" clip-path="url(#pa19d7cd47e)" style="fill: none; stroke: #e8000b; stroke-width: 1.5; stroke-linecap: round"/>
   </g>
   <g id="patch_15">
    <path d="M 182.034725 263.546364 
L 182.034725 151.593636 
" style="fill: none; stroke: #ffffff; stroke-width: 1.25; stroke-linejoin: miter; stroke-linecap: square"/>
   </g>
   <g id="patch_16">
    <path d="M 182.034725 263.546364 
L 296.03383 263.546364 
" style="fill: none; stroke: #ffffff; stroke-width: 1.25; stroke-linejoin: miter; stroke-linecap: square"/>
   </g>
   <g id="text_22">
    <!-- scenario = Equatorial -->
    <g style="fill: #262626" transform="translate(193.809278 145.593636) scale(0.096 -0.096)">
     <defs>
      <path id="ArialMT-45" d="M 506 0 
L 506 4581 
L 3819 4581 
L 3819 4041 
L 1113 4041 
L 1113 2638 
L 3647 2638 
L 3647 2100 
L 1113 2100 
L 1113 541 
L 3925 541 
L 3925 0 
L 506 0 
z
" transform="scale(0.015625)"/>
      <path id="ArialMT-71" d="M 2538 -1272 
L 2538 353 
Q 2406 169 2170 47 
Q 1934 -75 1669 -75 
Q 1078 -75 651 397 
Q 225 869 225 1691 
Q 225 2191 398 2587 
Q 572 2984 901 3189 
Q 1231 3394 1625 3394 
Q 2241 3394 2594 2875 
L 2594 3319 
L 3100 3319 
L 3100 -1272 
L 2538 -1272 
z
M 803 1669 
Q 803 1028 1072 708 
Q 1341 388 1716 388 
Q 2075 388 2334 692 
Q 2594 997 2594 1619 
Q 2594 2281 2320 2615 
Q 2047 2950 1678 2950 
Q 1313 2950 1058 2639 
Q 803 2328 803 1669 
z
" transform="scale(0.015625)"/>
     </defs>
     <use xlink:href="#ArialMT-73"/>
     <use xlink:href="#ArialMT-63" x="50"/>
     <use xlink:href="#ArialMT-65" x="100"/>
     <use xlink:href="#ArialMT-6e" x="155.615234"/>
     <use xlink:href="#ArialMT-61" x="211.230469"/>
     <use xlink:href="#ArialMT-72" x="266.845703"/>
     <use xlink:href="#ArialMT-69" x="300.146484"/>
     <use xlink:href="#ArialMT-6f" x="322.363281"/>
     <use xlink:href="#ArialMT-20" x="377.978516"/>
     <use xlink:href="#ArialMT-3d" x="405.761719"/>
     <use xlink:href="#ArialMT-20" x="464.160156"/>
     <use xlink:href="#ArialMT-45" x="491.943359"/>
     <use xlink:href="#ArialMT-71" x="558.642578"/>
     <use xlink:href="#ArialMT-75" x="614.257812"/>
     <use xlink:href="#ArialMT-61" x="669.873047"/>
     <use xlink:href="#ArialMT-74" x="725.488281"/>
     <use xlink:href="#ArialMT-6f" x="753.271484"/>
     <use xlink:href="#ArialMT-72" x="808.886719"/>
     <use xlink:href="#ArialMT-69" x="842.1875"/>
     <use xlink:href="#ArialMT-61" x="864.404297"/>
     <use xlink:href="#ArialMT-6c" x="920.019531"/>
    </g>
   </g>
  </g>
  <g id="axes_6">
   <g id="patch_17">
    <path d="M 313.133695 263.546364 
L 427.1328 263.546364 
L 427.1328 151.593636 
L 313.133695 151.593636 
z
" style="fill: #eaeaf2"/>
   </g>
   <g id="matplotlib.axis_11">
    <g id="xtick_11">
     <g id="line2d_56">
      <path d="M 351.350532 263.546364 
L 351.350532 151.593636 
" clip-path="url(#pae0b199f4e)" style="fill: none; stroke: #ffffff; stroke-linecap: round"/>
     </g>
     <g id="text_23">
      <!-- 50 -->
      <g style="fill: #262626" transform="translate(346.456907 279.345239) scale(0.088 -0.088)">
       <use xlink:href="#ArialMT-35"/>
       <use xlink:href="#ArialMT-30" x="55.615234"/>
      </g>
     </g>
    </g>
    <g id="xtick_12">
     <g id="line2d_57">
      <path d="M 397.181624 263.546364 
L 397.181624 151.593636 
" clip-path="url(#pae0b199f4e)" style="fill: none; stroke: #ffffff; stroke-linecap: round"/>
     </g>
     <g id="text_24">
      <!-- 100 -->
      <g style="fill: #262626" transform="translate(389.841186 279.345239) scale(0.088 -0.088)">
       <use xlink:href="#ArialMT-31"/>
       <use xlink:href="#ArialMT-30" x="55.615234"/>
       <use xlink:href="#ArialMT-30" x="111.230469"/>
      </g>
     </g>
    </g>
    <g id="text_25">
     <!-- rtt -->
     <g style="fill: #262626" transform="translate(365.867998 291.965739) scale(0.096 -0.096)">
      <use xlink:href="#ArialMT-72"/>
      <use xlink:href="#ArialMT-74" x="33.300781"/>
      <use xlink:href="#ArialMT-74" x="61.083984"/>
     </g>
    </g>
   </g>
   <g id="matplotlib.axis_12">
    <g id="ytick_31">
     <g id="line2d_58">
      <path d="M 313.133695 263.546364 
L 427.1328 263.546364 
" clip-path="url(#pae0b199f4e)" style="fill: none; stroke: #ffffff; stroke-linecap: round"/>
     </g>
    </g>
    <g id="ytick_32">
     <g id="line2d_59">
      <path d="M 313.133695 241.155818 
L 427.1328 241.155818 
" clip-path="url(#pae0b199f4e)" style="fill: none; stroke: #ffffff; stroke-linecap: round"/>
     </g>
    </g>
    <g id="ytick_33">
     <g id="line2d_60">
      <path d="M 313.133695 218.765273 
L 427.1328 218.765273 
" clip-path="url(#pae0b199f4e)" style="fill: none; stroke: #ffffff; stroke-linecap: round"/>
     </g>
    </g>
    <g id="ytick_34">
     <g id="line2d_61">
      <path d="M 313.133695 196.374727 
L 427.1328 196.374727 
" clip-path="url(#pae0b199f4e)" style="fill: none; stroke: #ffffff; stroke-linecap: round"/>
     </g>
    </g>
    <g id="ytick_35">
     <g id="line2d_62">
      <path d="M 313.133695 173.984182 
L 427.1328 173.984182 
" clip-path="url(#pae0b199f4e)" style="fill: none; stroke: #ffffff; stroke-linecap: round"/>
     </g>
    </g>
    <g id="ytick_36">
     <g id="line2d_63">
      <path d="M 313.133695 151.593636 
L 427.1328 151.593636 
" clip-path="url(#pae0b199f4e)" style="fill: none; stroke: #ffffff; stroke-linecap: round"/>
     </g>
    </g>
   </g>
   <g id="line2d_64">
    <path d="M 323.146364 263.546364 
L 323.160141 252.781678 
L 327.424168 252.781678 
L 327.433733 246.322867 
L 327.785031 246.322867 
L 327.819571 242.016993 
L 328.019327 242.016993 
L 328.064642 229.099371 
L 330.020493 229.099371 
L 330.123095 218.334685 
L 330.166736 218.334685 
L 330.246099 211.875874 
L 333.799957 211.875874 
L 333.87657 192.499441 
L 334.770544 192.499441 
L 334.833071 175.275944 
L 335.089848 175.275944 
L 335.093439 170.97007 
L 335.399747 170.97007 
L 335.496968 158.052448 
L 336.248115 158.052448 
L 336.249391 151.593636 
L 336.249391 151.593636 
" clip-path="url(#pae0b199f4e)" style="fill: none; stroke: #ff7c00; stroke-width: 1.5; stroke-linecap: round"/>
   </g>
   <g id="patch_18">
    <path d="M 313.133695 263.546364 
L 313.133695 151.593636 
" style="fill: none; stroke: #ffffff; stroke-width: 1.25; stroke-linejoin: miter; stroke-linecap: square"/>
   </g>
   <g id="patch_19">
    <path d="M 313.133695 263.546364 
L 427.1328 263.546364 
" style="fill: none; stroke: #ffffff; stroke-width: 1.25; stroke-linejoin: miter; stroke-linecap: square"/>
   </g>
   <g id="text_26">
    <!-- scenario = TransOrbital -->
    <g style="fill: #262626" transform="translate(320.379748 145.593636) scale(0.096 -0.096)">
     <defs>
      <path id="ArialMT-54" d="M 1659 0 
L 1659 4041 
L 150 4041 
L 150 4581 
L 3781 4581 
L 3781 4041 
L 2266 4041 
L 2266 0 
L 1659 0 
z
" transform="scale(0.015625)"/>
      <path id="ArialMT-4f" d="M 309 2231 
Q 309 3372 921 4017 
Q 1534 4663 2503 4663 
Q 3138 4663 3647 4359 
Q 4156 4056 4423 3514 
Q 4691 2972 4691 2284 
Q 4691 1588 4409 1038 
Q 4128 488 3612 205 
Q 3097 -78 2500 -78 
Q 1853 -78 1343 234 
Q 834 547 571 1087 
Q 309 1628 309 2231 
z
M 934 2222 
Q 934 1394 1379 917 
Q 1825 441 2497 441 
Q 3181 441 3623 922 
Q 4066 1403 4066 2288 
Q 4066 2847 3877 3264 
Q 3688 3681 3323 3911 
Q 2959 4141 2506 4141 
Q 1863 4141 1398 3698 
Q 934 3256 934 2222 
z
" transform="scale(0.015625)"/>
      <path id="ArialMT-62" d="M 941 0 
L 419 0 
L 419 4581 
L 981 4581 
L 981 2947 
Q 1338 3394 1891 3394 
Q 2197 3394 2470 3270 
Q 2744 3147 2920 2923 
Q 3097 2700 3197 2384 
Q 3297 2069 3297 1709 
Q 3297 856 2875 390 
Q 2453 -75 1863 -75 
Q 1275 -75 941 416 
L 941 0 
z
M 934 1684 
Q 934 1088 1097 822 
Q 1363 388 1816 388 
Q 2184 388 2453 708 
Q 2722 1028 2722 1663 
Q 2722 2313 2464 2622 
Q 2206 2931 1841 2931 
Q 1472 2931 1203 2611 
Q 934 2291 934 1684 
z
" transform="scale(0.015625)"/>
     </defs>
     <use xlink:href="#ArialMT-73"/>
     <use xlink:href="#ArialMT-63" x="50"/>
     <use xlink:href="#ArialMT-65" x="100"/>
     <use xlink:href="#ArialMT-6e" x="155.615234"/>
     <use xlink:href="#ArialMT-61" x="211.230469"/>
     <use xlink:href="#ArialMT-72" x="266.845703"/>
     <use xlink:href="#ArialMT-69" x="300.146484"/>
     <use xlink:href="#ArialMT-6f" x="322.363281"/>
     <use xlink:href="#ArialMT-20" x="377.978516"/>
     <use xlink:href="#ArialMT-3d" x="405.761719"/>
     <use xlink:href="#ArialMT-20" x="464.160156"/>
     <use xlink:href="#ArialMT-54" x="490.193359"/>
     <use xlink:href="#ArialMT-72" x="547.527344"/>
     <use xlink:href="#ArialMT-61" x="580.828125"/>
     <use xlink:href="#ArialMT-6e" x="636.443359"/>
     <use xlink:href="#ArialMT-73" x="692.058594"/>
     <use xlink:href="#ArialMT-4f" x="742.058594"/>
     <use xlink:href="#ArialMT-72" x="819.841797"/>
     <use xlink:href="#ArialMT-62" x="853.142578"/>
     <use xlink:href="#ArialMT-69" x="908.757812"/>
     <use xlink:href="#ArialMT-74" x="930.974609"/>
     <use xlink:href="#ArialMT-61" x="958.757812"/>
     <use xlink:href="#ArialMT-6c" x="1014.373047"/>
    </g>
   </g>
  </g>
  <g id="axes_7">
   <g id="patch_20">
    <path d="M 50.935755 392.292 
L 164.93486 392.292 
L 164.93486 280.339273 
L 50.935755 280.339273 
z
" style="fill: #eaeaf2"/>
   </g>
   <g id="matplotlib.axis_13">
    <g id="xtick_13">
     <g id="line2d_65">
      <path d="M 89.152591 392.292 
L 89.152591 280.339273 
" clip-path="url(#paecc2da30c)" style="fill: none; stroke: #ffffff; stroke-linecap: round"/>
     </g>
     <g id="text_27">
      <!-- 50 -->
      <g style="fill: #262626" transform="translate(84.258966 408.090875) scale(0.088 -0.088)">
       <use xlink:href="#ArialMT-35"/>
       <use xlink:href="#ArialMT-30" x="55.615234"/>
      </g>
     </g>
    </g>
    <g id="xtick_14">
     <g id="line2d_66">
      <path d="M 134.983683 392.292 
L 134.983683 280.339273 
" clip-path="url(#paecc2da30c)" style="fill: none; stroke: #ffffff; stroke-linecap: round"/>
     </g>
     <g id="text_28">
      <!-- 100 -->
      <g style="fill: #262626" transform="translate(127.643246 408.090875) scale(0.088 -0.088)">
       <use xlink:href="#ArialMT-31"/>
       <use xlink:href="#ArialMT-30" x="55.615234"/>
       <use xlink:href="#ArialMT-30" x="111.230469"/>
      </g>
     </g>
    </g>
    <g id="text_29">
     <!-- rtt -->
     <g style="fill: #262626" transform="translate(103.670057 420.711375) scale(0.096 -0.096)">
      <use xlink:href="#ArialMT-72"/>
      <use xlink:href="#ArialMT-74" x="33.300781"/>
      <use xlink:href="#ArialMT-74" x="61.083984"/>
     </g>
    </g>
   </g>
   <g id="matplotlib.axis_14">
    <g id="ytick_37">
     <g id="line2d_67">
      <path d="M 50.935755 392.292 
L 164.93486 392.292 
" clip-path="url(#paecc2da30c)" style="fill: none; stroke: #ffffff; stroke-linecap: round"/>
     </g>
     <g id="text_30">
      <!-- 0.0 -->
      <g style="fill: #262626" transform="translate(29.203755 395.441438) scale(0.088 -0.088)">
       <use xlink:href="#ArialMT-30"/>
       <use xlink:href="#ArialMT-2e" x="55.615234"/>
       <use xlink:href="#ArialMT-30" x="83.398438"/>
      </g>
     </g>
    </g>
    <g id="ytick_38">
     <g id="line2d_68">
      <path d="M 50.935755 369.901455 
L 164.93486 369.901455 
" clip-path="url(#paecc2da30c)" style="fill: none; stroke: #ffffff; stroke-linecap: round"/>
     </g>
     <g id="text_31">
      <!-- 0.2 -->
      <g style="fill: #262626" transform="translate(29.203755 373.050892) scale(0.088 -0.088)">
       <use xlink:href="#ArialMT-30"/>
       <use xlink:href="#ArialMT-2e" x="55.615234"/>
       <use xlink:href="#ArialMT-32" x="83.398438"/>
      </g>
     </g>
    </g>
    <g id="ytick_39">
     <g id="line2d_69">
      <path d="M 50.935755 347.510909 
L 164.93486 347.510909 
" clip-path="url(#paecc2da30c)" style="fill: none; stroke: #ffffff; stroke-linecap: round"/>
     </g>
     <g id="text_32">
      <!-- 0.4 -->
      <g style="fill: #262626" transform="translate(29.203755 350.660347) scale(0.088 -0.088)">
       <use xlink:href="#ArialMT-30"/>
       <use xlink:href="#ArialMT-2e" x="55.615234"/>
       <use xlink:href="#ArialMT-34" x="83.398438"/>
      </g>
     </g>
    </g>
    <g id="ytick_40">
     <g id="line2d_70">
      <path d="M 50.935755 325.120364 
L 164.93486 325.120364 
" clip-path="url(#paecc2da30c)" style="fill: none; stroke: #ffffff; stroke-linecap: round"/>
     </g>
     <g id="text_33">
      <!-- 0.6 -->
      <g style="fill: #262626" transform="translate(29.203755 328.269801) scale(0.088 -0.088)">
       <use xlink:href="#ArialMT-30"/>
       <use xlink:href="#ArialMT-2e" x="55.615234"/>
       <use xlink:href="#ArialMT-36" x="83.398438"/>
      </g>
     </g>
    </g>
    <g id="ytick_41">
     <g id="line2d_71">
      <path d="M 50.935755 302.729818 
L 164.93486 302.729818 
" clip-path="url(#paecc2da30c)" style="fill: none; stroke: #ffffff; stroke-linecap: round"/>
     </g>
     <g id="text_34">
      <!-- 0.8 -->
      <g style="fill: #262626" transform="translate(29.203755 305.879256) scale(0.088 -0.088)">
       <use xlink:href="#ArialMT-30"/>
       <use xlink:href="#ArialMT-2e" x="55.615234"/>
       <use xlink:href="#ArialMT-38" x="83.398438"/>
      </g>
     </g>
    </g>
    <g id="ytick_42">
     <g id="line2d_72">
      <path d="M 50.935755 280.339273 
L 164.93486 280.339273 
" clip-path="url(#paecc2da30c)" style="fill: none; stroke: #ffffff; stroke-linecap: round"/>
     </g>
     <g id="text_35">
      <!-- 1.0 -->
      <g style="fill: #262626" transform="translate(29.203755 283.48871) scale(0.088 -0.088)">
       <use xlink:href="#ArialMT-31"/>
       <use xlink:href="#ArialMT-2e" x="55.615234"/>
       <use xlink:href="#ArialMT-30" x="83.398438"/>
      </g>
     </g>
    </g>
    <g id="text_36">
     <!-- Proportion -->
     <g style="fill: #262626" transform="translate(23.295755 358.460136) rotate(-90) scale(0.096 -0.096)">
      <use xlink:href="#ArialMT-50"/>
      <use xlink:href="#ArialMT-72" x="66.699219"/>
      <use xlink:href="#ArialMT-6f" x="100"/>
      <use xlink:href="#ArialMT-70" x="155.615234"/>
      <use xlink:href="#ArialMT-6f" x="211.230469"/>
      <use xlink:href="#ArialMT-72" x="266.845703"/>
      <use xlink:href="#ArialMT-74" x="300.146484"/>
      <use xlink:href="#ArialMT-69" x="327.929688"/>
      <use xlink:href="#ArialMT-6f" x="350.146484"/>
      <use xlink:href="#ArialMT-6e" x="405.761719"/>
     </g>
    </g>
   </g>
   <g id="line2d_73">
    <path d="M 56.578971 392.292 
L 56.579519 391.403486 
L 57.675816 391.403486 
L 57.783311 387.849431 
L 57.801 387.849431 
L 57.879459 386.072404 
L 58.18018 386.072404 
L 58.29106 379.852808 
L 58.308534 379.852808 
L 58.312353 378.964294 
L 59.579718 378.964294 
L 59.660323 377.631524 
L 59.766708 377.631524 
L 59.832595 372.744698 
L 61.722149 372.744698 
L 61.823088 368.30213 
L 61.843636 368.30213 
L 61.945279 365.636589 
L 61.968716 365.636589 
L 62.077176 358.084222 
L 62.086365 358.084222 
L 62.189007 354.530167 
L 62.222068 354.530167 
L 62.310279 351.864626 
L 62.350807 351.864626 
L 62.456685 350.087599 
L 62.504465 350.087599 
L 62.590429 348.754828 
L 62.62749 348.754828 
L 62.724438 344.756517 
L 62.780155 344.756517 
L 62.788884 343.868003 
L 63.132514 343.868003 
L 63.192615 342.979489 
L 63.804942 342.979489 
L 63.884461 337.20415 
L 64.71592 337.20415 
L 64.721564 333.650095 
L 65.964007 333.650095 
L 66.056355 326.541986 
L 66.356408 326.541986 
L 66.464615 320.766646 
L 66.474727 320.766646 
L 66.574964 313.658537 
L 66.600146 313.658537 
L 66.672254 309.215968 
L 67.139911 309.215968 
L 67.186557 306.550427 
L 67.977258 306.550427 
L 68.085473 301.219345 
L 68.097231 301.219345 
L 68.097231 300.775088 
L 68.824109 300.775088 
L 68.895067 298.553804 
L 68.996436 298.553804 
L 68.996436 298.109547 
L 69.434865 298.109547 
L 69.514537 293.666978 
L 69.54879 293.666978 
L 69.573699 292.334208 
L 70.306102 292.334208 
L 70.313665 290.55718 
L 70.7768 290.55718 
L 70.801269 289.22441 
L 73.13021 289.22441 
L 73.199566 284.781841 
L 73.96993 284.781841 
L 74.030838 280.339273 
L 74.030838 280.339273 
" clip-path="url(#paecc2da30c)" style="fill: none; stroke: #023eff; stroke-width: 1.5; stroke-linecap: round"/>
   </g>
   <g id="line2d_74">
    <path d="M 56.579517 392.292 
L 56.579517 391.374355 
L 58.268208 391.374355 
L 58.308534 389.539064 
L 59.695265 389.539064 
L 59.793178 383.115547 
L 59.806856 383.115547 
L 59.832595 379.444966 
L 59.9874 379.444966 
L 60.069216 373.939094 
L 60.104789 373.939094 
L 60.194742 371.186158 
L 61.899683 371.186158 
L 61.899683 370.268513 
L 62.111873 370.268513 
L 62.177533 368.433222 
L 62.248408 368.433222 
L 62.248408 367.515577 
L 62.669095 367.515577 
L 62.753138 362.009705 
L 62.78557 362.009705 
L 62.823421 360.174414 
L 63.310154 360.174414 
L 63.36449 357.421478 
L 63.715881 357.421478 
L 63.818455 350.080316 
L 63.830011 350.080316 
L 63.884333 344.574444 
L 64.167073 344.574444 
L 64.221043 342.739154 
L 64.279713 342.739154 
L 64.343179 340.903863 
L 64.411589 340.903863 
L 64.411589 339.986218 
L 65.999746 339.986218 
L 66.08345 336.315636 
L 66.11613 336.315636 
L 66.11613 335.397991 
L 66.305253 335.397991 
L 66.357477 328.974474 
L 66.494508 328.974474 
L 66.494508 328.056829 
L 67.287289 328.056829 
L 67.287289 327.139183 
L 67.44208 327.139183 
L 67.482685 320.715666 
L 67.974221 320.715666 
L 68.025015 315.209794 
L 68.848124 315.209794 
L 68.874571 310.621568 
L 69.509635 310.621568 
L 69.576342 301.445115 
L 70.022798 301.445115 
L 70.123408 296.856888 
L 70.586576 296.856888 
L 70.696564 294.103952 
L 70.707781 294.103952 
L 70.756388 292.268662 
L 70.819509 292.268662 
L 70.819509 291.351016 
L 71.751714 291.351016 
L 71.861792 284.927499 
L 71.889134 284.927499 
L 71.889903 283.092209 
L 72.535431 283.092209 
L 72.535431 282.174563 
L 73.002765 282.174563 
L 73.052882 280.339273 
L 73.052882 280.339273 
" clip-path="url(#paecc2da30c)" style="fill: none; stroke: #ff7c00; stroke-width: 1.5; stroke-linecap: round"/>
   </g>
   <g id="line2d_75">
    <path d="M 68.563584 392.292 
L 68.65843 384.828485 
L 68.692868 384.828485 
L 68.77773 382.58943 
L 68.828146 382.58943 
L 68.88901 380.350376 
L 68.945053 380.350376 
L 69.017547 376.618618 
L 72.899222 376.618618 
L 73.006247 372.140509 
L 73.040962 372.140509 
L 73.123832 369.901455 
L 73.172051 369.901455 
L 73.282184 367.6624 
L 74.906175 367.6624 
L 75.015417 360.198885 
L 75.059646 360.198885 
L 75.059646 359.452533 
L 77.976612 359.452533 
L 78.025604 357.95983 
L 78.205949 357.95983 
L 78.302785 355.720776 
L 78.358581 355.720776 
L 78.419339 354.228073 
L 78.485096 354.228073 
L 78.55598 352.73537 
L 78.631948 352.73537 
L 78.71308 351.242667 
L 78.888297 351.242667 
L 78.99007 343.779152 
L 79.026889 343.779152 
L 79.069006 342.286448 
L 80.146855 342.286448 
L 80.249659 340.047394 
L 80.292161 340.047394 
L 80.387406 337.808339 
L 80.440285 337.808339 
L 80.440285 337.061988 
L 81.30772 337.061988 
L 81.30772 336.315636 
L 81.878269 336.315636 
L 81.987189 334.076582 
L 82.050419 334.076582 
L 82.119408 332.583879 
L 82.19412 332.583879 
L 82.274501 331.091176 
L 82.360501 331.091176 
L 82.45207 329.598473 
L 82.549172 329.598473 
L 82.549172 328.852121 
L 83.603778 328.852121 
L 83.698072 325.866715 
L 84.696452 325.866715 
L 84.798396 322.134958 
L 84.831523 322.134958 
L 84.906953 319.895903 
L 84.949301 319.895903 
L 85.047189 317.656848 
L 85.09531 317.656848 
L 85.150462 316.164145 
L 86.019876 316.164145 
L 86.124009 310.193333 
L 86.162619 310.193333 
L 86.166469 308.70063 
L 86.326045 308.70063 
L 86.391628 307.207927 
L 86.463172 307.207927 
L 86.540672 305.715224 
L 86.624087 305.715224 
L 86.624087 304.968873 
L 87.036743 304.968873 
L 87.106137 303.47617 
L 88.187303 303.47617 
L 88.187303 302.729818 
L 96.110674 302.729818 
L 96.193209 300.490764 
L 96.228084 300.490764 
L 96.309524 298.251709 
L 96.356016 298.251709 
L 96.46066 296.012655 
L 96.518816 296.012655 
L 96.580874 294.519952 
L 96.64346 294.519952 
L 96.71334 293.027248 
L 96.787252 293.027248 
L 96.868986 291.534545 
L 96.947332 291.534545 
L 97.04172 289.295491 
L 97.934827 289.295491 
L 98.039541 287.056436 
L 98.102644 287.056436 
L 98.17913 283.324679 
L 98.248611 283.324679 
L 98.339671 281.085624 
L 98.430398 281.085624 
L 98.430398 280.339273 
L 98.430398 280.339273 
" clip-path="url(#paecc2da30c)" style="fill: none; stroke: #1ac938; stroke-width: 1.5; stroke-linecap: round"/>
   </g>
   <g id="line2d_76">
    <path d="M 68.563584 392.292 
L 68.65843 384.676168 
L 68.692867 384.676168 
L 68.777726 382.391419 
L 68.828146 382.391419 
L 68.88901 380.106669 
L 68.945054 380.106669 
L 69.017547 376.298753 
L 75.015417 376.298753 
L 75.059649 374.775587 
L 76.832405 374.775587 
L 76.871378 369.444505 
L 77.976612 369.444505 
L 78.07457 364.113422 
L 78.096994 364.113422 
L 78.205949 361.06709 
L 78.251934 361.06709 
L 78.358581 358.78234 
L 78.419342 358.78234 
L 78.485096 357.259174 
L 78.55598 357.259174 
L 78.631948 355.736007 
L 78.71308 355.736007 
L 78.71308 354.974424 
L 78.888297 354.974424 
L 78.99007 347.358592 
L 79.026882 347.358592 
L 79.069006 345.835426 
L 79.541007 345.835426 
L 79.622415 342.789093 
L 79.658452 342.789093 
L 79.747672 338.219594 
L 79.792603 338.219594 
L 79.797058 336.696428 
L 79.987425 336.696428 
L 80.085684 329.842179 
L 80.112136 329.842179 
L 80.210455 326.795847 
L 80.249659 326.795847 
L 80.338065 324.511097 
L 80.84194 324.511097 
L 80.941147 319.941598 
L 80.968424 319.941598 
L 81.065459 316.895265 
L 81.900221 316.895265 
L 81.93068 312.325766 
L 82.320996 312.325766 
L 82.391568 310.8026 
L 83.726024 310.8026 
L 83.828119 303.948351 
L 83.861144 303.948351 
L 83.936654 301.663602 
L 83.979191 301.663602 
L 84.073953 299.378852 
L 84.12627 299.378852 
L 84.181943 297.855686 
L 84.24105 297.855686 
L 84.24105 297.094103 
L 85.047825 297.094103 
L 85.12323 294.04777 
L 85.161382 294.04777 
L 85.256781 291.76302 
L 85.31394 291.76302 
L 85.377359 290.239854 
L 85.447029 290.239854 
L 85.447029 289.478271 
L 85.604895 289.478271 
L 85.604895 288.716688 
L 93.604003 288.716688 
L 93.697199 285.670355 
L 93.732186 285.670355 
L 93.769174 284.147189 
L 94.491086 284.147189 
L 94.58197 281.862439 
L 94.634227 281.862439 
L 94.691062 280.339273 
L 94.691062 280.339273 
" clip-path="url(#paecc2da30c)" style="fill: none; stroke: #e8000b; stroke-width: 1.5; stroke-linecap: round"/>
   </g>
   <g id="patch_21">
    <path d="M 50.935755 392.292 
L 50.935755 280.339273 
" style="fill: none; stroke: #ffffff; stroke-width: 1.25; stroke-linejoin: miter; stroke-linecap: square"/>
   </g>
   <g id="patch_22">
    <path d="M 50.935755 392.292 
L 164.93486 392.292 
" style="fill: none; stroke: #ffffff; stroke-width: 1.25; stroke-linejoin: miter; stroke-linecap: square"/>
   </g>
   <g id="text_37">
    <!-- scenario = IntraOrbital -->
    <g style="fill: #262626" transform="translate(60.582557 274.339273) scale(0.096 -0.096)">
     <use xlink:href="#ArialMT-73"/>
     <use xlink:href="#ArialMT-63" x="50"/>
     <use xlink:href="#ArialMT-65" x="100"/>
     <use xlink:href="#ArialMT-6e" x="155.615234"/>
     <use xlink:href="#ArialMT-61" x="211.230469"/>
     <use xlink:href="#ArialMT-72" x="266.845703"/>
     <use xlink:href="#ArialMT-69" x="300.146484"/>
     <use xlink:href="#ArialMT-6f" x="322.363281"/>
     <use xlink:href="#ArialMT-20" x="377.978516"/>
     <use xlink:href="#ArialMT-3d" x="405.761719"/>
     <use xlink:href="#ArialMT-20" x="464.160156"/>
     <use xlink:href="#ArialMT-49" x="491.943359"/>
     <use xlink:href="#ArialMT-6e" x="519.726562"/>
     <use xlink:href="#ArialMT-74" x="575.341797"/>
     <use xlink:href="#ArialMT-72" x="603.125"/>
     <use xlink:href="#ArialMT-61" x="636.425781"/>
     <use xlink:href="#ArialMT-4f" x="692.041016"/>
     <use xlink:href="#ArialMT-72" x="769.824219"/>
     <use xlink:href="#ArialMT-62" x="803.125"/>
     <use xlink:href="#ArialMT-69" x="858.740234"/>
     <use xlink:href="#ArialMT-74" x="880.957031"/>
     <use xlink:href="#ArialMT-61" x="908.740234"/>
     <use xlink:href="#ArialMT-6c" x="964.355469"/>
    </g>
   </g>
  </g>
  <g id="legend_1">
   <g id="text_38">
    <!-- direction -->
    <g style="fill: #262626" transform="translate(436.8405 193.586) scale(0.096 -0.096)">
     <use xlink:href="#ArialMT-64"/>
     <use xlink:href="#ArialMT-69" x="55.615234"/>
     <use xlink:href="#ArialMT-72" x="77.832031"/>
     <use xlink:href="#ArialMT-65" x="111.132812"/>
     <use xlink:href="#ArialMT-63" x="166.748047"/>
     <use xlink:href="#ArialMT-74" x="216.748047"/>
     <use xlink:href="#ArialMT-69" x="244.53125"/>
     <use xlink:href="#ArialMT-6f" x="266.748047"/>
     <use xlink:href="#ArialMT-6e" x="322.363281"/>
    </g>
   </g>
   <g id="line2d_77">
    <path d="M 431.1645 203.112875 
L 439.9645 203.112875 
L 439.9645 203.112875 
L 448.7645 203.112875 
L 448.7645 203.112875 
" style="fill: none; stroke: #023eff; stroke-width: 1.5; stroke-linecap: round"/>
   </g>
   <g id="text_39">
    <!-- East -->
    <g style="fill: #262626" transform="translate(455.8045 206.192875) scale(0.088 -0.088)">
     <use xlink:href="#ArialMT-45"/>
     <use xlink:href="#ArialMT-61" x="66.699219"/>
     <use xlink:href="#ArialMT-73" x="122.314453"/>
     <use xlink:href="#ArialMT-74" x="172.314453"/>
    </g>
   </g>
   <g id="line2d_78">
    <path d="M 431.1645 215.56075 
L 439.9645 215.56075 
L 439.9645 215.56075 
L 448.7645 215.56075 
L 448.7645 215.56075 
" style="fill: none; stroke: #ff7c00; stroke-width: 1.5; stroke-linecap: round"/>
   </g>
   <g id="text_40">
    <!-- West -->
    <g style="fill: #262626" transform="translate(455.8045 218.64075) scale(0.088 -0.088)">
     <defs>
      <path id="ArialMT-57" d="M 1294 0 
L 78 4581 
L 700 4581 
L 1397 1578 
Q 1509 1106 1591 641 
Q 1766 1375 1797 1488 
L 2669 4581 
L 3400 4581 
L 4056 2263 
Q 4303 1400 4413 641 
Q 4500 1075 4641 1638 
L 5359 4581 
L 5969 4581 
L 4713 0 
L 4128 0 
L 3163 3491 
Q 3041 3928 3019 4028 
Q 2947 3713 2884 3491 
L 1913 0 
L 1294 0 
z
" transform="scale(0.015625)"/>
     </defs>
     <use xlink:href="#ArialMT-57"/>
     <use xlink:href="#ArialMT-65" x="92.634766"/>
     <use xlink:href="#ArialMT-73" x="148.25"/>
     <use xlink:href="#ArialMT-74" x="198.25"/>
    </g>
   </g>
   <g id="line2d_79">
    <path d="M 431.1645 228.008625 
L 439.9645 228.008625 
L 439.9645 228.008625 
L 448.7645 228.008625 
L 448.7645 228.008625 
" style="fill: none; stroke: #1ac938; stroke-width: 1.5; stroke-linecap: round"/>
   </g>
   <g id="text_41">
    <!-- North -->
    <g style="fill: #262626" transform="translate(455.8045 231.088625) scale(0.088 -0.088)">
     <defs>
      <path id="ArialMT-4e" d="M 488 0 
L 488 4581 
L 1109 4581 
L 3516 984 
L 3516 4581 
L 4097 4581 
L 4097 0 
L 3475 0 
L 1069 3600 
L 1069 0 
L 488 0 
z
" transform="scale(0.015625)"/>
      <path id="ArialMT-68" d="M 422 0 
L 422 4581 
L 984 4581 
L 984 2938 
Q 1378 3394 1978 3394 
Q 2347 3394 2619 3248 
Q 2891 3103 3008 2847 
Q 3125 2591 3125 2103 
L 3125 0 
L 2563 0 
L 2563 2103 
Q 2563 2525 2380 2717 
Q 2197 2909 1863 2909 
Q 1613 2909 1392 2779 
Q 1172 2650 1078 2428 
Q 984 2206 984 1816 
L 984 0 
L 422 0 
z
" transform="scale(0.015625)"/>
     </defs>
     <use xlink:href="#ArialMT-4e"/>
     <use xlink:href="#ArialMT-6f" x="72.216797"/>
     <use xlink:href="#ArialMT-72" x="127.832031"/>
     <use xlink:href="#ArialMT-74" x="161.132812"/>
     <use xlink:href="#ArialMT-68" x="188.916016"/>
    </g>
   </g>
   <g id="line2d_80">
    <path d="M 431.1645 240.4565 
L 439.9645 240.4565 
L 439.9645 240.4565 
L 448.7645 240.4565 
L 448.7645 240.4565 
" style="fill: none; stroke: #e8000b; stroke-width: 1.5; stroke-linecap: round"/>
   </g>
   <g id="text_42">
    <!-- South -->
    <g style="fill: #262626" transform="translate(455.8045 243.5365) scale(0.088 -0.088)">
     <defs>
      <path id="ArialMT-53" d="M 288 1472 
L 859 1522 
Q 900 1178 1048 958 
Q 1197 738 1509 602 
Q 1822 466 2213 466 
Q 2559 466 2825 569 
Q 3091 672 3220 851 
Q 3350 1031 3350 1244 
Q 3350 1459 3225 1620 
Q 3100 1781 2813 1891 
Q 2628 1963 1997 2114 
Q 1366 2266 1113 2400 
Q 784 2572 623 2826 
Q 463 3081 463 3397 
Q 463 3744 659 4045 
Q 856 4347 1234 4503 
Q 1613 4659 2075 4659 
Q 2584 4659 2973 4495 
Q 3363 4331 3572 4012 
Q 3781 3694 3797 3291 
L 3216 3247 
Q 3169 3681 2898 3903 
Q 2628 4125 2100 4125 
Q 1550 4125 1298 3923 
Q 1047 3722 1047 3438 
Q 1047 3191 1225 3031 
Q 1400 2872 2139 2705 
Q 2878 2538 3153 2413 
Q 3553 2228 3743 1945 
Q 3934 1663 3934 1294 
Q 3934 928 3725 604 
Q 3516 281 3123 101 
Q 2731 -78 2241 -78 
Q 1619 -78 1198 103 
Q 778 284 539 648 
Q 300 1013 288 1472 
z
" transform="scale(0.015625)"/>
     </defs>
     <use xlink:href="#ArialMT-53"/>
     <use xlink:href="#ArialMT-6f" x="66.699219"/>
     <use xlink:href="#ArialMT-75" x="122.314453"/>
     <use xlink:href="#ArialMT-74" x="177.929688"/>
     <use xlink:href="#ArialMT-68" x="205.712891"/>
    </g>
   </g>
  </g>
 </g>
 <defs>
  <clipPath id="p6a82d19898">
   <rect x="50.935755" y="22.848" width="113.999105" height="111.952727"/>
  </clipPath>
  <clipPath id="pc1ef3e40e2">
   <rect x="182.034725" y="22.848" width="113.999105" height="111.952727"/>
  </clipPath>
  <clipPath id="pf62ad78ab9">
   <rect x="313.133695" y="22.848" width="113.999105" height="111.952727"/>
  </clipPath>
  <clipPath id="p9d2379d02b">
   <rect x="50.935755" y="151.593636" width="113.999105" height="111.952727"/>
  </clipPath>
  <clipPath id="pa19d7cd47e">
   <rect x="182.034725" y="151.593636" width="113.999105" height="111.952727"/>
  </clipPath>
  <clipPath id="pae0b199f4e">
   <rect x="313.133695" y="151.593636" width="113.999105" height="111.952727"/>
  </clipPath>
  <clipPath id="paecc2da30c">
   <rect x="50.935755" y="280.339273" width="113.999105" height="111.952727"/>
  </clipPath>
 </defs>
</svg>
