<?xml version="1.0" encoding="utf-8" standalone="no"?>
<!DOCTYPE svg PUBLIC "-//W3C//DTD SVG 1.1//EN"
  "http://www.w3.org/Graphics/SVG/1.1/DTD/svg11.dtd">
<svg xmlns:xlink="http://www.w3.org/1999/xlink" width="486.72pt" height="432pt" viewBox="0 0 486.72 432" xmlns="http://www.w3.org/2000/svg" version="1.1">
 <metadata>
  <rdf:RDF xmlns:dc="http://purl.org/dc/elements/1.1/" xmlns:cc="http://creativecommons.org/ns#" xmlns:rdf="http://www.w3.org/1999/02/22-rdf-syntax-ns#">
   <cc:Work>
    <dc:type rdf:resource="http://purl.org/dc/dcmitype/StillImage"/>
    <dc:date>2024-07-18T09:20:44.585576</dc:date>
    <dc:format>image/svg+xml</dc:format>
    <dc:creator>
     <cc:Agent>
      <dc:title>Matplotlib v3.9.0, https://matplotlib.org/</dc:title>
     </cc:Agent>
    </dc:creator>
   </cc:Work>
  </rdf:RDF>
 </metadata>
 <defs>
  <style type="text/css">*{stroke-linejoin: round; stroke-linecap: butt}</style>
 </defs>
 <g id="figure_1">
  <g id="patch_1">
   <path d="M 0 432 
L 486.72 432 
L 486.72 0 
L 0 0 
z
" style="fill: #ffffff"/>
  </g>
  <g id="axes_1">
   <g id="patch_2">
    <path d="M 64.51068 134.800727 
L 174.396171 134.800727 
L 174.396171 22.848 
L 64.51068 22.848 
z
" style="fill: #eaeaf2"/>
   </g>
   <g id="matplotlib.axis_1">
    <g id="xtick_1"/>
    <g id="xtick_2"/>
    <g id="xtick_3"/>
    <g id="xtick_4"/>
   </g>
   <g id="matplotlib.axis_2">
    <g id="ytick_1">
     <g id="line2d_1">
      <path d="M 64.51068 118.251673 
L 174.396171 118.251673 
" clip-path="url(#p97e50279b8)" style="fill: none; stroke: #ffffff; stroke-linecap: round"/>
     </g>
     <g id="text_1">
      <!-- 0 -->
      <g style="fill: #262626" transform="translate(50.117055 121.40111) scale(0.088 -0.088)">
       <defs>
        <path id="ArialMT-30" d="M 266 2259 
Q 266 3072 433 3567 
Q 600 4063 929 4331 
Q 1259 4600 1759 4600 
Q 2128 4600 2406 4451 
Q 2684 4303 2865 4023 
Q 3047 3744 3150 3342 
Q 3253 2941 3253 2259 
Q 3253 1453 3087 958 
Q 2922 463 2592 192 
Q 2263 -78 1759 -78 
Q 1097 -78 719 397 
Q 266 969 266 2259 
z
M 844 2259 
Q 844 1131 1108 757 
Q 1372 384 1759 384 
Q 2147 384 2411 759 
Q 2675 1134 2675 2259 
Q 2675 3391 2411 3762 
Q 2147 4134 1753 4134 
Q 1366 4134 1134 3806 
Q 844 3388 844 2259 
z
" transform="scale(0.015625)"/>
       </defs>
       <use xlink:href="#ArialMT-30"/>
      </g>
     </g>
    </g>
    <g id="ytick_2">
     <g id="line2d_2">
      <path d="M 64.51068 97.412991 
L 174.396171 97.412991 
" clip-path="url(#p97e50279b8)" style="fill: none; stroke: #ffffff; stroke-linecap: round"/>
     </g>
     <g id="text_2">
      <!-- 5000 -->
      <g style="fill: #262626" transform="translate(35.43618 100.562428) scale(0.088 -0.088)">
       <defs>
        <path id="ArialMT-35" d="M 266 1200 
L 856 1250 
Q 922 819 1161 601 
Q 1400 384 1738 384 
Q 2144 384 2425 690 
Q 2706 997 2706 1503 
Q 2706 1984 2436 2262 
Q 2166 2541 1728 2541 
Q 1456 2541 1237 2417 
Q 1019 2294 894 2097 
L 366 2166 
L 809 4519 
L 3088 4519 
L 3088 3981 
L 1259 3981 
L 1013 2750 
Q 1425 3038 1878 3038 
Q 2478 3038 2890 2622 
Q 3303 2206 3303 1553 
Q 3303 931 2941 478 
Q 2500 -78 1738 -78 
Q 1113 -78 717 272 
Q 322 622 266 1200 
z
" transform="scale(0.015625)"/>
       </defs>
       <use xlink:href="#ArialMT-35"/>
       <use xlink:href="#ArialMT-30" x="55.615234"/>
       <use xlink:href="#ArialMT-30" x="111.230469"/>
       <use xlink:href="#ArialMT-30" x="166.845703"/>
      </g>
     </g>
    </g>
    <g id="ytick_3">
     <g id="line2d_3">
      <path d="M 64.51068 76.574309 
L 174.396171 76.574309 
" clip-path="url(#p97e50279b8)" style="fill: none; stroke: #ffffff; stroke-linecap: round"/>
     </g>
     <g id="text_3">
      <!-- 10000 -->
      <g style="fill: #262626" transform="translate(30.542555 79.723746) scale(0.088 -0.088)">
       <defs>
        <path id="ArialMT-31" d="M 2384 0 
L 1822 0 
L 1822 3584 
Q 1619 3391 1289 3197 
Q 959 3003 697 2906 
L 697 3450 
Q 1169 3672 1522 3987 
Q 1875 4303 2022 4600 
L 2384 4600 
L 2384 0 
z
" transform="scale(0.015625)"/>
       </defs>
       <use xlink:href="#ArialMT-31"/>
       <use xlink:href="#ArialMT-30" x="55.615234"/>
       <use xlink:href="#ArialMT-30" x="111.230469"/>
       <use xlink:href="#ArialMT-30" x="166.845703"/>
       <use xlink:href="#ArialMT-30" x="222.460938"/>
      </g>
     </g>
    </g>
    <g id="ytick_4">
     <g id="line2d_4">
      <path d="M 64.51068 55.735627 
L 174.396171 55.735627 
" clip-path="url(#p97e50279b8)" style="fill: none; stroke: #ffffff; stroke-linecap: round"/>
     </g>
     <g id="text_4">
      <!-- 15000 -->
      <g style="fill: #262626" transform="translate(30.542555 58.885064) scale(0.088 -0.088)">
       <use xlink:href="#ArialMT-31"/>
       <use xlink:href="#ArialMT-35" x="55.615234"/>
       <use xlink:href="#ArialMT-30" x="111.230469"/>
       <use xlink:href="#ArialMT-30" x="166.845703"/>
       <use xlink:href="#ArialMT-30" x="222.460938"/>
      </g>
     </g>
    </g>
    <g id="ytick_5">
     <g id="line2d_5">
      <path d="M 64.51068 34.896945 
L 174.396171 34.896945 
" clip-path="url(#p97e50279b8)" style="fill: none; stroke: #ffffff; stroke-linecap: round"/>
     </g>
     <g id="text_5">
      <!-- 20000 -->
      <g style="fill: #262626" transform="translate(30.542555 38.046382) scale(0.088 -0.088)">
       <defs>
        <path id="ArialMT-32" d="M 3222 541 
L 3222 0 
L 194 0 
Q 188 203 259 391 
Q 375 700 629 1000 
Q 884 1300 1366 1694 
Q 2113 2306 2375 2664 
Q 2638 3022 2638 3341 
Q 2638 3675 2398 3904 
Q 2159 4134 1775 4134 
Q 1369 4134 1125 3890 
Q 881 3647 878 3216 
L 300 3275 
Q 359 3922 746 4261 
Q 1134 4600 1788 4600 
Q 2447 4600 2831 4234 
Q 3216 3869 3216 3328 
Q 3216 3053 3103 2787 
Q 2991 2522 2730 2228 
Q 2469 1934 1863 1422 
Q 1356 997 1212 845 
Q 1069 694 975 541 
L 3222 541 
z
" transform="scale(0.015625)"/>
       </defs>
       <use xlink:href="#ArialMT-32"/>
       <use xlink:href="#ArialMT-30" x="55.615234"/>
       <use xlink:href="#ArialMT-30" x="111.230469"/>
       <use xlink:href="#ArialMT-30" x="166.845703"/>
       <use xlink:href="#ArialMT-30" x="222.460938"/>
      </g>
     </g>
    </g>
    <g id="text_6">
     <!-- Expected malicious traffic -->
     <g style="fill: #262626" transform="translate(24.634555 133.159614) rotate(-90) scale(0.096 -0.096)">
      <defs>
       <path id="ArialMT-45" d="M 506 0 
L 506 4581 
L 3819 4581 
L 3819 4041 
L 1113 4041 
L 1113 2638 
L 3647 2638 
L 3647 2100 
L 1113 2100 
L 1113 541 
L 3925 541 
L 3925 0 
L 506 0 
z
" transform="scale(0.015625)"/>
       <path id="ArialMT-78" d="M 47 0 
L 1259 1725 
L 138 3319 
L 841 3319 
L 1350 2541 
Q 1494 2319 1581 2169 
Q 1719 2375 1834 2534 
L 2394 3319 
L 3066 3319 
L 1919 1756 
L 3153 0 
L 2463 0 
L 1781 1031 
L 1600 1309 
L 728 0 
L 47 0 
z
" transform="scale(0.015625)"/>
       <path id="ArialMT-70" d="M 422 -1272 
L 422 3319 
L 934 3319 
L 934 2888 
Q 1116 3141 1344 3267 
Q 1572 3394 1897 3394 
Q 2322 3394 2647 3175 
Q 2972 2956 3137 2557 
Q 3303 2159 3303 1684 
Q 3303 1175 3120 767 
Q 2938 359 2589 142 
Q 2241 -75 1856 -75 
Q 1575 -75 1351 44 
Q 1128 163 984 344 
L 984 -1272 
L 422 -1272 
z
M 931 1641 
Q 931 1000 1190 694 
Q 1450 388 1819 388 
Q 2194 388 2461 705 
Q 2728 1022 2728 1688 
Q 2728 2322 2467 2637 
Q 2206 2953 1844 2953 
Q 1484 2953 1207 2617 
Q 931 2281 931 1641 
z
" transform="scale(0.015625)"/>
       <path id="ArialMT-65" d="M 2694 1069 
L 3275 997 
Q 3138 488 2766 206 
Q 2394 -75 1816 -75 
Q 1088 -75 661 373 
Q 234 822 234 1631 
Q 234 2469 665 2931 
Q 1097 3394 1784 3394 
Q 2450 3394 2872 2941 
Q 3294 2488 3294 1666 
Q 3294 1616 3291 1516 
L 816 1516 
Q 847 969 1125 678 
Q 1403 388 1819 388 
Q 2128 388 2347 550 
Q 2566 713 2694 1069 
z
M 847 1978 
L 2700 1978 
Q 2663 2397 2488 2606 
Q 2219 2931 1791 2931 
Q 1403 2931 1139 2672 
Q 875 2413 847 1978 
z
" transform="scale(0.015625)"/>
       <path id="ArialMT-63" d="M 2588 1216 
L 3141 1144 
Q 3050 572 2676 248 
Q 2303 -75 1759 -75 
Q 1078 -75 664 370 
Q 250 816 250 1647 
Q 250 2184 428 2587 
Q 606 2991 970 3192 
Q 1334 3394 1763 3394 
Q 2303 3394 2647 3120 
Q 2991 2847 3088 2344 
L 2541 2259 
Q 2463 2594 2264 2762 
Q 2066 2931 1784 2931 
Q 1359 2931 1093 2626 
Q 828 2322 828 1663 
Q 828 994 1084 691 
Q 1341 388 1753 388 
Q 2084 388 2306 591 
Q 2528 794 2588 1216 
z
" transform="scale(0.015625)"/>
       <path id="ArialMT-74" d="M 1650 503 
L 1731 6 
Q 1494 -44 1306 -44 
Q 1000 -44 831 53 
Q 663 150 594 308 
Q 525 466 525 972 
L 525 2881 
L 113 2881 
L 113 3319 
L 525 3319 
L 525 4141 
L 1084 4478 
L 1084 3319 
L 1650 3319 
L 1650 2881 
L 1084 2881 
L 1084 941 
Q 1084 700 1114 631 
Q 1144 563 1211 522 
Q 1278 481 1403 481 
Q 1497 481 1650 503 
z
" transform="scale(0.015625)"/>
       <path id="ArialMT-64" d="M 2575 0 
L 2575 419 
Q 2259 -75 1647 -75 
Q 1250 -75 917 144 
Q 584 363 401 755 
Q 219 1147 219 1656 
Q 219 2153 384 2558 
Q 550 2963 881 3178 
Q 1213 3394 1622 3394 
Q 1922 3394 2156 3267 
Q 2391 3141 2538 2938 
L 2538 4581 
L 3097 4581 
L 3097 0 
L 2575 0 
z
M 797 1656 
Q 797 1019 1065 703 
Q 1334 388 1700 388 
Q 2069 388 2326 689 
Q 2584 991 2584 1609 
Q 2584 2291 2321 2609 
Q 2059 2928 1675 2928 
Q 1300 2928 1048 2622 
Q 797 2316 797 1656 
z
" transform="scale(0.015625)"/>
       <path id="ArialMT-20" transform="scale(0.015625)"/>
       <path id="ArialMT-6d" d="M 422 0 
L 422 3319 
L 925 3319 
L 925 2853 
Q 1081 3097 1340 3245 
Q 1600 3394 1931 3394 
Q 2300 3394 2536 3241 
Q 2772 3088 2869 2813 
Q 3263 3394 3894 3394 
Q 4388 3394 4653 3120 
Q 4919 2847 4919 2278 
L 4919 0 
L 4359 0 
L 4359 2091 
Q 4359 2428 4304 2576 
Q 4250 2725 4106 2815 
Q 3963 2906 3769 2906 
Q 3419 2906 3187 2673 
Q 2956 2441 2956 1928 
L 2956 0 
L 2394 0 
L 2394 2156 
Q 2394 2531 2256 2718 
Q 2119 2906 1806 2906 
Q 1569 2906 1367 2781 
Q 1166 2656 1075 2415 
Q 984 2175 984 1722 
L 984 0 
L 422 0 
z
" transform="scale(0.015625)"/>
       <path id="ArialMT-61" d="M 2588 409 
Q 2275 144 1986 34 
Q 1697 -75 1366 -75 
Q 819 -75 525 192 
Q 231 459 231 875 
Q 231 1119 342 1320 
Q 453 1522 633 1644 
Q 813 1766 1038 1828 
Q 1203 1872 1538 1913 
Q 2219 1994 2541 2106 
Q 2544 2222 2544 2253 
Q 2544 2597 2384 2738 
Q 2169 2928 1744 2928 
Q 1347 2928 1158 2789 
Q 969 2650 878 2297 
L 328 2372 
Q 403 2725 575 2942 
Q 747 3159 1072 3276 
Q 1397 3394 1825 3394 
Q 2250 3394 2515 3294 
Q 2781 3194 2906 3042 
Q 3031 2891 3081 2659 
Q 3109 2516 3109 2141 
L 3109 1391 
Q 3109 606 3145 398 
Q 3181 191 3288 0 
L 2700 0 
Q 2613 175 2588 409 
z
M 2541 1666 
Q 2234 1541 1622 1453 
Q 1275 1403 1131 1340 
Q 988 1278 909 1158 
Q 831 1038 831 891 
Q 831 666 1001 516 
Q 1172 366 1500 366 
Q 1825 366 2078 508 
Q 2331 650 2450 897 
Q 2541 1088 2541 1459 
L 2541 1666 
z
" transform="scale(0.015625)"/>
       <path id="ArialMT-6c" d="M 409 0 
L 409 4581 
L 972 4581 
L 972 0 
L 409 0 
z
" transform="scale(0.015625)"/>
       <path id="ArialMT-69" d="M 425 3934 
L 425 4581 
L 988 4581 
L 988 3934 
L 425 3934 
z
M 425 0 
L 425 3319 
L 988 3319 
L 988 0 
L 425 0 
z
" transform="scale(0.015625)"/>
       <path id="ArialMT-6f" d="M 213 1659 
Q 213 2581 725 3025 
Q 1153 3394 1769 3394 
Q 2453 3394 2887 2945 
Q 3322 2497 3322 1706 
Q 3322 1066 3130 698 
Q 2938 331 2570 128 
Q 2203 -75 1769 -75 
Q 1072 -75 642 372 
Q 213 819 213 1659 
z
M 791 1659 
Q 791 1022 1069 705 
Q 1347 388 1769 388 
Q 2188 388 2466 706 
Q 2744 1025 2744 1678 
Q 2744 2294 2464 2611 
Q 2184 2928 1769 2928 
Q 1347 2928 1069 2612 
Q 791 2297 791 1659 
z
" transform="scale(0.015625)"/>
       <path id="ArialMT-75" d="M 2597 0 
L 2597 488 
Q 2209 -75 1544 -75 
Q 1250 -75 995 37 
Q 741 150 617 320 
Q 494 491 444 738 
Q 409 903 409 1263 
L 409 3319 
L 972 3319 
L 972 1478 
Q 972 1038 1006 884 
Q 1059 663 1231 536 
Q 1403 409 1656 409 
Q 1909 409 2131 539 
Q 2353 669 2445 892 
Q 2538 1116 2538 1541 
L 2538 3319 
L 3100 3319 
L 3100 0 
L 2597 0 
z
" transform="scale(0.015625)"/>
       <path id="ArialMT-73" d="M 197 991 
L 753 1078 
Q 800 744 1014 566 
Q 1228 388 1613 388 
Q 2000 388 2187 545 
Q 2375 703 2375 916 
Q 2375 1106 2209 1216 
Q 2094 1291 1634 1406 
Q 1016 1563 777 1677 
Q 538 1791 414 1992 
Q 291 2194 291 2438 
Q 291 2659 392 2848 
Q 494 3038 669 3163 
Q 800 3259 1026 3326 
Q 1253 3394 1513 3394 
Q 1903 3394 2198 3281 
Q 2494 3169 2634 2976 
Q 2775 2784 2828 2463 
L 2278 2388 
Q 2241 2644 2061 2787 
Q 1881 2931 1553 2931 
Q 1166 2931 1000 2803 
Q 834 2675 834 2503 
Q 834 2394 903 2306 
Q 972 2216 1119 2156 
Q 1203 2125 1616 2013 
Q 2213 1853 2448 1751 
Q 2684 1650 2818 1456 
Q 2953 1263 2953 975 
Q 2953 694 2789 445 
Q 2625 197 2315 61 
Q 2006 -75 1616 -75 
Q 969 -75 630 194 
Q 291 463 197 991 
z
" transform="scale(0.015625)"/>
       <path id="ArialMT-72" d="M 416 0 
L 416 3319 
L 922 3319 
L 922 2816 
Q 1116 3169 1280 3281 
Q 1444 3394 1641 3394 
Q 1925 3394 2219 3213 
L 2025 2691 
Q 1819 2813 1613 2813 
Q 1428 2813 1281 2702 
Q 1134 2591 1072 2394 
Q 978 2094 978 1738 
L 978 0 
L 416 0 
z
" transform="scale(0.015625)"/>
       <path id="ArialMT-66" d="M 556 0 
L 556 2881 
L 59 2881 
L 59 3319 
L 556 3319 
L 556 3672 
Q 556 4006 616 4169 
Q 697 4388 901 4523 
Q 1106 4659 1475 4659 
Q 1713 4659 2000 4603 
L 1916 4113 
Q 1741 4144 1584 4144 
Q 1328 4144 1222 4034 
Q 1116 3925 1116 3625 
L 1116 3319 
L 1763 3319 
L 1763 2881 
L 1116 2881 
L 1116 0 
L 556 0 
z
" transform="scale(0.015625)"/>
      </defs>
      <use xlink:href="#ArialMT-45"/>
      <use xlink:href="#ArialMT-78" x="66.699219"/>
      <use xlink:href="#ArialMT-70" x="116.699219"/>
      <use xlink:href="#ArialMT-65" x="172.314453"/>
      <use xlink:href="#ArialMT-63" x="227.929688"/>
      <use xlink:href="#ArialMT-74" x="277.929688"/>
      <use xlink:href="#ArialMT-65" x="305.712891"/>
      <use xlink:href="#ArialMT-64" x="361.328125"/>
      <use xlink:href="#ArialMT-20" x="416.943359"/>
      <use xlink:href="#ArialMT-6d" x="444.726562"/>
      <use xlink:href="#ArialMT-61" x="528.027344"/>
      <use xlink:href="#ArialMT-6c" x="583.642578"/>
      <use xlink:href="#ArialMT-69" x="605.859375"/>
      <use xlink:href="#ArialMT-63" x="628.076172"/>
      <use xlink:href="#ArialMT-69" x="678.076172"/>
      <use xlink:href="#ArialMT-6f" x="700.292969"/>
      <use xlink:href="#ArialMT-75" x="755.908203"/>
      <use xlink:href="#ArialMT-73" x="811.523438"/>
      <use xlink:href="#ArialMT-20" x="861.523438"/>
      <use xlink:href="#ArialMT-74" x="889.306641"/>
      <use xlink:href="#ArialMT-72" x="917.089844"/>
      <use xlink:href="#ArialMT-61" x="950.390625"/>
      <use xlink:href="#ArialMT-66" x="1006.005859"/>
      <use xlink:href="#ArialMT-66" x="1032.039062"/>
      <use xlink:href="#ArialMT-69" x="1059.822266"/>
      <use xlink:href="#ArialMT-63" x="1082.039062"/>
     </g>
    </g>
   </g>
   <g id="patch_3">
    <path d="M 67.257817 118.251673 
L 89.234915 118.251673 
L 89.234915 47.678003 
L 67.257817 47.678003 
z
" clip-path="url(#p97e50279b8)" style="fill: #224fdf; stroke: #ffffff; stroke-linejoin: miter"/>
   </g>
   <g id="patch_4">
    <path d="M 94.72919 118.251673 
L 116.706288 118.251673 
L 116.706288 50.456494 
L 94.72919 50.456494 
z
" clip-path="url(#p97e50279b8)" style="fill: #df7d20; stroke: #ffffff; stroke-linejoin: miter"/>
   </g>
   <g id="patch_5">
    <path d="M 122.200563 118.251673 
L 144.177661 118.251673 
L 144.177661 34.896945 
L 122.200563 34.896945 
z
" clip-path="url(#p97e50279b8)" style="fill: #30b346; stroke: #ffffff; stroke-linejoin: miter"/>
   </g>
   <g id="patch_6">
    <path d="M 149.671935 118.251673 
L 171.649034 118.251673 
L 171.649034 36.564039 
L 149.671935 36.564039 
z
" clip-path="url(#p97e50279b8)" style="fill: #cb1d25; stroke: #ffffff; stroke-linejoin: miter"/>
   </g>
   <g id="line2d_6">
    <path d="M 75.499229 67.419246 
L 80.993504 67.419246 
M 78.246366 67.419246 
L 78.246366 27.93676 
M 75.499229 27.93676 
L 80.993504 27.93676 
" clip-path="url(#p97e50279b8)" style="fill: none; stroke: #424242; stroke-width: 2.25; stroke-linecap: round"/>
   </g>
   <g id="line2d_7">
    <path d="M 102.970602 66.067089 
L 108.464876 66.067089 
M 105.717739 66.067089 
L 105.717739 34.845899 
M 102.970602 34.845899 
L 108.464876 34.845899 
" clip-path="url(#p97e50279b8)" style="fill: none; stroke: #424242; stroke-width: 2.25; stroke-linecap: round"/>
   </g>
   <g id="line2d_8">
    <path d="M 130.441975 34.896945 
L 135.936249 34.896945 
M 133.189112 34.896945 
L 133.189112 34.896945 
M 130.441975 34.896945 
L 135.936249 34.896945 
" clip-path="url(#p97e50279b8)" style="fill: none; stroke: #424242; stroke-width: 2.25; stroke-linecap: round"/>
   </g>
   <g id="line2d_9">
    <path d="M 157.913347 41.607529 
L 163.407622 41.607529 
M 160.660485 41.607529 
L 160.660485 31.52055 
M 157.913347 31.52055 
L 163.407622 31.52055 
" clip-path="url(#p97e50279b8)" style="fill: none; stroke: #424242; stroke-width: 2.25; stroke-linecap: round"/>
   </g>
   <g id="patch_7">
    <path d="M 64.51068 134.800727 
L 64.51068 22.848 
" style="fill: none; stroke: #ffffff; stroke-width: 1.25; stroke-linejoin: miter; stroke-linecap: square"/>
   </g>
   <g id="patch_8">
    <path d="M 64.51068 134.800727 
L 174.396171 134.800727 
" style="fill: none; stroke: #ffffff; stroke-width: 1.25; stroke-linejoin: miter; stroke-linecap: square"/>
   </g>
   <g id="text_7">
    <!-- scenario = Landlocked -->
    <g style="fill: #262626" transform="translate(71.289925 16.848) scale(0.096 -0.096)">
     <defs>
      <path id="ArialMT-6e" d="M 422 0 
L 422 3319 
L 928 3319 
L 928 2847 
Q 1294 3394 1984 3394 
Q 2284 3394 2536 3286 
Q 2788 3178 2913 3003 
Q 3038 2828 3088 2588 
Q 3119 2431 3119 2041 
L 3119 0 
L 2556 0 
L 2556 2019 
Q 2556 2363 2490 2533 
Q 2425 2703 2258 2804 
Q 2091 2906 1866 2906 
Q 1506 2906 1245 2678 
Q 984 2450 984 1813 
L 984 0 
L 422 0 
z
" transform="scale(0.015625)"/>
      <path id="ArialMT-3d" d="M 3381 2694 
L 356 2694 
L 356 3219 
L 3381 3219 
L 3381 2694 
z
M 3381 1303 
L 356 1303 
L 356 1828 
L 3381 1828 
L 3381 1303 
z
" transform="scale(0.015625)"/>
      <path id="ArialMT-4c" d="M 469 0 
L 469 4581 
L 1075 4581 
L 1075 541 
L 3331 541 
L 3331 0 
L 469 0 
z
" transform="scale(0.015625)"/>
      <path id="ArialMT-6b" d="M 425 0 
L 425 4581 
L 988 4581 
L 988 1969 
L 2319 3319 
L 3047 3319 
L 1778 2088 
L 3175 0 
L 2481 0 
L 1384 1697 
L 988 1316 
L 988 0 
L 425 0 
z
" transform="scale(0.015625)"/>
     </defs>
     <use xlink:href="#ArialMT-73"/>
     <use xlink:href="#ArialMT-63" x="50"/>
     <use xlink:href="#ArialMT-65" x="100"/>
     <use xlink:href="#ArialMT-6e" x="155.615234"/>
     <use xlink:href="#ArialMT-61" x="211.230469"/>
     <use xlink:href="#ArialMT-72" x="266.845703"/>
     <use xlink:href="#ArialMT-69" x="300.146484"/>
     <use xlink:href="#ArialMT-6f" x="322.363281"/>
     <use xlink:href="#ArialMT-20" x="377.978516"/>
     <use xlink:href="#ArialMT-3d" x="405.761719"/>
     <use xlink:href="#ArialMT-20" x="464.160156"/>
     <use xlink:href="#ArialMT-4c" x="491.943359"/>
     <use xlink:href="#ArialMT-61" x="547.558594"/>
     <use xlink:href="#ArialMT-6e" x="603.173828"/>
     <use xlink:href="#ArialMT-64" x="658.789062"/>
     <use xlink:href="#ArialMT-6c" x="714.404297"/>
     <use xlink:href="#ArialMT-6f" x="736.621094"/>
     <use xlink:href="#ArialMT-63" x="792.236328"/>
     <use xlink:href="#ArialMT-6b" x="842.236328"/>
     <use xlink:href="#ArialMT-65" x="892.236328"/>
     <use xlink:href="#ArialMT-64" x="947.851562"/>
    </g>
   </g>
  </g>
  <g id="axes_2">
   <g id="patch_9">
    <path d="M 190.878995 134.800727 
L 300.764485 134.800727 
L 300.764485 22.848 
L 190.878995 22.848 
z
" style="fill: #eaeaf2"/>
   </g>
   <g id="matplotlib.axis_3">
    <g id="xtick_5"/>
    <g id="xtick_6"/>
    <g id="xtick_7"/>
    <g id="xtick_8"/>
   </g>
   <g id="matplotlib.axis_4">
    <g id="ytick_6">
     <g id="line2d_10">
      <path d="M 190.878995 118.251673 
L 300.764485 118.251673 
" clip-path="url(#pcb0ceb4304)" style="fill: none; stroke: #ffffff; stroke-linecap: round"/>
     </g>
    </g>
    <g id="ytick_7">
     <g id="line2d_11">
      <path d="M 190.878995 97.412991 
L 300.764485 97.412991 
" clip-path="url(#pcb0ceb4304)" style="fill: none; stroke: #ffffff; stroke-linecap: round"/>
     </g>
    </g>
    <g id="ytick_8">
     <g id="line2d_12">
      <path d="M 190.878995 76.574309 
L 300.764485 76.574309 
" clip-path="url(#pcb0ceb4304)" style="fill: none; stroke: #ffffff; stroke-linecap: round"/>
     </g>
    </g>
    <g id="ytick_9">
     <g id="line2d_13">
      <path d="M 190.878995 55.735627 
L 300.764485 55.735627 
" clip-path="url(#pcb0ceb4304)" style="fill: none; stroke: #ffffff; stroke-linecap: round"/>
     </g>
    </g>
    <g id="ytick_10">
     <g id="line2d_14">
      <path d="M 190.878995 34.896945 
L 300.764485 34.896945 
" clip-path="url(#pcb0ceb4304)" style="fill: none; stroke: #ffffff; stroke-linecap: round"/>
     </g>
    </g>
   </g>
   <g id="patch_10">
    <path d="M 193.626132 118.251673 
L 215.60323 118.251673 
L 215.60323 118.251673 
L 193.626132 118.251673 
z
" clip-path="url(#pcb0ceb4304)" style="fill: #224fdf; stroke: #ffffff; stroke-linejoin: miter"/>
   </g>
   <g id="patch_11">
    <path d="M 221.097505 118.251673 
L 243.074603 118.251673 
L 243.074603 37.675436 
L 221.097505 37.675436 
z
" clip-path="url(#pcb0ceb4304)" style="fill: #df7d20; stroke: #ffffff; stroke-linejoin: miter"/>
   </g>
   <g id="patch_12">
    <path d="M 248.568877 118.251673 
L 270.545975 118.251673 
L 270.545975 92.689556 
L 248.568877 92.689556 
z
" clip-path="url(#pcb0ceb4304)" style="fill: #30b346; stroke: #ffffff; stroke-linejoin: miter"/>
   </g>
   <g id="patch_13">
    <path d="M 276.04025 118.251673 
L 298.017348 118.251673 
L 298.017348 58.236269 
L 276.04025 58.236269 
z
" clip-path="url(#pcb0ceb4304)" style="fill: #cb1d25; stroke: #ffffff; stroke-linejoin: miter"/>
   </g>
   <g id="line2d_15">
    <path d="M 201.867544 118.251673 
L 207.361818 118.251673 
M 204.614681 118.251673 
L 204.614681 118.251673 
M 201.867544 118.251673 
L 207.361818 118.251673 
" clip-path="url(#pcb0ceb4304)" style="fill: none; stroke: #424242; stroke-width: 2.25; stroke-linecap: round"/>
   </g>
   <g id="line2d_16">
    <path d="M 229.338916 43.940761 
L 234.833191 43.940761 
M 232.086054 43.940761 
L 232.086054 31.410111 
M 229.338916 31.410111 
L 234.833191 31.410111 
" clip-path="url(#pcb0ceb4304)" style="fill: none; stroke: #424242; stroke-width: 2.25; stroke-linecap: round"/>
   </g>
   <g id="line2d_17">
    <path d="M 256.810289 101.076672 
L 262.304564 101.076672 
M 259.557426 101.076672 
L 259.557426 84.302441 
M 256.810289 84.302441 
L 262.304564 84.302441 
" clip-path="url(#pcb0ceb4304)" style="fill: none; stroke: #424242; stroke-width: 2.25; stroke-linecap: round"/>
   </g>
   <g id="line2d_18">
    <path d="M 284.281662 77.937703 
L 289.775936 77.937703 
M 287.028799 77.937703 
L 287.028799 38.534835 
M 284.281662 38.534835 
L 289.775936 38.534835 
" clip-path="url(#pcb0ceb4304)" style="fill: none; stroke: #424242; stroke-width: 2.25; stroke-linecap: round"/>
   </g>
   <g id="patch_14">
    <path d="M 190.878995 134.800727 
L 190.878995 22.848 
" style="fill: none; stroke: #ffffff; stroke-width: 1.25; stroke-linejoin: miter; stroke-linecap: square"/>
   </g>
   <g id="patch_15">
    <path d="M 190.878995 134.800727 
L 300.764485 134.800727 
" style="fill: none; stroke: #ffffff; stroke-width: 1.25; stroke-linejoin: miter; stroke-linecap: square"/>
   </g>
   <g id="text_8">
    <!-- scenario = Coastal -->
    <g style="fill: #262626" transform="translate(205.93524 16.848) scale(0.096 -0.096)">
     <defs>
      <path id="ArialMT-43" d="M 3763 1606 
L 4369 1453 
Q 4178 706 3683 314 
Q 3188 -78 2472 -78 
Q 1731 -78 1267 223 
Q 803 525 561 1097 
Q 319 1669 319 2325 
Q 319 3041 592 3573 
Q 866 4106 1370 4382 
Q 1875 4659 2481 4659 
Q 3169 4659 3637 4309 
Q 4106 3959 4291 3325 
L 3694 3184 
Q 3534 3684 3231 3912 
Q 2928 4141 2469 4141 
Q 1941 4141 1586 3887 
Q 1231 3634 1087 3207 
Q 944 2781 944 2328 
Q 944 1744 1114 1308 
Q 1284 872 1643 656 
Q 2003 441 2422 441 
Q 2931 441 3284 734 
Q 3638 1028 3763 1606 
z
" transform="scale(0.015625)"/>
     </defs>
     <use xlink:href="#ArialMT-73"/>
     <use xlink:href="#ArialMT-63" x="50"/>
     <use xlink:href="#ArialMT-65" x="100"/>
     <use xlink:href="#ArialMT-6e" x="155.615234"/>
     <use xlink:href="#ArialMT-61" x="211.230469"/>
     <use xlink:href="#ArialMT-72" x="266.845703"/>
     <use xlink:href="#ArialMT-69" x="300.146484"/>
     <use xlink:href="#ArialMT-6f" x="322.363281"/>
     <use xlink:href="#ArialMT-20" x="377.978516"/>
     <use xlink:href="#ArialMT-3d" x="405.761719"/>
     <use xlink:href="#ArialMT-20" x="464.160156"/>
     <use xlink:href="#ArialMT-43" x="491.943359"/>
     <use xlink:href="#ArialMT-6f" x="564.160156"/>
     <use xlink:href="#ArialMT-61" x="619.775391"/>
     <use xlink:href="#ArialMT-73" x="675.390625"/>
     <use xlink:href="#ArialMT-74" x="725.390625"/>
     <use xlink:href="#ArialMT-61" x="753.173828"/>
     <use xlink:href="#ArialMT-6c" x="808.789062"/>
    </g>
   </g>
  </g>
  <g id="axes_3">
   <g id="patch_16">
    <path d="M 317.247309 134.800727 
L 427.1328 134.800727 
L 427.1328 22.848 
L 317.247309 22.848 
z
" style="fill: #eaeaf2"/>
   </g>
   <g id="matplotlib.axis_5">
    <g id="xtick_9"/>
    <g id="xtick_10"/>
    <g id="xtick_11"/>
    <g id="xtick_12"/>
   </g>
   <g id="matplotlib.axis_6">
    <g id="ytick_11">
     <g id="line2d_19">
      <path d="M 317.247309 118.251673 
L 427.1328 118.251673 
" clip-path="url(#p380f1ec35a)" style="fill: none; stroke: #ffffff; stroke-linecap: round"/>
     </g>
    </g>
    <g id="ytick_12">
     <g id="line2d_20">
      <path d="M 317.247309 97.412991 
L 427.1328 97.412991 
" clip-path="url(#p380f1ec35a)" style="fill: none; stroke: #ffffff; stroke-linecap: round"/>
     </g>
    </g>
    <g id="ytick_13">
     <g id="line2d_21">
      <path d="M 317.247309 76.574309 
L 427.1328 76.574309 
" clip-path="url(#p380f1ec35a)" style="fill: none; stroke: #ffffff; stroke-linecap: round"/>
     </g>
    </g>
    <g id="ytick_14">
     <g id="line2d_22">
      <path d="M 317.247309 55.735627 
L 427.1328 55.735627 
" clip-path="url(#p380f1ec35a)" style="fill: none; stroke: #ffffff; stroke-linecap: round"/>
     </g>
    </g>
    <g id="ytick_15">
     <g id="line2d_23">
      <path d="M 317.247309 34.896945 
L 427.1328 34.896945 
" clip-path="url(#p380f1ec35a)" style="fill: none; stroke: #ffffff; stroke-linecap: round"/>
     </g>
    </g>
   </g>
   <g id="patch_17">
    <path d="M 319.994446 118.251673 
L 341.971545 118.251673 
L 341.971545 118.251673 
L 319.994446 118.251673 
z
" clip-path="url(#p380f1ec35a)" style="fill: #224fdf; stroke: #ffffff; stroke-linejoin: miter"/>
   </g>
   <g id="patch_18">
    <path d="M 347.465819 118.251673 
L 369.442917 118.251673 
L 369.442917 118.251673 
L 347.465819 118.251673 
z
" clip-path="url(#p380f1ec35a)" style="fill: #df7d20; stroke: #ffffff; stroke-linejoin: miter"/>
   </g>
   <g id="patch_19">
    <path d="M 374.937192 118.251673 
L 396.91429 118.251673 
L 396.91429 89.911065 
L 374.937192 89.911065 
z
" clip-path="url(#p380f1ec35a)" style="fill: #30b346; stroke: #ffffff; stroke-linejoin: miter"/>
   </g>
   <g id="patch_20">
    <path d="M 402.408565 118.251673 
L 424.385663 118.251673 
L 424.385663 81.019894 
L 402.408565 81.019894 
z
" clip-path="url(#p380f1ec35a)" style="fill: #cb1d25; stroke: #ffffff; stroke-linejoin: miter"/>
   </g>
   <g id="line2d_24">
    <path d="M 328.235858 118.251673 
L 333.730133 118.251673 
M 330.982995 118.251673 
L 330.982995 118.251673 
M 328.235858 118.251673 
L 333.730133 118.251673 
" clip-path="url(#p380f1ec35a)" style="fill: none; stroke: #424242; stroke-width: 2.25; stroke-linecap: round"/>
   </g>
   <g id="line2d_25">
    <path d="M 355.707231 118.251673 
L 361.201505 118.251673 
M 358.454368 118.251673 
L 358.454368 118.251673 
M 355.707231 118.251673 
L 361.201505 118.251673 
" clip-path="url(#p380f1ec35a)" style="fill: none; stroke: #424242; stroke-width: 2.25; stroke-linecap: round"/>
   </g>
   <g id="line2d_26">
    <path d="M 383.178604 97.615123 
L 388.672878 97.615123 
M 385.925741 97.615123 
L 385.925741 82.207008 
M 383.178604 82.207008 
L 388.672878 82.207008 
" clip-path="url(#p380f1ec35a)" style="fill: none; stroke: #424242; stroke-width: 2.25; stroke-linecap: round"/>
   </g>
   <g id="line2d_27">
    <path d="M 410.649976 100.761137 
L 416.144251 100.761137 
M 413.397114 100.761137 
L 413.397114 61.278652 
M 410.649976 61.278652 
L 416.144251 61.278652 
" clip-path="url(#p380f1ec35a)" style="fill: none; stroke: #424242; stroke-width: 2.25; stroke-linecap: round"/>
   </g>
   <g id="patch_21">
    <path d="M 317.247309 134.800727 
L 317.247309 22.848 
" style="fill: none; stroke: #ffffff; stroke-width: 1.25; stroke-linejoin: miter; stroke-linecap: square"/>
   </g>
   <g id="patch_22">
    <path d="M 317.247309 134.800727 
L 427.1328 134.800727 
" style="fill: none; stroke: #ffffff; stroke-width: 1.25; stroke-linejoin: miter; stroke-linecap: square"/>
   </g>
   <g id="text_9">
    <!-- scenario = Insular -->
    <g style="fill: #262626" transform="translate(334.171805 16.848) scale(0.096 -0.096)">
     <defs>
      <path id="ArialMT-49" d="M 597 0 
L 597 4581 
L 1203 4581 
L 1203 0 
L 597 0 
z
" transform="scale(0.015625)"/>
     </defs>
     <use xlink:href="#ArialMT-73"/>
     <use xlink:href="#ArialMT-63" x="50"/>
     <use xlink:href="#ArialMT-65" x="100"/>
     <use xlink:href="#ArialMT-6e" x="155.615234"/>
     <use xlink:href="#ArialMT-61" x="211.230469"/>
     <use xlink:href="#ArialMT-72" x="266.845703"/>
     <use xlink:href="#ArialMT-69" x="300.146484"/>
     <use xlink:href="#ArialMT-6f" x="322.363281"/>
     <use xlink:href="#ArialMT-20" x="377.978516"/>
     <use xlink:href="#ArialMT-3d" x="405.761719"/>
     <use xlink:href="#ArialMT-20" x="464.160156"/>
     <use xlink:href="#ArialMT-49" x="491.943359"/>
     <use xlink:href="#ArialMT-6e" x="519.726562"/>
     <use xlink:href="#ArialMT-73" x="575.341797"/>
     <use xlink:href="#ArialMT-75" x="625.341797"/>
     <use xlink:href="#ArialMT-6c" x="680.957031"/>
     <use xlink:href="#ArialMT-61" x="703.173828"/>
     <use xlink:href="#ArialMT-72" x="758.789062"/>
    </g>
   </g>
  </g>
  <g id="axes_4">
   <g id="patch_23">
    <path d="M 64.51068 263.546364 
L 174.396171 263.546364 
L 174.396171 151.593636 
L 64.51068 151.593636 
z
" style="fill: #eaeaf2"/>
   </g>
   <g id="matplotlib.axis_7">
    <g id="xtick_13"/>
    <g id="xtick_14"/>
    <g id="xtick_15"/>
    <g id="xtick_16"/>
   </g>
   <g id="matplotlib.axis_8">
    <g id="ytick_16">
     <g id="line2d_28">
      <path d="M 64.51068 246.997309 
L 174.396171 246.997309 
" clip-path="url(#p282bf634ed)" style="fill: none; stroke: #ffffff; stroke-linecap: round"/>
     </g>
     <g id="text_10">
      <!-- 0 -->
      <g style="fill: #262626" transform="translate(50.117055 250.146747) scale(0.088 -0.088)">
       <use xlink:href="#ArialMT-30"/>
      </g>
     </g>
    </g>
    <g id="ytick_17">
     <g id="line2d_29">
      <path d="M 64.51068 226.158627 
L 174.396171 226.158627 
" clip-path="url(#p282bf634ed)" style="fill: none; stroke: #ffffff; stroke-linecap: round"/>
     </g>
     <g id="text_11">
      <!-- 5000 -->
      <g style="fill: #262626" transform="translate(35.43618 229.308065) scale(0.088 -0.088)">
       <use xlink:href="#ArialMT-35"/>
       <use xlink:href="#ArialMT-30" x="55.615234"/>
       <use xlink:href="#ArialMT-30" x="111.230469"/>
       <use xlink:href="#ArialMT-30" x="166.845703"/>
      </g>
     </g>
    </g>
    <g id="ytick_18">
     <g id="line2d_30">
      <path d="M 64.51068 205.319945 
L 174.396171 205.319945 
" clip-path="url(#p282bf634ed)" style="fill: none; stroke: #ffffff; stroke-linecap: round"/>
     </g>
     <g id="text_12">
      <!-- 10000 -->
      <g style="fill: #262626" transform="translate(30.542555 208.469383) scale(0.088 -0.088)">
       <use xlink:href="#ArialMT-31"/>
       <use xlink:href="#ArialMT-30" x="55.615234"/>
       <use xlink:href="#ArialMT-30" x="111.230469"/>
       <use xlink:href="#ArialMT-30" x="166.845703"/>
       <use xlink:href="#ArialMT-30" x="222.460938"/>
      </g>
     </g>
    </g>
    <g id="ytick_19">
     <g id="line2d_31">
      <path d="M 64.51068 184.481263 
L 174.396171 184.481263 
" clip-path="url(#p282bf634ed)" style="fill: none; stroke: #ffffff; stroke-linecap: round"/>
     </g>
     <g id="text_13">
      <!-- 15000 -->
      <g style="fill: #262626" transform="translate(30.542555 187.630701) scale(0.088 -0.088)">
       <use xlink:href="#ArialMT-31"/>
       <use xlink:href="#ArialMT-35" x="55.615234"/>
       <use xlink:href="#ArialMT-30" x="111.230469"/>
       <use xlink:href="#ArialMT-30" x="166.845703"/>
       <use xlink:href="#ArialMT-30" x="222.460938"/>
      </g>
     </g>
    </g>
    <g id="ytick_20">
     <g id="line2d_32">
      <path d="M 64.51068 163.642581 
L 174.396171 163.642581 
" clip-path="url(#p282bf634ed)" style="fill: none; stroke: #ffffff; stroke-linecap: round"/>
     </g>
     <g id="text_14">
      <!-- 20000 -->
      <g style="fill: #262626" transform="translate(30.542555 166.792019) scale(0.088 -0.088)">
       <use xlink:href="#ArialMT-32"/>
       <use xlink:href="#ArialMT-30" x="55.615234"/>
       <use xlink:href="#ArialMT-30" x="111.230469"/>
       <use xlink:href="#ArialMT-30" x="166.845703"/>
       <use xlink:href="#ArialMT-30" x="222.460938"/>
      </g>
     </g>
    </g>
    <g id="text_15">
     <!-- Expected malicious traffic -->
     <g style="fill: #262626" transform="translate(24.634555 261.90525) rotate(-90) scale(0.096 -0.096)">
      <use xlink:href="#ArialMT-45"/>
      <use xlink:href="#ArialMT-78" x="66.699219"/>
      <use xlink:href="#ArialMT-70" x="116.699219"/>
      <use xlink:href="#ArialMT-65" x="172.314453"/>
      <use xlink:href="#ArialMT-63" x="227.929688"/>
      <use xlink:href="#ArialMT-74" x="277.929688"/>
      <use xlink:href="#ArialMT-65" x="305.712891"/>
      <use xlink:href="#ArialMT-64" x="361.328125"/>
      <use xlink:href="#ArialMT-20" x="416.943359"/>
      <use xlink:href="#ArialMT-6d" x="444.726562"/>
      <use xlink:href="#ArialMT-61" x="528.027344"/>
      <use xlink:href="#ArialMT-6c" x="583.642578"/>
      <use xlink:href="#ArialMT-69" x="605.859375"/>
      <use xlink:href="#ArialMT-63" x="628.076172"/>
      <use xlink:href="#ArialMT-69" x="678.076172"/>
      <use xlink:href="#ArialMT-6f" x="700.292969"/>
      <use xlink:href="#ArialMT-75" x="755.908203"/>
      <use xlink:href="#ArialMT-73" x="811.523438"/>
      <use xlink:href="#ArialMT-20" x="861.523438"/>
      <use xlink:href="#ArialMT-74" x="889.306641"/>
      <use xlink:href="#ArialMT-72" x="917.089844"/>
      <use xlink:href="#ArialMT-61" x="950.390625"/>
      <use xlink:href="#ArialMT-66" x="1006.005859"/>
      <use xlink:href="#ArialMT-66" x="1032.039062"/>
      <use xlink:href="#ArialMT-69" x="1059.822266"/>
      <use xlink:href="#ArialMT-63" x="1082.039062"/>
     </g>
    </g>
   </g>
   <g id="patch_24">
    <path d="M 67.257817 246.997309 
L 89.234915 246.997309 
L 89.234915 186.426207 
L 67.257817 186.426207 
z
" clip-path="url(#p282bf634ed)" style="fill: #224fdf; stroke: #ffffff; stroke-linejoin: miter"/>
   </g>
   <g id="patch_25">
    <path d="M 94.72919 246.997309 
L 116.706288 246.997309 
L 116.706288 222.546589 
L 94.72919 222.546589 
z
" clip-path="url(#p282bf634ed)" style="fill: #df7d20; stroke: #ffffff; stroke-linejoin: miter"/>
   </g>
   <g id="line2d_33">
    <path d="M 75.499229 194.527638 
L 80.993504 194.527638 
M 78.246366 194.527638 
L 78.246366 178.324776 
M 75.499229 178.324776 
L 80.993504 178.324776 
" clip-path="url(#p282bf634ed)" style="fill: none; stroke: #424242; stroke-width: 2.25; stroke-linecap: round"/>
   </g>
   <g id="line2d_34">
    <path d="M 102.970602 230.933704 
L 108.464876 230.933704 
M 105.717739 230.933704 
L 105.717739 214.159474 
M 102.970602 214.159474 
L 108.464876 214.159474 
" clip-path="url(#p282bf634ed)" style="fill: none; stroke: #424242; stroke-width: 2.25; stroke-linecap: round"/>
   </g>
   <g id="patch_26">
    <path d="M 64.51068 263.546364 
L 64.51068 151.593636 
" style="fill: none; stroke: #ffffff; stroke-width: 1.25; stroke-linejoin: miter; stroke-linecap: square"/>
   </g>
   <g id="patch_27">
    <path d="M 64.51068 263.546364 
L 174.396171 263.546364 
" style="fill: none; stroke: #ffffff; stroke-width: 1.25; stroke-linejoin: miter; stroke-linecap: square"/>
   </g>
   <g id="text_16">
    <!-- scenario = Polar -->
    <g style="fill: #262626" transform="translate(84.636175 145.593636) scale(0.096 -0.096)">
     <defs>
      <path id="ArialMT-50" d="M 494 0 
L 494 4581 
L 2222 4581 
Q 2678 4581 2919 4538 
Q 3256 4481 3484 4323 
Q 3713 4166 3852 3881 
Q 3991 3597 3991 3256 
Q 3991 2672 3619 2267 
Q 3247 1863 2275 1863 
L 1100 1863 
L 1100 0 
L 494 0 
z
M 1100 2403 
L 2284 2403 
Q 2872 2403 3119 2622 
Q 3366 2841 3366 3238 
Q 3366 3525 3220 3729 
Q 3075 3934 2838 4000 
Q 2684 4041 2272 4041 
L 1100 4041 
L 1100 2403 
z
" transform="scale(0.015625)"/>
     </defs>
     <use xlink:href="#ArialMT-73"/>
     <use xlink:href="#ArialMT-63" x="50"/>
     <use xlink:href="#ArialMT-65" x="100"/>
     <use xlink:href="#ArialMT-6e" x="155.615234"/>
     <use xlink:href="#ArialMT-61" x="211.230469"/>
     <use xlink:href="#ArialMT-72" x="266.845703"/>
     <use xlink:href="#ArialMT-69" x="300.146484"/>
     <use xlink:href="#ArialMT-6f" x="322.363281"/>
     <use xlink:href="#ArialMT-20" x="377.978516"/>
     <use xlink:href="#ArialMT-3d" x="405.761719"/>
     <use xlink:href="#ArialMT-20" x="464.160156"/>
     <use xlink:href="#ArialMT-50" x="491.943359"/>
     <use xlink:href="#ArialMT-6f" x="558.642578"/>
     <use xlink:href="#ArialMT-6c" x="614.257812"/>
     <use xlink:href="#ArialMT-61" x="636.474609"/>
     <use xlink:href="#ArialMT-72" x="692.089844"/>
    </g>
   </g>
  </g>
  <g id="axes_5">
   <g id="patch_28">
    <path d="M 190.878995 263.546364 
L 300.764485 263.546364 
L 300.764485 151.593636 
L 190.878995 151.593636 
z
" style="fill: #eaeaf2"/>
   </g>
   <g id="matplotlib.axis_9">
    <g id="xtick_17">
     <g id="text_17">
      <!-- East -->
      <g style="fill: #262626" transform="translate(195.810556 279.345239) scale(0.088 -0.088)">
       <use xlink:href="#ArialMT-45"/>
       <use xlink:href="#ArialMT-61" x="66.699219"/>
       <use xlink:href="#ArialMT-73" x="122.314453"/>
       <use xlink:href="#ArialMT-74" x="172.314453"/>
      </g>
     </g>
    </g>
    <g id="xtick_18">
     <g id="text_18">
      <!-- West -->
      <g style="fill: #262626" transform="translate(222.140679 279.345239) scale(0.088 -0.088)">
       <defs>
        <path id="ArialMT-57" d="M 1294 0 
L 78 4581 
L 700 4581 
L 1397 1578 
Q 1509 1106 1591 641 
Q 1766 1375 1797 1488 
L 2669 4581 
L 3400 4581 
L 4056 2263 
Q 4303 1400 4413 641 
Q 4500 1075 4641 1638 
L 5359 4581 
L 5969 4581 
L 4713 0 
L 4128 0 
L 3163 3491 
Q 3041 3928 3019 4028 
Q 2947 3713 2884 3491 
L 1913 0 
L 1294 0 
z
" transform="scale(0.015625)"/>
       </defs>
       <use xlink:href="#ArialMT-57"/>
       <use xlink:href="#ArialMT-65" x="92.634766"/>
       <use xlink:href="#ArialMT-73" x="148.25"/>
       <use xlink:href="#ArialMT-74" x="198.25"/>
      </g>
     </g>
    </g>
    <g id="xtick_19">
     <g id="text_19">
      <!-- North -->
      <g style="fill: #262626" transform="translate(248.798739 279.345239) scale(0.088 -0.088)">
       <defs>
        <path id="ArialMT-4e" d="M 488 0 
L 488 4581 
L 1109 4581 
L 3516 984 
L 3516 4581 
L 4097 4581 
L 4097 0 
L 3475 0 
L 1069 3600 
L 1069 0 
L 488 0 
z
" transform="scale(0.015625)"/>
        <path id="ArialMT-68" d="M 422 0 
L 422 4581 
L 984 4581 
L 984 2938 
Q 1378 3394 1978 3394 
Q 2347 3394 2619 3248 
Q 2891 3103 3008 2847 
Q 3125 2591 3125 2103 
L 3125 0 
L 2563 0 
L 2563 2103 
Q 2563 2525 2380 2717 
Q 2197 2909 1863 2909 
Q 1613 2909 1392 2779 
Q 1172 2650 1078 2428 
Q 984 2206 984 1816 
L 984 0 
L 422 0 
z
" transform="scale(0.015625)"/>
       </defs>
       <use xlink:href="#ArialMT-4e"/>
       <use xlink:href="#ArialMT-6f" x="72.216797"/>
       <use xlink:href="#ArialMT-72" x="127.832031"/>
       <use xlink:href="#ArialMT-74" x="161.132812"/>
       <use xlink:href="#ArialMT-68" x="188.916016"/>
      </g>
     </g>
    </g>
    <g id="xtick_20">
     <g id="text_20">
      <!-- South -->
      <g style="fill: #262626" transform="translate(275.531049 279.345239) scale(0.088 -0.088)">
       <defs>
        <path id="ArialMT-53" d="M 288 1472 
L 859 1522 
Q 900 1178 1048 958 
Q 1197 738 1509 602 
Q 1822 466 2213 466 
Q 2559 466 2825 569 
Q 3091 672 3220 851 
Q 3350 1031 3350 1244 
Q 3350 1459 3225 1620 
Q 3100 1781 2813 1891 
Q 2628 1963 1997 2114 
Q 1366 2266 1113 2400 
Q 784 2572 623 2826 
Q 463 3081 463 3397 
Q 463 3744 659 4045 
Q 856 4347 1234 4503 
Q 1613 4659 2075 4659 
Q 2584 4659 2973 4495 
Q 3363 4331 3572 4012 
Q 3781 3694 3797 3291 
L 3216 3247 
Q 3169 3681 2898 3903 
Q 2628 4125 2100 4125 
Q 1550 4125 1298 3923 
Q 1047 3722 1047 3438 
Q 1047 3191 1225 3031 
Q 1400 2872 2139 2705 
Q 2878 2538 3153 2413 
Q 3553 2228 3743 1945 
Q 3934 1663 3934 1294 
Q 3934 928 3725 604 
Q 3516 281 3123 101 
Q 2731 -78 2241 -78 
Q 1619 -78 1198 103 
Q 778 284 539 648 
Q 300 1013 288 1472 
z
" transform="scale(0.015625)"/>
       </defs>
       <use xlink:href="#ArialMT-53"/>
       <use xlink:href="#ArialMT-6f" x="66.699219"/>
       <use xlink:href="#ArialMT-75" x="122.314453"/>
       <use xlink:href="#ArialMT-74" x="177.929688"/>
       <use xlink:href="#ArialMT-68" x="205.712891"/>
      </g>
     </g>
    </g>
    <g id="text_21">
     <!-- direction -->
     <g style="fill: #262626" transform="translate(227.67999 291.965739) scale(0.096 -0.096)">
      <use xlink:href="#ArialMT-64"/>
      <use xlink:href="#ArialMT-69" x="55.615234"/>
      <use xlink:href="#ArialMT-72" x="77.832031"/>
      <use xlink:href="#ArialMT-65" x="111.132812"/>
      <use xlink:href="#ArialMT-63" x="166.748047"/>
      <use xlink:href="#ArialMT-74" x="216.748047"/>
      <use xlink:href="#ArialMT-69" x="244.53125"/>
      <use xlink:href="#ArialMT-6f" x="266.748047"/>
      <use xlink:href="#ArialMT-6e" x="322.363281"/>
     </g>
    </g>
   </g>
   <g id="matplotlib.axis_10">
    <g id="ytick_21">
     <g id="line2d_35">
      <path d="M 190.878995 246.997309 
L 300.764485 246.997309 
" clip-path="url(#p221679ce75)" style="fill: none; stroke: #ffffff; stroke-linecap: round"/>
     </g>
    </g>
    <g id="ytick_22">
     <g id="line2d_36">
      <path d="M 190.878995 226.158627 
L 300.764485 226.158627 
" clip-path="url(#p221679ce75)" style="fill: none; stroke: #ffffff; stroke-linecap: round"/>
     </g>
    </g>
    <g id="ytick_23">
     <g id="line2d_37">
      <path d="M 190.878995 205.319945 
L 300.764485 205.319945 
" clip-path="url(#p221679ce75)" style="fill: none; stroke: #ffffff; stroke-linecap: round"/>
     </g>
    </g>
    <g id="ytick_24">
     <g id="line2d_38">
      <path d="M 190.878995 184.481263 
L 300.764485 184.481263 
" clip-path="url(#p221679ce75)" style="fill: none; stroke: #ffffff; stroke-linecap: round"/>
     </g>
    </g>
    <g id="ytick_25">
     <g id="line2d_39">
      <path d="M 190.878995 163.642581 
L 300.764485 163.642581 
" clip-path="url(#p221679ce75)" style="fill: none; stroke: #ffffff; stroke-linecap: round"/>
     </g>
    </g>
   </g>
   <g id="patch_29">
    <path d="M 193.626132 246.997309 
L 215.60323 246.997309 
L 215.60323 222.546589 
L 193.626132 222.546589 
z
" clip-path="url(#p221679ce75)" style="fill: #224fdf; stroke: #ffffff; stroke-linejoin: miter"/>
   </g>
   <g id="patch_30">
    <path d="M 221.097505 246.997309 
L 243.074603 246.997309 
L 243.074603 230.326364 
L 221.097505 230.326364 
z
" clip-path="url(#p221679ce75)" style="fill: #df7d20; stroke: #ffffff; stroke-linejoin: miter"/>
   </g>
   <g id="patch_31">
    <path d="M 248.568877 246.997309 
L 270.545975 246.997309 
L 270.545975 179.20213 
L 248.568877 179.20213 
z
" clip-path="url(#p221679ce75)" style="fill: #30b346; stroke: #ffffff; stroke-linejoin: miter"/>
   </g>
   <g id="patch_32">
    <path d="M 276.04025 246.997309 
L 298.017348 246.997309 
L 298.017348 183.092018 
L 276.04025 183.092018 
z
" clip-path="url(#p221679ce75)" style="fill: #cb1d25; stroke: #ffffff; stroke-linejoin: miter"/>
   </g>
   <g id="line2d_40">
    <path d="M 201.867544 255.097349 
L 207.361818 255.097349 
M 204.614681 255.097349 
L 204.614681 189.995829 
M 201.867544 189.995829 
L 207.361818 189.995829 
" clip-path="url(#p221679ce75)" style="fill: none; stroke: #424242; stroke-width: 2.25; stroke-linecap: round"/>
   </g>
   <g id="line2d_41">
    <path d="M 229.338916 258.457603 
L 234.833191 258.457603 
M 232.086054 258.457603 
L 232.086054 202.195124 
M 229.338916 202.195124 
L 234.833191 202.195124 
" clip-path="url(#p221679ce75)" style="fill: none; stroke: #424242; stroke-width: 2.25; stroke-linecap: round"/>
   </g>
   <g id="line2d_42">
    <path d="M 256.810289 183.395688 
L 262.304564 183.395688 
M 259.557426 183.395688 
L 259.557426 175.008573 
M 256.810289 175.008573 
L 262.304564 175.008573 
" clip-path="url(#p221679ce75)" style="fill: none; stroke: #424242; stroke-width: 2.25; stroke-linecap: round"/>
   </g>
   <g id="line2d_43">
    <path d="M 284.281662 189.357343 
L 289.775936 189.357343 
M 287.028799 189.357343 
L 287.028799 176.826693 
M 284.281662 176.826693 
L 289.775936 176.826693 
" clip-path="url(#p221679ce75)" style="fill: none; stroke: #424242; stroke-width: 2.25; stroke-linecap: round"/>
   </g>
   <g id="patch_33">
    <path d="M 190.878995 263.546364 
L 190.878995 151.593636 
" style="fill: none; stroke: #ffffff; stroke-width: 1.25; stroke-linejoin: miter; stroke-linecap: square"/>
   </g>
   <g id="patch_34">
    <path d="M 190.878995 263.546364 
L 300.764485 263.546364 
" style="fill: none; stroke: #ffffff; stroke-width: 1.25; stroke-linejoin: miter; stroke-linecap: square"/>
   </g>
   <g id="text_22">
    <!-- scenario = Equatorial -->
    <g style="fill: #262626" transform="translate(200.59674 145.593636) scale(0.096 -0.096)">
     <defs>
      <path id="ArialMT-71" d="M 2538 -1272 
L 2538 353 
Q 2406 169 2170 47 
Q 1934 -75 1669 -75 
Q 1078 -75 651 397 
Q 225 869 225 1691 
Q 225 2191 398 2587 
Q 572 2984 901 3189 
Q 1231 3394 1625 3394 
Q 2241 3394 2594 2875 
L 2594 3319 
L 3100 3319 
L 3100 -1272 
L 2538 -1272 
z
M 803 1669 
Q 803 1028 1072 708 
Q 1341 388 1716 388 
Q 2075 388 2334 692 
Q 2594 997 2594 1619 
Q 2594 2281 2320 2615 
Q 2047 2950 1678 2950 
Q 1313 2950 1058 2639 
Q 803 2328 803 1669 
z
" transform="scale(0.015625)"/>
     </defs>
     <use xlink:href="#ArialMT-73"/>
     <use xlink:href="#ArialMT-63" x="50"/>
     <use xlink:href="#ArialMT-65" x="100"/>
     <use xlink:href="#ArialMT-6e" x="155.615234"/>
     <use xlink:href="#ArialMT-61" x="211.230469"/>
     <use xlink:href="#ArialMT-72" x="266.845703"/>
     <use xlink:href="#ArialMT-69" x="300.146484"/>
     <use xlink:href="#ArialMT-6f" x="322.363281"/>
     <use xlink:href="#ArialMT-20" x="377.978516"/>
     <use xlink:href="#ArialMT-3d" x="405.761719"/>
     <use xlink:href="#ArialMT-20" x="464.160156"/>
     <use xlink:href="#ArialMT-45" x="491.943359"/>
     <use xlink:href="#ArialMT-71" x="558.642578"/>
     <use xlink:href="#ArialMT-75" x="614.257812"/>
     <use xlink:href="#ArialMT-61" x="669.873047"/>
     <use xlink:href="#ArialMT-74" x="725.488281"/>
     <use xlink:href="#ArialMT-6f" x="753.271484"/>
     <use xlink:href="#ArialMT-72" x="808.886719"/>
     <use xlink:href="#ArialMT-69" x="842.1875"/>
     <use xlink:href="#ArialMT-61" x="864.404297"/>
     <use xlink:href="#ArialMT-6c" x="920.019531"/>
    </g>
   </g>
  </g>
  <g id="axes_6">
   <g id="patch_35">
    <path d="M 317.247309 263.546364 
L 427.1328 263.546364 
L 427.1328 151.593636 
L 317.247309 151.593636 
z
" style="fill: #eaeaf2"/>
   </g>
   <g id="matplotlib.axis_11">
    <g id="xtick_21">
     <g id="text_23">
      <!-- East -->
      <g style="fill: #262626" transform="translate(322.17887 279.345239) scale(0.088 -0.088)">
       <use xlink:href="#ArialMT-45"/>
       <use xlink:href="#ArialMT-61" x="66.699219"/>
       <use xlink:href="#ArialMT-73" x="122.314453"/>
       <use xlink:href="#ArialMT-74" x="172.314453"/>
      </g>
     </g>
    </g>
    <g id="xtick_22">
     <g id="text_24">
      <!-- West -->
      <g style="fill: #262626" transform="translate(348.508993 279.345239) scale(0.088 -0.088)">
       <use xlink:href="#ArialMT-57"/>
       <use xlink:href="#ArialMT-65" x="92.634766"/>
       <use xlink:href="#ArialMT-73" x="148.25"/>
       <use xlink:href="#ArialMT-74" x="198.25"/>
      </g>
     </g>
    </g>
    <g id="xtick_23">
     <g id="text_25">
      <!-- North -->
      <g style="fill: #262626" transform="translate(375.167053 279.345239) scale(0.088 -0.088)">
       <use xlink:href="#ArialMT-4e"/>
       <use xlink:href="#ArialMT-6f" x="72.216797"/>
       <use xlink:href="#ArialMT-72" x="127.832031"/>
       <use xlink:href="#ArialMT-74" x="161.132812"/>
       <use xlink:href="#ArialMT-68" x="188.916016"/>
      </g>
     </g>
    </g>
    <g id="xtick_24">
     <g id="text_26">
      <!-- South -->
      <g style="fill: #262626" transform="translate(401.899364 279.345239) scale(0.088 -0.088)">
       <use xlink:href="#ArialMT-53"/>
       <use xlink:href="#ArialMT-6f" x="66.699219"/>
       <use xlink:href="#ArialMT-75" x="122.314453"/>
       <use xlink:href="#ArialMT-74" x="177.929688"/>
       <use xlink:href="#ArialMT-68" x="205.712891"/>
      </g>
     </g>
    </g>
    <g id="text_27">
     <!-- direction -->
     <g style="fill: #262626" transform="translate(354.048305 291.965739) scale(0.096 -0.096)">
      <use xlink:href="#ArialMT-64"/>
      <use xlink:href="#ArialMT-69" x="55.615234"/>
      <use xlink:href="#ArialMT-72" x="77.832031"/>
      <use xlink:href="#ArialMT-65" x="111.132812"/>
      <use xlink:href="#ArialMT-63" x="166.748047"/>
      <use xlink:href="#ArialMT-74" x="216.748047"/>
      <use xlink:href="#ArialMT-69" x="244.53125"/>
      <use xlink:href="#ArialMT-6f" x="266.748047"/>
      <use xlink:href="#ArialMT-6e" x="322.363281"/>
     </g>
    </g>
   </g>
   <g id="matplotlib.axis_12">
    <g id="ytick_26">
     <g id="line2d_44">
      <path d="M 317.247309 246.997309 
L 427.1328 246.997309 
" clip-path="url(#p9f9b1c7497)" style="fill: none; stroke: #ffffff; stroke-linecap: round"/>
     </g>
    </g>
    <g id="ytick_27">
     <g id="line2d_45">
      <path d="M 317.247309 226.158627 
L 427.1328 226.158627 
" clip-path="url(#p9f9b1c7497)" style="fill: none; stroke: #ffffff; stroke-linecap: round"/>
     </g>
    </g>
    <g id="ytick_28">
     <g id="line2d_46">
      <path d="M 317.247309 205.319945 
L 427.1328 205.319945 
" clip-path="url(#p9f9b1c7497)" style="fill: none; stroke: #ffffff; stroke-linecap: round"/>
     </g>
    </g>
    <g id="ytick_29">
     <g id="line2d_47">
      <path d="M 317.247309 184.481263 
L 427.1328 184.481263 
" clip-path="url(#p9f9b1c7497)" style="fill: none; stroke: #ffffff; stroke-linecap: round"/>
     </g>
    </g>
    <g id="ytick_30">
     <g id="line2d_48">
      <path d="M 317.247309 163.642581 
L 427.1328 163.642581 
" clip-path="url(#p9f9b1c7497)" style="fill: none; stroke: #ffffff; stroke-linecap: round"/>
     </g>
    </g>
   </g>
   <g id="patch_36">
    <path d="M 319.994446 246.997309 
L 341.971545 246.997309 
L 341.971545 246.997309 
L 319.994446 246.997309 
z
" clip-path="url(#p9f9b1c7497)" style="fill: #224fdf; stroke: #ffffff; stroke-linejoin: miter"/>
   </g>
   <g id="patch_37">
    <path d="M 347.465819 246.997309 
L 369.442917 246.997309 
L 369.442917 218.101004 
L 347.465819 218.101004 
z
" clip-path="url(#p9f9b1c7497)" style="fill: #df7d20; stroke: #ffffff; stroke-linejoin: miter"/>
   </g>
   <g id="line2d_49">
    <path d="M 328.235858 246.997309 
L 333.730133 246.997309 
M 330.982995 246.997309 
L 330.982995 246.997309 
M 328.235858 246.997309 
L 333.730133 246.997309 
" clip-path="url(#p9f9b1c7497)" style="fill: none; stroke: #424242; stroke-width: 2.25; stroke-linecap: round"/>
   </g>
   <g id="line2d_50">
    <path d="M 355.707231 236.483087 
L 361.201505 236.483087 
M 358.454368 236.483087 
L 358.454368 199.71892 
M 355.707231 199.71892 
L 361.201505 199.71892 
" clip-path="url(#p9f9b1c7497)" style="fill: none; stroke: #424242; stroke-width: 2.25; stroke-linecap: round"/>
   </g>
   <g id="patch_38">
    <path d="M 317.247309 263.546364 
L 317.247309 151.593636 
" style="fill: none; stroke: #ffffff; stroke-width: 1.25; stroke-linejoin: miter; stroke-linecap: square"/>
   </g>
   <g id="patch_39">
    <path d="M 317.247309 263.546364 
L 427.1328 263.546364 
" style="fill: none; stroke: #ffffff; stroke-width: 1.25; stroke-linejoin: miter; stroke-linecap: square"/>
   </g>
   <g id="text_28">
    <!-- scenario = TransOrbital -->
    <g style="fill: #262626" transform="translate(322.436555 145.593636) scale(0.096 -0.096)">
     <defs>
      <path id="ArialMT-54" d="M 1659 0 
L 1659 4041 
L 150 4041 
L 150 4581 
L 3781 4581 
L 3781 4041 
L 2266 4041 
L 2266 0 
L 1659 0 
z
" transform="scale(0.015625)"/>
      <path id="ArialMT-4f" d="M 309 2231 
Q 309 3372 921 4017 
Q 1534 4663 2503 4663 
Q 3138 4663 3647 4359 
Q 4156 4056 4423 3514 
Q 4691 2972 4691 2284 
Q 4691 1588 4409 1038 
Q 4128 488 3612 205 
Q 3097 -78 2500 -78 
Q 1853 -78 1343 234 
Q 834 547 571 1087 
Q 309 1628 309 2231 
z
M 934 2222 
Q 934 1394 1379 917 
Q 1825 441 2497 441 
Q 3181 441 3623 922 
Q 4066 1403 4066 2288 
Q 4066 2847 3877 3264 
Q 3688 3681 3323 3911 
Q 2959 4141 2506 4141 
Q 1863 4141 1398 3698 
Q 934 3256 934 2222 
z
" transform="scale(0.015625)"/>
      <path id="ArialMT-62" d="M 941 0 
L 419 0 
L 419 4581 
L 981 4581 
L 981 2947 
Q 1338 3394 1891 3394 
Q 2197 3394 2470 3270 
Q 2744 3147 2920 2923 
Q 3097 2700 3197 2384 
Q 3297 2069 3297 1709 
Q 3297 856 2875 390 
Q 2453 -75 1863 -75 
Q 1275 -75 941 416 
L 941 0 
z
M 934 1684 
Q 934 1088 1097 822 
Q 1363 388 1816 388 
Q 2184 388 2453 708 
Q 2722 1028 2722 1663 
Q 2722 2313 2464 2622 
Q 2206 2931 1841 2931 
Q 1472 2931 1203 2611 
Q 934 2291 934 1684 
z
" transform="scale(0.015625)"/>
     </defs>
     <use xlink:href="#ArialMT-73"/>
     <use xlink:href="#ArialMT-63" x="50"/>
     <use xlink:href="#ArialMT-65" x="100"/>
     <use xlink:href="#ArialMT-6e" x="155.615234"/>
     <use xlink:href="#ArialMT-61" x="211.230469"/>
     <use xlink:href="#ArialMT-72" x="266.845703"/>
     <use xlink:href="#ArialMT-69" x="300.146484"/>
     <use xlink:href="#ArialMT-6f" x="322.363281"/>
     <use xlink:href="#ArialMT-20" x="377.978516"/>
     <use xlink:href="#ArialMT-3d" x="405.761719"/>
     <use xlink:href="#ArialMT-20" x="464.160156"/>
     <use xlink:href="#ArialMT-54" x="490.193359"/>
     <use xlink:href="#ArialMT-72" x="547.527344"/>
     <use xlink:href="#ArialMT-61" x="580.828125"/>
     <use xlink:href="#ArialMT-6e" x="636.443359"/>
     <use xlink:href="#ArialMT-73" x="692.058594"/>
     <use xlink:href="#ArialMT-4f" x="742.058594"/>
     <use xlink:href="#ArialMT-72" x="819.841797"/>
     <use xlink:href="#ArialMT-62" x="853.142578"/>
     <use xlink:href="#ArialMT-69" x="908.757812"/>
     <use xlink:href="#ArialMT-74" x="930.974609"/>
     <use xlink:href="#ArialMT-61" x="958.757812"/>
     <use xlink:href="#ArialMT-6c" x="1014.373047"/>
    </g>
   </g>
  </g>
  <g id="axes_7">
   <g id="patch_40">
    <path d="M 64.51068 392.292 
L 174.396171 392.292 
L 174.396171 280.339273 
L 64.51068 280.339273 
z
" style="fill: #eaeaf2"/>
   </g>
   <g id="matplotlib.axis_13">
    <g id="xtick_25">
     <g id="text_29">
      <!-- East -->
      <g style="fill: #262626" transform="translate(69.442241 408.090875) scale(0.088 -0.088)">
       <use xlink:href="#ArialMT-45"/>
       <use xlink:href="#ArialMT-61" x="66.699219"/>
       <use xlink:href="#ArialMT-73" x="122.314453"/>
       <use xlink:href="#ArialMT-74" x="172.314453"/>
      </g>
     </g>
    </g>
    <g id="xtick_26">
     <g id="text_30">
      <!-- West -->
      <g style="fill: #262626" transform="translate(95.772364 408.090875) scale(0.088 -0.088)">
       <use xlink:href="#ArialMT-57"/>
       <use xlink:href="#ArialMT-65" x="92.634766"/>
       <use xlink:href="#ArialMT-73" x="148.25"/>
       <use xlink:href="#ArialMT-74" x="198.25"/>
      </g>
     </g>
    </g>
    <g id="xtick_27">
     <g id="text_31">
      <!-- North -->
      <g style="fill: #262626" transform="translate(122.430424 408.090875) scale(0.088 -0.088)">
       <use xlink:href="#ArialMT-4e"/>
       <use xlink:href="#ArialMT-6f" x="72.216797"/>
       <use xlink:href="#ArialMT-72" x="127.832031"/>
       <use xlink:href="#ArialMT-74" x="161.132812"/>
       <use xlink:href="#ArialMT-68" x="188.916016"/>
      </g>
     </g>
    </g>
    <g id="xtick_28">
     <g id="text_32">
      <!-- South -->
      <g style="fill: #262626" transform="translate(149.162735 408.090875) scale(0.088 -0.088)">
       <use xlink:href="#ArialMT-53"/>
       <use xlink:href="#ArialMT-6f" x="66.699219"/>
       <use xlink:href="#ArialMT-75" x="122.314453"/>
       <use xlink:href="#ArialMT-74" x="177.929688"/>
       <use xlink:href="#ArialMT-68" x="205.712891"/>
      </g>
     </g>
    </g>
    <g id="text_33">
     <!-- direction -->
     <g style="fill: #262626" transform="translate(101.311675 420.711375) scale(0.096 -0.096)">
      <use xlink:href="#ArialMT-64"/>
      <use xlink:href="#ArialMT-69" x="55.615234"/>
      <use xlink:href="#ArialMT-72" x="77.832031"/>
      <use xlink:href="#ArialMT-65" x="111.132812"/>
      <use xlink:href="#ArialMT-63" x="166.748047"/>
      <use xlink:href="#ArialMT-74" x="216.748047"/>
      <use xlink:href="#ArialMT-69" x="244.53125"/>
      <use xlink:href="#ArialMT-6f" x="266.748047"/>
      <use xlink:href="#ArialMT-6e" x="322.363281"/>
     </g>
    </g>
   </g>
   <g id="matplotlib.axis_14">
    <g id="ytick_31">
     <g id="line2d_51">
      <path d="M 64.51068 375.742946 
L 174.396171 375.742946 
" clip-path="url(#p2446236538)" style="fill: none; stroke: #ffffff; stroke-linecap: round"/>
     </g>
     <g id="text_34">
      <!-- 0 -->
      <g style="fill: #262626" transform="translate(50.117055 378.892383) scale(0.088 -0.088)">
       <use xlink:href="#ArialMT-30"/>
      </g>
     </g>
    </g>
    <g id="ytick_32">
     <g id="line2d_52">
      <path d="M 64.51068 354.904264 
L 174.396171 354.904264 
" clip-path="url(#p2446236538)" style="fill: none; stroke: #ffffff; stroke-linecap: round"/>
     </g>
     <g id="text_35">
      <!-- 5000 -->
      <g style="fill: #262626" transform="translate(35.43618 358.053701) scale(0.088 -0.088)">
       <use xlink:href="#ArialMT-35"/>
       <use xlink:href="#ArialMT-30" x="55.615234"/>
       <use xlink:href="#ArialMT-30" x="111.230469"/>
       <use xlink:href="#ArialMT-30" x="166.845703"/>
      </g>
     </g>
    </g>
    <g id="ytick_33">
     <g id="line2d_53">
      <path d="M 64.51068 334.065582 
L 174.396171 334.065582 
" clip-path="url(#p2446236538)" style="fill: none; stroke: #ffffff; stroke-linecap: round"/>
     </g>
     <g id="text_36">
      <!-- 10000 -->
      <g style="fill: #262626" transform="translate(30.542555 337.215019) scale(0.088 -0.088)">
       <use xlink:href="#ArialMT-31"/>
       <use xlink:href="#ArialMT-30" x="55.615234"/>
       <use xlink:href="#ArialMT-30" x="111.230469"/>
       <use xlink:href="#ArialMT-30" x="166.845703"/>
       <use xlink:href="#ArialMT-30" x="222.460938"/>
      </g>
     </g>
    </g>
    <g id="ytick_34">
     <g id="line2d_54">
      <path d="M 64.51068 313.2269 
L 174.396171 313.2269 
" clip-path="url(#p2446236538)" style="fill: none; stroke: #ffffff; stroke-linecap: round"/>
     </g>
     <g id="text_37">
      <!-- 15000 -->
      <g style="fill: #262626" transform="translate(30.542555 316.376337) scale(0.088 -0.088)">
       <use xlink:href="#ArialMT-31"/>
       <use xlink:href="#ArialMT-35" x="55.615234"/>
       <use xlink:href="#ArialMT-30" x="111.230469"/>
       <use xlink:href="#ArialMT-30" x="166.845703"/>
       <use xlink:href="#ArialMT-30" x="222.460938"/>
      </g>
     </g>
    </g>
    <g id="ytick_35">
     <g id="line2d_55">
      <path d="M 64.51068 292.388218 
L 174.396171 292.388218 
" clip-path="url(#p2446236538)" style="fill: none; stroke: #ffffff; stroke-linecap: round"/>
     </g>
     <g id="text_38">
      <!-- 20000 -->
      <g style="fill: #262626" transform="translate(30.542555 295.537655) scale(0.088 -0.088)">
       <use xlink:href="#ArialMT-32"/>
       <use xlink:href="#ArialMT-30" x="55.615234"/>
       <use xlink:href="#ArialMT-30" x="111.230469"/>
       <use xlink:href="#ArialMT-30" x="166.845703"/>
       <use xlink:href="#ArialMT-30" x="222.460938"/>
      </g>
     </g>
    </g>
    <g id="text_39">
     <!-- Expected malicious traffic -->
     <g style="fill: #262626" transform="translate(24.634555 390.650886) rotate(-90) scale(0.096 -0.096)">
      <use xlink:href="#ArialMT-45"/>
      <use xlink:href="#ArialMT-78" x="66.699219"/>
      <use xlink:href="#ArialMT-70" x="116.699219"/>
      <use xlink:href="#ArialMT-65" x="172.314453"/>
      <use xlink:href="#ArialMT-63" x="227.929688"/>
      <use xlink:href="#ArialMT-74" x="277.929688"/>
      <use xlink:href="#ArialMT-65" x="305.712891"/>
      <use xlink:href="#ArialMT-64" x="361.328125"/>
      <use xlink:href="#ArialMT-20" x="416.943359"/>
      <use xlink:href="#ArialMT-6d" x="444.726562"/>
      <use xlink:href="#ArialMT-61" x="528.027344"/>
      <use xlink:href="#ArialMT-6c" x="583.642578"/>
      <use xlink:href="#ArialMT-69" x="605.859375"/>
      <use xlink:href="#ArialMT-63" x="628.076172"/>
      <use xlink:href="#ArialMT-69" x="678.076172"/>
      <use xlink:href="#ArialMT-6f" x="700.292969"/>
      <use xlink:href="#ArialMT-75" x="755.908203"/>
      <use xlink:href="#ArialMT-73" x="811.523438"/>
      <use xlink:href="#ArialMT-20" x="861.523438"/>
      <use xlink:href="#ArialMT-74" x="889.306641"/>
      <use xlink:href="#ArialMT-72" x="917.089844"/>
      <use xlink:href="#ArialMT-61" x="950.390625"/>
      <use xlink:href="#ArialMT-66" x="1006.005859"/>
      <use xlink:href="#ArialMT-66" x="1032.039062"/>
      <use xlink:href="#ArialMT-69" x="1059.822266"/>
      <use xlink:href="#ArialMT-63" x="1082.039062"/>
     </g>
    </g>
   </g>
   <g id="patch_41">
    <path d="M 67.257817 375.742946 
L 89.234915 375.742946 
L 89.234915 305.724974 
L 67.257817 305.724974 
z
" clip-path="url(#p2446236538)" style="fill: #224fdf; stroke: #ffffff; stroke-linejoin: miter"/>
   </g>
   <g id="patch_42">
    <path d="M 94.72919 375.742946 
L 116.706288 375.742946 
L 116.706288 307.947767 
L 94.72919 307.947767 
z
" clip-path="url(#p2446236538)" style="fill: #df7d20; stroke: #ffffff; stroke-linejoin: miter"/>
   </g>
   <g id="patch_43">
    <path d="M 122.200563 375.742946 
L 144.177661 375.742946 
L 144.177661 292.388218 
L 122.200563 292.388218 
z
" clip-path="url(#p2446236538)" style="fill: #30b346; stroke: #ffffff; stroke-linejoin: miter"/>
   </g>
   <g id="patch_44">
    <path d="M 149.671935 375.742946 
L 171.649034 375.742946 
L 171.649034 294.055312 
L 149.671935 294.055312 
z
" clip-path="url(#p2446236538)" style="fill: #cb1d25; stroke: #ffffff; stroke-linejoin: miter"/>
   </g>
   <g id="line2d_56">
    <path d="M 75.499229 325.569346 
L 80.993504 325.569346 
M 78.246366 325.569346 
L 78.246366 285.880602 
M 75.499229 285.880602 
L 80.993504 285.880602 
" clip-path="url(#p2446236538)" style="fill: none; stroke: #424242; stroke-width: 2.25; stroke-linecap: round"/>
   </g>
   <g id="line2d_57">
    <path d="M 102.970602 323.558362 
L 108.464876 323.558362 
M 105.717739 323.558362 
L 105.717739 292.337172 
M 102.970602 292.337172 
L 108.464876 292.337172 
" clip-path="url(#p2446236538)" style="fill: none; stroke: #424242; stroke-width: 2.25; stroke-linecap: round"/>
   </g>
   <g id="line2d_58">
    <path d="M 130.441975 292.388218 
L 135.936249 292.388218 
M 133.189112 292.388218 
L 133.189112 292.388218 
M 130.441975 292.388218 
L 135.936249 292.388218 
" clip-path="url(#p2446236538)" style="fill: none; stroke: #424242; stroke-width: 2.25; stroke-linecap: round"/>
   </g>
   <g id="line2d_59">
    <path d="M 157.913347 299.098801 
L 163.407622 299.098801 
M 160.660485 299.098801 
L 160.660485 289.011823 
M 157.913347 289.011823 
L 163.407622 289.011823 
" clip-path="url(#p2446236538)" style="fill: none; stroke: #424242; stroke-width: 2.25; stroke-linecap: round"/>
   </g>
   <g id="patch_45">
    <path d="M 64.51068 392.292 
L 64.51068 280.339273 
" style="fill: none; stroke: #ffffff; stroke-width: 1.25; stroke-linejoin: miter; stroke-linecap: square"/>
   </g>
   <g id="patch_46">
    <path d="M 64.51068 392.292 
L 174.396171 392.292 
" style="fill: none; stroke: #ffffff; stroke-width: 1.25; stroke-linejoin: miter; stroke-linecap: square"/>
   </g>
   <g id="text_40">
    <!-- scenario = IntraOrbital -->
    <g style="fill: #262626" transform="translate(72.100675 274.339273) scale(0.096 -0.096)">
     <use xlink:href="#ArialMT-73"/>
     <use xlink:href="#ArialMT-63" x="50"/>
     <use xlink:href="#ArialMT-65" x="100"/>
     <use xlink:href="#ArialMT-6e" x="155.615234"/>
     <use xlink:href="#ArialMT-61" x="211.230469"/>
     <use xlink:href="#ArialMT-72" x="266.845703"/>
     <use xlink:href="#ArialMT-69" x="300.146484"/>
     <use xlink:href="#ArialMT-6f" x="322.363281"/>
     <use xlink:href="#ArialMT-20" x="377.978516"/>
     <use xlink:href="#ArialMT-3d" x="405.761719"/>
     <use xlink:href="#ArialMT-20" x="464.160156"/>
     <use xlink:href="#ArialMT-49" x="491.943359"/>
     <use xlink:href="#ArialMT-6e" x="519.726562"/>
     <use xlink:href="#ArialMT-74" x="575.341797"/>
     <use xlink:href="#ArialMT-72" x="603.125"/>
     <use xlink:href="#ArialMT-61" x="636.425781"/>
     <use xlink:href="#ArialMT-4f" x="692.041016"/>
     <use xlink:href="#ArialMT-72" x="769.824219"/>
     <use xlink:href="#ArialMT-62" x="803.125"/>
     <use xlink:href="#ArialMT-69" x="858.740234"/>
     <use xlink:href="#ArialMT-74" x="880.957031"/>
     <use xlink:href="#ArialMT-61" x="908.740234"/>
     <use xlink:href="#ArialMT-6c" x="964.355469"/>
    </g>
   </g>
  </g>
  <g id="legend_1">
   <g id="text_41">
    <!-- direction -->
    <g style="fill: #262626" transform="translate(436.8405 193.586) scale(0.096 -0.096)">
     <use xlink:href="#ArialMT-64"/>
     <use xlink:href="#ArialMT-69" x="55.615234"/>
     <use xlink:href="#ArialMT-72" x="77.832031"/>
     <use xlink:href="#ArialMT-65" x="111.132812"/>
     <use xlink:href="#ArialMT-63" x="166.748047"/>
     <use xlink:href="#ArialMT-74" x="216.748047"/>
     <use xlink:href="#ArialMT-69" x="244.53125"/>
     <use xlink:href="#ArialMT-6f" x="266.748047"/>
     <use xlink:href="#ArialMT-6e" x="322.363281"/>
    </g>
   </g>
   <g id="patch_47">
    <path d="M 431.1645 206.192875 
L 448.7645 206.192875 
L 448.7645 200.032875 
L 431.1645 200.032875 
z
" style="fill: #224fdf; stroke: #ffffff; stroke-linejoin: miter"/>
   </g>
   <g id="text_42">
    <!-- East -->
    <g style="fill: #262626" transform="translate(455.8045 206.192875) scale(0.088 -0.088)">
     <use xlink:href="#ArialMT-45"/>
     <use xlink:href="#ArialMT-61" x="66.699219"/>
     <use xlink:href="#ArialMT-73" x="122.314453"/>
     <use xlink:href="#ArialMT-74" x="172.314453"/>
    </g>
   </g>
   <g id="patch_48">
    <path d="M 431.1645 218.64075 
L 448.7645 218.64075 
L 448.7645 212.48075 
L 431.1645 212.48075 
z
" style="fill: #df7d20; stroke: #ffffff; stroke-linejoin: miter"/>
   </g>
   <g id="text_43">
    <!-- West -->
    <g style="fill: #262626" transform="translate(455.8045 218.64075) scale(0.088 -0.088)">
     <use xlink:href="#ArialMT-57"/>
     <use xlink:href="#ArialMT-65" x="92.634766"/>
     <use xlink:href="#ArialMT-73" x="148.25"/>
     <use xlink:href="#ArialMT-74" x="198.25"/>
    </g>
   </g>
   <g id="patch_49">
    <path d="M 431.1645 231.088625 
L 448.7645 231.088625 
L 448.7645 224.928625 
L 431.1645 224.928625 
z
" style="fill: #30b346; stroke: #ffffff; stroke-linejoin: miter"/>
   </g>
   <g id="text_44">
    <!-- North -->
    <g style="fill: #262626" transform="translate(455.8045 231.088625) scale(0.088 -0.088)">
     <use xlink:href="#ArialMT-4e"/>
     <use xlink:href="#ArialMT-6f" x="72.216797"/>
     <use xlink:href="#ArialMT-72" x="127.832031"/>
     <use xlink:href="#ArialMT-74" x="161.132812"/>
     <use xlink:href="#ArialMT-68" x="188.916016"/>
    </g>
   </g>
   <g id="patch_50">
    <path d="M 431.1645 243.5365 
L 448.7645 243.5365 
L 448.7645 237.3765 
L 431.1645 237.3765 
z
" style="fill: #cb1d25; stroke: #ffffff; stroke-linejoin: miter"/>
   </g>
   <g id="text_45">
    <!-- South -->
    <g style="fill: #262626" transform="translate(455.8045 243.5365) scale(0.088 -0.088)">
     <use xlink:href="#ArialMT-53"/>
     <use xlink:href="#ArialMT-6f" x="66.699219"/>
     <use xlink:href="#ArialMT-75" x="122.314453"/>
     <use xlink:href="#ArialMT-74" x="177.929688"/>
     <use xlink:href="#ArialMT-68" x="205.712891"/>
    </g>
   </g>
  </g>
 </g>
 <defs>
  <clipPath id="p97e50279b8">
   <rect x="64.51068" y="22.848" width="109.885491" height="111.952727"/>
  </clipPath>
  <clipPath id="pcb0ceb4304">
   <rect x="190.878995" y="22.848" width="109.885491" height="111.952727"/>
  </clipPath>
  <clipPath id="p380f1ec35a">
   <rect x="317.247309" y="22.848" width="109.885491" height="111.952727"/>
  </clipPath>
  <clipPath id="p282bf634ed">
   <rect x="64.51068" y="151.593636" width="109.885491" height="111.952727"/>
  </clipPath>
  <clipPath id="p221679ce75">
   <rect x="190.878995" y="151.593636" width="109.885491" height="111.952727"/>
  </clipPath>
  <clipPath id="p9f9b1c7497">
   <rect x="317.247309" y="151.593636" width="109.885491" height="111.952727"/>
  </clipPath>
  <clipPath id="p2446236538">
   <rect x="64.51068" y="280.339273" width="109.885491" height="111.952727"/>
  </clipPath>
 </defs>
</svg>
