<?xml version="1.0" encoding="utf-8" standalone="no"?>
<!DOCTYPE svg PUBLIC "-//W3C//DTD SVG 1.1//EN"
  "http://www.w3.org/Graphics/SVG/1.1/DTD/svg11.dtd">
<svg xmlns:xlink="http://www.w3.org/1999/xlink" width="378.72pt" height="162pt" viewBox="0 0 378.72 162" xmlns="http://www.w3.org/2000/svg" version="1.1">
 <metadata>
  <rdf:RDF xmlns:dc="http://purl.org/dc/elements/1.1/" xmlns:cc="http://creativecommons.org/ns#" xmlns:rdf="http://www.w3.org/1999/02/22-rdf-syntax-ns#">
   <cc:Work>
    <dc:type rdf:resource="http://purl.org/dc/dcmitype/StillImage"/>
    <dc:date>2024-08-22T16:17:01.548556</dc:date>
    <dc:format>image/svg+xml</dc:format>
    <dc:creator>
     <cc:Agent>
      <dc:title>Matplotlib v3.9.0, https://matplotlib.org/</dc:title>
     </cc:Agent>
    </dc:creator>
   </cc:Work>
  </rdf:RDF>
 </metadata>
 <defs>
  <style type="text/css">*{stroke-linejoin: round; stroke-linecap: butt}</style>
 </defs>
 <g id="figure_1">
  <g id="patch_1">
   <path d="M 0 162 
L 378.72 162 
L 378.72 0 
L 0 0 
z
" style="fill: #ffffff"/>
  </g>
  <g id="axes_1">
   <g id="patch_2">
    <path d="M 55.35624 122.292 
L 177.168511 122.292 
L 177.168511 23.12925 
L 55.35624 23.12925 
z
" style="fill: #eaeaf2"/>
   </g>
   <g id="matplotlib.axis_1">
    <g id="xtick_1">
     <g id="line2d_1">
      <path d="M 58.633193 122.292 
L 58.633193 23.12925 
" clip-path="url(#pa76d72c60c)" style="fill: none; stroke: #ffffff; stroke-linecap: round"/>
     </g>
     <g id="text_1">
      <!-- 0 -->
      <g style="fill: #262626" transform="translate(56.186381 138.090875) scale(0.088 -0.088)">
       <defs>
        <path id="ArialMT-30" d="M 266 2259 
Q 266 3072 433 3567 
Q 600 4063 929 4331 
Q 1259 4600 1759 4600 
Q 2128 4600 2406 4451 
Q 2684 4303 2865 4023 
Q 3047 3744 3150 3342 
Q 3253 2941 3253 2259 
Q 3253 1453 3087 958 
Q 2922 463 2592 192 
Q 2263 -78 1759 -78 
Q 1097 -78 719 397 
Q 266 969 266 2259 
z
M 844 2259 
Q 844 1131 1108 757 
Q 1372 384 1759 384 
Q 2147 384 2411 759 
Q 2675 1134 2675 2259 
Q 2675 3391 2411 3762 
Q 2147 4134 1753 4134 
Q 1366 4134 1134 3806 
Q 844 3388 844 2259 
z
" transform="scale(0.015625)"/>
       </defs>
       <use xlink:href="#ArialMT-30"/>
      </g>
     </g>
    </g>
    <g id="xtick_2">
     <g id="line2d_2">
      <path d="M 103.832552 122.292 
L 103.832552 23.12925 
" clip-path="url(#pa76d72c60c)" style="fill: none; stroke: #ffffff; stroke-linecap: round"/>
     </g>
     <g id="text_2">
      <!-- 20 -->
      <g style="fill: #262626" transform="translate(98.938927 138.090875) scale(0.088 -0.088)">
       <defs>
        <path id="ArialMT-32" d="M 3222 541 
L 3222 0 
L 194 0 
Q 188 203 259 391 
Q 375 700 629 1000 
Q 884 1300 1366 1694 
Q 2113 2306 2375 2664 
Q 2638 3022 2638 3341 
Q 2638 3675 2398 3904 
Q 2159 4134 1775 4134 
Q 1369 4134 1125 3890 
Q 881 3647 878 3216 
L 300 3275 
Q 359 3922 746 4261 
Q 1134 4600 1788 4600 
Q 2447 4600 2831 4234 
Q 3216 3869 3216 3328 
Q 3216 3053 3103 2787 
Q 2991 2522 2730 2228 
Q 2469 1934 1863 1422 
Q 1356 997 1212 845 
Q 1069 694 975 541 
L 3222 541 
z
" transform="scale(0.015625)"/>
       </defs>
       <use xlink:href="#ArialMT-32"/>
       <use xlink:href="#ArialMT-30" x="55.615234"/>
      </g>
     </g>
    </g>
    <g id="xtick_3">
     <g id="line2d_3">
      <path d="M 149.03191 122.292 
L 149.03191 23.12925 
" clip-path="url(#pa76d72c60c)" style="fill: none; stroke: #ffffff; stroke-linecap: round"/>
     </g>
     <g id="text_3">
      <!-- 40 -->
      <g style="fill: #262626" transform="translate(144.138285 138.090875) scale(0.088 -0.088)">
       <defs>
        <path id="ArialMT-34" d="M 2069 0 
L 2069 1097 
L 81 1097 
L 81 1613 
L 2172 4581 
L 2631 4581 
L 2631 1613 
L 3250 1613 
L 3250 1097 
L 2631 1097 
L 2631 0 
L 2069 0 
z
M 2069 1613 
L 2069 3678 
L 634 1613 
L 2069 1613 
z
" transform="scale(0.015625)"/>
       </defs>
       <use xlink:href="#ArialMT-34"/>
       <use xlink:href="#ArialMT-30" x="55.615234"/>
      </g>
     </g>
    </g>
    <g id="text_4">
     <!-- Frame -->
     <g style="fill: #262626" transform="translate(102.395625 150.711375) scale(0.096 -0.096)">
      <defs>
       <path id="ArialMT-46" d="M 525 0 
L 525 4581 
L 3616 4581 
L 3616 4041 
L 1131 4041 
L 1131 2622 
L 3281 2622 
L 3281 2081 
L 1131 2081 
L 1131 0 
L 525 0 
z
" transform="scale(0.015625)"/>
       <path id="ArialMT-72" d="M 416 0 
L 416 3319 
L 922 3319 
L 922 2816 
Q 1116 3169 1280 3281 
Q 1444 3394 1641 3394 
Q 1925 3394 2219 3213 
L 2025 2691 
Q 1819 2813 1613 2813 
Q 1428 2813 1281 2702 
Q 1134 2591 1072 2394 
Q 978 2094 978 1738 
L 978 0 
L 416 0 
z
" transform="scale(0.015625)"/>
       <path id="ArialMT-61" d="M 2588 409 
Q 2275 144 1986 34 
Q 1697 -75 1366 -75 
Q 819 -75 525 192 
Q 231 459 231 875 
Q 231 1119 342 1320 
Q 453 1522 633 1644 
Q 813 1766 1038 1828 
Q 1203 1872 1538 1913 
Q 2219 1994 2541 2106 
Q 2544 2222 2544 2253 
Q 2544 2597 2384 2738 
Q 2169 2928 1744 2928 
Q 1347 2928 1158 2789 
Q 969 2650 878 2297 
L 328 2372 
Q 403 2725 575 2942 
Q 747 3159 1072 3276 
Q 1397 3394 1825 3394 
Q 2250 3394 2515 3294 
Q 2781 3194 2906 3042 
Q 3031 2891 3081 2659 
Q 3109 2516 3109 2141 
L 3109 1391 
Q 3109 606 3145 398 
Q 3181 191 3288 0 
L 2700 0 
Q 2613 175 2588 409 
z
M 2541 1666 
Q 2234 1541 1622 1453 
Q 1275 1403 1131 1340 
Q 988 1278 909 1158 
Q 831 1038 831 891 
Q 831 666 1001 516 
Q 1172 366 1500 366 
Q 1825 366 2078 508 
Q 2331 650 2450 897 
Q 2541 1088 2541 1459 
L 2541 1666 
z
" transform="scale(0.015625)"/>
       <path id="ArialMT-6d" d="M 422 0 
L 422 3319 
L 925 3319 
L 925 2853 
Q 1081 3097 1340 3245 
Q 1600 3394 1931 3394 
Q 2300 3394 2536 3241 
Q 2772 3088 2869 2813 
Q 3263 3394 3894 3394 
Q 4388 3394 4653 3120 
Q 4919 2847 4919 2278 
L 4919 0 
L 4359 0 
L 4359 2091 
Q 4359 2428 4304 2576 
Q 4250 2725 4106 2815 
Q 3963 2906 3769 2906 
Q 3419 2906 3187 2673 
Q 2956 2441 2956 1928 
L 2956 0 
L 2394 0 
L 2394 2156 
Q 2394 2531 2256 2718 
Q 2119 2906 1806 2906 
Q 1569 2906 1367 2781 
Q 1166 2656 1075 2415 
Q 984 2175 984 1722 
L 984 0 
L 422 0 
z
" transform="scale(0.015625)"/>
       <path id="ArialMT-65" d="M 2694 1069 
L 3275 997 
Q 3138 488 2766 206 
Q 2394 -75 1816 -75 
Q 1088 -75 661 373 
Q 234 822 234 1631 
Q 234 2469 665 2931 
Q 1097 3394 1784 3394 
Q 2450 3394 2872 2941 
Q 3294 2488 3294 1666 
Q 3294 1616 3291 1516 
L 816 1516 
Q 847 969 1125 678 
Q 1403 388 1819 388 
Q 2128 388 2347 550 
Q 2566 713 2694 1069 
z
M 847 1978 
L 2700 1978 
Q 2663 2397 2488 2606 
Q 2219 2931 1791 2931 
Q 1403 2931 1139 2672 
Q 875 2413 847 1978 
z
" transform="scale(0.015625)"/>
      </defs>
      <use xlink:href="#ArialMT-46"/>
      <use xlink:href="#ArialMT-72" x="61.083984"/>
      <use xlink:href="#ArialMT-61" x="94.384766"/>
      <use xlink:href="#ArialMT-6d" x="150"/>
      <use xlink:href="#ArialMT-65" x="233.300781"/>
     </g>
    </g>
   </g>
   <g id="matplotlib.axis_2">
    <g id="ytick_1">
     <g id="line2d_4">
      <path d="M 55.35624 116.799485 
L 177.168511 116.799485 
" clip-path="url(#pa76d72c60c)" style="fill: none; stroke: #ffffff; stroke-linecap: round"/>
     </g>
     <g id="text_5">
      <!-- 20 -->
      <g style="fill: #262626" transform="translate(36.06899 119.948922) scale(0.088 -0.088)">
       <use xlink:href="#ArialMT-32"/>
       <use xlink:href="#ArialMT-30" x="55.615234"/>
      </g>
     </g>
    </g>
    <g id="ytick_2">
     <g id="line2d_5">
      <path d="M 55.35624 94.099209 
L 177.168511 94.099209 
" clip-path="url(#pa76d72c60c)" style="fill: none; stroke: #ffffff; stroke-linecap: round"/>
     </g>
     <g id="text_6">
      <!-- 40 -->
      <g style="fill: #262626" transform="translate(36.06899 97.248646) scale(0.088 -0.088)">
       <use xlink:href="#ArialMT-34"/>
       <use xlink:href="#ArialMT-30" x="55.615234"/>
      </g>
     </g>
    </g>
    <g id="ytick_3">
     <g id="line2d_6">
      <path d="M 55.35624 71.398933 
L 177.168511 71.398933 
" clip-path="url(#pa76d72c60c)" style="fill: none; stroke: #ffffff; stroke-linecap: round"/>
     </g>
     <g id="text_7">
      <!-- 60 -->
      <g style="fill: #262626" transform="translate(36.06899 74.54837) scale(0.088 -0.088)">
       <defs>
        <path id="ArialMT-36" d="M 3184 3459 
L 2625 3416 
Q 2550 3747 2413 3897 
Q 2184 4138 1850 4138 
Q 1581 4138 1378 3988 
Q 1113 3794 959 3422 
Q 806 3050 800 2363 
Q 1003 2672 1297 2822 
Q 1591 2972 1913 2972 
Q 2475 2972 2870 2558 
Q 3266 2144 3266 1488 
Q 3266 1056 3080 686 
Q 2894 316 2569 119 
Q 2244 -78 1831 -78 
Q 1128 -78 684 439 
Q 241 956 241 2144 
Q 241 3472 731 4075 
Q 1159 4600 1884 4600 
Q 2425 4600 2770 4297 
Q 3116 3994 3184 3459 
z
M 888 1484 
Q 888 1194 1011 928 
Q 1134 663 1356 523 
Q 1578 384 1822 384 
Q 2178 384 2434 671 
Q 2691 959 2691 1453 
Q 2691 1928 2437 2201 
Q 2184 2475 1800 2475 
Q 1419 2475 1153 2201 
Q 888 1928 888 1484 
z
" transform="scale(0.015625)"/>
       </defs>
       <use xlink:href="#ArialMT-36"/>
       <use xlink:href="#ArialMT-30" x="55.615234"/>
      </g>
     </g>
    </g>
    <g id="ytick_4">
     <g id="line2d_7">
      <path d="M 55.35624 48.698656 
L 177.168511 48.698656 
" clip-path="url(#pa76d72c60c)" style="fill: none; stroke: #ffffff; stroke-linecap: round"/>
     </g>
     <g id="text_8">
      <!-- 80 -->
      <g style="fill: #262626" transform="translate(36.06899 51.848094) scale(0.088 -0.088)">
       <defs>
        <path id="ArialMT-38" d="M 1131 2484 
Q 781 2613 612 2850 
Q 444 3088 444 3419 
Q 444 3919 803 4259 
Q 1163 4600 1759 4600 
Q 2359 4600 2725 4251 
Q 3091 3903 3091 3403 
Q 3091 3084 2923 2848 
Q 2756 2613 2416 2484 
Q 2838 2347 3058 2040 
Q 3278 1734 3278 1309 
Q 3278 722 2862 322 
Q 2447 -78 1769 -78 
Q 1091 -78 675 323 
Q 259 725 259 1325 
Q 259 1772 486 2073 
Q 713 2375 1131 2484 
z
M 1019 3438 
Q 1019 3113 1228 2906 
Q 1438 2700 1772 2700 
Q 2097 2700 2305 2904 
Q 2513 3109 2513 3406 
Q 2513 3716 2298 3927 
Q 2084 4138 1766 4138 
Q 1444 4138 1231 3931 
Q 1019 3725 1019 3438 
z
M 838 1322 
Q 838 1081 952 856 
Q 1066 631 1291 507 
Q 1516 384 1775 384 
Q 2178 384 2440 643 
Q 2703 903 2703 1303 
Q 2703 1709 2433 1975 
Q 2163 2241 1756 2241 
Q 1359 2241 1098 1978 
Q 838 1716 838 1322 
z
" transform="scale(0.015625)"/>
       </defs>
       <use xlink:href="#ArialMT-38"/>
       <use xlink:href="#ArialMT-30" x="55.615234"/>
      </g>
     </g>
    </g>
    <g id="ytick_5">
     <g id="line2d_8">
      <path d="M 55.35624 25.99838 
L 177.168511 25.99838 
" clip-path="url(#pa76d72c60c)" style="fill: none; stroke: #ffffff; stroke-linecap: round"/>
     </g>
     <g id="text_9">
      <!-- 100 -->
      <g style="fill: #262626" transform="translate(31.175365 29.147818) scale(0.088 -0.088)">
       <defs>
        <path id="ArialMT-31" d="M 2384 0 
L 1822 0 
L 1822 3584 
Q 1619 3391 1289 3197 
Q 959 3003 697 2906 
L 697 3450 
Q 1169 3672 1522 3987 
Q 1875 4303 2022 4600 
L 2384 4600 
L 2384 0 
z
" transform="scale(0.015625)"/>
       </defs>
       <use xlink:href="#ArialMT-31"/>
       <use xlink:href="#ArialMT-30" x="55.615234"/>
       <use xlink:href="#ArialMT-30" x="111.230469"/>
      </g>
     </g>
    </g>
    <g id="text_10">
     <!-- RTT (ms) -->
     <g style="fill: #262626" transform="translate(25.154865 92.800875) rotate(-90) scale(0.096 -0.096)">
      <defs>
       <path id="ArialMT-52" d="M 503 0 
L 503 4581 
L 2534 4581 
Q 3147 4581 3465 4457 
Q 3784 4334 3975 4021 
Q 4166 3709 4166 3331 
Q 4166 2844 3850 2509 
Q 3534 2175 2875 2084 
Q 3116 1969 3241 1856 
Q 3506 1613 3744 1247 
L 4541 0 
L 3778 0 
L 3172 953 
Q 2906 1366 2734 1584 
Q 2563 1803 2427 1890 
Q 2291 1978 2150 2013 
Q 2047 2034 1813 2034 
L 1109 2034 
L 1109 0 
L 503 0 
z
M 1109 2559 
L 2413 2559 
Q 2828 2559 3062 2645 
Q 3297 2731 3419 2920 
Q 3541 3109 3541 3331 
Q 3541 3656 3305 3865 
Q 3069 4075 2559 4075 
L 1109 4075 
L 1109 2559 
z
" transform="scale(0.015625)"/>
       <path id="ArialMT-54" d="M 1659 0 
L 1659 4041 
L 150 4041 
L 150 4581 
L 3781 4581 
L 3781 4041 
L 2266 4041 
L 2266 0 
L 1659 0 
z
" transform="scale(0.015625)"/>
       <path id="ArialMT-20" transform="scale(0.015625)"/>
       <path id="ArialMT-28" d="M 1497 -1347 
Q 1031 -759 709 28 
Q 388 816 388 1659 
Q 388 2403 628 3084 
Q 909 3875 1497 4659 
L 1900 4659 
Q 1522 4009 1400 3731 
Q 1209 3300 1100 2831 
Q 966 2247 966 1656 
Q 966 153 1900 -1347 
L 1497 -1347 
z
" transform="scale(0.015625)"/>
       <path id="ArialMT-73" d="M 197 991 
L 753 1078 
Q 800 744 1014 566 
Q 1228 388 1613 388 
Q 2000 388 2187 545 
Q 2375 703 2375 916 
Q 2375 1106 2209 1216 
Q 2094 1291 1634 1406 
Q 1016 1563 777 1677 
Q 538 1791 414 1992 
Q 291 2194 291 2438 
Q 291 2659 392 2848 
Q 494 3038 669 3163 
Q 800 3259 1026 3326 
Q 1253 3394 1513 3394 
Q 1903 3394 2198 3281 
Q 2494 3169 2634 2976 
Q 2775 2784 2828 2463 
L 2278 2388 
Q 2241 2644 2061 2787 
Q 1881 2931 1553 2931 
Q 1166 2931 1000 2803 
Q 834 2675 834 2503 
Q 834 2394 903 2306 
Q 972 2216 1119 2156 
Q 1203 2125 1616 2013 
Q 2213 1853 2448 1751 
Q 2684 1650 2818 1456 
Q 2953 1263 2953 975 
Q 2953 694 2789 445 
Q 2625 197 2315 61 
Q 2006 -75 1616 -75 
Q 969 -75 630 194 
Q 291 463 197 991 
z
" transform="scale(0.015625)"/>
       <path id="ArialMT-29" d="M 791 -1347 
L 388 -1347 
Q 1322 153 1322 1656 
Q 1322 2244 1188 2822 
Q 1081 3291 891 3722 
Q 769 4003 388 4659 
L 791 4659 
Q 1378 3875 1659 3084 
Q 1900 2403 1900 1659 
Q 1900 816 1576 28 
Q 1253 -759 791 -1347 
z
" transform="scale(0.015625)"/>
      </defs>
      <use xlink:href="#ArialMT-52"/>
      <use xlink:href="#ArialMT-54" x="70.466797"/>
      <use xlink:href="#ArialMT-54" x="131.550781"/>
      <use xlink:href="#ArialMT-20" x="190.884766"/>
      <use xlink:href="#ArialMT-28" x="218.667969"/>
      <use xlink:href="#ArialMT-6d" x="251.96875"/>
      <use xlink:href="#ArialMT-73" x="335.269531"/>
      <use xlink:href="#ArialMT-29" x="385.269531"/>
     </g>
    </g>
   </g>
   <g id="PolyCollection_1">
    <defs>
     <path id="m23c66cd533" d="M 60.893161 -89.958806 
L 60.893161 -78.60753 
L 63.153129 -96.410584 
L 65.413097 -96.308748 
L 67.673065 -100.430788 
L 69.933033 -100.458555 
L 72.193001 -100.491362 
L 74.452969 -100.515572 
L 76.712937 -100.572534 
L 78.972905 -100.683994 
L 81.232873 -100.736362 
L 83.492841 -99.311873 
L 85.752809 -59.566754 
L 88.012776 -59.733321 
L 90.272744 -66.222407 
L 92.532712 -66.887913 
L 94.79268 -67.003412 
L 97.052648 -66.912633 
L 99.312616 -67.36846 
L 101.572584 -67.356956 
L 103.832552 -67.374837 
L 106.09252 -96.408653 
L 108.352488 -96.356762 
L 110.612456 -96.386242 
L 112.872424 -96.376429 
L 115.132391 -78.538896 
L 117.392359 -78.548892 
L 119.652327 -78.579266 
L 121.912295 -78.582406 
L 124.172263 -96.43537 
L 126.432231 -100.428637 
L 128.692199 -100.455966 
L 130.952167 -100.488337 
L 133.212135 -100.525799 
L 135.472103 -100.568233 
L 137.732071 -100.679754 
L 139.992039 -100.73159 
L 142.252007 -99.312166 
L 144.511974 -59.566319 
L 146.771942 -59.732453 
L 149.03191 -66.698309 
L 151.291878 -66.990949 
L 153.551846 -66.897546 
L 155.811814 -66.91084 
L 158.071782 -67.367267 
L 160.33175 -67.366799 
L 162.591718 -67.388321 
L 164.851686 -96.371515 
L 167.111654 -96.400934 
L 169.371622 -96.290063 
L 171.631589 -96.361443 
L 171.631589 -98.505507 
L 171.631589 -98.505507 
L 169.371622 -98.486718 
L 167.111654 -98.515094 
L 164.851686 -98.474172 
L 162.591718 -74.559576 
L 160.33175 -74.566052 
L 158.071782 -74.563313 
L 155.811814 -74.31161 
L 153.551846 -74.310186 
L 151.291878 -74.760072 
L 149.03191 -74.145874 
L 146.771942 -59.885632 
L 144.511974 -59.792358 
L 142.252007 -99.53729 
L 139.992039 -100.955911 
L 137.732071 -100.903383 
L 135.472103 -100.735687 
L 133.212135 -100.690177 
L 130.952167 -100.64985 
L 128.692199 -100.61447 
L 126.432231 -100.58398 
L 124.172263 -98.535583 
L 121.912295 -89.958282 
L 119.652327 -89.924743 
L 117.392359 -89.162542 
L 115.132391 -90.680022 
L 112.872424 -98.476044 
L 110.612456 -98.479155 
L 108.352488 -98.499963 
L 106.09252 -98.46088 
L 103.832552 -75.067435 
L 101.572584 -74.570964 
L 99.312616 -75.075749 
L 97.052648 -74.31235 
L 94.79268 -74.790512 
L 92.532712 -74.278148 
L 90.272744 -74.1787 
L 88.012776 -59.886495 
L 85.752809 -59.79288 
L 83.492841 -99.537072 
L 81.232873 -100.960751 
L 78.972905 -100.907681 
L 76.712937 -100.753819 
L 74.452969 -100.693907 
L 72.193001 -100.65313 
L 69.933033 -100.630558 
L 67.673065 -100.586409 
L 65.413097 -98.554374 
L 63.153129 -98.536155 
L 60.893161 -89.958806 
z
" style="stroke: #023eff; stroke-opacity: 0.2"/>
    </defs>
    <g clip-path="url(#pa76d72c60c)">
     <use xlink:href="#m23c66cd533" x="0" y="162" style="fill: #023eff; fill-opacity: 0.2; stroke: #023eff; stroke-opacity: 0.2"/>
    </g>
   </g>
   <g id="PolyCollection_2">
    <defs>
     <path id="mcef7315a92" d="M 60.893161 -87.682407 
L 60.893161 -71.161192 
L 63.153129 -107.009279 
L 65.413097 -107.012552 
L 67.673065 -116.294731 
L 69.933033 -116.363687 
L 72.193001 -116.438141 
L 74.452969 -116.518128 
L 76.712937 -116.603857 
L 78.972905 -116.874552 
L 81.232873 -116.966074 
L 83.492841 -114.836737 
L 85.752809 -78.972287 
L 88.012776 -79.070424 
L 90.272744 -76.413818 
L 92.532712 -75.610647 
L 94.79268 -76.778837 
L 97.052648 -76.798111 
L 99.312616 -76.821288 
L 101.572584 -76.848402 
L 103.832552 -75.731594 
L 106.09252 -106.734912 
L 108.352488 -106.751625 
L 110.612456 -106.773196 
L 112.872424 -106.799694 
L 115.132391 -71.076239 
L 117.392359 -71.099541 
L 119.652327 -71.127516 
L 121.912295 -71.160262 
L 124.172263 -107.007824 
L 126.432231 -116.289033 
L 128.692199 -116.357512 
L 130.952167 -116.431482 
L 133.212135 -116.510984 
L 135.472103 -116.596211 
L 137.732071 -116.866949 
L 139.992039 -116.957882 
L 142.252007 -114.83529 
L 144.511974 -78.971379 
L 146.771942 -79.069157 
L 149.03191 -76.41373 
L 151.291878 -76.733513 
L 153.551846 -76.777342 
L 155.811814 -76.796282 
L 158.071782 -76.819145 
L 160.33175 -76.845886 
L 162.591718 -76.876569 
L 164.851686 -106.733674 
L 167.111654 -106.749971 
L 169.371622 -106.771117 
L 171.631589 -106.797191 
L 171.631589 -106.797191 
L 171.631589 -106.797191 
L 169.371622 -106.771117 
L 167.111654 -106.749971 
L 164.851686 -106.733674 
L 162.591718 -90.6515 
L 160.33175 -90.631953 
L 158.071782 -90.616786 
L 155.811814 -90.605942 
L 153.551846 -90.59948 
L 151.291878 -90.597427 
L 149.03191 -90.41807 
L 146.771942 -95.359 
L 144.511974 -95.184499 
L 142.252007 -114.83529 
L 139.992039 -116.957882 
L 137.732071 -116.866949 
L 135.472103 -116.596211 
L 133.212135 -116.510984 
L 130.952167 -116.431482 
L 128.692199 -116.357512 
L 126.432231 -116.289033 
L 124.172263 -107.007824 
L 121.912295 -87.681299 
L 119.652327 -87.642104 
L 117.392359 -88.983567 
L 115.132391 -87.578511 
L 112.872424 -106.799694 
L 110.612456 -106.773196 
L 108.352488 -106.751625 
L 106.09252 -106.734912 
L 103.832552 -90.653422 
L 101.572584 -91.782261 
L 99.312616 -90.617912 
L 97.052648 -90.606715 
L 94.79268 -90.599882 
L 92.532712 -90.597434 
L 90.272744 -90.417302 
L 88.012776 -95.360617 
L 85.752809 -95.185652 
L 83.492841 -114.836737 
L 81.232873 -116.966074 
L 78.972905 -116.874552 
L 76.712937 -116.603857 
L 74.452969 -116.518128 
L 72.193001 -116.438141 
L 69.933033 -116.363687 
L 67.673065 -116.294731 
L 65.413097 -107.012552 
L 63.153129 -107.009279 
L 60.893161 -87.682407 
z
" style="stroke: #ff7c00; stroke-opacity: 0.2"/>
    </defs>
    <g clip-path="url(#pa76d72c60c)">
     <use xlink:href="#mcef7315a92" x="0" y="162" style="fill: #ff7c00; fill-opacity: 0.2; stroke: #ff7c00; stroke-opacity: 0.2"/>
    </g>
   </g>
   <g id="PolyCollection_3"/>
   <g id="PolyCollection_4"/>
   <g id="line2d_9">
    <path d="M 60.893161 77.729113 
L 63.153129 64.505504 
L 65.413097 64.504205 
L 67.673065 61.491401 
L 69.933033 61.462059 
L 72.193001 61.427754 
L 74.452969 61.388401 
L 76.712937 61.343796 
L 78.972905 61.204162 
L 81.232873 61.151444 
L 83.492841 62.575528 
L 85.752809 102.320183 
L 88.012776 102.190092 
L 90.272744 91.565805 
L 92.532712 91.391318 
L 94.79268 91.386796 
L 97.052648 91.378809 
L 99.312616 91.033246 
L 101.572584 91.036008 
L 103.832552 91.034515 
L 106.09252 64.576978 
L 108.352488 64.54994 
L 110.612456 64.556626 
L 112.872424 64.559028 
L 115.132391 77.771172 
L 117.392359 77.761813 
L 119.652327 77.747995 
L 121.912295 77.729656 
L 124.172263 64.506078 
L 126.432231 61.493692 
L 128.692199 61.464782 
L 130.952167 61.430906 
L 133.212135 61.392012 
L 135.472103 61.347866 
L 137.732071 61.208431 
L 139.992039 61.15625 
L 142.252007 62.575272 
L 144.511974 102.320661 
L 146.771942 102.190958 
L 149.03191 91.565363 
L 151.291878 91.391539 
L 153.551846 91.387337 
L 155.811814 91.379641 
L 158.071782 91.032794 
L 160.33175 91.035955 
L 162.591718 91.034832 
L 164.851686 64.577157 
L 167.111654 64.549156 
L 169.371622 64.556206 
L 171.631589 64.558995 
" clip-path="url(#pa76d72c60c)" style="fill: none; stroke: #023eff; stroke-width: 1.5; stroke-linecap: round"/>
   </g>
   <g id="line2d_10">
    <path d="M 60.893161 82.578201 
L 63.153129 54.990721 
L 65.413097 54.987448 
L 67.673065 45.705269 
L 69.933033 45.636313 
L 72.193001 45.561859 
L 74.452969 45.481872 
L 76.712937 45.396143 
L 78.972905 45.125448 
L 81.232873 45.033926 
L 83.492841 47.163263 
L 85.752809 74.92103 
L 88.012776 74.784479 
L 90.272744 78.58444 
L 92.532712 78.319545 
L 94.79268 78.310641 
L 97.052648 78.297587 
L 99.312616 78.2804 
L 101.572584 78.259048 
L 103.832552 78.233576 
L 106.09252 55.265088 
L 108.352488 55.248375 
L 110.612456 55.226804 
L 112.872424 55.200306 
L 115.132391 82.672625 
L 117.392359 82.646294 
L 119.652327 82.61519 
L 121.912295 82.579219 
L 124.172263 54.992176 
L 126.432231 45.710967 
L 128.692199 45.642488 
L 130.952167 45.568518 
L 133.212135 45.489016 
L 135.472103 45.403789 
L 137.732071 45.133051 
L 139.992039 45.042118 
L 142.252007 47.16471 
L 144.511974 74.922061 
L 146.771942 74.785921 
L 149.03191 78.5841 
L 151.291878 78.320119 
L 153.551846 78.311589 
L 155.811814 78.298888 
L 158.071782 78.282034 
L 160.33175 78.26108 
L 162.591718 78.235966 
L 164.851686 55.266326 
L 167.111654 55.250029 
L 169.371622 55.228883 
L 171.631589 55.202809 
" clip-path="url(#pa76d72c60c)" style="fill: none; stroke: #ff7c00; stroke-width: 1.5; stroke-linecap: round"/>
   </g>
   <g id="line2d_11"/>
   <g id="line2d_12"/>
   <g id="patch_3">
    <path d="M 55.35624 122.292 
L 55.35624 23.12925 
" style="fill: none; stroke: #ffffff; stroke-width: 1.25; stroke-linejoin: miter; stroke-linecap: square"/>
   </g>
   <g id="patch_4">
    <path d="M 55.35624 122.292 
L 177.168511 122.292 
" style="fill: none; stroke: #ffffff; stroke-width: 1.25; stroke-linejoin: miter; stroke-linecap: square"/>
   </g>
   <g id="text_11">
    <!-- Attribute = Polar -->
    <g style="fill: #262626" transform="translate(81.712125 17.12925) scale(0.096 -0.096)">
     <defs>
      <path id="ArialMT-41" d="M -9 0 
L 1750 4581 
L 2403 4581 
L 4278 0 
L 3588 0 
L 3053 1388 
L 1138 1388 
L 634 0 
L -9 0 
z
M 1313 1881 
L 2866 1881 
L 2388 3150 
Q 2169 3728 2063 4100 
Q 1975 3659 1816 3225 
L 1313 1881 
z
" transform="scale(0.015625)"/>
      <path id="ArialMT-74" d="M 1650 503 
L 1731 6 
Q 1494 -44 1306 -44 
Q 1000 -44 831 53 
Q 663 150 594 308 
Q 525 466 525 972 
L 525 2881 
L 113 2881 
L 113 3319 
L 525 3319 
L 525 4141 
L 1084 4478 
L 1084 3319 
L 1650 3319 
L 1650 2881 
L 1084 2881 
L 1084 941 
Q 1084 700 1114 631 
Q 1144 563 1211 522 
Q 1278 481 1403 481 
Q 1497 481 1650 503 
z
" transform="scale(0.015625)"/>
      <path id="ArialMT-69" d="M 425 3934 
L 425 4581 
L 988 4581 
L 988 3934 
L 425 3934 
z
M 425 0 
L 425 3319 
L 988 3319 
L 988 0 
L 425 0 
z
" transform="scale(0.015625)"/>
      <path id="ArialMT-62" d="M 941 0 
L 419 0 
L 419 4581 
L 981 4581 
L 981 2947 
Q 1338 3394 1891 3394 
Q 2197 3394 2470 3270 
Q 2744 3147 2920 2923 
Q 3097 2700 3197 2384 
Q 3297 2069 3297 1709 
Q 3297 856 2875 390 
Q 2453 -75 1863 -75 
Q 1275 -75 941 416 
L 941 0 
z
M 934 1684 
Q 934 1088 1097 822 
Q 1363 388 1816 388 
Q 2184 388 2453 708 
Q 2722 1028 2722 1663 
Q 2722 2313 2464 2622 
Q 2206 2931 1841 2931 
Q 1472 2931 1203 2611 
Q 934 2291 934 1684 
z
" transform="scale(0.015625)"/>
      <path id="ArialMT-75" d="M 2597 0 
L 2597 488 
Q 2209 -75 1544 -75 
Q 1250 -75 995 37 
Q 741 150 617 320 
Q 494 491 444 738 
Q 409 903 409 1263 
L 409 3319 
L 972 3319 
L 972 1478 
Q 972 1038 1006 884 
Q 1059 663 1231 536 
Q 1403 409 1656 409 
Q 1909 409 2131 539 
Q 2353 669 2445 892 
Q 2538 1116 2538 1541 
L 2538 3319 
L 3100 3319 
L 3100 0 
L 2597 0 
z
" transform="scale(0.015625)"/>
      <path id="ArialMT-3d" d="M 3381 2694 
L 356 2694 
L 356 3219 
L 3381 3219 
L 3381 2694 
z
M 3381 1303 
L 356 1303 
L 356 1828 
L 3381 1828 
L 3381 1303 
z
" transform="scale(0.015625)"/>
      <path id="ArialMT-50" d="M 494 0 
L 494 4581 
L 2222 4581 
Q 2678 4581 2919 4538 
Q 3256 4481 3484 4323 
Q 3713 4166 3852 3881 
Q 3991 3597 3991 3256 
Q 3991 2672 3619 2267 
Q 3247 1863 2275 1863 
L 1100 1863 
L 1100 0 
L 494 0 
z
M 1100 2403 
L 2284 2403 
Q 2872 2403 3119 2622 
Q 3366 2841 3366 3238 
Q 3366 3525 3220 3729 
Q 3075 3934 2838 4000 
Q 2684 4041 2272 4041 
L 1100 4041 
L 1100 2403 
z
" transform="scale(0.015625)"/>
      <path id="ArialMT-6f" d="M 213 1659 
Q 213 2581 725 3025 
Q 1153 3394 1769 3394 
Q 2453 3394 2887 2945 
Q 3322 2497 3322 1706 
Q 3322 1066 3130 698 
Q 2938 331 2570 128 
Q 2203 -75 1769 -75 
Q 1072 -75 642 372 
Q 213 819 213 1659 
z
M 791 1659 
Q 791 1022 1069 705 
Q 1347 388 1769 388 
Q 2188 388 2466 706 
Q 2744 1025 2744 1678 
Q 2744 2294 2464 2611 
Q 2184 2928 1769 2928 
Q 1347 2928 1069 2612 
Q 791 2297 791 1659 
z
" transform="scale(0.015625)"/>
      <path id="ArialMT-6c" d="M 409 0 
L 409 4581 
L 972 4581 
L 972 0 
L 409 0 
z
" transform="scale(0.015625)"/>
     </defs>
     <use xlink:href="#ArialMT-41"/>
     <use xlink:href="#ArialMT-74" x="66.699219"/>
     <use xlink:href="#ArialMT-74" x="94.482422"/>
     <use xlink:href="#ArialMT-72" x="122.265625"/>
     <use xlink:href="#ArialMT-69" x="155.566406"/>
     <use xlink:href="#ArialMT-62" x="177.783203"/>
     <use xlink:href="#ArialMT-75" x="233.398438"/>
     <use xlink:href="#ArialMT-74" x="289.013672"/>
     <use xlink:href="#ArialMT-65" x="316.796875"/>
     <use xlink:href="#ArialMT-20" x="372.412109"/>
     <use xlink:href="#ArialMT-3d" x="400.195312"/>
     <use xlink:href="#ArialMT-20" x="458.59375"/>
     <use xlink:href="#ArialMT-50" x="486.376953"/>
     <use xlink:href="#ArialMT-6f" x="553.076172"/>
     <use xlink:href="#ArialMT-6c" x="608.691406"/>
     <use xlink:href="#ArialMT-61" x="630.908203"/>
     <use xlink:href="#ArialMT-72" x="686.523438"/>
    </g>
   </g>
  </g>
  <g id="axes_2">
   <g id="patch_5">
    <path d="M 187.038929 122.292 
L 308.8512 122.292 
L 308.8512 23.12925 
L 187.038929 23.12925 
z
" style="fill: #eaeaf2"/>
   </g>
   <g id="matplotlib.axis_3">
    <g id="xtick_4">
     <g id="line2d_13">
      <path d="M 190.315883 122.292 
L 190.315883 23.12925 
" clip-path="url(#p98d33aec18)" style="fill: none; stroke: #ffffff; stroke-linecap: round"/>
     </g>
     <g id="text_12">
      <!-- 0 -->
      <g style="fill: #262626" transform="translate(187.86907 138.090875) scale(0.088 -0.088)">
       <use xlink:href="#ArialMT-30"/>
      </g>
     </g>
    </g>
    <g id="xtick_5">
     <g id="line2d_14">
      <path d="M 235.515241 122.292 
L 235.515241 23.12925 
" clip-path="url(#p98d33aec18)" style="fill: none; stroke: #ffffff; stroke-linecap: round"/>
     </g>
     <g id="text_13">
      <!-- 20 -->
      <g style="fill: #262626" transform="translate(230.621616 138.090875) scale(0.088 -0.088)">
       <use xlink:href="#ArialMT-32"/>
       <use xlink:href="#ArialMT-30" x="55.615234"/>
      </g>
     </g>
    </g>
    <g id="xtick_6">
     <g id="line2d_15">
      <path d="M 280.714599 122.292 
L 280.714599 23.12925 
" clip-path="url(#p98d33aec18)" style="fill: none; stroke: #ffffff; stroke-linecap: round"/>
     </g>
     <g id="text_14">
      <!-- 40 -->
      <g style="fill: #262626" transform="translate(275.820974 138.090875) scale(0.088 -0.088)">
       <use xlink:href="#ArialMT-34"/>
       <use xlink:href="#ArialMT-30" x="55.615234"/>
      </g>
     </g>
    </g>
    <g id="text_15">
     <!-- Frame -->
     <g style="fill: #262626" transform="translate(234.078315 150.711375) scale(0.096 -0.096)">
      <use xlink:href="#ArialMT-46"/>
      <use xlink:href="#ArialMT-72" x="61.083984"/>
      <use xlink:href="#ArialMT-61" x="94.384766"/>
      <use xlink:href="#ArialMT-6d" x="150"/>
      <use xlink:href="#ArialMT-65" x="233.300781"/>
     </g>
    </g>
   </g>
   <g id="matplotlib.axis_4">
    <g id="ytick_6">
     <g id="line2d_16">
      <path d="M 187.038929 116.799485 
L 308.8512 116.799485 
" clip-path="url(#p98d33aec18)" style="fill: none; stroke: #ffffff; stroke-linecap: round"/>
     </g>
    </g>
    <g id="ytick_7">
     <g id="line2d_17">
      <path d="M 187.038929 94.099209 
L 308.8512 94.099209 
" clip-path="url(#p98d33aec18)" style="fill: none; stroke: #ffffff; stroke-linecap: round"/>
     </g>
    </g>
    <g id="ytick_8">
     <g id="line2d_18">
      <path d="M 187.038929 71.398933 
L 308.8512 71.398933 
" clip-path="url(#p98d33aec18)" style="fill: none; stroke: #ffffff; stroke-linecap: round"/>
     </g>
    </g>
    <g id="ytick_9">
     <g id="line2d_19">
      <path d="M 187.038929 48.698656 
L 308.8512 48.698656 
" clip-path="url(#p98d33aec18)" style="fill: none; stroke: #ffffff; stroke-linecap: round"/>
     </g>
    </g>
    <g id="ytick_10">
     <g id="line2d_20">
      <path d="M 187.038929 25.99838 
L 308.8512 25.99838 
" clip-path="url(#p98d33aec18)" style="fill: none; stroke: #ffffff; stroke-linecap: round"/>
     </g>
    </g>
   </g>
   <g id="PolyCollection_5">
    <defs>
     <path id="ma87fa4dc13" d="M 208.395626 -83.593315 
L 208.395626 -83.593315 
L 210.655594 -83.467982 
L 212.915562 -109.042349 
L 215.17553 -110.403539 
L 217.435498 -110.666986 
L 219.695466 -110.624593 
L 221.955433 -110.59376 
L 224.215401 -112.382471 
L 226.475369 -112.489309 
L 228.735337 -112.521836 
L 230.995305 -110.51188 
L 233.255273 -110.497825 
L 267.154792 -83.604529 
L 269.41476 -83.478551 
L 271.674728 -109.038084 
L 273.934696 -110.410558 
L 276.194664 -110.671334 
L 278.454631 -110.619041 
L 280.714599 -110.60978 
L 282.974567 -112.352052 
L 285.234535 -112.515447 
L 287.494503 -112.474374 
L 289.754471 -110.513414 
L 292.014439 -110.498762 
L 292.014439 -115.696317 
L 292.014439 -115.696317 
L 289.754471 -115.683936 
L 287.494503 -113.651767 
L 285.234535 -113.630184 
L 282.974567 -113.491585 
L 280.714599 -110.926514 
L 278.454631 -110.903268 
L 276.194664 -110.942596 
L 273.934696 -110.607339 
L 271.674728 -110.55883 
L 269.41476 -83.478551 
L 267.154792 -83.604529 
L 233.255273 -115.629876 
L 230.995305 -115.617855 
L 228.735337 -113.657678 
L 226.475369 -113.643039 
L 224.215401 -113.483334 
L 221.955433 -110.914382 
L 219.695466 -110.912215 
L 217.435498 -110.937554 
L 215.17553 -110.596279 
L 212.915562 -110.55738 
L 210.655594 -83.467982 
L 208.395626 -83.593315 
z
" style="stroke: #023eff; stroke-opacity: 0.2"/>
    </defs>
    <g clip-path="url(#p98d33aec18)">
     <use xlink:href="#ma87fa4dc13" x="0" y="162" style="fill: #023eff; fill-opacity: 0.2; stroke: #023eff; stroke-opacity: 0.2"/>
    </g>
   </g>
   <g id="PolyCollection_6">
    <defs>
     <path id="mdc0dde28ae" d="M 212.915562 -129.407948 
L 212.915562 -123.612026 
L 215.17553 -123.296458 
L 217.435498 -120.03462 
L 219.695466 -119.41276 
L 221.955433 -119.236389 
L 224.215401 -119.034138 
L 226.475369 -119.671049 
L 228.735337 -119.73251 
L 230.995305 -110.249132 
L 233.255273 -110.309246 
L 271.674728 -123.244046 
L 273.934696 -123.134079 
L 276.194664 -119.988297 
L 278.454631 -119.632532 
L 280.714599 -119.106021 
L 282.974567 -119.287389 
L 285.234535 -119.655823 
L 287.494503 -119.759032 
L 289.754471 -110.244266 
L 292.014439 -110.303752 
L 292.014439 -134.362859 
L 292.014439 -134.362859 
L 289.754471 -134.35991 
L 287.494503 -124.940189 
L 285.234535 -124.894874 
L 282.974567 -124.405564 
L 280.714599 -124.435021 
L 278.454631 -124.881631 
L 276.194664 -125.309688 
L 273.934696 -129.198904 
L 271.674728 -129.207555 
L 233.255273 -134.363352 
L 230.995305 -134.359979 
L 228.735337 -125.0055 
L 226.475369 -124.984113 
L 224.215401 -124.336638 
L 221.955433 -124.336671 
L 219.695466 -124.479934 
L 217.435498 -125.488997 
L 215.17553 -129.27833 
L 212.915562 -129.407948 
z
" style="stroke: #ff7c00; stroke-opacity: 0.2"/>
    </defs>
    <g clip-path="url(#p98d33aec18)">
     <use xlink:href="#mdc0dde28ae" x="0" y="162" style="fill: #ff7c00; fill-opacity: 0.2; stroke: #ff7c00; stroke-opacity: 0.2"/>
    </g>
   </g>
   <g id="PolyCollection_7">
    <defs>
     <path id="m552d5abd01" d="M 192.575851 -46.264743 
L 192.575851 -44.698993 
L 194.835818 -45.188576 
L 197.095786 -45.106419 
L 199.355754 -45.155381 
L 201.615722 -45.147947 
L 203.87569 -45.19207 
L 206.135658 -45.190575 
L 208.395626 -45.175762 
L 210.655594 -45.363569 
L 212.915562 -45.647994 
L 215.17553 -45.669696 
L 217.435498 -45.702841 
L 219.695466 -45.801388 
L 221.955433 -45.876935 
L 224.215401 -45.871997 
L 226.475369 -45.985111 
L 228.735337 -46.524706 
L 230.995305 -44.543974 
L 233.255273 -44.62152 
L 235.515241 -69.908796 
L 237.775209 -70.195068 
L 240.035177 -69.594563 
L 242.295145 -69.664219 
L 244.555113 -69.660454 
L 246.815081 -44.734139 
L 249.075049 -44.215398 
L 251.335016 -44.686729 
L 253.594984 -44.70083 
L 255.854952 -45.192689 
L 258.11492 -45.142679 
L 260.374888 -45.180887 
L 262.634856 -45.183836 
L 264.894824 -45.228827 
L 267.154792 -45.24668 
L 269.41476 -45.375521 
L 271.674728 -45.646957 
L 273.934696 -45.715607 
L 276.194664 -45.733317 
L 278.454631 -45.719653 
L 280.714599 -45.82021 
L 282.974567 -45.935254 
L 285.234535 -45.954752 
L 287.494503 -46.499179 
L 289.754471 -44.616606 
L 292.014439 -44.686548 
L 294.274407 -69.852344 
L 296.534375 -70.066923 
L 298.794343 -69.614728 
L 301.054311 -69.707692 
L 303.314279 -69.618012 
L 303.314279 -73.439665 
L 303.314279 -73.439665 
L 301.054311 -73.5307 
L 298.794343 -73.425254 
L 296.534375 -74.277457 
L 294.274407 -73.693624 
L 292.014439 -46.369074 
L 289.754471 -46.396526 
L 287.494503 -47.823269 
L 285.234535 -47.507798 
L 282.974567 -47.443147 
L 280.714599 -47.363633 
L 278.454631 -47.306996 
L 276.194664 -47.216734 
L 273.934696 -47.188096 
L 271.674728 -47.199959 
L 269.41476 -46.742422 
L 267.154792 -46.663435 
L 264.894824 -46.685276 
L 262.634856 -46.668333 
L 260.374888 -46.607888 
L 258.11492 -46.66365 
L 255.854952 -46.597886 
L 253.594984 -46.250831 
L 251.335016 -46.209153 
L 249.075049 -45.658577 
L 246.815081 -46.193863 
L 244.555113 -73.480603 
L 242.295145 -73.441986 
L 240.035177 -73.320056 
L 237.775209 -74.370614 
L 235.515241 -73.808149 
L 233.255273 -46.493399 
L 230.995305 -46.310304 
L 228.735337 -47.781633 
L 226.475369 -47.499753 
L 224.215401 -47.535321 
L 221.955433 -47.370781 
L 219.695466 -47.282142 
L 217.435498 -47.23227 
L 215.17553 -47.262766 
L 212.915562 -47.15259 
L 210.655594 -46.73513 
L 208.395626 -46.720979 
L 206.135658 -46.630963 
L 203.87569 -46.630199 
L 201.615722 -46.617958 
L 199.355754 -46.627042 
L 197.095786 -46.602842 
L 194.835818 -46.608289 
L 192.575851 -46.264743 
z
" style="stroke: #1ac938; stroke-opacity: 0.2"/>
    </defs>
    <g clip-path="url(#p98d33aec18)">
     <use xlink:href="#m552d5abd01" x="0" y="162" style="fill: #1ac938; fill-opacity: 0.2; stroke: #1ac938; stroke-opacity: 0.2"/>
    </g>
   </g>
   <g id="PolyCollection_8">
    <defs>
     <path id="m4acc4c27d5" d="M 192.575851 -72.556828 
L 192.575851 -64.459741 
L 194.835818 -64.785643 
L 197.095786 -64.971463 
L 199.355754 -64.877517 
L 201.615722 -64.688091 
L 203.87569 -64.735924 
L 206.135658 -64.551481 
L 208.395626 -63.46791 
L 210.655594 -63.402169 
L 212.915562 -64.115537 
L 215.17553 -64.057441 
L 217.435498 -63.953532 
L 219.695466 -66.032399 
L 221.955433 -65.870734 
L 224.215401 -65.83374 
L 226.475369 -64.810448 
L 228.735337 -65.401773 
L 230.995305 -60.733763 
L 233.255273 -60.951849 
L 235.515241 -71.327435 
L 237.775209 -71.270932 
L 240.035177 -71.185133 
L 242.295145 -73.048955 
L 244.555113 -73.145539 
L 246.815081 -64.046593 
L 249.075049 -64.00846 
L 251.335016 -64.908825 
L 253.594984 -64.840178 
L 255.854952 -64.581099 
L 258.11492 -64.876239 
L 260.374888 -65.161849 
L 262.634856 -64.689336 
L 264.894824 -64.594256 
L 267.154792 -64.188256 
L 269.41476 -63.235839 
L 271.674728 -63.82452 
L 273.934696 -63.988242 
L 276.194664 -63.886552 
L 278.454631 -66.072402 
L 280.714599 -65.97849 
L 282.974567 -65.7815 
L 285.234535 -65.961615 
L 287.494503 -65.283907 
L 289.754471 -61.036158 
L 292.014439 -60.67642 
L 294.274407 -71.327973 
L 296.534375 -71.561762 
L 298.794343 -71.218699 
L 301.054311 -72.992412 
L 303.314279 -73.197627 
L 303.314279 -77.389063 
L 303.314279 -77.389063 
L 301.054311 -77.56201 
L 298.794343 -74.486643 
L 296.534375 -74.755075 
L 294.274407 -74.736266 
L 292.014439 -67.973474 
L 289.754471 -67.883437 
L 287.494503 -72.450549 
L 285.234535 -73.920973 
L 282.974567 -73.868968 
L 280.714599 -74.137123 
L 278.454631 -74.268204 
L 276.194664 -71.453342 
L 273.934696 -71.527166 
L 271.674728 -71.157123 
L 269.41476 -70.553327 
L 267.154792 -72.44628 
L 264.894824 -72.411453 
L 262.634856 -72.885157 
L 260.374888 -72.868822 
L 258.11492 -72.894795 
L 255.854952 -72.894151 
L 253.594984 -72.783661 
L 251.335016 -72.503209 
L 249.075049 -71.577529 
L 246.815081 -71.523677 
L 244.555113 -77.388589 
L 242.295145 -77.426546 
L 240.035177 -74.533161 
L 237.775209 -74.682109 
L 235.515241 -74.686298 
L 233.255273 -67.842355 
L 230.995305 -67.597461 
L 228.735337 -72.899066 
L 226.475369 -72.468987 
L 224.215401 -74.360058 
L 221.955433 -73.867795 
L 219.695466 -74.191414 
L 217.435498 -71.20742 
L 215.17553 -71.168298 
L 212.915562 -71.311187 
L 210.655594 -70.679396 
L 208.395626 -70.537481 
L 206.135658 -72.501475 
L 203.87569 -73.024839 
L 201.615722 -72.605261 
L 199.355754 -72.688356 
L 197.095786 -72.951035 
L 194.835818 -72.506299 
L 192.575851 -72.556828 
z
" style="stroke: #e8000b; stroke-opacity: 0.2"/>
    </defs>
    <g clip-path="url(#p98d33aec18)">
     <use xlink:href="#m4acc4c27d5" x="0" y="162" style="fill: #e8000b; fill-opacity: 0.2; stroke: #e8000b; stroke-opacity: 0.2"/>
    </g>
   </g>
   <g id="line2d_21">
    <path d="M 208.395626 78.406685 
L 210.655594 78.532018 
L 212.915562 51.973439 
L 215.17553 51.495217 
L 217.435498 51.200162 
L 219.695466 51.23065 
L 221.955433 51.242041 
L 224.215401 49.078793 
L 226.475369 48.95786 
L 228.735337 48.92507 
L 230.995305 48.935133 
L 233.255273 48.899107 
L 267.154792 78.395471 
L 269.41476 78.521449 
L 271.674728 51.974121 
L 273.934696 51.496707 
L 276.194664 51.197217 
L 278.454631 51.228288 
L 280.714599 51.239973 
L 282.974567 49.082246 
L 285.234535 48.960423 
L 287.494503 48.928156 
L 289.754471 48.937973 
L 292.014439 48.90246 
" clip-path="url(#p98d33aec18)" style="fill: none; stroke: #023eff; stroke-width: 1.5; stroke-linecap: round"/>
   </g>
   <g id="line2d_22">
    <path d="M 212.915562 35.693786 
L 215.17553 35.692346 
L 217.435498 39.233823 
L 219.695466 39.982947 
L 221.955433 40.114483 
L 224.215401 40.147725 
L 226.475369 39.721556 
L 228.735337 39.691755 
L 230.995305 39.695444 
L 233.255273 39.663701 
L 271.674728 35.693625 
L 273.934696 35.692756 
L 276.194664 39.235119 
L 278.454631 39.98255 
L 280.714599 40.114737 
L 282.974567 40.148494 
L 285.234535 39.723842 
L 287.494503 39.694595 
L 289.754471 39.697912 
L 292.014439 39.666695 
" clip-path="url(#p98d33aec18)" style="fill: none; stroke: #ff7c00; stroke-width: 1.5; stroke-linecap: round"/>
   </g>
   <g id="line2d_23">
    <path d="M 192.575851 116.518783 
L 194.835818 116.142663 
L 197.095786 116.14213 
L 199.355754 116.13018 
L 201.615722 116.112487 
L 203.87569 116.089072 
L 206.135658 116.059947 
L 208.395626 116.025127 
L 210.655594 115.984577 
L 212.915562 115.568936 
L 215.17553 115.532094 
L 217.435498 115.488527 
L 219.695466 115.438185 
L 221.955433 115.381097 
L 224.215401 115.317228 
L 226.475369 115.246538 
L 228.735337 114.826991 
L 230.995305 116.536447 
L 233.255273 116.464724 
L 235.515241 90.227348 
L 237.775209 89.85874 
L 240.035177 90.464231 
L 242.295145 90.474447 
L 244.555113 90.480184 
L 246.815081 116.554118 
L 249.075049 117.061256 
L 251.335016 116.535764 
L 253.594984 116.519288 
L 255.854952 116.142887 
L 258.11492 116.131457 
L 260.374888 116.114255 
L 262.634856 116.091331 
L 264.894824 116.062697 
L 267.154792 116.028365 
L 269.41476 115.988319 
L 271.674728 115.571825 
L 273.934696 115.535554 
L 276.194664 115.492556 
L 278.454631 115.442811 
L 280.714599 115.386306 
L 282.974567 115.323027 
L 285.234535 115.252929 
L 287.494503 114.832711 
L 289.754471 116.542255 
L 292.014439 116.471246 
L 294.274407 90.228092 
L 296.534375 89.859021 
L 298.794343 90.463109 
L 301.054311 90.473711 
L 303.314279 90.479849 
" clip-path="url(#p98d33aec18)" style="fill: none; stroke: #1ac938; stroke-width: 1.5; stroke-linecap: round"/>
   </g>
   <g id="line2d_24">
    <path d="M 192.575851 93.288897 
L 194.835818 93.123765 
L 197.095786 93.123099 
L 199.355754 93.109377 
L 201.615722 93.090656 
L 203.87569 93.066876 
L 206.135658 93.569195 
L 208.395626 95.019976 
L 210.655594 95.022698 
L 212.915562 94.318732 
L 215.17553 94.320304 
L 217.435498 94.317908 
L 219.695466 92.022067 
L 221.955433 92.031088 
L 224.215401 92.034791 
L 226.475369 93.434747 
L 228.735337 92.937352 
L 230.995305 97.533963 
L 233.255273 97.546131 
L 235.515241 88.88376 
L 237.775209 88.902175 
L 240.035177 89.092809 
L 242.295145 86.743188 
L 244.555113 86.756299 
L 246.815081 94.111403 
L 249.075049 94.114563 
L 251.335016 93.292349 
L 253.594984 93.289033 
L 255.854952 93.124058 
L 258.11492 93.110736 
L 260.374888 93.092456 
L 262.634856 93.069104 
L 264.894824 93.569948 
L 267.154792 93.55883 
L 269.41476 95.022559 
L 271.674728 94.318366 
L 273.934696 94.320282 
L 276.194664 94.31822 
L 278.454631 92.020986 
L 280.714599 92.030487 
L 282.974567 92.034653 
L 285.234535 92.033471 
L 287.494503 92.936873 
L 289.754471 97.532519 
L 292.014439 97.545334 
L 294.274407 88.881834 
L 296.534375 88.900814 
L 298.794343 89.090022 
L 301.054311 86.741814 
L 303.314279 86.755329 
" clip-path="url(#p98d33aec18)" style="fill: none; stroke: #e8000b; stroke-width: 1.5; stroke-linecap: round"/>
   </g>
   <g id="patch_6">
    <path d="M 187.038929 122.292 
L 187.038929 23.12925 
" style="fill: none; stroke: #ffffff; stroke-width: 1.25; stroke-linejoin: miter; stroke-linecap: square"/>
   </g>
   <g id="patch_7">
    <path d="M 187.038929 122.292 
L 308.8512 122.292 
" style="fill: none; stroke: #ffffff; stroke-width: 1.25; stroke-linejoin: miter; stroke-linecap: square"/>
   </g>
   <g id="text_16">
    <!-- Attribute = Equatorial -->
    <g style="fill: #262626" transform="translate(202.987065 17.12925) scale(0.096 -0.096)">
     <defs>
      <path id="ArialMT-45" d="M 506 0 
L 506 4581 
L 3819 4581 
L 3819 4041 
L 1113 4041 
L 1113 2638 
L 3647 2638 
L 3647 2100 
L 1113 2100 
L 1113 541 
L 3925 541 
L 3925 0 
L 506 0 
z
" transform="scale(0.015625)"/>
      <path id="ArialMT-71" d="M 2538 -1272 
L 2538 353 
Q 2406 169 2170 47 
Q 1934 -75 1669 -75 
Q 1078 -75 651 397 
Q 225 869 225 1691 
Q 225 2191 398 2587 
Q 572 2984 901 3189 
Q 1231 3394 1625 3394 
Q 2241 3394 2594 2875 
L 2594 3319 
L 3100 3319 
L 3100 -1272 
L 2538 -1272 
z
M 803 1669 
Q 803 1028 1072 708 
Q 1341 388 1716 388 
Q 2075 388 2334 692 
Q 2594 997 2594 1619 
Q 2594 2281 2320 2615 
Q 2047 2950 1678 2950 
Q 1313 2950 1058 2639 
Q 803 2328 803 1669 
z
" transform="scale(0.015625)"/>
     </defs>
     <use xlink:href="#ArialMT-41"/>
     <use xlink:href="#ArialMT-74" x="66.699219"/>
     <use xlink:href="#ArialMT-74" x="94.482422"/>
     <use xlink:href="#ArialMT-72" x="122.265625"/>
     <use xlink:href="#ArialMT-69" x="155.566406"/>
     <use xlink:href="#ArialMT-62" x="177.783203"/>
     <use xlink:href="#ArialMT-75" x="233.398438"/>
     <use xlink:href="#ArialMT-74" x="289.013672"/>
     <use xlink:href="#ArialMT-65" x="316.796875"/>
     <use xlink:href="#ArialMT-20" x="372.412109"/>
     <use xlink:href="#ArialMT-3d" x="400.195312"/>
     <use xlink:href="#ArialMT-20" x="458.59375"/>
     <use xlink:href="#ArialMT-45" x="486.376953"/>
     <use xlink:href="#ArialMT-71" x="553.076172"/>
     <use xlink:href="#ArialMT-75" x="608.691406"/>
     <use xlink:href="#ArialMT-61" x="664.306641"/>
     <use xlink:href="#ArialMT-74" x="719.921875"/>
     <use xlink:href="#ArialMT-6f" x="747.705078"/>
     <use xlink:href="#ArialMT-72" x="803.320312"/>
     <use xlink:href="#ArialMT-69" x="836.621094"/>
     <use xlink:href="#ArialMT-61" x="858.837891"/>
     <use xlink:href="#ArialMT-6c" x="914.453125"/>
    </g>
   </g>
  </g>
  <g id="legend_1">
   <g id="text_17">
    <!-- Direction -->
    <g style="fill: #262626" transform="translate(328.04325 58.586) scale(0.096 -0.096)">
     <defs>
      <path id="ArialMT-44" d="M 494 0 
L 494 4581 
L 2072 4581 
Q 2606 4581 2888 4516 
Q 3281 4425 3559 4188 
Q 3922 3881 4101 3404 
Q 4281 2928 4281 2316 
Q 4281 1794 4159 1391 
Q 4038 988 3847 723 
Q 3656 459 3429 307 
Q 3203 156 2883 78 
Q 2563 0 2147 0 
L 494 0 
z
M 1100 541 
L 2078 541 
Q 2531 541 2789 625 
Q 3047 709 3200 863 
Q 3416 1078 3536 1442 
Q 3656 1806 3656 2325 
Q 3656 3044 3420 3430 
Q 3184 3816 2847 3947 
Q 2603 4041 2063 4041 
L 1100 4041 
L 1100 541 
z
" transform="scale(0.015625)"/>
      <path id="ArialMT-63" d="M 2588 1216 
L 3141 1144 
Q 3050 572 2676 248 
Q 2303 -75 1759 -75 
Q 1078 -75 664 370 
Q 250 816 250 1647 
Q 250 2184 428 2587 
Q 606 2991 970 3192 
Q 1334 3394 1763 3394 
Q 2303 3394 2647 3120 
Q 2991 2847 3088 2344 
L 2541 2259 
Q 2463 2594 2264 2762 
Q 2066 2931 1784 2931 
Q 1359 2931 1093 2626 
Q 828 2322 828 1663 
Q 828 994 1084 691 
Q 1341 388 1753 388 
Q 2084 388 2306 591 
Q 2528 794 2588 1216 
z
" transform="scale(0.015625)"/>
      <path id="ArialMT-6e" d="M 422 0 
L 422 3319 
L 928 3319 
L 928 2847 
Q 1294 3394 1984 3394 
Q 2284 3394 2536 3286 
Q 2788 3178 2913 3003 
Q 3038 2828 3088 2588 
Q 3119 2431 3119 2041 
L 3119 0 
L 2556 0 
L 2556 2019 
Q 2556 2363 2490 2533 
Q 2425 2703 2258 2804 
Q 2091 2906 1866 2906 
Q 1506 2906 1245 2678 
Q 984 2450 984 1813 
L 984 0 
L 422 0 
z
" transform="scale(0.015625)"/>
     </defs>
     <use xlink:href="#ArialMT-44"/>
     <use xlink:href="#ArialMT-69" x="72.216797"/>
     <use xlink:href="#ArialMT-72" x="94.433594"/>
     <use xlink:href="#ArialMT-65" x="127.734375"/>
     <use xlink:href="#ArialMT-63" x="183.349609"/>
     <use xlink:href="#ArialMT-74" x="233.349609"/>
     <use xlink:href="#ArialMT-69" x="261.132812"/>
     <use xlink:href="#ArialMT-6f" x="283.349609"/>
     <use xlink:href="#ArialMT-6e" x="338.964844"/>
    </g>
   </g>
   <g id="line2d_25">
    <path d="M 323.1645 68.112875 
L 331.9645 68.112875 
L 340.7645 68.112875 
" style="fill: none; stroke: #023eff; stroke-width: 1.5; stroke-linecap: round"/>
   </g>
   <g id="text_18">
    <!-- East -->
    <g style="fill: #262626" transform="translate(347.8045 71.192875) scale(0.088 -0.088)">
     <use xlink:href="#ArialMT-45"/>
     <use xlink:href="#ArialMT-61" x="66.699219"/>
     <use xlink:href="#ArialMT-73" x="122.314453"/>
     <use xlink:href="#ArialMT-74" x="172.314453"/>
    </g>
   </g>
   <g id="line2d_26">
    <path d="M 323.1645 80.56075 
L 331.9645 80.56075 
L 340.7645 80.56075 
" style="fill: none; stroke: #ff7c00; stroke-width: 1.5; stroke-linecap: round"/>
   </g>
   <g id="text_19">
    <!-- West -->
    <g style="fill: #262626" transform="translate(347.8045 83.64075) scale(0.088 -0.088)">
     <defs>
      <path id="ArialMT-57" d="M 1294 0 
L 78 4581 
L 700 4581 
L 1397 1578 
Q 1509 1106 1591 641 
Q 1766 1375 1797 1488 
L 2669 4581 
L 3400 4581 
L 4056 2263 
Q 4303 1400 4413 641 
Q 4500 1075 4641 1638 
L 5359 4581 
L 5969 4581 
L 4713 0 
L 4128 0 
L 3163 3491 
Q 3041 3928 3019 4028 
Q 2947 3713 2884 3491 
L 1913 0 
L 1294 0 
z
" transform="scale(0.015625)"/>
     </defs>
     <use xlink:href="#ArialMT-57"/>
     <use xlink:href="#ArialMT-65" x="92.634766"/>
     <use xlink:href="#ArialMT-73" x="148.25"/>
     <use xlink:href="#ArialMT-74" x="198.25"/>
    </g>
   </g>
   <g id="line2d_27">
    <path d="M 323.1645 93.008625 
L 331.9645 93.008625 
L 340.7645 93.008625 
" style="fill: none; stroke: #1ac938; stroke-width: 1.5; stroke-linecap: round"/>
   </g>
   <g id="text_20">
    <!-- North -->
    <g style="fill: #262626" transform="translate(347.8045 96.088625) scale(0.088 -0.088)">
     <defs>
      <path id="ArialMT-4e" d="M 488 0 
L 488 4581 
L 1109 4581 
L 3516 984 
L 3516 4581 
L 4097 4581 
L 4097 0 
L 3475 0 
L 1069 3600 
L 1069 0 
L 488 0 
z
" transform="scale(0.015625)"/>
      <path id="ArialMT-68" d="M 422 0 
L 422 4581 
L 984 4581 
L 984 2938 
Q 1378 3394 1978 3394 
Q 2347 3394 2619 3248 
Q 2891 3103 3008 2847 
Q 3125 2591 3125 2103 
L 3125 0 
L 2563 0 
L 2563 2103 
Q 2563 2525 2380 2717 
Q 2197 2909 1863 2909 
Q 1613 2909 1392 2779 
Q 1172 2650 1078 2428 
Q 984 2206 984 1816 
L 984 0 
L 422 0 
z
" transform="scale(0.015625)"/>
     </defs>
     <use xlink:href="#ArialMT-4e"/>
     <use xlink:href="#ArialMT-6f" x="72.216797"/>
     <use xlink:href="#ArialMT-72" x="127.832031"/>
     <use xlink:href="#ArialMT-74" x="161.132812"/>
     <use xlink:href="#ArialMT-68" x="188.916016"/>
    </g>
   </g>
   <g id="line2d_28">
    <path d="M 323.1645 105.4565 
L 331.9645 105.4565 
L 340.7645 105.4565 
" style="fill: none; stroke: #e8000b; stroke-width: 1.5; stroke-linecap: round"/>
   </g>
   <g id="text_21">
    <!-- South -->
    <g style="fill: #262626" transform="translate(347.8045 108.5365) scale(0.088 -0.088)">
     <defs>
      <path id="ArialMT-53" d="M 288 1472 
L 859 1522 
Q 900 1178 1048 958 
Q 1197 738 1509 602 
Q 1822 466 2213 466 
Q 2559 466 2825 569 
Q 3091 672 3220 851 
Q 3350 1031 3350 1244 
Q 3350 1459 3225 1620 
Q 3100 1781 2813 1891 
Q 2628 1963 1997 2114 
Q 1366 2266 1113 2400 
Q 784 2572 623 2826 
Q 463 3081 463 3397 
Q 463 3744 659 4045 
Q 856 4347 1234 4503 
Q 1613 4659 2075 4659 
Q 2584 4659 2973 4495 
Q 3363 4331 3572 4012 
Q 3781 3694 3797 3291 
L 3216 3247 
Q 3169 3681 2898 3903 
Q 2628 4125 2100 4125 
Q 1550 4125 1298 3923 
Q 1047 3722 1047 3438 
Q 1047 3191 1225 3031 
Q 1400 2872 2139 2705 
Q 2878 2538 3153 2413 
Q 3553 2228 3743 1945 
Q 3934 1663 3934 1294 
Q 3934 928 3725 604 
Q 3516 281 3123 101 
Q 2731 -78 2241 -78 
Q 1619 -78 1198 103 
Q 778 284 539 648 
Q 300 1013 288 1472 
z
" transform="scale(0.015625)"/>
     </defs>
     <use xlink:href="#ArialMT-53"/>
     <use xlink:href="#ArialMT-6f" x="66.699219"/>
     <use xlink:href="#ArialMT-75" x="122.314453"/>
     <use xlink:href="#ArialMT-74" x="177.929688"/>
     <use xlink:href="#ArialMT-68" x="205.712891"/>
    </g>
   </g>
  </g>
 </g>
 <defs>
  <clipPath id="pa76d72c60c">
   <rect x="55.35624" y="23.12925" width="121.812271" height="99.16275"/>
  </clipPath>
  <clipPath id="p98d33aec18">
   <rect x="187.038929" y="23.12925" width="121.812271" height="99.16275"/>
  </clipPath>
 </defs>
</svg>
