<?xml version="1.0" encoding="utf-8" standalone="no"?>
<!DOCTYPE svg PUBLIC "-//W3C//DTD SVG 1.1//EN"
  "http://www.w3.org/Graphics/SVG/1.1/DTD/svg11.dtd">
<svg xmlns:xlink="http://www.w3.org/1999/xlink" width="378.72pt" height="162pt" viewBox="0 0 378.72 162" xmlns="http://www.w3.org/2000/svg" version="1.1">
 <metadata>
  <rdf:RDF xmlns:dc="http://purl.org/dc/elements/1.1/" xmlns:cc="http://creativecommons.org/ns#" xmlns:rdf="http://www.w3.org/1999/02/22-rdf-syntax-ns#">
   <cc:Work>
    <dc:type rdf:resource="http://purl.org/dc/dcmitype/StillImage"/>
    <dc:date>2024-08-22T16:17:04.803872</dc:date>
    <dc:format>image/svg+xml</dc:format>
    <dc:creator>
     <cc:Agent>
      <dc:title>Matplotlib v3.9.0, https://matplotlib.org/</dc:title>
     </cc:Agent>
    </dc:creator>
   </cc:Work>
  </rdf:RDF>
 </metadata>
 <defs>
  <style type="text/css">*{stroke-linejoin: round; stroke-linecap: butt}</style>
 </defs>
 <g id="figure_1">
  <g id="patch_1">
   <path d="M 0 162 
L 378.72 162 
L 378.72 0 
L 0 0 
z
" style="fill: #ffffff"/>
  </g>
  <g id="axes_1">
   <g id="patch_2">
    <path d="M 49.57024 122.292 
L 174.254992 122.292 
L 174.254992 22.848 
L 49.57024 22.848 
z
" style="fill: #eaeaf2"/>
   </g>
   <g id="matplotlib.axis_1">
    <g id="xtick_1">
     <g id="line2d_1">
      <path d="M 52.924468 122.292 
L 52.924468 22.848 
" clip-path="url(#pbd08684694)" style="fill: none; stroke: #ffffff; stroke-linecap: round"/>
     </g>
     <g id="text_1">
      <!-- 0 -->
      <g style="fill: #262626" transform="translate(50.477656 138.090875) scale(0.088 -0.088)">
       <defs>
        <path id="ArialMT-30" d="M 266 2259 
Q 266 3072 433 3567 
Q 600 4063 929 4331 
Q 1259 4600 1759 4600 
Q 2128 4600 2406 4451 
Q 2684 4303 2865 4023 
Q 3047 3744 3150 3342 
Q 3253 2941 3253 2259 
Q 3253 1453 3087 958 
Q 2922 463 2592 192 
Q 2263 -78 1759 -78 
Q 1097 -78 719 397 
Q 266 969 266 2259 
z
M 844 2259 
Q 844 1131 1108 757 
Q 1372 384 1759 384 
Q 2147 384 2411 759 
Q 2675 1134 2675 2259 
Q 2675 3391 2411 3762 
Q 2147 4134 1753 4134 
Q 1366 4134 1134 3806 
Q 844 3388 844 2259 
z
" transform="scale(0.015625)"/>
       </defs>
       <use xlink:href="#ArialMT-30"/>
      </g>
     </g>
    </g>
    <g id="xtick_2">
     <g id="line2d_2">
      <path d="M 99.189682 122.292 
L 99.189682 22.848 
" clip-path="url(#pbd08684694)" style="fill: none; stroke: #ffffff; stroke-linecap: round"/>
     </g>
     <g id="text_2">
      <!-- 20 -->
      <g style="fill: #262626" transform="translate(94.296057 138.090875) scale(0.088 -0.088)">
       <defs>
        <path id="ArialMT-32" d="M 3222 541 
L 3222 0 
L 194 0 
Q 188 203 259 391 
Q 375 700 629 1000 
Q 884 1300 1366 1694 
Q 2113 2306 2375 2664 
Q 2638 3022 2638 3341 
Q 2638 3675 2398 3904 
Q 2159 4134 1775 4134 
Q 1369 4134 1125 3890 
Q 881 3647 878 3216 
L 300 3275 
Q 359 3922 746 4261 
Q 1134 4600 1788 4600 
Q 2447 4600 2831 4234 
Q 3216 3869 3216 3328 
Q 3216 3053 3103 2787 
Q 2991 2522 2730 2228 
Q 2469 1934 1863 1422 
Q 1356 997 1212 845 
Q 1069 694 975 541 
L 3222 541 
z
" transform="scale(0.015625)"/>
       </defs>
       <use xlink:href="#ArialMT-32"/>
       <use xlink:href="#ArialMT-30" x="55.615234"/>
      </g>
     </g>
    </g>
    <g id="xtick_3">
     <g id="line2d_3">
      <path d="M 145.454896 122.292 
L 145.454896 22.848 
" clip-path="url(#pbd08684694)" style="fill: none; stroke: #ffffff; stroke-linecap: round"/>
     </g>
     <g id="text_3">
      <!-- 40 -->
      <g style="fill: #262626" transform="translate(140.561271 138.090875) scale(0.088 -0.088)">
       <defs>
        <path id="ArialMT-34" d="M 2069 0 
L 2069 1097 
L 81 1097 
L 81 1613 
L 2172 4581 
L 2631 4581 
L 2631 1613 
L 3250 1613 
L 3250 1097 
L 2631 1097 
L 2631 0 
L 2069 0 
z
M 2069 1613 
L 2069 3678 
L 634 1613 
L 2069 1613 
z
" transform="scale(0.015625)"/>
       </defs>
       <use xlink:href="#ArialMT-34"/>
       <use xlink:href="#ArialMT-30" x="55.615234"/>
      </g>
     </g>
    </g>
    <g id="text_4">
     <!-- Frame -->
     <g style="fill: #262626" transform="translate(98.045866 150.711375) scale(0.096 -0.096)">
      <defs>
       <path id="ArialMT-46" d="M 525 0 
L 525 4581 
L 3616 4581 
L 3616 4041 
L 1131 4041 
L 1131 2622 
L 3281 2622 
L 3281 2081 
L 1131 2081 
L 1131 0 
L 525 0 
z
" transform="scale(0.015625)"/>
       <path id="ArialMT-72" d="M 416 0 
L 416 3319 
L 922 3319 
L 922 2816 
Q 1116 3169 1280 3281 
Q 1444 3394 1641 3394 
Q 1925 3394 2219 3213 
L 2025 2691 
Q 1819 2813 1613 2813 
Q 1428 2813 1281 2702 
Q 1134 2591 1072 2394 
Q 978 2094 978 1738 
L 978 0 
L 416 0 
z
" transform="scale(0.015625)"/>
       <path id="ArialMT-61" d="M 2588 409 
Q 2275 144 1986 34 
Q 1697 -75 1366 -75 
Q 819 -75 525 192 
Q 231 459 231 875 
Q 231 1119 342 1320 
Q 453 1522 633 1644 
Q 813 1766 1038 1828 
Q 1203 1872 1538 1913 
Q 2219 1994 2541 2106 
Q 2544 2222 2544 2253 
Q 2544 2597 2384 2738 
Q 2169 2928 1744 2928 
Q 1347 2928 1158 2789 
Q 969 2650 878 2297 
L 328 2372 
Q 403 2725 575 2942 
Q 747 3159 1072 3276 
Q 1397 3394 1825 3394 
Q 2250 3394 2515 3294 
Q 2781 3194 2906 3042 
Q 3031 2891 3081 2659 
Q 3109 2516 3109 2141 
L 3109 1391 
Q 3109 606 3145 398 
Q 3181 191 3288 0 
L 2700 0 
Q 2613 175 2588 409 
z
M 2541 1666 
Q 2234 1541 1622 1453 
Q 1275 1403 1131 1340 
Q 988 1278 909 1158 
Q 831 1038 831 891 
Q 831 666 1001 516 
Q 1172 366 1500 366 
Q 1825 366 2078 508 
Q 2331 650 2450 897 
Q 2541 1088 2541 1459 
L 2541 1666 
z
" transform="scale(0.015625)"/>
       <path id="ArialMT-6d" d="M 422 0 
L 422 3319 
L 925 3319 
L 925 2853 
Q 1081 3097 1340 3245 
Q 1600 3394 1931 3394 
Q 2300 3394 2536 3241 
Q 2772 3088 2869 2813 
Q 3263 3394 3894 3394 
Q 4388 3394 4653 3120 
Q 4919 2847 4919 2278 
L 4919 0 
L 4359 0 
L 4359 2091 
Q 4359 2428 4304 2576 
Q 4250 2725 4106 2815 
Q 3963 2906 3769 2906 
Q 3419 2906 3187 2673 
Q 2956 2441 2956 1928 
L 2956 0 
L 2394 0 
L 2394 2156 
Q 2394 2531 2256 2718 
Q 2119 2906 1806 2906 
Q 1569 2906 1367 2781 
Q 1166 2656 1075 2415 
Q 984 2175 984 1722 
L 984 0 
L 422 0 
z
" transform="scale(0.015625)"/>
       <path id="ArialMT-65" d="M 2694 1069 
L 3275 997 
Q 3138 488 2766 206 
Q 2394 -75 1816 -75 
Q 1088 -75 661 373 
Q 234 822 234 1631 
Q 234 2469 665 2931 
Q 1097 3394 1784 3394 
Q 2450 3394 2872 2941 
Q 3294 2488 3294 1666 
Q 3294 1616 3291 1516 
L 816 1516 
Q 847 969 1125 678 
Q 1403 388 1819 388 
Q 2128 388 2347 550 
Q 2566 713 2694 1069 
z
M 847 1978 
L 2700 1978 
Q 2663 2397 2488 2606 
Q 2219 2931 1791 2931 
Q 1403 2931 1139 2672 
Q 875 2413 847 1978 
z
" transform="scale(0.015625)"/>
      </defs>
      <use xlink:href="#ArialMT-46"/>
      <use xlink:href="#ArialMT-72" x="61.083984"/>
      <use xlink:href="#ArialMT-61" x="94.384766"/>
      <use xlink:href="#ArialMT-6d" x="150"/>
      <use xlink:href="#ArialMT-65" x="233.300781"/>
     </g>
    </g>
   </g>
   <g id="matplotlib.axis_2">
    <g id="ytick_1">
     <g id="line2d_4">
      <path d="M 49.57024 114.008843 
L 174.254992 114.008843 
" clip-path="url(#pbd08684694)" style="fill: none; stroke: #ffffff; stroke-linecap: round"/>
     </g>
     <g id="text_5">
      <!-- 20 -->
      <g style="fill: #262626" transform="translate(30.28299 117.15828) scale(0.088 -0.088)">
       <use xlink:href="#ArialMT-32"/>
       <use xlink:href="#ArialMT-30" x="55.615234"/>
      </g>
     </g>
    </g>
    <g id="ytick_2">
     <g id="line2d_5">
      <path d="M 49.57024 81.405523 
L 174.254992 81.405523 
" clip-path="url(#pbd08684694)" style="fill: none; stroke: #ffffff; stroke-linecap: round"/>
     </g>
     <g id="text_6">
      <!-- 30 -->
      <g style="fill: #262626" transform="translate(30.28299 84.554961) scale(0.088 -0.088)">
       <defs>
        <path id="ArialMT-33" d="M 269 1209 
L 831 1284 
Q 928 806 1161 595 
Q 1394 384 1728 384 
Q 2125 384 2398 659 
Q 2672 934 2672 1341 
Q 2672 1728 2419 1979 
Q 2166 2231 1775 2231 
Q 1616 2231 1378 2169 
L 1441 2663 
Q 1497 2656 1531 2656 
Q 1891 2656 2178 2843 
Q 2466 3031 2466 3422 
Q 2466 3731 2256 3934 
Q 2047 4138 1716 4138 
Q 1388 4138 1169 3931 
Q 950 3725 888 3313 
L 325 3413 
Q 428 3978 793 4289 
Q 1159 4600 1703 4600 
Q 2078 4600 2393 4439 
Q 2709 4278 2876 4000 
Q 3044 3722 3044 3409 
Q 3044 3113 2884 2869 
Q 2725 2625 2413 2481 
Q 2819 2388 3044 2092 
Q 3269 1797 3269 1353 
Q 3269 753 2831 336 
Q 2394 -81 1725 -81 
Q 1122 -81 723 278 
Q 325 638 269 1209 
z
" transform="scale(0.015625)"/>
       </defs>
       <use xlink:href="#ArialMT-33"/>
       <use xlink:href="#ArialMT-30" x="55.615234"/>
      </g>
     </g>
    </g>
    <g id="ytick_3">
     <g id="line2d_6">
      <path d="M 49.57024 48.802203 
L 174.254992 48.802203 
" clip-path="url(#pbd08684694)" style="fill: none; stroke: #ffffff; stroke-linecap: round"/>
     </g>
     <g id="text_7">
      <!-- 40 -->
      <g style="fill: #262626" transform="translate(30.28299 51.951641) scale(0.088 -0.088)">
       <use xlink:href="#ArialMT-34"/>
       <use xlink:href="#ArialMT-30" x="55.615234"/>
      </g>
     </g>
    </g>
    <g id="text_8">
     <!-- RTT (ms) -->
     <g style="fill: #262626" transform="translate(24.26249 92.66025) rotate(-90) scale(0.096 -0.096)">
      <defs>
       <path id="ArialMT-52" d="M 503 0 
L 503 4581 
L 2534 4581 
Q 3147 4581 3465 4457 
Q 3784 4334 3975 4021 
Q 4166 3709 4166 3331 
Q 4166 2844 3850 2509 
Q 3534 2175 2875 2084 
Q 3116 1969 3241 1856 
Q 3506 1613 3744 1247 
L 4541 0 
L 3778 0 
L 3172 953 
Q 2906 1366 2734 1584 
Q 2563 1803 2427 1890 
Q 2291 1978 2150 2013 
Q 2047 2034 1813 2034 
L 1109 2034 
L 1109 0 
L 503 0 
z
M 1109 2559 
L 2413 2559 
Q 2828 2559 3062 2645 
Q 3297 2731 3419 2920 
Q 3541 3109 3541 3331 
Q 3541 3656 3305 3865 
Q 3069 4075 2559 4075 
L 1109 4075 
L 1109 2559 
z
" transform="scale(0.015625)"/>
       <path id="ArialMT-54" d="M 1659 0 
L 1659 4041 
L 150 4041 
L 150 4581 
L 3781 4581 
L 3781 4041 
L 2266 4041 
L 2266 0 
L 1659 0 
z
" transform="scale(0.015625)"/>
       <path id="ArialMT-20" transform="scale(0.015625)"/>
       <path id="ArialMT-28" d="M 1497 -1347 
Q 1031 -759 709 28 
Q 388 816 388 1659 
Q 388 2403 628 3084 
Q 909 3875 1497 4659 
L 1900 4659 
Q 1522 4009 1400 3731 
Q 1209 3300 1100 2831 
Q 966 2247 966 1656 
Q 966 153 1900 -1347 
L 1497 -1347 
z
" transform="scale(0.015625)"/>
       <path id="ArialMT-73" d="M 197 991 
L 753 1078 
Q 800 744 1014 566 
Q 1228 388 1613 388 
Q 2000 388 2187 545 
Q 2375 703 2375 916 
Q 2375 1106 2209 1216 
Q 2094 1291 1634 1406 
Q 1016 1563 777 1677 
Q 538 1791 414 1992 
Q 291 2194 291 2438 
Q 291 2659 392 2848 
Q 494 3038 669 3163 
Q 800 3259 1026 3326 
Q 1253 3394 1513 3394 
Q 1903 3394 2198 3281 
Q 2494 3169 2634 2976 
Q 2775 2784 2828 2463 
L 2278 2388 
Q 2241 2644 2061 2787 
Q 1881 2931 1553 2931 
Q 1166 2931 1000 2803 
Q 834 2675 834 2503 
Q 834 2394 903 2306 
Q 972 2216 1119 2156 
Q 1203 2125 1616 2013 
Q 2213 1853 2448 1751 
Q 2684 1650 2818 1456 
Q 2953 1263 2953 975 
Q 2953 694 2789 445 
Q 2625 197 2315 61 
Q 2006 -75 1616 -75 
Q 969 -75 630 194 
Q 291 463 197 991 
z
" transform="scale(0.015625)"/>
       <path id="ArialMT-29" d="M 791 -1347 
L 388 -1347 
Q 1322 153 1322 1656 
Q 1322 2244 1188 2822 
Q 1081 3291 891 3722 
Q 769 4003 388 4659 
L 791 4659 
Q 1378 3875 1659 3084 
Q 1900 2403 1900 1659 
Q 1900 816 1576 28 
Q 1253 -759 791 -1347 
z
" transform="scale(0.015625)"/>
      </defs>
      <use xlink:href="#ArialMT-52"/>
      <use xlink:href="#ArialMT-54" x="70.466797"/>
      <use xlink:href="#ArialMT-54" x="131.550781"/>
      <use xlink:href="#ArialMT-20" x="190.884766"/>
      <use xlink:href="#ArialMT-28" x="218.667969"/>
      <use xlink:href="#ArialMT-6d" x="251.96875"/>
      <use xlink:href="#ArialMT-73" x="335.269531"/>
      <use xlink:href="#ArialMT-29" x="385.269531"/>
     </g>
    </g>
   </g>
   <g id="PolyCollection_1">
    <defs>
     <path id="m19ef3d15a5" d="M 140.828374 -64.009663 
L 140.828374 -62.867389 
L 143.141635 -62.923242 
L 145.454896 -62.992344 
L 147.768157 -63.074708 
L 150.081417 -63.170606 
L 152.394678 -63.280173 
L 154.707939 -63.40366 
L 157.021199 -63.541305 
L 161.647721 -63.655611 
L 163.960981 -63.524492 
L 166.274242 -63.421723 
L 168.587503 -65.84034 
L 168.587503 -67.981999 
L 168.587503 -67.981999 
L 166.274242 -63.421723 
L 163.960981 -63.524492 
L 161.647721 -63.655611 
L 157.021199 -64.783005 
L 154.707939 -64.631605 
L 152.394678 -64.494128 
L 150.081417 -64.370386 
L 147.768157 -64.260187 
L 145.454896 -64.163437 
L 143.141635 -64.079922 
L 140.828374 -64.009663 
z
" style="stroke: #023eff; stroke-opacity: 0.2"/>
    </defs>
    <g clip-path="url(#pbd08684694)">
     <use xlink:href="#m19ef3d15a5" x="0" y="162" style="fill: #023eff; fill-opacity: 0.2; stroke: #023eff; stroke-opacity: 0.2"/>
    </g>
   </g>
   <g id="PolyCollection_2">
    <defs>
     <path id="m1aa59873e3" d="M 55.237729 -61.625112 
L 55.237729 -54.196232 
L 57.550989 -61.794009 
L 59.86425 -61.793874 
L 62.177511 -68.727042 
L 64.490771 -72.885814 
L 66.804032 -83.486301 
L 69.117293 -83.566764 
L 71.430554 -83.594716 
L 73.743814 -83.647985 
L 80.683596 -76.541501 
L 82.996857 -76.450908 
L 85.310118 -76.434299 
L 87.623378 -76.274561 
L 89.936639 -76.288203 
L 92.2499 -76.716895 
L 94.563161 -75.991919 
L 96.876421 -76.055461 
L 108.442725 -70.452479 
L 110.755985 -70.253385 
L 113.069246 -70.30911 
L 115.382507 -70.1324 
L 117.695768 -54.199007 
L 120.009028 -61.794035 
L 122.322289 -68.727987 
L 124.63555 -73.247121 
L 126.94881 -83.482042 
L 129.262071 -83.542738 
L 131.575332 -83.591234 
L 133.888592 -83.642313 
L 140.828374 -76.588071 
L 143.141635 -76.687866 
L 145.454896 -76.273494 
L 147.768157 -76.427236 
L 150.081417 -76.611035 
L 152.394678 -76.569338 
L 154.707939 -75.985714 
L 157.021199 -75.632505 
L 168.587503 -70.470961 
L 168.587503 -70.470961 
L 168.587503 -70.470961 
L 157.021199 -82.041693 
L 154.707939 -81.984811 
L 152.394678 -82.517365 
L 150.081417 -82.614302 
L 147.768157 -82.710195 
L 145.454896 -82.596221 
L 143.141635 -82.583905 
L 140.828374 -82.582178 
L 133.888592 -83.642313 
L 131.575332 -83.591234 
L 129.262071 -83.55325 
L 126.94881 -83.520441 
L 124.63555 -78.552732 
L 122.322289 -75.611313 
L 120.009028 -75.773711 
L 117.695768 -61.628966 
L 115.382507 -70.304265 
L 113.069246 -70.521938 
L 110.755985 -70.253385 
L 108.442725 -70.452479 
L 96.876421 -82.015569 
L 94.563161 -81.972722 
L 92.2499 -82.262437 
L 89.936639 -82.791674 
L 87.623378 -82.709013 
L 85.310118 -82.674506 
L 82.996857 -82.581016 
L 80.683596 -82.662852 
L 73.743814 -83.647985 
L 71.430554 -83.594716 
L 69.117293 -83.566764 
L 66.804032 -83.522295 
L 64.490771 -78.55406 
L 62.177511 -75.60829 
L 59.86425 -75.77572 
L 57.550989 -75.77434 
L 55.237729 -61.625112 
z
" style="stroke: #ff7c00; stroke-opacity: 0.2"/>
    </defs>
    <g clip-path="url(#pbd08684694)">
     <use xlink:href="#m1aa59873e3" x="0" y="162" style="fill: #ff7c00; fill-opacity: 0.2; stroke: #ff7c00; stroke-opacity: 0.2"/>
    </g>
   </g>
   <g id="PolyCollection_3"/>
   <g id="PolyCollection_4"/>
   <g id="line2d_7">
    <path d="M 140.828374 98.561474 
L 143.141635 98.498418 
L 145.454896 98.422109 
L 147.768157 98.332552 
L 150.081417 98.229504 
L 152.394678 98.112849 
L 154.707939 97.982368 
L 157.021199 97.837845 
L 161.647721 98.344389 
L 163.960981 98.475508 
L 166.274242 98.578277 
L 168.587503 95.091056 
" clip-path="url(#pbd08684694)" style="fill: none; stroke: #023eff; stroke-width: 1.5; stroke-linecap: round"/>
   </g>
   <g id="line2d_8">
    <path d="M 55.237729 104.089328 
L 57.550989 93.215825 
L 59.86425 93.215203 
L 62.177511 89.832334 
L 64.490771 86.101873 
L 66.804032 78.495702 
L 69.117293 78.433236 
L 71.430554 78.405284 
L 73.743814 78.352015 
L 80.683596 82.311549 
L 82.996857 82.345679 
L 85.310118 82.366447 
L 87.623378 82.373627 
L 89.936639 82.367079 
L 92.2499 82.346586 
L 94.563161 83.026104 
L 96.876421 82.956574 
L 108.442725 91.547521 
L 110.755985 91.746615 
L 113.069246 91.592661 
L 115.382507 91.781846 
L 117.695768 104.086013 
L 120.009028 93.216127 
L 122.322289 89.83035 
L 124.63555 86.103738 
L 126.94881 78.498758 
L 129.262071 78.451995 
L 131.575332 78.408766 
L 133.888592 78.357687 
L 140.828374 82.307944 
L 143.141635 82.343307 
L 145.454896 82.365178 
L 147.768157 82.373559 
L 150.081417 82.368179 
L 152.394678 82.348923 
L 154.707939 83.031467 
L 157.021199 82.963128 
L 168.587503 91.529039 
" clip-path="url(#pbd08684694)" style="fill: none; stroke: #ff7c00; stroke-width: 1.5; stroke-linecap: round"/>
   </g>
   <g id="line2d_9"/>
   <g id="line2d_10"/>
   <g id="patch_3">
    <path d="M 49.57024 122.292 
L 49.57024 22.848 
" style="fill: none; stroke: #ffffff; stroke-width: 1.25; stroke-linejoin: miter; stroke-linecap: square"/>
   </g>
   <g id="patch_4">
    <path d="M 49.57024 122.292 
L 174.254992 122.292 
" style="fill: none; stroke: #ffffff; stroke-width: 1.25; stroke-linejoin: miter; stroke-linecap: square"/>
   </g>
   <g id="text_9">
    <!-- Attribute = TransOrbital -->
    <g style="fill: #262626" transform="translate(62.426116 16.848) scale(0.096 -0.096)">
     <defs>
      <path id="ArialMT-41" d="M -9 0 
L 1750 4581 
L 2403 4581 
L 4278 0 
L 3588 0 
L 3053 1388 
L 1138 1388 
L 634 0 
L -9 0 
z
M 1313 1881 
L 2866 1881 
L 2388 3150 
Q 2169 3728 2063 4100 
Q 1975 3659 1816 3225 
L 1313 1881 
z
" transform="scale(0.015625)"/>
      <path id="ArialMT-74" d="M 1650 503 
L 1731 6 
Q 1494 -44 1306 -44 
Q 1000 -44 831 53 
Q 663 150 594 308 
Q 525 466 525 972 
L 525 2881 
L 113 2881 
L 113 3319 
L 525 3319 
L 525 4141 
L 1084 4478 
L 1084 3319 
L 1650 3319 
L 1650 2881 
L 1084 2881 
L 1084 941 
Q 1084 700 1114 631 
Q 1144 563 1211 522 
Q 1278 481 1403 481 
Q 1497 481 1650 503 
z
" transform="scale(0.015625)"/>
      <path id="ArialMT-69" d="M 425 3934 
L 425 4581 
L 988 4581 
L 988 3934 
L 425 3934 
z
M 425 0 
L 425 3319 
L 988 3319 
L 988 0 
L 425 0 
z
" transform="scale(0.015625)"/>
      <path id="ArialMT-62" d="M 941 0 
L 419 0 
L 419 4581 
L 981 4581 
L 981 2947 
Q 1338 3394 1891 3394 
Q 2197 3394 2470 3270 
Q 2744 3147 2920 2923 
Q 3097 2700 3197 2384 
Q 3297 2069 3297 1709 
Q 3297 856 2875 390 
Q 2453 -75 1863 -75 
Q 1275 -75 941 416 
L 941 0 
z
M 934 1684 
Q 934 1088 1097 822 
Q 1363 388 1816 388 
Q 2184 388 2453 708 
Q 2722 1028 2722 1663 
Q 2722 2313 2464 2622 
Q 2206 2931 1841 2931 
Q 1472 2931 1203 2611 
Q 934 2291 934 1684 
z
" transform="scale(0.015625)"/>
      <path id="ArialMT-75" d="M 2597 0 
L 2597 488 
Q 2209 -75 1544 -75 
Q 1250 -75 995 37 
Q 741 150 617 320 
Q 494 491 444 738 
Q 409 903 409 1263 
L 409 3319 
L 972 3319 
L 972 1478 
Q 972 1038 1006 884 
Q 1059 663 1231 536 
Q 1403 409 1656 409 
Q 1909 409 2131 539 
Q 2353 669 2445 892 
Q 2538 1116 2538 1541 
L 2538 3319 
L 3100 3319 
L 3100 0 
L 2597 0 
z
" transform="scale(0.015625)"/>
      <path id="ArialMT-3d" d="M 3381 2694 
L 356 2694 
L 356 3219 
L 3381 3219 
L 3381 2694 
z
M 3381 1303 
L 356 1303 
L 356 1828 
L 3381 1828 
L 3381 1303 
z
" transform="scale(0.015625)"/>
      <path id="ArialMT-6e" d="M 422 0 
L 422 3319 
L 928 3319 
L 928 2847 
Q 1294 3394 1984 3394 
Q 2284 3394 2536 3286 
Q 2788 3178 2913 3003 
Q 3038 2828 3088 2588 
Q 3119 2431 3119 2041 
L 3119 0 
L 2556 0 
L 2556 2019 
Q 2556 2363 2490 2533 
Q 2425 2703 2258 2804 
Q 2091 2906 1866 2906 
Q 1506 2906 1245 2678 
Q 984 2450 984 1813 
L 984 0 
L 422 0 
z
" transform="scale(0.015625)"/>
      <path id="ArialMT-4f" d="M 309 2231 
Q 309 3372 921 4017 
Q 1534 4663 2503 4663 
Q 3138 4663 3647 4359 
Q 4156 4056 4423 3514 
Q 4691 2972 4691 2284 
Q 4691 1588 4409 1038 
Q 4128 488 3612 205 
Q 3097 -78 2500 -78 
Q 1853 -78 1343 234 
Q 834 547 571 1087 
Q 309 1628 309 2231 
z
M 934 2222 
Q 934 1394 1379 917 
Q 1825 441 2497 441 
Q 3181 441 3623 922 
Q 4066 1403 4066 2288 
Q 4066 2847 3877 3264 
Q 3688 3681 3323 3911 
Q 2959 4141 2506 4141 
Q 1863 4141 1398 3698 
Q 934 3256 934 2222 
z
" transform="scale(0.015625)"/>
      <path id="ArialMT-6c" d="M 409 0 
L 409 4581 
L 972 4581 
L 972 0 
L 409 0 
z
" transform="scale(0.015625)"/>
     </defs>
     <use xlink:href="#ArialMT-41"/>
     <use xlink:href="#ArialMT-74" x="66.699219"/>
     <use xlink:href="#ArialMT-74" x="94.482422"/>
     <use xlink:href="#ArialMT-72" x="122.265625"/>
     <use xlink:href="#ArialMT-69" x="155.566406"/>
     <use xlink:href="#ArialMT-62" x="177.783203"/>
     <use xlink:href="#ArialMT-75" x="233.398438"/>
     <use xlink:href="#ArialMT-74" x="289.013672"/>
     <use xlink:href="#ArialMT-65" x="316.796875"/>
     <use xlink:href="#ArialMT-20" x="372.412109"/>
     <use xlink:href="#ArialMT-3d" x="400.195312"/>
     <use xlink:href="#ArialMT-20" x="458.59375"/>
     <use xlink:href="#ArialMT-54" x="484.626953"/>
     <use xlink:href="#ArialMT-72" x="541.960938"/>
     <use xlink:href="#ArialMT-61" x="575.261719"/>
     <use xlink:href="#ArialMT-6e" x="630.876953"/>
     <use xlink:href="#ArialMT-73" x="686.492188"/>
     <use xlink:href="#ArialMT-4f" x="736.492188"/>
     <use xlink:href="#ArialMT-72" x="814.275391"/>
     <use xlink:href="#ArialMT-62" x="847.576172"/>
     <use xlink:href="#ArialMT-69" x="903.191406"/>
     <use xlink:href="#ArialMT-74" x="925.408203"/>
     <use xlink:href="#ArialMT-61" x="953.191406"/>
     <use xlink:href="#ArialMT-6c" x="1008.806641"/>
    </g>
   </g>
  </g>
  <g id="axes_2">
   <g id="patch_5">
    <path d="M 184.166448 122.292 
L 308.8512 122.292 
L 308.8512 22.848 
L 184.166448 22.848 
z
" style="fill: #eaeaf2"/>
   </g>
   <g id="matplotlib.axis_3">
    <g id="xtick_4">
     <g id="line2d_11">
      <path d="M 187.520676 122.292 
L 187.520676 22.848 
" clip-path="url(#p4347732373)" style="fill: none; stroke: #ffffff; stroke-linecap: round"/>
     </g>
     <g id="text_10">
      <!-- 0 -->
      <g style="fill: #262626" transform="translate(185.073864 138.090875) scale(0.088 -0.088)">
       <use xlink:href="#ArialMT-30"/>
      </g>
     </g>
    </g>
    <g id="xtick_5">
     <g id="line2d_12">
      <path d="M 233.78589 122.292 
L 233.78589 22.848 
" clip-path="url(#p4347732373)" style="fill: none; stroke: #ffffff; stroke-linecap: round"/>
     </g>
     <g id="text_11">
      <!-- 20 -->
      <g style="fill: #262626" transform="translate(228.892265 138.090875) scale(0.088 -0.088)">
       <use xlink:href="#ArialMT-32"/>
       <use xlink:href="#ArialMT-30" x="55.615234"/>
      </g>
     </g>
    </g>
    <g id="xtick_6">
     <g id="line2d_13">
      <path d="M 280.051104 122.292 
L 280.051104 22.848 
" clip-path="url(#p4347732373)" style="fill: none; stroke: #ffffff; stroke-linecap: round"/>
     </g>
     <g id="text_12">
      <!-- 40 -->
      <g style="fill: #262626" transform="translate(275.157479 138.090875) scale(0.088 -0.088)">
       <use xlink:href="#ArialMT-34"/>
       <use xlink:href="#ArialMT-30" x="55.615234"/>
      </g>
     </g>
    </g>
    <g id="text_13">
     <!-- Frame -->
     <g style="fill: #262626" transform="translate(232.642074 150.711375) scale(0.096 -0.096)">
      <use xlink:href="#ArialMT-46"/>
      <use xlink:href="#ArialMT-72" x="61.083984"/>
      <use xlink:href="#ArialMT-61" x="94.384766"/>
      <use xlink:href="#ArialMT-6d" x="150"/>
      <use xlink:href="#ArialMT-65" x="233.300781"/>
     </g>
    </g>
   </g>
   <g id="matplotlib.axis_4">
    <g id="ytick_4">
     <g id="line2d_14">
      <path d="M 184.166448 114.008843 
L 308.8512 114.008843 
" clip-path="url(#p4347732373)" style="fill: none; stroke: #ffffff; stroke-linecap: round"/>
     </g>
    </g>
    <g id="ytick_5">
     <g id="line2d_15">
      <path d="M 184.166448 81.405523 
L 308.8512 81.405523 
" clip-path="url(#p4347732373)" style="fill: none; stroke: #ffffff; stroke-linecap: round"/>
     </g>
    </g>
    <g id="ytick_6">
     <g id="line2d_16">
      <path d="M 184.166448 48.802203 
L 308.8512 48.802203 
" clip-path="url(#p4347732373)" style="fill: none; stroke: #ffffff; stroke-linecap: round"/>
     </g>
    </g>
   </g>
   <g id="PolyCollection_5">
    <defs>
     <path id="mf150369fb4" d="M 189.833937 -70.667558 
L 189.833937 -64.939177 
L 192.147198 -69.252963 
L 194.460459 -69.106117 
L 196.773719 -70.211825 
L 199.08698 -71.13469 
L 201.400241 -60.999137 
L 203.713501 -60.817272 
L 206.026762 -60.873732 
L 208.340023 -57.99163 
L 210.653283 -58.157809 
L 212.966544 -58.195909 
L 215.279805 -45.75207 
L 217.593066 -48.124889 
L 219.906326 -48.589824 
L 222.219587 -48.654406 
L 224.532848 -48.734714 
L 226.846108 -48.822996 
L 229.159369 -45.17297 
L 231.47263 -46.985968 
L 233.78589 -44.248699 
L 236.099151 -44.533551 
L 238.412412 -44.228182 
L 240.725672 -44.629393 
L 243.038933 -45.217288 
L 245.352194 -49.146043 
L 247.665455 -57.575275 
L 249.978715 -57.893766 
L 252.291976 -65.151629 
L 254.605237 -69.173088 
L 256.918497 -69.208345 
L 259.231758 -71.090441 
L 261.545019 -61.110345 
L 263.858279 -60.883582 
L 266.17154 -61.072319 
L 268.484801 -59.919637 
L 270.798062 -57.906185 
L 273.111322 -58.200864 
L 275.424583 -45.847647 
L 277.737844 -48.100698 
L 280.051104 -48.569589 
L 282.364365 -48.645732 
L 284.677626 -48.730714 
L 286.990886 -48.824491 
L 289.304147 -45.212267 
L 291.617408 -46.818092 
L 293.930669 -44.258675 
L 296.243929 -44.576982 
L 298.55719 -44.361184 
L 300.870451 -44.589218 
L 303.183711 -44.588268 
L 303.183711 -48.954174 
L 303.183711 -48.954174 
L 300.870451 -48.80791 
L 298.55719 -48.5085 
L 296.243929 -48.708336 
L 293.930669 -48.612083 
L 291.617408 -51.323467 
L 289.304147 -50.534741 
L 286.990886 -49.056193 
L 284.677626 -48.953579 
L 282.364365 -48.883156 
L 280.051104 -48.836458 
L 277.737844 -48.939832 
L 275.424583 -50.241749 
L 273.111322 -63.202949 
L 270.798062 -63.069132 
L 268.484801 -65.705571 
L 266.17154 -65.364043 
L 263.858279 -65.352255 
L 261.545019 -65.615401 
L 259.231758 -75.528746 
L 256.918497 -73.365046 
L 254.605237 -73.246392 
L 252.291976 -70.762322 
L 249.978715 -65.442707 
L 247.665455 -65.079548 
L 245.352194 -52.887136 
L 243.038933 -49.517908 
L 240.725672 -48.875998 
L 238.412412 -48.582208 
L 236.099151 -48.682107 
L 233.78589 -48.495362 
L 231.47263 -51.495786 
L 229.159369 -50.308533 
L 226.846108 -49.052369 
L 224.532848 -48.961728 
L 222.219587 -48.885922 
L 219.906326 -48.838588 
L 217.593066 -48.918816 
L 215.279805 -50.274904 
L 212.966544 -63.136659 
L 210.653283 -63.206101 
L 208.340023 -63.268498 
L 206.026762 -65.45462 
L 203.713501 -65.415599 
L 201.400241 -65.81944 
L 199.08698 -75.444127 
L 196.773719 -74.580037 
L 194.460459 -73.326695 
L 192.147198 -73.259044 
L 189.833937 -70.667558 
z
" style="stroke: #023eff; stroke-opacity: 0.2"/>
    </defs>
    <g clip-path="url(#p4347732373)">
     <use xlink:href="#mf150369fb4" x="0" y="162" style="fill: #023eff; fill-opacity: 0.2; stroke: #023eff; stroke-opacity: 0.2"/>
    </g>
   </g>
   <g id="PolyCollection_6">
    <defs>
     <path id="m80ff7f35d5" d="M 189.833937 -68.342764 
L 189.833937 -62.85098 
L 192.147198 -70.100667 
L 194.460459 -70.092257 
L 196.773719 -70.178204 
L 199.08698 -72.029757 
L 201.400241 -72.218595 
L 203.713501 -55.229115 
L 206.026762 -55.496065 
L 208.340023 -50.643241 
L 210.653283 -50.71124 
L 212.966544 -50.818747 
L 215.279805 -63.10893 
L 217.593066 -68.756705 
L 219.906326 -68.791284 
L 222.219587 -68.637433 
L 224.532848 -68.299272 
L 226.846108 -68.294839 
L 229.159369 -59.795215 
L 231.47263 -58.954552 
L 233.78589 -56.490273 
L 236.099151 -56.078616 
L 238.412412 -55.995781 
L 240.725672 -60.432374 
L 243.038933 -60.949862 
L 245.352194 -60.704626 
L 247.665455 -58.037456 
L 249.978715 -58.588408 
L 252.291976 -62.811495 
L 254.605237 -70.098109 
L 256.918497 -70.264478 
L 259.231758 -72.019187 
L 261.545019 -72.12176 
L 263.858279 -55.270744 
L 266.17154 -55.379868 
L 268.484801 -50.572567 
L 270.798062 -50.657461 
L 273.111322 -50.657844 
L 275.424583 -62.899865 
L 277.737844 -68.654785 
L 280.051104 -68.533564 
L 282.364365 -68.615276 
L 284.677626 -68.399356 
L 286.990886 -68.41276 
L 289.304147 -59.770796 
L 291.617408 -59.340712 
L 293.930669 -56.461525 
L 296.243929 -56.130815 
L 298.55719 -56.04308 
L 300.870451 -60.364029 
L 303.183711 -60.875553 
L 303.183711 -68.776934 
L 303.183711 -68.776934 
L 300.870451 -67.782205 
L 298.55719 -62.909529 
L 296.243929 -62.677726 
L 293.930669 -63.00382 
L 291.617408 -65.141641 
L 289.304147 -65.867485 
L 286.990886 -74.609885 
L 284.677626 -74.67291 
L 282.364365 -74.794112 
L 280.051104 -74.864474 
L 277.737844 -75.273008 
L 275.424583 -67.831472 
L 273.111322 -55.257278 
L 270.798062 -55.40153 
L 268.484801 -55.19263 
L 266.17154 -61.706896 
L 263.858279 -61.774396 
L 261.545019 -77.279684 
L 259.231758 -77.163332 
L 256.918497 -72.660181 
L 254.605237 -72.568584 
L 252.291976 -68.56245 
L 249.978715 -66.279739 
L 247.665455 -66.235115 
L 245.352194 -68.209766 
L 243.038933 -68.467217 
L 240.725672 -67.780118 
L 238.412412 -62.933297 
L 236.099151 -62.83295 
L 233.78589 -63.081331 
L 231.47263 -65.30882 
L 229.159369 -65.868475 
L 226.846108 -74.958995 
L 224.532848 -74.959591 
L 222.219587 -74.917246 
L 219.906326 -74.907215 
L 217.593066 -75.141049 
L 215.279805 -67.897432 
L 212.966544 -55.156021 
L 210.653283 -55.304475 
L 208.340023 -55.445538 
L 206.026762 -61.65118 
L 203.713501 -61.99746 
L 201.400241 -77.087615 
L 199.08698 -77.074268 
L 196.773719 -72.713681 
L 194.460459 -72.572047 
L 192.147198 -72.643345 
L 189.833937 -68.342764 
z
" style="stroke: #ff7c00; stroke-opacity: 0.2"/>
    </defs>
    <g clip-path="url(#p4347732373)">
     <use xlink:href="#m80ff7f35d5" x="0" y="162" style="fill: #ff7c00; fill-opacity: 0.2; stroke: #ff7c00; stroke-opacity: 0.2"/>
    </g>
   </g>
   <g id="PolyCollection_7">
    <defs>
     <path id="meaa2d9a674" d="M 189.833937 -125.6718 
L 189.833937 -110.878554 
L 192.147198 -112.013173 
L 194.460459 -111.22048 
L 196.773719 -110.908732 
L 199.08698 -111.807984 
L 201.400241 -112.739506 
L 203.713501 -112.155956 
L 206.026762 -112.733892 
L 208.340023 -112.480312 
L 210.653283 -112.731187 
L 212.966544 -115.157797 
L 215.279805 -109.931007 
L 217.593066 -110.202572 
L 219.906326 -109.660167 
L 222.219587 -109.615398 
L 224.532848 -110.164201 
L 226.846108 -110.141253 
L 229.159369 -109.90473 
L 231.47263 -125.049971 
L 233.78589 -124.946874 
L 236.099151 -125.273583 
L 238.412412 -123.717726 
L 240.725672 -122.034325 
L 243.038933 -122.185658 
L 245.352194 -124.441773 
L 247.665455 -119.502847 
L 249.978715 -119.223965 
L 252.291976 -111.707853 
L 254.605237 -110.864616 
L 256.918497 -111.488224 
L 259.231758 -112.226918 
L 261.545019 -112.245339 
L 263.858279 -112.693225 
L 266.17154 -112.100831 
L 268.484801 -112.422616 
L 270.798062 -112.139489 
L 273.111322 -115.147367 
L 275.424583 -111.727547 
L 277.737844 -110.182467 
L 280.051104 -109.962026 
L 282.364365 -109.69904 
L 284.677626 -109.845627 
L 286.990886 -110.343184 
L 289.304147 -110.244146 
L 291.617408 -124.956018 
L 293.930669 -124.594759 
L 296.243929 -125.260164 
L 298.55719 -123.769081 
L 300.870451 -121.623098 
L 303.183711 -122.101869 
L 303.183711 -132.199824 
L 303.183711 -132.199824 
L 300.870451 -131.435582 
L 298.55719 -132.953632 
L 296.243929 -133.935158 
L 293.930669 -134.388908 
L 291.617408 -133.902028 
L 289.304147 -123.607297 
L 286.990886 -123.5058 
L 284.677626 -123.797849 
L 282.364365 -124.026112 
L 280.051104 -123.305612 
L 277.737844 -123.261664 
L 275.424583 -124.364159 
L 273.111322 -128.823179 
L 270.798062 -125.649923 
L 268.484801 -126.377024 
L 266.17154 -125.733325 
L 263.858279 -125.560233 
L 261.545019 -126.07335 
L 259.231758 -126.054406 
L 256.918497 -125.961738 
L 254.605237 -125.481766 
L 252.291976 -125.239266 
L 249.978715 -130.846322 
L 247.665455 -130.793323 
L 245.352194 -134.631818 
L 243.038933 -132.044164 
L 240.725672 -131.64786 
L 238.412412 -132.818077 
L 236.099151 -134.441882 
L 233.78589 -133.730315 
L 231.47263 -133.865849 
L 229.159369 -123.765587 
L 226.846108 -123.592145 
L 224.532848 -123.520509 
L 222.219587 -123.441085 
L 219.906326 -123.244146 
L 217.593066 -123.375925 
L 215.279805 -123.280267 
L 212.966544 -129.274223 
L 210.653283 -125.776938 
L 208.340023 -126.467349 
L 206.026762 -125.889715 
L 203.713501 -125.632389 
L 201.400241 -125.947519 
L 199.08698 -126.527115 
L 196.773719 -125.523018 
L 194.460459 -125.782184 
L 192.147198 -125.493098 
L 189.833937 -125.6718 
z
" style="stroke: #1ac938; stroke-opacity: 0.2"/>
    </defs>
    <g clip-path="url(#p4347732373)">
     <use xlink:href="#meaa2d9a674" x="0" y="162" style="fill: #1ac938; fill-opacity: 0.2; stroke: #1ac938; stroke-opacity: 0.2"/>
    </g>
   </g>
   <g id="PolyCollection_8">
    <defs>
     <path id="m4d57f0a90e" d="M 189.833937 -108.066031 
L 189.833937 -101.515582 
L 192.147198 -101.505132 
L 194.460459 -101.405315 
L 196.773719 -101.273969 
L 199.08698 -104.037343 
L 201.400241 -103.81698 
L 203.713501 -103.397615 
L 206.026762 -103.633168 
L 208.340023 -103.687832 
L 210.653283 -103.53544 
L 212.966544 -103.044439 
L 215.279805 -103.34362 
L 217.593066 -103.901558 
L 219.906326 -103.58843 
L 222.219587 -103.79105 
L 224.532848 -104.270004 
L 226.846108 -105.239681 
L 229.159369 -105.133475 
L 231.47263 -116.11745 
L 233.78589 -116.252416 
L 236.099151 -116.373533 
L 238.412412 -116.479436 
L 240.725672 -112.116197 
L 243.038933 -112.324444 
L 245.352194 -113.338787 
L 247.665455 -109.143923 
L 249.978715 -109.364288 
L 252.291976 -101.328452 
L 254.605237 -101.422487 
L 256.918497 -101.412713 
L 259.231758 -103.771416 
L 261.545019 -103.834053 
L 263.858279 -103.320759 
L 266.17154 -103.552451 
L 268.484801 -103.445803 
L 270.798062 -103.448876 
L 273.111322 -103.736823 
L 275.424583 -103.688659 
L 277.737844 -103.488283 
L 280.051104 -103.657845 
L 282.364365 -103.816375 
L 284.677626 -104.409533 
L 286.990886 -104.709707 
L 289.304147 -104.911003 
L 291.617408 -116.115347 
L 293.930669 -116.159821 
L 296.243929 -116.302112 
L 298.55719 -116.482481 
L 300.870451 -111.988988 
L 303.183711 -112.287041 
L 303.183711 -116.897989 
L 303.183711 -116.897989 
L 300.870451 -116.449907 
L 298.55719 -120.38194 
L 296.243929 -120.158806 
L 293.930669 -120.307182 
L 291.617408 -120.034841 
L 289.304147 -112.7467 
L 286.990886 -112.422634 
L 284.677626 -111.864508 
L 282.364365 -110.979272 
L 280.051104 -111.130948 
L 277.737844 -110.934783 
L 275.424583 -110.799877 
L 273.111322 -110.911487 
L 270.798062 -110.859081 
L 268.484801 -110.604486 
L 266.17154 -110.706898 
L 263.858279 -110.567943 
L 261.545019 -111.450389 
L 259.231758 -111.0454 
L 256.918497 -108.408189 
L 254.605237 -108.420462 
L 252.291976 -108.142575 
L 249.978715 -114.148949 
L 247.665455 -114.098902 
L 245.352194 -117.643254 
L 243.038933 -116.914313 
L 240.725672 -116.661556 
L 238.412412 -120.43754 
L 236.099151 -120.201447 
L 233.78589 -120.192894 
L 231.47263 -120.086599 
L 229.159369 -112.62961 
L 226.846108 -112.634802 
L 224.532848 -111.829848 
L 222.219587 -111.125744 
L 219.906326 -111.204873 
L 217.593066 -111.226408 
L 215.279805 -110.601584 
L 212.966544 -110.909772 
L 210.653283 -110.637173 
L 208.340023 -110.732223 
L 206.026762 -110.532419 
L 203.713501 -110.746996 
L 201.400241 -111.177156 
L 199.08698 -111.12801 
L 196.773719 -108.120611 
L 194.460459 -108.056369 
L 192.147198 -108.10662 
L 189.833937 -108.066031 
z
" style="stroke: #e8000b; stroke-opacity: 0.2"/>
    </defs>
    <g clip-path="url(#p4347732373)">
     <use xlink:href="#m4d57f0a90e" x="0" y="162" style="fill: #e8000b; fill-opacity: 0.2; stroke: #e8000b; stroke-opacity: 0.2"/>
    </g>
   </g>
   <g id="line2d_17">
    <path d="M 189.833937 94.073501 
L 192.147198 90.777365 
L 194.460459 90.775464 
L 196.773719 89.551434 
L 199.08698 88.707365 
L 201.400241 98.49648 
L 203.713501 98.843336 
L 206.026762 98.744674 
L 208.340023 101.27034 
L 210.653283 101.292605 
L 212.966544 101.370344 
L 215.279805 114.074366 
L 217.593066 113.423944 
L 219.906326 113.284304 
L 222.219587 113.228742 
L 224.532848 113.152293 
L 226.846108 113.055115 
L 229.159369 114.113751 
L 231.47263 112.916374 
L 233.78589 115.609358 
L 236.099151 115.478077 
L 238.412412 115.473059 
L 240.725672 115.336642 
L 243.038933 114.532093 
L 245.352194 111.006475 
L 247.665455 100.648722 
L 249.978715 100.274818 
L 252.291976 94.078273 
L 254.605237 90.778157 
L 256.918497 90.739321 
L 259.231758 88.706627 
L 261.545019 98.494693 
L 263.858279 98.842348 
L 266.17154 98.744858 
L 268.484801 99.093222 
L 270.798062 101.295065 
L 273.111322 101.374255 
L 275.424583 114.081717 
L 277.737844 113.42639 
L 280.051104 113.288107 
L 282.364365 113.23438 
L 284.677626 113.159699 
L 286.990886 113.064299 
L 289.304147 114.118305 
L 291.617408 112.92375 
L 293.930669 115.616187 
L 296.243929 115.486934 
L 298.55719 115.483798 
L 300.870451 115.349308 
L 303.183711 115.19208 
" clip-path="url(#p4347732373)" style="fill: none; stroke: #023eff; stroke-width: 1.5; stroke-linecap: round"/>
   </g>
   <g id="line2d_18">
    <path d="M 189.833937 96.36904 
L 192.147198 90.647628 
L 194.460459 90.641176 
L 196.773719 90.526892 
L 199.08698 87.496835 
L 201.400241 87.399916 
L 203.713501 103.422403 
L 206.026762 103.427089 
L 208.340023 109.035457 
L 210.653283 109.017015 
L 212.966544 108.987659 
L 215.279805 96.549427 
L 217.593066 89.970867 
L 219.906326 90.112695 
L 222.219587 90.238418 
L 224.532848 90.348093 
L 226.846108 90.441763 
L 229.159369 99.233398 
L 231.47263 99.799218 
L 233.78589 102.241646 
L 236.099151 102.562838 
L 238.412412 102.595826 
L 240.725672 97.756862 
L 243.038933 97.071205 
L 245.352194 97.681783 
L 247.665455 99.742815 
L 249.978715 99.695745 
L 252.291976 96.372661 
L 254.605237 90.650441 
L 256.918497 90.537325 
L 259.231758 87.504507 
L 261.545019 87.408972 
L 263.858279 103.421482 
L 266.17154 103.427135 
L 268.484801 109.036531 
L 270.798062 109.019044 
L 273.111322 108.990603 
L 275.424583 96.547234 
L 277.737844 89.957901 
L 280.051104 90.101057 
L 282.364365 90.228175 
L 284.677626 90.339209 
L 286.990886 90.43427 
L 289.304147 99.224566 
L 291.617408 99.793231 
L 293.930669 102.235714 
L 296.243929 102.559112 
L 298.55719 102.593709 
L 300.870451 97.758622 
L 303.183711 97.073061 
" clip-path="url(#p4347732373)" style="fill: none; stroke: #ff7c00; stroke-width: 1.5; stroke-linecap: round"/>
   </g>
   <g id="line2d_19">
    <path d="M 189.833937 43.691105 
L 192.147198 43.666278 
L 194.460459 43.664044 
L 196.773719 43.61633 
L 199.08698 42.96059 
L 201.400241 42.856788 
L 203.713501 42.956265 
L 206.026762 42.988068 
L 208.340023 42.376778 
L 210.653283 42.998099 
L 212.966544 39.701326 
L 215.279805 45.574155 
L 217.593066 45.526336 
L 219.906326 45.462504 
L 222.219587 45.382586 
L 224.532848 45.286705 
L 226.846108 45.174804 
L 229.159369 45.046951 
L 231.47263 32.870527 
L 233.78589 32.664946 
L 236.099151 32.444534 
L 238.412412 33.985717 
L 240.725672 35.361296 
L 243.038933 35.141454 
L 245.352194 32.600643 
L 247.665455 36.939505 
L 249.978715 36.847475 
L 252.291976 43.691464 
L 254.605237 43.667264 
L 256.918497 43.621418 
L 259.231758 42.968664 
L 261.545019 42.866716 
L 263.858279 42.952583 
L 266.17154 42.986001 
L 268.484801 42.377083 
L 270.798062 42.999249 
L 273.111322 39.706409 
L 275.424583 44.149069 
L 277.737844 45.531214 
L 280.051104 45.468712 
L 282.364365 45.390206 
L 284.677626 45.295624 
L 286.990886 45.185126 
L 289.304147 45.05865 
L 291.617408 32.887651 
L 293.930669 32.683328 
L 296.243929 32.46418 
L 298.55719 34.001766 
L 300.870451 35.379684 
L 303.183711 35.160948 
" clip-path="url(#p4347732373)" style="fill: none; stroke: #1ac938; stroke-width: 1.5; stroke-linecap: round"/>
   </g>
   <g id="line2d_20">
    <path d="M 189.833937 57.143499 
L 192.147198 57.114164 
L 194.460459 57.111907 
L 196.773719 57.066955 
L 199.08698 54.410043 
L 201.400241 54.361293 
L 203.713501 54.83188 
L 206.026762 54.832371 
L 208.340023 54.818992 
L 210.653283 54.791811 
L 212.966544 54.750955 
L 215.279805 54.696403 
L 217.593066 54.628272 
L 219.906326 54.546551 
L 222.219587 54.451068 
L 224.532848 53.812444 
L 226.846108 53.150524 
L 229.159369 53.07857 
L 231.47263 43.916478 
L 233.78589 43.802691 
L 236.099151 43.67104 
L 238.412412 43.521439 
L 240.725672 47.641401 
L 243.038933 47.462878 
L 245.352194 46.546584 
L 247.665455 50.366034 
L 249.978715 50.245722 
L 252.291976 57.14406 
L 254.605237 57.115158 
L 256.918497 57.071434 
L 259.231758 54.413491 
L 261.545019 54.36629 
L 263.858279 54.831206 
L 266.17154 54.832902 
L 268.484801 54.820678 
L 270.798062 54.794713 
L 273.111322 54.755029 
L 275.424583 54.701712 
L 277.737844 54.634784 
L 280.051104 54.554186 
L 282.364365 54.459927 
L 284.677626 53.81938 
L 286.990886 53.155846 
L 289.304147 53.085501 
L 291.617408 43.92547 
L 293.930669 43.813225 
L 296.243929 43.683079 
L 298.55719 43.535074 
L 300.870451 47.655984 
L 303.183711 47.478878 
" clip-path="url(#p4347732373)" style="fill: none; stroke: #e8000b; stroke-width: 1.5; stroke-linecap: round"/>
   </g>
   <g id="patch_6">
    <path d="M 184.166448 122.292 
L 184.166448 22.848 
" style="fill: none; stroke: #ffffff; stroke-width: 1.25; stroke-linejoin: miter; stroke-linecap: square"/>
   </g>
   <g id="patch_7">
    <path d="M 184.166448 122.292 
L 308.8512 122.292 
" style="fill: none; stroke: #ffffff; stroke-width: 1.25; stroke-linejoin: miter; stroke-linecap: square"/>
   </g>
   <g id="text_14">
    <!-- Attribute = IntraOrbital -->
    <g style="fill: #262626" transform="translate(199.423074 16.848) scale(0.096 -0.096)">
     <defs>
      <path id="ArialMT-49" d="M 597 0 
L 597 4581 
L 1203 4581 
L 1203 0 
L 597 0 
z
" transform="scale(0.015625)"/>
     </defs>
     <use xlink:href="#ArialMT-41"/>
     <use xlink:href="#ArialMT-74" x="66.699219"/>
     <use xlink:href="#ArialMT-74" x="94.482422"/>
     <use xlink:href="#ArialMT-72" x="122.265625"/>
     <use xlink:href="#ArialMT-69" x="155.566406"/>
     <use xlink:href="#ArialMT-62" x="177.783203"/>
     <use xlink:href="#ArialMT-75" x="233.398438"/>
     <use xlink:href="#ArialMT-74" x="289.013672"/>
     <use xlink:href="#ArialMT-65" x="316.796875"/>
     <use xlink:href="#ArialMT-20" x="372.412109"/>
     <use xlink:href="#ArialMT-3d" x="400.195312"/>
     <use xlink:href="#ArialMT-20" x="458.59375"/>
     <use xlink:href="#ArialMT-49" x="486.376953"/>
     <use xlink:href="#ArialMT-6e" x="514.160156"/>
     <use xlink:href="#ArialMT-74" x="569.775391"/>
     <use xlink:href="#ArialMT-72" x="597.558594"/>
     <use xlink:href="#ArialMT-61" x="630.859375"/>
     <use xlink:href="#ArialMT-4f" x="686.474609"/>
     <use xlink:href="#ArialMT-72" x="764.257812"/>
     <use xlink:href="#ArialMT-62" x="797.558594"/>
     <use xlink:href="#ArialMT-69" x="853.173828"/>
     <use xlink:href="#ArialMT-74" x="875.390625"/>
     <use xlink:href="#ArialMT-61" x="903.173828"/>
     <use xlink:href="#ArialMT-6c" x="958.789062"/>
    </g>
   </g>
  </g>
  <g id="legend_1">
   <g id="text_15">
    <!-- Direction -->
    <g style="fill: #262626" transform="translate(328.04325 58.586) scale(0.096 -0.096)">
     <defs>
      <path id="ArialMT-44" d="M 494 0 
L 494 4581 
L 2072 4581 
Q 2606 4581 2888 4516 
Q 3281 4425 3559 4188 
Q 3922 3881 4101 3404 
Q 4281 2928 4281 2316 
Q 4281 1794 4159 1391 
Q 4038 988 3847 723 
Q 3656 459 3429 307 
Q 3203 156 2883 78 
Q 2563 0 2147 0 
L 494 0 
z
M 1100 541 
L 2078 541 
Q 2531 541 2789 625 
Q 3047 709 3200 863 
Q 3416 1078 3536 1442 
Q 3656 1806 3656 2325 
Q 3656 3044 3420 3430 
Q 3184 3816 2847 3947 
Q 2603 4041 2063 4041 
L 1100 4041 
L 1100 541 
z
" transform="scale(0.015625)"/>
      <path id="ArialMT-63" d="M 2588 1216 
L 3141 1144 
Q 3050 572 2676 248 
Q 2303 -75 1759 -75 
Q 1078 -75 664 370 
Q 250 816 250 1647 
Q 250 2184 428 2587 
Q 606 2991 970 3192 
Q 1334 3394 1763 3394 
Q 2303 3394 2647 3120 
Q 2991 2847 3088 2344 
L 2541 2259 
Q 2463 2594 2264 2762 
Q 2066 2931 1784 2931 
Q 1359 2931 1093 2626 
Q 828 2322 828 1663 
Q 828 994 1084 691 
Q 1341 388 1753 388 
Q 2084 388 2306 591 
Q 2528 794 2588 1216 
z
" transform="scale(0.015625)"/>
      <path id="ArialMT-6f" d="M 213 1659 
Q 213 2581 725 3025 
Q 1153 3394 1769 3394 
Q 2453 3394 2887 2945 
Q 3322 2497 3322 1706 
Q 3322 1066 3130 698 
Q 2938 331 2570 128 
Q 2203 -75 1769 -75 
Q 1072 -75 642 372 
Q 213 819 213 1659 
z
M 791 1659 
Q 791 1022 1069 705 
Q 1347 388 1769 388 
Q 2188 388 2466 706 
Q 2744 1025 2744 1678 
Q 2744 2294 2464 2611 
Q 2184 2928 1769 2928 
Q 1347 2928 1069 2612 
Q 791 2297 791 1659 
z
" transform="scale(0.015625)"/>
     </defs>
     <use xlink:href="#ArialMT-44"/>
     <use xlink:href="#ArialMT-69" x="72.216797"/>
     <use xlink:href="#ArialMT-72" x="94.433594"/>
     <use xlink:href="#ArialMT-65" x="127.734375"/>
     <use xlink:href="#ArialMT-63" x="183.349609"/>
     <use xlink:href="#ArialMT-74" x="233.349609"/>
     <use xlink:href="#ArialMT-69" x="261.132812"/>
     <use xlink:href="#ArialMT-6f" x="283.349609"/>
     <use xlink:href="#ArialMT-6e" x="338.964844"/>
    </g>
   </g>
   <g id="line2d_21">
    <path d="M 323.1645 68.112875 
L 331.9645 68.112875 
L 340.7645 68.112875 
" style="fill: none; stroke: #023eff; stroke-width: 1.5; stroke-linecap: round"/>
   </g>
   <g id="text_16">
    <!-- East -->
    <g style="fill: #262626" transform="translate(347.8045 71.192875) scale(0.088 -0.088)">
     <defs>
      <path id="ArialMT-45" d="M 506 0 
L 506 4581 
L 3819 4581 
L 3819 4041 
L 1113 4041 
L 1113 2638 
L 3647 2638 
L 3647 2100 
L 1113 2100 
L 1113 541 
L 3925 541 
L 3925 0 
L 506 0 
z
" transform="scale(0.015625)"/>
     </defs>
     <use xlink:href="#ArialMT-45"/>
     <use xlink:href="#ArialMT-61" x="66.699219"/>
     <use xlink:href="#ArialMT-73" x="122.314453"/>
     <use xlink:href="#ArialMT-74" x="172.314453"/>
    </g>
   </g>
   <g id="line2d_22">
    <path d="M 323.1645 80.56075 
L 331.9645 80.56075 
L 340.7645 80.56075 
" style="fill: none; stroke: #ff7c00; stroke-width: 1.5; stroke-linecap: round"/>
   </g>
   <g id="text_17">
    <!-- West -->
    <g style="fill: #262626" transform="translate(347.8045 83.64075) scale(0.088 -0.088)">
     <defs>
      <path id="ArialMT-57" d="M 1294 0 
L 78 4581 
L 700 4581 
L 1397 1578 
Q 1509 1106 1591 641 
Q 1766 1375 1797 1488 
L 2669 4581 
L 3400 4581 
L 4056 2263 
Q 4303 1400 4413 641 
Q 4500 1075 4641 1638 
L 5359 4581 
L 5969 4581 
L 4713 0 
L 4128 0 
L 3163 3491 
Q 3041 3928 3019 4028 
Q 2947 3713 2884 3491 
L 1913 0 
L 1294 0 
z
" transform="scale(0.015625)"/>
     </defs>
     <use xlink:href="#ArialMT-57"/>
     <use xlink:href="#ArialMT-65" x="92.634766"/>
     <use xlink:href="#ArialMT-73" x="148.25"/>
     <use xlink:href="#ArialMT-74" x="198.25"/>
    </g>
   </g>
   <g id="line2d_23">
    <path d="M 323.1645 93.008625 
L 331.9645 93.008625 
L 340.7645 93.008625 
" style="fill: none; stroke: #1ac938; stroke-width: 1.5; stroke-linecap: round"/>
   </g>
   <g id="text_18">
    <!-- North -->
    <g style="fill: #262626" transform="translate(347.8045 96.088625) scale(0.088 -0.088)">
     <defs>
      <path id="ArialMT-4e" d="M 488 0 
L 488 4581 
L 1109 4581 
L 3516 984 
L 3516 4581 
L 4097 4581 
L 4097 0 
L 3475 0 
L 1069 3600 
L 1069 0 
L 488 0 
z
" transform="scale(0.015625)"/>
      <path id="ArialMT-68" d="M 422 0 
L 422 4581 
L 984 4581 
L 984 2938 
Q 1378 3394 1978 3394 
Q 2347 3394 2619 3248 
Q 2891 3103 3008 2847 
Q 3125 2591 3125 2103 
L 3125 0 
L 2563 0 
L 2563 2103 
Q 2563 2525 2380 2717 
Q 2197 2909 1863 2909 
Q 1613 2909 1392 2779 
Q 1172 2650 1078 2428 
Q 984 2206 984 1816 
L 984 0 
L 422 0 
z
" transform="scale(0.015625)"/>
     </defs>
     <use xlink:href="#ArialMT-4e"/>
     <use xlink:href="#ArialMT-6f" x="72.216797"/>
     <use xlink:href="#ArialMT-72" x="127.832031"/>
     <use xlink:href="#ArialMT-74" x="161.132812"/>
     <use xlink:href="#ArialMT-68" x="188.916016"/>
    </g>
   </g>
   <g id="line2d_24">
    <path d="M 323.1645 105.4565 
L 331.9645 105.4565 
L 340.7645 105.4565 
" style="fill: none; stroke: #e8000b; stroke-width: 1.5; stroke-linecap: round"/>
   </g>
   <g id="text_19">
    <!-- South -->
    <g style="fill: #262626" transform="translate(347.8045 108.5365) scale(0.088 -0.088)">
     <defs>
      <path id="ArialMT-53" d="M 288 1472 
L 859 1522 
Q 900 1178 1048 958 
Q 1197 738 1509 602 
Q 1822 466 2213 466 
Q 2559 466 2825 569 
Q 3091 672 3220 851 
Q 3350 1031 3350 1244 
Q 3350 1459 3225 1620 
Q 3100 1781 2813 1891 
Q 2628 1963 1997 2114 
Q 1366 2266 1113 2400 
Q 784 2572 623 2826 
Q 463 3081 463 3397 
Q 463 3744 659 4045 
Q 856 4347 1234 4503 
Q 1613 4659 2075 4659 
Q 2584 4659 2973 4495 
Q 3363 4331 3572 4012 
Q 3781 3694 3797 3291 
L 3216 3247 
Q 3169 3681 2898 3903 
Q 2628 4125 2100 4125 
Q 1550 4125 1298 3923 
Q 1047 3722 1047 3438 
Q 1047 3191 1225 3031 
Q 1400 2872 2139 2705 
Q 2878 2538 3153 2413 
Q 3553 2228 3743 1945 
Q 3934 1663 3934 1294 
Q 3934 928 3725 604 
Q 3516 281 3123 101 
Q 2731 -78 2241 -78 
Q 1619 -78 1198 103 
Q 778 284 539 648 
Q 300 1013 288 1472 
z
" transform="scale(0.015625)"/>
     </defs>
     <use xlink:href="#ArialMT-53"/>
     <use xlink:href="#ArialMT-6f" x="66.699219"/>
     <use xlink:href="#ArialMT-75" x="122.314453"/>
     <use xlink:href="#ArialMT-74" x="177.929688"/>
     <use xlink:href="#ArialMT-68" x="205.712891"/>
    </g>
   </g>
  </g>
 </g>
 <defs>
  <clipPath id="pbd08684694">
   <rect x="49.57024" y="22.848" width="124.684752" height="99.444"/>
  </clipPath>
  <clipPath id="p4347732373">
   <rect x="184.166448" y="22.848" width="124.684752" height="99.444"/>
  </clipPath>
 </defs>
</svg>
