<?xml version="1.0" encoding="utf-8" standalone="no"?>
<!DOCTYPE svg PUBLIC "-//W3C//DTD SVG 1.1//EN"
  "http://www.w3.org/Graphics/SVG/1.1/DTD/svg11.dtd">
<svg xmlns:xlink="http://www.w3.org/1999/xlink" width="540.72pt" height="486pt" viewBox="0 0 540.72 486" xmlns="http://www.w3.org/2000/svg" version="1.1">
 <metadata>
  <rdf:RDF xmlns:dc="http://purl.org/dc/elements/1.1/" xmlns:cc="http://creativecommons.org/ns#" xmlns:rdf="http://www.w3.org/1999/02/22-rdf-syntax-ns#">
   <cc:Work>
    <dc:type rdf:resource="http://purl.org/dc/dcmitype/StillImage"/>
    <dc:date>2024-08-04T12:30:01.497230</dc:date>
    <dc:format>image/svg+xml</dc:format>
    <dc:creator>
     <cc:Agent>
      <dc:title>Matplotlib v3.9.0, https://matplotlib.org/</dc:title>
     </cc:Agent>
    </dc:creator>
   </cc:Work>
  </rdf:RDF>
 </metadata>
 <defs>
  <style type="text/css">*{stroke-linejoin: round; stroke-linecap: butt}</style>
 </defs>
 <g id="figure_1">
  <g id="patch_1">
   <path d="M 0 486 
L 540.72 486 
L 540.72 0 
L 0 0 
z
" style="fill: #ffffff"/>
  </g>
  <g id="axes_1">
   <g id="patch_2">
    <path d="M 50.299477 151.164364 
L 180.691393 151.164364 
L 180.691393 22.848 
L 50.299477 22.848 
z
" style="fill: #eaeaf2"/>
   </g>
   <g id="matplotlib.axis_1">
    <g id="xtick_1">
     <g id="line2d_1">
      <path d="M 94.011258 151.164364 
L 94.011258 22.848 
" clip-path="url(#pd1af3b1e26)" style="fill: none; stroke: #ffffff; stroke-linecap: round"/>
     </g>
    </g>
    <g id="xtick_2">
     <g id="line2d_2">
      <path d="M 146.427438 151.164364 
L 146.427438 22.848 
" clip-path="url(#pd1af3b1e26)" style="fill: none; stroke: #ffffff; stroke-linecap: round"/>
     </g>
    </g>
   </g>
   <g id="matplotlib.axis_2">
    <g id="ytick_1">
     <g id="line2d_3">
      <path d="M 50.299477 151.164364 
L 180.691393 151.164364 
" clip-path="url(#pd1af3b1e26)" style="fill: none; stroke: #ffffff; stroke-linecap: round"/>
     </g>
     <g id="text_1">
      <!-- 0.0 -->
      <g style="fill: #262626" transform="translate(28.567477 154.313801) scale(0.088 -0.088)">
       <defs>
        <path id="ArialMT-30" d="M 266 2259 
Q 266 3072 433 3567 
Q 600 4063 929 4331 
Q 1259 4600 1759 4600 
Q 2128 4600 2406 4451 
Q 2684 4303 2865 4023 
Q 3047 3744 3150 3342 
Q 3253 2941 3253 2259 
Q 3253 1453 3087 958 
Q 2922 463 2592 192 
Q 2263 -78 1759 -78 
Q 1097 -78 719 397 
Q 266 969 266 2259 
z
M 844 2259 
Q 844 1131 1108 757 
Q 1372 384 1759 384 
Q 2147 384 2411 759 
Q 2675 1134 2675 2259 
Q 2675 3391 2411 3762 
Q 2147 4134 1753 4134 
Q 1366 4134 1134 3806 
Q 844 3388 844 2259 
z
" transform="scale(0.015625)"/>
        <path id="ArialMT-2e" d="M 581 0 
L 581 641 
L 1222 641 
L 1222 0 
L 581 0 
z
" transform="scale(0.015625)"/>
       </defs>
       <use xlink:href="#ArialMT-30"/>
       <use xlink:href="#ArialMT-2e" x="55.615234"/>
       <use xlink:href="#ArialMT-30" x="83.398438"/>
      </g>
     </g>
    </g>
    <g id="ytick_2">
     <g id="line2d_4">
      <path d="M 50.299477 125.501091 
L 180.691393 125.501091 
" clip-path="url(#pd1af3b1e26)" style="fill: none; stroke: #ffffff; stroke-linecap: round"/>
     </g>
     <g id="text_2">
      <!-- 0.2 -->
      <g style="fill: #262626" transform="translate(28.567477 128.650528) scale(0.088 -0.088)">
       <defs>
        <path id="ArialMT-32" d="M 3222 541 
L 3222 0 
L 194 0 
Q 188 203 259 391 
Q 375 700 629 1000 
Q 884 1300 1366 1694 
Q 2113 2306 2375 2664 
Q 2638 3022 2638 3341 
Q 2638 3675 2398 3904 
Q 2159 4134 1775 4134 
Q 1369 4134 1125 3890 
Q 881 3647 878 3216 
L 300 3275 
Q 359 3922 746 4261 
Q 1134 4600 1788 4600 
Q 2447 4600 2831 4234 
Q 3216 3869 3216 3328 
Q 3216 3053 3103 2787 
Q 2991 2522 2730 2228 
Q 2469 1934 1863 1422 
Q 1356 997 1212 845 
Q 1069 694 975 541 
L 3222 541 
z
" transform="scale(0.015625)"/>
       </defs>
       <use xlink:href="#ArialMT-30"/>
       <use xlink:href="#ArialMT-2e" x="55.615234"/>
       <use xlink:href="#ArialMT-32" x="83.398438"/>
      </g>
     </g>
    </g>
    <g id="ytick_3">
     <g id="line2d_5">
      <path d="M 50.299477 99.837818 
L 180.691393 99.837818 
" clip-path="url(#pd1af3b1e26)" style="fill: none; stroke: #ffffff; stroke-linecap: round"/>
     </g>
     <g id="text_3">
      <!-- 0.4 -->
      <g style="fill: #262626" transform="translate(28.567477 102.987256) scale(0.088 -0.088)">
       <defs>
        <path id="ArialMT-34" d="M 2069 0 
L 2069 1097 
L 81 1097 
L 81 1613 
L 2172 4581 
L 2631 4581 
L 2631 1613 
L 3250 1613 
L 3250 1097 
L 2631 1097 
L 2631 0 
L 2069 0 
z
M 2069 1613 
L 2069 3678 
L 634 1613 
L 2069 1613 
z
" transform="scale(0.015625)"/>
       </defs>
       <use xlink:href="#ArialMT-30"/>
       <use xlink:href="#ArialMT-2e" x="55.615234"/>
       <use xlink:href="#ArialMT-34" x="83.398438"/>
      </g>
     </g>
    </g>
    <g id="ytick_4">
     <g id="line2d_6">
      <path d="M 50.299477 74.174545 
L 180.691393 74.174545 
" clip-path="url(#pd1af3b1e26)" style="fill: none; stroke: #ffffff; stroke-linecap: round"/>
     </g>
     <g id="text_4">
      <!-- 0.6 -->
      <g style="fill: #262626" transform="translate(28.567477 77.323983) scale(0.088 -0.088)">
       <defs>
        <path id="ArialMT-36" d="M 3184 3459 
L 2625 3416 
Q 2550 3747 2413 3897 
Q 2184 4138 1850 4138 
Q 1581 4138 1378 3988 
Q 1113 3794 959 3422 
Q 806 3050 800 2363 
Q 1003 2672 1297 2822 
Q 1591 2972 1913 2972 
Q 2475 2972 2870 2558 
Q 3266 2144 3266 1488 
Q 3266 1056 3080 686 
Q 2894 316 2569 119 
Q 2244 -78 1831 -78 
Q 1128 -78 684 439 
Q 241 956 241 2144 
Q 241 3472 731 4075 
Q 1159 4600 1884 4600 
Q 2425 4600 2770 4297 
Q 3116 3994 3184 3459 
z
M 888 1484 
Q 888 1194 1011 928 
Q 1134 663 1356 523 
Q 1578 384 1822 384 
Q 2178 384 2434 671 
Q 2691 959 2691 1453 
Q 2691 1928 2437 2201 
Q 2184 2475 1800 2475 
Q 1419 2475 1153 2201 
Q 888 1928 888 1484 
z
" transform="scale(0.015625)"/>
       </defs>
       <use xlink:href="#ArialMT-30"/>
       <use xlink:href="#ArialMT-2e" x="55.615234"/>
       <use xlink:href="#ArialMT-36" x="83.398438"/>
      </g>
     </g>
    </g>
    <g id="ytick_5">
     <g id="line2d_7">
      <path d="M 50.299477 48.511273 
L 180.691393 48.511273 
" clip-path="url(#pd1af3b1e26)" style="fill: none; stroke: #ffffff; stroke-linecap: round"/>
     </g>
     <g id="text_5">
      <!-- 0.8 -->
      <g style="fill: #262626" transform="translate(28.567477 51.66071) scale(0.088 -0.088)">
       <defs>
        <path id="ArialMT-38" d="M 1131 2484 
Q 781 2613 612 2850 
Q 444 3088 444 3419 
Q 444 3919 803 4259 
Q 1163 4600 1759 4600 
Q 2359 4600 2725 4251 
Q 3091 3903 3091 3403 
Q 3091 3084 2923 2848 
Q 2756 2613 2416 2484 
Q 2838 2347 3058 2040 
Q 3278 1734 3278 1309 
Q 3278 722 2862 322 
Q 2447 -78 1769 -78 
Q 1091 -78 675 323 
Q 259 725 259 1325 
Q 259 1772 486 2073 
Q 713 2375 1131 2484 
z
M 1019 3438 
Q 1019 3113 1228 2906 
Q 1438 2700 1772 2700 
Q 2097 2700 2305 2904 
Q 2513 3109 2513 3406 
Q 2513 3716 2298 3927 
Q 2084 4138 1766 4138 
Q 1444 4138 1231 3931 
Q 1019 3725 1019 3438 
z
M 838 1322 
Q 838 1081 952 856 
Q 1066 631 1291 507 
Q 1516 384 1775 384 
Q 2178 384 2440 643 
Q 2703 903 2703 1303 
Q 2703 1709 2433 1975 
Q 2163 2241 1756 2241 
Q 1359 2241 1098 1978 
Q 838 1716 838 1322 
z
" transform="scale(0.015625)"/>
       </defs>
       <use xlink:href="#ArialMT-30"/>
       <use xlink:href="#ArialMT-2e" x="55.615234"/>
       <use xlink:href="#ArialMT-38" x="83.398438"/>
      </g>
     </g>
    </g>
    <g id="ytick_6">
     <g id="line2d_8">
      <path d="M 50.299477 22.848 
L 180.691393 22.848 
" clip-path="url(#pd1af3b1e26)" style="fill: none; stroke: #ffffff; stroke-linecap: round"/>
     </g>
     <g id="text_6">
      <!-- 1.0 -->
      <g style="fill: #262626" transform="translate(28.567477 25.997437) scale(0.088 -0.088)">
       <defs>
        <path id="ArialMT-31" d="M 2384 0 
L 1822 0 
L 1822 3584 
Q 1619 3391 1289 3197 
Q 959 3003 697 2906 
L 697 3450 
Q 1169 3672 1522 3987 
Q 1875 4303 2022 4600 
L 2384 4600 
L 2384 0 
z
" transform="scale(0.015625)"/>
       </defs>
       <use xlink:href="#ArialMT-31"/>
       <use xlink:href="#ArialMT-2e" x="55.615234"/>
       <use xlink:href="#ArialMT-30" x="83.398438"/>
      </g>
     </g>
    </g>
    <g id="text_7">
     <!-- Proportion -->
     <g style="fill: #262626" transform="translate(22.659477 109.150682) rotate(-90) scale(0.096 -0.096)">
      <defs>
       <path id="ArialMT-50" d="M 494 0 
L 494 4581 
L 2222 4581 
Q 2678 4581 2919 4538 
Q 3256 4481 3484 4323 
Q 3713 4166 3852 3881 
Q 3991 3597 3991 3256 
Q 3991 2672 3619 2267 
Q 3247 1863 2275 1863 
L 1100 1863 
L 1100 0 
L 494 0 
z
M 1100 2403 
L 2284 2403 
Q 2872 2403 3119 2622 
Q 3366 2841 3366 3238 
Q 3366 3525 3220 3729 
Q 3075 3934 2838 4000 
Q 2684 4041 2272 4041 
L 1100 4041 
L 1100 2403 
z
" transform="scale(0.015625)"/>
       <path id="ArialMT-72" d="M 416 0 
L 416 3319 
L 922 3319 
L 922 2816 
Q 1116 3169 1280 3281 
Q 1444 3394 1641 3394 
Q 1925 3394 2219 3213 
L 2025 2691 
Q 1819 2813 1613 2813 
Q 1428 2813 1281 2702 
Q 1134 2591 1072 2394 
Q 978 2094 978 1738 
L 978 0 
L 416 0 
z
" transform="scale(0.015625)"/>
       <path id="ArialMT-6f" d="M 213 1659 
Q 213 2581 725 3025 
Q 1153 3394 1769 3394 
Q 2453 3394 2887 2945 
Q 3322 2497 3322 1706 
Q 3322 1066 3130 698 
Q 2938 331 2570 128 
Q 2203 -75 1769 -75 
Q 1072 -75 642 372 
Q 213 819 213 1659 
z
M 791 1659 
Q 791 1022 1069 705 
Q 1347 388 1769 388 
Q 2188 388 2466 706 
Q 2744 1025 2744 1678 
Q 2744 2294 2464 2611 
Q 2184 2928 1769 2928 
Q 1347 2928 1069 2612 
Q 791 2297 791 1659 
z
" transform="scale(0.015625)"/>
       <path id="ArialMT-70" d="M 422 -1272 
L 422 3319 
L 934 3319 
L 934 2888 
Q 1116 3141 1344 3267 
Q 1572 3394 1897 3394 
Q 2322 3394 2647 3175 
Q 2972 2956 3137 2557 
Q 3303 2159 3303 1684 
Q 3303 1175 3120 767 
Q 2938 359 2589 142 
Q 2241 -75 1856 -75 
Q 1575 -75 1351 44 
Q 1128 163 984 344 
L 984 -1272 
L 422 -1272 
z
M 931 1641 
Q 931 1000 1190 694 
Q 1450 388 1819 388 
Q 2194 388 2461 705 
Q 2728 1022 2728 1688 
Q 2728 2322 2467 2637 
Q 2206 2953 1844 2953 
Q 1484 2953 1207 2617 
Q 931 2281 931 1641 
z
" transform="scale(0.015625)"/>
       <path id="ArialMT-74" d="M 1650 503 
L 1731 6 
Q 1494 -44 1306 -44 
Q 1000 -44 831 53 
Q 663 150 594 308 
Q 525 466 525 972 
L 525 2881 
L 113 2881 
L 113 3319 
L 525 3319 
L 525 4141 
L 1084 4478 
L 1084 3319 
L 1650 3319 
L 1650 2881 
L 1084 2881 
L 1084 941 
Q 1084 700 1114 631 
Q 1144 563 1211 522 
Q 1278 481 1403 481 
Q 1497 481 1650 503 
z
" transform="scale(0.015625)"/>
       <path id="ArialMT-69" d="M 425 3934 
L 425 4581 
L 988 4581 
L 988 3934 
L 425 3934 
z
M 425 0 
L 425 3319 
L 988 3319 
L 988 0 
L 425 0 
z
" transform="scale(0.015625)"/>
       <path id="ArialMT-6e" d="M 422 0 
L 422 3319 
L 928 3319 
L 928 2847 
Q 1294 3394 1984 3394 
Q 2284 3394 2536 3286 
Q 2788 3178 2913 3003 
Q 3038 2828 3088 2588 
Q 3119 2431 3119 2041 
L 3119 0 
L 2556 0 
L 2556 2019 
Q 2556 2363 2490 2533 
Q 2425 2703 2258 2804 
Q 2091 2906 1866 2906 
Q 1506 2906 1245 2678 
Q 984 2450 984 1813 
L 984 0 
L 422 0 
z
" transform="scale(0.015625)"/>
      </defs>
      <use xlink:href="#ArialMT-50"/>
      <use xlink:href="#ArialMT-72" x="66.699219"/>
      <use xlink:href="#ArialMT-6f" x="100"/>
      <use xlink:href="#ArialMT-70" x="155.615234"/>
      <use xlink:href="#ArialMT-6f" x="211.230469"/>
      <use xlink:href="#ArialMT-72" x="266.845703"/>
      <use xlink:href="#ArialMT-74" x="300.146484"/>
      <use xlink:href="#ArialMT-69" x="327.929688"/>
      <use xlink:href="#ArialMT-6f" x="350.146484"/>
      <use xlink:href="#ArialMT-6e" x="405.761719"/>
     </g>
    </g>
   </g>
   <g id="line2d_9">
    <path d="M 56.757671 151.164364 
L 56.757922 149.90636 
L 58.012542 149.90636 
L 58.113203 144.874346 
L 58.161157 144.874346 
L 58.216393 143.616342 
L 58.588525 143.616342 
L 58.698189 136.068321 
L 58.741604 136.068321 
L 58.741604 135.439319 
L 60.186518 135.439319 
L 60.276453 133.552314 
L 60.403554 133.552314 
L 60.481695 126.633294 
L 62.633567 126.633294 
L 62.723454 120.972278 
L 62.756304 120.972278 
L 62.848576 117.198267 
L 62.896608 117.198267 
L 62.989278 107.763241 
L 63.018257 107.763241 
L 63.121778 102.102225 
L 63.175575 102.102225 
L 63.251554 98.957216 
L 63.321432 98.957216 
L 63.402472 97.699212 
L 63.490573 97.699212 
L 63.594214 95.183205 
L 63.6876 95.183205 
L 63.796299 92.667198 
L 63.806029 92.667198 
L 63.806029 92.038196 
L 64.266436 92.038196 
L 64.266436 91.409194 
L 65.023096 91.409194 
L 65.095748 86.37718 
L 66.063867 86.37718 
L 66.06902 83.232171 
L 67.491352 83.232171 
L 67.564378 75.68415 
L 67.96226 75.68415 
L 68.062552 67.507127 
L 68.08938 67.507127 
L 68.169298 57.443098 
L 68.212388 57.443098 
L 68.270146 54.927091 
L 68.324089 54.927091 
L 68.324089 54.298089 
L 68.837454 54.298089 
L 68.87733 52.411084 
L 69.793619 52.411084 
L 69.902661 44.234061 
L 69.931776 44.234061 
L 69.934703 42.976057 
L 70.761768 42.976057 
L 70.842571 39.831048 
L 70.959091 39.831048 
L 70.959273 38.573045 
L 71.439113 38.573045 
L 71.496565 36.686039 
L 71.553756 36.686039 
L 71.621609 34.799034 
L 72.457622 34.799034 
L 72.465868 32.283027 
L 72.988428 32.283027 
L 73.003507 31.025023 
L 74.061966 31.025023 
L 74.061966 30.396021 
L 75.68931 30.396021 
L 75.742009 26.622011 
L 76.646747 26.622011 
L 76.728096 22.848 
L 76.728096 22.848 
" clip-path="url(#pd1af3b1e26)" style="fill: none; stroke: #023eff; stroke-width: 1.5; stroke-linecap: round"/>
   </g>
   <g id="line2d_10">
    <path d="M 56.758031 151.164364 
L 56.758373 149.930552 
L 58.689355 149.930552 
L 58.735476 148.696741 
L 60.320024 148.696741 
L 60.416447 141.293874 
L 60.431819 141.293874 
L 60.478516 135.741724 
L 60.655564 135.741724 
L 60.752368 128.338857 
L 60.789819 128.338857 
L 60.897781 124.637423 
L 62.838362 124.637423 
L 62.842607 123.403612 
L 63.079086 123.403612 
L 63.160378 120.93599 
L 63.241437 120.93599 
L 63.241437 120.319084 
L 63.722569 120.319084 
L 63.818688 112.916217 
L 63.852334 112.916217 
L 63.899069 110.448594 
L 64.453431 110.448594 
L 64.51788 106.747161 
L 64.919759 106.747161 
L 65.030228 100.578105 
L 65.031684 100.578105 
L 65.115778 93.792143 
L 65.435779 93.792143 
L 65.5031 91.324521 
L 65.564604 91.324521 
L 65.643733 88.856899 
L 65.715427 88.856899 
L 65.72247 87.623087 
L 67.531774 87.623087 
L 67.63062 82.687843 
L 67.66488 82.687843 
L 67.668241 81.454031 
L 67.881176 81.454031 
L 67.940903 75.901881 
L 68.096868 75.901881 
L 68.097624 74.66807 
L 69.004313 74.66807 
L 69.004407 73.434259 
L 69.181293 73.434259 
L 69.227784 64.79758 
L 69.789944 64.79758 
L 69.848036 58.628524 
L 70.789412 58.628524 
L 70.819658 55.543997 
L 71.545969 55.543997 
L 71.623897 48.141129 
L 72.132864 48.141129 
L 72.214289 43.205885 
L 72.24793 43.205885 
L 72.251326 41.972073 
L 72.777647 41.972073 
L 72.844193 39.504451 
L 72.903439 39.504451 
L 72.977951 35.803017 
L 73.044049 35.803017 
L 73.050455 34.569206 
L 74.109648 34.569206 
L 74.208236 28.40015 
L 74.236088 28.40015 
L 74.268238 26.549434 
L 75.006494 26.549434 
L 75.006516 25.315622 
L 75.536327 25.315622 
L 75.598316 22.848 
L 75.598316 22.848 
" clip-path="url(#pd1af3b1e26)" style="fill: none; stroke: #ff7c00; stroke-width: 1.5; stroke-linecap: round"/>
   </g>
   <g id="line2d_11">
    <path d="M 70.463988 151.164364 
L 70.572462 141.41232 
L 70.575635 141.41232 
L 70.661548 138.845993 
L 70.708903 138.845993 
L 70.771846 136.792931 
L 70.83036 136.792931 
L 70.906603 134.226604 
L 70.981051 134.226604 
L 70.983177 133.200073 
L 75.422578 133.200073 
L 75.51314 128.067418 
L 75.544981 128.067418 
L 75.633615 124.987825 
L 75.67946 124.987825 
L 75.739602 122.934764 
L 75.794952 122.934764 
L 75.866463 120.881702 
L 77.717893 120.881702 
L 77.800682 115.235782 
L 77.842831 115.235782 
L 77.893415 114.209251 
L 81.224797 114.209251 
L 81.285526 112.156189 
L 81.48751 112.156189 
L 81.597307 109.589862 
L 81.602534 109.589862 
L 81.666347 108.050065 
L 81.729628 108.050065 
L 81.81104 105.997004 
L 81.892108 105.997004 
L 81.978991 104.970473 
L 82.071781 104.970473 
L 82.071781 104.457207 
L 82.272173 104.457207 
L 82.353645 100.351084 
L 82.385202 100.351084 
L 82.478847 97.271491 
L 83.709139 97.271491 
L 83.784301 95.218429 
L 83.825095 95.218429 
L 83.930246 92.138836 
L 83.981613 92.138836 
L 84.047154 90.085775 
L 85.039223 90.085775 
L 85.039223 89.572509 
L 85.686919 89.572509 
L 85.750683 87.519447 
L 85.810357 87.519447 
L 85.888634 85.466385 
L 85.960445 85.466385 
L 86.052983 83.413324 
L 86.13669 83.413324 
L 86.243269 81.360262 
L 86.338678 81.360262 
L 86.449191 79.820465 
L 86.459049 79.820465 
L 86.459049 79.3072 
L 87.665182 79.3072 
L 87.773024 75.714342 
L 87.777075 75.714342 
L 87.777075 75.201076 
L 88.914854 75.201076 
L 88.997058 71.608218 
L 89.02833 71.608218 
L 89.110706 68.528625 
L 89.151561 68.528625 
L 89.256039 65.449033 
L 89.310986 65.449033 
L 89.37102 63.395971 
L 89.428502 63.395971 
L 89.434097 62.36944 
L 90.428429 62.36944 
L 90.505059 59.803113 
L 90.543725 59.803113 
L 90.596085 57.236785 
L 90.77239 57.236785 
L 90.853595 55.183724 
L 90.928057 55.183724 
L 91.024054 53.130662 
L 91.110893 53.130662 
L 91.212472 51.590865 
L 91.584755 51.590865 
L 91.670766 49.537804 
L 92.905069 49.537804 
L 92.907276 48.511273 
L 101.967039 48.511273 
L 102.063484 45.43168 
L 102.099715 45.43168 
L 102.196512 42.352087 
L 102.24488 42.352087 
L 102.307313 40.299025 
L 102.363815 40.299025 
L 102.435874 38.245964 
L 102.500539 38.245964 
L 102.578428 36.192902 
L 102.651258 36.192902 
L 102.74288 34.13984 
L 102.828436 34.13984 
L 102.92596 32.086778 
L 103.015918 32.086778 
L 103.03391 30.033716 
L 104.05534 30.033716 
L 104.111087 29.007185 
L 104.175099 29.007185 
L 104.249293 27.467389 
L 104.327411 27.467389 
L 104.422168 24.901062 
L 104.509691 24.901062 
L 104.612814 23.361265 
L 104.622116 23.361265 
L 104.622116 22.848 
L 104.622116 22.848 
" clip-path="url(#pd1af3b1e26)" style="fill: none; stroke: #1ac938; stroke-width: 1.5; stroke-linecap: round"/>
   </g>
   <g id="line2d_12">
    <path d="M 70.463988 151.164364 
L 70.572462 141.172516 
L 70.575635 141.172516 
L 70.661548 138.543082 
L 70.708899 138.543082 
L 70.771846 136.439535 
L 70.83036 136.439535 
L 70.906603 133.810101 
L 70.981051 133.810101 
L 70.983177 132.758328 
L 77.842831 132.758328 
L 77.893419 131.706554 
L 79.920887 131.706554 
L 79.96546 128.025347 
L 81.224797 128.025347 
L 81.334255 122.240593 
L 81.336638 122.240593 
L 81.44474 117.507613 
L 81.48751 117.507613 
L 81.597307 114.878179 
L 81.602534 114.878179 
L 81.666347 113.300519 
L 81.729624 113.300519 
L 81.81104 111.196972 
L 81.892108 111.196972 
L 81.978991 110.145198 
L 82.071781 110.145198 
L 82.071781 109.619311 
L 82.272173 109.619311 
L 82.35265 105.412218 
L 82.385206 105.412218 
L 82.478847 102.256897 
L 83.016714 102.256897 
L 83.111771 99.101577 
L 83.152985 99.101577 
L 83.255024 95.946256 
L 83.306412 95.946256 
L 83.311507 94.894483 
L 83.529226 94.894483 
L 83.639104 85.954408 
L 83.641603 85.954408 
L 83.743179 82.273201 
L 83.780574 82.273201 
L 83.87775 79.117881 
L 83.925523 79.117881 
L 83.930246 78.066107 
L 84.505163 78.066107 
L 84.591598 72.80724 
L 84.61736 72.80724 
L 84.722215 68.600146 
L 84.758566 68.600146 
L 84.762153 67.548373 
L 85.716716 67.548373 
L 85.751691 61.237732 
L 86.191361 61.237732 
L 86.2788 59.134185 
L 87.804993 59.134185 
L 87.887569 54.401204 
L 87.918641 54.401204 
L 88.000902 51.245884 
L 88.04186 51.245884 
L 88.146862 48.090563 
L 88.197922 48.090563 
L 88.262747 45.987016 
L 88.320761 45.987016 
L 88.394019 43.883469 
L 89.315253 43.883469 
L 89.402952 39.676376 
L 89.442531 39.676376 
L 89.550393 37.046942 
L 89.555691 37.046942 
L 89.621064 35.469282 
L 89.687072 35.469282 
L 89.773275 33.891621 
L 89.953823 33.891621 
L 89.953823 33.365735 
L 99.099441 33.365735 
L 99.208843 29.158641 
L 99.245286 29.158641 
L 99.291159 27.055094 
L 100.112761 27.055094 
L 100.220739 23.899773 
L 100.280505 23.899773 
L 100.345505 22.848 
L 100.345505 22.848 
" clip-path="url(#pd1af3b1e26)" style="fill: none; stroke: #e8000b; stroke-width: 1.5; stroke-linecap: round"/>
   </g>
   <g id="patch_3">
    <path d="M 50.299477 151.164364 
L 50.299477 22.848 
" style="fill: none; stroke: #ffffff; stroke-width: 1.25; stroke-linejoin: miter; stroke-linecap: square"/>
   </g>
   <g id="patch_4">
    <path d="M 50.299477 151.164364 
L 180.691393 151.164364 
" style="fill: none; stroke: #ffffff; stroke-width: 1.25; stroke-linejoin: miter; stroke-linecap: square"/>
   </g>
   <g id="text_8">
    <!-- Attribute = Landlocked -->
    <g style="fill: #262626" transform="translate(67.598935 16.848) scale(0.096 -0.096)">
     <defs>
      <path id="ArialMT-41" d="M -9 0 
L 1750 4581 
L 2403 4581 
L 4278 0 
L 3588 0 
L 3053 1388 
L 1138 1388 
L 634 0 
L -9 0 
z
M 1313 1881 
L 2866 1881 
L 2388 3150 
Q 2169 3728 2063 4100 
Q 1975 3659 1816 3225 
L 1313 1881 
z
" transform="scale(0.015625)"/>
      <path id="ArialMT-62" d="M 941 0 
L 419 0 
L 419 4581 
L 981 4581 
L 981 2947 
Q 1338 3394 1891 3394 
Q 2197 3394 2470 3270 
Q 2744 3147 2920 2923 
Q 3097 2700 3197 2384 
Q 3297 2069 3297 1709 
Q 3297 856 2875 390 
Q 2453 -75 1863 -75 
Q 1275 -75 941 416 
L 941 0 
z
M 934 1684 
Q 934 1088 1097 822 
Q 1363 388 1816 388 
Q 2184 388 2453 708 
Q 2722 1028 2722 1663 
Q 2722 2313 2464 2622 
Q 2206 2931 1841 2931 
Q 1472 2931 1203 2611 
Q 934 2291 934 1684 
z
" transform="scale(0.015625)"/>
      <path id="ArialMT-75" d="M 2597 0 
L 2597 488 
Q 2209 -75 1544 -75 
Q 1250 -75 995 37 
Q 741 150 617 320 
Q 494 491 444 738 
Q 409 903 409 1263 
L 409 3319 
L 972 3319 
L 972 1478 
Q 972 1038 1006 884 
Q 1059 663 1231 536 
Q 1403 409 1656 409 
Q 1909 409 2131 539 
Q 2353 669 2445 892 
Q 2538 1116 2538 1541 
L 2538 3319 
L 3100 3319 
L 3100 0 
L 2597 0 
z
" transform="scale(0.015625)"/>
      <path id="ArialMT-65" d="M 2694 1069 
L 3275 997 
Q 3138 488 2766 206 
Q 2394 -75 1816 -75 
Q 1088 -75 661 373 
Q 234 822 234 1631 
Q 234 2469 665 2931 
Q 1097 3394 1784 3394 
Q 2450 3394 2872 2941 
Q 3294 2488 3294 1666 
Q 3294 1616 3291 1516 
L 816 1516 
Q 847 969 1125 678 
Q 1403 388 1819 388 
Q 2128 388 2347 550 
Q 2566 713 2694 1069 
z
M 847 1978 
L 2700 1978 
Q 2663 2397 2488 2606 
Q 2219 2931 1791 2931 
Q 1403 2931 1139 2672 
Q 875 2413 847 1978 
z
" transform="scale(0.015625)"/>
      <path id="ArialMT-20" transform="scale(0.015625)"/>
      <path id="ArialMT-3d" d="M 3381 2694 
L 356 2694 
L 356 3219 
L 3381 3219 
L 3381 2694 
z
M 3381 1303 
L 356 1303 
L 356 1828 
L 3381 1828 
L 3381 1303 
z
" transform="scale(0.015625)"/>
      <path id="ArialMT-4c" d="M 469 0 
L 469 4581 
L 1075 4581 
L 1075 541 
L 3331 541 
L 3331 0 
L 469 0 
z
" transform="scale(0.015625)"/>
      <path id="ArialMT-61" d="M 2588 409 
Q 2275 144 1986 34 
Q 1697 -75 1366 -75 
Q 819 -75 525 192 
Q 231 459 231 875 
Q 231 1119 342 1320 
Q 453 1522 633 1644 
Q 813 1766 1038 1828 
Q 1203 1872 1538 1913 
Q 2219 1994 2541 2106 
Q 2544 2222 2544 2253 
Q 2544 2597 2384 2738 
Q 2169 2928 1744 2928 
Q 1347 2928 1158 2789 
Q 969 2650 878 2297 
L 328 2372 
Q 403 2725 575 2942 
Q 747 3159 1072 3276 
Q 1397 3394 1825 3394 
Q 2250 3394 2515 3294 
Q 2781 3194 2906 3042 
Q 3031 2891 3081 2659 
Q 3109 2516 3109 2141 
L 3109 1391 
Q 3109 606 3145 398 
Q 3181 191 3288 0 
L 2700 0 
Q 2613 175 2588 409 
z
M 2541 1666 
Q 2234 1541 1622 1453 
Q 1275 1403 1131 1340 
Q 988 1278 909 1158 
Q 831 1038 831 891 
Q 831 666 1001 516 
Q 1172 366 1500 366 
Q 1825 366 2078 508 
Q 2331 650 2450 897 
Q 2541 1088 2541 1459 
L 2541 1666 
z
" transform="scale(0.015625)"/>
      <path id="ArialMT-64" d="M 2575 0 
L 2575 419 
Q 2259 -75 1647 -75 
Q 1250 -75 917 144 
Q 584 363 401 755 
Q 219 1147 219 1656 
Q 219 2153 384 2558 
Q 550 2963 881 3178 
Q 1213 3394 1622 3394 
Q 1922 3394 2156 3267 
Q 2391 3141 2538 2938 
L 2538 4581 
L 3097 4581 
L 3097 0 
L 2575 0 
z
M 797 1656 
Q 797 1019 1065 703 
Q 1334 388 1700 388 
Q 2069 388 2326 689 
Q 2584 991 2584 1609 
Q 2584 2291 2321 2609 
Q 2059 2928 1675 2928 
Q 1300 2928 1048 2622 
Q 797 2316 797 1656 
z
" transform="scale(0.015625)"/>
      <path id="ArialMT-6c" d="M 409 0 
L 409 4581 
L 972 4581 
L 972 0 
L 409 0 
z
" transform="scale(0.015625)"/>
      <path id="ArialMT-63" d="M 2588 1216 
L 3141 1144 
Q 3050 572 2676 248 
Q 2303 -75 1759 -75 
Q 1078 -75 664 370 
Q 250 816 250 1647 
Q 250 2184 428 2587 
Q 606 2991 970 3192 
Q 1334 3394 1763 3394 
Q 2303 3394 2647 3120 
Q 2991 2847 3088 2344 
L 2541 2259 
Q 2463 2594 2264 2762 
Q 2066 2931 1784 2931 
Q 1359 2931 1093 2626 
Q 828 2322 828 1663 
Q 828 994 1084 691 
Q 1341 388 1753 388 
Q 2084 388 2306 591 
Q 2528 794 2588 1216 
z
" transform="scale(0.015625)"/>
      <path id="ArialMT-6b" d="M 425 0 
L 425 4581 
L 988 4581 
L 988 1969 
L 2319 3319 
L 3047 3319 
L 1778 2088 
L 3175 0 
L 2481 0 
L 1384 1697 
L 988 1316 
L 988 0 
L 425 0 
z
" transform="scale(0.015625)"/>
     </defs>
     <use xlink:href="#ArialMT-41"/>
     <use xlink:href="#ArialMT-74" x="66.699219"/>
     <use xlink:href="#ArialMT-74" x="94.482422"/>
     <use xlink:href="#ArialMT-72" x="122.265625"/>
     <use xlink:href="#ArialMT-69" x="155.566406"/>
     <use xlink:href="#ArialMT-62" x="177.783203"/>
     <use xlink:href="#ArialMT-75" x="233.398438"/>
     <use xlink:href="#ArialMT-74" x="289.013672"/>
     <use xlink:href="#ArialMT-65" x="316.796875"/>
     <use xlink:href="#ArialMT-20" x="372.412109"/>
     <use xlink:href="#ArialMT-3d" x="400.195312"/>
     <use xlink:href="#ArialMT-20" x="458.59375"/>
     <use xlink:href="#ArialMT-4c" x="486.376953"/>
     <use xlink:href="#ArialMT-61" x="541.992188"/>
     <use xlink:href="#ArialMT-6e" x="597.607422"/>
     <use xlink:href="#ArialMT-64" x="653.222656"/>
     <use xlink:href="#ArialMT-6c" x="708.837891"/>
     <use xlink:href="#ArialMT-6f" x="731.054688"/>
     <use xlink:href="#ArialMT-63" x="786.669922"/>
     <use xlink:href="#ArialMT-6b" x="836.669922"/>
     <use xlink:href="#ArialMT-65" x="886.669922"/>
     <use xlink:href="#ArialMT-64" x="942.285156"/>
    </g>
   </g>
  </g>
  <g id="axes_2">
   <g id="patch_5">
    <path d="M 200.25018 151.164364 
L 330.642096 151.164364 
L 330.642096 22.848 
L 200.25018 22.848 
z
" style="fill: #eaeaf2"/>
   </g>
   <g id="matplotlib.axis_3">
    <g id="xtick_3">
     <g id="line2d_13">
      <path d="M 243.961962 151.164364 
L 243.961962 22.848 
" clip-path="url(#p133d98f7ba)" style="fill: none; stroke: #ffffff; stroke-linecap: round"/>
     </g>
    </g>
    <g id="xtick_4">
     <g id="line2d_14">
      <path d="M 296.378142 151.164364 
L 296.378142 22.848 
" clip-path="url(#p133d98f7ba)" style="fill: none; stroke: #ffffff; stroke-linecap: round"/>
     </g>
    </g>
   </g>
   <g id="matplotlib.axis_4">
    <g id="ytick_7">
     <g id="line2d_15">
      <path d="M 200.25018 151.164364 
L 330.642096 151.164364 
" clip-path="url(#p133d98f7ba)" style="fill: none; stroke: #ffffff; stroke-linecap: round"/>
     </g>
    </g>
    <g id="ytick_8">
     <g id="line2d_16">
      <path d="M 200.25018 125.501091 
L 330.642096 125.501091 
" clip-path="url(#p133d98f7ba)" style="fill: none; stroke: #ffffff; stroke-linecap: round"/>
     </g>
    </g>
    <g id="ytick_9">
     <g id="line2d_17">
      <path d="M 200.25018 99.837818 
L 330.642096 99.837818 
" clip-path="url(#p133d98f7ba)" style="fill: none; stroke: #ffffff; stroke-linecap: round"/>
     </g>
    </g>
    <g id="ytick_10">
     <g id="line2d_18">
      <path d="M 200.25018 74.174545 
L 330.642096 74.174545 
" clip-path="url(#p133d98f7ba)" style="fill: none; stroke: #ffffff; stroke-linecap: round"/>
     </g>
    </g>
    <g id="ytick_11">
     <g id="line2d_19">
      <path d="M 200.25018 48.511273 
L 330.642096 48.511273 
" clip-path="url(#p133d98f7ba)" style="fill: none; stroke: #ffffff; stroke-linecap: round"/>
     </g>
    </g>
    <g id="ytick_12">
     <g id="line2d_20">
      <path d="M 200.25018 22.848 
L 330.642096 22.848 
" clip-path="url(#p133d98f7ba)" style="fill: none; stroke: #ffffff; stroke-linecap: round"/>
     </g>
    </g>
   </g>
   <g id="line2d_21">
    <path d="M 216.979751 151.164364 
L 217.082028 144.827753 
L 217.120221 144.827753 
L 217.17359 142.71555 
L 217.441791 142.71555 
L 217.482635 136.378939 
L 225.266475 136.378939 
L 225.371926 128.986227 
L 225.408133 128.986227 
L 225.51112 125.817921 
L 225.565223 125.817921 
L 225.636758 123.705718 
L 225.703054 123.705718 
L 225.789246 121.593514 
L 226.851174 121.593514 
L 226.910004 119.481311 
L 226.964083 119.481311 
L 227.033906 117.369107 
L 227.097291 117.369107 
L 227.103509 116.313006 
L 228.186576 116.313006 
L 228.282969 112.088599 
L 230.020911 112.088599 
L 230.071762 106.280039 
L 296.876758 106.280039 
L 296.923331 96.247072 
L 298.846564 96.247072 
L 298.898007 94.66292 
L 302.340954 94.66292 
L 302.437547 88.326309 
L 302.462845 88.326309 
L 302.571659 83.0458 
L 302.581664 83.0458 
L 302.661725 78.821393 
L 302.70813 78.821393 
L 302.712681 77.765291 
L 303.55651 77.765291 
L 303.64496 73.012834 
L 303.681239 73.012834 
L 303.682271 71.956732 
L 304.187925 71.956732 
L 304.291684 59.811562 
L 304.306185 59.811562 
L 304.345248 56.643256 
L 304.423157 56.643256 
L 304.427292 55.587155 
L 304.762611 55.587155 
L 304.769505 54.531053 
L 305.566122 54.531053 
L 305.677007 51.362747 
L 305.815878 51.362747 
L 305.819213 50.306646 
L 307.0521 50.306646 
L 307.134216 46.61029 
L 307.179677 46.61029 
L 307.241446 43.441984 
L 308.038326 43.441984 
L 308.099072 37.105374 
L 308.349875 37.105374 
L 308.433975 34.465119 
L 308.482523 34.465119 
L 308.49636 32.880967 
L 309.512204 32.880967 
L 309.604229 25.488254 
L 311.244706 25.488254 
L 311.278994 22.848 
L 311.278994 22.848 
" clip-path="url(#p133d98f7ba)" style="fill: none; stroke: #ff7c00; stroke-width: 1.5; stroke-linecap: round"/>
   </g>
   <g id="line2d_22">
    <path d="M 206.811714 151.164364 
L 206.901196 126.21396 
L 206.936303 126.21396 
L 207.038069 115.520929 
L 207.092192 115.520929 
L 207.097599 111.956586 
L 209.185103 111.956586 
L 209.293719 101.263556 
L 209.349614 101.263556 
L 209.355194 97.699212 
L 212.896578 97.699212 
L 212.997969 58.491434 
L 213.026342 58.491434 
L 213.133473 37.105374 
L 213.186054 37.105374 
L 213.255633 29.976687 
L 213.320004 29.976687 
L 213.403634 22.848 
L 213.403634 22.848 
" clip-path="url(#p133d98f7ba)" style="fill: none; stroke: #1ac938; stroke-width: 1.5; stroke-linecap: round"/>
   </g>
   <g id="line2d_23">
    <path d="M 207.066735 151.164364 
L 207.169218 137.813528 
L 207.205125 137.813528 
L 207.254784 134.846676 
L 211.621107 134.846676 
L 211.632264 131.879823 
L 212.403994 131.879823 
L 212.498224 120.012414 
L 212.531871 120.012414 
L 212.627674 115.562136 
L 213.324579 115.562136 
L 213.379693 112.595283 
L 213.603106 112.595283 
L 213.698659 104.436439 
L 213.729557 104.436439 
L 213.732726 102.953013 
L 215.045228 102.953013 
L 215.145144 97.019308 
L 215.183511 97.019308 
L 215.286174 92.56903 
L 215.337668 92.56903 
L 215.404166 89.602178 
L 215.464447 89.602178 
L 215.470374 88.118751 
L 276.36524 88.118751 
L 276.449364 74.767916 
L 276.479821 74.767916 
L 276.522387 71.801064 
L 276.978893 71.801064 
L 277.069599 58.450228 
L 277.100367 58.450228 
L 277.143109 55.483376 
L 282.440953 55.483376 
L 282.516911 49.549671 
L 282.656158 49.549671 
L 282.763924 45.841106 
L 282.769058 45.841106 
L 282.83114 43.615966 
L 282.892413 43.615966 
L 282.971162 40.649114 
L 283.042265 40.649114 
L 283.105434 33.231983 
L 283.276888 33.231983 
L 283.38431 29.523418 
L 283.389421 29.523418 
L 283.45115 27.298279 
L 285.138936 27.298279 
L 285.16409 22.848 
L 285.16409 22.848 
" clip-path="url(#p133d98f7ba)" style="fill: none; stroke: #e8000b; stroke-width: 1.5; stroke-linecap: round"/>
   </g>
   <g id="patch_6">
    <path d="M 200.25018 151.164364 
L 200.25018 22.848 
" style="fill: none; stroke: #ffffff; stroke-width: 1.25; stroke-linejoin: miter; stroke-linecap: square"/>
   </g>
   <g id="patch_7">
    <path d="M 200.25018 151.164364 
L 330.642096 151.164364 
" style="fill: none; stroke: #ffffff; stroke-width: 1.25; stroke-linejoin: miter; stroke-linecap: square"/>
   </g>
   <g id="text_9">
    <!-- Attribute = Coastal -->
    <g style="fill: #262626" transform="translate(225.826638 16.848) scale(0.096 -0.096)">
     <defs>
      <path id="ArialMT-43" d="M 3763 1606 
L 4369 1453 
Q 4178 706 3683 314 
Q 3188 -78 2472 -78 
Q 1731 -78 1267 223 
Q 803 525 561 1097 
Q 319 1669 319 2325 
Q 319 3041 592 3573 
Q 866 4106 1370 4382 
Q 1875 4659 2481 4659 
Q 3169 4659 3637 4309 
Q 4106 3959 4291 3325 
L 3694 3184 
Q 3534 3684 3231 3912 
Q 2928 4141 2469 4141 
Q 1941 4141 1586 3887 
Q 1231 3634 1087 3207 
Q 944 2781 944 2328 
Q 944 1744 1114 1308 
Q 1284 872 1643 656 
Q 2003 441 2422 441 
Q 2931 441 3284 734 
Q 3638 1028 3763 1606 
z
" transform="scale(0.015625)"/>
      <path id="ArialMT-73" d="M 197 991 
L 753 1078 
Q 800 744 1014 566 
Q 1228 388 1613 388 
Q 2000 388 2187 545 
Q 2375 703 2375 916 
Q 2375 1106 2209 1216 
Q 2094 1291 1634 1406 
Q 1016 1563 777 1677 
Q 538 1791 414 1992 
Q 291 2194 291 2438 
Q 291 2659 392 2848 
Q 494 3038 669 3163 
Q 800 3259 1026 3326 
Q 1253 3394 1513 3394 
Q 1903 3394 2198 3281 
Q 2494 3169 2634 2976 
Q 2775 2784 2828 2463 
L 2278 2388 
Q 2241 2644 2061 2787 
Q 1881 2931 1553 2931 
Q 1166 2931 1000 2803 
Q 834 2675 834 2503 
Q 834 2394 903 2306 
Q 972 2216 1119 2156 
Q 1203 2125 1616 2013 
Q 2213 1853 2448 1751 
Q 2684 1650 2818 1456 
Q 2953 1263 2953 975 
Q 2953 694 2789 445 
Q 2625 197 2315 61 
Q 2006 -75 1616 -75 
Q 969 -75 630 194 
Q 291 463 197 991 
z
" transform="scale(0.015625)"/>
     </defs>
     <use xlink:href="#ArialMT-41"/>
     <use xlink:href="#ArialMT-74" x="66.699219"/>
     <use xlink:href="#ArialMT-74" x="94.482422"/>
     <use xlink:href="#ArialMT-72" x="122.265625"/>
     <use xlink:href="#ArialMT-69" x="155.566406"/>
     <use xlink:href="#ArialMT-62" x="177.783203"/>
     <use xlink:href="#ArialMT-75" x="233.398438"/>
     <use xlink:href="#ArialMT-74" x="289.013672"/>
     <use xlink:href="#ArialMT-65" x="316.796875"/>
     <use xlink:href="#ArialMT-20" x="372.412109"/>
     <use xlink:href="#ArialMT-3d" x="400.195312"/>
     <use xlink:href="#ArialMT-20" x="458.59375"/>
     <use xlink:href="#ArialMT-43" x="486.376953"/>
     <use xlink:href="#ArialMT-6f" x="558.59375"/>
     <use xlink:href="#ArialMT-61" x="614.208984"/>
     <use xlink:href="#ArialMT-73" x="669.824219"/>
     <use xlink:href="#ArialMT-74" x="719.824219"/>
     <use xlink:href="#ArialMT-61" x="747.607422"/>
     <use xlink:href="#ArialMT-6c" x="803.222656"/>
    </g>
   </g>
  </g>
  <g id="axes_3">
   <g id="patch_8">
    <path d="M 350.200884 151.164364 
L 480.5928 151.164364 
L 480.5928 22.848 
L 350.200884 22.848 
z
" style="fill: #eaeaf2"/>
   </g>
   <g id="matplotlib.axis_5">
    <g id="xtick_5">
     <g id="line2d_24">
      <path d="M 393.912666 151.164364 
L 393.912666 22.848 
" clip-path="url(#pa0ee6e8356)" style="fill: none; stroke: #ffffff; stroke-linecap: round"/>
     </g>
    </g>
    <g id="xtick_6">
     <g id="line2d_25">
      <path d="M 446.328845 151.164364 
L 446.328845 22.848 
" clip-path="url(#pa0ee6e8356)" style="fill: none; stroke: #ffffff; stroke-linecap: round"/>
     </g>
    </g>
   </g>
   <g id="matplotlib.axis_6">
    <g id="ytick_13">
     <g id="line2d_26">
      <path d="M 350.200884 151.164364 
L 480.5928 151.164364 
" clip-path="url(#pa0ee6e8356)" style="fill: none; stroke: #ffffff; stroke-linecap: round"/>
     </g>
    </g>
    <g id="ytick_14">
     <g id="line2d_27">
      <path d="M 350.200884 125.501091 
L 480.5928 125.501091 
" clip-path="url(#pa0ee6e8356)" style="fill: none; stroke: #ffffff; stroke-linecap: round"/>
     </g>
    </g>
    <g id="ytick_15">
     <g id="line2d_28">
      <path d="M 350.200884 99.837818 
L 480.5928 99.837818 
" clip-path="url(#pa0ee6e8356)" style="fill: none; stroke: #ffffff; stroke-linecap: round"/>
     </g>
    </g>
    <g id="ytick_16">
     <g id="line2d_29">
      <path d="M 350.200884 74.174545 
L 480.5928 74.174545 
" clip-path="url(#pa0ee6e8356)" style="fill: none; stroke: #ffffff; stroke-linecap: round"/>
     </g>
    </g>
    <g id="ytick_17">
     <g id="line2d_30">
      <path d="M 350.200884 48.511273 
L 480.5928 48.511273 
" clip-path="url(#pa0ee6e8356)" style="fill: none; stroke: #ffffff; stroke-linecap: round"/>
     </g>
    </g>
    <g id="ytick_18">
     <g id="line2d_31">
      <path d="M 350.200884 22.848 
L 480.5928 22.848 
" clip-path="url(#pa0ee6e8356)" style="fill: none; stroke: #ffffff; stroke-linecap: round"/>
     </g>
    </g>
   </g>
   <g id="line2d_32">
    <path d="M 437.896924 151.164364 
L 437.974305 142.703944 
L 438.065771 142.703944 
L 438.122893 139.883804 
L 438.186014 139.883804 
L 438.229084 124.373035 
L 440.60955 124.373035 
L 440.660306 107.452196 
L 441.368552 107.452196 
L 441.423714 101.811916 
L 442.820442 101.811916 
L 442.926889 82.070937 
L 443.166167 82.070937 
L 443.193136 67.970238 
L 443.872565 67.970238 
L 443.959808 55.279608 
L 444.004989 55.279608 
L 444.068046 49.639329 
L 444.128775 49.639329 
L 444.13491 46.819189 
L 454.763775 46.819189 
L 454.854657 35.538629 
L 454.896111 35.538629 
L 454.977907 31.30842 
L 455.029239 31.30842 
L 455.096766 25.66814 
L 455.158863 25.66814 
L 455.165038 22.848 
L 455.165038 22.848 
" clip-path="url(#pa0ee6e8356)" style="fill: none; stroke: #1ac938; stroke-width: 1.5; stroke-linecap: round"/>
   </g>
   <g id="line2d_33">
    <path d="M 438.189245 151.164364 
L 438.276232 128.044298 
L 438.307905 128.044298 
L 438.351902 123.420285 
L 439.568969 123.420285 
L 439.624332 115.328262 
L 453.039246 115.328262 
L 453.125321 106.080236 
L 453.154402 106.080236 
L 453.157065 103.768229 
L 454.568558 103.768229 
L 454.648914 80.648164 
L 454.680395 80.648164 
L 454.72452 76.024151 
L 459.690732 76.024151 
L 459.769249 69.088131 
L 468.568331 69.088131 
L 468.677569 56.372095 
L 468.680736 56.372095 
L 468.766843 50.592079 
L 468.814096 50.592079 
L 468.876705 45.968066 
L 468.934747 45.968066 
L 469.010176 41.344052 
L 469.078896 41.344052 
L 469.167123 36.720039 
L 469.246664 36.720039 
L 469.347703 32.096026 
L 469.438129 32.096026 
L 469.446951 29.78402 
L 474.466303 29.78402 
L 474.567326 25.160007 
L 474.657153 25.160007 
L 474.665895 22.848 
L 474.665895 22.848 
" clip-path="url(#pa0ee6e8356)" style="fill: none; stroke: #e8000b; stroke-width: 1.5; stroke-linecap: round"/>
   </g>
   <g id="patch_9">
    <path d="M 350.200884 151.164364 
L 350.200884 22.848 
" style="fill: none; stroke: #ffffff; stroke-width: 1.25; stroke-linejoin: miter; stroke-linecap: square"/>
   </g>
   <g id="patch_10">
    <path d="M 350.200884 151.164364 
L 480.5928 151.164364 
" style="fill: none; stroke: #ffffff; stroke-width: 1.25; stroke-linejoin: miter; stroke-linecap: square"/>
   </g>
   <g id="text_10">
    <!-- Attribute = Insular -->
    <g style="fill: #262626" transform="translate(377.645592 16.848) scale(0.096 -0.096)">
     <defs>
      <path id="ArialMT-49" d="M 597 0 
L 597 4581 
L 1203 4581 
L 1203 0 
L 597 0 
z
" transform="scale(0.015625)"/>
     </defs>
     <use xlink:href="#ArialMT-41"/>
     <use xlink:href="#ArialMT-74" x="66.699219"/>
     <use xlink:href="#ArialMT-74" x="94.482422"/>
     <use xlink:href="#ArialMT-72" x="122.265625"/>
     <use xlink:href="#ArialMT-69" x="155.566406"/>
     <use xlink:href="#ArialMT-62" x="177.783203"/>
     <use xlink:href="#ArialMT-75" x="233.398438"/>
     <use xlink:href="#ArialMT-74" x="289.013672"/>
     <use xlink:href="#ArialMT-65" x="316.796875"/>
     <use xlink:href="#ArialMT-20" x="372.412109"/>
     <use xlink:href="#ArialMT-3d" x="400.195312"/>
     <use xlink:href="#ArialMT-20" x="458.59375"/>
     <use xlink:href="#ArialMT-49" x="486.376953"/>
     <use xlink:href="#ArialMT-6e" x="514.160156"/>
     <use xlink:href="#ArialMT-73" x="569.775391"/>
     <use xlink:href="#ArialMT-75" x="619.775391"/>
     <use xlink:href="#ArialMT-6c" x="675.390625"/>
     <use xlink:href="#ArialMT-61" x="697.607422"/>
     <use xlink:href="#ArialMT-72" x="753.222656"/>
    </g>
   </g>
  </g>
  <g id="axes_4">
   <g id="patch_11">
    <path d="M 50.299477 298.728182 
L 180.691393 298.728182 
L 180.691393 170.411818 
L 50.299477 170.411818 
z
" style="fill: #eaeaf2"/>
   </g>
   <g id="matplotlib.axis_7">
    <g id="xtick_7">
     <g id="line2d_34">
      <path d="M 94.011258 298.728182 
L 94.011258 170.411818 
" clip-path="url(#pa1d59ab302)" style="fill: none; stroke: #ffffff; stroke-linecap: round"/>
     </g>
    </g>
    <g id="xtick_8">
     <g id="line2d_35">
      <path d="M 146.427438 298.728182 
L 146.427438 170.411818 
" clip-path="url(#pa1d59ab302)" style="fill: none; stroke: #ffffff; stroke-linecap: round"/>
     </g>
    </g>
   </g>
   <g id="matplotlib.axis_8">
    <g id="ytick_19">
     <g id="line2d_36">
      <path d="M 50.299477 298.728182 
L 180.691393 298.728182 
" clip-path="url(#pa1d59ab302)" style="fill: none; stroke: #ffffff; stroke-linecap: round"/>
     </g>
     <g id="text_11">
      <!-- 0.0 -->
      <g style="fill: #262626" transform="translate(28.567477 301.877619) scale(0.088 -0.088)">
       <use xlink:href="#ArialMT-30"/>
       <use xlink:href="#ArialMT-2e" x="55.615234"/>
       <use xlink:href="#ArialMT-30" x="83.398438"/>
      </g>
     </g>
    </g>
    <g id="ytick_20">
     <g id="line2d_37">
      <path d="M 50.299477 273.064909 
L 180.691393 273.064909 
" clip-path="url(#pa1d59ab302)" style="fill: none; stroke: #ffffff; stroke-linecap: round"/>
     </g>
     <g id="text_12">
      <!-- 0.2 -->
      <g style="fill: #262626" transform="translate(28.567477 276.214347) scale(0.088 -0.088)">
       <use xlink:href="#ArialMT-30"/>
       <use xlink:href="#ArialMT-2e" x="55.615234"/>
       <use xlink:href="#ArialMT-32" x="83.398438"/>
      </g>
     </g>
    </g>
    <g id="ytick_21">
     <g id="line2d_38">
      <path d="M 50.299477 247.401636 
L 180.691393 247.401636 
" clip-path="url(#pa1d59ab302)" style="fill: none; stroke: #ffffff; stroke-linecap: round"/>
     </g>
     <g id="text_13">
      <!-- 0.4 -->
      <g style="fill: #262626" transform="translate(28.567477 250.551074) scale(0.088 -0.088)">
       <use xlink:href="#ArialMT-30"/>
       <use xlink:href="#ArialMT-2e" x="55.615234"/>
       <use xlink:href="#ArialMT-34" x="83.398438"/>
      </g>
     </g>
    </g>
    <g id="ytick_22">
     <g id="line2d_39">
      <path d="M 50.299477 221.738364 
L 180.691393 221.738364 
" clip-path="url(#pa1d59ab302)" style="fill: none; stroke: #ffffff; stroke-linecap: round"/>
     </g>
     <g id="text_14">
      <!-- 0.6 -->
      <g style="fill: #262626" transform="translate(28.567477 224.887801) scale(0.088 -0.088)">
       <use xlink:href="#ArialMT-30"/>
       <use xlink:href="#ArialMT-2e" x="55.615234"/>
       <use xlink:href="#ArialMT-36" x="83.398438"/>
      </g>
     </g>
    </g>
    <g id="ytick_23">
     <g id="line2d_40">
      <path d="M 50.299477 196.075091 
L 180.691393 196.075091 
" clip-path="url(#pa1d59ab302)" style="fill: none; stroke: #ffffff; stroke-linecap: round"/>
     </g>
     <g id="text_15">
      <!-- 0.8 -->
      <g style="fill: #262626" transform="translate(28.567477 199.224528) scale(0.088 -0.088)">
       <use xlink:href="#ArialMT-30"/>
       <use xlink:href="#ArialMT-2e" x="55.615234"/>
       <use xlink:href="#ArialMT-38" x="83.398438"/>
      </g>
     </g>
    </g>
    <g id="ytick_24">
     <g id="line2d_41">
      <path d="M 50.299477 170.411818 
L 180.691393 170.411818 
" clip-path="url(#pa1d59ab302)" style="fill: none; stroke: #ffffff; stroke-linecap: round"/>
     </g>
     <g id="text_16">
      <!-- 1.0 -->
      <g style="fill: #262626" transform="translate(28.567477 173.561256) scale(0.088 -0.088)">
       <use xlink:href="#ArialMT-31"/>
       <use xlink:href="#ArialMT-2e" x="55.615234"/>
       <use xlink:href="#ArialMT-30" x="83.398438"/>
      </g>
     </g>
    </g>
    <g id="text_17">
     <!-- Proportion -->
     <g style="fill: #262626" transform="translate(22.659477 256.7145) rotate(-90) scale(0.096 -0.096)">
      <use xlink:href="#ArialMT-50"/>
      <use xlink:href="#ArialMT-72" x="66.699219"/>
      <use xlink:href="#ArialMT-6f" x="100"/>
      <use xlink:href="#ArialMT-70" x="155.615234"/>
      <use xlink:href="#ArialMT-6f" x="211.230469"/>
      <use xlink:href="#ArialMT-72" x="266.845703"/>
      <use xlink:href="#ArialMT-74" x="300.146484"/>
      <use xlink:href="#ArialMT-69" x="327.929688"/>
      <use xlink:href="#ArialMT-6f" x="350.146484"/>
      <use xlink:href="#ArialMT-6e" x="405.761719"/>
     </g>
    </g>
   </g>
   <g id="line2d_42">
    <path d="M 68.678766 298.728182 
L 68.736816 295.163838 
L 75.586551 295.163838 
L 75.586859 293.738101 
L 75.818507 293.738101 
L 75.877357 286.609414 
L 76.282467 286.609414 
L 76.301263 282.332202 
L 76.778788 282.332202 
L 76.866199 273.777778 
L 76.897439 273.777778 
L 76.978591 269.500566 
L 81.537102 269.500566 
L 81.564735 260.946141 
L 82.094476 260.946141 
L 82.097343 256.668929 
L 105.290679 256.668929 
L 105.380601 243.124424 
L 105.405871 243.124424 
L 105.47585 238.847212 
L 112.29732 238.847212 
L 112.297672 237.421475 
L 112.990649 237.421475 
L 112.990769 235.995737 
L 113.362495 235.995737 
L 113.455073 220.312626 
L 113.484066 220.312626 
L 113.56627 216.035414 
L 113.609548 216.035414 
L 113.669605 213.183939 
L 113.771813 213.183939 
L 113.882322 202.490909 
L 113.884866 202.490909 
L 113.993847 197.500828 
L 114.035117 197.500828 
L 114.039236 196.075091 
L 114.250913 196.075091 
L 114.304716 193.223616 
L 118.256661 193.223616 
L 118.257733 191.797879 
L 118.75091 191.797879 
L 118.838713 182.530586 
L 118.864803 182.530586 
L 118.933146 177.540505 
L 119.305752 177.540505 
L 119.401249 171.837556 
L 119.439656 171.837556 
L 119.443559 170.411818 
L 119.443559 170.411818 
" clip-path="url(#pa1d59ab302)" style="fill: none; stroke: #023eff; stroke-width: 1.5; stroke-linecap: round"/>
   </g>
   <g id="line2d_43">
    <path d="M 68.678766 298.728182 
L 68.736818 289.93939 
L 76.282467 289.93939 
L 76.301263 279.392839 
L 76.804613 279.392839 
L 76.900514 265.330772 
L 76.93461 265.330772 
L 76.978595 258.299738 
L 119.376727 258.299738 
L 119.484965 217.871295 
L 119.518613 217.871295 
L 119.601337 210.840262 
L 119.648134 210.840262 
L 119.652501 205.566986 
L 126.198445 205.566986 
L 126.199772 202.051469 
L 126.44229 202.051469 
L 126.444162 198.535953 
L 126.877753 198.535953 
L 126.879089 195.020436 
L 128.220462 195.020436 
L 128.289413 187.989402 
L 128.35203 187.989402 
L 128.432059 180.958369 
L 128.504178 180.958369 
L 128.51124 177.442852 
L 128.754237 177.442852 
L 128.845791 170.411818 
L 128.845791 170.411818 
" clip-path="url(#pa1d59ab302)" style="fill: none; stroke: #ff7c00; stroke-width: 1.5; stroke-linecap: round"/>
   </g>
   <g id="patch_12">
    <path d="M 50.299477 298.728182 
L 50.299477 170.411818 
" style="fill: none; stroke: #ffffff; stroke-width: 1.25; stroke-linejoin: miter; stroke-linecap: square"/>
   </g>
   <g id="patch_13">
    <path d="M 50.299477 298.728182 
L 180.691393 298.728182 
" style="fill: none; stroke: #ffffff; stroke-width: 1.25; stroke-linejoin: miter; stroke-linecap: square"/>
   </g>
   <g id="text_18">
    <!-- Attribute = Polar -->
    <g style="fill: #262626" transform="translate(80.945185 164.411818) scale(0.096 -0.096)">
     <use xlink:href="#ArialMT-41"/>
     <use xlink:href="#ArialMT-74" x="66.699219"/>
     <use xlink:href="#ArialMT-74" x="94.482422"/>
     <use xlink:href="#ArialMT-72" x="122.265625"/>
     <use xlink:href="#ArialMT-69" x="155.566406"/>
     <use xlink:href="#ArialMT-62" x="177.783203"/>
     <use xlink:href="#ArialMT-75" x="233.398438"/>
     <use xlink:href="#ArialMT-74" x="289.013672"/>
     <use xlink:href="#ArialMT-65" x="316.796875"/>
     <use xlink:href="#ArialMT-20" x="372.412109"/>
     <use xlink:href="#ArialMT-3d" x="400.195312"/>
     <use xlink:href="#ArialMT-20" x="458.59375"/>
     <use xlink:href="#ArialMT-50" x="486.376953"/>
     <use xlink:href="#ArialMT-6f" x="553.076172"/>
     <use xlink:href="#ArialMT-6c" x="608.691406"/>
     <use xlink:href="#ArialMT-61" x="630.908203"/>
     <use xlink:href="#ArialMT-72" x="686.523438"/>
    </g>
   </g>
  </g>
  <g id="axes_5">
   <g id="patch_14">
    <path d="M 200.25018 298.728182 
L 330.642096 298.728182 
L 330.642096 170.411818 
L 200.25018 170.411818 
z
" style="fill: #eaeaf2"/>
   </g>
   <g id="matplotlib.axis_9">
    <g id="xtick_9">
     <g id="line2d_44">
      <path d="M 243.961962 298.728182 
L 243.961962 170.411818 
" clip-path="url(#pc7216913f8)" style="fill: none; stroke: #ffffff; stroke-linecap: round"/>
     </g>
     <g id="text_19">
      <!-- 50 -->
      <g style="fill: #262626" transform="translate(239.068337 314.527057) scale(0.088 -0.088)">
       <defs>
        <path id="ArialMT-35" d="M 266 1200 
L 856 1250 
Q 922 819 1161 601 
Q 1400 384 1738 384 
Q 2144 384 2425 690 
Q 2706 997 2706 1503 
Q 2706 1984 2436 2262 
Q 2166 2541 1728 2541 
Q 1456 2541 1237 2417 
Q 1019 2294 894 2097 
L 366 2166 
L 809 4519 
L 3088 4519 
L 3088 3981 
L 1259 3981 
L 1013 2750 
Q 1425 3038 1878 3038 
Q 2478 3038 2890 2622 
Q 3303 2206 3303 1553 
Q 3303 931 2941 478 
Q 2500 -78 1738 -78 
Q 1113 -78 717 272 
Q 322 622 266 1200 
z
" transform="scale(0.015625)"/>
       </defs>
       <use xlink:href="#ArialMT-35"/>
       <use xlink:href="#ArialMT-30" x="55.615234"/>
      </g>
     </g>
    </g>
    <g id="xtick_10">
     <g id="line2d_45">
      <path d="M 296.378142 298.728182 
L 296.378142 170.411818 
" clip-path="url(#pc7216913f8)" style="fill: none; stroke: #ffffff; stroke-linecap: round"/>
     </g>
     <g id="text_20">
      <!-- 100 -->
      <g style="fill: #262626" transform="translate(289.037704 314.527057) scale(0.088 -0.088)">
       <use xlink:href="#ArialMT-31"/>
       <use xlink:href="#ArialMT-30" x="55.615234"/>
       <use xlink:href="#ArialMT-30" x="111.230469"/>
      </g>
     </g>
    </g>
    <g id="text_21">
     <!-- rtt -->
     <g style="fill: #262626" transform="translate(261.180888 327.147557) scale(0.096 -0.096)">
      <use xlink:href="#ArialMT-72"/>
      <use xlink:href="#ArialMT-74" x="33.300781"/>
      <use xlink:href="#ArialMT-74" x="61.083984"/>
     </g>
    </g>
   </g>
   <g id="matplotlib.axis_10">
    <g id="ytick_25">
     <g id="line2d_46">
      <path d="M 200.25018 298.728182 
L 330.642096 298.728182 
" clip-path="url(#pc7216913f8)" style="fill: none; stroke: #ffffff; stroke-linecap: round"/>
     </g>
    </g>
    <g id="ytick_26">
     <g id="line2d_47">
      <path d="M 200.25018 273.064909 
L 330.642096 273.064909 
" clip-path="url(#pc7216913f8)" style="fill: none; stroke: #ffffff; stroke-linecap: round"/>
     </g>
    </g>
    <g id="ytick_27">
     <g id="line2d_48">
      <path d="M 200.25018 247.401636 
L 330.642096 247.401636 
" clip-path="url(#pc7216913f8)" style="fill: none; stroke: #ffffff; stroke-linecap: round"/>
     </g>
    </g>
    <g id="ytick_28">
     <g id="line2d_49">
      <path d="M 200.25018 221.738364 
L 330.642096 221.738364 
" clip-path="url(#pc7216913f8)" style="fill: none; stroke: #ffffff; stroke-linecap: round"/>
     </g>
    </g>
    <g id="ytick_29">
     <g id="line2d_50">
      <path d="M 200.25018 196.075091 
L 330.642096 196.075091 
" clip-path="url(#pc7216913f8)" style="fill: none; stroke: #ffffff; stroke-linecap: round"/>
     </g>
    </g>
    <g id="ytick_30">
     <g id="line2d_51">
      <path d="M 200.25018 170.411818 
L 330.642096 170.411818 
" clip-path="url(#pc7216913f8)" style="fill: none; stroke: #ffffff; stroke-linecap: round"/>
     </g>
    </g>
   </g>
   <g id="line2d_52">
    <path d="M 245.991857 298.728182 
L 246.094645 292.961154 
L 246.188754 292.961154 
L 246.299555 288.635884 
L 246.309537 288.635884 
L 246.418155 285.75237 
L 246.428788 285.75237 
L 246.428788 284.310613 
L 247.868589 284.310613 
L 247.878415 281.427099 
L 247.985073 281.427099 
L 247.995495 278.543585 
L 271.870595 278.543585 
L 271.973922 269.893044 
L 272.12055 269.893044 
L 272.192669 265.567773 
L 272.265579 265.567773 
L 272.371194 241.057906 
L 272.42183 241.057906 
L 272.456118 235.290878 
L 272.549671 235.290878 
L 272.658789 230.965608 
L 272.668514 230.965608 
L 272.774697 228.082094 
L 272.785006 228.082094 
L 272.895604 213.664525 
L 272.896899 213.664525 
L 272.913327 205.013984 
L 273.169922 205.013984 
L 273.272649 200.688713 
L 273.281823 200.688713 
L 273.281823 199.246956 
L 273.739824 199.246956 
L 273.828707 190.596415 
L 273.85914 190.596415 
L 273.94224 184.829387 
L 273.984438 184.829387 
L 274.034689 180.504116 
L 277.712524 180.504116 
L 277.769182 174.737089 
L 279.069221 174.737089 
L 279.115682 170.411818 
L 279.115682 170.411818 
" clip-path="url(#pc7216913f8)" style="fill: none; stroke: #023eff; stroke-width: 1.5; stroke-linecap: round"/>
   </g>
   <g id="line2d_53">
    <path d="M 272.190725 298.728182 
L 272.190725 296.589576 
L 272.198052 296.589576 
L 272.198052 294.45097 
L 272.279016 294.45097 
L 272.279016 292.312364 
L 272.28703 292.312364 
L 272.28703 290.173758 
L 272.372042 290.173758 
L 272.372042 288.035152 
L 272.374993 288.035152 
L 272.374993 285.896545 
L 272.376585 285.896545 
L 272.376585 283.757939 
L 272.383655 283.757939 
L 272.383655 281.619333 
L 272.428012 281.619333 
L 272.428012 279.480727 
L 272.433267 279.480727 
L 272.433267 277.342121 
L 272.492125 277.342121 
L 272.492125 275.203515 
L 272.498051 275.203515 
L 272.498051 273.064909 
L 272.56418 273.064909 
L 272.56418 270.926303 
L 272.570802 270.926303 
L 272.570802 268.787697 
L 272.643952 268.787697 
L 272.643952 266.649091 
L 272.651215 266.649091 
L 272.651215 264.510485 
L 272.878856 264.510485 
L 272.878856 262.371879 
L 272.878904 262.371879 
L 272.878904 260.233273 
L 272.879136 260.233273 
L 272.879136 258.094667 
L 272.879176 258.094667 
L 272.879176 255.956061 
L 272.884894 255.956061 
L 272.884894 253.817455 
L 272.88515 253.817455 
L 272.88515 251.678848 
L 272.885734 251.678848 
L 272.885734 249.540242 
L 272.885974 249.540242 
L 272.885974 247.401636 
L 272.897147 247.401636 
L 272.897147 245.26303 
L 272.897987 245.26303 
L 272.897987 243.124424 
L 272.898507 243.124424 
L 272.898507 240.985818 
L 272.899411 240.985818 
L 272.899411 238.847212 
L 293.255006 238.847212 
L 293.255006 236.708606 
L 293.25563 236.708606 
L 293.25563 234.57 
L 293.265899 234.57 
L 293.265899 232.431394 
L 293.267195 232.431394 
L 293.267195 230.292788 
L 293.284463 230.292788 
L 293.284463 228.154182 
L 293.286406 228.154182 
L 293.286406 226.015576 
L 293.798227 226.015576 
L 293.798227 223.87697 
L 293.798723 223.87697 
L 293.798723 221.738364 
L 293.807121 221.738364 
L 293.807121 219.599758 
L 293.808217 219.599758 
L 293.808217 217.461152 
L 293.853638 217.461152 
L 293.853638 215.322545 
L 293.856093 215.322545 
L 293.856093 213.183939 
L 293.885526 213.183939 
L 293.885526 211.045333 
L 293.888589 211.045333 
L 293.888589 208.906727 
L 294.420333 208.906727 
L 294.420333 206.768121 
L 294.425316 206.768121 
L 294.425316 204.629515 
L 294.480535 204.629515 
L 294.480535 202.490909 
L 294.485981 202.490909 
L 294.485981 200.352303 
L 294.731258 200.352303 
L 294.731258 198.213697 
L 294.733178 198.213697 
L 294.733178 196.075091 
L 294.9068 196.075091 
L 294.9068 193.936485 
L 294.910719 193.936485 
L 294.910719 191.797879 
L 295.920556 191.797879 
L 295.920556 189.659273 
L 295.920804 189.659273 
L 295.920804 187.520667 
L 295.924915 187.520667 
L 295.924915 185.382061 
L 295.925427 185.382061 
L 295.925427 183.243455 
L 295.968936 183.243455 
L 295.968936 181.104848 
L 295.970368 181.104848 
L 295.970368 178.966242 
L 295.986844 178.966242 
L 295.986844 176.827636 
L 295.988508 176.827636 
L 295.988508 174.68903 
L 296.007647 174.68903 
L 296.007647 172.550424 
L 296.009575 172.550424 
L 296.009575 170.411818 
" clip-path="url(#pc7216913f8)" style="fill: none; stroke: #ff7c00; stroke-width: 1.5; stroke-linecap: round"/>
   </g>
   <g id="line2d_54">
    <path d="M 206.177088 298.728182 
L 206.223374 296.212175 
L 208.770861 296.212175 
L 208.880089 288.664153 
L 208.910939 288.664153 
L 208.995693 284.890143 
L 209.039142 284.890143 
L 209.14805 281.745134 
L 209.153195 281.745134 
L 209.215294 279.858128 
L 209.276363 279.858128 
L 209.354455 277.342121 
L 209.424796 277.342121 
L 209.514144 274.826114 
L 210.654715 274.826114 
L 210.749405 271.681105 
L 210.862395 271.681105 
L 210.955659 267.907094 
L 212.078395 267.907094 
L 212.18128 255.956061 
L 212.217099 255.956061 
L 212.318705 252.18205 
L 212.371838 252.18205 
L 212.441949 249.037041 
L 212.506686 249.037041 
L 212.590645 246.521034 
L 212.667125 246.521034 
L 212.674635 245.26303 
L 214.286461 245.26303 
L 214.379809 240.860018 
L 214.409541 240.860018 
L 214.489938 237.086007 
L 214.530692 237.086007 
L 214.636883 233.311996 
L 216.05881 233.311996 
L 216.165705 225.763975 
L 216.206033 225.763975 
L 216.316366 222.618966 
L 216.321811 222.618966 
L 216.388901 220.731961 
L 217.174244 220.731961 
L 217.25807 208.151925 
L 217.28906 208.151925 
L 217.378041 204.377914 
L 217.424991 204.377914 
L 217.487218 201.861907 
L 217.54493 201.861907 
L 217.620076 199.3459 
L 217.688732 199.3459 
L 217.777009 196.829893 
L 217.856843 196.829893 
L 217.864666 195.571889 
L 228.199249 195.571889 
L 228.308027 189.281872 
L 229.692686 189.281872 
L 229.773498 185.507861 
L 229.814976 185.507861 
L 229.869147 182.991854 
L 241.243976 182.991854 
L 241.318003 180.475847 
L 241.384111 180.475847 
L 241.390573 179.217843 
L 241.894124 179.217843 
L 241.919166 176.701836 
L 247.864195 176.701836 
L 247.946975 172.927825 
L 248.405596 172.927825 
L 248.406452 171.669822 
L 249.735548 171.669822 
L 249.737951 170.411818 
L 249.737951 170.411818 
" clip-path="url(#pc7216913f8)" style="fill: none; stroke: #1ac938; stroke-width: 1.5; stroke-linecap: round"/>
   </g>
   <g id="line2d_55">
    <path d="M 206.177086 298.728182 
L 206.223373 296.026785 
L 209.276363 296.026785 
L 209.382826 289.948641 
L 209.402809 289.948641 
L 209.506802 281.84445 
L 209.514144 281.84445 
L 209.621648 277.117005 
L 209.668885 277.117005 
L 209.730196 274.415608 
L 209.786095 274.415608 
L 209.791587 273.064909 
L 211.414393 273.064909 
L 211.417948 271.714211 
L 226.922081 271.714211 
L 226.944043 267.662115 
L 228.348629 267.662115 
L 228.446546 265.636067 
L 228.503952 265.636067 
L 228.572795 262.259321 
L 228.635936 262.259321 
L 228.717321 259.557923 
L 228.791143 259.557923 
L 228.798381 258.207225 
L 229.551684 258.207225 
L 229.660585 245.375589 
L 229.663157 245.375589 
L 229.773494 240.648144 
L 229.814976 240.648144 
L 229.869147 237.946746 
L 241.243976 237.946746 
L 241.317999 235.245349 
L 241.384111 235.245349 
L 241.390577 233.894651 
L 241.894124 233.894651 
L 241.990781 228.491856 
L 243.150633 228.491856 
L 243.215382 225.790459 
L 243.275059 225.790459 
L 243.352497 223.089062 
L 243.42302 223.089062 
L 243.43001 221.738364 
L 245.786883 221.738364 
L 245.836559 219.712316 
L 246.071182 219.712316 
L 246.177345 211.608124 
L 246.205754 211.608124 
L 246.28116 207.556029 
L 246.318603 207.556029 
L 246.322294 205.529981 
L 246.465583 205.529981 
L 246.520002 204.179282 
L 247.305885 204.179282 
L 247.404597 200.127187 
L 247.457828 200.127187 
L 247.529247 197.425789 
L 247.692392 197.425789 
L 247.775336 193.373694 
L 247.81457 193.373694 
L 247.8597 191.347646 
L 249.643482 191.347646 
L 249.689555 187.29555 
L 249.872723 187.29555 
L 249.915565 185.269502 
L 253.222049 185.269502 
L 253.260295 175.139263 
L 255.097229 175.139263 
L 255.184124 171.762517 
L 255.22789 171.762517 
L 255.232245 170.411818 
L 255.232245 170.411818 
" clip-path="url(#pc7216913f8)" style="fill: none; stroke: #e8000b; stroke-width: 1.5; stroke-linecap: round"/>
   </g>
   <g id="patch_15">
    <path d="M 200.25018 298.728182 
L 200.25018 170.411818 
" style="fill: none; stroke: #ffffff; stroke-width: 1.25; stroke-linejoin: miter; stroke-linecap: square"/>
   </g>
   <g id="patch_16">
    <path d="M 200.25018 298.728182 
L 330.642096 298.728182 
" style="fill: none; stroke: #ffffff; stroke-width: 1.25; stroke-linejoin: miter; stroke-linecap: square"/>
   </g>
   <g id="text_22">
    <!-- Attribute = Equatorial -->
    <g style="fill: #262626" transform="translate(220.488138 164.411818) scale(0.096 -0.096)">
     <defs>
      <path id="ArialMT-45" d="M 506 0 
L 506 4581 
L 3819 4581 
L 3819 4041 
L 1113 4041 
L 1113 2638 
L 3647 2638 
L 3647 2100 
L 1113 2100 
L 1113 541 
L 3925 541 
L 3925 0 
L 506 0 
z
" transform="scale(0.015625)"/>
      <path id="ArialMT-71" d="M 2538 -1272 
L 2538 353 
Q 2406 169 2170 47 
Q 1934 -75 1669 -75 
Q 1078 -75 651 397 
Q 225 869 225 1691 
Q 225 2191 398 2587 
Q 572 2984 901 3189 
Q 1231 3394 1625 3394 
Q 2241 3394 2594 2875 
L 2594 3319 
L 3100 3319 
L 3100 -1272 
L 2538 -1272 
z
M 803 1669 
Q 803 1028 1072 708 
Q 1341 388 1716 388 
Q 2075 388 2334 692 
Q 2594 997 2594 1619 
Q 2594 2281 2320 2615 
Q 2047 2950 1678 2950 
Q 1313 2950 1058 2639 
Q 803 2328 803 1669 
z
" transform="scale(0.015625)"/>
     </defs>
     <use xlink:href="#ArialMT-41"/>
     <use xlink:href="#ArialMT-74" x="66.699219"/>
     <use xlink:href="#ArialMT-74" x="94.482422"/>
     <use xlink:href="#ArialMT-72" x="122.265625"/>
     <use xlink:href="#ArialMT-69" x="155.566406"/>
     <use xlink:href="#ArialMT-62" x="177.783203"/>
     <use xlink:href="#ArialMT-75" x="233.398438"/>
     <use xlink:href="#ArialMT-74" x="289.013672"/>
     <use xlink:href="#ArialMT-65" x="316.796875"/>
     <use xlink:href="#ArialMT-20" x="372.412109"/>
     <use xlink:href="#ArialMT-3d" x="400.195312"/>
     <use xlink:href="#ArialMT-20" x="458.59375"/>
     <use xlink:href="#ArialMT-45" x="486.376953"/>
     <use xlink:href="#ArialMT-71" x="553.076172"/>
     <use xlink:href="#ArialMT-75" x="608.691406"/>
     <use xlink:href="#ArialMT-61" x="664.306641"/>
     <use xlink:href="#ArialMT-74" x="719.921875"/>
     <use xlink:href="#ArialMT-6f" x="747.705078"/>
     <use xlink:href="#ArialMT-72" x="803.320312"/>
     <use xlink:href="#ArialMT-69" x="836.621094"/>
     <use xlink:href="#ArialMT-61" x="858.837891"/>
     <use xlink:href="#ArialMT-6c" x="914.453125"/>
    </g>
   </g>
  </g>
  <g id="axes_6">
   <g id="patch_17">
    <path d="M 350.200884 298.728182 
L 480.5928 298.728182 
L 480.5928 170.411818 
L 350.200884 170.411818 
z
" style="fill: #eaeaf2"/>
   </g>
   <g id="matplotlib.axis_11">
    <g id="xtick_11">
     <g id="line2d_56">
      <path d="M 393.912666 298.728182 
L 393.912666 170.411818 
" clip-path="url(#paae593a5b6)" style="fill: none; stroke: #ffffff; stroke-linecap: round"/>
     </g>
     <g id="text_23">
      <!-- 50 -->
      <g style="fill: #262626" transform="translate(389.019041 314.527057) scale(0.088 -0.088)">
       <use xlink:href="#ArialMT-35"/>
       <use xlink:href="#ArialMT-30" x="55.615234"/>
      </g>
     </g>
    </g>
    <g id="xtick_12">
     <g id="line2d_57">
      <path d="M 446.328845 298.728182 
L 446.328845 170.411818 
" clip-path="url(#paae593a5b6)" style="fill: none; stroke: #ffffff; stroke-linecap: round"/>
     </g>
     <g id="text_24">
      <!-- 100 -->
      <g style="fill: #262626" transform="translate(438.988408 314.527057) scale(0.088 -0.088)">
       <use xlink:href="#ArialMT-31"/>
       <use xlink:href="#ArialMT-30" x="55.615234"/>
       <use xlink:href="#ArialMT-30" x="111.230469"/>
      </g>
     </g>
    </g>
    <g id="text_25">
     <!-- rtt -->
     <g style="fill: #262626" transform="translate(411.131592 327.147557) scale(0.096 -0.096)">
      <use xlink:href="#ArialMT-72"/>
      <use xlink:href="#ArialMT-74" x="33.300781"/>
      <use xlink:href="#ArialMT-74" x="61.083984"/>
     </g>
    </g>
   </g>
   <g id="matplotlib.axis_12">
    <g id="ytick_31">
     <g id="line2d_58">
      <path d="M 350.200884 298.728182 
L 480.5928 298.728182 
" clip-path="url(#paae593a5b6)" style="fill: none; stroke: #ffffff; stroke-linecap: round"/>
     </g>
    </g>
    <g id="ytick_32">
     <g id="line2d_59">
      <path d="M 350.200884 273.064909 
L 480.5928 273.064909 
" clip-path="url(#paae593a5b6)" style="fill: none; stroke: #ffffff; stroke-linecap: round"/>
     </g>
    </g>
    <g id="ytick_33">
     <g id="line2d_60">
      <path d="M 350.200884 247.401636 
L 480.5928 247.401636 
" clip-path="url(#paae593a5b6)" style="fill: none; stroke: #ffffff; stroke-linecap: round"/>
     </g>
    </g>
    <g id="ytick_34">
     <g id="line2d_61">
      <path d="M 350.200884 221.738364 
L 480.5928 221.738364 
" clip-path="url(#paae593a5b6)" style="fill: none; stroke: #ffffff; stroke-linecap: round"/>
     </g>
    </g>
    <g id="ytick_35">
     <g id="line2d_62">
      <path d="M 350.200884 196.075091 
L 480.5928 196.075091 
" clip-path="url(#paae593a5b6)" style="fill: none; stroke: #ffffff; stroke-linecap: round"/>
     </g>
    </g>
    <g id="ytick_36">
     <g id="line2d_63">
      <path d="M 350.200884 170.411818 
L 480.5928 170.411818 
" clip-path="url(#paae593a5b6)" style="fill: none; stroke: #ffffff; stroke-linecap: round"/>
     </g>
    </g>
   </g>
   <g id="line2d_64">
    <path d="M 366.817745 298.728182 
L 366.817745 292.617879 
L 366.8303 292.617879 
L 366.8303 286.507576 
L 366.847112 286.507576 
L 366.847112 280.397273 
L 366.868199 280.397273 
L 366.868199 274.28697 
L 366.893669 274.28697 
L 366.893669 268.176667 
L 366.923582 268.176667 
L 366.923582 262.066364 
L 366.95804 262.066364 
L 366.95804 255.956061 
L 366.997138 255.956061 
L 366.997138 249.845758 
L 367.400437 249.845758 
L 367.400437 243.735455 
L 367.424485 243.735455 
L 367.424485 237.625152 
L 367.457529 237.625152 
L 367.457529 231.514848 
L 367.499689 231.514848 
L 367.499689 225.404545 
L 368.042031 225.404545 
L 368.042031 219.294242 
L 368.070026 219.294242 
L 368.070026 213.183939 
L 368.102286 213.183939 
L 368.102286 207.073636 
L 368.138791 207.073636 
L 368.138791 200.963333 
L 368.179589 200.963333 
L 368.179589 194.85303 
L 368.224695 194.85303 
L 368.224695 188.742727 
L 368.274147 188.742727 
L 368.274147 182.632424 
L 368.327988 182.632424 
L 368.327988 176.522121 
L 369.691087 176.522121 
L 369.691087 170.411818 
" clip-path="url(#paae593a5b6)" style="fill: none; stroke: #023eff; stroke-width: 1.5; stroke-linecap: round"/>
   </g>
   <g id="line2d_65">
    <path d="M 361.656076 298.728182 
L 361.671832 291.267928 
L 366.548522 291.267928 
L 366.559461 285.299725 
L 366.95804 285.299725 
L 367.000737 279.331522 
L 367.229194 279.331522 
L 367.28102 261.426913 
L 369.517891 261.426913 
L 369.62113 256.950761 
L 369.633591 256.950761 
L 369.701713 249.490507 
L 369.775913 249.490507 
L 369.775913 247.998457 
L 373.838871 247.998457 
L 373.928015 222.633594 
L 374.950437 222.633594 
L 375.021948 198.760782 
L 375.315443 198.760782 
L 375.319726 192.792579 
L 375.670046 192.792579 
L 375.753422 177.872072 
L 375.781235 177.872072 
L 375.78405 174.88797 
L 376.640308 174.88797 
L 376.641768 170.411818 
L 376.641768 170.411818 
" clip-path="url(#paae593a5b6)" style="fill: none; stroke: #ff7c00; stroke-width: 1.5; stroke-linecap: round"/>
   </g>
   <g id="patch_18">
    <path d="M 350.200884 298.728182 
L 350.200884 170.411818 
" style="fill: none; stroke: #ffffff; stroke-width: 1.25; stroke-linejoin: miter; stroke-linecap: square"/>
   </g>
   <g id="patch_19">
    <path d="M 350.200884 298.728182 
L 480.5928 298.728182 
" style="fill: none; stroke: #ffffff; stroke-width: 1.25; stroke-linejoin: miter; stroke-linecap: square"/>
   </g>
   <g id="text_26">
    <!-- Attribute = TransOrbital -->
    <g style="fill: #262626" transform="translate(365.910342 164.411818) scale(0.096 -0.096)">
     <defs>
      <path id="ArialMT-54" d="M 1659 0 
L 1659 4041 
L 150 4041 
L 150 4581 
L 3781 4581 
L 3781 4041 
L 2266 4041 
L 2266 0 
L 1659 0 
z
" transform="scale(0.015625)"/>
      <path id="ArialMT-4f" d="M 309 2231 
Q 309 3372 921 4017 
Q 1534 4663 2503 4663 
Q 3138 4663 3647 4359 
Q 4156 4056 4423 3514 
Q 4691 2972 4691 2284 
Q 4691 1588 4409 1038 
Q 4128 488 3612 205 
Q 3097 -78 2500 -78 
Q 1853 -78 1343 234 
Q 834 547 571 1087 
Q 309 1628 309 2231 
z
M 934 2222 
Q 934 1394 1379 917 
Q 1825 441 2497 441 
Q 3181 441 3623 922 
Q 4066 1403 4066 2288 
Q 4066 2847 3877 3264 
Q 3688 3681 3323 3911 
Q 2959 4141 2506 4141 
Q 1863 4141 1398 3698 
Q 934 3256 934 2222 
z
" transform="scale(0.015625)"/>
     </defs>
     <use xlink:href="#ArialMT-41"/>
     <use xlink:href="#ArialMT-74" x="66.699219"/>
     <use xlink:href="#ArialMT-74" x="94.482422"/>
     <use xlink:href="#ArialMT-72" x="122.265625"/>
     <use xlink:href="#ArialMT-69" x="155.566406"/>
     <use xlink:href="#ArialMT-62" x="177.783203"/>
     <use xlink:href="#ArialMT-75" x="233.398438"/>
     <use xlink:href="#ArialMT-74" x="289.013672"/>
     <use xlink:href="#ArialMT-65" x="316.796875"/>
     <use xlink:href="#ArialMT-20" x="372.412109"/>
     <use xlink:href="#ArialMT-3d" x="400.195312"/>
     <use xlink:href="#ArialMT-20" x="458.59375"/>
     <use xlink:href="#ArialMT-54" x="484.626953"/>
     <use xlink:href="#ArialMT-72" x="541.960938"/>
     <use xlink:href="#ArialMT-61" x="575.261719"/>
     <use xlink:href="#ArialMT-6e" x="630.876953"/>
     <use xlink:href="#ArialMT-73" x="686.492188"/>
     <use xlink:href="#ArialMT-4f" x="736.492188"/>
     <use xlink:href="#ArialMT-72" x="814.275391"/>
     <use xlink:href="#ArialMT-62" x="847.576172"/>
     <use xlink:href="#ArialMT-69" x="903.191406"/>
     <use xlink:href="#ArialMT-74" x="925.408203"/>
     <use xlink:href="#ArialMT-61" x="953.191406"/>
     <use xlink:href="#ArialMT-6c" x="1008.806641"/>
    </g>
   </g>
  </g>
  <g id="axes_7">
   <g id="patch_20">
    <path d="M 50.299477 446.292 
L 180.691393 446.292 
L 180.691393 317.975636 
L 50.299477 317.975636 
z
" style="fill: #eaeaf2"/>
   </g>
   <g id="matplotlib.axis_13">
    <g id="xtick_13">
     <g id="line2d_66">
      <path d="M 94.011258 446.292 
L 94.011258 317.975636 
" clip-path="url(#p1aabddd37e)" style="fill: none; stroke: #ffffff; stroke-linecap: round"/>
     </g>
     <g id="text_27">
      <!-- 50 -->
      <g style="fill: #262626" transform="translate(89.117633 462.090875) scale(0.088 -0.088)">
       <use xlink:href="#ArialMT-35"/>
       <use xlink:href="#ArialMT-30" x="55.615234"/>
      </g>
     </g>
    </g>
    <g id="xtick_14">
     <g id="line2d_67">
      <path d="M 146.427438 446.292 
L 146.427438 317.975636 
" clip-path="url(#p1aabddd37e)" style="fill: none; stroke: #ffffff; stroke-linecap: round"/>
     </g>
     <g id="text_28">
      <!-- 100 -->
      <g style="fill: #262626" transform="translate(139.087001 462.090875) scale(0.088 -0.088)">
       <use xlink:href="#ArialMT-31"/>
       <use xlink:href="#ArialMT-30" x="55.615234"/>
       <use xlink:href="#ArialMT-30" x="111.230469"/>
      </g>
     </g>
    </g>
    <g id="text_29">
     <!-- rtt -->
     <g style="fill: #262626" transform="translate(111.230185 474.711375) scale(0.096 -0.096)">
      <use xlink:href="#ArialMT-72"/>
      <use xlink:href="#ArialMT-74" x="33.300781"/>
      <use xlink:href="#ArialMT-74" x="61.083984"/>
     </g>
    </g>
   </g>
   <g id="matplotlib.axis_14">
    <g id="ytick_37">
     <g id="line2d_68">
      <path d="M 50.299477 446.292 
L 180.691393 446.292 
" clip-path="url(#p1aabddd37e)" style="fill: none; stroke: #ffffff; stroke-linecap: round"/>
     </g>
     <g id="text_30">
      <!-- 0.0 -->
      <g style="fill: #262626" transform="translate(28.567477 449.441438) scale(0.088 -0.088)">
       <use xlink:href="#ArialMT-30"/>
       <use xlink:href="#ArialMT-2e" x="55.615234"/>
       <use xlink:href="#ArialMT-30" x="83.398438"/>
      </g>
     </g>
    </g>
    <g id="ytick_38">
     <g id="line2d_69">
      <path d="M 50.299477 420.628727 
L 180.691393 420.628727 
" clip-path="url(#p1aabddd37e)" style="fill: none; stroke: #ffffff; stroke-linecap: round"/>
     </g>
     <g id="text_31">
      <!-- 0.2 -->
      <g style="fill: #262626" transform="translate(28.567477 423.778165) scale(0.088 -0.088)">
       <use xlink:href="#ArialMT-30"/>
       <use xlink:href="#ArialMT-2e" x="55.615234"/>
       <use xlink:href="#ArialMT-32" x="83.398438"/>
      </g>
     </g>
    </g>
    <g id="ytick_39">
     <g id="line2d_70">
      <path d="M 50.299477 394.965455 
L 180.691393 394.965455 
" clip-path="url(#p1aabddd37e)" style="fill: none; stroke: #ffffff; stroke-linecap: round"/>
     </g>
     <g id="text_32">
      <!-- 0.4 -->
      <g style="fill: #262626" transform="translate(28.567477 398.114892) scale(0.088 -0.088)">
       <use xlink:href="#ArialMT-30"/>
       <use xlink:href="#ArialMT-2e" x="55.615234"/>
       <use xlink:href="#ArialMT-34" x="83.398438"/>
      </g>
     </g>
    </g>
    <g id="ytick_40">
     <g id="line2d_71">
      <path d="M 50.299477 369.302182 
L 180.691393 369.302182 
" clip-path="url(#p1aabddd37e)" style="fill: none; stroke: #ffffff; stroke-linecap: round"/>
     </g>
     <g id="text_33">
      <!-- 0.6 -->
      <g style="fill: #262626" transform="translate(28.567477 372.451619) scale(0.088 -0.088)">
       <use xlink:href="#ArialMT-30"/>
       <use xlink:href="#ArialMT-2e" x="55.615234"/>
       <use xlink:href="#ArialMT-36" x="83.398438"/>
      </g>
     </g>
    </g>
    <g id="ytick_41">
     <g id="line2d_72">
      <path d="M 50.299477 343.638909 
L 180.691393 343.638909 
" clip-path="url(#p1aabddd37e)" style="fill: none; stroke: #ffffff; stroke-linecap: round"/>
     </g>
     <g id="text_34">
      <!-- 0.8 -->
      <g style="fill: #262626" transform="translate(28.567477 346.788347) scale(0.088 -0.088)">
       <use xlink:href="#ArialMT-30"/>
       <use xlink:href="#ArialMT-2e" x="55.615234"/>
       <use xlink:href="#ArialMT-38" x="83.398438"/>
      </g>
     </g>
    </g>
    <g id="ytick_42">
     <g id="line2d_73">
      <path d="M 50.299477 317.975636 
L 180.691393 317.975636 
" clip-path="url(#p1aabddd37e)" style="fill: none; stroke: #ffffff; stroke-linecap: round"/>
     </g>
     <g id="text_35">
      <!-- 1.0 -->
      <g style="fill: #262626" transform="translate(28.567477 321.125074) scale(0.088 -0.088)">
       <use xlink:href="#ArialMT-31"/>
       <use xlink:href="#ArialMT-2e" x="55.615234"/>
       <use xlink:href="#ArialMT-30" x="83.398438"/>
      </g>
     </g>
    </g>
    <g id="text_36">
     <!-- Proportion -->
     <g style="fill: #262626" transform="translate(22.659477 404.278318) rotate(-90) scale(0.096 -0.096)">
      <use xlink:href="#ArialMT-50"/>
      <use xlink:href="#ArialMT-72" x="66.699219"/>
      <use xlink:href="#ArialMT-6f" x="100"/>
      <use xlink:href="#ArialMT-70" x="155.615234"/>
      <use xlink:href="#ArialMT-6f" x="211.230469"/>
      <use xlink:href="#ArialMT-72" x="266.845703"/>
      <use xlink:href="#ArialMT-74" x="300.146484"/>
      <use xlink:href="#ArialMT-69" x="327.929688"/>
      <use xlink:href="#ArialMT-6f" x="350.146484"/>
      <use xlink:href="#ArialMT-6e" x="405.761719"/>
     </g>
    </g>
   </g>
   <g id="line2d_74">
    <path d="M 56.757299 446.292 
L 56.757386 445.021541 
L 58.017897 445.021541 
L 58.124355 439.939705 
L 58.169512 439.939705 
L 58.231116 438.034016 
L 58.588517 438.034016 
L 58.664561 431.681721 
L 58.705277 431.681721 
L 58.705277 431.046491 
L 60.187378 431.046491 
L 60.278996 428.505573 
L 60.406502 428.505573 
L 60.48601 422.153278 
L 62.635465 422.153278 
L 62.73188 415.800983 
L 62.765947 415.800983 
L 62.861059 411.989606 
L 62.910365 411.989606 
L 62.997562 401.825933 
L 63.032391 401.825933 
L 63.135678 395.473638 
L 63.191167 395.473638 
L 63.272637 392.297491 
L 63.333941 392.297491 
L 63.423545 390.391802 
L 63.513377 390.391802 
L 63.610152 389.121343 
L 63.713775 389.121343 
L 63.824141 386.580425 
L 63.82715 386.580425 
L 63.834012 385.309966 
L 64.295147 385.309966 
L 64.295147 384.674736 
L 65.026469 384.674736 
L 65.104396 380.22813 
L 66.063533 380.22813 
L 66.067319 377.687212 
L 67.491214 377.687212 
L 67.57279 368.158769 
L 67.940428 368.158769 
L 68.033935 359.900785 
L 68.053978 359.900785 
L 68.158515 350.372342 
L 68.200279 350.372342 
L 68.299979 346.560965 
L 68.314296 346.560965 
L 68.314296 345.925735 
L 68.841103 345.925735 
L 68.883391 343.384817 
L 69.795199 343.384817 
L 69.881198 338.302981 
L 69.907508 338.302981 
L 69.940194 336.397293 
L 70.765949 336.397293 
L 70.842739 332.585915 
L 71.447941 332.585915 
L 71.511554 329.409768 
L 71.569958 329.409768 
L 71.575746 328.139309 
L 72.459326 328.139309 
L 72.459326 327.504079 
L 72.990514 327.504079 
L 73.034327 324.963161 
L 74.057511 324.963161 
L 74.057511 324.327932 
L 75.691141 324.327932 
L 75.749039 322.422243 
L 76.655189 322.422243 
L 76.723261 317.975636 
L 76.723261 317.975636 
" clip-path="url(#p1aabddd37e)" style="fill: none; stroke: #023eff; stroke-width: 1.5; stroke-linecap: round"/>
   </g>
   <g id="line2d_75">
    <path d="M 56.758031 446.292 
L 56.758373 445.058189 
L 58.689355 445.058189 
L 58.735476 443.824378 
L 60.320024 443.824378 
L 60.416447 436.42151 
L 60.431819 436.42151 
L 60.478516 430.86936 
L 60.655564 430.86936 
L 60.752368 423.466493 
L 60.789819 423.466493 
L 60.897781 419.765059 
L 62.838362 419.765059 
L 62.842607 418.531248 
L 63.079086 418.531248 
L 63.160378 416.063626 
L 63.241437 416.063626 
L 63.241437 415.44672 
L 63.722569 415.44672 
L 63.818688 408.043853 
L 63.852334 408.043853 
L 63.899069 405.576231 
L 64.453431 405.576231 
L 64.51788 401.874797 
L 64.919759 401.874797 
L 65.030228 395.705741 
L 65.031684 395.705741 
L 65.115778 388.91978 
L 65.435779 388.91978 
L 65.5031 386.452157 
L 65.564604 386.452157 
L 65.643733 383.984535 
L 65.715427 383.984535 
L 65.72247 382.750724 
L 67.531774 382.750724 
L 67.63062 377.815479 
L 67.66488 377.815479 
L 67.668241 376.581668 
L 67.881176 376.581668 
L 67.940903 371.029517 
L 68.096868 371.029517 
L 68.097624 369.795706 
L 69.004313 369.795706 
L 69.004407 368.561895 
L 69.181293 368.561895 
L 69.227784 359.925217 
L 69.789944 359.925217 
L 69.848036 353.756161 
L 70.789412 353.756161 
L 70.819658 350.671633 
L 71.545969 350.671633 
L 71.623897 343.268766 
L 72.132864 343.268766 
L 72.214289 338.333521 
L 72.24793 338.333521 
L 72.251326 337.09971 
L 72.777647 337.09971 
L 72.844193 334.632087 
L 72.903439 334.632087 
L 72.977951 330.930654 
L 73.044049 330.930654 
L 73.050455 329.696843 
L 74.109648 329.696843 
L 74.208236 323.527787 
L 74.236088 323.527787 
L 74.268238 321.67707 
L 75.006494 321.67707 
L 75.006516 320.443259 
L 75.536327 320.443259 
L 75.598316 317.975636 
L 75.598316 317.975636 
" clip-path="url(#p1aabddd37e)" style="fill: none; stroke: #ff7c00; stroke-width: 1.5; stroke-linecap: round"/>
   </g>
   <g id="line2d_76">
    <path d="M 70.463988 446.292 
L 70.572462 436.539956 
L 70.575635 436.539956 
L 70.661548 433.973629 
L 70.708903 433.973629 
L 70.771846 431.920567 
L 70.83036 431.920567 
L 70.906603 429.35424 
L 70.981051 429.35424 
L 70.983177 428.327709 
L 75.422578 428.327709 
L 75.51314 423.195055 
L 75.544981 423.195055 
L 75.633615 420.115462 
L 75.67946 420.115462 
L 75.739602 418.0624 
L 75.794952 418.0624 
L 75.866463 416.009338 
L 77.717893 416.009338 
L 77.800682 410.363418 
L 77.842831 410.363418 
L 77.893415 409.336887 
L 81.224797 409.336887 
L 81.285526 407.283825 
L 81.48751 407.283825 
L 81.597307 404.717498 
L 81.602534 404.717498 
L 81.666347 403.177702 
L 81.729628 403.177702 
L 81.81104 401.12464 
L 81.892108 401.12464 
L 81.978991 400.098109 
L 82.071781 400.098109 
L 82.071781 399.584844 
L 82.272173 399.584844 
L 82.353645 395.47872 
L 82.385202 395.47872 
L 82.478847 392.399127 
L 83.709139 392.399127 
L 83.784301 390.346065 
L 83.825095 390.346065 
L 83.930246 387.266473 
L 83.981613 387.266473 
L 84.047154 385.213411 
L 85.039223 385.213411 
L 85.039223 384.700145 
L 85.686919 384.700145 
L 85.750683 382.647084 
L 85.810357 382.647084 
L 85.888634 380.594022 
L 85.960445 380.594022 
L 86.052983 378.54096 
L 86.13669 378.54096 
L 86.243269 376.487898 
L 86.338678 376.487898 
L 86.449191 374.948102 
L 86.459049 374.948102 
L 86.459049 374.434836 
L 87.665182 374.434836 
L 87.773024 370.841978 
L 87.777075 370.841978 
L 87.777075 370.328713 
L 88.914854 370.328713 
L 88.997058 366.735855 
L 89.02833 366.735855 
L 89.110706 363.656262 
L 89.151561 363.656262 
L 89.256039 360.576669 
L 89.310986 360.576669 
L 89.37102 358.523607 
L 89.428502 358.523607 
L 89.434097 357.497076 
L 90.428429 357.497076 
L 90.505059 354.930749 
L 90.543725 354.930749 
L 90.596085 352.364422 
L 90.77239 352.364422 
L 90.853595 350.31136 
L 90.928057 350.31136 
L 91.024054 348.258298 
L 91.110893 348.258298 
L 91.212472 346.718502 
L 91.584755 346.718502 
L 91.670766 344.66544 
L 92.905069 344.66544 
L 92.907276 343.638909 
L 101.967039 343.638909 
L 102.063484 340.559316 
L 102.099715 340.559316 
L 102.196512 337.479724 
L 102.24488 337.479724 
L 102.307313 335.426662 
L 102.363815 335.426662 
L 102.435874 333.3736 
L 102.500539 333.3736 
L 102.578428 331.320538 
L 102.651258 331.320538 
L 102.74288 329.267476 
L 102.828436 329.267476 
L 102.92596 327.214415 
L 103.015918 327.214415 
L 103.03391 325.161353 
L 104.05534 325.161353 
L 104.111087 324.134822 
L 104.175099 324.134822 
L 104.249293 322.595025 
L 104.327411 322.595025 
L 104.422168 320.028698 
L 104.509691 320.028698 
L 104.612814 318.488902 
L 104.622116 318.488902 
L 104.622116 317.975636 
L 104.622116 317.975636 
" clip-path="url(#p1aabddd37e)" style="fill: none; stroke: #1ac938; stroke-width: 1.5; stroke-linecap: round"/>
   </g>
   <g id="line2d_77">
    <path d="M 70.463988 446.292 
L 70.572462 436.300152 
L 70.575635 436.300152 
L 70.661548 433.670718 
L 70.708899 433.670718 
L 70.771846 431.567171 
L 70.83036 431.567171 
L 70.906603 428.937738 
L 70.981051 428.937738 
L 70.983177 427.885964 
L 77.842831 427.885964 
L 77.893419 426.834191 
L 79.920887 426.834191 
L 79.96546 423.152984 
L 81.224797 423.152984 
L 81.334255 417.36823 
L 81.336638 417.36823 
L 81.44474 412.635249 
L 81.48751 412.635249 
L 81.597307 410.005815 
L 81.602534 410.005815 
L 81.666347 408.428155 
L 81.729624 408.428155 
L 81.81104 406.324608 
L 81.892108 406.324608 
L 81.978991 405.272835 
L 82.071781 405.272835 
L 82.071781 404.746948 
L 82.272173 404.746948 
L 82.35265 400.539854 
L 82.385206 400.539854 
L 82.478847 397.384534 
L 83.016714 397.384534 
L 83.111771 394.229213 
L 83.152985 394.229213 
L 83.255024 391.073893 
L 83.306412 391.073893 
L 83.311507 390.022119 
L 83.529226 390.022119 
L 83.639104 381.082045 
L 83.641603 381.082045 
L 83.743179 377.400838 
L 83.780574 377.400838 
L 83.87775 374.245517 
L 83.925523 374.245517 
L 83.930246 373.193744 
L 84.505163 373.193744 
L 84.591598 367.934876 
L 84.61736 367.934876 
L 84.722215 363.727782 
L 84.758566 363.727782 
L 84.762153 362.676009 
L 85.716716 362.676009 
L 85.751691 356.365368 
L 86.191361 356.365368 
L 86.2788 354.261821 
L 87.804993 354.261821 
L 87.887569 349.528841 
L 87.918641 349.528841 
L 88.000902 346.37352 
L 88.04186 346.37352 
L 88.146862 343.2182 
L 88.197922 343.2182 
L 88.262747 341.114653 
L 88.320761 341.114653 
L 88.394019 339.011106 
L 89.315253 339.011106 
L 89.402952 334.804012 
L 89.442531 334.804012 
L 89.550393 332.174578 
L 89.555691 332.174578 
L 89.621064 330.596918 
L 89.687072 330.596918 
L 89.773275 329.019258 
L 89.953823 329.019258 
L 89.953823 328.493371 
L 99.099441 328.493371 
L 99.208843 324.286277 
L 99.245286 324.286277 
L 99.291159 322.18273 
L 100.112761 322.18273 
L 100.220739 319.02741 
L 100.280505 319.02741 
L 100.345505 317.975636 
L 100.345505 317.975636 
" clip-path="url(#p1aabddd37e)" style="fill: none; stroke: #e8000b; stroke-width: 1.5; stroke-linecap: round"/>
   </g>
   <g id="patch_21">
    <path d="M 50.299477 446.292 
L 50.299477 317.975636 
" style="fill: none; stroke: #ffffff; stroke-width: 1.25; stroke-linejoin: miter; stroke-linecap: square"/>
   </g>
   <g id="patch_22">
    <path d="M 50.299477 446.292 
L 180.691393 446.292 
" style="fill: none; stroke: #ffffff; stroke-width: 1.25; stroke-linejoin: miter; stroke-linecap: square"/>
   </g>
   <g id="text_37">
    <!-- Attribute = IntraOrbital -->
    <g style="fill: #262626" transform="translate(68.409685 311.975636) scale(0.096 -0.096)">
     <use xlink:href="#ArialMT-41"/>
     <use xlink:href="#ArialMT-74" x="66.699219"/>
     <use xlink:href="#ArialMT-74" x="94.482422"/>
     <use xlink:href="#ArialMT-72" x="122.265625"/>
     <use xlink:href="#ArialMT-69" x="155.566406"/>
     <use xlink:href="#ArialMT-62" x="177.783203"/>
     <use xlink:href="#ArialMT-75" x="233.398438"/>
     <use xlink:href="#ArialMT-74" x="289.013672"/>
     <use xlink:href="#ArialMT-65" x="316.796875"/>
     <use xlink:href="#ArialMT-20" x="372.412109"/>
     <use xlink:href="#ArialMT-3d" x="400.195312"/>
     <use xlink:href="#ArialMT-20" x="458.59375"/>
     <use xlink:href="#ArialMT-49" x="486.376953"/>
     <use xlink:href="#ArialMT-6e" x="514.160156"/>
     <use xlink:href="#ArialMT-74" x="569.775391"/>
     <use xlink:href="#ArialMT-72" x="597.558594"/>
     <use xlink:href="#ArialMT-61" x="630.859375"/>
     <use xlink:href="#ArialMT-4f" x="686.474609"/>
     <use xlink:href="#ArialMT-72" x="764.257812"/>
     <use xlink:href="#ArialMT-62" x="797.558594"/>
     <use xlink:href="#ArialMT-69" x="853.173828"/>
     <use xlink:href="#ArialMT-74" x="875.390625"/>
     <use xlink:href="#ArialMT-61" x="903.173828"/>
     <use xlink:href="#ArialMT-6c" x="958.789062"/>
    </g>
   </g>
  </g>
  <g id="legend_1">
   <g id="text_38">
    <!-- Direction -->
    <g style="fill: #262626" transform="translate(490.04325 220.586) scale(0.096 -0.096)">
     <defs>
      <path id="ArialMT-44" d="M 494 0 
L 494 4581 
L 2072 4581 
Q 2606 4581 2888 4516 
Q 3281 4425 3559 4188 
Q 3922 3881 4101 3404 
Q 4281 2928 4281 2316 
Q 4281 1794 4159 1391 
Q 4038 988 3847 723 
Q 3656 459 3429 307 
Q 3203 156 2883 78 
Q 2563 0 2147 0 
L 494 0 
z
M 1100 541 
L 2078 541 
Q 2531 541 2789 625 
Q 3047 709 3200 863 
Q 3416 1078 3536 1442 
Q 3656 1806 3656 2325 
Q 3656 3044 3420 3430 
Q 3184 3816 2847 3947 
Q 2603 4041 2063 4041 
L 1100 4041 
L 1100 541 
z
" transform="scale(0.015625)"/>
     </defs>
     <use xlink:href="#ArialMT-44"/>
     <use xlink:href="#ArialMT-69" x="72.216797"/>
     <use xlink:href="#ArialMT-72" x="94.433594"/>
     <use xlink:href="#ArialMT-65" x="127.734375"/>
     <use xlink:href="#ArialMT-63" x="183.349609"/>
     <use xlink:href="#ArialMT-74" x="233.349609"/>
     <use xlink:href="#ArialMT-69" x="261.132812"/>
     <use xlink:href="#ArialMT-6f" x="283.349609"/>
     <use xlink:href="#ArialMT-6e" x="338.964844"/>
    </g>
   </g>
   <g id="line2d_78">
    <path d="M 485.1645 230.112875 
L 493.9645 230.112875 
L 493.9645 230.112875 
L 502.7645 230.112875 
L 502.7645 230.112875 
" style="fill: none; stroke: #023eff; stroke-width: 1.5; stroke-linecap: round"/>
   </g>
   <g id="text_39">
    <!-- East -->
    <g style="fill: #262626" transform="translate(509.8045 233.192875) scale(0.088 -0.088)">
     <use xlink:href="#ArialMT-45"/>
     <use xlink:href="#ArialMT-61" x="66.699219"/>
     <use xlink:href="#ArialMT-73" x="122.314453"/>
     <use xlink:href="#ArialMT-74" x="172.314453"/>
    </g>
   </g>
   <g id="line2d_79">
    <path d="M 485.1645 242.56075 
L 493.9645 242.56075 
L 493.9645 242.56075 
L 502.7645 242.56075 
L 502.7645 242.56075 
" style="fill: none; stroke: #ff7c00; stroke-width: 1.5; stroke-linecap: round"/>
   </g>
   <g id="text_40">
    <!-- West -->
    <g style="fill: #262626" transform="translate(509.8045 245.64075) scale(0.088 -0.088)">
     <defs>
      <path id="ArialMT-57" d="M 1294 0 
L 78 4581 
L 700 4581 
L 1397 1578 
Q 1509 1106 1591 641 
Q 1766 1375 1797 1488 
L 2669 4581 
L 3400 4581 
L 4056 2263 
Q 4303 1400 4413 641 
Q 4500 1075 4641 1638 
L 5359 4581 
L 5969 4581 
L 4713 0 
L 4128 0 
L 3163 3491 
Q 3041 3928 3019 4028 
Q 2947 3713 2884 3491 
L 1913 0 
L 1294 0 
z
" transform="scale(0.015625)"/>
     </defs>
     <use xlink:href="#ArialMT-57"/>
     <use xlink:href="#ArialMT-65" x="92.634766"/>
     <use xlink:href="#ArialMT-73" x="148.25"/>
     <use xlink:href="#ArialMT-74" x="198.25"/>
    </g>
   </g>
   <g id="line2d_80">
    <path d="M 485.1645 255.008625 
L 493.9645 255.008625 
L 493.9645 255.008625 
L 502.7645 255.008625 
L 502.7645 255.008625 
" style="fill: none; stroke: #1ac938; stroke-width: 1.5; stroke-linecap: round"/>
   </g>
   <g id="text_41">
    <!-- North -->
    <g style="fill: #262626" transform="translate(509.8045 258.088625) scale(0.088 -0.088)">
     <defs>
      <path id="ArialMT-4e" d="M 488 0 
L 488 4581 
L 1109 4581 
L 3516 984 
L 3516 4581 
L 4097 4581 
L 4097 0 
L 3475 0 
L 1069 3600 
L 1069 0 
L 488 0 
z
" transform="scale(0.015625)"/>
      <path id="ArialMT-68" d="M 422 0 
L 422 4581 
L 984 4581 
L 984 2938 
Q 1378 3394 1978 3394 
Q 2347 3394 2619 3248 
Q 2891 3103 3008 2847 
Q 3125 2591 3125 2103 
L 3125 0 
L 2563 0 
L 2563 2103 
Q 2563 2525 2380 2717 
Q 2197 2909 1863 2909 
Q 1613 2909 1392 2779 
Q 1172 2650 1078 2428 
Q 984 2206 984 1816 
L 984 0 
L 422 0 
z
" transform="scale(0.015625)"/>
     </defs>
     <use xlink:href="#ArialMT-4e"/>
     <use xlink:href="#ArialMT-6f" x="72.216797"/>
     <use xlink:href="#ArialMT-72" x="127.832031"/>
     <use xlink:href="#ArialMT-74" x="161.132812"/>
     <use xlink:href="#ArialMT-68" x="188.916016"/>
    </g>
   </g>
   <g id="line2d_81">
    <path d="M 485.1645 267.4565 
L 493.9645 267.4565 
L 493.9645 267.4565 
L 502.7645 267.4565 
L 502.7645 267.4565 
" style="fill: none; stroke: #e8000b; stroke-width: 1.5; stroke-linecap: round"/>
   </g>
   <g id="text_42">
    <!-- South -->
    <g style="fill: #262626" transform="translate(509.8045 270.5365) scale(0.088 -0.088)">
     <defs>
      <path id="ArialMT-53" d="M 288 1472 
L 859 1522 
Q 900 1178 1048 958 
Q 1197 738 1509 602 
Q 1822 466 2213 466 
Q 2559 466 2825 569 
Q 3091 672 3220 851 
Q 3350 1031 3350 1244 
Q 3350 1459 3225 1620 
Q 3100 1781 2813 1891 
Q 2628 1963 1997 2114 
Q 1366 2266 1113 2400 
Q 784 2572 623 2826 
Q 463 3081 463 3397 
Q 463 3744 659 4045 
Q 856 4347 1234 4503 
Q 1613 4659 2075 4659 
Q 2584 4659 2973 4495 
Q 3363 4331 3572 4012 
Q 3781 3694 3797 3291 
L 3216 3247 
Q 3169 3681 2898 3903 
Q 2628 4125 2100 4125 
Q 1550 4125 1298 3923 
Q 1047 3722 1047 3438 
Q 1047 3191 1225 3031 
Q 1400 2872 2139 2705 
Q 2878 2538 3153 2413 
Q 3553 2228 3743 1945 
Q 3934 1663 3934 1294 
Q 3934 928 3725 604 
Q 3516 281 3123 101 
Q 2731 -78 2241 -78 
Q 1619 -78 1198 103 
Q 778 284 539 648 
Q 300 1013 288 1472 
z
" transform="scale(0.015625)"/>
     </defs>
     <use xlink:href="#ArialMT-53"/>
     <use xlink:href="#ArialMT-6f" x="66.699219"/>
     <use xlink:href="#ArialMT-75" x="122.314453"/>
     <use xlink:href="#ArialMT-74" x="177.929688"/>
     <use xlink:href="#ArialMT-68" x="205.712891"/>
    </g>
   </g>
  </g>
 </g>
 <defs>
  <clipPath id="pd1af3b1e26">
   <rect x="50.299477" y="22.848" width="130.391916" height="128.316364"/>
  </clipPath>
  <clipPath id="p133d98f7ba">
   <rect x="200.25018" y="22.848" width="130.391916" height="128.316364"/>
  </clipPath>
  <clipPath id="pa0ee6e8356">
   <rect x="350.200884" y="22.848" width="130.391916" height="128.316364"/>
  </clipPath>
  <clipPath id="pa1d59ab302">
   <rect x="50.299477" y="170.411818" width="130.391916" height="128.316364"/>
  </clipPath>
  <clipPath id="pc7216913f8">
   <rect x="200.25018" y="170.411818" width="130.391916" height="128.316364"/>
  </clipPath>
  <clipPath id="paae593a5b6">
   <rect x="350.200884" y="170.411818" width="130.391916" height="128.316364"/>
  </clipPath>
  <clipPath id="p1aabddd37e">
   <rect x="50.299477" y="317.975636" width="130.391916" height="128.316364"/>
  </clipPath>
 </defs>
</svg>
