<?xml version="1.0" encoding="utf-8" standalone="no"?>
<!DOCTYPE svg PUBLIC "-//W3C//DTD SVG 1.1//EN"
  "http://www.w3.org/Graphics/SVG/1.1/DTD/svg11.dtd">
<svg xmlns:xlink="http://www.w3.org/1999/xlink" width="545.22pt" height="486pt" viewBox="0 0 545.22 486" xmlns="http://www.w3.org/2000/svg" version="1.1">
 <metadata>
  <rdf:RDF xmlns:dc="http://purl.org/dc/elements/1.1/" xmlns:cc="http://creativecommons.org/ns#" xmlns:rdf="http://www.w3.org/1999/02/22-rdf-syntax-ns#">
   <cc:Work>
    <dc:type rdf:resource="http://purl.org/dc/dcmitype/StillImage"/>
    <dc:date>2024-08-04T00:06:56.200919</dc:date>
    <dc:format>image/svg+xml</dc:format>
    <dc:creator>
     <cc:Agent>
      <dc:title>Matplotlib v3.9.0, https://matplotlib.org/</dc:title>
     </cc:Agent>
    </dc:creator>
   </cc:Work>
  </rdf:RDF>
 </metadata>
 <defs>
  <style type="text/css">*{stroke-linejoin: round; stroke-linecap: butt}</style>
 </defs>
 <g id="figure_1">
  <g id="patch_1">
   <path d="M 0 486 
L 545.22 486 
L 545.22 0 
L 0 0 
z
" style="fill: #ffffff"/>
  </g>
  <g id="axes_1">
   <g id="patch_2">
    <path d="M 47.575493 137.524 
L 183.61195 137.524 
L 183.61195 22.848 
L 47.575493 22.848 
z
" style="fill: #eaeaf2"/>
   </g>
   <g id="matplotlib.axis_1">
    <g id="xtick_1"/>
    <g id="xtick_2"/>
    <g id="xtick_3"/>
    <g id="xtick_4"/>
    <g id="xtick_5"/>
   </g>
   <g id="matplotlib.axis_2">
    <g id="ytick_1">
     <g id="line2d_1">
      <path d="M 47.575493 121.999683 
L 183.61195 121.999683 
" clip-path="url(#pfa67bff96f)" style="fill: none; stroke: #ffffff; stroke-linecap: round"/>
     </g>
     <g id="text_1">
      <!-- 0 -->
      <g style="fill: #262626" transform="translate(33.181868 125.14912) scale(0.088 -0.088)">
       <defs>
        <path id="ArialMT-30" d="M 266 2259 
Q 266 3072 433 3567 
Q 600 4063 929 4331 
Q 1259 4600 1759 4600 
Q 2128 4600 2406 4451 
Q 2684 4303 2865 4023 
Q 3047 3744 3150 3342 
Q 3253 2941 3253 2259 
Q 3253 1453 3087 958 
Q 2922 463 2592 192 
Q 2263 -78 1759 -78 
Q 1097 -78 719 397 
Q 266 969 266 2259 
z
M 844 2259 
Q 844 1131 1108 757 
Q 1372 384 1759 384 
Q 2147 384 2411 759 
Q 2675 1134 2675 2259 
Q 2675 3391 2411 3762 
Q 2147 4134 1753 4134 
Q 1366 4134 1134 3806 
Q 844 3388 844 2259 
z
" transform="scale(0.015625)"/>
       </defs>
       <use xlink:href="#ArialMT-30"/>
      </g>
     </g>
    </g>
    <g id="ytick_2">
     <g id="line2d_2">
      <path d="M 47.575493 99.939024 
L 183.61195 99.939024 
" clip-path="url(#pfa67bff96f)" style="fill: none; stroke: #ffffff; stroke-linecap: round"/>
     </g>
     <g id="text_2">
      <!-- 5 -->
      <g style="fill: #262626" transform="translate(33.181868 103.088462) scale(0.088 -0.088)">
       <defs>
        <path id="ArialMT-35" d="M 266 1200 
L 856 1250 
Q 922 819 1161 601 
Q 1400 384 1738 384 
Q 2144 384 2425 690 
Q 2706 997 2706 1503 
Q 2706 1984 2436 2262 
Q 2166 2541 1728 2541 
Q 1456 2541 1237 2417 
Q 1019 2294 894 2097 
L 366 2166 
L 809 4519 
L 3088 4519 
L 3088 3981 
L 1259 3981 
L 1013 2750 
Q 1425 3038 1878 3038 
Q 2478 3038 2890 2622 
Q 3303 2206 3303 1553 
Q 3303 931 2941 478 
Q 2500 -78 1738 -78 
Q 1113 -78 717 272 
Q 322 622 266 1200 
z
" transform="scale(0.015625)"/>
       </defs>
       <use xlink:href="#ArialMT-35"/>
      </g>
     </g>
    </g>
    <g id="ytick_3">
     <g id="line2d_3">
      <path d="M 47.575493 77.878366 
L 183.61195 77.878366 
" clip-path="url(#pfa67bff96f)" style="fill: none; stroke: #ffffff; stroke-linecap: round"/>
     </g>
     <g id="text_3">
      <!-- 10 -->
      <g style="fill: #262626" transform="translate(28.288243 81.027803) scale(0.088 -0.088)">
       <defs>
        <path id="ArialMT-31" d="M 2384 0 
L 1822 0 
L 1822 3584 
Q 1619 3391 1289 3197 
Q 959 3003 697 2906 
L 697 3450 
Q 1169 3672 1522 3987 
Q 1875 4303 2022 4600 
L 2384 4600 
L 2384 0 
z
" transform="scale(0.015625)"/>
       </defs>
       <use xlink:href="#ArialMT-31"/>
       <use xlink:href="#ArialMT-30" x="55.615234"/>
      </g>
     </g>
    </g>
    <g id="ytick_4">
     <g id="line2d_4">
      <path d="M 47.575493 55.817708 
L 183.61195 55.817708 
" clip-path="url(#pfa67bff96f)" style="fill: none; stroke: #ffffff; stroke-linecap: round"/>
     </g>
     <g id="text_4">
      <!-- 15 -->
      <g style="fill: #262626" transform="translate(28.288243 58.967145) scale(0.088 -0.088)">
       <use xlink:href="#ArialMT-31"/>
       <use xlink:href="#ArialMT-35" x="55.615234"/>
      </g>
     </g>
    </g>
    <g id="ytick_5">
     <g id="line2d_5">
      <path d="M 47.575493 33.757049 
L 183.61195 33.757049 
" clip-path="url(#pfa67bff96f)" style="fill: none; stroke: #ffffff; stroke-linecap: round"/>
     </g>
     <g id="text_5">
      <!-- 20 -->
      <g style="fill: #262626" transform="translate(28.288243 36.906487) scale(0.088 -0.088)">
       <defs>
        <path id="ArialMT-32" d="M 3222 541 
L 3222 0 
L 194 0 
Q 188 203 259 391 
Q 375 700 629 1000 
Q 884 1300 1366 1694 
Q 2113 2306 2375 2664 
Q 2638 3022 2638 3341 
Q 2638 3675 2398 3904 
Q 2159 4134 1775 4134 
Q 1369 4134 1125 3890 
Q 881 3647 878 3216 
L 300 3275 
Q 359 3922 746 4261 
Q 1134 4600 1788 4600 
Q 2447 4600 2831 4234 
Q 3216 3869 3216 3328 
Q 3216 3053 3103 2787 
Q 2991 2522 2730 2228 
Q 2469 1934 1863 1422 
Q 1356 997 1212 845 
Q 1069 694 975 541 
L 3222 541 
z
" transform="scale(0.015625)"/>
       </defs>
       <use xlink:href="#ArialMT-32"/>
       <use xlink:href="#ArialMT-30" x="55.615234"/>
      </g>
     </g>
    </g>
    <g id="text_6">
     <!-- Expected malicious traffic (Gbps) -->
     <g style="fill: #262626" transform="translate(22.267743 150.52325) rotate(-90) scale(0.096 -0.096)">
      <defs>
       <path id="ArialMT-45" d="M 506 0 
L 506 4581 
L 3819 4581 
L 3819 4041 
L 1113 4041 
L 1113 2638 
L 3647 2638 
L 3647 2100 
L 1113 2100 
L 1113 541 
L 3925 541 
L 3925 0 
L 506 0 
z
" transform="scale(0.015625)"/>
       <path id="ArialMT-78" d="M 47 0 
L 1259 1725 
L 138 3319 
L 841 3319 
L 1350 2541 
Q 1494 2319 1581 2169 
Q 1719 2375 1834 2534 
L 2394 3319 
L 3066 3319 
L 1919 1756 
L 3153 0 
L 2463 0 
L 1781 1031 
L 1600 1309 
L 728 0 
L 47 0 
z
" transform="scale(0.015625)"/>
       <path id="ArialMT-70" d="M 422 -1272 
L 422 3319 
L 934 3319 
L 934 2888 
Q 1116 3141 1344 3267 
Q 1572 3394 1897 3394 
Q 2322 3394 2647 3175 
Q 2972 2956 3137 2557 
Q 3303 2159 3303 1684 
Q 3303 1175 3120 767 
Q 2938 359 2589 142 
Q 2241 -75 1856 -75 
Q 1575 -75 1351 44 
Q 1128 163 984 344 
L 984 -1272 
L 422 -1272 
z
M 931 1641 
Q 931 1000 1190 694 
Q 1450 388 1819 388 
Q 2194 388 2461 705 
Q 2728 1022 2728 1688 
Q 2728 2322 2467 2637 
Q 2206 2953 1844 2953 
Q 1484 2953 1207 2617 
Q 931 2281 931 1641 
z
" transform="scale(0.015625)"/>
       <path id="ArialMT-65" d="M 2694 1069 
L 3275 997 
Q 3138 488 2766 206 
Q 2394 -75 1816 -75 
Q 1088 -75 661 373 
Q 234 822 234 1631 
Q 234 2469 665 2931 
Q 1097 3394 1784 3394 
Q 2450 3394 2872 2941 
Q 3294 2488 3294 1666 
Q 3294 1616 3291 1516 
L 816 1516 
Q 847 969 1125 678 
Q 1403 388 1819 388 
Q 2128 388 2347 550 
Q 2566 713 2694 1069 
z
M 847 1978 
L 2700 1978 
Q 2663 2397 2488 2606 
Q 2219 2931 1791 2931 
Q 1403 2931 1139 2672 
Q 875 2413 847 1978 
z
" transform="scale(0.015625)"/>
       <path id="ArialMT-63" d="M 2588 1216 
L 3141 1144 
Q 3050 572 2676 248 
Q 2303 -75 1759 -75 
Q 1078 -75 664 370 
Q 250 816 250 1647 
Q 250 2184 428 2587 
Q 606 2991 970 3192 
Q 1334 3394 1763 3394 
Q 2303 3394 2647 3120 
Q 2991 2847 3088 2344 
L 2541 2259 
Q 2463 2594 2264 2762 
Q 2066 2931 1784 2931 
Q 1359 2931 1093 2626 
Q 828 2322 828 1663 
Q 828 994 1084 691 
Q 1341 388 1753 388 
Q 2084 388 2306 591 
Q 2528 794 2588 1216 
z
" transform="scale(0.015625)"/>
       <path id="ArialMT-74" d="M 1650 503 
L 1731 6 
Q 1494 -44 1306 -44 
Q 1000 -44 831 53 
Q 663 150 594 308 
Q 525 466 525 972 
L 525 2881 
L 113 2881 
L 113 3319 
L 525 3319 
L 525 4141 
L 1084 4478 
L 1084 3319 
L 1650 3319 
L 1650 2881 
L 1084 2881 
L 1084 941 
Q 1084 700 1114 631 
Q 1144 563 1211 522 
Q 1278 481 1403 481 
Q 1497 481 1650 503 
z
" transform="scale(0.015625)"/>
       <path id="ArialMT-64" d="M 2575 0 
L 2575 419 
Q 2259 -75 1647 -75 
Q 1250 -75 917 144 
Q 584 363 401 755 
Q 219 1147 219 1656 
Q 219 2153 384 2558 
Q 550 2963 881 3178 
Q 1213 3394 1622 3394 
Q 1922 3394 2156 3267 
Q 2391 3141 2538 2938 
L 2538 4581 
L 3097 4581 
L 3097 0 
L 2575 0 
z
M 797 1656 
Q 797 1019 1065 703 
Q 1334 388 1700 388 
Q 2069 388 2326 689 
Q 2584 991 2584 1609 
Q 2584 2291 2321 2609 
Q 2059 2928 1675 2928 
Q 1300 2928 1048 2622 
Q 797 2316 797 1656 
z
" transform="scale(0.015625)"/>
       <path id="ArialMT-20" transform="scale(0.015625)"/>
       <path id="ArialMT-6d" d="M 422 0 
L 422 3319 
L 925 3319 
L 925 2853 
Q 1081 3097 1340 3245 
Q 1600 3394 1931 3394 
Q 2300 3394 2536 3241 
Q 2772 3088 2869 2813 
Q 3263 3394 3894 3394 
Q 4388 3394 4653 3120 
Q 4919 2847 4919 2278 
L 4919 0 
L 4359 0 
L 4359 2091 
Q 4359 2428 4304 2576 
Q 4250 2725 4106 2815 
Q 3963 2906 3769 2906 
Q 3419 2906 3187 2673 
Q 2956 2441 2956 1928 
L 2956 0 
L 2394 0 
L 2394 2156 
Q 2394 2531 2256 2718 
Q 2119 2906 1806 2906 
Q 1569 2906 1367 2781 
Q 1166 2656 1075 2415 
Q 984 2175 984 1722 
L 984 0 
L 422 0 
z
" transform="scale(0.015625)"/>
       <path id="ArialMT-61" d="M 2588 409 
Q 2275 144 1986 34 
Q 1697 -75 1366 -75 
Q 819 -75 525 192 
Q 231 459 231 875 
Q 231 1119 342 1320 
Q 453 1522 633 1644 
Q 813 1766 1038 1828 
Q 1203 1872 1538 1913 
Q 2219 1994 2541 2106 
Q 2544 2222 2544 2253 
Q 2544 2597 2384 2738 
Q 2169 2928 1744 2928 
Q 1347 2928 1158 2789 
Q 969 2650 878 2297 
L 328 2372 
Q 403 2725 575 2942 
Q 747 3159 1072 3276 
Q 1397 3394 1825 3394 
Q 2250 3394 2515 3294 
Q 2781 3194 2906 3042 
Q 3031 2891 3081 2659 
Q 3109 2516 3109 2141 
L 3109 1391 
Q 3109 606 3145 398 
Q 3181 191 3288 0 
L 2700 0 
Q 2613 175 2588 409 
z
M 2541 1666 
Q 2234 1541 1622 1453 
Q 1275 1403 1131 1340 
Q 988 1278 909 1158 
Q 831 1038 831 891 
Q 831 666 1001 516 
Q 1172 366 1500 366 
Q 1825 366 2078 508 
Q 2331 650 2450 897 
Q 2541 1088 2541 1459 
L 2541 1666 
z
" transform="scale(0.015625)"/>
       <path id="ArialMT-6c" d="M 409 0 
L 409 4581 
L 972 4581 
L 972 0 
L 409 0 
z
" transform="scale(0.015625)"/>
       <path id="ArialMT-69" d="M 425 3934 
L 425 4581 
L 988 4581 
L 988 3934 
L 425 3934 
z
M 425 0 
L 425 3319 
L 988 3319 
L 988 0 
L 425 0 
z
" transform="scale(0.015625)"/>
       <path id="ArialMT-6f" d="M 213 1659 
Q 213 2581 725 3025 
Q 1153 3394 1769 3394 
Q 2453 3394 2887 2945 
Q 3322 2497 3322 1706 
Q 3322 1066 3130 698 
Q 2938 331 2570 128 
Q 2203 -75 1769 -75 
Q 1072 -75 642 372 
Q 213 819 213 1659 
z
M 791 1659 
Q 791 1022 1069 705 
Q 1347 388 1769 388 
Q 2188 388 2466 706 
Q 2744 1025 2744 1678 
Q 2744 2294 2464 2611 
Q 2184 2928 1769 2928 
Q 1347 2928 1069 2612 
Q 791 2297 791 1659 
z
" transform="scale(0.015625)"/>
       <path id="ArialMT-75" d="M 2597 0 
L 2597 488 
Q 2209 -75 1544 -75 
Q 1250 -75 995 37 
Q 741 150 617 320 
Q 494 491 444 738 
Q 409 903 409 1263 
L 409 3319 
L 972 3319 
L 972 1478 
Q 972 1038 1006 884 
Q 1059 663 1231 536 
Q 1403 409 1656 409 
Q 1909 409 2131 539 
Q 2353 669 2445 892 
Q 2538 1116 2538 1541 
L 2538 3319 
L 3100 3319 
L 3100 0 
L 2597 0 
z
" transform="scale(0.015625)"/>
       <path id="ArialMT-73" d="M 197 991 
L 753 1078 
Q 800 744 1014 566 
Q 1228 388 1613 388 
Q 2000 388 2187 545 
Q 2375 703 2375 916 
Q 2375 1106 2209 1216 
Q 2094 1291 1634 1406 
Q 1016 1563 777 1677 
Q 538 1791 414 1992 
Q 291 2194 291 2438 
Q 291 2659 392 2848 
Q 494 3038 669 3163 
Q 800 3259 1026 3326 
Q 1253 3394 1513 3394 
Q 1903 3394 2198 3281 
Q 2494 3169 2634 2976 
Q 2775 2784 2828 2463 
L 2278 2388 
Q 2241 2644 2061 2787 
Q 1881 2931 1553 2931 
Q 1166 2931 1000 2803 
Q 834 2675 834 2503 
Q 834 2394 903 2306 
Q 972 2216 1119 2156 
Q 1203 2125 1616 2013 
Q 2213 1853 2448 1751 
Q 2684 1650 2818 1456 
Q 2953 1263 2953 975 
Q 2953 694 2789 445 
Q 2625 197 2315 61 
Q 2006 -75 1616 -75 
Q 969 -75 630 194 
Q 291 463 197 991 
z
" transform="scale(0.015625)"/>
       <path id="ArialMT-72" d="M 416 0 
L 416 3319 
L 922 3319 
L 922 2816 
Q 1116 3169 1280 3281 
Q 1444 3394 1641 3394 
Q 1925 3394 2219 3213 
L 2025 2691 
Q 1819 2813 1613 2813 
Q 1428 2813 1281 2702 
Q 1134 2591 1072 2394 
Q 978 2094 978 1738 
L 978 0 
L 416 0 
z
" transform="scale(0.015625)"/>
       <path id="ArialMT-66" d="M 556 0 
L 556 2881 
L 59 2881 
L 59 3319 
L 556 3319 
L 556 3672 
Q 556 4006 616 4169 
Q 697 4388 901 4523 
Q 1106 4659 1475 4659 
Q 1713 4659 2000 4603 
L 1916 4113 
Q 1741 4144 1584 4144 
Q 1328 4144 1222 4034 
Q 1116 3925 1116 3625 
L 1116 3319 
L 1763 3319 
L 1763 2881 
L 1116 2881 
L 1116 0 
L 556 0 
z
" transform="scale(0.015625)"/>
       <path id="ArialMT-28" d="M 1497 -1347 
Q 1031 -759 709 28 
Q 388 816 388 1659 
Q 388 2403 628 3084 
Q 909 3875 1497 4659 
L 1900 4659 
Q 1522 4009 1400 3731 
Q 1209 3300 1100 2831 
Q 966 2247 966 1656 
Q 966 153 1900 -1347 
L 1497 -1347 
z
" transform="scale(0.015625)"/>
       <path id="ArialMT-47" d="M 2638 1797 
L 2638 2334 
L 4578 2338 
L 4578 638 
Q 4131 281 3656 101 
Q 3181 -78 2681 -78 
Q 2006 -78 1454 211 
Q 903 500 622 1047 
Q 341 1594 341 2269 
Q 341 2938 620 3517 
Q 900 4097 1425 4378 
Q 1950 4659 2634 4659 
Q 3131 4659 3532 4498 
Q 3934 4338 4162 4050 
Q 4391 3763 4509 3300 
L 3963 3150 
Q 3859 3500 3706 3700 
Q 3553 3900 3268 4020 
Q 2984 4141 2638 4141 
Q 2222 4141 1919 4014 
Q 1616 3888 1430 3681 
Q 1244 3475 1141 3228 
Q 966 2803 966 2306 
Q 966 1694 1177 1281 
Q 1388 869 1791 669 
Q 2194 469 2647 469 
Q 3041 469 3416 620 
Q 3791 772 3984 944 
L 3984 1797 
L 2638 1797 
z
" transform="scale(0.015625)"/>
       <path id="ArialMT-62" d="M 941 0 
L 419 0 
L 419 4581 
L 981 4581 
L 981 2947 
Q 1338 3394 1891 3394 
Q 2197 3394 2470 3270 
Q 2744 3147 2920 2923 
Q 3097 2700 3197 2384 
Q 3297 2069 3297 1709 
Q 3297 856 2875 390 
Q 2453 -75 1863 -75 
Q 1275 -75 941 416 
L 941 0 
z
M 934 1684 
Q 934 1088 1097 822 
Q 1363 388 1816 388 
Q 2184 388 2453 708 
Q 2722 1028 2722 1663 
Q 2722 2313 2464 2622 
Q 2206 2931 1841 2931 
Q 1472 2931 1203 2611 
Q 934 2291 934 1684 
z
" transform="scale(0.015625)"/>
       <path id="ArialMT-29" d="M 791 -1347 
L 388 -1347 
Q 1322 153 1322 1656 
Q 1322 2244 1188 2822 
Q 1081 3291 891 3722 
Q 769 4003 388 4659 
L 791 4659 
Q 1378 3875 1659 3084 
Q 1900 2403 1900 1659 
Q 1900 816 1576 28 
Q 1253 -759 791 -1347 
z
" transform="scale(0.015625)"/>
      </defs>
      <use xlink:href="#ArialMT-45"/>
      <use xlink:href="#ArialMT-78" x="66.699219"/>
      <use xlink:href="#ArialMT-70" x="116.699219"/>
      <use xlink:href="#ArialMT-65" x="172.314453"/>
      <use xlink:href="#ArialMT-63" x="227.929688"/>
      <use xlink:href="#ArialMT-74" x="277.929688"/>
      <use xlink:href="#ArialMT-65" x="305.712891"/>
      <use xlink:href="#ArialMT-64" x="361.328125"/>
      <use xlink:href="#ArialMT-20" x="416.943359"/>
      <use xlink:href="#ArialMT-6d" x="444.726562"/>
      <use xlink:href="#ArialMT-61" x="528.027344"/>
      <use xlink:href="#ArialMT-6c" x="583.642578"/>
      <use xlink:href="#ArialMT-69" x="605.859375"/>
      <use xlink:href="#ArialMT-63" x="628.076172"/>
      <use xlink:href="#ArialMT-69" x="678.076172"/>
      <use xlink:href="#ArialMT-6f" x="700.292969"/>
      <use xlink:href="#ArialMT-75" x="755.908203"/>
      <use xlink:href="#ArialMT-73" x="811.523438"/>
      <use xlink:href="#ArialMT-20" x="861.523438"/>
      <use xlink:href="#ArialMT-74" x="889.306641"/>
      <use xlink:href="#ArialMT-72" x="917.089844"/>
      <use xlink:href="#ArialMT-61" x="950.390625"/>
      <use xlink:href="#ArialMT-66" x="1006.005859"/>
      <use xlink:href="#ArialMT-66" x="1032.039062"/>
      <use xlink:href="#ArialMT-69" x="1059.822266"/>
      <use xlink:href="#ArialMT-63" x="1082.039062"/>
      <use xlink:href="#ArialMT-20" x="1132.039062"/>
      <use xlink:href="#ArialMT-28" x="1159.822266"/>
      <use xlink:href="#ArialMT-47" x="1193.123047"/>
      <use xlink:href="#ArialMT-62" x="1270.90625"/>
      <use xlink:href="#ArialMT-70" x="1326.521484"/>
      <use xlink:href="#ArialMT-73" x="1382.136719"/>
      <use xlink:href="#ArialMT-29" x="1432.136719"/>
     </g>
    </g>
   </g>
   <g id="patch_3">
    <path d="M 50.296222 121.999683 
L 72.062056 121.999683 
L 72.062056 49.993694 
L 50.296222 49.993694 
z
" clip-path="url(#pfa67bff96f)" style="fill: #224fdf; stroke: #ffffff; stroke-linejoin: miter"/>
   </g>
   <g id="patch_4">
    <path d="M 77.503514 121.999683 
L 99.269347 121.999683 
L 99.269347 48.581812 
L 77.503514 48.581812 
z
" clip-path="url(#pfa67bff96f)" style="fill: #df7d20; stroke: #ffffff; stroke-linejoin: miter"/>
   </g>
   <g id="patch_5">
    <path d="M 104.710805 121.999683 
L 126.476638 121.999683 
L 126.476638 33.757049 
L 104.710805 33.757049 
z
" clip-path="url(#pfa67bff96f)" style="fill: #30b346; stroke: #ffffff; stroke-linejoin: miter"/>
   </g>
   <g id="patch_6">
    <path d="M 131.918097 121.999683 
L 153.68393 121.999683 
L 153.68393 35.874873 
L 131.918097 35.874873 
z
" clip-path="url(#pfa67bff96f)" style="fill: #cb1d25; stroke: #ffffff; stroke-linejoin: miter"/>
   </g>
   <g id="patch_7">
    <path d="M 159.125388 121.999683 
L 180.891221 121.999683 
L 180.891221 33.757049 
L 159.125388 33.757049 
z
" clip-path="url(#pfa67bff96f)" style="fill: #8a42cb; stroke: #ffffff; stroke-linejoin: miter"/>
   </g>
   <g id="line2d_6">
    <path d="M 58.45841 71.926842 
L 63.899868 71.926842 
M 61.179139 71.926842 
L 61.179139 28.060545 
M 58.45841 28.060545 
L 63.899868 28.060545 
" clip-path="url(#pfa67bff96f)" style="fill: none; stroke: #424242; stroke-width: 2.25; stroke-linecap: round"/>
   </g>
   <g id="line2d_7">
    <path d="M 85.665701 65.441957 
L 91.10716 65.441957 
M 88.38643 65.441957 
L 88.38643 31.721666 
M 85.665701 31.721666 
L 91.10716 31.721666 
" clip-path="url(#pfa67bff96f)" style="fill: none; stroke: #424242; stroke-width: 2.25; stroke-linecap: round"/>
   </g>
   <g id="line2d_8">
    <path d="M 112.872993 33.757049 
L 118.314451 33.757049 
M 115.593722 33.757049 
L 115.593722 33.757049 
M 112.872993 33.757049 
L 118.314451 33.757049 
" clip-path="url(#pfa67bff96f)" style="fill: none; stroke: #424242; stroke-width: 2.25; stroke-linecap: round"/>
   </g>
   <g id="line2d_9">
    <path d="M 140.080284 41.668191 
L 145.521742 41.668191 
M 142.801013 41.668191 
L 142.801013 30.081554 
M 140.080284 30.081554 
L 145.521742 30.081554 
" clip-path="url(#pfa67bff96f)" style="fill: none; stroke: #424242; stroke-width: 2.25; stroke-linecap: round"/>
   </g>
   <g id="line2d_10">
    <path d="M 167.287576 33.757049 
L 172.729034 33.757049 
M 170.008305 33.757049 
L 170.008305 33.757049 
M 167.287576 33.757049 
L 172.729034 33.757049 
" clip-path="url(#pfa67bff96f)" style="fill: none; stroke: #424242; stroke-width: 2.25; stroke-linecap: round"/>
   </g>
   <g id="patch_8">
    <path d="M 47.575493 137.524 
L 47.575493 22.848 
" style="fill: none; stroke: #ffffff; stroke-width: 1.25; stroke-linejoin: miter; stroke-linecap: square"/>
   </g>
   <g id="patch_9">
    <path d="M 47.575493 137.524 
L 183.61195 137.524 
" style="fill: none; stroke: #ffffff; stroke-width: 1.25; stroke-linejoin: miter; stroke-linecap: square"/>
   </g>
   <g id="text_7">
    <!-- Attribute = Landlocked -->
    <g style="fill: #262626" transform="translate(67.697222 16.848) scale(0.096 -0.096)">
     <defs>
      <path id="ArialMT-41" d="M -9 0 
L 1750 4581 
L 2403 4581 
L 4278 0 
L 3588 0 
L 3053 1388 
L 1138 1388 
L 634 0 
L -9 0 
z
M 1313 1881 
L 2866 1881 
L 2388 3150 
Q 2169 3728 2063 4100 
Q 1975 3659 1816 3225 
L 1313 1881 
z
" transform="scale(0.015625)"/>
      <path id="ArialMT-3d" d="M 3381 2694 
L 356 2694 
L 356 3219 
L 3381 3219 
L 3381 2694 
z
M 3381 1303 
L 356 1303 
L 356 1828 
L 3381 1828 
L 3381 1303 
z
" transform="scale(0.015625)"/>
      <path id="ArialMT-4c" d="M 469 0 
L 469 4581 
L 1075 4581 
L 1075 541 
L 3331 541 
L 3331 0 
L 469 0 
z
" transform="scale(0.015625)"/>
      <path id="ArialMT-6e" d="M 422 0 
L 422 3319 
L 928 3319 
L 928 2847 
Q 1294 3394 1984 3394 
Q 2284 3394 2536 3286 
Q 2788 3178 2913 3003 
Q 3038 2828 3088 2588 
Q 3119 2431 3119 2041 
L 3119 0 
L 2556 0 
L 2556 2019 
Q 2556 2363 2490 2533 
Q 2425 2703 2258 2804 
Q 2091 2906 1866 2906 
Q 1506 2906 1245 2678 
Q 984 2450 984 1813 
L 984 0 
L 422 0 
z
" transform="scale(0.015625)"/>
      <path id="ArialMT-6b" d="M 425 0 
L 425 4581 
L 988 4581 
L 988 1969 
L 2319 3319 
L 3047 3319 
L 1778 2088 
L 3175 0 
L 2481 0 
L 1384 1697 
L 988 1316 
L 988 0 
L 425 0 
z
" transform="scale(0.015625)"/>
     </defs>
     <use xlink:href="#ArialMT-41"/>
     <use xlink:href="#ArialMT-74" x="66.699219"/>
     <use xlink:href="#ArialMT-74" x="94.482422"/>
     <use xlink:href="#ArialMT-72" x="122.265625"/>
     <use xlink:href="#ArialMT-69" x="155.566406"/>
     <use xlink:href="#ArialMT-62" x="177.783203"/>
     <use xlink:href="#ArialMT-75" x="233.398438"/>
     <use xlink:href="#ArialMT-74" x="289.013672"/>
     <use xlink:href="#ArialMT-65" x="316.796875"/>
     <use xlink:href="#ArialMT-20" x="372.412109"/>
     <use xlink:href="#ArialMT-3d" x="400.195312"/>
     <use xlink:href="#ArialMT-20" x="458.59375"/>
     <use xlink:href="#ArialMT-4c" x="486.376953"/>
     <use xlink:href="#ArialMT-61" x="541.992188"/>
     <use xlink:href="#ArialMT-6e" x="597.607422"/>
     <use xlink:href="#ArialMT-64" x="653.222656"/>
     <use xlink:href="#ArialMT-6c" x="708.837891"/>
     <use xlink:href="#ArialMT-6f" x="731.054688"/>
     <use xlink:href="#ArialMT-63" x="786.669922"/>
     <use xlink:href="#ArialMT-6b" x="836.669922"/>
     <use xlink:href="#ArialMT-65" x="886.669922"/>
     <use xlink:href="#ArialMT-64" x="942.285156"/>
    </g>
   </g>
  </g>
  <g id="axes_2">
   <g id="patch_10">
    <path d="M 196.043418 137.524 
L 332.079875 137.524 
L 332.079875 22.848 
L 196.043418 22.848 
z
" style="fill: #eaeaf2"/>
   </g>
   <g id="matplotlib.axis_3">
    <g id="xtick_6"/>
    <g id="xtick_7"/>
    <g id="xtick_8"/>
    <g id="xtick_9"/>
    <g id="xtick_10"/>
   </g>
   <g id="matplotlib.axis_4">
    <g id="ytick_6">
     <g id="line2d_11">
      <path d="M 196.043418 121.999683 
L 332.079875 121.999683 
" clip-path="url(#p2bb27449d7)" style="fill: none; stroke: #ffffff; stroke-linecap: round"/>
     </g>
    </g>
    <g id="ytick_7">
     <g id="line2d_12">
      <path d="M 196.043418 99.939024 
L 332.079875 99.939024 
" clip-path="url(#p2bb27449d7)" style="fill: none; stroke: #ffffff; stroke-linecap: round"/>
     </g>
    </g>
    <g id="ytick_8">
     <g id="line2d_13">
      <path d="M 196.043418 77.878366 
L 332.079875 77.878366 
" clip-path="url(#p2bb27449d7)" style="fill: none; stroke: #ffffff; stroke-linecap: round"/>
     </g>
    </g>
    <g id="ytick_9">
     <g id="line2d_14">
      <path d="M 196.043418 55.817708 
L 332.079875 55.817708 
" clip-path="url(#p2bb27449d7)" style="fill: none; stroke: #ffffff; stroke-linecap: round"/>
     </g>
    </g>
    <g id="ytick_10">
     <g id="line2d_15">
      <path d="M 196.043418 33.757049 
L 332.079875 33.757049 
" clip-path="url(#p2bb27449d7)" style="fill: none; stroke: #ffffff; stroke-linecap: round"/>
     </g>
    </g>
   </g>
   <g id="patch_11">
    <path d="M 198.764147 121.999683 
L 220.52998 121.999683 
L 220.52998 121.999683 
L 198.764147 121.999683 
z
" clip-path="url(#p2bb27449d7)" style="fill: #224fdf; stroke: #ffffff; stroke-linejoin: miter"/>
   </g>
   <g id="patch_12">
    <path d="M 225.971439 121.999683 
L 247.737272 121.999683 
L 247.737272 36.227843 
L 225.971439 36.227843 
z
" clip-path="url(#p2bb27449d7)" style="fill: #df7d20; stroke: #ffffff; stroke-linejoin: miter"/>
   </g>
   <g id="patch_13">
    <path d="M 253.17873 121.999683 
L 274.944563 121.999683 
L 274.944563 96.585804 
L 253.17873 96.585804 
z
" clip-path="url(#p2bb27449d7)" style="fill: #30b346; stroke: #ffffff; stroke-linejoin: miter"/>
   </g>
   <g id="patch_14">
    <path d="M 280.386022 121.999683 
L 302.151855 121.999683 
L 302.151855 60.93578 
L 280.386022 60.93578 
z
" clip-path="url(#p2bb27449d7)" style="fill: #cb1d25; stroke: #ffffff; stroke-linejoin: miter"/>
   </g>
   <g id="patch_15">
    <path d="M 307.593313 121.999683 
L 329.359146 121.999683 
L 329.359146 33.757049 
L 307.593313 33.757049 
z
" clip-path="url(#p2bb27449d7)" style="fill: #8a42cb; stroke: #ffffff; stroke-linejoin: miter"/>
   </g>
   <g id="line2d_16">
    <path d="M 206.926335 121.999683 
L 212.367793 121.999683 
M 209.647064 121.999683 
L 209.647064 121.999683 
M 206.926335 121.999683 
L 212.367793 121.999683 
" clip-path="url(#p2bb27449d7)" style="fill: none; stroke: #424242; stroke-width: 2.25; stroke-linecap: round"/>
   </g>
   <g id="line2d_17">
    <path d="M 234.133626 42.413825 
L 239.575084 42.413825 
M 236.854355 42.413825 
L 236.854355 30.041861 
M 234.133626 30.041861 
L 239.575084 30.041861 
" clip-path="url(#p2bb27449d7)" style="fill: none; stroke: #424242; stroke-width: 2.25; stroke-linecap: round"/>
   </g>
   <g id="line2d_18">
    <path d="M 261.340918 105.435244 
L 266.782376 105.435244 
M 264.061647 105.435244 
L 264.061647 87.736365 
M 261.340918 87.736365 
L 266.782376 87.736365 
" clip-path="url(#p2bb27449d7)" style="fill: none; stroke: #424242; stroke-width: 2.25; stroke-linecap: round"/>
   </g>
   <g id="line2d_19">
    <path d="M 288.548209 82.685579 
L 293.989667 82.685579 
M 291.268938 82.685579 
L 291.268938 39.185981 
M 288.548209 39.185981 
L 293.989667 39.185981 
" clip-path="url(#p2bb27449d7)" style="fill: none; stroke: #424242; stroke-width: 2.25; stroke-linecap: round"/>
   </g>
   <g id="line2d_20">
    <path d="M 315.7555 33.757049 
L 321.196959 33.757049 
M 318.47623 33.757049 
L 318.47623 33.757049 
M 315.7555 33.757049 
L 321.196959 33.757049 
" clip-path="url(#p2bb27449d7)" style="fill: none; stroke: #424242; stroke-width: 2.25; stroke-linecap: round"/>
   </g>
   <g id="patch_16">
    <path d="M 196.043418 137.524 
L 196.043418 22.848 
" style="fill: none; stroke: #ffffff; stroke-width: 1.25; stroke-linejoin: miter; stroke-linecap: square"/>
   </g>
   <g id="patch_17">
    <path d="M 196.043418 137.524 
L 332.079875 137.524 
" style="fill: none; stroke: #ffffff; stroke-width: 1.25; stroke-linejoin: miter; stroke-linecap: square"/>
   </g>
   <g id="text_8">
    <!-- Attribute = Coastal -->
    <g style="fill: #262626" transform="translate(224.442147 16.848) scale(0.096 -0.096)">
     <defs>
      <path id="ArialMT-43" d="M 3763 1606 
L 4369 1453 
Q 4178 706 3683 314 
Q 3188 -78 2472 -78 
Q 1731 -78 1267 223 
Q 803 525 561 1097 
Q 319 1669 319 2325 
Q 319 3041 592 3573 
Q 866 4106 1370 4382 
Q 1875 4659 2481 4659 
Q 3169 4659 3637 4309 
Q 4106 3959 4291 3325 
L 3694 3184 
Q 3534 3684 3231 3912 
Q 2928 4141 2469 4141 
Q 1941 4141 1586 3887 
Q 1231 3634 1087 3207 
Q 944 2781 944 2328 
Q 944 1744 1114 1308 
Q 1284 872 1643 656 
Q 2003 441 2422 441 
Q 2931 441 3284 734 
Q 3638 1028 3763 1606 
z
" transform="scale(0.015625)"/>
     </defs>
     <use xlink:href="#ArialMT-41"/>
     <use xlink:href="#ArialMT-74" x="66.699219"/>
     <use xlink:href="#ArialMT-74" x="94.482422"/>
     <use xlink:href="#ArialMT-72" x="122.265625"/>
     <use xlink:href="#ArialMT-69" x="155.566406"/>
     <use xlink:href="#ArialMT-62" x="177.783203"/>
     <use xlink:href="#ArialMT-75" x="233.398438"/>
     <use xlink:href="#ArialMT-74" x="289.013672"/>
     <use xlink:href="#ArialMT-65" x="316.796875"/>
     <use xlink:href="#ArialMT-20" x="372.412109"/>
     <use xlink:href="#ArialMT-3d" x="400.195312"/>
     <use xlink:href="#ArialMT-20" x="458.59375"/>
     <use xlink:href="#ArialMT-43" x="486.376953"/>
     <use xlink:href="#ArialMT-6f" x="558.59375"/>
     <use xlink:href="#ArialMT-61" x="614.208984"/>
     <use xlink:href="#ArialMT-73" x="669.824219"/>
     <use xlink:href="#ArialMT-74" x="719.824219"/>
     <use xlink:href="#ArialMT-61" x="747.607422"/>
     <use xlink:href="#ArialMT-6c" x="803.222656"/>
    </g>
   </g>
  </g>
  <g id="axes_3">
   <g id="patch_18">
    <path d="M 344.511343 137.524 
L 480.5478 137.524 
L 480.5478 22.848 
L 344.511343 22.848 
z
" style="fill: #eaeaf2"/>
   </g>
   <g id="matplotlib.axis_5">
    <g id="xtick_11"/>
    <g id="xtick_12"/>
    <g id="xtick_13"/>
    <g id="xtick_14"/>
    <g id="xtick_15"/>
   </g>
   <g id="matplotlib.axis_6">
    <g id="ytick_11">
     <g id="line2d_21">
      <path d="M 344.511343 121.999683 
L 480.5478 121.999683 
" clip-path="url(#p0532106949)" style="fill: none; stroke: #ffffff; stroke-linecap: round"/>
     </g>
    </g>
    <g id="ytick_12">
     <g id="line2d_22">
      <path d="M 344.511343 99.939024 
L 480.5478 99.939024 
" clip-path="url(#p0532106949)" style="fill: none; stroke: #ffffff; stroke-linecap: round"/>
     </g>
    </g>
    <g id="ytick_13">
     <g id="line2d_23">
      <path d="M 344.511343 77.878366 
L 480.5478 77.878366 
" clip-path="url(#p0532106949)" style="fill: none; stroke: #ffffff; stroke-linecap: round"/>
     </g>
    </g>
    <g id="ytick_14">
     <g id="line2d_24">
      <path d="M 344.511343 55.817708 
L 480.5478 55.817708 
" clip-path="url(#p0532106949)" style="fill: none; stroke: #ffffff; stroke-linecap: round"/>
     </g>
    </g>
    <g id="ytick_15">
     <g id="line2d_25">
      <path d="M 344.511343 33.757049 
L 480.5478 33.757049 
" clip-path="url(#p0532106949)" style="fill: none; stroke: #ffffff; stroke-linecap: round"/>
     </g>
    </g>
   </g>
   <g id="patch_19">
    <path d="M 347.232072 121.999683 
L 368.997905 121.999683 
L 368.997905 121.999683 
L 347.232072 121.999683 
z
" clip-path="url(#p0532106949)" style="fill: #224fdf; stroke: #ffffff; stroke-linejoin: miter"/>
   </g>
   <g id="patch_20">
    <path d="M 374.439363 121.999683 
L 396.205197 121.999683 
L 396.205197 121.999683 
L 374.439363 121.999683 
z
" clip-path="url(#p0532106949)" style="fill: #df7d20; stroke: #ffffff; stroke-linejoin: miter"/>
   </g>
   <g id="patch_21">
    <path d="M 401.646655 121.999683 
L 423.412488 121.999683 
L 423.412488 89.879364 
L 401.646655 89.879364 
z
" clip-path="url(#p0532106949)" style="fill: #30b346; stroke: #ffffff; stroke-linejoin: miter"/>
   </g>
   <g id="patch_22">
    <path d="M 428.853946 121.999683 
L 450.619779 121.999683 
L 450.619779 82.819953 
L 428.853946 82.819953 
z
" clip-path="url(#p0532106949)" style="fill: #cb1d25; stroke: #ffffff; stroke-linejoin: miter"/>
   </g>
   <g id="patch_23">
    <path d="M 456.061238 121.999683 
L 477.827071 121.999683 
L 477.827071 33.757049 
L 456.061238 33.757049 
z
" clip-path="url(#p0532106949)" style="fill: #8a42cb; stroke: #ffffff; stroke-linejoin: miter"/>
   </g>
   <g id="line2d_26">
    <path d="M 355.394259 121.999683 
L 360.835718 121.999683 
M 358.114989 121.999683 
L 358.114989 121.999683 
M 355.394259 121.999683 
L 360.835718 121.999683 
" clip-path="url(#p0532106949)" style="fill: none; stroke: #424242; stroke-width: 2.25; stroke-linecap: round"/>
   </g>
   <g id="line2d_27">
    <path d="M 382.601551 121.999683 
L 388.043009 121.999683 
M 385.32228 121.999683 
L 385.32228 121.999683 
M 382.601551 121.999683 
L 388.043009 121.999683 
" clip-path="url(#p0532106949)" style="fill: none; stroke: #424242; stroke-width: 2.25; stroke-linecap: round"/>
   </g>
   <g id="line2d_28">
    <path d="M 409.808842 96.728544 
L 415.250301 96.728544 
M 412.529571 96.728544 
L 412.529571 83.030184 
M 409.808842 83.030184 
L 415.250301 83.030184 
" clip-path="url(#p0532106949)" style="fill: none; stroke: #424242; stroke-width: 2.25; stroke-linecap: round"/>
   </g>
   <g id="line2d_29">
    <path d="M 437.016134 103.698928 
L 442.457592 103.698928 
M 439.736863 103.698928 
L 439.736863 61.940979 
M 437.016134 61.940979 
L 442.457592 61.940979 
" clip-path="url(#p0532106949)" style="fill: none; stroke: #424242; stroke-width: 2.25; stroke-linecap: round"/>
   </g>
   <g id="line2d_30">
    <path d="M 464.223425 33.757049 
L 469.664883 33.757049 
M 466.944154 33.757049 
L 466.944154 33.757049 
M 464.223425 33.757049 
L 469.664883 33.757049 
" clip-path="url(#p0532106949)" style="fill: none; stroke: #424242; stroke-width: 2.25; stroke-linecap: round"/>
   </g>
   <g id="patch_24">
    <path d="M 344.511343 137.524 
L 344.511343 22.848 
" style="fill: none; stroke: #ffffff; stroke-width: 1.25; stroke-linejoin: miter; stroke-linecap: square"/>
   </g>
   <g id="patch_25">
    <path d="M 344.511343 137.524 
L 480.5478 137.524 
" style="fill: none; stroke: #ffffff; stroke-width: 1.25; stroke-linejoin: miter; stroke-linecap: square"/>
   </g>
   <g id="text_9">
    <!-- Attribute = Insular -->
    <g style="fill: #262626" transform="translate(374.778321 16.848) scale(0.096 -0.096)">
     <defs>
      <path id="ArialMT-49" d="M 597 0 
L 597 4581 
L 1203 4581 
L 1203 0 
L 597 0 
z
" transform="scale(0.015625)"/>
     </defs>
     <use xlink:href="#ArialMT-41"/>
     <use xlink:href="#ArialMT-74" x="66.699219"/>
     <use xlink:href="#ArialMT-74" x="94.482422"/>
     <use xlink:href="#ArialMT-72" x="122.265625"/>
     <use xlink:href="#ArialMT-69" x="155.566406"/>
     <use xlink:href="#ArialMT-62" x="177.783203"/>
     <use xlink:href="#ArialMT-75" x="233.398438"/>
     <use xlink:href="#ArialMT-74" x="289.013672"/>
     <use xlink:href="#ArialMT-65" x="316.796875"/>
     <use xlink:href="#ArialMT-20" x="372.412109"/>
     <use xlink:href="#ArialMT-3d" x="400.195312"/>
     <use xlink:href="#ArialMT-20" x="458.59375"/>
     <use xlink:href="#ArialMT-49" x="486.376953"/>
     <use xlink:href="#ArialMT-6e" x="514.160156"/>
     <use xlink:href="#ArialMT-73" x="569.775391"/>
     <use xlink:href="#ArialMT-75" x="619.775391"/>
     <use xlink:href="#ArialMT-6c" x="675.390625"/>
     <use xlink:href="#ArialMT-61" x="697.607422"/>
     <use xlink:href="#ArialMT-72" x="753.222656"/>
    </g>
   </g>
  </g>
  <g id="axes_4">
   <g id="patch_26">
    <path d="M 47.575493 291.908 
L 183.61195 291.908 
L 183.61195 177.232 
L 47.575493 177.232 
z
" style="fill: #eaeaf2"/>
   </g>
   <g id="matplotlib.axis_7">
    <g id="xtick_16"/>
    <g id="xtick_17"/>
    <g id="xtick_18"/>
    <g id="xtick_19"/>
    <g id="xtick_20"/>
   </g>
   <g id="matplotlib.axis_8">
    <g id="ytick_16">
     <g id="line2d_31">
      <path d="M 47.575493 276.383683 
L 183.61195 276.383683 
" clip-path="url(#p0724f0932d)" style="fill: none; stroke: #ffffff; stroke-linecap: round"/>
     </g>
     <g id="text_10">
      <!-- 0 -->
      <g style="fill: #262626" transform="translate(33.181868 279.53312) scale(0.088 -0.088)">
       <use xlink:href="#ArialMT-30"/>
      </g>
     </g>
    </g>
    <g id="ytick_17">
     <g id="line2d_32">
      <path d="M 47.575493 254.323024 
L 183.61195 254.323024 
" clip-path="url(#p0724f0932d)" style="fill: none; stroke: #ffffff; stroke-linecap: round"/>
     </g>
     <g id="text_11">
      <!-- 5 -->
      <g style="fill: #262626" transform="translate(33.181868 257.472462) scale(0.088 -0.088)">
       <use xlink:href="#ArialMT-35"/>
      </g>
     </g>
    </g>
    <g id="ytick_18">
     <g id="line2d_33">
      <path d="M 47.575493 232.262366 
L 183.61195 232.262366 
" clip-path="url(#p0724f0932d)" style="fill: none; stroke: #ffffff; stroke-linecap: round"/>
     </g>
     <g id="text_12">
      <!-- 10 -->
      <g style="fill: #262626" transform="translate(28.288243 235.411803) scale(0.088 -0.088)">
       <use xlink:href="#ArialMT-31"/>
       <use xlink:href="#ArialMT-30" x="55.615234"/>
      </g>
     </g>
    </g>
    <g id="ytick_19">
     <g id="line2d_34">
      <path d="M 47.575493 210.201708 
L 183.61195 210.201708 
" clip-path="url(#p0724f0932d)" style="fill: none; stroke: #ffffff; stroke-linecap: round"/>
     </g>
     <g id="text_13">
      <!-- 15 -->
      <g style="fill: #262626" transform="translate(28.288243 213.351145) scale(0.088 -0.088)">
       <use xlink:href="#ArialMT-31"/>
       <use xlink:href="#ArialMT-35" x="55.615234"/>
      </g>
     </g>
    </g>
    <g id="ytick_20">
     <g id="line2d_35">
      <path d="M 47.575493 188.141049 
L 183.61195 188.141049 
" clip-path="url(#p0724f0932d)" style="fill: none; stroke: #ffffff; stroke-linecap: round"/>
     </g>
     <g id="text_14">
      <!-- 20 -->
      <g style="fill: #262626" transform="translate(28.288243 191.290487) scale(0.088 -0.088)">
       <use xlink:href="#ArialMT-32"/>
       <use xlink:href="#ArialMT-30" x="55.615234"/>
      </g>
     </g>
    </g>
    <g id="text_15">
     <!-- Expected malicious traffic (Gbps) -->
     <g style="fill: #262626" transform="translate(22.267743 304.90725) rotate(-90) scale(0.096 -0.096)">
      <use xlink:href="#ArialMT-45"/>
      <use xlink:href="#ArialMT-78" x="66.699219"/>
      <use xlink:href="#ArialMT-70" x="116.699219"/>
      <use xlink:href="#ArialMT-65" x="172.314453"/>
      <use xlink:href="#ArialMT-63" x="227.929688"/>
      <use xlink:href="#ArialMT-74" x="277.929688"/>
      <use xlink:href="#ArialMT-65" x="305.712891"/>
      <use xlink:href="#ArialMT-64" x="361.328125"/>
      <use xlink:href="#ArialMT-20" x="416.943359"/>
      <use xlink:href="#ArialMT-6d" x="444.726562"/>
      <use xlink:href="#ArialMT-61" x="528.027344"/>
      <use xlink:href="#ArialMT-6c" x="583.642578"/>
      <use xlink:href="#ArialMT-69" x="605.859375"/>
      <use xlink:href="#ArialMT-63" x="628.076172"/>
      <use xlink:href="#ArialMT-69" x="678.076172"/>
      <use xlink:href="#ArialMT-6f" x="700.292969"/>
      <use xlink:href="#ArialMT-75" x="755.908203"/>
      <use xlink:href="#ArialMT-73" x="811.523438"/>
      <use xlink:href="#ArialMT-20" x="861.523438"/>
      <use xlink:href="#ArialMT-74" x="889.306641"/>
      <use xlink:href="#ArialMT-72" x="917.089844"/>
      <use xlink:href="#ArialMT-61" x="950.390625"/>
      <use xlink:href="#ArialMT-66" x="1006.005859"/>
      <use xlink:href="#ArialMT-66" x="1032.039062"/>
      <use xlink:href="#ArialMT-69" x="1059.822266"/>
      <use xlink:href="#ArialMT-63" x="1082.039062"/>
      <use xlink:href="#ArialMT-20" x="1132.039062"/>
      <use xlink:href="#ArialMT-28" x="1159.822266"/>
      <use xlink:href="#ArialMT-47" x="1193.123047"/>
      <use xlink:href="#ArialMT-62" x="1270.90625"/>
      <use xlink:href="#ArialMT-70" x="1326.521484"/>
      <use xlink:href="#ArialMT-73" x="1382.136719"/>
      <use xlink:href="#ArialMT-29" x="1432.136719"/>
     </g>
    </g>
   </g>
   <g id="patch_27">
    <path d="M 50.296222 276.383683 
L 72.062056 276.383683 
L 72.062056 212.848987 
L 50.296222 212.848987 
z
" clip-path="url(#p0724f0932d)" style="fill: #224fdf; stroke: #ffffff; stroke-linejoin: miter"/>
   </g>
   <g id="patch_28">
    <path d="M 77.503514 276.383683 
L 99.269347 276.383683 
L 99.269347 250.616834 
L 77.503514 250.616834 
z
" clip-path="url(#p0724f0932d)" style="fill: #df7d20; stroke: #ffffff; stroke-linejoin: miter"/>
   </g>
   <g id="patch_29">
    <path d="M 159.125388 276.383683 
L 180.891221 276.383683 
L 180.891221 188.141049 
L 159.125388 188.141049 
z
" clip-path="url(#p0724f0932d)" style="fill: #8a42cb; stroke: #ffffff; stroke-linejoin: miter"/>
   </g>
   <g id="line2d_36">
    <path d="M 58.45841 221.582742 
L 63.899868 221.582742 
M 61.179139 221.582742 
L 61.179139 204.115231 
M 58.45841 204.115231 
L 63.899868 204.115231 
" clip-path="url(#p0724f0932d)" style="fill: none; stroke: #424242; stroke-width: 2.25; stroke-linecap: round"/>
   </g>
   <g id="line2d_37">
    <path d="M 85.665701 259.502116 
L 91.10716 259.502116 
M 88.38643 259.502116 
L 88.38643 241.731552 
M 85.665701 241.731552 
L 91.10716 241.731552 
" clip-path="url(#p0724f0932d)" style="fill: none; stroke: #424242; stroke-width: 2.25; stroke-linecap: round"/>
   </g>
   <g id="line2d_38">
    <path d="M 167.287576 188.141049 
L 172.729034 188.141049 
M 170.008305 188.141049 
L 170.008305 188.141049 
M 167.287576 188.141049 
L 172.729034 188.141049 
" clip-path="url(#p0724f0932d)" style="fill: none; stroke: #424242; stroke-width: 2.25; stroke-linecap: round"/>
   </g>
   <g id="patch_30">
    <path d="M 47.575493 291.908 
L 47.575493 177.232 
" style="fill: none; stroke: #ffffff; stroke-width: 1.25; stroke-linejoin: miter; stroke-linecap: square"/>
   </g>
   <g id="patch_31">
    <path d="M 47.575493 291.908 
L 183.61195 291.908 
" style="fill: none; stroke: #ffffff; stroke-width: 1.25; stroke-linejoin: miter; stroke-linecap: square"/>
   </g>
   <g id="text_16">
    <!-- Attribute = Polar -->
    <g style="fill: #262626" transform="translate(81.043472 171.232) scale(0.096 -0.096)">
     <defs>
      <path id="ArialMT-50" d="M 494 0 
L 494 4581 
L 2222 4581 
Q 2678 4581 2919 4538 
Q 3256 4481 3484 4323 
Q 3713 4166 3852 3881 
Q 3991 3597 3991 3256 
Q 3991 2672 3619 2267 
Q 3247 1863 2275 1863 
L 1100 1863 
L 1100 0 
L 494 0 
z
M 1100 2403 
L 2284 2403 
Q 2872 2403 3119 2622 
Q 3366 2841 3366 3238 
Q 3366 3525 3220 3729 
Q 3075 3934 2838 4000 
Q 2684 4041 2272 4041 
L 1100 4041 
L 1100 2403 
z
" transform="scale(0.015625)"/>
     </defs>
     <use xlink:href="#ArialMT-41"/>
     <use xlink:href="#ArialMT-74" x="66.699219"/>
     <use xlink:href="#ArialMT-74" x="94.482422"/>
     <use xlink:href="#ArialMT-72" x="122.265625"/>
     <use xlink:href="#ArialMT-69" x="155.566406"/>
     <use xlink:href="#ArialMT-62" x="177.783203"/>
     <use xlink:href="#ArialMT-75" x="233.398438"/>
     <use xlink:href="#ArialMT-74" x="289.013672"/>
     <use xlink:href="#ArialMT-65" x="316.796875"/>
     <use xlink:href="#ArialMT-20" x="372.412109"/>
     <use xlink:href="#ArialMT-3d" x="400.195312"/>
     <use xlink:href="#ArialMT-20" x="458.59375"/>
     <use xlink:href="#ArialMT-50" x="486.376953"/>
     <use xlink:href="#ArialMT-6f" x="553.076172"/>
     <use xlink:href="#ArialMT-6c" x="608.691406"/>
     <use xlink:href="#ArialMT-61" x="630.908203"/>
     <use xlink:href="#ArialMT-72" x="686.523438"/>
    </g>
   </g>
  </g>
  <g id="axes_5">
   <g id="patch_32">
    <path d="M 196.043418 291.908 
L 332.079875 291.908 
L 332.079875 177.232 
L 196.043418 177.232 
z
" style="fill: #eaeaf2"/>
   </g>
   <g id="matplotlib.axis_9">
    <g id="xtick_21">
     <g id="text_17">
      <!-- East -->
      <g style="fill: #262626" transform="translate(200.842939 307.706875) scale(0.088 -0.088)">
       <use xlink:href="#ArialMT-45"/>
       <use xlink:href="#ArialMT-61" x="66.699219"/>
       <use xlink:href="#ArialMT-73" x="122.314453"/>
       <use xlink:href="#ArialMT-74" x="172.314453"/>
      </g>
     </g>
    </g>
    <g id="xtick_22">
     <g id="text_18">
      <!-- West -->
      <g style="fill: #262626" transform="translate(226.90898 307.706875) scale(0.088 -0.088)">
       <defs>
        <path id="ArialMT-57" d="M 1294 0 
L 78 4581 
L 700 4581 
L 1397 1578 
Q 1509 1106 1591 641 
Q 1766 1375 1797 1488 
L 2669 4581 
L 3400 4581 
L 4056 2263 
Q 4303 1400 4413 641 
Q 4500 1075 4641 1638 
L 5359 4581 
L 5969 4581 
L 4713 0 
L 4128 0 
L 3163 3491 
Q 3041 3928 3019 4028 
Q 2947 3713 2884 3491 
L 1913 0 
L 1294 0 
z
" transform="scale(0.015625)"/>
       </defs>
       <use xlink:href="#ArialMT-57"/>
       <use xlink:href="#ArialMT-65" x="92.634766"/>
       <use xlink:href="#ArialMT-73" x="148.25"/>
       <use xlink:href="#ArialMT-74" x="198.25"/>
      </g>
     </g>
    </g>
    <g id="xtick_23">
     <g id="text_19">
      <!-- North -->
      <g style="fill: #262626" transform="translate(253.302959 307.706875) scale(0.088 -0.088)">
       <defs>
        <path id="ArialMT-4e" d="M 488 0 
L 488 4581 
L 1109 4581 
L 3516 984 
L 3516 4581 
L 4097 4581 
L 4097 0 
L 3475 0 
L 1069 3600 
L 1069 0 
L 488 0 
z
" transform="scale(0.015625)"/>
        <path id="ArialMT-68" d="M 422 0 
L 422 4581 
L 984 4581 
L 984 2938 
Q 1378 3394 1978 3394 
Q 2347 3394 2619 3248 
Q 2891 3103 3008 2847 
Q 3125 2591 3125 2103 
L 3125 0 
L 2563 0 
L 2563 2103 
Q 2563 2525 2380 2717 
Q 2197 2909 1863 2909 
Q 1613 2909 1392 2779 
Q 1172 2650 1078 2428 
Q 984 2206 984 1816 
L 984 0 
L 422 0 
z
" transform="scale(0.015625)"/>
       </defs>
       <use xlink:href="#ArialMT-4e"/>
       <use xlink:href="#ArialMT-6f" x="72.216797"/>
       <use xlink:href="#ArialMT-72" x="127.832031"/>
       <use xlink:href="#ArialMT-74" x="161.132812"/>
       <use xlink:href="#ArialMT-68" x="188.916016"/>
      </g>
     </g>
    </g>
    <g id="xtick_24">
     <g id="text_20">
      <!-- South -->
      <g style="fill: #262626" transform="translate(279.771188 307.706875) scale(0.088 -0.088)">
       <defs>
        <path id="ArialMT-53" d="M 288 1472 
L 859 1522 
Q 900 1178 1048 958 
Q 1197 738 1509 602 
Q 1822 466 2213 466 
Q 2559 466 2825 569 
Q 3091 672 3220 851 
Q 3350 1031 3350 1244 
Q 3350 1459 3225 1620 
Q 3100 1781 2813 1891 
Q 2628 1963 1997 2114 
Q 1366 2266 1113 2400 
Q 784 2572 623 2826 
Q 463 3081 463 3397 
Q 463 3744 659 4045 
Q 856 4347 1234 4503 
Q 1613 4659 2075 4659 
Q 2584 4659 2973 4495 
Q 3363 4331 3572 4012 
Q 3781 3694 3797 3291 
L 3216 3247 
Q 3169 3681 2898 3903 
Q 2628 4125 2100 4125 
Q 1550 4125 1298 3923 
Q 1047 3722 1047 3438 
Q 1047 3191 1225 3031 
Q 1400 2872 2139 2705 
Q 2878 2538 3153 2413 
Q 3553 2228 3743 1945 
Q 3934 1663 3934 1294 
Q 3934 928 3725 604 
Q 3516 281 3123 101 
Q 2731 -78 2241 -78 
Q 1619 -78 1198 103 
Q 778 284 539 648 
Q 300 1013 288 1472 
z
" transform="scale(0.015625)"/>
       </defs>
       <use xlink:href="#ArialMT-53"/>
       <use xlink:href="#ArialMT-6f" x="66.699219"/>
       <use xlink:href="#ArialMT-75" x="122.314453"/>
       <use xlink:href="#ArialMT-74" x="177.929688"/>
       <use xlink:href="#ArialMT-68" x="205.712891"/>
      </g>
     </g>
    </g>
    <g id="xtick_25">
     <g id="text_21">
      <!-- Theory -->
      <g style="fill: #262626" transform="translate(304.783292 307.706875) scale(0.088 -0.088)">
       <defs>
        <path id="ArialMT-54" d="M 1659 0 
L 1659 4041 
L 150 4041 
L 150 4581 
L 3781 4581 
L 3781 4041 
L 2266 4041 
L 2266 0 
L 1659 0 
z
" transform="scale(0.015625)"/>
        <path id="ArialMT-79" d="M 397 -1278 
L 334 -750 
Q 519 -800 656 -800 
Q 844 -800 956 -737 
Q 1069 -675 1141 -563 
Q 1194 -478 1313 -144 
Q 1328 -97 1363 -6 
L 103 3319 
L 709 3319 
L 1400 1397 
Q 1534 1031 1641 628 
Q 1738 1016 1872 1384 
L 2581 3319 
L 3144 3319 
L 1881 -56 
Q 1678 -603 1566 -809 
Q 1416 -1088 1222 -1217 
Q 1028 -1347 759 -1347 
Q 597 -1347 397 -1278 
z
" transform="scale(0.015625)"/>
       </defs>
       <use xlink:href="#ArialMT-54"/>
       <use xlink:href="#ArialMT-68" x="61.083984"/>
       <use xlink:href="#ArialMT-65" x="116.699219"/>
       <use xlink:href="#ArialMT-6f" x="172.314453"/>
       <use xlink:href="#ArialMT-72" x="227.929688"/>
       <use xlink:href="#ArialMT-79" x="261.230469"/>
      </g>
     </g>
    </g>
    <g id="text_22">
     <!-- Direction -->
     <g style="fill: #262626" transform="translate(245.122647 320.4305) scale(0.096 -0.096)">
      <defs>
       <path id="ArialMT-44" d="M 494 0 
L 494 4581 
L 2072 4581 
Q 2606 4581 2888 4516 
Q 3281 4425 3559 4188 
Q 3922 3881 4101 3404 
Q 4281 2928 4281 2316 
Q 4281 1794 4159 1391 
Q 4038 988 3847 723 
Q 3656 459 3429 307 
Q 3203 156 2883 78 
Q 2563 0 2147 0 
L 494 0 
z
M 1100 541 
L 2078 541 
Q 2531 541 2789 625 
Q 3047 709 3200 863 
Q 3416 1078 3536 1442 
Q 3656 1806 3656 2325 
Q 3656 3044 3420 3430 
Q 3184 3816 2847 3947 
Q 2603 4041 2063 4041 
L 1100 4041 
L 1100 541 
z
" transform="scale(0.015625)"/>
      </defs>
      <use xlink:href="#ArialMT-44"/>
      <use xlink:href="#ArialMT-69" x="72.216797"/>
      <use xlink:href="#ArialMT-72" x="94.433594"/>
      <use xlink:href="#ArialMT-65" x="127.734375"/>
      <use xlink:href="#ArialMT-63" x="183.349609"/>
      <use xlink:href="#ArialMT-74" x="233.349609"/>
      <use xlink:href="#ArialMT-69" x="261.132812"/>
      <use xlink:href="#ArialMT-6f" x="283.349609"/>
      <use xlink:href="#ArialMT-6e" x="338.964844"/>
     </g>
    </g>
   </g>
   <g id="matplotlib.axis_10">
    <g id="ytick_21">
     <g id="line2d_39">
      <path d="M 196.043418 276.383683 
L 332.079875 276.383683 
" clip-path="url(#p8a426350cd)" style="fill: none; stroke: #ffffff; stroke-linecap: round"/>
     </g>
    </g>
    <g id="ytick_22">
     <g id="line2d_40">
      <path d="M 196.043418 254.323024 
L 332.079875 254.323024 
" clip-path="url(#p8a426350cd)" style="fill: none; stroke: #ffffff; stroke-linecap: round"/>
     </g>
    </g>
    <g id="ytick_23">
     <g id="line2d_41">
      <path d="M 196.043418 232.262366 
L 332.079875 232.262366 
" clip-path="url(#p8a426350cd)" style="fill: none; stroke: #ffffff; stroke-linecap: round"/>
     </g>
    </g>
    <g id="ytick_24">
     <g id="line2d_42">
      <path d="M 196.043418 210.201708 
L 332.079875 210.201708 
" clip-path="url(#p8a426350cd)" style="fill: none; stroke: #ffffff; stroke-linecap: round"/>
     </g>
    </g>
    <g id="ytick_25">
     <g id="line2d_43">
      <path d="M 196.043418 188.141049 
L 332.079875 188.141049 
" clip-path="url(#p8a426350cd)" style="fill: none; stroke: #ffffff; stroke-linecap: round"/>
     </g>
    </g>
   </g>
   <g id="patch_33">
    <path d="M 198.764147 276.383683 
L 220.52998 276.383683 
L 220.52998 244.969305 
L 198.764147 244.969305 
z
" clip-path="url(#p8a426350cd)" style="fill: #224fdf; stroke: #ffffff; stroke-linejoin: miter"/>
   </g>
   <g id="patch_34">
    <path d="M 225.971439 276.383683 
L 247.737272 276.383683 
L 247.737272 255.205451 
L 225.971439 255.205451 
z
" clip-path="url(#p8a426350cd)" style="fill: #df7d20; stroke: #ffffff; stroke-linejoin: miter"/>
   </g>
   <g id="patch_35">
    <path d="M 253.17873 276.383683 
L 274.944563 276.383683 
L 274.944563 204.377694 
L 253.17873 204.377694 
z
" clip-path="url(#p8a426350cd)" style="fill: #30b346; stroke: #ffffff; stroke-linejoin: miter"/>
   </g>
   <g id="patch_36">
    <path d="M 280.386022 276.383683 
L 302.151855 276.383683 
L 302.151855 209.319281 
L 280.386022 209.319281 
z
" clip-path="url(#p8a426350cd)" style="fill: #cb1d25; stroke: #ffffff; stroke-linejoin: miter"/>
   </g>
   <g id="patch_37">
    <path d="M 307.593313 276.383683 
L 329.359146 276.383683 
L 329.359146 188.141049 
L 307.593313 188.141049 
z
" clip-path="url(#p8a426350cd)" style="fill: #8a42cb; stroke: #ffffff; stroke-linejoin: miter"/>
   </g>
   <g id="line2d_44">
    <path d="M 206.926335 280.497911 
L 212.367793 280.497911 
M 209.647064 280.497911 
L 209.647064 209.440699 
M 206.926335 209.440699 
L 212.367793 209.440699 
" clip-path="url(#p8a426350cd)" style="fill: none; stroke: #424242; stroke-width: 2.25; stroke-linecap: round"/>
   </g>
   <g id="line2d_45">
    <path d="M 234.133626 286.695455 
L 239.575084 286.695455 
M 236.854355 286.695455 
L 236.854355 223.715447 
M 234.133626 223.715447 
L 239.575084 223.715447 
" clip-path="url(#p8a426350cd)" style="fill: none; stroke: #424242; stroke-width: 2.25; stroke-linecap: round"/>
   </g>
   <g id="line2d_46">
    <path d="M 261.340918 209.214229 
L 266.782376 209.214229 
M 264.061647 209.214229 
L 264.061647 199.541159 
M 261.340918 199.541159 
L 266.782376 199.541159 
" clip-path="url(#p8a426350cd)" style="fill: none; stroke: #424242; stroke-width: 2.25; stroke-linecap: round"/>
   </g>
   <g id="line2d_47">
    <path d="M 288.548209 216.450363 
L 293.989667 216.450363 
M 291.268938 216.450363 
L 291.268938 202.1882 
M 288.548209 202.1882 
L 293.989667 202.1882 
" clip-path="url(#p8a426350cd)" style="fill: none; stroke: #424242; stroke-width: 2.25; stroke-linecap: round"/>
   </g>
   <g id="line2d_48">
    <path d="M 315.7555 188.141049 
L 321.196959 188.141049 
M 318.47623 188.141049 
L 318.47623 188.141049 
M 315.7555 188.141049 
L 321.196959 188.141049 
" clip-path="url(#p8a426350cd)" style="fill: none; stroke: #424242; stroke-width: 2.25; stroke-linecap: round"/>
   </g>
   <g id="patch_38">
    <path d="M 196.043418 291.908 
L 196.043418 177.232 
" style="fill: none; stroke: #ffffff; stroke-width: 1.25; stroke-linejoin: miter; stroke-linecap: square"/>
   </g>
   <g id="patch_39">
    <path d="M 196.043418 291.908 
L 332.079875 291.908 
" style="fill: none; stroke: #ffffff; stroke-width: 1.25; stroke-linejoin: miter; stroke-linecap: square"/>
   </g>
   <g id="text_23">
    <!-- Attribute = Equatorial -->
    <g style="fill: #262626" transform="translate(219.103647 171.232) scale(0.096 -0.096)">
     <defs>
      <path id="ArialMT-71" d="M 2538 -1272 
L 2538 353 
Q 2406 169 2170 47 
Q 1934 -75 1669 -75 
Q 1078 -75 651 397 
Q 225 869 225 1691 
Q 225 2191 398 2587 
Q 572 2984 901 3189 
Q 1231 3394 1625 3394 
Q 2241 3394 2594 2875 
L 2594 3319 
L 3100 3319 
L 3100 -1272 
L 2538 -1272 
z
M 803 1669 
Q 803 1028 1072 708 
Q 1341 388 1716 388 
Q 2075 388 2334 692 
Q 2594 997 2594 1619 
Q 2594 2281 2320 2615 
Q 2047 2950 1678 2950 
Q 1313 2950 1058 2639 
Q 803 2328 803 1669 
z
" transform="scale(0.015625)"/>
     </defs>
     <use xlink:href="#ArialMT-41"/>
     <use xlink:href="#ArialMT-74" x="66.699219"/>
     <use xlink:href="#ArialMT-74" x="94.482422"/>
     <use xlink:href="#ArialMT-72" x="122.265625"/>
     <use xlink:href="#ArialMT-69" x="155.566406"/>
     <use xlink:href="#ArialMT-62" x="177.783203"/>
     <use xlink:href="#ArialMT-75" x="233.398438"/>
     <use xlink:href="#ArialMT-74" x="289.013672"/>
     <use xlink:href="#ArialMT-65" x="316.796875"/>
     <use xlink:href="#ArialMT-20" x="372.412109"/>
     <use xlink:href="#ArialMT-3d" x="400.195312"/>
     <use xlink:href="#ArialMT-20" x="458.59375"/>
     <use xlink:href="#ArialMT-45" x="486.376953"/>
     <use xlink:href="#ArialMT-71" x="553.076172"/>
     <use xlink:href="#ArialMT-75" x="608.691406"/>
     <use xlink:href="#ArialMT-61" x="664.306641"/>
     <use xlink:href="#ArialMT-74" x="719.921875"/>
     <use xlink:href="#ArialMT-6f" x="747.705078"/>
     <use xlink:href="#ArialMT-72" x="803.320312"/>
     <use xlink:href="#ArialMT-69" x="836.621094"/>
     <use xlink:href="#ArialMT-61" x="858.837891"/>
     <use xlink:href="#ArialMT-6c" x="914.453125"/>
    </g>
   </g>
  </g>
  <g id="axes_6">
   <g id="patch_40">
    <path d="M 344.511343 291.908 
L 480.5478 291.908 
L 480.5478 177.232 
L 344.511343 177.232 
z
" style="fill: #eaeaf2"/>
   </g>
   <g id="matplotlib.axis_11">
    <g id="xtick_26">
     <g id="text_24">
      <!-- East -->
      <g style="fill: #262626" transform="translate(349.310864 307.706875) scale(0.088 -0.088)">
       <use xlink:href="#ArialMT-45"/>
       <use xlink:href="#ArialMT-61" x="66.699219"/>
       <use xlink:href="#ArialMT-73" x="122.314453"/>
       <use xlink:href="#ArialMT-74" x="172.314453"/>
      </g>
     </g>
    </g>
    <g id="xtick_27">
     <g id="text_25">
      <!-- West -->
      <g style="fill: #262626" transform="translate(375.376905 307.706875) scale(0.088 -0.088)">
       <use xlink:href="#ArialMT-57"/>
       <use xlink:href="#ArialMT-65" x="92.634766"/>
       <use xlink:href="#ArialMT-73" x="148.25"/>
       <use xlink:href="#ArialMT-74" x="198.25"/>
      </g>
     </g>
    </g>
    <g id="xtick_28">
     <g id="text_26">
      <!-- North -->
      <g style="fill: #262626" transform="translate(401.770884 307.706875) scale(0.088 -0.088)">
       <use xlink:href="#ArialMT-4e"/>
       <use xlink:href="#ArialMT-6f" x="72.216797"/>
       <use xlink:href="#ArialMT-72" x="127.832031"/>
       <use xlink:href="#ArialMT-74" x="161.132812"/>
       <use xlink:href="#ArialMT-68" x="188.916016"/>
      </g>
     </g>
    </g>
    <g id="xtick_29">
     <g id="text_27">
      <!-- South -->
      <g style="fill: #262626" transform="translate(428.239113 307.706875) scale(0.088 -0.088)">
       <use xlink:href="#ArialMT-53"/>
       <use xlink:href="#ArialMT-6f" x="66.699219"/>
       <use xlink:href="#ArialMT-75" x="122.314453"/>
       <use xlink:href="#ArialMT-74" x="177.929688"/>
       <use xlink:href="#ArialMT-68" x="205.712891"/>
      </g>
     </g>
    </g>
    <g id="xtick_30">
     <g id="text_28">
      <!-- Theory -->
      <g style="fill: #262626" transform="translate(453.251217 307.706875) scale(0.088 -0.088)">
       <use xlink:href="#ArialMT-54"/>
       <use xlink:href="#ArialMT-68" x="61.083984"/>
       <use xlink:href="#ArialMT-65" x="116.699219"/>
       <use xlink:href="#ArialMT-6f" x="172.314453"/>
       <use xlink:href="#ArialMT-72" x="227.929688"/>
       <use xlink:href="#ArialMT-79" x="261.230469"/>
      </g>
     </g>
    </g>
    <g id="text_29">
     <!-- Direction -->
     <g style="fill: #262626" transform="translate(393.590571 320.4305) scale(0.096 -0.096)">
      <use xlink:href="#ArialMT-44"/>
      <use xlink:href="#ArialMT-69" x="72.216797"/>
      <use xlink:href="#ArialMT-72" x="94.433594"/>
      <use xlink:href="#ArialMT-65" x="127.734375"/>
      <use xlink:href="#ArialMT-63" x="183.349609"/>
      <use xlink:href="#ArialMT-74" x="233.349609"/>
      <use xlink:href="#ArialMT-69" x="261.132812"/>
      <use xlink:href="#ArialMT-6f" x="283.349609"/>
      <use xlink:href="#ArialMT-6e" x="338.964844"/>
     </g>
    </g>
   </g>
   <g id="matplotlib.axis_12">
    <g id="ytick_26">
     <g id="line2d_49">
      <path d="M 344.511343 276.383683 
L 480.5478 276.383683 
" clip-path="url(#p3db89d3edf)" style="fill: none; stroke: #ffffff; stroke-linecap: round"/>
     </g>
    </g>
    <g id="ytick_27">
     <g id="line2d_50">
      <path d="M 344.511343 254.323024 
L 480.5478 254.323024 
" clip-path="url(#p3db89d3edf)" style="fill: none; stroke: #ffffff; stroke-linecap: round"/>
     </g>
    </g>
    <g id="ytick_28">
     <g id="line2d_51">
      <path d="M 344.511343 232.262366 
L 480.5478 232.262366 
" clip-path="url(#p3db89d3edf)" style="fill: none; stroke: #ffffff; stroke-linecap: round"/>
     </g>
    </g>
    <g id="ytick_29">
     <g id="line2d_52">
      <path d="M 344.511343 210.201708 
L 480.5478 210.201708 
" clip-path="url(#p3db89d3edf)" style="fill: none; stroke: #ffffff; stroke-linecap: round"/>
     </g>
    </g>
    <g id="ytick_30">
     <g id="line2d_53">
      <path d="M 344.511343 188.141049 
L 480.5478 188.141049 
" clip-path="url(#p3db89d3edf)" style="fill: none; stroke: #ffffff; stroke-linecap: round"/>
     </g>
    </g>
   </g>
   <g id="patch_41">
    <path d="M 347.232072 276.383683 
L 368.997905 276.383683 
L 368.997905 268.971301 
L 347.232072 268.971301 
z
" clip-path="url(#p3db89d3edf)" style="fill: #224fdf; stroke: #ffffff; stroke-linejoin: miter"/>
   </g>
   <g id="patch_42">
    <path d="M 374.439363 276.383683 
L 396.205197 276.383683 
L 396.205197 246.028217 
L 374.439363 246.028217 
z
" clip-path="url(#p3db89d3edf)" style="fill: #df7d20; stroke: #ffffff; stroke-linejoin: miter"/>
   </g>
   <g id="patch_43">
    <path d="M 456.061238 276.383683 
L 477.827071 276.383683 
L 477.827071 188.141049 
L 456.061238 188.141049 
z
" clip-path="url(#p3db89d3edf)" style="fill: #8a42cb; stroke: #ffffff; stroke-linejoin: miter"/>
   </g>
   <g id="line2d_54">
    <path d="M 355.394259 282.821948 
L 360.835718 282.821948 
M 358.114989 282.821948 
L 358.114989 255.120655 
M 355.394259 255.120655 
L 360.835718 255.120655 
" clip-path="url(#p3db89d3edf)" style="fill: none; stroke: #424242; stroke-width: 2.25; stroke-linecap: round"/>
   </g>
   <g id="line2d_55">
    <path d="M 382.601551 267.134291 
L 388.043009 267.134291 
M 385.32228 267.134291 
L 385.32228 224.922143 
M 382.601551 224.922143 
L 388.043009 224.922143 
" clip-path="url(#p3db89d3edf)" style="fill: none; stroke: #424242; stroke-width: 2.25; stroke-linecap: round"/>
   </g>
   <g id="line2d_56">
    <path d="M 464.223425 188.141049 
L 469.664883 188.141049 
M 466.944154 188.141049 
L 466.944154 188.141049 
M 464.223425 188.141049 
L 469.664883 188.141049 
" clip-path="url(#p3db89d3edf)" style="fill: none; stroke: #424242; stroke-width: 2.25; stroke-linecap: round"/>
   </g>
   <g id="patch_44">
    <path d="M 344.511343 291.908 
L 344.511343 177.232 
" style="fill: none; stroke: #ffffff; stroke-width: 1.25; stroke-linejoin: miter; stroke-linecap: square"/>
   </g>
   <g id="patch_45">
    <path d="M 344.511343 291.908 
L 480.5478 291.908 
" style="fill: none; stroke: #ffffff; stroke-width: 1.25; stroke-linejoin: miter; stroke-linecap: square"/>
   </g>
   <g id="text_30">
    <!-- Attribute = TransOrbital -->
    <g style="fill: #262626" transform="translate(363.043071 171.232) scale(0.096 -0.096)">
     <defs>
      <path id="ArialMT-4f" d="M 309 2231 
Q 309 3372 921 4017 
Q 1534 4663 2503 4663 
Q 3138 4663 3647 4359 
Q 4156 4056 4423 3514 
Q 4691 2972 4691 2284 
Q 4691 1588 4409 1038 
Q 4128 488 3612 205 
Q 3097 -78 2500 -78 
Q 1853 -78 1343 234 
Q 834 547 571 1087 
Q 309 1628 309 2231 
z
M 934 2222 
Q 934 1394 1379 917 
Q 1825 441 2497 441 
Q 3181 441 3623 922 
Q 4066 1403 4066 2288 
Q 4066 2847 3877 3264 
Q 3688 3681 3323 3911 
Q 2959 4141 2506 4141 
Q 1863 4141 1398 3698 
Q 934 3256 934 2222 
z
" transform="scale(0.015625)"/>
     </defs>
     <use xlink:href="#ArialMT-41"/>
     <use xlink:href="#ArialMT-74" x="66.699219"/>
     <use xlink:href="#ArialMT-74" x="94.482422"/>
     <use xlink:href="#ArialMT-72" x="122.265625"/>
     <use xlink:href="#ArialMT-69" x="155.566406"/>
     <use xlink:href="#ArialMT-62" x="177.783203"/>
     <use xlink:href="#ArialMT-75" x="233.398438"/>
     <use xlink:href="#ArialMT-74" x="289.013672"/>
     <use xlink:href="#ArialMT-65" x="316.796875"/>
     <use xlink:href="#ArialMT-20" x="372.412109"/>
     <use xlink:href="#ArialMT-3d" x="400.195312"/>
     <use xlink:href="#ArialMT-20" x="458.59375"/>
     <use xlink:href="#ArialMT-54" x="484.626953"/>
     <use xlink:href="#ArialMT-72" x="541.960938"/>
     <use xlink:href="#ArialMT-61" x="575.261719"/>
     <use xlink:href="#ArialMT-6e" x="630.876953"/>
     <use xlink:href="#ArialMT-73" x="686.492188"/>
     <use xlink:href="#ArialMT-4f" x="736.492188"/>
     <use xlink:href="#ArialMT-72" x="814.275391"/>
     <use xlink:href="#ArialMT-62" x="847.576172"/>
     <use xlink:href="#ArialMT-69" x="903.191406"/>
     <use xlink:href="#ArialMT-74" x="925.408203"/>
     <use xlink:href="#ArialMT-61" x="953.191406"/>
     <use xlink:href="#ArialMT-6c" x="1008.806641"/>
    </g>
   </g>
  </g>
  <g id="axes_7">
   <g id="patch_46">
    <path d="M 47.575493 446.292 
L 183.61195 446.292 
L 183.61195 331.616 
L 47.575493 331.616 
z
" style="fill: #eaeaf2"/>
   </g>
   <g id="matplotlib.axis_13">
    <g id="xtick_31">
     <g id="text_31">
      <!-- East -->
      <g style="fill: #262626" transform="translate(52.375014 462.090875) scale(0.088 -0.088)">
       <use xlink:href="#ArialMT-45"/>
       <use xlink:href="#ArialMT-61" x="66.699219"/>
       <use xlink:href="#ArialMT-73" x="122.314453"/>
       <use xlink:href="#ArialMT-74" x="172.314453"/>
      </g>
     </g>
    </g>
    <g id="xtick_32">
     <g id="text_32">
      <!-- West -->
      <g style="fill: #262626" transform="translate(78.441055 462.090875) scale(0.088 -0.088)">
       <use xlink:href="#ArialMT-57"/>
       <use xlink:href="#ArialMT-65" x="92.634766"/>
       <use xlink:href="#ArialMT-73" x="148.25"/>
       <use xlink:href="#ArialMT-74" x="198.25"/>
      </g>
     </g>
    </g>
    <g id="xtick_33">
     <g id="text_33">
      <!-- North -->
      <g style="fill: #262626" transform="translate(104.835034 462.090875) scale(0.088 -0.088)">
       <use xlink:href="#ArialMT-4e"/>
       <use xlink:href="#ArialMT-6f" x="72.216797"/>
       <use xlink:href="#ArialMT-72" x="127.832031"/>
       <use xlink:href="#ArialMT-74" x="161.132812"/>
       <use xlink:href="#ArialMT-68" x="188.916016"/>
      </g>
     </g>
    </g>
    <g id="xtick_34">
     <g id="text_34">
      <!-- South -->
      <g style="fill: #262626" transform="translate(131.303263 462.090875) scale(0.088 -0.088)">
       <use xlink:href="#ArialMT-53"/>
       <use xlink:href="#ArialMT-6f" x="66.699219"/>
       <use xlink:href="#ArialMT-75" x="122.314453"/>
       <use xlink:href="#ArialMT-74" x="177.929688"/>
       <use xlink:href="#ArialMT-68" x="205.712891"/>
      </g>
     </g>
    </g>
    <g id="xtick_35">
     <g id="text_35">
      <!-- Theory -->
      <g style="fill: #262626" transform="translate(156.315367 462.090875) scale(0.088 -0.088)">
       <use xlink:href="#ArialMT-54"/>
       <use xlink:href="#ArialMT-68" x="61.083984"/>
       <use xlink:href="#ArialMT-65" x="116.699219"/>
       <use xlink:href="#ArialMT-6f" x="172.314453"/>
       <use xlink:href="#ArialMT-72" x="227.929688"/>
       <use xlink:href="#ArialMT-79" x="261.230469"/>
      </g>
     </g>
    </g>
    <g id="text_36">
     <!-- Direction -->
     <g style="fill: #262626" transform="translate(96.654722 474.8145) scale(0.096 -0.096)">
      <use xlink:href="#ArialMT-44"/>
      <use xlink:href="#ArialMT-69" x="72.216797"/>
      <use xlink:href="#ArialMT-72" x="94.433594"/>
      <use xlink:href="#ArialMT-65" x="127.734375"/>
      <use xlink:href="#ArialMT-63" x="183.349609"/>
      <use xlink:href="#ArialMT-74" x="233.349609"/>
      <use xlink:href="#ArialMT-69" x="261.132812"/>
      <use xlink:href="#ArialMT-6f" x="283.349609"/>
      <use xlink:href="#ArialMT-6e" x="338.964844"/>
     </g>
    </g>
   </g>
   <g id="matplotlib.axis_14">
    <g id="ytick_31">
     <g id="line2d_57">
      <path d="M 47.575493 430.767683 
L 183.61195 430.767683 
" clip-path="url(#pf2395a4ff1)" style="fill: none; stroke: #ffffff; stroke-linecap: round"/>
     </g>
     <g id="text_37">
      <!-- 0 -->
      <g style="fill: #262626" transform="translate(33.181868 433.91712) scale(0.088 -0.088)">
       <use xlink:href="#ArialMT-30"/>
      </g>
     </g>
    </g>
    <g id="ytick_32">
     <g id="line2d_58">
      <path d="M 47.575493 408.707024 
L 183.61195 408.707024 
" clip-path="url(#pf2395a4ff1)" style="fill: none; stroke: #ffffff; stroke-linecap: round"/>
     </g>
     <g id="text_38">
      <!-- 5 -->
      <g style="fill: #262626" transform="translate(33.181868 411.856462) scale(0.088 -0.088)">
       <use xlink:href="#ArialMT-35"/>
      </g>
     </g>
    </g>
    <g id="ytick_33">
     <g id="line2d_59">
      <path d="M 47.575493 386.646366 
L 183.61195 386.646366 
" clip-path="url(#pf2395a4ff1)" style="fill: none; stroke: #ffffff; stroke-linecap: round"/>
     </g>
     <g id="text_39">
      <!-- 10 -->
      <g style="fill: #262626" transform="translate(28.288243 389.795803) scale(0.088 -0.088)">
       <use xlink:href="#ArialMT-31"/>
       <use xlink:href="#ArialMT-30" x="55.615234"/>
      </g>
     </g>
    </g>
    <g id="ytick_34">
     <g id="line2d_60">
      <path d="M 47.575493 364.585708 
L 183.61195 364.585708 
" clip-path="url(#pf2395a4ff1)" style="fill: none; stroke: #ffffff; stroke-linecap: round"/>
     </g>
     <g id="text_40">
      <!-- 15 -->
      <g style="fill: #262626" transform="translate(28.288243 367.735145) scale(0.088 -0.088)">
       <use xlink:href="#ArialMT-31"/>
       <use xlink:href="#ArialMT-35" x="55.615234"/>
      </g>
     </g>
    </g>
    <g id="ytick_35">
     <g id="line2d_61">
      <path d="M 47.575493 342.525049 
L 183.61195 342.525049 
" clip-path="url(#pf2395a4ff1)" style="fill: none; stroke: #ffffff; stroke-linecap: round"/>
     </g>
     <g id="text_41">
      <!-- 20 -->
      <g style="fill: #262626" transform="translate(28.288243 345.674487) scale(0.088 -0.088)">
       <use xlink:href="#ArialMT-32"/>
       <use xlink:href="#ArialMT-30" x="55.615234"/>
      </g>
     </g>
    </g>
    <g id="text_42">
     <!-- Expected malicious traffic (Gbps) -->
     <g style="fill: #262626" transform="translate(22.267743 459.29125) rotate(-90) scale(0.096 -0.096)">
      <use xlink:href="#ArialMT-45"/>
      <use xlink:href="#ArialMT-78" x="66.699219"/>
      <use xlink:href="#ArialMT-70" x="116.699219"/>
      <use xlink:href="#ArialMT-65" x="172.314453"/>
      <use xlink:href="#ArialMT-63" x="227.929688"/>
      <use xlink:href="#ArialMT-74" x="277.929688"/>
      <use xlink:href="#ArialMT-65" x="305.712891"/>
      <use xlink:href="#ArialMT-64" x="361.328125"/>
      <use xlink:href="#ArialMT-20" x="416.943359"/>
      <use xlink:href="#ArialMT-6d" x="444.726562"/>
      <use xlink:href="#ArialMT-61" x="528.027344"/>
      <use xlink:href="#ArialMT-6c" x="583.642578"/>
      <use xlink:href="#ArialMT-69" x="605.859375"/>
      <use xlink:href="#ArialMT-63" x="628.076172"/>
      <use xlink:href="#ArialMT-69" x="678.076172"/>
      <use xlink:href="#ArialMT-6f" x="700.292969"/>
      <use xlink:href="#ArialMT-75" x="755.908203"/>
      <use xlink:href="#ArialMT-73" x="811.523438"/>
      <use xlink:href="#ArialMT-20" x="861.523438"/>
      <use xlink:href="#ArialMT-74" x="889.306641"/>
      <use xlink:href="#ArialMT-72" x="917.089844"/>
      <use xlink:href="#ArialMT-61" x="950.390625"/>
      <use xlink:href="#ArialMT-66" x="1006.005859"/>
      <use xlink:href="#ArialMT-66" x="1032.039062"/>
      <use xlink:href="#ArialMT-69" x="1059.822266"/>
      <use xlink:href="#ArialMT-63" x="1082.039062"/>
      <use xlink:href="#ArialMT-20" x="1132.039062"/>
      <use xlink:href="#ArialMT-28" x="1159.822266"/>
      <use xlink:href="#ArialMT-47" x="1193.123047"/>
      <use xlink:href="#ArialMT-62" x="1270.90625"/>
      <use xlink:href="#ArialMT-70" x="1326.521484"/>
      <use xlink:href="#ArialMT-73" x="1382.136719"/>
      <use xlink:href="#ArialMT-29" x="1432.136719"/>
     </g>
    </g>
   </g>
   <g id="patch_47">
    <path d="M 50.296222 430.767683 
L 72.062056 430.767683 
L 72.062056 359.467635 
L 50.296222 359.467635 
z
" clip-path="url(#pf2395a4ff1)" style="fill: #224fdf; stroke: #ffffff; stroke-linejoin: miter"/>
   </g>
   <g id="patch_48">
    <path d="M 77.503514 430.767683 
L 99.269347 430.767683 
L 99.269347 357.349812 
L 77.503514 357.349812 
z
" clip-path="url(#pf2395a4ff1)" style="fill: #df7d20; stroke: #ffffff; stroke-linejoin: miter"/>
   </g>
   <g id="patch_49">
    <path d="M 104.710805 430.767683 
L 126.476638 430.767683 
L 126.476638 342.525049 
L 104.710805 342.525049 
z
" clip-path="url(#pf2395a4ff1)" style="fill: #30b346; stroke: #ffffff; stroke-linejoin: miter"/>
   </g>
   <g id="patch_50">
    <path d="M 131.918097 430.767683 
L 153.68393 430.767683 
L 153.68393 344.642873 
L 131.918097 344.642873 
z
" clip-path="url(#pf2395a4ff1)" style="fill: #cb1d25; stroke: #ffffff; stroke-linejoin: miter"/>
   </g>
   <g id="patch_51">
    <path d="M 159.125388 430.767683 
L 180.891221 430.767683 
L 180.891221 342.525049 
L 159.125388 342.525049 
z
" clip-path="url(#pf2395a4ff1)" style="fill: #8a42cb; stroke: #ffffff; stroke-linejoin: miter"/>
   </g>
   <g id="line2d_62">
    <path d="M 58.45841 380.848991 
L 63.899868 380.848991 
M 61.179139 380.848991 
L 61.179139 338.086278 
M 58.45841 338.086278 
L 63.899868 338.086278 
" clip-path="url(#pf2395a4ff1)" style="fill: none; stroke: #424242; stroke-width: 2.25; stroke-linecap: round"/>
   </g>
   <g id="line2d_63">
    <path d="M 85.665701 374.209957 
L 91.10716 374.209957 
M 88.38643 374.209957 
L 88.38643 340.489666 
M 85.665701 340.489666 
L 91.10716 340.489666 
" clip-path="url(#pf2395a4ff1)" style="fill: none; stroke: #424242; stroke-width: 2.25; stroke-linecap: round"/>
   </g>
   <g id="line2d_64">
    <path d="M 112.872993 342.525049 
L 118.314451 342.525049 
M 115.593722 342.525049 
L 115.593722 342.525049 
M 112.872993 342.525049 
L 118.314451 342.525049 
" clip-path="url(#pf2395a4ff1)" style="fill: none; stroke: #424242; stroke-width: 2.25; stroke-linecap: round"/>
   </g>
   <g id="line2d_65">
    <path d="M 140.080284 350.436191 
L 145.521742 350.436191 
M 142.801013 350.436191 
L 142.801013 338.849554 
M 140.080284 338.849554 
L 145.521742 338.849554 
" clip-path="url(#pf2395a4ff1)" style="fill: none; stroke: #424242; stroke-width: 2.25; stroke-linecap: round"/>
   </g>
   <g id="line2d_66">
    <path d="M 167.287576 342.525049 
L 172.729034 342.525049 
M 170.008305 342.525049 
L 170.008305 342.525049 
M 167.287576 342.525049 
L 172.729034 342.525049 
" clip-path="url(#pf2395a4ff1)" style="fill: none; stroke: #424242; stroke-width: 2.25; stroke-linecap: round"/>
   </g>
   <g id="patch_52">
    <path d="M 47.575493 446.292 
L 47.575493 331.616 
" style="fill: none; stroke: #ffffff; stroke-width: 1.25; stroke-linejoin: miter; stroke-linecap: square"/>
   </g>
   <g id="patch_53">
    <path d="M 47.575493 446.292 
L 183.61195 446.292 
" style="fill: none; stroke: #ffffff; stroke-width: 1.25; stroke-linejoin: miter; stroke-linecap: square"/>
   </g>
   <g id="text_43">
    <!-- Attribute = IntraOrbital -->
    <g style="fill: #262626" transform="translate(68.507972 325.616) scale(0.096 -0.096)">
     <use xlink:href="#ArialMT-41"/>
     <use xlink:href="#ArialMT-74" x="66.699219"/>
     <use xlink:href="#ArialMT-74" x="94.482422"/>
     <use xlink:href="#ArialMT-72" x="122.265625"/>
     <use xlink:href="#ArialMT-69" x="155.566406"/>
     <use xlink:href="#ArialMT-62" x="177.783203"/>
     <use xlink:href="#ArialMT-75" x="233.398438"/>
     <use xlink:href="#ArialMT-74" x="289.013672"/>
     <use xlink:href="#ArialMT-65" x="316.796875"/>
     <use xlink:href="#ArialMT-20" x="372.412109"/>
     <use xlink:href="#ArialMT-3d" x="400.195312"/>
     <use xlink:href="#ArialMT-20" x="458.59375"/>
     <use xlink:href="#ArialMT-49" x="486.376953"/>
     <use xlink:href="#ArialMT-6e" x="514.160156"/>
     <use xlink:href="#ArialMT-74" x="569.775391"/>
     <use xlink:href="#ArialMT-72" x="597.558594"/>
     <use xlink:href="#ArialMT-61" x="630.859375"/>
     <use xlink:href="#ArialMT-4f" x="686.474609"/>
     <use xlink:href="#ArialMT-72" x="764.257812"/>
     <use xlink:href="#ArialMT-62" x="797.558594"/>
     <use xlink:href="#ArialMT-69" x="853.173828"/>
     <use xlink:href="#ArialMT-74" x="875.390625"/>
     <use xlink:href="#ArialMT-61" x="903.173828"/>
     <use xlink:href="#ArialMT-6c" x="958.789062"/>
    </g>
   </g>
  </g>
  <g id="legend_1">
   <g id="text_44">
    <!-- Direction -->
    <g style="fill: #262626" transform="translate(492.348063 214.3105) scale(0.096 -0.096)">
     <use xlink:href="#ArialMT-44"/>
     <use xlink:href="#ArialMT-69" x="72.216797"/>
     <use xlink:href="#ArialMT-72" x="94.433594"/>
     <use xlink:href="#ArialMT-65" x="127.734375"/>
     <use xlink:href="#ArialMT-63" x="183.349609"/>
     <use xlink:href="#ArialMT-74" x="233.349609"/>
     <use xlink:href="#ArialMT-69" x="261.132812"/>
     <use xlink:href="#ArialMT-6f" x="283.349609"/>
     <use xlink:href="#ArialMT-6e" x="338.964844"/>
    </g>
   </g>
   <g id="patch_54">
    <path d="M 485.274125 226.917375 
L 502.874125 226.917375 
L 502.874125 220.757375 
L 485.274125 220.757375 
z
" style="fill: #224fdf; stroke: #ffffff; stroke-linejoin: miter"/>
   </g>
   <g id="text_45">
    <!-- East -->
    <g style="fill: #262626" transform="translate(509.914125 226.917375) scale(0.088 -0.088)">
     <use xlink:href="#ArialMT-45"/>
     <use xlink:href="#ArialMT-61" x="66.699219"/>
     <use xlink:href="#ArialMT-73" x="122.314453"/>
     <use xlink:href="#ArialMT-74" x="172.314453"/>
    </g>
   </g>
   <g id="patch_55">
    <path d="M 485.274125 239.36525 
L 502.874125 239.36525 
L 502.874125 233.20525 
L 485.274125 233.20525 
z
" style="fill: #df7d20; stroke: #ffffff; stroke-linejoin: miter"/>
   </g>
   <g id="text_46">
    <!-- West -->
    <g style="fill: #262626" transform="translate(509.914125 239.36525) scale(0.088 -0.088)">
     <use xlink:href="#ArialMT-57"/>
     <use xlink:href="#ArialMT-65" x="92.634766"/>
     <use xlink:href="#ArialMT-73" x="148.25"/>
     <use xlink:href="#ArialMT-74" x="198.25"/>
    </g>
   </g>
   <g id="patch_56">
    <path d="M 485.274125 251.813125 
L 502.874125 251.813125 
L 502.874125 245.653125 
L 485.274125 245.653125 
z
" style="fill: #30b346; stroke: #ffffff; stroke-linejoin: miter"/>
   </g>
   <g id="text_47">
    <!-- North -->
    <g style="fill: #262626" transform="translate(509.914125 251.813125) scale(0.088 -0.088)">
     <use xlink:href="#ArialMT-4e"/>
     <use xlink:href="#ArialMT-6f" x="72.216797"/>
     <use xlink:href="#ArialMT-72" x="127.832031"/>
     <use xlink:href="#ArialMT-74" x="161.132812"/>
     <use xlink:href="#ArialMT-68" x="188.916016"/>
    </g>
   </g>
   <g id="patch_57">
    <path d="M 485.274125 264.261 
L 502.874125 264.261 
L 502.874125 258.101 
L 485.274125 258.101 
z
" style="fill: #cb1d25; stroke: #ffffff; stroke-linejoin: miter"/>
   </g>
   <g id="text_48">
    <!-- South -->
    <g style="fill: #262626" transform="translate(509.914125 264.261) scale(0.088 -0.088)">
     <use xlink:href="#ArialMT-53"/>
     <use xlink:href="#ArialMT-6f" x="66.699219"/>
     <use xlink:href="#ArialMT-75" x="122.314453"/>
     <use xlink:href="#ArialMT-74" x="177.929688"/>
     <use xlink:href="#ArialMT-68" x="205.712891"/>
    </g>
   </g>
   <g id="patch_58">
    <path d="M 485.274125 276.708875 
L 502.874125 276.708875 
L 502.874125 270.548875 
L 485.274125 270.548875 
z
" style="fill: #8a42cb; stroke: #ffffff; stroke-linejoin: miter"/>
   </g>
   <g id="text_49">
    <!-- Theory -->
    <g style="fill: #262626" transform="translate(509.914125 276.708875) scale(0.088 -0.088)">
     <use xlink:href="#ArialMT-54"/>
     <use xlink:href="#ArialMT-68" x="61.083984"/>
     <use xlink:href="#ArialMT-65" x="116.699219"/>
     <use xlink:href="#ArialMT-6f" x="172.314453"/>
     <use xlink:href="#ArialMT-72" x="227.929688"/>
     <use xlink:href="#ArialMT-79" x="261.230469"/>
    </g>
   </g>
  </g>
 </g>
 <defs>
  <clipPath id="pfa67bff96f">
   <rect x="47.575493" y="22.848" width="136.036457" height="114.676"/>
  </clipPath>
  <clipPath id="p2bb27449d7">
   <rect x="196.043418" y="22.848" width="136.036457" height="114.676"/>
  </clipPath>
  <clipPath id="p0532106949">
   <rect x="344.511343" y="22.848" width="136.036457" height="114.676"/>
  </clipPath>
  <clipPath id="p0724f0932d">
   <rect x="47.575493" y="177.232" width="136.036457" height="114.676"/>
  </clipPath>
  <clipPath id="p8a426350cd">
   <rect x="196.043418" y="177.232" width="136.036457" height="114.676"/>
  </clipPath>
  <clipPath id="p3db89d3edf">
   <rect x="344.511343" y="177.232" width="136.036457" height="114.676"/>
  </clipPath>
  <clipPath id="pf2395a4ff1">
   <rect x="47.575493" y="331.616" width="136.036457" height="114.676"/>
  </clipPath>
 </defs>
</svg>
