<?xml version="1.0" encoding="utf-8" standalone="no"?>
<!DOCTYPE svg PUBLIC "-//W3C//DTD SVG 1.1//EN"
  "http://www.w3.org/Graphics/SVG/1.1/DTD/svg11.dtd">
<svg xmlns:xlink="http://www.w3.org/1999/xlink" width="540.72pt" height="162pt" viewBox="0 0 540.72 162" xmlns="http://www.w3.org/2000/svg" version="1.1">
 <metadata>
  <rdf:RDF xmlns:dc="http://purl.org/dc/elements/1.1/" xmlns:cc="http://creativecommons.org/ns#" xmlns:rdf="http://www.w3.org/1999/02/22-rdf-syntax-ns#">
   <cc:Work>
    <dc:type rdf:resource="http://purl.org/dc/dcmitype/StillImage"/>
    <dc:date>2024-08-22T16:16:59.356851</dc:date>
    <dc:format>image/svg+xml</dc:format>
    <dc:creator>
     <cc:Agent>
      <dc:title>Matplotlib v3.9.0, https://matplotlib.org/</dc:title>
     </cc:Agent>
    </dc:creator>
   </cc:Work>
  </rdf:RDF>
 </metadata>
 <defs>
  <style type="text/css">*{stroke-linejoin: round; stroke-linecap: butt}</style>
 </defs>
 <g id="figure_1">
  <g id="patch_1">
   <path d="M 0 162 
L 540.72 162 
L 540.72 0 
L 0 0 
z
" style="fill: #ffffff"/>
  </g>
  <g id="axes_1">
   <g id="patch_2">
    <path d="M 52.69016 122.292 
L 183.27297 122.292 
L 183.27297 22.848 
L 52.69016 22.848 
z
" style="fill: #eaeaf2"/>
   </g>
   <g id="matplotlib.axis_1">
    <g id="xtick_1">
     <g id="line2d_1">
      <path d="M 56.203056 122.292 
L 56.203056 22.848 
" clip-path="url(#p3395895ab6)" style="fill: none; stroke: #ffffff; stroke-linecap: round"/>
     </g>
     <g id="text_1">
      <!-- 0 -->
      <g style="fill: #262626" transform="translate(53.756243 138.090875) scale(0.088 -0.088)">
       <defs>
        <path id="ArialMT-30" d="M 266 2259 
Q 266 3072 433 3567 
Q 600 4063 929 4331 
Q 1259 4600 1759 4600 
Q 2128 4600 2406 4451 
Q 2684 4303 2865 4023 
Q 3047 3744 3150 3342 
Q 3253 2941 3253 2259 
Q 3253 1453 3087 958 
Q 2922 463 2592 192 
Q 2263 -78 1759 -78 
Q 1097 -78 719 397 
Q 266 969 266 2259 
z
M 844 2259 
Q 844 1131 1108 757 
Q 1372 384 1759 384 
Q 2147 384 2411 759 
Q 2675 1134 2675 2259 
Q 2675 3391 2411 3762 
Q 2147 4134 1753 4134 
Q 1366 4134 1134 3806 
Q 844 3388 844 2259 
z
" transform="scale(0.015625)"/>
       </defs>
       <use xlink:href="#ArialMT-30"/>
      </g>
     </g>
    </g>
    <g id="xtick_2">
     <g id="line2d_2">
      <path d="M 104.656789 122.292 
L 104.656789 22.848 
" clip-path="url(#p3395895ab6)" style="fill: none; stroke: #ffffff; stroke-linecap: round"/>
     </g>
     <g id="text_2">
      <!-- 20 -->
      <g style="fill: #262626" transform="translate(99.763164 138.090875) scale(0.088 -0.088)">
       <defs>
        <path id="ArialMT-32" d="M 3222 541 
L 3222 0 
L 194 0 
Q 188 203 259 391 
Q 375 700 629 1000 
Q 884 1300 1366 1694 
Q 2113 2306 2375 2664 
Q 2638 3022 2638 3341 
Q 2638 3675 2398 3904 
Q 2159 4134 1775 4134 
Q 1369 4134 1125 3890 
Q 881 3647 878 3216 
L 300 3275 
Q 359 3922 746 4261 
Q 1134 4600 1788 4600 
Q 2447 4600 2831 4234 
Q 3216 3869 3216 3328 
Q 3216 3053 3103 2787 
Q 2991 2522 2730 2228 
Q 2469 1934 1863 1422 
Q 1356 997 1212 845 
Q 1069 694 975 541 
L 3222 541 
z
" transform="scale(0.015625)"/>
       </defs>
       <use xlink:href="#ArialMT-32"/>
       <use xlink:href="#ArialMT-30" x="55.615234"/>
      </g>
     </g>
    </g>
    <g id="xtick_3">
     <g id="line2d_3">
      <path d="M 153.110522 122.292 
L 153.110522 22.848 
" clip-path="url(#p3395895ab6)" style="fill: none; stroke: #ffffff; stroke-linecap: round"/>
     </g>
     <g id="text_3">
      <!-- 40 -->
      <g style="fill: #262626" transform="translate(148.216897 138.090875) scale(0.088 -0.088)">
       <defs>
        <path id="ArialMT-34" d="M 2069 0 
L 2069 1097 
L 81 1097 
L 81 1613 
L 2172 4581 
L 2631 4581 
L 2631 1613 
L 3250 1613 
L 3250 1097 
L 2631 1097 
L 2631 0 
L 2069 0 
z
M 2069 1613 
L 2069 3678 
L 634 1613 
L 2069 1613 
z
" transform="scale(0.015625)"/>
       </defs>
       <use xlink:href="#ArialMT-34"/>
       <use xlink:href="#ArialMT-30" x="55.615234"/>
      </g>
     </g>
    </g>
    <g id="text_4">
     <!-- Frame -->
     <g style="fill: #262626" transform="translate(104.114815 150.711375) scale(0.096 -0.096)">
      <defs>
       <path id="ArialMT-46" d="M 525 0 
L 525 4581 
L 3616 4581 
L 3616 4041 
L 1131 4041 
L 1131 2622 
L 3281 2622 
L 3281 2081 
L 1131 2081 
L 1131 0 
L 525 0 
z
" transform="scale(0.015625)"/>
       <path id="ArialMT-72" d="M 416 0 
L 416 3319 
L 922 3319 
L 922 2816 
Q 1116 3169 1280 3281 
Q 1444 3394 1641 3394 
Q 1925 3394 2219 3213 
L 2025 2691 
Q 1819 2813 1613 2813 
Q 1428 2813 1281 2702 
Q 1134 2591 1072 2394 
Q 978 2094 978 1738 
L 978 0 
L 416 0 
z
" transform="scale(0.015625)"/>
       <path id="ArialMT-61" d="M 2588 409 
Q 2275 144 1986 34 
Q 1697 -75 1366 -75 
Q 819 -75 525 192 
Q 231 459 231 875 
Q 231 1119 342 1320 
Q 453 1522 633 1644 
Q 813 1766 1038 1828 
Q 1203 1872 1538 1913 
Q 2219 1994 2541 2106 
Q 2544 2222 2544 2253 
Q 2544 2597 2384 2738 
Q 2169 2928 1744 2928 
Q 1347 2928 1158 2789 
Q 969 2650 878 2297 
L 328 2372 
Q 403 2725 575 2942 
Q 747 3159 1072 3276 
Q 1397 3394 1825 3394 
Q 2250 3394 2515 3294 
Q 2781 3194 2906 3042 
Q 3031 2891 3081 2659 
Q 3109 2516 3109 2141 
L 3109 1391 
Q 3109 606 3145 398 
Q 3181 191 3288 0 
L 2700 0 
Q 2613 175 2588 409 
z
M 2541 1666 
Q 2234 1541 1622 1453 
Q 1275 1403 1131 1340 
Q 988 1278 909 1158 
Q 831 1038 831 891 
Q 831 666 1001 516 
Q 1172 366 1500 366 
Q 1825 366 2078 508 
Q 2331 650 2450 897 
Q 2541 1088 2541 1459 
L 2541 1666 
z
" transform="scale(0.015625)"/>
       <path id="ArialMT-6d" d="M 422 0 
L 422 3319 
L 925 3319 
L 925 2853 
Q 1081 3097 1340 3245 
Q 1600 3394 1931 3394 
Q 2300 3394 2536 3241 
Q 2772 3088 2869 2813 
Q 3263 3394 3894 3394 
Q 4388 3394 4653 3120 
Q 4919 2847 4919 2278 
L 4919 0 
L 4359 0 
L 4359 2091 
Q 4359 2428 4304 2576 
Q 4250 2725 4106 2815 
Q 3963 2906 3769 2906 
Q 3419 2906 3187 2673 
Q 2956 2441 2956 1928 
L 2956 0 
L 2394 0 
L 2394 2156 
Q 2394 2531 2256 2718 
Q 2119 2906 1806 2906 
Q 1569 2906 1367 2781 
Q 1166 2656 1075 2415 
Q 984 2175 984 1722 
L 984 0 
L 422 0 
z
" transform="scale(0.015625)"/>
       <path id="ArialMT-65" d="M 2694 1069 
L 3275 997 
Q 3138 488 2766 206 
Q 2394 -75 1816 -75 
Q 1088 -75 661 373 
Q 234 822 234 1631 
Q 234 2469 665 2931 
Q 1097 3394 1784 3394 
Q 2450 3394 2872 2941 
Q 3294 2488 3294 1666 
Q 3294 1616 3291 1516 
L 816 1516 
Q 847 969 1125 678 
Q 1403 388 1819 388 
Q 2128 388 2347 550 
Q 2566 713 2694 1069 
z
M 847 1978 
L 2700 1978 
Q 2663 2397 2488 2606 
Q 2219 2931 1791 2931 
Q 1403 2931 1139 2672 
Q 875 2413 847 1978 
z
" transform="scale(0.015625)"/>
      </defs>
      <use xlink:href="#ArialMT-46"/>
      <use xlink:href="#ArialMT-72" x="61.083984"/>
      <use xlink:href="#ArialMT-61" x="94.384766"/>
      <use xlink:href="#ArialMT-6d" x="150"/>
      <use xlink:href="#ArialMT-65" x="233.300781"/>
     </g>
    </g>
   </g>
   <g id="matplotlib.axis_2">
    <g id="ytick_1">
     <g id="line2d_4">
      <path d="M 52.69016 111.854412 
L 183.27297 111.854412 
" clip-path="url(#p3395895ab6)" style="fill: none; stroke: #ffffff; stroke-linecap: round"/>
     </g>
     <g id="text_5">
      <!-- 25 -->
      <g style="fill: #262626" transform="translate(33.40291 115.003849) scale(0.088 -0.088)">
       <defs>
        <path id="ArialMT-35" d="M 266 1200 
L 856 1250 
Q 922 819 1161 601 
Q 1400 384 1738 384 
Q 2144 384 2425 690 
Q 2706 997 2706 1503 
Q 2706 1984 2436 2262 
Q 2166 2541 1728 2541 
Q 1456 2541 1237 2417 
Q 1019 2294 894 2097 
L 366 2166 
L 809 4519 
L 3088 4519 
L 3088 3981 
L 1259 3981 
L 1013 2750 
Q 1425 3038 1878 3038 
Q 2478 3038 2890 2622 
Q 3303 2206 3303 1553 
Q 3303 931 2941 478 
Q 2500 -78 1738 -78 
Q 1113 -78 717 272 
Q 322 622 266 1200 
z
" transform="scale(0.015625)"/>
       </defs>
       <use xlink:href="#ArialMT-32"/>
       <use xlink:href="#ArialMT-35" x="55.615234"/>
      </g>
     </g>
    </g>
    <g id="ytick_2">
     <g id="line2d_5">
      <path d="M 52.69016 87.803681 
L 183.27297 87.803681 
" clip-path="url(#p3395895ab6)" style="fill: none; stroke: #ffffff; stroke-linecap: round"/>
     </g>
     <g id="text_6">
      <!-- 50 -->
      <g style="fill: #262626" transform="translate(33.40291 90.953118) scale(0.088 -0.088)">
       <use xlink:href="#ArialMT-35"/>
       <use xlink:href="#ArialMT-30" x="55.615234"/>
      </g>
     </g>
    </g>
    <g id="ytick_3">
     <g id="line2d_6">
      <path d="M 52.69016 63.75295 
L 183.27297 63.75295 
" clip-path="url(#p3395895ab6)" style="fill: none; stroke: #ffffff; stroke-linecap: round"/>
     </g>
     <g id="text_7">
      <!-- 75 -->
      <g style="fill: #262626" transform="translate(33.40291 66.902387) scale(0.088 -0.088)">
       <defs>
        <path id="ArialMT-37" d="M 303 3981 
L 303 4522 
L 3269 4522 
L 3269 4084 
Q 2831 3619 2401 2847 
Q 1972 2075 1738 1259 
Q 1569 684 1522 0 
L 944 0 
Q 953 541 1156 1306 
Q 1359 2072 1739 2783 
Q 2119 3494 2547 3981 
L 303 3981 
z
" transform="scale(0.015625)"/>
       </defs>
       <use xlink:href="#ArialMT-37"/>
       <use xlink:href="#ArialMT-35" x="55.615234"/>
      </g>
     </g>
    </g>
    <g id="ytick_4">
     <g id="line2d_7">
      <path d="M 52.69016 39.702218 
L 183.27297 39.702218 
" clip-path="url(#p3395895ab6)" style="fill: none; stroke: #ffffff; stroke-linecap: round"/>
     </g>
     <g id="text_8">
      <!-- 100 -->
      <g style="fill: #262626" transform="translate(28.509285 42.851656) scale(0.088 -0.088)">
       <defs>
        <path id="ArialMT-31" d="M 2384 0 
L 1822 0 
L 1822 3584 
Q 1619 3391 1289 3197 
Q 959 3003 697 2906 
L 697 3450 
Q 1169 3672 1522 3987 
Q 1875 4303 2022 4600 
L 2384 4600 
L 2384 0 
z
" transform="scale(0.015625)"/>
       </defs>
       <use xlink:href="#ArialMT-31"/>
       <use xlink:href="#ArialMT-30" x="55.615234"/>
       <use xlink:href="#ArialMT-30" x="111.230469"/>
      </g>
     </g>
    </g>
    <g id="text_9">
     <!-- RTT (ms) -->
     <g style="fill: #262626" transform="translate(22.488785 92.66025) rotate(-90) scale(0.096 -0.096)">
      <defs>
       <path id="ArialMT-52" d="M 503 0 
L 503 4581 
L 2534 4581 
Q 3147 4581 3465 4457 
Q 3784 4334 3975 4021 
Q 4166 3709 4166 3331 
Q 4166 2844 3850 2509 
Q 3534 2175 2875 2084 
Q 3116 1969 3241 1856 
Q 3506 1613 3744 1247 
L 4541 0 
L 3778 0 
L 3172 953 
Q 2906 1366 2734 1584 
Q 2563 1803 2427 1890 
Q 2291 1978 2150 2013 
Q 2047 2034 1813 2034 
L 1109 2034 
L 1109 0 
L 503 0 
z
M 1109 2559 
L 2413 2559 
Q 2828 2559 3062 2645 
Q 3297 2731 3419 2920 
Q 3541 3109 3541 3331 
Q 3541 3656 3305 3865 
Q 3069 4075 2559 4075 
L 1109 4075 
L 1109 2559 
z
" transform="scale(0.015625)"/>
       <path id="ArialMT-54" d="M 1659 0 
L 1659 4041 
L 150 4041 
L 150 4581 
L 3781 4581 
L 3781 4041 
L 2266 4041 
L 2266 0 
L 1659 0 
z
" transform="scale(0.015625)"/>
       <path id="ArialMT-20" transform="scale(0.015625)"/>
       <path id="ArialMT-28" d="M 1497 -1347 
Q 1031 -759 709 28 
Q 388 816 388 1659 
Q 388 2403 628 3084 
Q 909 3875 1497 4659 
L 1900 4659 
Q 1522 4009 1400 3731 
Q 1209 3300 1100 2831 
Q 966 2247 966 1656 
Q 966 153 1900 -1347 
L 1497 -1347 
z
" transform="scale(0.015625)"/>
       <path id="ArialMT-73" d="M 197 991 
L 753 1078 
Q 800 744 1014 566 
Q 1228 388 1613 388 
Q 2000 388 2187 545 
Q 2375 703 2375 916 
Q 2375 1106 2209 1216 
Q 2094 1291 1634 1406 
Q 1016 1563 777 1677 
Q 538 1791 414 1992 
Q 291 2194 291 2438 
Q 291 2659 392 2848 
Q 494 3038 669 3163 
Q 800 3259 1026 3326 
Q 1253 3394 1513 3394 
Q 1903 3394 2198 3281 
Q 2494 3169 2634 2976 
Q 2775 2784 2828 2463 
L 2278 2388 
Q 2241 2644 2061 2787 
Q 1881 2931 1553 2931 
Q 1166 2931 1000 2803 
Q 834 2675 834 2503 
Q 834 2394 903 2306 
Q 972 2216 1119 2156 
Q 1203 2125 1616 2013 
Q 2213 1853 2448 1751 
Q 2684 1650 2818 1456 
Q 2953 1263 2953 975 
Q 2953 694 2789 445 
Q 2625 197 2315 61 
Q 2006 -75 1616 -75 
Q 969 -75 630 194 
Q 291 463 197 991 
z
" transform="scale(0.015625)"/>
       <path id="ArialMT-29" d="M 791 -1347 
L 388 -1347 
Q 1322 153 1322 1656 
Q 1322 2244 1188 2822 
Q 1081 3291 891 3722 
Q 769 4003 388 4659 
L 791 4659 
Q 1378 3875 1659 3084 
Q 1900 2403 1900 1659 
Q 1900 816 1576 28 
Q 1253 -759 791 -1347 
z
" transform="scale(0.015625)"/>
      </defs>
      <use xlink:href="#ArialMT-52"/>
      <use xlink:href="#ArialMT-54" x="70.466797"/>
      <use xlink:href="#ArialMT-54" x="131.550781"/>
      <use xlink:href="#ArialMT-20" x="190.884766"/>
      <use xlink:href="#ArialMT-28" x="218.667969"/>
      <use xlink:href="#ArialMT-6d" x="251.96875"/>
      <use xlink:href="#ArialMT-73" x="335.269531"/>
      <use xlink:href="#ArialMT-29" x="385.269531"/>
     </g>
    </g>
   </g>
   <g id="PolyCollection_1">
    <defs>
     <path id="m64f77911ae" d="M 58.625742 -52.117643 
L 58.625742 -50.365204 
L 61.048429 -51.505191 
L 63.471116 -51.593013 
L 65.893802 -51.890081 
L 68.316489 -52.14485 
L 70.739176 -49.292968 
L 73.161862 -49.162481 
L 75.584549 -49.119036 
L 78.007235 -48.362943 
L 80.429922 -48.339783 
L 82.852609 -48.308483 
L 85.275295 -44.674271 
L 87.697982 -45.487187 
L 90.120669 -45.512526 
L 92.543355 -45.530593 
L 94.966042 -45.551385 
L 97.388729 -45.583444 
L 99.811415 -44.579291 
L 102.234102 -44.927314 
L 104.656789 -44.234827 
L 107.079475 -44.282151 
L 109.502162 -44.239298 
L 111.924849 -44.28613 
L 114.347535 -44.501879 
L 116.770222 -45.647965 
L 119.192909 -48.124155 
L 121.615595 -48.3077 
L 124.038282 -50.337615 
L 126.460968 -51.506003 
L 128.883655 -51.581901 
L 131.306342 -52.140372 
L 133.729028 -49.263695 
L 136.151715 -49.260711 
L 138.574402 -49.133988 
L 140.997088 -48.891724 
L 143.419775 -48.341962 
L 145.842462 -48.245423 
L 148.265148 -44.711257 
L 150.687835 -45.485241 
L 153.110522 -45.378593 
L 155.533208 -45.527506 
L 157.955895 -45.552175 
L 160.378582 -45.579915 
L 162.801268 -44.57462 
L 165.223955 -44.923961 
L 167.646642 -44.228182 
L 170.069328 -44.273186 
L 172.492015 -44.283309 
L 174.914702 -44.321787 
L 177.337388 -44.377399 
L 177.337388 -45.617821 
L 177.337388 -45.617821 
L 174.914702 -45.586466 
L 172.492015 -45.546494 
L 170.069328 -45.524635 
L 167.646642 -45.506928 
L 165.223955 -46.279464 
L 162.801268 -45.998729 
L 160.378582 -45.646717 
L 157.955895 -45.620275 
L 155.533208 -45.599312 
L 153.110522 -45.617571 
L 150.687835 -46.339632 
L 148.265148 -45.96127 
L 145.842462 -49.759276 
L 143.419775 -49.836623 
L 140.997088 -50.629115 
L 138.574402 -50.497766 
L 136.151715 -50.599878 
L 133.729028 -50.650346 
L 131.306342 -53.468591 
L 128.883655 -52.81893 
L 126.460968 -52.75984 
L 124.038282 -52.11144 
L 121.615595 -50.533782 
L 119.192909 -50.414816 
L 116.770222 -46.743345 
L 114.347535 -45.771237 
L 111.924849 -45.564346 
L 109.502162 -45.463558 
L 107.079475 -45.516647 
L 104.656789 -45.50638 
L 102.234102 -46.257324 
L 99.811415 -46.029324 
L 97.388729 -45.648303 
L 94.966042 -45.621198 
L 92.543355 -45.600447 
L 90.120669 -45.585722 
L 87.697982 -46.361507 
L 85.275295 -45.998621 
L 82.852609 -49.776922 
L 80.429922 -49.741968 
L 78.007235 -49.861501 
L 75.584549 -50.483959 
L 73.161862 -50.40793 
L 70.739176 -50.561381 
L 68.316489 -53.463524 
L 65.893802 -53.14238 
L 63.471116 -52.808088 
L 61.048429 -52.772259 
L 58.625742 -52.117643 
z
" style="stroke: #023eff; stroke-opacity: 0.2"/>
    </defs>
    <g clip-path="url(#p3395895ab6)">
     <use xlink:href="#m64f77911ae" x="0" y="162" style="fill: #023eff; fill-opacity: 0.2; stroke: #023eff; stroke-opacity: 0.2"/>
    </g>
   </g>
   <g id="PolyCollection_2">
    <defs>
     <path id="m8cc6af6ee6" d="M 58.625742 -51.391253 
L 58.625742 -49.737507 
L 61.048429 -51.814783 
L 63.471116 -51.862941 
L 65.893802 -51.890211 
L 68.316489 -52.458637 
L 70.739176 -52.421154 
L 73.161862 -47.549365 
L 75.584549 -47.558116 
L 78.007235 -46.118856 
L 80.429922 -46.127007 
L 82.852609 -46.123685 
L 85.275295 -49.792673 
L 87.697982 -51.542046 
L 90.120669 -51.440017 
L 92.543355 -51.360173 
L 94.966042 -51.33218 
L 97.388729 -51.339414 
L 99.811415 -48.769268 
L 102.234102 -48.723628 
L 104.656789 -47.881343 
L 107.079475 -47.788173 
L 109.502162 -47.793301 
L 111.924849 -49.048916 
L 114.347535 -49.131299 
L 116.770222 -49.086993 
L 119.192909 -48.395528 
L 121.615595 -48.337086 
L 124.038282 -49.82676 
L 126.460968 -51.847035 
L 128.883655 -51.899594 
L 131.306342 -52.398944 
L 133.729028 -52.424554 
L 136.151715 -47.4171 
L 138.574402 -47.439381 
L 140.997088 -46.056797 
L 143.419775 -46.108049 
L 145.842462 -46.121716 
L 148.265148 -49.76237 
L 150.687835 -51.460684 
L 153.110522 -51.431843 
L 155.533208 -51.431077 
L 157.955895 -51.322813 
L 160.378582 -51.390173 
L 162.801268 -48.804151 
L 165.223955 -48.672324 
L 167.646642 -47.844489 
L 170.069328 -47.620709 
L 172.492015 -47.72998 
L 174.914702 -49.049417 
L 177.337388 -49.100656 
L 177.337388 -51.413639 
L 177.337388 -51.413639 
L 174.914702 -51.225995 
L 172.492015 -49.751864 
L 170.069328 -49.755505 
L 167.646642 -49.884028 
L 165.223955 -50.444547 
L 162.801268 -50.58648 
L 160.378582 -53.122423 
L 157.955895 -53.209303 
L 155.533208 -53.240512 
L 153.110522 -53.267308 
L 150.687835 -53.293088 
L 148.265148 -51.198003 
L 145.842462 -47.525643 
L 143.419775 -47.474987 
L 140.997088 -47.473499 
L 138.574402 -49.357371 
L 136.151715 -49.369458 
L 133.729028 -53.946507 
L 131.306342 -53.91449 
L 128.883655 -52.622816 
L 126.460968 -52.60862 
L 124.038282 -51.467761 
L 121.615595 -50.755822 
L 119.192909 -50.632329 
L 116.770222 -51.315429 
L 114.347535 -51.565 
L 111.924849 -51.290568 
L 109.502162 -49.792547 
L 107.079475 -49.698191 
L 104.656789 -49.814114 
L 102.234102 -50.420062 
L 99.811415 -50.62354 
L 97.388729 -53.212371 
L 94.966042 -53.18804 
L 92.543355 -53.193158 
L 90.120669 -53.310708 
L 87.697982 -53.314202 
L 85.275295 -51.164854 
L 82.852609 -47.494726 
L 80.429922 -47.446339 
L 78.007235 -47.473832 
L 75.584549 -49.442665 
L 73.161862 -49.414436 
L 70.739176 -53.946933 
L 68.316489 -53.915747 
L 65.893802 -52.618206 
L 63.471116 -52.558141 
L 61.048429 -52.598289 
L 58.625742 -51.391253 
z
" style="stroke: #ff7c00; stroke-opacity: 0.2"/>
    </defs>
    <g clip-path="url(#p3395895ab6)">
     <use xlink:href="#m8cc6af6ee6" x="0" y="162" style="fill: #ff7c00; fill-opacity: 0.2; stroke: #ff7c00; stroke-opacity: 0.2"/>
    </g>
   </g>
   <g id="PolyCollection_3">
    <defs>
     <path id="m7a1edf6633" d="M 58.625742 -68.301046 
L 58.625742 -64.079117 
L 61.048429 -64.026111 
L 63.471116 -64.187138 
L 65.893802 -64.161843 
L 68.316489 -64.209035 
L 70.739176 -64.277025 
L 73.161862 -64.275098 
L 75.584549 -64.384641 
L 78.007235 -64.497504 
L 80.429922 -64.215182 
L 82.852609 -65.19467 
L 85.275295 -63.600338 
L 87.697982 -63.528007 
L 90.120669 -63.448803 
L 92.543355 -63.613172 
L 94.966042 -63.657355 
L 97.388729 -63.720488 
L 99.811415 -63.661568 
L 102.234102 -67.969194 
L 104.656789 -68.12935 
L 107.079475 -68.144627 
L 109.502162 -67.584646 
L 111.924849 -67.062475 
L 114.347535 -67.214039 
L 116.770222 -67.996015 
L 119.192909 -66.363717 
L 121.615595 -66.422275 
L 124.038282 -64.124671 
L 126.460968 -64.03637 
L 128.883655 -64.145586 
L 131.306342 -64.292148 
L 133.729028 -64.156357 
L 136.151715 -64.26258 
L 138.574402 -64.109833 
L 140.997088 -64.483068 
L 143.419775 -64.301755 
L 145.842462 -65.105742 
L 148.265148 -63.845741 
L 150.687835 -63.599576 
L 153.110522 -63.603006 
L 155.533208 -63.622226 
L 157.955895 -63.673617 
L 160.378582 -63.535771 
L 162.801268 -63.753106 
L 165.223955 -67.971546 
L 167.646642 -68.04027 
L 170.069328 -68.154593 
L 172.492015 -67.528591 
L 174.914702 -67.100762 
L 177.337388 -67.244949 
L 177.337388 -70.197454 
L 177.337388 -70.197454 
L 174.914702 -70.019957 
L 172.492015 -70.340546 
L 170.069328 -70.808918 
L 167.646642 -70.712765 
L 165.223955 -70.622604 
L 162.801268 -67.851206 
L 160.378582 -67.638108 
L 157.955895 -67.536547 
L 155.533208 -67.473118 
L 153.110522 -67.577199 
L 150.687835 -67.568078 
L 148.265148 -67.913359 
L 145.842462 -69.38152 
L 143.419775 -68.206092 
L 140.997088 -68.630007 
L 138.574402 -68.032453 
L 136.151715 -68.239578 
L 133.729028 -68.45755 
L 131.306342 -68.353658 
L 128.883655 -68.166372 
L 126.460968 -68.225727 
L 124.038282 -68.150563 
L 121.615595 -69.930479 
L 119.192909 -69.575259 
L 116.770222 -70.934405 
L 114.347535 -70.08355 
L 111.924849 -70.009883 
L 109.502162 -70.371555 
L 107.079475 -70.668492 
L 104.656789 -70.62549 
L 102.234102 -70.585455 
L 99.811415 -67.641647 
L 97.388729 -67.661078 
L 94.966042 -67.670667 
L 92.543355 -67.7494 
L 90.120669 -67.444235 
L 87.697982 -67.547984 
L 85.275295 -67.489328 
L 82.852609 -69.137441 
L 80.429922 -68.249891 
L 78.007235 -68.453637 
L 75.584549 -68.242782 
L 73.161862 -68.354424 
L 70.739176 -68.548382 
L 68.316489 -68.472944 
L 65.893802 -68.229736 
L 63.471116 -68.137944 
L 61.048429 -68.19326 
L 58.625742 -68.301046 
z
" style="stroke: #1ac938; stroke-opacity: 0.2"/>
    </defs>
    <g clip-path="url(#p3395895ab6)">
     <use xlink:href="#m7a1edf6633" x="0" y="162" style="fill: #1ac938; fill-opacity: 0.2; stroke: #1ac938; stroke-opacity: 0.2"/>
    </g>
   </g>
   <g id="PolyCollection_4">
    <defs>
     <path id="m34b33804af" d="M 58.625742 -63.073521 
L 58.625742 -61.175928 
L 61.048429 -61.005579 
L 63.471116 -61.080006 
L 65.893802 -61.08799 
L 68.316489 -61.797735 
L 70.739176 -61.796316 
L 73.161862 -61.690813 
L 75.584549 -61.69653 
L 78.007235 -61.704277 
L 80.429922 -61.675105 
L 82.852609 -61.662819 
L 85.275295 -61.722621 
L 87.697982 -61.776575 
L 90.120669 -61.744635 
L 92.543355 -61.716815 
L 94.966042 -62.032126 
L 97.388729 -62.15681 
L 99.811415 -62.153996 
L 102.234102 -65.48192 
L 104.656789 -65.494537 
L 107.079475 -65.48595 
L 109.502162 -65.56841 
L 111.924849 -64.247081 
L 114.347535 -64.313645 
L 116.770222 -64.626694 
L 119.192909 -63.426175 
L 121.615595 -63.422167 
L 124.038282 -61.094234 
L 126.460968 -61.151591 
L 128.883655 -61.136362 
L 131.306342 -61.87963 
L 133.729028 -61.833477 
L 136.151715 -61.765756 
L 138.574402 -61.711929 
L 140.997088 -61.686786 
L 143.419775 -61.67177 
L 145.842462 -61.795195 
L 148.265148 -61.76385 
L 150.687835 -61.76459 
L 153.110522 -61.792744 
L 155.533208 -61.775127 
L 157.955895 -61.936969 
L 160.378582 -62.248954 
L 162.801268 -62.181765 
L 165.223955 -65.439701 
L 167.646642 -65.499672 
L 170.069328 -65.564841 
L 172.492015 -65.545934 
L 174.914702 -64.264177 
L 177.337388 -64.312949 
L 177.337388 -65.649712 
L 177.337388 -65.649712 
L 174.914702 -65.593534 
L 172.492015 -66.698094 
L 170.069328 -66.64928 
L 167.646642 -66.670723 
L 165.223955 -66.605958 
L 162.801268 -64.484158 
L 160.378582 -64.364067 
L 157.955895 -64.151938 
L 155.533208 -64.025172 
L 153.110522 -63.89159 
L 150.687835 -63.856098 
L 148.265148 -63.951833 
L 145.842462 -63.864902 
L 143.419775 -63.847684 
L 140.997088 -63.852107 
L 138.574402 -63.885848 
L 136.151715 -63.839421 
L 133.729028 -64.034344 
L 131.306342 -63.946793 
L 128.883655 -63.112452 
L 126.460968 -63.123926 
L 124.038282 -63.111864 
L 121.615595 -64.826528 
L 119.192909 -64.797856 
L 116.770222 -65.906778 
L 114.347535 -65.660514 
L 111.924849 -65.627551 
L 109.502162 -66.729287 
L 107.079475 -66.701307 
L 104.656789 -66.620637 
L 102.234102 -66.620634 
L 99.811415 -64.349286 
L 97.388729 -64.352024 
L 94.966042 -64.225212 
L 92.543355 -63.92509 
L 90.120669 -63.934948 
L 87.697982 -63.923575 
L 85.275295 -63.89002 
L 82.852609 -63.901135 
L 80.429922 -63.874319 
L 78.007235 -63.844534 
L 75.584549 -63.822912 
L 73.161862 -63.770668 
L 70.739176 -64.026068 
L 68.316489 -63.943839 
L 65.893802 -63.164736 
L 63.471116 -63.13222 
L 61.048429 -63.076048 
L 58.625742 -63.073521 
z
" style="stroke: #e8000b; stroke-opacity: 0.2"/>
    </defs>
    <g clip-path="url(#p3395895ab6)">
     <use xlink:href="#m34b33804af" x="0" y="162" style="fill: #e8000b; fill-opacity: 0.2; stroke: #e8000b; stroke-opacity: 0.2"/>
    </g>
   </g>
   <g id="line2d_8">
    <path d="M 58.625742 110.783998 
L 61.048429 109.899786 
L 63.471116 109.809617 
L 65.893802 109.478478 
L 68.316489 109.19914 
L 70.739176 112.087127 
L 73.161862 112.189451 
L 75.584549 112.160426 
L 78.007235 112.905752 
L 80.429922 112.897582 
L 82.852609 112.935505 
L 85.275295 116.684517 
L 87.697982 116.124725 
L 90.120669 116.450876 
L 92.543355 116.434663 
L 94.966042 116.412285 
L 97.388729 116.383788 
L 99.811415 116.695937 
L 102.234102 116.396746 
L 104.656789 117.137248 
L 107.079475 117.098749 
L 109.502162 117.097374 
L 111.924849 117.057318 
L 114.347535 116.820115 
L 116.770222 115.780002 
L 119.192909 112.724119 
L 121.615595 112.577727 
L 124.038282 110.784602 
L 126.460968 109.898384 
L 128.883655 109.799097 
L 131.306342 109.198909 
L 133.729028 112.099119 
L 136.151715 112.026524 
L 138.574402 112.161231 
L 140.997088 112.263334 
L 143.419775 112.898342 
L 145.842462 112.936648 
L 148.265148 116.686665 
L 150.687835 116.125427 
L 153.110522 116.482595 
L 155.533208 116.436312 
L 157.955895 116.414454 
L 160.378582 116.386484 
L 162.801268 116.697272 
L 165.223955 116.398958 
L 167.646642 117.139251 
L 170.069328 117.10135 
L 172.492015 117.100526 
L 174.914702 117.061038 
L 177.337388 117.014841 
" clip-path="url(#p3395895ab6)" style="fill: none; stroke: #023eff; stroke-width: 1.5; stroke-linecap: round"/>
   </g>
   <g id="line2d_9">
    <path d="M 58.625742 111.459565 
L 61.048429 109.771342 
L 63.471116 109.769438 
L 65.893802 109.735717 
L 68.316489 108.841635 
L 70.739176 108.813037 
L 73.161862 113.540807 
L 75.584549 113.54219 
L 78.007235 115.197056 
L 80.429922 115.191615 
L 82.852609 115.182953 
L 85.275295 111.512792 
L 87.697982 109.57165 
L 90.120669 109.613499 
L 92.543355 109.650596 
L 94.966042 109.682958 
L 97.388729 109.710597 
L 99.811415 112.304753 
L 102.234102 112.471711 
L 104.656789 113.1924 
L 107.079475 113.287175 
L 109.502162 113.296908 
L 111.924849 111.869071 
L 114.347535 111.666753 
L 116.770222 111.846917 
L 119.192909 112.455068 
L 121.615595 112.441179 
L 124.038282 111.460633 
L 126.460968 109.772172 
L 128.883655 109.738795 
L 131.306342 108.843898 
L 133.729028 108.815709 
L 136.151715 113.540535 
L 138.574402 113.542203 
L 140.997088 115.197373 
L 143.419775 115.192213 
L 145.842462 115.183821 
L 148.265148 111.512145 
L 150.687835 109.567824 
L 153.110522 109.610065 
L 155.533208 109.647574 
L 157.955895 109.680337 
L 160.378582 109.708386 
L 162.801268 112.302147 
L 165.223955 112.469944 
L 167.646642 113.19065 
L 170.069328 113.286075 
L 172.492015 113.296284 
L 174.914702 111.86959 
L 177.337388 111.667301 
" clip-path="url(#p3395895ab6)" style="fill: none; stroke: #ff7c00; stroke-width: 1.5; stroke-linecap: round"/>
   </g>
   <g id="line2d_10">
    <path d="M 58.625742 95.915836 
L 61.048429 95.908511 
L 63.471116 95.907852 
L 65.893802 95.893772 
L 68.316489 95.700283 
L 70.739176 95.669654 
L 73.161862 95.699007 
L 75.584549 95.708391 
L 78.007235 95.528017 
L 80.429922 95.71135 
L 82.852609 94.738569 
L 85.275295 96.47147 
L 87.697982 96.45736 
L 90.120669 96.438525 
L 92.543355 96.414943 
L 94.966042 96.386652 
L 97.388729 96.353633 
L 99.811415 96.315907 
L 102.234102 92.722998 
L 104.656789 92.662337 
L 107.079475 92.5973 
L 109.502162 93.052058 
L 111.924849 93.457952 
L 114.347535 93.393083 
L 116.770222 92.643363 
L 119.192909 93.923635 
L 121.615595 93.89648 
L 124.038282 95.915942 
L 126.460968 95.908802 
L 128.883655 95.895274 
L 131.306342 95.702665 
L 133.729028 95.672583 
L 136.151715 95.69792 
L 138.574402 95.707781 
L 140.997088 95.528107 
L 143.419775 95.71169 
L 145.842462 94.740068 
L 148.265148 96.050968 
L 150.687835 96.458799 
L 153.110522 96.440357 
L 155.533208 96.417192 
L 157.955895 96.389283 
L 160.378582 96.356679 
L 162.801268 96.319359 
L 165.223955 92.728051 
L 167.646642 92.667761 
L 170.069328 92.603097 
L 172.492015 93.056794 
L 174.914702 93.463377 
L 177.337388 93.398835 
" clip-path="url(#p3395895ab6)" style="fill: none; stroke: #1ac938; stroke-width: 1.5; stroke-linecap: round"/>
   </g>
   <g id="line2d_11">
    <path d="M 58.625742 99.885247 
L 61.048429 99.876591 
L 63.471116 99.875925 
L 65.893802 99.862661 
L 68.316489 99.078684 
L 70.739176 99.064299 
L 73.161862 99.203155 
L 75.584549 99.2033 
L 78.007235 99.199353 
L 80.429922 99.191332 
L 82.852609 99.179277 
L 85.275295 99.16318 
L 87.697982 99.143077 
L 90.120669 99.118963 
L 92.543355 99.090789 
L 94.966042 98.90235 
L 97.388729 98.707036 
L 99.811415 98.685805 
L 102.234102 95.982338 
L 104.656789 95.948762 
L 107.079475 95.909916 
L 109.502162 95.865773 
L 111.924849 97.081454 
L 114.347535 97.028777 
L 116.770222 96.758405 
L 119.192909 97.885414 
L 121.615595 97.849914 
L 124.038282 99.885413 
L 126.460968 99.876885 
L 128.883655 99.863983 
L 131.306342 99.079701 
L 133.729028 99.065773 
L 136.151715 99.202957 
L 138.574402 99.203457 
L 140.997088 99.19985 
L 143.419775 99.192188 
L 145.842462 99.180479 
L 148.265148 99.164747 
L 150.687835 99.144998 
L 153.110522 99.121216 
L 155.533208 99.093403 
L 157.955895 98.904396 
L 160.378582 98.708606 
L 162.801268 98.68785 
L 165.223955 95.984991 
L 167.646642 95.95187 
L 170.069328 95.913468 
L 172.492015 95.869796 
L 174.914702 97.085757 
L 177.337388 97.033498 
" clip-path="url(#p3395895ab6)" style="fill: none; stroke: #e8000b; stroke-width: 1.5; stroke-linecap: round"/>
   </g>
   <g id="patch_3">
    <path d="M 52.69016 122.292 
L 52.69016 22.848 
" style="fill: none; stroke: #ffffff; stroke-width: 1.25; stroke-linejoin: miter; stroke-linecap: square"/>
   </g>
   <g id="patch_4">
    <path d="M 52.69016 122.292 
L 183.27297 122.292 
" style="fill: none; stroke: #ffffff; stroke-width: 1.25; stroke-linejoin: miter; stroke-linecap: square"/>
   </g>
   <g id="text_10">
    <!-- Attribute = Landlocked -->
    <g style="fill: #262626" transform="translate(70.085065 16.848) scale(0.096 -0.096)">
     <defs>
      <path id="ArialMT-41" d="M -9 0 
L 1750 4581 
L 2403 4581 
L 4278 0 
L 3588 0 
L 3053 1388 
L 1138 1388 
L 634 0 
L -9 0 
z
M 1313 1881 
L 2866 1881 
L 2388 3150 
Q 2169 3728 2063 4100 
Q 1975 3659 1816 3225 
L 1313 1881 
z
" transform="scale(0.015625)"/>
      <path id="ArialMT-74" d="M 1650 503 
L 1731 6 
Q 1494 -44 1306 -44 
Q 1000 -44 831 53 
Q 663 150 594 308 
Q 525 466 525 972 
L 525 2881 
L 113 2881 
L 113 3319 
L 525 3319 
L 525 4141 
L 1084 4478 
L 1084 3319 
L 1650 3319 
L 1650 2881 
L 1084 2881 
L 1084 941 
Q 1084 700 1114 631 
Q 1144 563 1211 522 
Q 1278 481 1403 481 
Q 1497 481 1650 503 
z
" transform="scale(0.015625)"/>
      <path id="ArialMT-69" d="M 425 3934 
L 425 4581 
L 988 4581 
L 988 3934 
L 425 3934 
z
M 425 0 
L 425 3319 
L 988 3319 
L 988 0 
L 425 0 
z
" transform="scale(0.015625)"/>
      <path id="ArialMT-62" d="M 941 0 
L 419 0 
L 419 4581 
L 981 4581 
L 981 2947 
Q 1338 3394 1891 3394 
Q 2197 3394 2470 3270 
Q 2744 3147 2920 2923 
Q 3097 2700 3197 2384 
Q 3297 2069 3297 1709 
Q 3297 856 2875 390 
Q 2453 -75 1863 -75 
Q 1275 -75 941 416 
L 941 0 
z
M 934 1684 
Q 934 1088 1097 822 
Q 1363 388 1816 388 
Q 2184 388 2453 708 
Q 2722 1028 2722 1663 
Q 2722 2313 2464 2622 
Q 2206 2931 1841 2931 
Q 1472 2931 1203 2611 
Q 934 2291 934 1684 
z
" transform="scale(0.015625)"/>
      <path id="ArialMT-75" d="M 2597 0 
L 2597 488 
Q 2209 -75 1544 -75 
Q 1250 -75 995 37 
Q 741 150 617 320 
Q 494 491 444 738 
Q 409 903 409 1263 
L 409 3319 
L 972 3319 
L 972 1478 
Q 972 1038 1006 884 
Q 1059 663 1231 536 
Q 1403 409 1656 409 
Q 1909 409 2131 539 
Q 2353 669 2445 892 
Q 2538 1116 2538 1541 
L 2538 3319 
L 3100 3319 
L 3100 0 
L 2597 0 
z
" transform="scale(0.015625)"/>
      <path id="ArialMT-3d" d="M 3381 2694 
L 356 2694 
L 356 3219 
L 3381 3219 
L 3381 2694 
z
M 3381 1303 
L 356 1303 
L 356 1828 
L 3381 1828 
L 3381 1303 
z
" transform="scale(0.015625)"/>
      <path id="ArialMT-4c" d="M 469 0 
L 469 4581 
L 1075 4581 
L 1075 541 
L 3331 541 
L 3331 0 
L 469 0 
z
" transform="scale(0.015625)"/>
      <path id="ArialMT-6e" d="M 422 0 
L 422 3319 
L 928 3319 
L 928 2847 
Q 1294 3394 1984 3394 
Q 2284 3394 2536 3286 
Q 2788 3178 2913 3003 
Q 3038 2828 3088 2588 
Q 3119 2431 3119 2041 
L 3119 0 
L 2556 0 
L 2556 2019 
Q 2556 2363 2490 2533 
Q 2425 2703 2258 2804 
Q 2091 2906 1866 2906 
Q 1506 2906 1245 2678 
Q 984 2450 984 1813 
L 984 0 
L 422 0 
z
" transform="scale(0.015625)"/>
      <path id="ArialMT-64" d="M 2575 0 
L 2575 419 
Q 2259 -75 1647 -75 
Q 1250 -75 917 144 
Q 584 363 401 755 
Q 219 1147 219 1656 
Q 219 2153 384 2558 
Q 550 2963 881 3178 
Q 1213 3394 1622 3394 
Q 1922 3394 2156 3267 
Q 2391 3141 2538 2938 
L 2538 4581 
L 3097 4581 
L 3097 0 
L 2575 0 
z
M 797 1656 
Q 797 1019 1065 703 
Q 1334 388 1700 388 
Q 2069 388 2326 689 
Q 2584 991 2584 1609 
Q 2584 2291 2321 2609 
Q 2059 2928 1675 2928 
Q 1300 2928 1048 2622 
Q 797 2316 797 1656 
z
" transform="scale(0.015625)"/>
      <path id="ArialMT-6c" d="M 409 0 
L 409 4581 
L 972 4581 
L 972 0 
L 409 0 
z
" transform="scale(0.015625)"/>
      <path id="ArialMT-6f" d="M 213 1659 
Q 213 2581 725 3025 
Q 1153 3394 1769 3394 
Q 2453 3394 2887 2945 
Q 3322 2497 3322 1706 
Q 3322 1066 3130 698 
Q 2938 331 2570 128 
Q 2203 -75 1769 -75 
Q 1072 -75 642 372 
Q 213 819 213 1659 
z
M 791 1659 
Q 791 1022 1069 705 
Q 1347 388 1769 388 
Q 2188 388 2466 706 
Q 2744 1025 2744 1678 
Q 2744 2294 2464 2611 
Q 2184 2928 1769 2928 
Q 1347 2928 1069 2612 
Q 791 2297 791 1659 
z
" transform="scale(0.015625)"/>
      <path id="ArialMT-63" d="M 2588 1216 
L 3141 1144 
Q 3050 572 2676 248 
Q 2303 -75 1759 -75 
Q 1078 -75 664 370 
Q 250 816 250 1647 
Q 250 2184 428 2587 
Q 606 2991 970 3192 
Q 1334 3394 1763 3394 
Q 2303 3394 2647 3120 
Q 2991 2847 3088 2344 
L 2541 2259 
Q 2463 2594 2264 2762 
Q 2066 2931 1784 2931 
Q 1359 2931 1093 2626 
Q 828 2322 828 1663 
Q 828 994 1084 691 
Q 1341 388 1753 388 
Q 2084 388 2306 591 
Q 2528 794 2588 1216 
z
" transform="scale(0.015625)"/>
      <path id="ArialMT-6b" d="M 425 0 
L 425 4581 
L 988 4581 
L 988 1969 
L 2319 3319 
L 3047 3319 
L 1778 2088 
L 3175 0 
L 2481 0 
L 1384 1697 
L 988 1316 
L 988 0 
L 425 0 
z
" transform="scale(0.015625)"/>
     </defs>
     <use xlink:href="#ArialMT-41"/>
     <use xlink:href="#ArialMT-74" x="66.699219"/>
     <use xlink:href="#ArialMT-74" x="94.482422"/>
     <use xlink:href="#ArialMT-72" x="122.265625"/>
     <use xlink:href="#ArialMT-69" x="155.566406"/>
     <use xlink:href="#ArialMT-62" x="177.783203"/>
     <use xlink:href="#ArialMT-75" x="233.398438"/>
     <use xlink:href="#ArialMT-74" x="289.013672"/>
     <use xlink:href="#ArialMT-65" x="316.796875"/>
     <use xlink:href="#ArialMT-20" x="372.412109"/>
     <use xlink:href="#ArialMT-3d" x="400.195312"/>
     <use xlink:href="#ArialMT-20" x="458.59375"/>
     <use xlink:href="#ArialMT-4c" x="486.376953"/>
     <use xlink:href="#ArialMT-61" x="541.992188"/>
     <use xlink:href="#ArialMT-6e" x="597.607422"/>
     <use xlink:href="#ArialMT-64" x="653.222656"/>
     <use xlink:href="#ArialMT-6c" x="708.837891"/>
     <use xlink:href="#ArialMT-6f" x="731.054688"/>
     <use xlink:href="#ArialMT-63" x="786.669922"/>
     <use xlink:href="#ArialMT-6b" x="836.669922"/>
     <use xlink:href="#ArialMT-65" x="886.669922"/>
     <use xlink:href="#ArialMT-64" x="942.285156"/>
    </g>
   </g>
  </g>
  <g id="axes_2">
   <g id="patch_5">
    <path d="M 193.239275 122.292 
L 323.822085 122.292 
L 323.822085 22.848 
L 193.239275 22.848 
z
" style="fill: #eaeaf2"/>
   </g>
   <g id="matplotlib.axis_3">
    <g id="xtick_4">
     <g id="line2d_12">
      <path d="M 196.75217 122.292 
L 196.75217 22.848 
" clip-path="url(#pc9dccbe557)" style="fill: none; stroke: #ffffff; stroke-linecap: round"/>
     </g>
     <g id="text_11">
      <!-- 0 -->
      <g style="fill: #262626" transform="translate(194.305358 138.090875) scale(0.088 -0.088)">
       <use xlink:href="#ArialMT-30"/>
      </g>
     </g>
    </g>
    <g id="xtick_5">
     <g id="line2d_13">
      <path d="M 245.205903 122.292 
L 245.205903 22.848 
" clip-path="url(#pc9dccbe557)" style="fill: none; stroke: #ffffff; stroke-linecap: round"/>
     </g>
     <g id="text_12">
      <!-- 20 -->
      <g style="fill: #262626" transform="translate(240.312278 138.090875) scale(0.088 -0.088)">
       <use xlink:href="#ArialMT-32"/>
       <use xlink:href="#ArialMT-30" x="55.615234"/>
      </g>
     </g>
    </g>
    <g id="xtick_6">
     <g id="line2d_14">
      <path d="M 293.659636 122.292 
L 293.659636 22.848 
" clip-path="url(#pc9dccbe557)" style="fill: none; stroke: #ffffff; stroke-linecap: round"/>
     </g>
     <g id="text_13">
      <!-- 40 -->
      <g style="fill: #262626" transform="translate(288.766011 138.090875) scale(0.088 -0.088)">
       <use xlink:href="#ArialMT-34"/>
       <use xlink:href="#ArialMT-30" x="55.615234"/>
      </g>
     </g>
    </g>
    <g id="text_14">
     <!-- Frame -->
     <g style="fill: #262626" transform="translate(244.66393 150.711375) scale(0.096 -0.096)">
      <use xlink:href="#ArialMT-46"/>
      <use xlink:href="#ArialMT-72" x="61.083984"/>
      <use xlink:href="#ArialMT-61" x="94.384766"/>
      <use xlink:href="#ArialMT-6d" x="150"/>
      <use xlink:href="#ArialMT-65" x="233.300781"/>
     </g>
    </g>
   </g>
   <g id="matplotlib.axis_4">
    <g id="ytick_5">
     <g id="line2d_15">
      <path d="M 193.239275 111.854412 
L 323.822085 111.854412 
" clip-path="url(#pc9dccbe557)" style="fill: none; stroke: #ffffff; stroke-linecap: round"/>
     </g>
    </g>
    <g id="ytick_6">
     <g id="line2d_16">
      <path d="M 193.239275 87.803681 
L 323.822085 87.803681 
" clip-path="url(#pc9dccbe557)" style="fill: none; stroke: #ffffff; stroke-linecap: round"/>
     </g>
    </g>
    <g id="ytick_7">
     <g id="line2d_17">
      <path d="M 193.239275 63.75295 
L 323.822085 63.75295 
" clip-path="url(#pc9dccbe557)" style="fill: none; stroke: #ffffff; stroke-linecap: round"/>
     </g>
    </g>
    <g id="ytick_8">
     <g id="line2d_18">
      <path d="M 193.239275 39.702218 
L 323.822085 39.702218 
" clip-path="url(#pc9dccbe557)" style="fill: none; stroke: #ffffff; stroke-linecap: round"/>
     </g>
    </g>
   </g>
   <g id="PolyCollection_5"/>
   <g id="PolyCollection_6">
    <defs>
     <path id="md29208641e" d="M 199.174857 -130.514519 
L 199.174857 -129.099185 
L 201.597544 -128.836269 
L 204.02023 -128.778476 
L 206.442917 -128.786522 
L 208.865604 -128.830002 
L 211.28829 -128.804448 
L 213.710977 -128.354687 
L 216.133664 -128.103408 
L 218.55635 -128.092889 
L 220.979037 -92.27407 
L 223.401724 -91.594954 
L 225.82441 -92.731594 
L 228.247097 -92.239299 
L 230.669784 -91.757653 
L 233.09247 -92.395259 
L 235.515157 -91.760685 
L 237.937843 -92.290854 
L 240.36053 -92.170391 
L 242.783217 -78.168561 
L 245.205903 -77.43808 
L 247.62859 -77.605082 
L 250.051277 -77.213887 
L 252.473963 -54.089338 
L 254.89665 -129.310854 
L 257.319337 -129.308215 
L 259.742023 -128.523809 
L 262.16471 -128.499616 
L 264.587397 -129.014194 
L 267.010083 -128.747589 
L 269.43277 -128.839873 
L 271.855457 -128.824429 
L 274.278143 -128.82593 
L 276.70083 -128.36435 
L 279.123517 -128.121337 
L 281.546203 -128.072094 
L 283.96889 -92.684745 
L 286.391576 -92.396968 
L 288.814263 -92.100196 
L 291.23695 -92.205245 
L 293.659636 -92.138 
L 296.082323 -91.699262 
L 298.50501 -92.018222 
L 300.927696 -91.807334 
L 303.350383 -93.153076 
L 305.77307 -78.062068 
L 308.195756 -77.074286 
L 310.618443 -77.627052 
L 313.04113 -77.406457 
L 315.463816 -54.214083 
L 317.886503 -129.296729 
L 317.886503 -131.319145 
L 317.886503 -131.319145 
L 315.463816 -56.062009 
L 313.04113 -91.709037 
L 310.618443 -91.487578 
L 308.195756 -91.636186 
L 305.77307 -91.473489 
L 303.350383 -106.848101 
L 300.927696 -106.710221 
L 298.50501 -106.205028 
L 296.082323 -106.74917 
L 293.659636 -107.196503 
L 291.23695 -106.449829 
L 288.814263 -107.115567 
L 286.391576 -106.562346 
L 283.96889 -106.619919 
L 281.546203 -129.499474 
L 279.123517 -129.414083 
L 276.70083 -129.752319 
L 274.278143 -130.243146 
L 271.855457 -130.203945 
L 269.43277 -130.23564 
L 267.010083 -130.210532 
L 264.587397 -130.554089 
L 262.16471 -130.934802 
L 259.742023 -130.806422 
L 257.319337 -131.335127 
L 254.89665 -131.322965 
L 252.473963 -56.085002 
L 250.051277 -91.599359 
L 247.62859 -91.521283 
L 245.205903 -91.550686 
L 242.783217 -92.03468 
L 240.36053 -106.991993 
L 237.937843 -106.80309 
L 235.515157 -106.655587 
L 233.09247 -107.162429 
L 230.669784 -106.654316 
L 228.247097 -106.909416 
L 225.82441 -106.659651 
L 223.401724 -106.624929 
L 220.979037 -106.96747 
L 218.55635 -129.475138 
L 216.133664 -129.447794 
L 213.710977 -129.787802 
L 211.28829 -130.316291 
L 208.865604 -130.238728 
L 206.442917 -130.29675 
L 204.02023 -130.179623 
L 201.597544 -130.173077 
L 199.174857 -130.514519 
z
" style="stroke: #ff7c00; stroke-opacity: 0.2"/>
    </defs>
    <g clip-path="url(#pc9dccbe557)">
     <use xlink:href="#md29208641e" x="0" y="162" style="fill: #ff7c00; fill-opacity: 0.2; stroke: #ff7c00; stroke-opacity: 0.2"/>
    </g>
   </g>
   <g id="PolyCollection_7">
    <defs>
     <path id="ma45b688e49" d="M 199.174857 -47.696827 
L 199.174857 -45.663419 
L 201.597544 -45.706974 
L 204.02023 -45.687076 
L 206.442917 -45.790962 
L 208.865604 -45.670429 
L 211.28829 -48.257792 
L 213.710977 -48.246412 
L 216.133664 -48.315715 
L 218.55635 -48.291292 
L 220.979037 -48.33471 
L 223.401724 -48.384159 
L 225.82441 -48.375443 
L 228.247097 -48.429696 
L 230.669784 -48.539748 
L 233.09247 -48.566081 
L 235.515157 -46.2903 
L 237.937843 -46.3184 
L 240.36053 -45.819508 
L 242.783217 -45.78498 
L 245.205903 -46.632885 
L 247.62859 -46.182315 
L 250.051277 -46.284979 
L 252.473963 -46.149219 
L 254.89665 -45.851503 
L 257.319337 -45.880588 
L 259.742023 -45.673413 
L 262.16471 -45.738529 
L 264.587397 -45.733609 
L 267.010083 -45.7453 
L 269.43277 -45.733817 
L 271.855457 -45.793062 
L 274.278143 -48.313553 
L 276.70083 -48.311601 
L 279.123517 -48.329186 
L 281.546203 -48.346198 
L 283.96889 -48.363737 
L 286.391576 -48.386103 
L 288.814263 -48.409476 
L 291.23695 -48.44194 
L 293.659636 -48.526853 
L 296.082323 -48.562221 
L 298.50501 -46.371686 
L 300.927696 -46.32017 
L 303.350383 -46.352275 
L 305.77307 -45.758961 
L 308.195756 -46.6872 
L 310.618443 -46.231863 
L 313.04113 -46.210355 
L 315.463816 -46.132748 
L 317.886503 -45.818417 
L 317.886503 -47.751725 
L 317.886503 -47.751725 
L 315.463816 -48.277446 
L 313.04113 -48.29608 
L 310.618443 -48.377442 
L 308.195756 -48.834056 
L 305.77307 -47.295532 
L 303.350383 -48.13062 
L 300.927696 -48.086589 
L 298.50501 -48.068276 
L 296.082323 -49.668185 
L 293.659636 -49.610207 
L 291.23695 -49.46616 
L 288.814263 -49.465089 
L 286.391576 -49.456519 
L 283.96889 -49.414345 
L 281.546203 -49.41543 
L 279.123517 -49.402837 
L 276.70083 -49.423814 
L 274.278143 -49.420021 
L 271.855457 -47.587292 
L 269.43277 -47.572378 
L 267.010083 -47.611561 
L 264.587397 -47.636122 
L 262.16471 -47.620712 
L 259.742023 -47.643258 
L 257.319337 -47.726701 
L 254.89665 -47.732783 
L 252.473963 -48.208475 
L 250.051277 -48.256931 
L 247.62859 -48.292792 
L 245.205903 -48.751798 
L 242.783217 -47.287112 
L 240.36053 -47.30862 
L 237.937843 -48.027618 
L 235.515157 -48.069257 
L 233.09247 -49.646626 
L 230.669784 -49.63047 
L 228.247097 -49.487234 
L 225.82441 -49.449915 
L 223.401724 -49.432374 
L 220.979037 -49.437162 
L 218.55635 -49.406753 
L 216.133664 -49.417199 
L 213.710977 -49.423484 
L 211.28829 -49.37893 
L 208.865604 -47.635951 
L 206.442917 -47.665057 
L 204.02023 -47.668311 
L 201.597544 -47.682619 
L 199.174857 -47.696827 
z
" style="stroke: #1ac938; stroke-opacity: 0.2"/>
    </defs>
    <g clip-path="url(#pc9dccbe557)">
     <use xlink:href="#ma45b688e49" x="0" y="162" style="fill: #1ac938; fill-opacity: 0.2; stroke: #1ac938; stroke-opacity: 0.2"/>
    </g>
   </g>
   <g id="PolyCollection_8">
    <defs>
     <path id="mdceda86052" d="M 199.174857 -76.254661 
L 199.174857 -64.977687 
L 201.597544 -64.792298 
L 204.02023 -65.279534 
L 206.442917 -65.065832 
L 208.865604 -65.012484 
L 211.28829 -71.035159 
L 213.710977 -71.526537 
L 216.133664 -70.572913 
L 218.55635 -70.088764 
L 220.979037 -70.541313 
L 223.401724 -70.075776 
L 225.82441 -70.620234 
L 228.247097 -70.83067 
L 230.669784 -70.907913 
L 233.09247 -71.554421 
L 235.515157 -69.240907 
L 237.937843 -69.020809 
L 240.36053 -69.742323 
L 242.783217 -69.723106 
L 245.205903 -62.714115 
L 247.62859 -62.90417 
L 250.051277 -62.531874 
L 252.473963 -62.679904 
L 254.89665 -62.80367 
L 257.319337 -62.512235 
L 259.742023 -62.330758 
L 262.16471 -62.521849 
L 264.587397 -65.032768 
L 267.010083 -64.891257 
L 269.43277 -64.916351 
L 271.855457 -65.243697 
L 274.278143 -71.296889 
L 276.70083 -71.258498 
L 279.123517 -70.738181 
L 281.546203 -70.583799 
L 283.96889 -70.425388 
L 286.391576 -70.415256 
L 288.814263 -70.419306 
L 291.23695 -71.128138 
L 293.659636 -71.242498 
L 296.082323 -71.563566 
L 298.50501 -69.215191 
L 300.927696 -69.054348 
L 303.350383 -69.413311 
L 305.77307 -69.629012 
L 308.195756 -62.672659 
L 310.618443 -62.341285 
L 313.04113 -62.789359 
L 315.463816 -62.682432 
L 317.886503 -62.562539 
L 317.886503 -73.758548 
L 317.886503 -73.758548 
L 315.463816 -73.578375 
L 313.04113 -74.093885 
L 310.618443 -73.774863 
L 308.195756 -74.032573 
L 305.77307 -80.456672 
L 303.350383 -80.702339 
L 300.927696 -80.825055 
L 298.50501 -80.834984 
L 296.082323 -82.642369 
L 293.659636 -82.491379 
L 291.23695 -82.536298 
L 288.814263 -81.533816 
L 286.391576 -81.53482 
L 283.96889 -81.684692 
L 281.546203 -81.838602 
L 279.123517 -81.972626 
L 276.70083 -81.623196 
L 274.278143 -81.9252 
L 271.855457 -75.751423 
L 269.43277 -75.856129 
L 267.010083 -76.060368 
L 264.587397 -76.121515 
L 262.16471 -74.166776 
L 259.742023 -74.311214 
L 257.319337 -74.35531 
L 254.89665 -73.844877 
L 252.473963 -73.650412 
L 250.051277 -73.833113 
L 247.62859 -74.313718 
L 245.205903 -73.57714 
L 242.783217 -80.971645 
L 240.36053 -80.820052 
L 237.937843 -80.590879 
L 235.515157 -80.694506 
L 233.09247 -82.323427 
L 230.669784 -82.737993 
L 228.247097 -82.457802 
L 225.82441 -81.635075 
L 223.401724 -81.573176 
L 220.979037 -81.712893 
L 218.55635 -81.307224 
L 216.133664 -81.69068 
L 213.710977 -81.730308 
L 211.28829 -81.58673 
L 208.865604 -76.273197 
L 206.442917 -75.813124 
L 204.02023 -75.688009 
L 201.597544 -75.640888 
L 199.174857 -76.254661 
z
" style="stroke: #e8000b; stroke-opacity: 0.2"/>
    </defs>
    <g clip-path="url(#pc9dccbe557)">
     <use xlink:href="#mdceda86052" x="0" y="162" style="fill: #e8000b; fill-opacity: 0.2; stroke: #e8000b; stroke-opacity: 0.2"/>
    </g>
   </g>
   <g id="line2d_19"/>
   <g id="line2d_20">
    <path d="M 199.174857 32.188858 
L 201.597544 32.461429 
L 204.02023 32.461268 
L 206.442917 32.456511 
L 208.865604 32.447271 
L 211.28829 32.433565 
L 213.710977 32.944891 
L 216.133664 33.228488 
L 218.55635 33.215682 
L 220.979037 62.500145 
L 223.401724 62.503159 
L 225.82441 62.51327 
L 228.247097 62.517857 
L 230.669784 62.51692 
L 233.09247 62.570572 
L 235.515157 62.565162 
L 237.937843 62.553953 
L 240.36053 62.284715 
L 242.783217 77.293839 
L 245.205903 77.648624 
L 247.62859 77.680596 
L 250.051277 77.707754 
L 252.473963 106.862497 
L 254.89665 31.684709 
L 257.319337 31.66838 
L 259.742023 32.269793 
L 262.16471 32.266566 
L 264.587397 32.188921 
L 267.010083 32.461511 
L 269.43277 32.457119 
L 271.855457 32.448295 
L 274.278143 32.434961 
L 276.70083 32.945789 
L 279.123517 33.229447 
L 281.546203 33.216947 
L 283.96889 62.499441 
L 286.391576 62.502024 
L 288.814263 62.512638 
L 291.23695 62.5177 
L 293.659636 62.517224 
L 296.082323 62.570776 
L 298.50501 62.56585 
L 300.927696 62.555144 
L 303.350383 62.286387 
L 305.77307 77.293027 
L 308.195756 77.645633 
L 310.618443 77.678022 
L 313.04113 77.705606 
L 315.463816 106.861954 
L 317.886503 31.685817 
" clip-path="url(#pc9dccbe557)" style="fill: none; stroke: #ff7c00; stroke-width: 1.5; stroke-linecap: round"/>
   </g>
   <g id="line2d_21">
    <path d="M 199.174857 115.278868 
L 201.597544 115.295171 
L 204.02023 115.295987 
L 206.442917 115.306705 
L 208.865604 115.312166 
L 211.28829 113.128526 
L 213.710977 113.129809 
L 216.133664 113.126358 
L 218.55635 113.118165 
L 220.979037 113.105248 
L 223.401724 113.08751 
L 225.82441 113.065004 
L 228.247097 113.03766 
L 230.669784 112.901689 
L 233.09247 112.862952 
L 235.515157 114.780079 
L 237.937843 114.79951 
L 240.36053 115.44125 
L 242.783217 115.467509 
L 245.205903 114.285698 
L 247.62859 114.699152 
L 250.051277 114.740882 
L 252.473963 114.77613 
L 254.89665 115.159166 
L 257.319337 115.197073 
L 259.742023 115.22953 
L 262.16471 115.256614 
L 264.587397 115.278358 
L 267.010083 115.294797 
L 269.43277 115.305959 
L 271.855457 115.311869 
L 274.278143 113.128203 
L 276.70083 113.129893 
L 279.123517 113.126842 
L 281.546203 113.119071 
L 283.96889 113.106535 
L 286.391576 113.089236 
L 288.814263 113.067165 
L 291.23695 113.04023 
L 293.659636 112.904809 
L 296.082323 112.866502 
L 298.50501 114.778105 
L 300.927696 114.798049 
L 303.350383 114.812101 
L 305.77307 115.465513 
L 308.195756 114.282519 
L 310.618443 114.695265 
L 313.04113 114.737534 
L 315.463816 114.773362 
L 317.886503 115.15565 
" clip-path="url(#pc9dccbe557)" style="fill: none; stroke: #1ac938; stroke-width: 1.5; stroke-linecap: round"/>
   </g>
   <g id="line2d_22">
    <path d="M 199.174857 91.604324 
L 201.597544 91.605153 
L 204.02023 91.605013 
L 206.442917 91.599449 
L 208.865604 91.587714 
L 211.28829 85.578148 
L 213.710977 85.571984 
L 216.133664 85.561152 
L 218.55635 86.288381 
L 220.979037 85.987923 
L 223.401724 85.992819 
L 225.82441 85.895687 
L 228.247097 85.268277 
L 230.669784 85.026186 
L 233.09247 85.051777 
L 235.515157 87.144827 
L 237.937843 87.172696 
L 240.36053 86.878541 
L 242.783217 86.909518 
L 245.205903 93.824764 
L 247.62859 93.853534 
L 250.051277 93.877225 
L 252.473963 93.895751 
L 254.89665 93.909178 
L 257.319337 93.917439 
L 259.742023 93.920481 
L 262.16471 93.918265 
L 264.587397 91.604219 
L 267.010083 91.605199 
L 269.43277 91.600147 
L 271.855457 91.588942 
L 274.278143 85.578487 
L 276.70083 85.572724 
L 279.123517 85.562285 
L 281.546203 86.288468 
L 283.96889 85.987266 
L 286.391576 85.992584 
L 288.814263 85.993393 
L 291.23695 85.266406 
L 293.659636 85.023727 
L 296.082323 85.049775 
L 298.50501 87.142185 
L 300.927696 87.170447 
L 303.350383 86.875627 
L 305.77307 86.907053 
L 308.195756 93.822018 
L 310.618443 93.851243 
L 313.04113 93.875361 
L 315.463816 93.894354 
L 317.886503 93.908223 
" clip-path="url(#pc9dccbe557)" style="fill: none; stroke: #e8000b; stroke-width: 1.5; stroke-linecap: round"/>
   </g>
   <g id="patch_6">
    <path d="M 193.239275 122.292 
L 193.239275 22.848 
" style="fill: none; stroke: #ffffff; stroke-width: 1.25; stroke-linejoin: miter; stroke-linecap: square"/>
   </g>
   <g id="patch_7">
    <path d="M 193.239275 122.292 
L 323.822085 122.292 
" style="fill: none; stroke: #ffffff; stroke-width: 1.25; stroke-linejoin: miter; stroke-linecap: square"/>
   </g>
   <g id="text_15">
    <!-- Attribute = Coastal -->
    <g style="fill: #262626" transform="translate(218.91118 16.848) scale(0.096 -0.096)">
     <defs>
      <path id="ArialMT-43" d="M 3763 1606 
L 4369 1453 
Q 4178 706 3683 314 
Q 3188 -78 2472 -78 
Q 1731 -78 1267 223 
Q 803 525 561 1097 
Q 319 1669 319 2325 
Q 319 3041 592 3573 
Q 866 4106 1370 4382 
Q 1875 4659 2481 4659 
Q 3169 4659 3637 4309 
Q 4106 3959 4291 3325 
L 3694 3184 
Q 3534 3684 3231 3912 
Q 2928 4141 2469 4141 
Q 1941 4141 1586 3887 
Q 1231 3634 1087 3207 
Q 944 2781 944 2328 
Q 944 1744 1114 1308 
Q 1284 872 1643 656 
Q 2003 441 2422 441 
Q 2931 441 3284 734 
Q 3638 1028 3763 1606 
z
" transform="scale(0.015625)"/>
     </defs>
     <use xlink:href="#ArialMT-41"/>
     <use xlink:href="#ArialMT-74" x="66.699219"/>
     <use xlink:href="#ArialMT-74" x="94.482422"/>
     <use xlink:href="#ArialMT-72" x="122.265625"/>
     <use xlink:href="#ArialMT-69" x="155.566406"/>
     <use xlink:href="#ArialMT-62" x="177.783203"/>
     <use xlink:href="#ArialMT-75" x="233.398438"/>
     <use xlink:href="#ArialMT-74" x="289.013672"/>
     <use xlink:href="#ArialMT-65" x="316.796875"/>
     <use xlink:href="#ArialMT-20" x="372.412109"/>
     <use xlink:href="#ArialMT-3d" x="400.195312"/>
     <use xlink:href="#ArialMT-20" x="458.59375"/>
     <use xlink:href="#ArialMT-43" x="486.376953"/>
     <use xlink:href="#ArialMT-6f" x="558.59375"/>
     <use xlink:href="#ArialMT-61" x="614.208984"/>
     <use xlink:href="#ArialMT-73" x="669.824219"/>
     <use xlink:href="#ArialMT-74" x="719.824219"/>
     <use xlink:href="#ArialMT-61" x="747.607422"/>
     <use xlink:href="#ArialMT-6c" x="803.222656"/>
    </g>
   </g>
  </g>
  <g id="axes_3">
   <g id="patch_8">
    <path d="M 333.78839 122.292 
L 464.3712 122.292 
L 464.3712 22.848 
L 333.78839 22.848 
z
" style="fill: #eaeaf2"/>
   </g>
   <g id="matplotlib.axis_5">
    <g id="xtick_7">
     <g id="line2d_23">
      <path d="M 337.301285 122.292 
L 337.301285 22.848 
" clip-path="url(#p4b0e96116c)" style="fill: none; stroke: #ffffff; stroke-linecap: round"/>
     </g>
     <g id="text_16">
      <!-- 0 -->
      <g style="fill: #262626" transform="translate(334.854473 138.090875) scale(0.088 -0.088)">
       <use xlink:href="#ArialMT-30"/>
      </g>
     </g>
    </g>
    <g id="xtick_8">
     <g id="line2d_24">
      <path d="M 385.755018 122.292 
L 385.755018 22.848 
" clip-path="url(#p4b0e96116c)" style="fill: none; stroke: #ffffff; stroke-linecap: round"/>
     </g>
     <g id="text_17">
      <!-- 20 -->
      <g style="fill: #262626" transform="translate(380.861393 138.090875) scale(0.088 -0.088)">
       <use xlink:href="#ArialMT-32"/>
       <use xlink:href="#ArialMT-30" x="55.615234"/>
      </g>
     </g>
    </g>
    <g id="xtick_9">
     <g id="line2d_25">
      <path d="M 434.208751 122.292 
L 434.208751 22.848 
" clip-path="url(#p4b0e96116c)" style="fill: none; stroke: #ffffff; stroke-linecap: round"/>
     </g>
     <g id="text_18">
      <!-- 40 -->
      <g style="fill: #262626" transform="translate(429.315126 138.090875) scale(0.088 -0.088)">
       <use xlink:href="#ArialMT-34"/>
       <use xlink:href="#ArialMT-30" x="55.615234"/>
      </g>
     </g>
    </g>
    <g id="text_19">
     <!-- Frame -->
     <g style="fill: #262626" transform="translate(385.213045 150.711375) scale(0.096 -0.096)">
      <use xlink:href="#ArialMT-46"/>
      <use xlink:href="#ArialMT-72" x="61.083984"/>
      <use xlink:href="#ArialMT-61" x="94.384766"/>
      <use xlink:href="#ArialMT-6d" x="150"/>
      <use xlink:href="#ArialMT-65" x="233.300781"/>
     </g>
    </g>
   </g>
   <g id="matplotlib.axis_6">
    <g id="ytick_9">
     <g id="line2d_26">
      <path d="M 333.78839 111.854412 
L 464.3712 111.854412 
" clip-path="url(#p4b0e96116c)" style="fill: none; stroke: #ffffff; stroke-linecap: round"/>
     </g>
    </g>
    <g id="ytick_10">
     <g id="line2d_27">
      <path d="M 333.78839 87.803681 
L 464.3712 87.803681 
" clip-path="url(#p4b0e96116c)" style="fill: none; stroke: #ffffff; stroke-linecap: round"/>
     </g>
    </g>
    <g id="ytick_11">
     <g id="line2d_28">
      <path d="M 333.78839 63.75295 
L 464.3712 63.75295 
" clip-path="url(#p4b0e96116c)" style="fill: none; stroke: #ffffff; stroke-linecap: round"/>
     </g>
    </g>
    <g id="ytick_12">
     <g id="line2d_29">
      <path d="M 333.78839 39.702218 
L 464.3712 39.702218 
" clip-path="url(#p4b0e96116c)" style="fill: none; stroke: #ffffff; stroke-linecap: round"/>
     </g>
    </g>
   </g>
   <g id="PolyCollection_9"/>
   <g id="PolyCollection_10"/>
   <g id="PolyCollection_11">
    <defs>
     <path id="mf41705c6a2" d="M 339.723972 -120.044148 
L 339.723972 -120.044148 
L 342.146658 -120.064487 
L 344.569345 -120.065874 
L 346.992032 -120.278813 
L 349.414718 -123.782099 
L 351.837405 -123.725955 
L 354.260092 -123.676794 
L 356.682778 -123.634675 
L 359.105465 -116.197098 
L 361.528152 -116.166464 
L 363.950838 -116.141327 
L 366.373525 -116.449992 
L 368.796212 -116.438335 
L 371.218898 -116.432072 
L 373.641585 -116.431162 
L 376.064272 -116.435501 
L 378.486958 -117.888474 
L 380.909645 -117.773756 
L 383.332332 -117.783992 
L 385.755018 -117.800181 
L 388.177705 -121.612333 
L 390.600392 -121.625884 
L 393.023078 -122.068435 
L 395.445765 -123.625653 
L 397.868451 -120.120618 
L 400.291138 -114.767315 
L 402.713825 -114.82524 
L 405.136511 -120.043693 
L 407.559198 -120.063922 
L 409.981885 -120.284443 
L 412.404571 -123.787317 
L 414.827258 -123.730581 
L 417.249945 -123.674439 
L 419.672631 -123.638042 
L 422.095318 -116.200026 
L 424.518005 -116.168899 
L 426.940691 -116.143313 
L 429.363378 -116.451244 
L 431.786065 -116.439138 
L 434.208751 -116.432414 
L 436.631438 -116.431018 
L 439.054125 -116.434953 
L 441.476811 -117.888337 
L 443.899498 -117.72147 
L 446.322184 -117.782864 
L 448.744871 -117.798571 
L 451.167558 -121.610744 
L 453.590244 -121.631857 
L 456.012931 -122.065076 
L 458.435618 -123.622683 
L 458.435618 -128.203837 
L 458.435618 -128.203837 
L 456.012931 -125.76731 
L 453.590244 -125.529791 
L 451.167558 -125.500421 
L 448.744871 -118.432933 
L 446.322184 -118.410444 
L 443.899498 -118.3935 
L 441.476811 -118.66246 
L 439.054125 -117.815029 
L 436.631438 -117.804147 
L 434.208751 -117.80129 
L 431.786065 -117.803587 
L 429.363378 -117.811085 
L 426.940691 -117.498364 
L 424.518005 -117.518974 
L 422.095318 -117.544942 
L 419.672631 -126.682737 
L 417.249945 -126.729679 
L 414.827258 -126.782909 
L 412.404571 -126.842375 
L 409.981885 -120.284443 
L 407.559198 -120.063922 
L 405.136511 -120.043693 
L 402.713825 -114.82524 
L 400.291138 -114.767315 
L 397.868451 -124.754096 
L 395.445765 -128.622135 
L 393.023078 -125.770315 
L 390.600392 -125.523814 
L 388.177705 -125.502039 
L 385.755018 -118.436433 
L 383.332332 -118.412179 
L 380.909645 -118.394737 
L 378.486958 -118.603788 
L 376.064272 -117.813051 
L 373.641585 -117.804648 
L 371.218898 -117.801323 
L 368.796212 -117.803171 
L 366.373525 -117.810238 
L 363.950838 -117.496797 
L 361.528152 -117.516975 
L 359.105465 -117.542468 
L 356.682778 -126.67897 
L 354.260092 -126.731697 
L 351.837405 -126.778016 
L 349.414718 -126.83695 
L 346.992032 -120.278813 
L 344.569345 -120.065874 
L 342.146658 -120.064487 
L 339.723972 -120.044148 
z
" style="stroke: #1ac938; stroke-opacity: 0.2"/>
    </defs>
    <g clip-path="url(#p4b0e96116c)">
     <use xlink:href="#mf41705c6a2" x="0" y="162" style="fill: #1ac938; fill-opacity: 0.2; stroke: #1ac938; stroke-opacity: 0.2"/>
    </g>
   </g>
   <g id="PolyCollection_12">
    <defs>
     <path id="m46d06fcce2" d="M 339.723972 -124.144673 
L 339.723972 -120.435785 
L 342.146658 -120.421603 
L 344.569345 -120.420862 
L 359.105465 -134.62842 
L 361.528152 -134.591582 
L 363.950838 -134.559764 
L 366.373525 -120.160597 
L 368.796212 -120.136563 
L 371.218898 -119.740768 
L 373.641585 -120.105354 
L 376.064272 -120.098085 
L 378.486958 -120.096426 
L 380.909645 -120.100297 
L 383.332332 -120.109743 
L 385.755018 -120.124726 
L 388.177705 -120.145336 
L 390.600392 -120.171552 
L 393.023078 -120.203409 
L 395.445765 -128.561482 
L 397.868451 -128.534795 
L 400.291138 -120.473219 
L 402.713825 -120.453251 
L 405.136511 -120.436189 
L 407.559198 -120.421946 
L 422.095318 -134.631818 
L 424.518005 -134.594562 
L 426.940691 -134.562363 
L 429.363378 -120.16292 
L 431.786065 -120.138417 
L 434.208751 -120.119548 
L 436.631438 -120.106248 
L 439.054125 -120.098512 
L 441.476811 -119.720401 
L 443.899498 -120.099739 
L 446.322184 -120.108695 
L 448.744871 -120.123224 
L 451.167558 -120.143315 
L 453.590244 -120.169053 
L 456.012931 -120.200397 
L 458.435618 -128.563926 
L 458.435618 -128.563926 
L 458.435618 -128.563926 
L 456.012931 -124.680166 
L 453.590244 -124.653586 
L 451.167558 -124.632871 
L 448.744871 -124.618032 
L 446.322184 -124.608942 
L 443.899498 -124.605582 
L 441.476811 -124.607943 
L 439.054125 -124.615918 
L 436.631438 -124.629562 
L 434.208751 -124.64882 
L 431.786065 -124.673682 
L 429.363378 -124.704197 
L 426.940691 -134.562363 
L 424.518005 -134.594562 
L 422.095318 -134.631818 
L 407.559198 -124.130416 
L 405.136511 -124.145091 
L 402.713825 -124.162584 
L 400.291138 -124.182984 
L 397.868451 -128.534795 
L 395.445765 -128.561482 
L 393.023078 -124.682784 
L 390.600392 -124.655667 
L 388.177705 -124.634454 
L 385.755018 -124.619077 
L 383.332332 -124.609523 
L 380.909645 -124.605663 
L 378.486958 -124.607508 
L 376.064272 -124.614987 
L 373.641585 -124.628159 
L 371.218898 -124.646924 
L 368.796212 -124.671316 
L 366.373525 -124.701361 
L 363.950838 -134.559764 
L 361.528152 -134.591582 
L 359.105465 -134.62842 
L 344.569345 -124.129297 
L 342.146658 -124.130069 
L 339.723972 -124.144673 
z
" style="stroke: #e8000b; stroke-opacity: 0.2"/>
    </defs>
    <g clip-path="url(#p4b0e96116c)">
     <use xlink:href="#m46d06fcce2" x="0" y="162" style="fill: #e8000b; fill-opacity: 0.2; stroke: #e8000b; stroke-opacity: 0.2"/>
    </g>
   </g>
   <g id="line2d_30"/>
   <g id="line2d_31"/>
   <g id="line2d_32">
    <path d="M 339.723972 41.955852 
L 342.146658 41.935513 
L 344.569345 41.934126 
L 346.992032 41.721187 
L 349.414718 36.690475 
L 351.837405 36.748015 
L 354.260092 36.79893 
L 356.682778 36.843178 
L 359.105465 45.130217 
L 361.528152 45.15828 
L 363.950838 45.180938 
L 366.373525 44.869885 
L 368.796212 44.879247 
L 371.218898 44.883302 
L 373.641585 44.882095 
L 376.064272 44.875724 
L 378.486958 43.753869 
L 380.909645 43.915753 
L 383.332332 43.901914 
L 385.755018 43.882354 
L 388.177705 38.442814 
L 390.600392 38.421099 
L 393.023078 38.080625 
L 395.445765 35.876106 
L 397.868451 39.562643 
L 400.291138 47.232685 
L 402.713825 47.17476 
L 405.136511 41.956307 
L 407.559198 41.936078 
L 409.981885 41.715557 
L 412.404571 36.685154 
L 414.827258 36.743255 
L 417.249945 36.794765 
L 419.672631 36.83961 
L 422.095318 45.127516 
L 424.518005 45.156064 
L 426.940691 45.179162 
L 429.363378 44.868836 
L 431.786065 44.878638 
L 434.208751 44.883148 
L 436.631438 44.882418 
L 439.054125 44.876443 
L 441.476811 43.754375 
L 443.899498 43.916667 
L 446.322184 43.903346 
L 448.744871 43.884248 
L 451.167558 38.444418 
L 453.590244 38.423228 
L 456.012931 38.083807 
L 458.435618 35.878506 
" clip-path="url(#p4b0e96116c)" style="fill: none; stroke: #1ac938; stroke-width: 1.5; stroke-linecap: round"/>
   </g>
   <g id="line2d_33">
    <path d="M 339.723972 39.709771 
L 342.146658 39.724164 
L 344.569345 39.72492 
L 359.105465 27.37158 
L 361.528152 27.408418 
L 363.950838 27.440236 
L 366.373525 39.569021 
L 368.796212 39.596061 
L 371.218898 39.617456 
L 373.641585 39.633244 
L 376.064272 39.643464 
L 378.486958 39.648033 
L 380.909645 39.64702 
L 383.332332 39.640367 
L 385.755018 39.628099 
L 388.177705 39.610105 
L 390.600392 39.586391 
L 393.023078 39.556903 
L 395.445765 33.438518 
L 397.868451 33.465205 
L 400.291138 39.671898 
L 402.713825 39.692082 
L 405.136511 39.70936 
L 407.559198 39.723819 
L 422.095318 27.368182 
L 424.518005 27.405438 
L 426.940691 27.437637 
L 429.363378 39.566441 
L 431.786065 39.593951 
L 434.208751 39.615816 
L 436.631438 39.632095 
L 439.054125 39.642785 
L 441.476811 39.647846 
L 443.899498 39.64734 
L 446.322184 39.641182 
L 448.744871 39.629372 
L 451.167558 39.611907 
L 453.590244 39.588681 
L 456.012931 39.559718 
L 458.435618 33.436074 
" clip-path="url(#p4b0e96116c)" style="fill: none; stroke: #e8000b; stroke-width: 1.5; stroke-linecap: round"/>
   </g>
   <g id="patch_9">
    <path d="M 333.78839 122.292 
L 333.78839 22.848 
" style="fill: none; stroke: #ffffff; stroke-width: 1.25; stroke-linejoin: miter; stroke-linecap: square"/>
   </g>
   <g id="patch_10">
    <path d="M 333.78839 122.292 
L 464.3712 122.292 
" style="fill: none; stroke: #ffffff; stroke-width: 1.25; stroke-linejoin: miter; stroke-linecap: square"/>
   </g>
   <g id="text_20">
    <!-- Attribute = Insular -->
    <g style="fill: #262626" transform="translate(361.328545 16.848) scale(0.096 -0.096)">
     <defs>
      <path id="ArialMT-49" d="M 597 0 
L 597 4581 
L 1203 4581 
L 1203 0 
L 597 0 
z
" transform="scale(0.015625)"/>
     </defs>
     <use xlink:href="#ArialMT-41"/>
     <use xlink:href="#ArialMT-74" x="66.699219"/>
     <use xlink:href="#ArialMT-74" x="94.482422"/>
     <use xlink:href="#ArialMT-72" x="122.265625"/>
     <use xlink:href="#ArialMT-69" x="155.566406"/>
     <use xlink:href="#ArialMT-62" x="177.783203"/>
     <use xlink:href="#ArialMT-75" x="233.398438"/>
     <use xlink:href="#ArialMT-74" x="289.013672"/>
     <use xlink:href="#ArialMT-65" x="316.796875"/>
     <use xlink:href="#ArialMT-20" x="372.412109"/>
     <use xlink:href="#ArialMT-3d" x="400.195312"/>
     <use xlink:href="#ArialMT-20" x="458.59375"/>
     <use xlink:href="#ArialMT-49" x="486.376953"/>
     <use xlink:href="#ArialMT-6e" x="514.160156"/>
     <use xlink:href="#ArialMT-73" x="569.775391"/>
     <use xlink:href="#ArialMT-75" x="619.775391"/>
     <use xlink:href="#ArialMT-6c" x="675.390625"/>
     <use xlink:href="#ArialMT-61" x="697.607422"/>
     <use xlink:href="#ArialMT-72" x="753.222656"/>
    </g>
   </g>
  </g>
  <g id="legend_1">
   <g id="text_21">
    <!-- Direction -->
    <g style="fill: #262626" transform="translate(490.04325 58.586) scale(0.096 -0.096)">
     <defs>
      <path id="ArialMT-44" d="M 494 0 
L 494 4581 
L 2072 4581 
Q 2606 4581 2888 4516 
Q 3281 4425 3559 4188 
Q 3922 3881 4101 3404 
Q 4281 2928 4281 2316 
Q 4281 1794 4159 1391 
Q 4038 988 3847 723 
Q 3656 459 3429 307 
Q 3203 156 2883 78 
Q 2563 0 2147 0 
L 494 0 
z
M 1100 541 
L 2078 541 
Q 2531 541 2789 625 
Q 3047 709 3200 863 
Q 3416 1078 3536 1442 
Q 3656 1806 3656 2325 
Q 3656 3044 3420 3430 
Q 3184 3816 2847 3947 
Q 2603 4041 2063 4041 
L 1100 4041 
L 1100 541 
z
" transform="scale(0.015625)"/>
     </defs>
     <use xlink:href="#ArialMT-44"/>
     <use xlink:href="#ArialMT-69" x="72.216797"/>
     <use xlink:href="#ArialMT-72" x="94.433594"/>
     <use xlink:href="#ArialMT-65" x="127.734375"/>
     <use xlink:href="#ArialMT-63" x="183.349609"/>
     <use xlink:href="#ArialMT-74" x="233.349609"/>
     <use xlink:href="#ArialMT-69" x="261.132812"/>
     <use xlink:href="#ArialMT-6f" x="283.349609"/>
     <use xlink:href="#ArialMT-6e" x="338.964844"/>
    </g>
   </g>
   <g id="line2d_34">
    <path d="M 485.1645 68.112875 
L 493.9645 68.112875 
L 502.7645 68.112875 
" style="fill: none; stroke: #023eff; stroke-width: 1.5; stroke-linecap: round"/>
   </g>
   <g id="text_22">
    <!-- East -->
    <g style="fill: #262626" transform="translate(509.8045 71.192875) scale(0.088 -0.088)">
     <defs>
      <path id="ArialMT-45" d="M 506 0 
L 506 4581 
L 3819 4581 
L 3819 4041 
L 1113 4041 
L 1113 2638 
L 3647 2638 
L 3647 2100 
L 1113 2100 
L 1113 541 
L 3925 541 
L 3925 0 
L 506 0 
z
" transform="scale(0.015625)"/>
     </defs>
     <use xlink:href="#ArialMT-45"/>
     <use xlink:href="#ArialMT-61" x="66.699219"/>
     <use xlink:href="#ArialMT-73" x="122.314453"/>
     <use xlink:href="#ArialMT-74" x="172.314453"/>
    </g>
   </g>
   <g id="line2d_35">
    <path d="M 485.1645 80.56075 
L 493.9645 80.56075 
L 502.7645 80.56075 
" style="fill: none; stroke: #ff7c00; stroke-width: 1.5; stroke-linecap: round"/>
   </g>
   <g id="text_23">
    <!-- West -->
    <g style="fill: #262626" transform="translate(509.8045 83.64075) scale(0.088 -0.088)">
     <defs>
      <path id="ArialMT-57" d="M 1294 0 
L 78 4581 
L 700 4581 
L 1397 1578 
Q 1509 1106 1591 641 
Q 1766 1375 1797 1488 
L 2669 4581 
L 3400 4581 
L 4056 2263 
Q 4303 1400 4413 641 
Q 4500 1075 4641 1638 
L 5359 4581 
L 5969 4581 
L 4713 0 
L 4128 0 
L 3163 3491 
Q 3041 3928 3019 4028 
Q 2947 3713 2884 3491 
L 1913 0 
L 1294 0 
z
" transform="scale(0.015625)"/>
     </defs>
     <use xlink:href="#ArialMT-57"/>
     <use xlink:href="#ArialMT-65" x="92.634766"/>
     <use xlink:href="#ArialMT-73" x="148.25"/>
     <use xlink:href="#ArialMT-74" x="198.25"/>
    </g>
   </g>
   <g id="line2d_36">
    <path d="M 485.1645 93.008625 
L 493.9645 93.008625 
L 502.7645 93.008625 
" style="fill: none; stroke: #1ac938; stroke-width: 1.5; stroke-linecap: round"/>
   </g>
   <g id="text_24">
    <!-- North -->
    <g style="fill: #262626" transform="translate(509.8045 96.088625) scale(0.088 -0.088)">
     <defs>
      <path id="ArialMT-4e" d="M 488 0 
L 488 4581 
L 1109 4581 
L 3516 984 
L 3516 4581 
L 4097 4581 
L 4097 0 
L 3475 0 
L 1069 3600 
L 1069 0 
L 488 0 
z
" transform="scale(0.015625)"/>
      <path id="ArialMT-68" d="M 422 0 
L 422 4581 
L 984 4581 
L 984 2938 
Q 1378 3394 1978 3394 
Q 2347 3394 2619 3248 
Q 2891 3103 3008 2847 
Q 3125 2591 3125 2103 
L 3125 0 
L 2563 0 
L 2563 2103 
Q 2563 2525 2380 2717 
Q 2197 2909 1863 2909 
Q 1613 2909 1392 2779 
Q 1172 2650 1078 2428 
Q 984 2206 984 1816 
L 984 0 
L 422 0 
z
" transform="scale(0.015625)"/>
     </defs>
     <use xlink:href="#ArialMT-4e"/>
     <use xlink:href="#ArialMT-6f" x="72.216797"/>
     <use xlink:href="#ArialMT-72" x="127.832031"/>
     <use xlink:href="#ArialMT-74" x="161.132812"/>
     <use xlink:href="#ArialMT-68" x="188.916016"/>
    </g>
   </g>
   <g id="line2d_37">
    <path d="M 485.1645 105.4565 
L 493.9645 105.4565 
L 502.7645 105.4565 
" style="fill: none; stroke: #e8000b; stroke-width: 1.5; stroke-linecap: round"/>
   </g>
   <g id="text_25">
    <!-- South -->
    <g style="fill: #262626" transform="translate(509.8045 108.5365) scale(0.088 -0.088)">
     <defs>
      <path id="ArialMT-53" d="M 288 1472 
L 859 1522 
Q 900 1178 1048 958 
Q 1197 738 1509 602 
Q 1822 466 2213 466 
Q 2559 466 2825 569 
Q 3091 672 3220 851 
Q 3350 1031 3350 1244 
Q 3350 1459 3225 1620 
Q 3100 1781 2813 1891 
Q 2628 1963 1997 2114 
Q 1366 2266 1113 2400 
Q 784 2572 623 2826 
Q 463 3081 463 3397 
Q 463 3744 659 4045 
Q 856 4347 1234 4503 
Q 1613 4659 2075 4659 
Q 2584 4659 2973 4495 
Q 3363 4331 3572 4012 
Q 3781 3694 3797 3291 
L 3216 3247 
Q 3169 3681 2898 3903 
Q 2628 4125 2100 4125 
Q 1550 4125 1298 3923 
Q 1047 3722 1047 3438 
Q 1047 3191 1225 3031 
Q 1400 2872 2139 2705 
Q 2878 2538 3153 2413 
Q 3553 2228 3743 1945 
Q 3934 1663 3934 1294 
Q 3934 928 3725 604 
Q 3516 281 3123 101 
Q 2731 -78 2241 -78 
Q 1619 -78 1198 103 
Q 778 284 539 648 
Q 300 1013 288 1472 
z
" transform="scale(0.015625)"/>
     </defs>
     <use xlink:href="#ArialMT-53"/>
     <use xlink:href="#ArialMT-6f" x="66.699219"/>
     <use xlink:href="#ArialMT-75" x="122.314453"/>
     <use xlink:href="#ArialMT-74" x="177.929688"/>
     <use xlink:href="#ArialMT-68" x="205.712891"/>
    </g>
   </g>
  </g>
 </g>
 <defs>
  <clipPath id="p3395895ab6">
   <rect x="52.69016" y="22.848" width="130.58281" height="99.444"/>
  </clipPath>
  <clipPath id="pc9dccbe557">
   <rect x="193.239275" y="22.848" width="130.58281" height="99.444"/>
  </clipPath>
  <clipPath id="p4b0e96116c">
   <rect x="333.78839" y="22.848" width="130.58281" height="99.444"/>
  </clipPath>
 </defs>
</svg>
