<?xml version="1.0" encoding="utf-8" standalone="no"?>
<!DOCTYPE svg PUBLIC "-//W3C//DTD SVG 1.1//EN"
  "http://www.w3.org/Graphics/SVG/1.1/DTD/svg11.dtd">
<svg xmlns:xlink="http://www.w3.org/1999/xlink" width="540.72pt" height="162pt" viewBox="0 0 540.72 162" xmlns="http://www.w3.org/2000/svg" version="1.1">
 <metadata>
  <rdf:RDF xmlns:dc="http://purl.org/dc/elements/1.1/" xmlns:cc="http://creativecommons.org/ns#" xmlns:rdf="http://www.w3.org/1999/02/22-rdf-syntax-ns#">
   <cc:Work>
    <dc:type rdf:resource="http://purl.org/dc/dcmitype/StillImage"/>
    <dc:date>2024-08-04T13:13:01.410315</dc:date>
    <dc:format>image/svg+xml</dc:format>
    <dc:creator>
     <cc:Agent>
      <dc:title>Matplotlib v3.9.0, https://matplotlib.org/</dc:title>
     </cc:Agent>
    </dc:creator>
   </cc:Work>
  </rdf:RDF>
 </metadata>
 <defs>
  <style type="text/css">*{stroke-linejoin: round; stroke-linecap: butt}</style>
 </defs>
 <g id="figure_1">
  <g id="patch_1">
   <path d="M 0 162 
L 540.72 162 
L 540.72 0 
L 0 0 
z
" style="fill: #ffffff"/>
  </g>
  <g id="axes_1">
   <g id="patch_2">
    <path d="M 47.182827 122.292 
L 179.589463 122.292 
L 179.589463 22.848 
L 47.182827 22.848 
z
" style="fill: #eaeaf2"/>
   </g>
   <g id="matplotlib.axis_1">
    <g id="xtick_1">
     <g id="line2d_1">
      <path d="M 50.744786 122.292 
L 50.744786 22.848 
" clip-path="url(#p601910b9af)" style="fill: none; stroke: #ffffff; stroke-linecap: round"/>
     </g>
     <g id="text_1">
      <!-- 0 -->
      <g style="fill: #262626" transform="translate(48.297974 138.090875) scale(0.088 -0.088)">
       <defs>
        <path id="ArialMT-30" d="M 266 2259 
Q 266 3072 433 3567 
Q 600 4063 929 4331 
Q 1259 4600 1759 4600 
Q 2128 4600 2406 4451 
Q 2684 4303 2865 4023 
Q 3047 3744 3150 3342 
Q 3253 2941 3253 2259 
Q 3253 1453 3087 958 
Q 2922 463 2592 192 
Q 2263 -78 1759 -78 
Q 1097 -78 719 397 
Q 266 969 266 2259 
z
M 844 2259 
Q 844 1131 1108 757 
Q 1372 384 1759 384 
Q 2147 384 2411 759 
Q 2675 1134 2675 2259 
Q 2675 3391 2411 3762 
Q 2147 4134 1753 4134 
Q 1366 4134 1134 3806 
Q 844 3388 844 2259 
z
" transform="scale(0.015625)"/>
       </defs>
       <use xlink:href="#ArialMT-30"/>
      </g>
     </g>
    </g>
    <g id="xtick_2">
     <g id="line2d_2">
      <path d="M 99.875264 122.292 
L 99.875264 22.848 
" clip-path="url(#p601910b9af)" style="fill: none; stroke: #ffffff; stroke-linecap: round"/>
     </g>
     <g id="text_2">
      <!-- 20 -->
      <g style="fill: #262626" transform="translate(94.981639 138.090875) scale(0.088 -0.088)">
       <defs>
        <path id="ArialMT-32" d="M 3222 541 
L 3222 0 
L 194 0 
Q 188 203 259 391 
Q 375 700 629 1000 
Q 884 1300 1366 1694 
Q 2113 2306 2375 2664 
Q 2638 3022 2638 3341 
Q 2638 3675 2398 3904 
Q 2159 4134 1775 4134 
Q 1369 4134 1125 3890 
Q 881 3647 878 3216 
L 300 3275 
Q 359 3922 746 4261 
Q 1134 4600 1788 4600 
Q 2447 4600 2831 4234 
Q 3216 3869 3216 3328 
Q 3216 3053 3103 2787 
Q 2991 2522 2730 2228 
Q 2469 1934 1863 1422 
Q 1356 997 1212 845 
Q 1069 694 975 541 
L 3222 541 
z
" transform="scale(0.015625)"/>
       </defs>
       <use xlink:href="#ArialMT-32"/>
       <use xlink:href="#ArialMT-30" x="55.615234"/>
      </g>
     </g>
    </g>
    <g id="xtick_3">
     <g id="line2d_3">
      <path d="M 149.005741 122.292 
L 149.005741 22.848 
" clip-path="url(#p601910b9af)" style="fill: none; stroke: #ffffff; stroke-linecap: round"/>
     </g>
     <g id="text_3">
      <!-- 40 -->
      <g style="fill: #262626" transform="translate(144.112116 138.090875) scale(0.088 -0.088)">
       <defs>
        <path id="ArialMT-34" d="M 2069 0 
L 2069 1097 
L 81 1097 
L 81 1613 
L 2172 4581 
L 2631 4581 
L 2631 1613 
L 3250 1613 
L 3250 1097 
L 2631 1097 
L 2631 0 
L 2069 0 
z
M 2069 1613 
L 2069 3678 
L 634 1613 
L 2069 1613 
z
" transform="scale(0.015625)"/>
       </defs>
       <use xlink:href="#ArialMT-34"/>
       <use xlink:href="#ArialMT-30" x="55.615234"/>
      </g>
     </g>
    </g>
    <g id="text_4">
     <!-- Frame -->
     <g style="fill: #262626" transform="translate(99.519395 150.711375) scale(0.096 -0.096)">
      <defs>
       <path id="ArialMT-46" d="M 525 0 
L 525 4581 
L 3616 4581 
L 3616 4041 
L 1131 4041 
L 1131 2622 
L 3281 2622 
L 3281 2081 
L 1131 2081 
L 1131 0 
L 525 0 
z
" transform="scale(0.015625)"/>
       <path id="ArialMT-72" d="M 416 0 
L 416 3319 
L 922 3319 
L 922 2816 
Q 1116 3169 1280 3281 
Q 1444 3394 1641 3394 
Q 1925 3394 2219 3213 
L 2025 2691 
Q 1819 2813 1613 2813 
Q 1428 2813 1281 2702 
Q 1134 2591 1072 2394 
Q 978 2094 978 1738 
L 978 0 
L 416 0 
z
" transform="scale(0.015625)"/>
       <path id="ArialMT-61" d="M 2588 409 
Q 2275 144 1986 34 
Q 1697 -75 1366 -75 
Q 819 -75 525 192 
Q 231 459 231 875 
Q 231 1119 342 1320 
Q 453 1522 633 1644 
Q 813 1766 1038 1828 
Q 1203 1872 1538 1913 
Q 2219 1994 2541 2106 
Q 2544 2222 2544 2253 
Q 2544 2597 2384 2738 
Q 2169 2928 1744 2928 
Q 1347 2928 1158 2789 
Q 969 2650 878 2297 
L 328 2372 
Q 403 2725 575 2942 
Q 747 3159 1072 3276 
Q 1397 3394 1825 3394 
Q 2250 3394 2515 3294 
Q 2781 3194 2906 3042 
Q 3031 2891 3081 2659 
Q 3109 2516 3109 2141 
L 3109 1391 
Q 3109 606 3145 398 
Q 3181 191 3288 0 
L 2700 0 
Q 2613 175 2588 409 
z
M 2541 1666 
Q 2234 1541 1622 1453 
Q 1275 1403 1131 1340 
Q 988 1278 909 1158 
Q 831 1038 831 891 
Q 831 666 1001 516 
Q 1172 366 1500 366 
Q 1825 366 2078 508 
Q 2331 650 2450 897 
Q 2541 1088 2541 1459 
L 2541 1666 
z
" transform="scale(0.015625)"/>
       <path id="ArialMT-6d" d="M 422 0 
L 422 3319 
L 925 3319 
L 925 2853 
Q 1081 3097 1340 3245 
Q 1600 3394 1931 3394 
Q 2300 3394 2536 3241 
Q 2772 3088 2869 2813 
Q 3263 3394 3894 3394 
Q 4388 3394 4653 3120 
Q 4919 2847 4919 2278 
L 4919 0 
L 4359 0 
L 4359 2091 
Q 4359 2428 4304 2576 
Q 4250 2725 4106 2815 
Q 3963 2906 3769 2906 
Q 3419 2906 3187 2673 
Q 2956 2441 2956 1928 
L 2956 0 
L 2394 0 
L 2394 2156 
Q 2394 2531 2256 2718 
Q 2119 2906 1806 2906 
Q 1569 2906 1367 2781 
Q 1166 2656 1075 2415 
Q 984 2175 984 1722 
L 984 0 
L 422 0 
z
" transform="scale(0.015625)"/>
       <path id="ArialMT-65" d="M 2694 1069 
L 3275 997 
Q 3138 488 2766 206 
Q 2394 -75 1816 -75 
Q 1088 -75 661 373 
Q 234 822 234 1631 
Q 234 2469 665 2931 
Q 1097 3394 1784 3394 
Q 2450 3394 2872 2941 
Q 3294 2488 3294 1666 
Q 3294 1616 3291 1516 
L 816 1516 
Q 847 969 1125 678 
Q 1403 388 1819 388 
Q 2128 388 2347 550 
Q 2566 713 2694 1069 
z
M 847 1978 
L 2700 1978 
Q 2663 2397 2488 2606 
Q 2219 2931 1791 2931 
Q 1403 2931 1139 2672 
Q 875 2413 847 1978 
z
" transform="scale(0.015625)"/>
      </defs>
      <use xlink:href="#ArialMT-46"/>
      <use xlink:href="#ArialMT-72" x="61.083984"/>
      <use xlink:href="#ArialMT-61" x="94.384766"/>
      <use xlink:href="#ArialMT-6d" x="150"/>
      <use xlink:href="#ArialMT-65" x="233.300781"/>
     </g>
    </g>
   </g>
   <g id="matplotlib.axis_2">
    <g id="ytick_1">
     <g id="line2d_4">
      <path d="M 47.182827 117.771818 
L 179.589463 117.771818 
" clip-path="url(#p601910b9af)" style="fill: none; stroke: #ffffff; stroke-linecap: round"/>
     </g>
     <g id="text_5">
      <!-- 0 -->
      <g style="fill: #262626" transform="translate(32.789202 120.921256) scale(0.088 -0.088)">
       <use xlink:href="#ArialMT-30"/>
      </g>
     </g>
    </g>
    <g id="ytick_2">
     <g id="line2d_5">
      <path d="M 47.182827 95.170909 
L 179.589463 95.170909 
" clip-path="url(#p601910b9af)" style="fill: none; stroke: #ffffff; stroke-linecap: round"/>
     </g>
     <g id="text_6">
      <!-- 5 -->
      <g style="fill: #262626" transform="translate(32.789202 98.320347) scale(0.088 -0.088)">
       <defs>
        <path id="ArialMT-35" d="M 266 1200 
L 856 1250 
Q 922 819 1161 601 
Q 1400 384 1738 384 
Q 2144 384 2425 690 
Q 2706 997 2706 1503 
Q 2706 1984 2436 2262 
Q 2166 2541 1728 2541 
Q 1456 2541 1237 2417 
Q 1019 2294 894 2097 
L 366 2166 
L 809 4519 
L 3088 4519 
L 3088 3981 
L 1259 3981 
L 1013 2750 
Q 1425 3038 1878 3038 
Q 2478 3038 2890 2622 
Q 3303 2206 3303 1553 
Q 3303 931 2941 478 
Q 2500 -78 1738 -78 
Q 1113 -78 717 272 
Q 322 622 266 1200 
z
" transform="scale(0.015625)"/>
       </defs>
       <use xlink:href="#ArialMT-35"/>
      </g>
     </g>
    </g>
    <g id="ytick_3">
     <g id="line2d_6">
      <path d="M 47.182827 72.57 
L 179.589463 72.57 
" clip-path="url(#p601910b9af)" style="fill: none; stroke: #ffffff; stroke-linecap: round"/>
     </g>
     <g id="text_7">
      <!-- 10 -->
      <g style="fill: #262626" transform="translate(27.895577 75.719437) scale(0.088 -0.088)">
       <defs>
        <path id="ArialMT-31" d="M 2384 0 
L 1822 0 
L 1822 3584 
Q 1619 3391 1289 3197 
Q 959 3003 697 2906 
L 697 3450 
Q 1169 3672 1522 3987 
Q 1875 4303 2022 4600 
L 2384 4600 
L 2384 0 
z
" transform="scale(0.015625)"/>
       </defs>
       <use xlink:href="#ArialMT-31"/>
       <use xlink:href="#ArialMT-30" x="55.615234"/>
      </g>
     </g>
    </g>
    <g id="ytick_4">
     <g id="line2d_7">
      <path d="M 47.182827 49.969091 
L 179.589463 49.969091 
" clip-path="url(#p601910b9af)" style="fill: none; stroke: #ffffff; stroke-linecap: round"/>
     </g>
     <g id="text_8">
      <!-- 15 -->
      <g style="fill: #262626" transform="translate(27.895577 53.118528) scale(0.088 -0.088)">
       <use xlink:href="#ArialMT-31"/>
       <use xlink:href="#ArialMT-35" x="55.615234"/>
      </g>
     </g>
    </g>
    <g id="ytick_5">
     <g id="line2d_8">
      <path d="M 47.182827 27.368182 
L 179.589463 27.368182 
" clip-path="url(#p601910b9af)" style="fill: none; stroke: #ffffff; stroke-linecap: round"/>
     </g>
     <g id="text_9">
      <!-- 20 -->
      <g style="fill: #262626" transform="translate(27.895577 30.517619) scale(0.088 -0.088)">
       <use xlink:href="#ArialMT-32"/>
       <use xlink:href="#ArialMT-30" x="55.615234"/>
      </g>
     </g>
    </g>
    <g id="text_10">
     <!-- Malicious Traffic (Gbps) -->
     <g style="fill: #262626" transform="translate(21.875077 122.89575) rotate(-90) scale(0.096 -0.096)">
      <defs>
       <path id="ArialMT-4d" d="M 475 0 
L 475 4581 
L 1388 4581 
L 2472 1338 
Q 2622 884 2691 659 
Q 2769 909 2934 1394 
L 4031 4581 
L 4847 4581 
L 4847 0 
L 4263 0 
L 4263 3834 
L 2931 0 
L 2384 0 
L 1059 3900 
L 1059 0 
L 475 0 
z
" transform="scale(0.015625)"/>
       <path id="ArialMT-6c" d="M 409 0 
L 409 4581 
L 972 4581 
L 972 0 
L 409 0 
z
" transform="scale(0.015625)"/>
       <path id="ArialMT-69" d="M 425 3934 
L 425 4581 
L 988 4581 
L 988 3934 
L 425 3934 
z
M 425 0 
L 425 3319 
L 988 3319 
L 988 0 
L 425 0 
z
" transform="scale(0.015625)"/>
       <path id="ArialMT-63" d="M 2588 1216 
L 3141 1144 
Q 3050 572 2676 248 
Q 2303 -75 1759 -75 
Q 1078 -75 664 370 
Q 250 816 250 1647 
Q 250 2184 428 2587 
Q 606 2991 970 3192 
Q 1334 3394 1763 3394 
Q 2303 3394 2647 3120 
Q 2991 2847 3088 2344 
L 2541 2259 
Q 2463 2594 2264 2762 
Q 2066 2931 1784 2931 
Q 1359 2931 1093 2626 
Q 828 2322 828 1663 
Q 828 994 1084 691 
Q 1341 388 1753 388 
Q 2084 388 2306 591 
Q 2528 794 2588 1216 
z
" transform="scale(0.015625)"/>
       <path id="ArialMT-6f" d="M 213 1659 
Q 213 2581 725 3025 
Q 1153 3394 1769 3394 
Q 2453 3394 2887 2945 
Q 3322 2497 3322 1706 
Q 3322 1066 3130 698 
Q 2938 331 2570 128 
Q 2203 -75 1769 -75 
Q 1072 -75 642 372 
Q 213 819 213 1659 
z
M 791 1659 
Q 791 1022 1069 705 
Q 1347 388 1769 388 
Q 2188 388 2466 706 
Q 2744 1025 2744 1678 
Q 2744 2294 2464 2611 
Q 2184 2928 1769 2928 
Q 1347 2928 1069 2612 
Q 791 2297 791 1659 
z
" transform="scale(0.015625)"/>
       <path id="ArialMT-75" d="M 2597 0 
L 2597 488 
Q 2209 -75 1544 -75 
Q 1250 -75 995 37 
Q 741 150 617 320 
Q 494 491 444 738 
Q 409 903 409 1263 
L 409 3319 
L 972 3319 
L 972 1478 
Q 972 1038 1006 884 
Q 1059 663 1231 536 
Q 1403 409 1656 409 
Q 1909 409 2131 539 
Q 2353 669 2445 892 
Q 2538 1116 2538 1541 
L 2538 3319 
L 3100 3319 
L 3100 0 
L 2597 0 
z
" transform="scale(0.015625)"/>
       <path id="ArialMT-73" d="M 197 991 
L 753 1078 
Q 800 744 1014 566 
Q 1228 388 1613 388 
Q 2000 388 2187 545 
Q 2375 703 2375 916 
Q 2375 1106 2209 1216 
Q 2094 1291 1634 1406 
Q 1016 1563 777 1677 
Q 538 1791 414 1992 
Q 291 2194 291 2438 
Q 291 2659 392 2848 
Q 494 3038 669 3163 
Q 800 3259 1026 3326 
Q 1253 3394 1513 3394 
Q 1903 3394 2198 3281 
Q 2494 3169 2634 2976 
Q 2775 2784 2828 2463 
L 2278 2388 
Q 2241 2644 2061 2787 
Q 1881 2931 1553 2931 
Q 1166 2931 1000 2803 
Q 834 2675 834 2503 
Q 834 2394 903 2306 
Q 972 2216 1119 2156 
Q 1203 2125 1616 2013 
Q 2213 1853 2448 1751 
Q 2684 1650 2818 1456 
Q 2953 1263 2953 975 
Q 2953 694 2789 445 
Q 2625 197 2315 61 
Q 2006 -75 1616 -75 
Q 969 -75 630 194 
Q 291 463 197 991 
z
" transform="scale(0.015625)"/>
       <path id="ArialMT-20" transform="scale(0.015625)"/>
       <path id="ArialMT-54" d="M 1659 0 
L 1659 4041 
L 150 4041 
L 150 4581 
L 3781 4581 
L 3781 4041 
L 2266 4041 
L 2266 0 
L 1659 0 
z
" transform="scale(0.015625)"/>
       <path id="ArialMT-66" d="M 556 0 
L 556 2881 
L 59 2881 
L 59 3319 
L 556 3319 
L 556 3672 
Q 556 4006 616 4169 
Q 697 4388 901 4523 
Q 1106 4659 1475 4659 
Q 1713 4659 2000 4603 
L 1916 4113 
Q 1741 4144 1584 4144 
Q 1328 4144 1222 4034 
Q 1116 3925 1116 3625 
L 1116 3319 
L 1763 3319 
L 1763 2881 
L 1116 2881 
L 1116 0 
L 556 0 
z
" transform="scale(0.015625)"/>
       <path id="ArialMT-28" d="M 1497 -1347 
Q 1031 -759 709 28 
Q 388 816 388 1659 
Q 388 2403 628 3084 
Q 909 3875 1497 4659 
L 1900 4659 
Q 1522 4009 1400 3731 
Q 1209 3300 1100 2831 
Q 966 2247 966 1656 
Q 966 153 1900 -1347 
L 1497 -1347 
z
" transform="scale(0.015625)"/>
       <path id="ArialMT-47" d="M 2638 1797 
L 2638 2334 
L 4578 2338 
L 4578 638 
Q 4131 281 3656 101 
Q 3181 -78 2681 -78 
Q 2006 -78 1454 211 
Q 903 500 622 1047 
Q 341 1594 341 2269 
Q 341 2938 620 3517 
Q 900 4097 1425 4378 
Q 1950 4659 2634 4659 
Q 3131 4659 3532 4498 
Q 3934 4338 4162 4050 
Q 4391 3763 4509 3300 
L 3963 3150 
Q 3859 3500 3706 3700 
Q 3553 3900 3268 4020 
Q 2984 4141 2638 4141 
Q 2222 4141 1919 4014 
Q 1616 3888 1430 3681 
Q 1244 3475 1141 3228 
Q 966 2803 966 2306 
Q 966 1694 1177 1281 
Q 1388 869 1791 669 
Q 2194 469 2647 469 
Q 3041 469 3416 620 
Q 3791 772 3984 944 
L 3984 1797 
L 2638 1797 
z
" transform="scale(0.015625)"/>
       <path id="ArialMT-62" d="M 941 0 
L 419 0 
L 419 4581 
L 981 4581 
L 981 2947 
Q 1338 3394 1891 3394 
Q 2197 3394 2470 3270 
Q 2744 3147 2920 2923 
Q 3097 2700 3197 2384 
Q 3297 2069 3297 1709 
Q 3297 856 2875 390 
Q 2453 -75 1863 -75 
Q 1275 -75 941 416 
L 941 0 
z
M 934 1684 
Q 934 1088 1097 822 
Q 1363 388 1816 388 
Q 2184 388 2453 708 
Q 2722 1028 2722 1663 
Q 2722 2313 2464 2622 
Q 2206 2931 1841 2931 
Q 1472 2931 1203 2611 
Q 934 2291 934 1684 
z
" transform="scale(0.015625)"/>
       <path id="ArialMT-70" d="M 422 -1272 
L 422 3319 
L 934 3319 
L 934 2888 
Q 1116 3141 1344 3267 
Q 1572 3394 1897 3394 
Q 2322 3394 2647 3175 
Q 2972 2956 3137 2557 
Q 3303 2159 3303 1684 
Q 3303 1175 3120 767 
Q 2938 359 2589 142 
Q 2241 -75 1856 -75 
Q 1575 -75 1351 44 
Q 1128 163 984 344 
L 984 -1272 
L 422 -1272 
z
M 931 1641 
Q 931 1000 1190 694 
Q 1450 388 1819 388 
Q 2194 388 2461 705 
Q 2728 1022 2728 1688 
Q 2728 2322 2467 2637 
Q 2206 2953 1844 2953 
Q 1484 2953 1207 2617 
Q 931 2281 931 1641 
z
" transform="scale(0.015625)"/>
       <path id="ArialMT-29" d="M 791 -1347 
L 388 -1347 
Q 1322 153 1322 1656 
Q 1322 2244 1188 2822 
Q 1081 3291 891 3722 
Q 769 4003 388 4659 
L 791 4659 
Q 1378 3875 1659 3084 
Q 1900 2403 1900 1659 
Q 1900 816 1576 28 
Q 1253 -759 791 -1347 
z
" transform="scale(0.015625)"/>
      </defs>
      <use xlink:href="#ArialMT-4d"/>
      <use xlink:href="#ArialMT-61" x="83.300781"/>
      <use xlink:href="#ArialMT-6c" x="138.916016"/>
      <use xlink:href="#ArialMT-69" x="161.132812"/>
      <use xlink:href="#ArialMT-63" x="183.349609"/>
      <use xlink:href="#ArialMT-69" x="233.349609"/>
      <use xlink:href="#ArialMT-6f" x="255.566406"/>
      <use xlink:href="#ArialMT-75" x="311.181641"/>
      <use xlink:href="#ArialMT-73" x="366.796875"/>
      <use xlink:href="#ArialMT-20" x="416.796875"/>
      <use xlink:href="#ArialMT-54" x="442.830078"/>
      <use xlink:href="#ArialMT-72" x="500.164062"/>
      <use xlink:href="#ArialMT-61" x="533.464844"/>
      <use xlink:href="#ArialMT-66" x="589.080078"/>
      <use xlink:href="#ArialMT-66" x="615.113281"/>
      <use xlink:href="#ArialMT-69" x="642.896484"/>
      <use xlink:href="#ArialMT-63" x="665.113281"/>
      <use xlink:href="#ArialMT-20" x="715.113281"/>
      <use xlink:href="#ArialMT-28" x="742.896484"/>
      <use xlink:href="#ArialMT-47" x="776.197266"/>
      <use xlink:href="#ArialMT-62" x="853.980469"/>
      <use xlink:href="#ArialMT-70" x="909.595703"/>
      <use xlink:href="#ArialMT-73" x="965.210938"/>
      <use xlink:href="#ArialMT-29" x="1015.210938"/>
     </g>
    </g>
   </g>
   <g id="PolyCollection_1"/>
   <g id="PolyCollection_2"/>
   <g id="PolyCollection_3"/>
   <g id="PolyCollection_4"/>
   <g id="line2d_9">
    <path d="M 53.20131 27.368182 
L 55.657834 27.368182 
L 58.114358 27.368182 
L 60.570882 27.368182 
L 63.027406 27.368182 
L 65.483929 27.368182 
L 67.940453 27.368182 
L 70.396977 27.368182 
L 72.853501 27.368182 
L 75.310025 27.368182 
L 77.766549 45.448909 
L 80.223073 45.448909 
L 82.679596 45.448909 
L 85.13612 81.610364 
L 87.592644 81.610364 
L 90.049168 81.610364 
L 92.505692 81.610364 
L 94.962216 81.610364 
L 97.41874 81.610364 
L 99.875264 45.448909 
L 102.331787 45.448909 
L 104.788311 27.368182 
L 107.244835 27.368182 
L 109.701359 27.368182 
L 112.157883 27.368182 
L 114.614407 27.368182 
L 117.070931 27.368182 
L 119.527454 27.368182 
L 121.983978 27.368182 
L 124.440502 27.368182 
L 126.897026 27.368182 
L 129.35355 27.368182 
L 131.810074 27.368182 
L 134.266598 27.368182 
L 136.723121 27.368182 
L 139.179645 27.368182 
L 141.636169 45.448909 
L 144.092693 45.448909 
L 146.549217 45.448909 
L 149.005741 81.610364 
L 151.462265 81.610364 
L 153.918789 81.610364 
L 156.375312 81.610364 
L 158.831836 81.610364 
L 161.28836 81.610364 
L 163.744884 45.448909 
L 166.201408 45.448909 
L 168.657932 27.368182 
L 171.114456 27.368182 
L 173.570979 27.368182 
" clip-path="url(#p601910b9af)" style="fill: none; stroke: #023eff; stroke-width: 1.5; stroke-linecap: round"/>
   </g>
   <g id="line2d_10">
    <path d="M 53.20131 45.448909 
L 55.657834 63.529636 
L 58.114358 63.529636 
L 60.570882 63.529636 
L 63.027406 63.529636 
L 65.483929 63.529636 
L 67.940453 63.529636 
L 70.396977 63.529636 
L 72.853501 63.529636 
L 75.310025 63.529636 
L 77.766549 63.529636 
L 80.223073 27.368182 
L 82.679596 27.368182 
L 85.13612 27.368182 
L 87.592644 27.368182 
L 90.049168 27.368182 
L 92.505692 27.368182 
L 94.962216 27.368182 
L 97.41874 27.368182 
L 99.875264 27.368182 
L 102.331787 27.368182 
L 104.788311 27.368182 
L 107.244835 27.368182 
L 109.701359 27.368182 
L 112.157883 27.368182 
L 114.614407 45.448909 
L 117.070931 45.448909 
L 119.527454 45.448909 
L 121.983978 63.529636 
L 124.440502 63.529636 
L 126.897026 63.529636 
L 129.35355 63.529636 
L 131.810074 63.529636 
L 134.266598 63.529636 
L 136.723121 63.529636 
L 139.179645 63.529636 
L 141.636169 63.529636 
L 144.092693 27.368182 
L 146.549217 27.368182 
L 149.005741 27.368182 
L 151.462265 27.368182 
L 153.918789 27.368182 
L 156.375312 27.368182 
L 158.831836 27.368182 
L 161.28836 27.368182 
L 163.744884 27.368182 
L 166.201408 27.368182 
L 168.657932 27.368182 
L 171.114456 27.368182 
L 173.570979 27.368182 
" clip-path="url(#p601910b9af)" style="fill: none; stroke: #ff7c00; stroke-width: 1.5; stroke-linecap: round"/>
   </g>
   <g id="line2d_11">
    <path d="M 53.20131 27.368182 
L 55.657834 27.368182 
L 58.114358 27.368182 
L 60.570882 27.368182 
L 63.027406 27.368182 
L 65.483929 27.368182 
L 67.940453 27.368182 
L 70.396977 27.368182 
L 72.853501 27.368182 
L 75.310025 27.368182 
L 77.766549 27.368182 
L 80.223073 27.368182 
L 82.679596 27.368182 
L 85.13612 27.368182 
L 87.592644 27.368182 
L 90.049168 27.368182 
L 92.505692 27.368182 
L 94.962216 27.368182 
L 97.41874 27.368182 
L 99.875264 27.368182 
L 102.331787 27.368182 
L 104.788311 27.368182 
L 107.244835 27.368182 
L 109.701359 27.368182 
L 112.157883 27.368182 
L 114.614407 27.368182 
L 117.070931 27.368182 
L 119.527454 27.368182 
L 121.983978 27.368182 
L 124.440502 27.368182 
L 126.897026 27.368182 
L 129.35355 27.368182 
L 131.810074 27.368182 
L 134.266598 27.368182 
L 136.723121 27.368182 
L 139.179645 27.368182 
L 141.636169 27.368182 
L 144.092693 27.368182 
L 146.549217 27.368182 
L 149.005741 27.368182 
L 151.462265 27.368182 
L 153.918789 27.368182 
L 156.375312 27.368182 
L 158.831836 27.368182 
L 161.28836 27.368182 
L 163.744884 27.368182 
L 166.201408 27.368182 
L 168.657932 27.368182 
L 171.114456 27.368182 
L 173.570979 27.368182 
" clip-path="url(#p601910b9af)" style="fill: none; stroke: #1ac938; stroke-width: 1.5; stroke-linecap: round"/>
   </g>
   <g id="line2d_12">
    <path d="M 53.20131 27.368182 
L 55.657834 27.368182 
L 58.114358 27.368182 
L 60.570882 27.368182 
L 63.027406 27.368182 
L 65.483929 27.368182 
L 67.940453 27.368182 
L 70.396977 27.368182 
L 72.853501 27.368182 
L 75.310025 27.368182 
L 77.766549 27.368182 
L 80.223073 27.368182 
L 82.679596 27.368182 
L 85.13612 27.368182 
L 87.592644 27.368182 
L 90.049168 27.368182 
L 92.505692 27.368182 
L 94.962216 27.368182 
L 97.41874 45.448909 
L 99.875264 45.448909 
L 102.331787 45.448909 
L 104.788311 27.368182 
L 107.244835 27.368182 
L 109.701359 27.368182 
L 112.157883 27.368182 
L 114.614407 27.368182 
L 117.070931 27.368182 
L 119.527454 27.368182 
L 121.983978 27.368182 
L 124.440502 27.368182 
L 126.897026 27.368182 
L 129.35355 27.368182 
L 131.810074 27.368182 
L 134.266598 27.368182 
L 136.723121 27.368182 
L 139.179645 27.368182 
L 141.636169 27.368182 
L 144.092693 27.368182 
L 146.549217 27.368182 
L 149.005741 27.368182 
L 151.462265 27.368182 
L 153.918789 27.368182 
L 156.375312 27.368182 
L 158.831836 27.368182 
L 161.28836 45.448909 
L 163.744884 45.448909 
L 166.201408 45.448909 
L 168.657932 27.368182 
L 171.114456 27.368182 
L 173.570979 27.368182 
" clip-path="url(#p601910b9af)" style="fill: none; stroke: #e8000b; stroke-width: 1.5; stroke-linecap: round"/>
   </g>
   <g id="patch_3">
    <path d="M 47.182827 122.292 
L 47.182827 22.848 
" style="fill: none; stroke: #ffffff; stroke-width: 1.25; stroke-linejoin: miter; stroke-linecap: square"/>
   </g>
   <g id="patch_4">
    <path d="M 47.182827 122.292 
L 179.589463 122.292 
" style="fill: none; stroke: #ffffff; stroke-width: 1.25; stroke-linejoin: miter; stroke-linecap: square"/>
   </g>
   <g id="text_11">
    <!-- Attribute = Landlocked -->
    <g style="fill: #262626" transform="translate(65.489645 16.848) scale(0.096 -0.096)">
     <defs>
      <path id="ArialMT-41" d="M -9 0 
L 1750 4581 
L 2403 4581 
L 4278 0 
L 3588 0 
L 3053 1388 
L 1138 1388 
L 634 0 
L -9 0 
z
M 1313 1881 
L 2866 1881 
L 2388 3150 
Q 2169 3728 2063 4100 
Q 1975 3659 1816 3225 
L 1313 1881 
z
" transform="scale(0.015625)"/>
      <path id="ArialMT-74" d="M 1650 503 
L 1731 6 
Q 1494 -44 1306 -44 
Q 1000 -44 831 53 
Q 663 150 594 308 
Q 525 466 525 972 
L 525 2881 
L 113 2881 
L 113 3319 
L 525 3319 
L 525 4141 
L 1084 4478 
L 1084 3319 
L 1650 3319 
L 1650 2881 
L 1084 2881 
L 1084 941 
Q 1084 700 1114 631 
Q 1144 563 1211 522 
Q 1278 481 1403 481 
Q 1497 481 1650 503 
z
" transform="scale(0.015625)"/>
      <path id="ArialMT-3d" d="M 3381 2694 
L 356 2694 
L 356 3219 
L 3381 3219 
L 3381 2694 
z
M 3381 1303 
L 356 1303 
L 356 1828 
L 3381 1828 
L 3381 1303 
z
" transform="scale(0.015625)"/>
      <path id="ArialMT-4c" d="M 469 0 
L 469 4581 
L 1075 4581 
L 1075 541 
L 3331 541 
L 3331 0 
L 469 0 
z
" transform="scale(0.015625)"/>
      <path id="ArialMT-6e" d="M 422 0 
L 422 3319 
L 928 3319 
L 928 2847 
Q 1294 3394 1984 3394 
Q 2284 3394 2536 3286 
Q 2788 3178 2913 3003 
Q 3038 2828 3088 2588 
Q 3119 2431 3119 2041 
L 3119 0 
L 2556 0 
L 2556 2019 
Q 2556 2363 2490 2533 
Q 2425 2703 2258 2804 
Q 2091 2906 1866 2906 
Q 1506 2906 1245 2678 
Q 984 2450 984 1813 
L 984 0 
L 422 0 
z
" transform="scale(0.015625)"/>
      <path id="ArialMT-64" d="M 2575 0 
L 2575 419 
Q 2259 -75 1647 -75 
Q 1250 -75 917 144 
Q 584 363 401 755 
Q 219 1147 219 1656 
Q 219 2153 384 2558 
Q 550 2963 881 3178 
Q 1213 3394 1622 3394 
Q 1922 3394 2156 3267 
Q 2391 3141 2538 2938 
L 2538 4581 
L 3097 4581 
L 3097 0 
L 2575 0 
z
M 797 1656 
Q 797 1019 1065 703 
Q 1334 388 1700 388 
Q 2069 388 2326 689 
Q 2584 991 2584 1609 
Q 2584 2291 2321 2609 
Q 2059 2928 1675 2928 
Q 1300 2928 1048 2622 
Q 797 2316 797 1656 
z
" transform="scale(0.015625)"/>
      <path id="ArialMT-6b" d="M 425 0 
L 425 4581 
L 988 4581 
L 988 1969 
L 2319 3319 
L 3047 3319 
L 1778 2088 
L 3175 0 
L 2481 0 
L 1384 1697 
L 988 1316 
L 988 0 
L 425 0 
z
" transform="scale(0.015625)"/>
     </defs>
     <use xlink:href="#ArialMT-41"/>
     <use xlink:href="#ArialMT-74" x="66.699219"/>
     <use xlink:href="#ArialMT-74" x="94.482422"/>
     <use xlink:href="#ArialMT-72" x="122.265625"/>
     <use xlink:href="#ArialMT-69" x="155.566406"/>
     <use xlink:href="#ArialMT-62" x="177.783203"/>
     <use xlink:href="#ArialMT-75" x="233.398438"/>
     <use xlink:href="#ArialMT-74" x="289.013672"/>
     <use xlink:href="#ArialMT-65" x="316.796875"/>
     <use xlink:href="#ArialMT-20" x="372.412109"/>
     <use xlink:href="#ArialMT-3d" x="400.195312"/>
     <use xlink:href="#ArialMT-20" x="458.59375"/>
     <use xlink:href="#ArialMT-4c" x="486.376953"/>
     <use xlink:href="#ArialMT-61" x="541.992188"/>
     <use xlink:href="#ArialMT-6e" x="597.607422"/>
     <use xlink:href="#ArialMT-64" x="653.222656"/>
     <use xlink:href="#ArialMT-6c" x="708.837891"/>
     <use xlink:href="#ArialMT-6f" x="731.054688"/>
     <use xlink:href="#ArialMT-63" x="786.669922"/>
     <use xlink:href="#ArialMT-6b" x="836.669922"/>
     <use xlink:href="#ArialMT-65" x="886.669922"/>
     <use xlink:href="#ArialMT-64" x="942.285156"/>
    </g>
   </g>
  </g>
  <g id="axes_2">
   <g id="patch_5">
    <path d="M 189.573695 122.292 
L 321.980331 122.292 
L 321.980331 22.848 
L 189.573695 22.848 
z
" style="fill: #eaeaf2"/>
   </g>
   <g id="matplotlib.axis_3">
    <g id="xtick_4">
     <g id="line2d_13">
      <path d="M 193.135655 122.292 
L 193.135655 22.848 
" clip-path="url(#pae6bfbe956)" style="fill: none; stroke: #ffffff; stroke-linecap: round"/>
     </g>
     <g id="text_12">
      <!-- 0 -->
      <g style="fill: #262626" transform="translate(190.688842 138.090875) scale(0.088 -0.088)">
       <use xlink:href="#ArialMT-30"/>
      </g>
     </g>
    </g>
    <g id="xtick_5">
     <g id="line2d_14">
      <path d="M 242.266132 122.292 
L 242.266132 22.848 
" clip-path="url(#pae6bfbe956)" style="fill: none; stroke: #ffffff; stroke-linecap: round"/>
     </g>
     <g id="text_13">
      <!-- 20 -->
      <g style="fill: #262626" transform="translate(237.372507 138.090875) scale(0.088 -0.088)">
       <use xlink:href="#ArialMT-32"/>
       <use xlink:href="#ArialMT-30" x="55.615234"/>
      </g>
     </g>
    </g>
    <g id="xtick_6">
     <g id="line2d_15">
      <path d="M 291.396609 122.292 
L 291.396609 22.848 
" clip-path="url(#pae6bfbe956)" style="fill: none; stroke: #ffffff; stroke-linecap: round"/>
     </g>
     <g id="text_14">
      <!-- 40 -->
      <g style="fill: #262626" transform="translate(286.502984 138.090875) scale(0.088 -0.088)">
       <use xlink:href="#ArialMT-34"/>
       <use xlink:href="#ArialMT-30" x="55.615234"/>
      </g>
     </g>
    </g>
    <g id="text_15">
     <!-- Frame -->
     <g style="fill: #262626" transform="translate(241.910263 150.711375) scale(0.096 -0.096)">
      <use xlink:href="#ArialMT-46"/>
      <use xlink:href="#ArialMT-72" x="61.083984"/>
      <use xlink:href="#ArialMT-61" x="94.384766"/>
      <use xlink:href="#ArialMT-6d" x="150"/>
      <use xlink:href="#ArialMT-65" x="233.300781"/>
     </g>
    </g>
   </g>
   <g id="matplotlib.axis_4">
    <g id="ytick_6">
     <g id="line2d_16">
      <path d="M 189.573695 117.771818 
L 321.980331 117.771818 
" clip-path="url(#pae6bfbe956)" style="fill: none; stroke: #ffffff; stroke-linecap: round"/>
     </g>
    </g>
    <g id="ytick_7">
     <g id="line2d_17">
      <path d="M 189.573695 95.170909 
L 321.980331 95.170909 
" clip-path="url(#pae6bfbe956)" style="fill: none; stroke: #ffffff; stroke-linecap: round"/>
     </g>
    </g>
    <g id="ytick_8">
     <g id="line2d_18">
      <path d="M 189.573695 72.57 
L 321.980331 72.57 
" clip-path="url(#pae6bfbe956)" style="fill: none; stroke: #ffffff; stroke-linecap: round"/>
     </g>
    </g>
    <g id="ytick_9">
     <g id="line2d_19">
      <path d="M 189.573695 49.969091 
L 321.980331 49.969091 
" clip-path="url(#pae6bfbe956)" style="fill: none; stroke: #ffffff; stroke-linecap: round"/>
     </g>
    </g>
    <g id="ytick_10">
     <g id="line2d_20">
      <path d="M 189.573695 27.368182 
L 321.980331 27.368182 
" clip-path="url(#pae6bfbe956)" style="fill: none; stroke: #ffffff; stroke-linecap: round"/>
     </g>
    </g>
   </g>
   <g id="PolyCollection_5"/>
   <g id="PolyCollection_6"/>
   <g id="PolyCollection_7"/>
   <g id="PolyCollection_8"/>
   <g id="line2d_21">
    <path d="M 195.592179 117.771818 
L 198.048703 117.771818 
L 200.505226 117.771818 
L 202.96175 117.771818 
L 205.418274 117.771818 
L 207.874798 117.771818 
L 210.331322 117.771818 
L 212.787846 117.771818 
L 215.24437 117.771818 
L 217.700893 117.771818 
L 220.157417 117.771818 
L 222.613941 117.771818 
L 225.070465 117.771818 
L 227.526989 117.771818 
L 229.983513 117.771818 
L 232.440037 117.771818 
L 234.89656 117.771818 
L 237.353084 117.771818 
L 239.809608 117.771818 
L 242.266132 117.771818 
L 244.722656 117.771818 
L 247.17918 117.771818 
L 249.635704 117.771818 
L 252.092228 117.771818 
L 254.548751 117.771818 
L 257.005275 117.771818 
L 259.461799 117.771818 
L 261.918323 117.771818 
L 264.374847 117.771818 
L 266.831371 117.771818 
L 269.287895 117.771818 
L 271.744418 117.771818 
L 274.200942 117.771818 
L 276.657466 117.771818 
L 279.11399 117.771818 
L 281.570514 117.771818 
L 284.027038 117.771818 
L 286.483562 117.771818 
L 288.940085 117.771818 
L 291.396609 117.771818 
L 293.853133 117.771818 
L 296.309657 117.771818 
L 298.766181 117.771818 
L 301.222705 117.771818 
L 303.679229 117.771818 
L 306.135753 117.771818 
L 308.592276 117.771818 
L 311.0488 117.771818 
L 313.505324 117.771818 
L 315.961848 117.771818 
" clip-path="url(#pae6bfbe956)" style="fill: none; stroke: #023eff; stroke-width: 1.5; stroke-linecap: round"/>
   </g>
   <g id="line2d_22">
    <path d="M 195.592179 27.368182 
L 198.048703 27.368182 
L 200.505226 27.368182 
L 202.96175 27.368182 
L 205.418274 27.368182 
L 207.874798 27.368182 
L 210.331322 27.368182 
L 212.787846 27.368182 
L 215.24437 27.368182 
L 217.700893 27.368182 
L 220.157417 27.368182 
L 222.613941 27.368182 
L 225.070465 27.368182 
L 227.526989 27.368182 
L 229.983513 27.368182 
L 232.440037 27.368182 
L 234.89656 27.368182 
L 237.353084 27.368182 
L 239.809608 27.368182 
L 242.266132 27.368182 
L 244.722656 27.368182 
L 247.17918 27.368182 
L 249.635704 45.448909 
L 252.092228 45.448909 
L 254.548751 45.448909 
L 257.005275 45.448909 
L 259.461799 45.448909 
L 261.918323 27.368182 
L 264.374847 27.368182 
L 266.831371 27.368182 
L 269.287895 27.368182 
L 271.744418 27.368182 
L 274.200942 27.368182 
L 276.657466 27.368182 
L 279.11399 27.368182 
L 281.570514 27.368182 
L 284.027038 27.368182 
L 286.483562 27.368182 
L 288.940085 27.368182 
L 291.396609 27.368182 
L 293.853133 27.368182 
L 296.309657 27.368182 
L 298.766181 27.368182 
L 301.222705 27.368182 
L 303.679229 27.368182 
L 306.135753 27.368182 
L 308.592276 27.368182 
L 311.0488 27.368182 
L 313.505324 45.448909 
L 315.961848 45.448909 
" clip-path="url(#pae6bfbe956)" style="fill: none; stroke: #ff7c00; stroke-width: 1.5; stroke-linecap: round"/>
   </g>
   <g id="line2d_23">
    <path d="M 195.592179 81.610364 
L 198.048703 81.610364 
L 200.505226 81.610364 
L 202.96175 81.610364 
L 205.418274 81.610364 
L 207.874798 99.691091 
L 210.331322 99.691091 
L 212.787846 99.691091 
L 215.24437 99.691091 
L 217.700893 99.691091 
L 220.157417 99.691091 
L 222.613941 99.691091 
L 225.070465 99.691091 
L 227.526989 99.691091 
L 229.983513 99.691091 
L 232.440037 99.691091 
L 234.89656 99.691091 
L 237.353084 99.691091 
L 239.809608 99.691091 
L 242.266132 81.610364 
L 244.722656 81.610364 
L 247.17918 81.610364 
L 249.635704 81.610364 
L 252.092228 81.610364 
L 254.548751 81.610364 
L 257.005275 81.610364 
L 259.461799 81.610364 
L 261.918323 81.610364 
L 264.374847 81.610364 
L 266.831371 81.610364 
L 269.287895 81.610364 
L 271.744418 99.691091 
L 274.200942 99.691091 
L 276.657466 99.691091 
L 279.11399 99.691091 
L 281.570514 99.691091 
L 284.027038 99.691091 
L 286.483562 99.691091 
L 288.940085 99.691091 
L 291.396609 99.691091 
L 293.853133 99.691091 
L 296.309657 99.691091 
L 298.766181 99.691091 
L 301.222705 99.691091 
L 303.679229 99.691091 
L 306.135753 81.610364 
L 308.592276 81.610364 
L 311.0488 81.610364 
L 313.505324 81.610364 
L 315.961848 81.610364 
" clip-path="url(#pae6bfbe956)" style="fill: none; stroke: #1ac938; stroke-width: 1.5; stroke-linecap: round"/>
   </g>
   <g id="line2d_24">
    <path d="M 195.592179 45.448909 
L 198.048703 45.448909 
L 200.505226 45.448909 
L 202.96175 45.448909 
L 205.418274 45.448909 
L 207.874798 63.529636 
L 210.331322 63.529636 
L 212.787846 63.529636 
L 215.24437 63.529636 
L 217.700893 63.529636 
L 220.157417 63.529636 
L 222.613941 63.529636 
L 225.070465 99.691091 
L 227.526989 99.691091 
L 229.983513 99.691091 
L 232.440037 63.529636 
L 234.89656 63.529636 
L 237.353084 63.529636 
L 239.809608 63.529636 
L 242.266132 27.368182 
L 244.722656 27.368182 
L 247.17918 27.368182 
L 249.635704 27.368182 
L 252.092228 27.368182 
L 254.548751 27.368182 
L 257.005275 27.368182 
L 259.461799 27.368182 
L 261.918323 45.448909 
L 264.374847 45.448909 
L 266.831371 45.448909 
L 269.287895 45.448909 
L 271.744418 63.529636 
L 274.200942 63.529636 
L 276.657466 63.529636 
L 279.11399 63.529636 
L 281.570514 63.529636 
L 284.027038 63.529636 
L 286.483562 63.529636 
L 288.940085 99.691091 
L 291.396609 99.691091 
L 293.853133 99.691091 
L 296.309657 63.529636 
L 298.766181 63.529636 
L 301.222705 63.529636 
L 303.679229 63.529636 
L 306.135753 27.368182 
L 308.592276 27.368182 
L 311.0488 27.368182 
L 313.505324 27.368182 
L 315.961848 27.368182 
" clip-path="url(#pae6bfbe956)" style="fill: none; stroke: #e8000b; stroke-width: 1.5; stroke-linecap: round"/>
   </g>
   <g id="patch_6">
    <path d="M 189.573695 122.292 
L 189.573695 22.848 
" style="fill: none; stroke: #ffffff; stroke-width: 1.25; stroke-linejoin: miter; stroke-linecap: square"/>
   </g>
   <g id="patch_7">
    <path d="M 189.573695 122.292 
L 321.980331 122.292 
" style="fill: none; stroke: #ffffff; stroke-width: 1.25; stroke-linejoin: miter; stroke-linecap: square"/>
   </g>
   <g id="text_16">
    <!-- Attribute = Coastal -->
    <g style="fill: #262626" transform="translate(216.157513 16.848) scale(0.096 -0.096)">
     <defs>
      <path id="ArialMT-43" d="M 3763 1606 
L 4369 1453 
Q 4178 706 3683 314 
Q 3188 -78 2472 -78 
Q 1731 -78 1267 223 
Q 803 525 561 1097 
Q 319 1669 319 2325 
Q 319 3041 592 3573 
Q 866 4106 1370 4382 
Q 1875 4659 2481 4659 
Q 3169 4659 3637 4309 
Q 4106 3959 4291 3325 
L 3694 3184 
Q 3534 3684 3231 3912 
Q 2928 4141 2469 4141 
Q 1941 4141 1586 3887 
Q 1231 3634 1087 3207 
Q 944 2781 944 2328 
Q 944 1744 1114 1308 
Q 1284 872 1643 656 
Q 2003 441 2422 441 
Q 2931 441 3284 734 
Q 3638 1028 3763 1606 
z
" transform="scale(0.015625)"/>
     </defs>
     <use xlink:href="#ArialMT-41"/>
     <use xlink:href="#ArialMT-74" x="66.699219"/>
     <use xlink:href="#ArialMT-74" x="94.482422"/>
     <use xlink:href="#ArialMT-72" x="122.265625"/>
     <use xlink:href="#ArialMT-69" x="155.566406"/>
     <use xlink:href="#ArialMT-62" x="177.783203"/>
     <use xlink:href="#ArialMT-75" x="233.398438"/>
     <use xlink:href="#ArialMT-74" x="289.013672"/>
     <use xlink:href="#ArialMT-65" x="316.796875"/>
     <use xlink:href="#ArialMT-20" x="372.412109"/>
     <use xlink:href="#ArialMT-3d" x="400.195312"/>
     <use xlink:href="#ArialMT-20" x="458.59375"/>
     <use xlink:href="#ArialMT-43" x="486.376953"/>
     <use xlink:href="#ArialMT-6f" x="558.59375"/>
     <use xlink:href="#ArialMT-61" x="614.208984"/>
     <use xlink:href="#ArialMT-73" x="669.824219"/>
     <use xlink:href="#ArialMT-74" x="719.824219"/>
     <use xlink:href="#ArialMT-61" x="747.607422"/>
     <use xlink:href="#ArialMT-6c" x="803.222656"/>
    </g>
   </g>
  </g>
  <g id="axes_3">
   <g id="patch_8">
    <path d="M 331.964564 122.292 
L 464.3712 122.292 
L 464.3712 22.848 
L 331.964564 22.848 
z
" style="fill: #eaeaf2"/>
   </g>
   <g id="matplotlib.axis_5">
    <g id="xtick_7">
     <g id="line2d_25">
      <path d="M 335.526523 122.292 
L 335.526523 22.848 
" clip-path="url(#p12c0da8fb4)" style="fill: none; stroke: #ffffff; stroke-linecap: round"/>
     </g>
     <g id="text_17">
      <!-- 0 -->
      <g style="fill: #262626" transform="translate(333.079711 138.090875) scale(0.088 -0.088)">
       <use xlink:href="#ArialMT-30"/>
      </g>
     </g>
    </g>
    <g id="xtick_8">
     <g id="line2d_26">
      <path d="M 384.657001 122.292 
L 384.657001 22.848 
" clip-path="url(#p12c0da8fb4)" style="fill: none; stroke: #ffffff; stroke-linecap: round"/>
     </g>
     <g id="text_18">
      <!-- 20 -->
      <g style="fill: #262626" transform="translate(379.763376 138.090875) scale(0.088 -0.088)">
       <use xlink:href="#ArialMT-32"/>
       <use xlink:href="#ArialMT-30" x="55.615234"/>
      </g>
     </g>
    </g>
    <g id="xtick_9">
     <g id="line2d_27">
      <path d="M 433.787478 122.292 
L 433.787478 22.848 
" clip-path="url(#p12c0da8fb4)" style="fill: none; stroke: #ffffff; stroke-linecap: round"/>
     </g>
     <g id="text_19">
      <!-- 40 -->
      <g style="fill: #262626" transform="translate(428.893853 138.090875) scale(0.088 -0.088)">
       <use xlink:href="#ArialMT-34"/>
       <use xlink:href="#ArialMT-30" x="55.615234"/>
      </g>
     </g>
    </g>
    <g id="text_20">
     <!-- Frame -->
     <g style="fill: #262626" transform="translate(384.301132 150.711375) scale(0.096 -0.096)">
      <use xlink:href="#ArialMT-46"/>
      <use xlink:href="#ArialMT-72" x="61.083984"/>
      <use xlink:href="#ArialMT-61" x="94.384766"/>
      <use xlink:href="#ArialMT-6d" x="150"/>
      <use xlink:href="#ArialMT-65" x="233.300781"/>
     </g>
    </g>
   </g>
   <g id="matplotlib.axis_6">
    <g id="ytick_11">
     <g id="line2d_28">
      <path d="M 331.964564 117.771818 
L 464.3712 117.771818 
" clip-path="url(#p12c0da8fb4)" style="fill: none; stroke: #ffffff; stroke-linecap: round"/>
     </g>
    </g>
    <g id="ytick_12">
     <g id="line2d_29">
      <path d="M 331.964564 95.170909 
L 464.3712 95.170909 
" clip-path="url(#p12c0da8fb4)" style="fill: none; stroke: #ffffff; stroke-linecap: round"/>
     </g>
    </g>
    <g id="ytick_13">
     <g id="line2d_30">
      <path d="M 331.964564 72.57 
L 464.3712 72.57 
" clip-path="url(#p12c0da8fb4)" style="fill: none; stroke: #ffffff; stroke-linecap: round"/>
     </g>
    </g>
    <g id="ytick_14">
     <g id="line2d_31">
      <path d="M 331.964564 49.969091 
L 464.3712 49.969091 
" clip-path="url(#p12c0da8fb4)" style="fill: none; stroke: #ffffff; stroke-linecap: round"/>
     </g>
    </g>
    <g id="ytick_15">
     <g id="line2d_32">
      <path d="M 331.964564 27.368182 
L 464.3712 27.368182 
" clip-path="url(#p12c0da8fb4)" style="fill: none; stroke: #ffffff; stroke-linecap: round"/>
     </g>
    </g>
   </g>
   <g id="PolyCollection_9"/>
   <g id="PolyCollection_10"/>
   <g id="PolyCollection_11"/>
   <g id="PolyCollection_12"/>
   <g id="line2d_33">
    <path d="M 352.72219 117.771818 
L 355.178714 117.771818 
L 357.635238 117.771818 
L 360.091762 117.771818 
L 362.548286 117.771818 
L 365.00481 117.771818 
L 367.461334 117.771818 
L 369.917857 117.771818 
L 372.374381 117.771818 
L 374.830905 117.771818 
L 377.287429 117.771818 
L 379.743953 117.771818 
L 382.200477 117.771818 
L 384.657001 117.771818 
L 387.113524 117.771818 
L 389.570048 117.771818 
L 392.026572 117.771818 
L 394.483096 117.771818 
L 396.93962 117.771818 
L 399.396144 117.771818 
L 401.852668 117.771818 
L 404.309192 117.771818 
L 406.765715 117.771818 
L 409.222239 117.771818 
L 411.678763 117.771818 
L 414.135287 117.771818 
L 416.591811 117.771818 
L 419.048335 117.771818 
L 421.504859 117.771818 
L 423.961382 117.771818 
L 426.417906 117.771818 
L 428.87443 117.771818 
L 431.330954 117.771818 
L 433.787478 117.771818 
L 436.244002 117.771818 
L 438.700526 117.771818 
L 441.157049 117.771818 
L 443.613573 117.771818 
L 446.070097 117.771818 
L 448.526621 117.771818 
L 450.983145 117.771818 
L 453.439669 117.771818 
L 455.896193 117.771818 
L 458.352717 117.771818 
" clip-path="url(#p12c0da8fb4)" style="fill: none; stroke: #023eff; stroke-width: 1.5; stroke-linecap: round"/>
   </g>
   <g id="line2d_34">
    <path d="M 352.72219 117.771818 
L 355.178714 117.771818 
L 357.635238 117.771818 
L 360.091762 117.771818 
L 362.548286 117.771818 
L 365.00481 117.771818 
L 367.461334 117.771818 
L 369.917857 117.771818 
L 372.374381 117.771818 
L 374.830905 117.771818 
L 377.287429 117.771818 
L 379.743953 117.771818 
L 382.200477 117.771818 
L 384.657001 117.771818 
L 387.113524 117.771818 
L 389.570048 117.771818 
L 392.026572 117.771818 
L 394.483096 117.771818 
L 396.93962 117.771818 
L 399.396144 117.771818 
L 401.852668 117.771818 
L 404.309192 117.771818 
L 406.765715 117.771818 
L 409.222239 117.771818 
L 411.678763 117.771818 
L 414.135287 117.771818 
L 416.591811 117.771818 
L 419.048335 117.771818 
L 421.504859 117.771818 
L 423.961382 117.771818 
L 426.417906 117.771818 
L 428.87443 117.771818 
L 431.330954 117.771818 
L 433.787478 117.771818 
L 436.244002 117.771818 
L 438.700526 117.771818 
L 441.157049 117.771818 
L 443.613573 117.771818 
L 446.070097 117.771818 
L 448.526621 117.771818 
L 450.983145 117.771818 
L 453.439669 117.771818 
L 455.896193 117.771818 
L 458.352717 117.771818 
" clip-path="url(#p12c0da8fb4)" style="fill: none; stroke: #ff7c00; stroke-width: 1.5; stroke-linecap: round"/>
   </g>
   <g id="line2d_35">
    <path d="M 337.983047 99.691091 
L 340.439571 99.691091 
L 342.896095 99.691091 
L 345.352619 99.691091 
L 347.809143 81.610364 
L 350.265667 81.610364 
L 352.72219 81.610364 
L 355.178714 81.610364 
L 357.635238 81.610364 
L 360.091762 81.610364 
L 362.548286 81.610364 
L 365.00481 81.610364 
L 367.461334 81.610364 
L 369.917857 81.610364 
L 372.374381 81.610364 
L 374.830905 81.610364 
L 377.287429 81.610364 
L 379.743953 81.610364 
L 382.200477 81.610364 
L 384.657001 81.610364 
L 387.113524 81.610364 
L 389.570048 81.610364 
L 392.026572 81.610364 
L 394.483096 81.610364 
L 396.93962 81.610364 
L 399.396144 99.691091 
L 401.852668 99.691091 
L 404.309192 99.691091 
L 406.765715 99.691091 
L 409.222239 99.691091 
L 411.678763 81.610364 
L 414.135287 81.610364 
L 416.591811 81.610364 
L 419.048335 81.610364 
L 421.504859 81.610364 
L 423.961382 81.610364 
L 426.417906 81.610364 
L 428.87443 81.610364 
L 431.330954 81.610364 
L 433.787478 81.610364 
L 436.244002 81.610364 
L 438.700526 81.610364 
L 441.157049 81.610364 
L 443.613573 81.610364 
L 446.070097 81.610364 
L 448.526621 81.610364 
L 450.983145 81.610364 
L 453.439669 81.610364 
L 455.896193 81.610364 
L 458.352717 81.610364 
" clip-path="url(#p12c0da8fb4)" style="fill: none; stroke: #1ac938; stroke-width: 1.5; stroke-linecap: round"/>
   </g>
   <g id="line2d_36">
    <path d="M 337.983047 63.529636 
L 340.439571 63.529636 
L 342.896095 63.529636 
L 345.352619 117.771818 
L 347.809143 117.771818 
L 350.265667 117.771818 
L 352.72219 117.771818 
L 355.178714 117.771818 
L 357.635238 81.610364 
L 360.091762 81.610364 
L 362.548286 81.610364 
L 365.00481 63.529636 
L 367.461334 63.529636 
L 369.917857 63.529636 
L 372.374381 63.529636 
L 374.830905 63.529636 
L 377.287429 63.529636 
L 379.743953 63.529636 
L 382.200477 63.529636 
L 384.657001 63.529636 
L 387.113524 63.529636 
L 389.570048 63.529636 
L 392.026572 63.529636 
L 394.483096 81.610364 
L 396.93962 81.610364 
L 399.396144 63.529636 
L 401.852668 63.529636 
L 404.309192 63.529636 
L 406.765715 63.529636 
L 409.222239 117.771818 
L 411.678763 117.771818 
L 414.135287 117.771818 
L 416.591811 117.771818 
L 419.048335 117.771818 
L 421.504859 81.610364 
L 423.961382 81.610364 
L 426.417906 81.610364 
L 428.87443 63.529636 
L 431.330954 63.529636 
L 433.787478 63.529636 
L 436.244002 63.529636 
L 438.700526 63.529636 
L 441.157049 63.529636 
L 443.613573 63.529636 
L 446.070097 63.529636 
L 448.526621 63.529636 
L 450.983145 63.529636 
L 453.439669 63.529636 
L 455.896193 63.529636 
L 458.352717 81.610364 
" clip-path="url(#p12c0da8fb4)" style="fill: none; stroke: #e8000b; stroke-width: 1.5; stroke-linecap: round"/>
   </g>
   <g id="patch_9">
    <path d="M 331.964564 122.292 
L 331.964564 22.848 
" style="fill: none; stroke: #ffffff; stroke-width: 1.25; stroke-linejoin: miter; stroke-linecap: square"/>
   </g>
   <g id="patch_10">
    <path d="M 331.964564 122.292 
L 464.3712 122.292 
" style="fill: none; stroke: #ffffff; stroke-width: 1.25; stroke-linejoin: miter; stroke-linecap: square"/>
   </g>
   <g id="text_21">
    <!-- Attribute = Insular -->
    <g style="fill: #262626" transform="translate(360.416632 16.848) scale(0.096 -0.096)">
     <defs>
      <path id="ArialMT-49" d="M 597 0 
L 597 4581 
L 1203 4581 
L 1203 0 
L 597 0 
z
" transform="scale(0.015625)"/>
     </defs>
     <use xlink:href="#ArialMT-41"/>
     <use xlink:href="#ArialMT-74" x="66.699219"/>
     <use xlink:href="#ArialMT-74" x="94.482422"/>
     <use xlink:href="#ArialMT-72" x="122.265625"/>
     <use xlink:href="#ArialMT-69" x="155.566406"/>
     <use xlink:href="#ArialMT-62" x="177.783203"/>
     <use xlink:href="#ArialMT-75" x="233.398438"/>
     <use xlink:href="#ArialMT-74" x="289.013672"/>
     <use xlink:href="#ArialMT-65" x="316.796875"/>
     <use xlink:href="#ArialMT-20" x="372.412109"/>
     <use xlink:href="#ArialMT-3d" x="400.195312"/>
     <use xlink:href="#ArialMT-20" x="458.59375"/>
     <use xlink:href="#ArialMT-49" x="486.376953"/>
     <use xlink:href="#ArialMT-6e" x="514.160156"/>
     <use xlink:href="#ArialMT-73" x="569.775391"/>
     <use xlink:href="#ArialMT-75" x="619.775391"/>
     <use xlink:href="#ArialMT-6c" x="675.390625"/>
     <use xlink:href="#ArialMT-61" x="697.607422"/>
     <use xlink:href="#ArialMT-72" x="753.222656"/>
    </g>
   </g>
  </g>
  <g id="legend_1">
   <g id="text_22">
    <!-- Direction -->
    <g style="fill: #262626" transform="translate(490.04325 58.586) scale(0.096 -0.096)">
     <defs>
      <path id="ArialMT-44" d="M 494 0 
L 494 4581 
L 2072 4581 
Q 2606 4581 2888 4516 
Q 3281 4425 3559 4188 
Q 3922 3881 4101 3404 
Q 4281 2928 4281 2316 
Q 4281 1794 4159 1391 
Q 4038 988 3847 723 
Q 3656 459 3429 307 
Q 3203 156 2883 78 
Q 2563 0 2147 0 
L 494 0 
z
M 1100 541 
L 2078 541 
Q 2531 541 2789 625 
Q 3047 709 3200 863 
Q 3416 1078 3536 1442 
Q 3656 1806 3656 2325 
Q 3656 3044 3420 3430 
Q 3184 3816 2847 3947 
Q 2603 4041 2063 4041 
L 1100 4041 
L 1100 541 
z
" transform="scale(0.015625)"/>
     </defs>
     <use xlink:href="#ArialMT-44"/>
     <use xlink:href="#ArialMT-69" x="72.216797"/>
     <use xlink:href="#ArialMT-72" x="94.433594"/>
     <use xlink:href="#ArialMT-65" x="127.734375"/>
     <use xlink:href="#ArialMT-63" x="183.349609"/>
     <use xlink:href="#ArialMT-74" x="233.349609"/>
     <use xlink:href="#ArialMT-69" x="261.132812"/>
     <use xlink:href="#ArialMT-6f" x="283.349609"/>
     <use xlink:href="#ArialMT-6e" x="338.964844"/>
    </g>
   </g>
   <g id="line2d_37">
    <path d="M 485.1645 68.112875 
L 493.9645 68.112875 
L 502.7645 68.112875 
" style="fill: none; stroke: #023eff; stroke-width: 1.5; stroke-linecap: round"/>
   </g>
   <g id="text_23">
    <!-- East -->
    <g style="fill: #262626" transform="translate(509.8045 71.192875) scale(0.088 -0.088)">
     <defs>
      <path id="ArialMT-45" d="M 506 0 
L 506 4581 
L 3819 4581 
L 3819 4041 
L 1113 4041 
L 1113 2638 
L 3647 2638 
L 3647 2100 
L 1113 2100 
L 1113 541 
L 3925 541 
L 3925 0 
L 506 0 
z
" transform="scale(0.015625)"/>
     </defs>
     <use xlink:href="#ArialMT-45"/>
     <use xlink:href="#ArialMT-61" x="66.699219"/>
     <use xlink:href="#ArialMT-73" x="122.314453"/>
     <use xlink:href="#ArialMT-74" x="172.314453"/>
    </g>
   </g>
   <g id="line2d_38">
    <path d="M 485.1645 80.56075 
L 493.9645 80.56075 
L 502.7645 80.56075 
" style="fill: none; stroke: #ff7c00; stroke-width: 1.5; stroke-linecap: round"/>
   </g>
   <g id="text_24">
    <!-- West -->
    <g style="fill: #262626" transform="translate(509.8045 83.64075) scale(0.088 -0.088)">
     <defs>
      <path id="ArialMT-57" d="M 1294 0 
L 78 4581 
L 700 4581 
L 1397 1578 
Q 1509 1106 1591 641 
Q 1766 1375 1797 1488 
L 2669 4581 
L 3400 4581 
L 4056 2263 
Q 4303 1400 4413 641 
Q 4500 1075 4641 1638 
L 5359 4581 
L 5969 4581 
L 4713 0 
L 4128 0 
L 3163 3491 
Q 3041 3928 3019 4028 
Q 2947 3713 2884 3491 
L 1913 0 
L 1294 0 
z
" transform="scale(0.015625)"/>
     </defs>
     <use xlink:href="#ArialMT-57"/>
     <use xlink:href="#ArialMT-65" x="92.634766"/>
     <use xlink:href="#ArialMT-73" x="148.25"/>
     <use xlink:href="#ArialMT-74" x="198.25"/>
    </g>
   </g>
   <g id="line2d_39">
    <path d="M 485.1645 93.008625 
L 493.9645 93.008625 
L 502.7645 93.008625 
" style="fill: none; stroke: #1ac938; stroke-width: 1.5; stroke-linecap: round"/>
   </g>
   <g id="text_25">
    <!-- North -->
    <g style="fill: #262626" transform="translate(509.8045 96.088625) scale(0.088 -0.088)">
     <defs>
      <path id="ArialMT-4e" d="M 488 0 
L 488 4581 
L 1109 4581 
L 3516 984 
L 3516 4581 
L 4097 4581 
L 4097 0 
L 3475 0 
L 1069 3600 
L 1069 0 
L 488 0 
z
" transform="scale(0.015625)"/>
      <path id="ArialMT-68" d="M 422 0 
L 422 4581 
L 984 4581 
L 984 2938 
Q 1378 3394 1978 3394 
Q 2347 3394 2619 3248 
Q 2891 3103 3008 2847 
Q 3125 2591 3125 2103 
L 3125 0 
L 2563 0 
L 2563 2103 
Q 2563 2525 2380 2717 
Q 2197 2909 1863 2909 
Q 1613 2909 1392 2779 
Q 1172 2650 1078 2428 
Q 984 2206 984 1816 
L 984 0 
L 422 0 
z
" transform="scale(0.015625)"/>
     </defs>
     <use xlink:href="#ArialMT-4e"/>
     <use xlink:href="#ArialMT-6f" x="72.216797"/>
     <use xlink:href="#ArialMT-72" x="127.832031"/>
     <use xlink:href="#ArialMT-74" x="161.132812"/>
     <use xlink:href="#ArialMT-68" x="188.916016"/>
    </g>
   </g>
   <g id="line2d_40">
    <path d="M 485.1645 105.4565 
L 493.9645 105.4565 
L 502.7645 105.4565 
" style="fill: none; stroke: #e8000b; stroke-width: 1.5; stroke-linecap: round"/>
   </g>
   <g id="text_26">
    <!-- South -->
    <g style="fill: #262626" transform="translate(509.8045 108.5365) scale(0.088 -0.088)">
     <defs>
      <path id="ArialMT-53" d="M 288 1472 
L 859 1522 
Q 900 1178 1048 958 
Q 1197 738 1509 602 
Q 1822 466 2213 466 
Q 2559 466 2825 569 
Q 3091 672 3220 851 
Q 3350 1031 3350 1244 
Q 3350 1459 3225 1620 
Q 3100 1781 2813 1891 
Q 2628 1963 1997 2114 
Q 1366 2266 1113 2400 
Q 784 2572 623 2826 
Q 463 3081 463 3397 
Q 463 3744 659 4045 
Q 856 4347 1234 4503 
Q 1613 4659 2075 4659 
Q 2584 4659 2973 4495 
Q 3363 4331 3572 4012 
Q 3781 3694 3797 3291 
L 3216 3247 
Q 3169 3681 2898 3903 
Q 2628 4125 2100 4125 
Q 1550 4125 1298 3923 
Q 1047 3722 1047 3438 
Q 1047 3191 1225 3031 
Q 1400 2872 2139 2705 
Q 2878 2538 3153 2413 
Q 3553 2228 3743 1945 
Q 3934 1663 3934 1294 
Q 3934 928 3725 604 
Q 3516 281 3123 101 
Q 2731 -78 2241 -78 
Q 1619 -78 1198 103 
Q 778 284 539 648 
Q 300 1013 288 1472 
z
" transform="scale(0.015625)"/>
     </defs>
     <use xlink:href="#ArialMT-53"/>
     <use xlink:href="#ArialMT-6f" x="66.699219"/>
     <use xlink:href="#ArialMT-75" x="122.314453"/>
     <use xlink:href="#ArialMT-74" x="177.929688"/>
     <use xlink:href="#ArialMT-68" x="205.712891"/>
    </g>
   </g>
  </g>
 </g>
 <defs>
  <clipPath id="p601910b9af">
   <rect x="47.182827" y="22.848" width="132.406636" height="99.444"/>
  </clipPath>
  <clipPath id="pae6bfbe956">
   <rect x="189.573695" y="22.848" width="132.406636" height="99.444"/>
  </clipPath>
  <clipPath id="p12c0da8fb4">
   <rect x="331.964564" y="22.848" width="132.406636" height="99.444"/>
  </clipPath>
 </defs>
</svg>
