<?xml version="1.0" encoding="utf-8" standalone="no"?>
<!DOCTYPE svg PUBLIC "-//W3C//DTD SVG 1.1//EN"
  "http://www.w3.org/Graphics/SVG/1.1/DTD/svg11.dtd">
<svg xmlns:xlink="http://www.w3.org/1999/xlink" width="216.72pt" height="810pt" viewBox="0 0 216.72 810" xmlns="http://www.w3.org/2000/svg" version="1.1">
 <metadata>
  <rdf:RDF xmlns:dc="http://purl.org/dc/elements/1.1/" xmlns:cc="http://creativecommons.org/ns#" xmlns:rdf="http://www.w3.org/1999/02/22-rdf-syntax-ns#">
   <cc:Work>
    <dc:type rdf:resource="http://purl.org/dc/dcmitype/StillImage"/>
    <dc:date>2024-08-04T13:13:52.335535</dc:date>
    <dc:format>image/svg+xml</dc:format>
    <dc:creator>
     <cc:Agent>
      <dc:title>Matplotlib v3.9.0, https://matplotlib.org/</dc:title>
     </cc:Agent>
    </dc:creator>
   </cc:Work>
  </rdf:RDF>
 </metadata>
 <defs>
  <style type="text/css">*{stroke-linejoin: round; stroke-linecap: butt}</style>
 </defs>
 <g id="figure_1">
  <g id="patch_1">
   <path d="M 0 810 
L 216.72 810 
L 216.72 0 
L 0 0 
z
" style="fill: #ffffff"/>
  </g>
  <g id="axes_1">
   <g id="patch_2">
    <path d="M 60.47993 158.2824 
L 153.3312 158.2824 
L 153.3312 22.848 
L 60.47993 22.848 
z
" style="fill: #eaeaf2"/>
   </g>
   <g id="matplotlib.axis_1">
    <g id="xtick_1">
     <g id="line2d_1">
      <path d="M 95.04652 158.2824 
L 95.04652 22.848 
" clip-path="url(#p052fb18bec)" style="fill: none; stroke: #ffffff; stroke-linecap: round"/>
     </g>
    </g>
    <g id="xtick_2">
     <g id="line2d_2">
      <path d="M 137.143402 158.2824 
L 137.143402 22.848 
" clip-path="url(#p052fb18bec)" style="fill: none; stroke: #ffffff; stroke-linecap: round"/>
     </g>
    </g>
   </g>
   <g id="matplotlib.axis_2">
    <g id="ytick_1">
     <g id="line2d_3">
      <path d="M 60.47993 158.2824 
L 153.3312 158.2824 
" clip-path="url(#p052fb18bec)" style="fill: none; stroke: #ffffff; stroke-linecap: round"/>
     </g>
     <g id="text_1">
      <!-- 0.0 -->
      <g style="fill: #262626" transform="translate(38.74793 161.431837) scale(0.088 -0.088)">
       <defs>
        <path id="ArialMT-30" d="M 266 2259 
Q 266 3072 433 3567 
Q 600 4063 929 4331 
Q 1259 4600 1759 4600 
Q 2128 4600 2406 4451 
Q 2684 4303 2865 4023 
Q 3047 3744 3150 3342 
Q 3253 2941 3253 2259 
Q 3253 1453 3087 958 
Q 2922 463 2592 192 
Q 2263 -78 1759 -78 
Q 1097 -78 719 397 
Q 266 969 266 2259 
z
M 844 2259 
Q 844 1131 1108 757 
Q 1372 384 1759 384 
Q 2147 384 2411 759 
Q 2675 1134 2675 2259 
Q 2675 3391 2411 3762 
Q 2147 4134 1753 4134 
Q 1366 4134 1134 3806 
Q 844 3388 844 2259 
z
" transform="scale(0.015625)"/>
        <path id="ArialMT-2e" d="M 581 0 
L 581 641 
L 1222 641 
L 1222 0 
L 581 0 
z
" transform="scale(0.015625)"/>
       </defs>
       <use xlink:href="#ArialMT-30"/>
       <use xlink:href="#ArialMT-2e" x="55.615234"/>
       <use xlink:href="#ArialMT-30" x="83.398438"/>
      </g>
     </g>
    </g>
    <g id="ytick_2">
     <g id="line2d_4">
      <path d="M 60.47993 131.19552 
L 153.3312 131.19552 
" clip-path="url(#p052fb18bec)" style="fill: none; stroke: #ffffff; stroke-linecap: round"/>
     </g>
     <g id="text_2">
      <!-- 0.2 -->
      <g style="fill: #262626" transform="translate(38.74793 134.344957) scale(0.088 -0.088)">
       <defs>
        <path id="ArialMT-32" d="M 3222 541 
L 3222 0 
L 194 0 
Q 188 203 259 391 
Q 375 700 629 1000 
Q 884 1300 1366 1694 
Q 2113 2306 2375 2664 
Q 2638 3022 2638 3341 
Q 2638 3675 2398 3904 
Q 2159 4134 1775 4134 
Q 1369 4134 1125 3890 
Q 881 3647 878 3216 
L 300 3275 
Q 359 3922 746 4261 
Q 1134 4600 1788 4600 
Q 2447 4600 2831 4234 
Q 3216 3869 3216 3328 
Q 3216 3053 3103 2787 
Q 2991 2522 2730 2228 
Q 2469 1934 1863 1422 
Q 1356 997 1212 845 
Q 1069 694 975 541 
L 3222 541 
z
" transform="scale(0.015625)"/>
       </defs>
       <use xlink:href="#ArialMT-30"/>
       <use xlink:href="#ArialMT-2e" x="55.615234"/>
       <use xlink:href="#ArialMT-32" x="83.398438"/>
      </g>
     </g>
    </g>
    <g id="ytick_3">
     <g id="line2d_5">
      <path d="M 60.47993 104.10864 
L 153.3312 104.10864 
" clip-path="url(#p052fb18bec)" style="fill: none; stroke: #ffffff; stroke-linecap: round"/>
     </g>
     <g id="text_3">
      <!-- 0.4 -->
      <g style="fill: #262626" transform="translate(38.74793 107.258078) scale(0.088 -0.088)">
       <defs>
        <path id="ArialMT-34" d="M 2069 0 
L 2069 1097 
L 81 1097 
L 81 1613 
L 2172 4581 
L 2631 4581 
L 2631 1613 
L 3250 1613 
L 3250 1097 
L 2631 1097 
L 2631 0 
L 2069 0 
z
M 2069 1613 
L 2069 3678 
L 634 1613 
L 2069 1613 
z
" transform="scale(0.015625)"/>
       </defs>
       <use xlink:href="#ArialMT-30"/>
       <use xlink:href="#ArialMT-2e" x="55.615234"/>
       <use xlink:href="#ArialMT-34" x="83.398438"/>
      </g>
     </g>
    </g>
    <g id="ytick_4">
     <g id="line2d_6">
      <path d="M 60.47993 77.02176 
L 153.3312 77.02176 
" clip-path="url(#p052fb18bec)" style="fill: none; stroke: #ffffff; stroke-linecap: round"/>
     </g>
     <g id="text_4">
      <!-- 0.6 -->
      <g style="fill: #262626" transform="translate(38.74793 80.171197) scale(0.088 -0.088)">
       <defs>
        <path id="ArialMT-36" d="M 3184 3459 
L 2625 3416 
Q 2550 3747 2413 3897 
Q 2184 4138 1850 4138 
Q 1581 4138 1378 3988 
Q 1113 3794 959 3422 
Q 806 3050 800 2363 
Q 1003 2672 1297 2822 
Q 1591 2972 1913 2972 
Q 2475 2972 2870 2558 
Q 3266 2144 3266 1488 
Q 3266 1056 3080 686 
Q 2894 316 2569 119 
Q 2244 -78 1831 -78 
Q 1128 -78 684 439 
Q 241 956 241 2144 
Q 241 3472 731 4075 
Q 1159 4600 1884 4600 
Q 2425 4600 2770 4297 
Q 3116 3994 3184 3459 
z
M 888 1484 
Q 888 1194 1011 928 
Q 1134 663 1356 523 
Q 1578 384 1822 384 
Q 2178 384 2434 671 
Q 2691 959 2691 1453 
Q 2691 1928 2437 2201 
Q 2184 2475 1800 2475 
Q 1419 2475 1153 2201 
Q 888 1928 888 1484 
z
" transform="scale(0.015625)"/>
       </defs>
       <use xlink:href="#ArialMT-30"/>
       <use xlink:href="#ArialMT-2e" x="55.615234"/>
       <use xlink:href="#ArialMT-36" x="83.398438"/>
      </g>
     </g>
    </g>
    <g id="ytick_5">
     <g id="line2d_7">
      <path d="M 60.47993 49.93488 
L 153.3312 49.93488 
" clip-path="url(#p052fb18bec)" style="fill: none; stroke: #ffffff; stroke-linecap: round"/>
     </g>
     <g id="text_5">
      <!-- 0.8 -->
      <g style="fill: #262626" transform="translate(38.74793 53.084317) scale(0.088 -0.088)">
       <defs>
        <path id="ArialMT-38" d="M 1131 2484 
Q 781 2613 612 2850 
Q 444 3088 444 3419 
Q 444 3919 803 4259 
Q 1163 4600 1759 4600 
Q 2359 4600 2725 4251 
Q 3091 3903 3091 3403 
Q 3091 3084 2923 2848 
Q 2756 2613 2416 2484 
Q 2838 2347 3058 2040 
Q 3278 1734 3278 1309 
Q 3278 722 2862 322 
Q 2447 -78 1769 -78 
Q 1091 -78 675 323 
Q 259 725 259 1325 
Q 259 1772 486 2073 
Q 713 2375 1131 2484 
z
M 1019 3438 
Q 1019 3113 1228 2906 
Q 1438 2700 1772 2700 
Q 2097 2700 2305 2904 
Q 2513 3109 2513 3406 
Q 2513 3716 2298 3927 
Q 2084 4138 1766 4138 
Q 1444 4138 1231 3931 
Q 1019 3725 1019 3438 
z
M 838 1322 
Q 838 1081 952 856 
Q 1066 631 1291 507 
Q 1516 384 1775 384 
Q 2178 384 2440 643 
Q 2703 903 2703 1303 
Q 2703 1709 2433 1975 
Q 2163 2241 1756 2241 
Q 1359 2241 1098 1978 
Q 838 1716 838 1322 
z
" transform="scale(0.015625)"/>
       </defs>
       <use xlink:href="#ArialMT-30"/>
       <use xlink:href="#ArialMT-2e" x="55.615234"/>
       <use xlink:href="#ArialMT-38" x="83.398438"/>
      </g>
     </g>
    </g>
    <g id="ytick_6">
     <g id="line2d_8">
      <path d="M 60.47993 22.848 
L 153.3312 22.848 
" clip-path="url(#p052fb18bec)" style="fill: none; stroke: #ffffff; stroke-linecap: round"/>
     </g>
     <g id="text_6">
      <!-- 1.0 -->
      <g style="fill: #262626" transform="translate(38.74793 25.997438) scale(0.088 -0.088)">
       <defs>
        <path id="ArialMT-31" d="M 2384 0 
L 1822 0 
L 1822 3584 
Q 1619 3391 1289 3197 
Q 959 3003 697 2906 
L 697 3450 
Q 1169 3672 1522 3987 
Q 1875 4303 2022 4600 
L 2384 4600 
L 2384 0 
z
" transform="scale(0.015625)"/>
       </defs>
       <use xlink:href="#ArialMT-31"/>
       <use xlink:href="#ArialMT-2e" x="55.615234"/>
       <use xlink:href="#ArialMT-30" x="83.398438"/>
      </g>
     </g>
    </g>
    <g id="text_7">
     <!-- Proportion -->
     <g style="fill: #262626" transform="translate(32.83993 112.7097) rotate(-90) scale(0.096 -0.096)">
      <defs>
       <path id="ArialMT-50" d="M 494 0 
L 494 4581 
L 2222 4581 
Q 2678 4581 2919 4538 
Q 3256 4481 3484 4323 
Q 3713 4166 3852 3881 
Q 3991 3597 3991 3256 
Q 3991 2672 3619 2267 
Q 3247 1863 2275 1863 
L 1100 1863 
L 1100 0 
L 494 0 
z
M 1100 2403 
L 2284 2403 
Q 2872 2403 3119 2622 
Q 3366 2841 3366 3238 
Q 3366 3525 3220 3729 
Q 3075 3934 2838 4000 
Q 2684 4041 2272 4041 
L 1100 4041 
L 1100 2403 
z
" transform="scale(0.015625)"/>
       <path id="ArialMT-72" d="M 416 0 
L 416 3319 
L 922 3319 
L 922 2816 
Q 1116 3169 1280 3281 
Q 1444 3394 1641 3394 
Q 1925 3394 2219 3213 
L 2025 2691 
Q 1819 2813 1613 2813 
Q 1428 2813 1281 2702 
Q 1134 2591 1072 2394 
Q 978 2094 978 1738 
L 978 0 
L 416 0 
z
" transform="scale(0.015625)"/>
       <path id="ArialMT-6f" d="M 213 1659 
Q 213 2581 725 3025 
Q 1153 3394 1769 3394 
Q 2453 3394 2887 2945 
Q 3322 2497 3322 1706 
Q 3322 1066 3130 698 
Q 2938 331 2570 128 
Q 2203 -75 1769 -75 
Q 1072 -75 642 372 
Q 213 819 213 1659 
z
M 791 1659 
Q 791 1022 1069 705 
Q 1347 388 1769 388 
Q 2188 388 2466 706 
Q 2744 1025 2744 1678 
Q 2744 2294 2464 2611 
Q 2184 2928 1769 2928 
Q 1347 2928 1069 2612 
Q 791 2297 791 1659 
z
" transform="scale(0.015625)"/>
       <path id="ArialMT-70" d="M 422 -1272 
L 422 3319 
L 934 3319 
L 934 2888 
Q 1116 3141 1344 3267 
Q 1572 3394 1897 3394 
Q 2322 3394 2647 3175 
Q 2972 2956 3137 2557 
Q 3303 2159 3303 1684 
Q 3303 1175 3120 767 
Q 2938 359 2589 142 
Q 2241 -75 1856 -75 
Q 1575 -75 1351 44 
Q 1128 163 984 344 
L 984 -1272 
L 422 -1272 
z
M 931 1641 
Q 931 1000 1190 694 
Q 1450 388 1819 388 
Q 2194 388 2461 705 
Q 2728 1022 2728 1688 
Q 2728 2322 2467 2637 
Q 2206 2953 1844 2953 
Q 1484 2953 1207 2617 
Q 931 2281 931 1641 
z
" transform="scale(0.015625)"/>
       <path id="ArialMT-74" d="M 1650 503 
L 1731 6 
Q 1494 -44 1306 -44 
Q 1000 -44 831 53 
Q 663 150 594 308 
Q 525 466 525 972 
L 525 2881 
L 113 2881 
L 113 3319 
L 525 3319 
L 525 4141 
L 1084 4478 
L 1084 3319 
L 1650 3319 
L 1650 2881 
L 1084 2881 
L 1084 941 
Q 1084 700 1114 631 
Q 1144 563 1211 522 
Q 1278 481 1403 481 
Q 1497 481 1650 503 
z
" transform="scale(0.015625)"/>
       <path id="ArialMT-69" d="M 425 3934 
L 425 4581 
L 988 4581 
L 988 3934 
L 425 3934 
z
M 425 0 
L 425 3319 
L 988 3319 
L 988 0 
L 425 0 
z
" transform="scale(0.015625)"/>
       <path id="ArialMT-6e" d="M 422 0 
L 422 3319 
L 928 3319 
L 928 2847 
Q 1294 3394 1984 3394 
Q 2284 3394 2536 3286 
Q 2788 3178 2913 3003 
Q 3038 2828 3088 2588 
Q 3119 2431 3119 2041 
L 3119 0 
L 2556 0 
L 2556 2019 
Q 2556 2363 2490 2533 
Q 2425 2703 2258 2804 
Q 2091 2906 1866 2906 
Q 1506 2906 1245 2678 
Q 984 2450 984 1813 
L 984 0 
L 422 0 
z
" transform="scale(0.015625)"/>
      </defs>
      <use xlink:href="#ArialMT-50"/>
      <use xlink:href="#ArialMT-72" x="66.699219"/>
      <use xlink:href="#ArialMT-6f" x="100"/>
      <use xlink:href="#ArialMT-70" x="155.615234"/>
      <use xlink:href="#ArialMT-6f" x="211.230469"/>
      <use xlink:href="#ArialMT-72" x="266.845703"/>
      <use xlink:href="#ArialMT-74" x="300.146484"/>
      <use xlink:href="#ArialMT-69" x="327.929688"/>
      <use xlink:href="#ArialMT-6f" x="350.146484"/>
      <use xlink:href="#ArialMT-6e" x="405.761719"/>
     </g>
    </g>
   </g>
   <g id="line2d_9">
    <path d="M 65.127135 158.2824 
L 65.127337 156.954612 
L 66.134957 156.954612 
L 66.2158 151.643459 
L 66.254314 151.643459 
L 66.298675 150.315671 
L 66.597545 150.315671 
L 66.685619 142.348941 
L 66.720487 142.348941 
L 66.720487 141.685047 
L 67.880937 141.685047 
L 67.953166 139.693365 
L 68.055245 139.693365 
L 68.118002 132.390529 
L 69.84623 132.390529 
L 69.947489 125.087694 
L 69.977898 125.087694 
L 70.08152 117.784859 
L 70.090818 117.784859 
L 70.196764 108.490341 
L 70.216 108.490341 
L 70.285893 105.170871 
L 70.334501 105.170871 
L 70.398673 102.515294 
L 70.463759 102.515294 
L 70.534515 101.187506 
L 70.610871 101.187506 
L 70.700085 97.868035 
L 70.759262 97.868035 
L 70.787866 95.876353 
L 71.157632 95.876353 
L 71.157632 95.212459 
L 71.765326 95.212459 
L 71.823675 89.901306 
L 72.601199 89.901306 
L 72.605337 86.581835 
L 73.747651 86.581835 
L 73.8063 78.615106 
L 74.12585 78.615106 
L 74.231969 64.673329 
L 74.23881 64.673329 
L 74.330242 58.034388 
L 74.369213 58.034388 
L 74.416445 56.042706 
L 74.828742 56.042706 
L 74.860768 54.051024 
L 75.596665 54.051024 
L 75.707623 44.756506 
L 75.709974 44.756506 
L 75.709974 44.092612 
L 76.374212 44.092612 
L 76.439107 40.773141 
L 76.532688 40.773141 
L 76.532834 39.445353 
L 76.918207 39.445353 
L 77.014813 36.125882 
L 77.064774 36.125882 
L 77.064774 35.461988 
L 77.736199 35.461988 
L 77.742822 32.806412 
L 78.162505 32.806412 
L 78.174614 31.478624 
L 79.024692 31.478624 
L 79.024692 30.814729 
L 80.331657 30.814729 
L 80.373981 26.831365 
L 81.100602 26.831365 
L 81.165935 22.848 
L 81.165935 22.848 
" clip-path="url(#p052fb18bec)" style="fill: none; stroke: #023eff; stroke-width: 1.5; stroke-linecap: round"/>
   </g>
   <g id="line2d_10">
    <path d="M 65.127424 158.2824 
L 65.127699 156.980146 
L 66.678524 156.980146 
L 66.715565 155.677892 
L 67.98816 155.677892 
L 68.095859 143.306481 
L 68.113642 143.306481 
L 68.115449 142.004227 
L 68.25764 142.004227 
L 68.368574 132.88845 
L 68.403927 132.88845 
L 68.452172 130.283942 
L 70.010706 130.283942 
L 70.014115 128.981688 
L 70.204038 128.981688 
L 70.269326 126.377181 
L 70.334427 126.377181 
L 70.334427 125.726054 
L 70.720837 125.726054 
L 70.827822 116.610277 
L 70.859382 116.610277 
L 70.862589 115.308023 
L 71.307813 115.308023 
L 71.359573 111.401262 
L 71.682333 111.401262 
L 71.788831 102.285485 
L 71.794529 102.285485 
L 71.839761 97.727596 
L 72.096763 97.727596 
L 72.20509 93.820835 
L 72.258521 93.820835 
L 72.327013 91.216327 
L 73.780115 91.216327 
L 73.889715 84.705058 
L 74.060729 84.705058 
L 74.108698 78.844915 
L 74.233957 78.844915 
L 74.234564 77.542662 
L 74.962752 77.542662 
L 74.962827 76.240408 
L 75.104889 76.240408 
L 75.142227 67.124631 
L 75.593714 67.124631 
L 75.640369 60.613362 
L 76.396414 60.613362 
L 76.420706 57.357727 
L 77.004026 57.357727 
L 77.066612 49.544204 
L 77.475377 49.544204 
L 77.570517 43.032935 
L 77.99322 43.032935 
L 78.098886 39.126173 
L 78.10455 39.126173 
L 78.21232 35.219412 
L 79.062987 35.219412 
L 79.164534 28.057015 
L 79.189649 28.057015 
L 79.190355 26.754762 
L 79.783269 26.754762 
L 79.783287 25.452508 
L 80.208792 25.452508 
L 80.258577 22.848 
L 80.258577 22.848 
" clip-path="url(#p052fb18bec)" style="fill: none; stroke: #ff7c00; stroke-width: 1.5; stroke-linecap: round"/>
   </g>
   <g id="line2d_11">
    <path d="M 76.135057 158.2824 
L 76.224724 147.447648 
L 76.253808 147.447648 
L 76.335562 144.197222 
L 76.378063 144.197222 
L 76.488968 140.946797 
L 76.490534 140.946797 
L 76.552032 139.321584 
L 80.117438 139.321584 
L 80.218321 132.820733 
L 80.247629 132.820733 
L 80.327408 129.570307 
L 80.368037 129.570307 
L 80.473934 126.319882 
L 81.960869 126.319882 
L 82.06121 119.81903 
L 82.101835 119.81903 
L 82.101835 119.277293 
L 84.77736 119.277293 
L 84.826133 117.110342 
L 84.988352 117.110342 
L 85.080731 113.859917 
L 85.127375 113.859917 
L 85.187788 111.692966 
L 85.242808 111.692966 
L 85.313296 110.067754 
L 85.383074 110.067754 
L 85.457596 108.984278 
L 85.618536 108.984278 
L 85.712017 103.566902 
L 85.742676 103.566902 
L 85.784522 101.399952 
L 86.772603 101.399952 
L 86.868978 98.149526 
L 86.904516 98.149526 
L 86.995501 94.899101 
L 87.03974 94.899101 
L 87.044072 93.815626 
L 87.84083 93.815626 
L 87.84083 93.273888 
L 88.361013 93.273888 
L 88.464938 90.023462 
L 88.517762 90.023462 
L 88.586384 87.856512 
L 88.648859 87.856512 
L 88.72884 85.689562 
L 88.800783 85.689562 
L 88.891942 83.522611 
L 88.973215 83.522611 
L 88.981132 82.439136 
L 89.949811 82.439136 
L 90.039676 78.105235 
L 90.953457 78.105235 
L 91.047095 73.229597 
L 91.07477 73.229597 
L 91.185704 68.895696 
L 91.22374 68.895696 
L 91.319816 65.64527 
L 91.365982 65.64527 
L 91.370475 64.561795 
L 92.169051 64.561795 
L 92.2647 60.227894 
L 92.300164 60.227894 
L 92.3037 59.144419 
L 92.445296 59.144419 
L 92.510513 56.977469 
L 92.570316 56.977469 
L 92.647413 54.810518 
L 92.717156 54.810518 
L 92.798738 53.185306 
L 93.097728 53.185306 
L 93.166806 51.018355 
L 94.158109 51.018355 
L 94.159882 49.93488 
L 101.436027 49.93488 
L 101.545518 45.600979 
L 101.575564 45.600979 
L 101.663026 42.350554 
L 101.705135 42.350554 
L 101.812562 39.100128 
L 101.864495 39.100128 
L 101.92705 36.933178 
L 101.985543 36.933178 
L 102.059127 34.766227 
L 102.127839 34.766227 
L 102.206163 32.599277 
L 102.278411 32.599277 
L 102.292861 30.432326 
L 103.1132 30.432326 
L 103.209381 28.807114 
L 103.267344 28.807114 
L 103.337597 26.098426 
L 103.401418 26.098426 
L 103.485058 23.931475 
L 103.560922 23.931475 
L 103.568393 22.848 
L 103.568393 22.848 
" clip-path="url(#p052fb18bec)" style="fill: none; stroke: #1ac938; stroke-width: 1.5; stroke-linecap: round"/>
   </g>
   <g id="line2d_12">
    <path d="M 76.135057 158.2824 
L 76.224724 147.18122 
L 76.253806 147.18122 
L 76.335564 143.850866 
L 76.378063 143.850866 
L 76.488968 140.520511 
L 76.490534 140.520511 
L 76.552032 138.855334 
L 82.06121 138.855334 
L 82.101838 137.745216 
L 83.730154 137.745216 
L 83.765952 133.859803 
L 84.77736 133.859803 
L 84.873208 126.088977 
L 84.88943 126.088977 
L 84.991785 121.648505 
L 85.030204 121.648505 
L 85.131981 118.318151 
L 85.1828 118.318151 
L 85.248188 116.097915 
L 85.313296 116.097915 
L 85.383074 114.987797 
L 85.457596 114.987797 
L 85.457596 114.432738 
L 85.618536 114.432738 
L 85.712017 108.882148 
L 85.742676 108.882148 
L 85.784522 106.661911 
L 86.216498 106.661911 
L 86.325941 102.776498 
L 86.363059 102.776498 
L 86.453254 98.891085 
L 86.628111 98.891085 
L 86.718364 88.900023 
L 86.740438 88.900023 
L 86.832968 84.459551 
L 86.865731 84.459551 
L 86.95018 81.129197 
L 87.411913 81.129197 
L 87.504125 74.468489 
L 87.52688 74.468489 
L 87.618308 70.028016 
L 88.384944 70.028016 
L 88.413033 63.367308 
L 88.766145 63.367308 
L 88.836369 61.147072 
L 90.062097 61.147072 
L 90.155873 55.041423 
L 90.183462 55.041423 
L 90.291142 51.15601 
L 90.294636 51.15601 
L 90.381677 48.380715 
L 90.425444 48.380715 
L 90.53516 45.050361 
L 91.275029 45.050361 
L 91.380505 39.49977 
L 91.417652 39.49977 
L 91.520633 36.169416 
L 91.573646 36.169416 
L 91.642878 34.504239 
L 91.787882 34.504239 
L 91.787882 33.94918 
L 99.13298 33.94918 
L 99.220844 29.508708 
L 99.250112 29.508708 
L 99.286954 27.288472 
L 99.946806 27.288472 
L 100.033526 23.958118 
L 100.081525 23.958118 
L 100.133729 22.848 
L 100.133729 22.848 
" clip-path="url(#p052fb18bec)" style="fill: none; stroke: #e8000b; stroke-width: 1.5; stroke-linecap: round"/>
   </g>
   <g id="patch_3">
    <path d="M 60.47993 158.2824 
L 60.47993 22.848 
" style="fill: none; stroke: #ffffff; stroke-width: 1.25; stroke-linejoin: miter; stroke-linecap: square"/>
   </g>
   <g id="patch_4">
    <path d="M 60.47993 158.2824 
L 153.3312 158.2824 
" style="fill: none; stroke: #ffffff; stroke-width: 1.25; stroke-linejoin: miter; stroke-linecap: square"/>
   </g>
   <g id="text_8">
    <!-- Attribute = Landlocked -->
    <g style="fill: #262626" transform="translate(157.096225 42.6687) rotate(-270) scale(0.096 -0.096)">
     <defs>
      <path id="ArialMT-41" d="M -9 0 
L 1750 4581 
L 2403 4581 
L 4278 0 
L 3588 0 
L 3053 1388 
L 1138 1388 
L 634 0 
L -9 0 
z
M 1313 1881 
L 2866 1881 
L 2388 3150 
Q 2169 3728 2063 4100 
Q 1975 3659 1816 3225 
L 1313 1881 
z
" transform="scale(0.015625)"/>
      <path id="ArialMT-62" d="M 941 0 
L 419 0 
L 419 4581 
L 981 4581 
L 981 2947 
Q 1338 3394 1891 3394 
Q 2197 3394 2470 3270 
Q 2744 3147 2920 2923 
Q 3097 2700 3197 2384 
Q 3297 2069 3297 1709 
Q 3297 856 2875 390 
Q 2453 -75 1863 -75 
Q 1275 -75 941 416 
L 941 0 
z
M 934 1684 
Q 934 1088 1097 822 
Q 1363 388 1816 388 
Q 2184 388 2453 708 
Q 2722 1028 2722 1663 
Q 2722 2313 2464 2622 
Q 2206 2931 1841 2931 
Q 1472 2931 1203 2611 
Q 934 2291 934 1684 
z
" transform="scale(0.015625)"/>
      <path id="ArialMT-75" d="M 2597 0 
L 2597 488 
Q 2209 -75 1544 -75 
Q 1250 -75 995 37 
Q 741 150 617 320 
Q 494 491 444 738 
Q 409 903 409 1263 
L 409 3319 
L 972 3319 
L 972 1478 
Q 972 1038 1006 884 
Q 1059 663 1231 536 
Q 1403 409 1656 409 
Q 1909 409 2131 539 
Q 2353 669 2445 892 
Q 2538 1116 2538 1541 
L 2538 3319 
L 3100 3319 
L 3100 0 
L 2597 0 
z
" transform="scale(0.015625)"/>
      <path id="ArialMT-65" d="M 2694 1069 
L 3275 997 
Q 3138 488 2766 206 
Q 2394 -75 1816 -75 
Q 1088 -75 661 373 
Q 234 822 234 1631 
Q 234 2469 665 2931 
Q 1097 3394 1784 3394 
Q 2450 3394 2872 2941 
Q 3294 2488 3294 1666 
Q 3294 1616 3291 1516 
L 816 1516 
Q 847 969 1125 678 
Q 1403 388 1819 388 
Q 2128 388 2347 550 
Q 2566 713 2694 1069 
z
M 847 1978 
L 2700 1978 
Q 2663 2397 2488 2606 
Q 2219 2931 1791 2931 
Q 1403 2931 1139 2672 
Q 875 2413 847 1978 
z
" transform="scale(0.015625)"/>
      <path id="ArialMT-20" transform="scale(0.015625)"/>
      <path id="ArialMT-3d" d="M 3381 2694 
L 356 2694 
L 356 3219 
L 3381 3219 
L 3381 2694 
z
M 3381 1303 
L 356 1303 
L 356 1828 
L 3381 1828 
L 3381 1303 
z
" transform="scale(0.015625)"/>
      <path id="ArialMT-4c" d="M 469 0 
L 469 4581 
L 1075 4581 
L 1075 541 
L 3331 541 
L 3331 0 
L 469 0 
z
" transform="scale(0.015625)"/>
      <path id="ArialMT-61" d="M 2588 409 
Q 2275 144 1986 34 
Q 1697 -75 1366 -75 
Q 819 -75 525 192 
Q 231 459 231 875 
Q 231 1119 342 1320 
Q 453 1522 633 1644 
Q 813 1766 1038 1828 
Q 1203 1872 1538 1913 
Q 2219 1994 2541 2106 
Q 2544 2222 2544 2253 
Q 2544 2597 2384 2738 
Q 2169 2928 1744 2928 
Q 1347 2928 1158 2789 
Q 969 2650 878 2297 
L 328 2372 
Q 403 2725 575 2942 
Q 747 3159 1072 3276 
Q 1397 3394 1825 3394 
Q 2250 3394 2515 3294 
Q 2781 3194 2906 3042 
Q 3031 2891 3081 2659 
Q 3109 2516 3109 2141 
L 3109 1391 
Q 3109 606 3145 398 
Q 3181 191 3288 0 
L 2700 0 
Q 2613 175 2588 409 
z
M 2541 1666 
Q 2234 1541 1622 1453 
Q 1275 1403 1131 1340 
Q 988 1278 909 1158 
Q 831 1038 831 891 
Q 831 666 1001 516 
Q 1172 366 1500 366 
Q 1825 366 2078 508 
Q 2331 650 2450 897 
Q 2541 1088 2541 1459 
L 2541 1666 
z
" transform="scale(0.015625)"/>
      <path id="ArialMT-64" d="M 2575 0 
L 2575 419 
Q 2259 -75 1647 -75 
Q 1250 -75 917 144 
Q 584 363 401 755 
Q 219 1147 219 1656 
Q 219 2153 384 2558 
Q 550 2963 881 3178 
Q 1213 3394 1622 3394 
Q 1922 3394 2156 3267 
Q 2391 3141 2538 2938 
L 2538 4581 
L 3097 4581 
L 3097 0 
L 2575 0 
z
M 797 1656 
Q 797 1019 1065 703 
Q 1334 388 1700 388 
Q 2069 388 2326 689 
Q 2584 991 2584 1609 
Q 2584 2291 2321 2609 
Q 2059 2928 1675 2928 
Q 1300 2928 1048 2622 
Q 797 2316 797 1656 
z
" transform="scale(0.015625)"/>
      <path id="ArialMT-6c" d="M 409 0 
L 409 4581 
L 972 4581 
L 972 0 
L 409 0 
z
" transform="scale(0.015625)"/>
      <path id="ArialMT-63" d="M 2588 1216 
L 3141 1144 
Q 3050 572 2676 248 
Q 2303 -75 1759 -75 
Q 1078 -75 664 370 
Q 250 816 250 1647 
Q 250 2184 428 2587 
Q 606 2991 970 3192 
Q 1334 3394 1763 3394 
Q 2303 3394 2647 3120 
Q 2991 2847 3088 2344 
L 2541 2259 
Q 2463 2594 2264 2762 
Q 2066 2931 1784 2931 
Q 1359 2931 1093 2626 
Q 828 2322 828 1663 
Q 828 994 1084 691 
Q 1341 388 1753 388 
Q 2084 388 2306 591 
Q 2528 794 2588 1216 
z
" transform="scale(0.015625)"/>
      <path id="ArialMT-6b" d="M 425 0 
L 425 4581 
L 988 4581 
L 988 1969 
L 2319 3319 
L 3047 3319 
L 1778 2088 
L 3175 0 
L 2481 0 
L 1384 1697 
L 988 1316 
L 988 0 
L 425 0 
z
" transform="scale(0.015625)"/>
     </defs>
     <use xlink:href="#ArialMT-41"/>
     <use xlink:href="#ArialMT-74" x="66.699219"/>
     <use xlink:href="#ArialMT-74" x="94.482422"/>
     <use xlink:href="#ArialMT-72" x="122.265625"/>
     <use xlink:href="#ArialMT-69" x="155.566406"/>
     <use xlink:href="#ArialMT-62" x="177.783203"/>
     <use xlink:href="#ArialMT-75" x="233.398438"/>
     <use xlink:href="#ArialMT-74" x="289.013672"/>
     <use xlink:href="#ArialMT-65" x="316.796875"/>
     <use xlink:href="#ArialMT-20" x="372.412109"/>
     <use xlink:href="#ArialMT-3d" x="400.195312"/>
     <use xlink:href="#ArialMT-20" x="458.59375"/>
     <use xlink:href="#ArialMT-4c" x="486.376953"/>
     <use xlink:href="#ArialMT-61" x="541.992188"/>
     <use xlink:href="#ArialMT-6e" x="597.607422"/>
     <use xlink:href="#ArialMT-64" x="653.222656"/>
     <use xlink:href="#ArialMT-6c" x="708.837891"/>
     <use xlink:href="#ArialMT-6f" x="731.054688"/>
     <use xlink:href="#ArialMT-63" x="786.669922"/>
     <use xlink:href="#ArialMT-6b" x="836.669922"/>
     <use xlink:href="#ArialMT-65" x="886.669922"/>
     <use xlink:href="#ArialMT-64" x="942.285156"/>
    </g>
   </g>
   <g id="text_9">
    <!-- imax = OFF -->
    <g style="fill: #262626" transform="translate(81.704065 16.848) scale(0.096 -0.096)">
     <defs>
      <path id="ArialMT-6d" d="M 422 0 
L 422 3319 
L 925 3319 
L 925 2853 
Q 1081 3097 1340 3245 
Q 1600 3394 1931 3394 
Q 2300 3394 2536 3241 
Q 2772 3088 2869 2813 
Q 3263 3394 3894 3394 
Q 4388 3394 4653 3120 
Q 4919 2847 4919 2278 
L 4919 0 
L 4359 0 
L 4359 2091 
Q 4359 2428 4304 2576 
Q 4250 2725 4106 2815 
Q 3963 2906 3769 2906 
Q 3419 2906 3187 2673 
Q 2956 2441 2956 1928 
L 2956 0 
L 2394 0 
L 2394 2156 
Q 2394 2531 2256 2718 
Q 2119 2906 1806 2906 
Q 1569 2906 1367 2781 
Q 1166 2656 1075 2415 
Q 984 2175 984 1722 
L 984 0 
L 422 0 
z
" transform="scale(0.015625)"/>
      <path id="ArialMT-78" d="M 47 0 
L 1259 1725 
L 138 3319 
L 841 3319 
L 1350 2541 
Q 1494 2319 1581 2169 
Q 1719 2375 1834 2534 
L 2394 3319 
L 3066 3319 
L 1919 1756 
L 3153 0 
L 2463 0 
L 1781 1031 
L 1600 1309 
L 728 0 
L 47 0 
z
" transform="scale(0.015625)"/>
      <path id="ArialMT-4f" d="M 309 2231 
Q 309 3372 921 4017 
Q 1534 4663 2503 4663 
Q 3138 4663 3647 4359 
Q 4156 4056 4423 3514 
Q 4691 2972 4691 2284 
Q 4691 1588 4409 1038 
Q 4128 488 3612 205 
Q 3097 -78 2500 -78 
Q 1853 -78 1343 234 
Q 834 547 571 1087 
Q 309 1628 309 2231 
z
M 934 2222 
Q 934 1394 1379 917 
Q 1825 441 2497 441 
Q 3181 441 3623 922 
Q 4066 1403 4066 2288 
Q 4066 2847 3877 3264 
Q 3688 3681 3323 3911 
Q 2959 4141 2506 4141 
Q 1863 4141 1398 3698 
Q 934 3256 934 2222 
z
" transform="scale(0.015625)"/>
      <path id="ArialMT-46" d="M 525 0 
L 525 4581 
L 3616 4581 
L 3616 4041 
L 1131 4041 
L 1131 2622 
L 3281 2622 
L 3281 2081 
L 1131 2081 
L 1131 0 
L 525 0 
z
" transform="scale(0.015625)"/>
     </defs>
     <use xlink:href="#ArialMT-69"/>
     <use xlink:href="#ArialMT-6d" x="22.216797"/>
     <use xlink:href="#ArialMT-61" x="105.517578"/>
     <use xlink:href="#ArialMT-78" x="161.132812"/>
     <use xlink:href="#ArialMT-20" x="211.132812"/>
     <use xlink:href="#ArialMT-3d" x="238.916016"/>
     <use xlink:href="#ArialMT-20" x="297.314453"/>
     <use xlink:href="#ArialMT-4f" x="325.097656"/>
     <use xlink:href="#ArialMT-46" x="402.880859"/>
     <use xlink:href="#ArialMT-46" x="463.964844"/>
    </g>
   </g>
  </g>
  <g id="axes_2">
   <g id="patch_5">
    <path d="M 60.47993 311.2848 
L 153.3312 311.2848 
L 153.3312 175.8504 
L 60.47993 175.8504 
z
" style="fill: #eaeaf2"/>
   </g>
   <g id="matplotlib.axis_3">
    <g id="xtick_3">
     <g id="line2d_13">
      <path d="M 95.04652 311.2848 
L 95.04652 175.8504 
" clip-path="url(#pf88929f991)" style="fill: none; stroke: #ffffff; stroke-linecap: round"/>
     </g>
    </g>
    <g id="xtick_4">
     <g id="line2d_14">
      <path d="M 137.143402 311.2848 
L 137.143402 175.8504 
" clip-path="url(#pf88929f991)" style="fill: none; stroke: #ffffff; stroke-linecap: round"/>
     </g>
    </g>
   </g>
   <g id="matplotlib.axis_4">
    <g id="ytick_7">
     <g id="line2d_15">
      <path d="M 60.47993 311.2848 
L 153.3312 311.2848 
" clip-path="url(#pf88929f991)" style="fill: none; stroke: #ffffff; stroke-linecap: round"/>
     </g>
     <g id="text_10">
      <!-- 0.0 -->
      <g style="fill: #262626" transform="translate(38.74793 314.434237) scale(0.088 -0.088)">
       <use xlink:href="#ArialMT-30"/>
       <use xlink:href="#ArialMT-2e" x="55.615234"/>
       <use xlink:href="#ArialMT-30" x="83.398438"/>
      </g>
     </g>
    </g>
    <g id="ytick_8">
     <g id="line2d_16">
      <path d="M 60.47993 284.19792 
L 153.3312 284.19792 
" clip-path="url(#pf88929f991)" style="fill: none; stroke: #ffffff; stroke-linecap: round"/>
     </g>
     <g id="text_11">
      <!-- 0.2 -->
      <g style="fill: #262626" transform="translate(38.74793 287.347358) scale(0.088 -0.088)">
       <use xlink:href="#ArialMT-30"/>
       <use xlink:href="#ArialMT-2e" x="55.615234"/>
       <use xlink:href="#ArialMT-32" x="83.398438"/>
      </g>
     </g>
    </g>
    <g id="ytick_9">
     <g id="line2d_17">
      <path d="M 60.47993 257.11104 
L 153.3312 257.11104 
" clip-path="url(#pf88929f991)" style="fill: none; stroke: #ffffff; stroke-linecap: round"/>
     </g>
     <g id="text_12">
      <!-- 0.4 -->
      <g style="fill: #262626" transform="translate(38.74793 260.260477) scale(0.088 -0.088)">
       <use xlink:href="#ArialMT-30"/>
       <use xlink:href="#ArialMT-2e" x="55.615234"/>
       <use xlink:href="#ArialMT-34" x="83.398438"/>
      </g>
     </g>
    </g>
    <g id="ytick_10">
     <g id="line2d_18">
      <path d="M 60.47993 230.02416 
L 153.3312 230.02416 
" clip-path="url(#pf88929f991)" style="fill: none; stroke: #ffffff; stroke-linecap: round"/>
     </g>
     <g id="text_13">
      <!-- 0.6 -->
      <g style="fill: #262626" transform="translate(38.74793 233.173598) scale(0.088 -0.088)">
       <use xlink:href="#ArialMT-30"/>
       <use xlink:href="#ArialMT-2e" x="55.615234"/>
       <use xlink:href="#ArialMT-36" x="83.398438"/>
      </g>
     </g>
    </g>
    <g id="ytick_11">
     <g id="line2d_19">
      <path d="M 60.47993 202.93728 
L 153.3312 202.93728 
" clip-path="url(#pf88929f991)" style="fill: none; stroke: #ffffff; stroke-linecap: round"/>
     </g>
     <g id="text_14">
      <!-- 0.8 -->
      <g style="fill: #262626" transform="translate(38.74793 206.086717) scale(0.088 -0.088)">
       <use xlink:href="#ArialMT-30"/>
       <use xlink:href="#ArialMT-2e" x="55.615234"/>
       <use xlink:href="#ArialMT-38" x="83.398438"/>
      </g>
     </g>
    </g>
    <g id="ytick_12">
     <g id="line2d_20">
      <path d="M 60.47993 175.8504 
L 153.3312 175.8504 
" clip-path="url(#pf88929f991)" style="fill: none; stroke: #ffffff; stroke-linecap: round"/>
     </g>
     <g id="text_15">
      <!-- 1.0 -->
      <g style="fill: #262626" transform="translate(38.74793 178.999838) scale(0.088 -0.088)">
       <use xlink:href="#ArialMT-31"/>
       <use xlink:href="#ArialMT-2e" x="55.615234"/>
       <use xlink:href="#ArialMT-30" x="83.398438"/>
      </g>
     </g>
    </g>
    <g id="text_16">
     <!-- Proportion -->
     <g style="fill: #262626" transform="translate(32.83993 265.7121) rotate(-90) scale(0.096 -0.096)">
      <use xlink:href="#ArialMT-50"/>
      <use xlink:href="#ArialMT-72" x="66.699219"/>
      <use xlink:href="#ArialMT-6f" x="100"/>
      <use xlink:href="#ArialMT-70" x="155.615234"/>
      <use xlink:href="#ArialMT-6f" x="211.230469"/>
      <use xlink:href="#ArialMT-72" x="266.845703"/>
      <use xlink:href="#ArialMT-74" x="300.146484"/>
      <use xlink:href="#ArialMT-69" x="327.929688"/>
      <use xlink:href="#ArialMT-6f" x="350.146484"/>
      <use xlink:href="#ArialMT-6e" x="405.761719"/>
     </g>
    </g>
   </g>
   <g id="line2d_21">
    <path d="M 73.376361 311.2848 
L 73.458503 304.596681 
L 73.489176 304.596681 
L 73.532039 302.367309 
L 73.747439 302.367309 
L 73.780242 295.67919 
L 80.031658 295.67919 
L 80.116349 287.876385 
L 80.145428 287.876385 
L 80.22814 284.532326 
L 80.271591 284.532326 
L 80.382287 281.74561 
L 80.387557 281.74561 
L 80.45151 280.07358 
L 81.304374 280.07358 
L 81.399345 276.729521 
L 81.446499 276.729521 
L 81.507031 274.500148 
L 82.376872 274.500148 
L 82.454288 270.041402 
L 83.850077 270.041402 
L 83.890917 263.910627 
L 137.543854 263.910627 
L 137.581258 253.321106 
L 139.125859 253.321106 
L 139.167175 251.649077 
L 141.932301 251.649077 
L 142.032276 243.846272 
L 142.055336 243.846272 
L 142.152196 236.043467 
L 142.186555 236.043467 
L 142.230845 233.814094 
L 142.908547 233.814094 
L 143.00955 227.683319 
L 143.415655 227.683319 
L 143.517653 212.635052 
L 143.539679 212.635052 
L 143.607896 210.405679 
L 143.877201 210.405679 
L 143.882738 209.290993 
L 144.522522 209.290993 
L 144.611577 205.946933 
L 144.723108 205.946933 
L 144.725786 204.832247 
L 145.715952 204.832247 
L 145.824066 198.701472 
L 145.863801 198.701472 
L 145.868022 197.586785 
L 146.508018 197.586785 
L 146.556804 190.898667 
L 146.758232 190.898667 
L 146.864765 187.554607 
L 146.870854 187.554607 
L 146.875877 186.439921 
L 147.691729 186.439921 
L 147.765638 178.637116 
L 149.08315 178.637116 
L 149.110688 175.8504 
L 149.110688 175.8504 
" clip-path="url(#pf88929f991)" style="fill: none; stroke: #ff7c00; stroke-width: 1.5; stroke-linecap: round"/>
   </g>
   <g id="line2d_22">
    <path d="M 65.21013 311.2848 
L 65.313072 281.188267 
L 65.346325 281.188267 
L 65.439732 269.902067 
L 67.116264 269.902067 
L 67.203497 258.615867 
L 67.248387 258.615867 
L 67.252869 254.8538 
L 70.097052 254.8538 
L 70.206773 207.827967 
L 70.209683 207.827967 
L 70.287309 190.898667 
L 70.329538 190.898667 
L 70.437117 181.4935 
L 70.44224 181.4935 
L 70.504283 175.8504 
L 70.504283 175.8504 
" clip-path="url(#pf88929f991)" style="fill: none; stroke: #1ac938; stroke-width: 1.5; stroke-linecap: round"/>
   </g>
   <g id="line2d_23">
    <path d="M 65.414945 311.2848 
L 65.497251 297.19336 
L 65.526089 297.19336 
L 65.565972 294.061928 
L 69.072686 294.061928 
L 69.081647 290.930497 
L 69.701445 290.930497 
L 69.806936 276.839057 
L 69.838401 276.839057 
L 69.881088 273.707625 
L 70.440791 273.707625 
L 70.485056 270.576194 
L 70.664484 270.576194 
L 70.768586 260.399043 
L 71.822693 260.399043 
L 71.933751 253.353323 
L 71.936823 253.353323 
L 72.016203 249.439034 
L 72.057559 249.439034 
L 72.164139 244.741887 
L 121.070488 244.741887 
L 121.164996 229.084731 
L 121.193806 229.084731 
L 121.196696 227.519015 
L 121.563329 227.519015 
L 121.663394 211.861859 
L 121.692319 211.861859 
L 121.695216 210.296143 
L 125.950061 210.296143 
L 126.011065 204.033281 
L 126.122897 204.033281 
L 126.213571 199.336134 
L 126.258934 199.336134 
L 126.317464 196.204703 
L 126.370644 196.204703 
L 126.463393 188.376125 
L 126.481796 188.376125 
L 126.483723 186.810409 
L 126.621423 186.810409 
L 126.711801 182.113262 
L 126.756907 182.113262 
L 126.761378 180.547547 
L 128.116885 180.547547 
L 128.137087 175.8504 
L 128.137087 175.8504 
" clip-path="url(#pf88929f991)" style="fill: none; stroke: #e8000b; stroke-width: 1.5; stroke-linecap: round"/>
   </g>
   <g id="patch_6">
    <path d="M 60.47993 311.2848 
L 60.47993 175.8504 
" style="fill: none; stroke: #ffffff; stroke-width: 1.25; stroke-linejoin: miter; stroke-linecap: square"/>
   </g>
   <g id="patch_7">
    <path d="M 60.47993 311.2848 
L 153.3312 311.2848 
" style="fill: none; stroke: #ffffff; stroke-width: 1.25; stroke-linejoin: miter; stroke-linecap: square"/>
   </g>
   <g id="text_17">
    <!-- Attribute = Coastal -->
    <g style="fill: #262626" transform="translate(157.096225 203.9481) rotate(-270) scale(0.096 -0.096)">
     <defs>
      <path id="ArialMT-43" d="M 3763 1606 
L 4369 1453 
Q 4178 706 3683 314 
Q 3188 -78 2472 -78 
Q 1731 -78 1267 223 
Q 803 525 561 1097 
Q 319 1669 319 2325 
Q 319 3041 592 3573 
Q 866 4106 1370 4382 
Q 1875 4659 2481 4659 
Q 3169 4659 3637 4309 
Q 4106 3959 4291 3325 
L 3694 3184 
Q 3534 3684 3231 3912 
Q 2928 4141 2469 4141 
Q 1941 4141 1586 3887 
Q 1231 3634 1087 3207 
Q 944 2781 944 2328 
Q 944 1744 1114 1308 
Q 1284 872 1643 656 
Q 2003 441 2422 441 
Q 2931 441 3284 734 
Q 3638 1028 3763 1606 
z
" transform="scale(0.015625)"/>
      <path id="ArialMT-73" d="M 197 991 
L 753 1078 
Q 800 744 1014 566 
Q 1228 388 1613 388 
Q 2000 388 2187 545 
Q 2375 703 2375 916 
Q 2375 1106 2209 1216 
Q 2094 1291 1634 1406 
Q 1016 1563 777 1677 
Q 538 1791 414 1992 
Q 291 2194 291 2438 
Q 291 2659 392 2848 
Q 494 3038 669 3163 
Q 800 3259 1026 3326 
Q 1253 3394 1513 3394 
Q 1903 3394 2198 3281 
Q 2494 3169 2634 2976 
Q 2775 2784 2828 2463 
L 2278 2388 
Q 2241 2644 2061 2787 
Q 1881 2931 1553 2931 
Q 1166 2931 1000 2803 
Q 834 2675 834 2503 
Q 834 2394 903 2306 
Q 972 2216 1119 2156 
Q 1203 2125 1616 2013 
Q 2213 1853 2448 1751 
Q 2684 1650 2818 1456 
Q 2953 1263 2953 975 
Q 2953 694 2789 445 
Q 2625 197 2315 61 
Q 2006 -75 1616 -75 
Q 969 -75 630 194 
Q 291 463 197 991 
z
" transform="scale(0.015625)"/>
     </defs>
     <use xlink:href="#ArialMT-41"/>
     <use xlink:href="#ArialMT-74" x="66.699219"/>
     <use xlink:href="#ArialMT-74" x="94.482422"/>
     <use xlink:href="#ArialMT-72" x="122.265625"/>
     <use xlink:href="#ArialMT-69" x="155.566406"/>
     <use xlink:href="#ArialMT-62" x="177.783203"/>
     <use xlink:href="#ArialMT-75" x="233.398438"/>
     <use xlink:href="#ArialMT-74" x="289.013672"/>
     <use xlink:href="#ArialMT-65" x="316.796875"/>
     <use xlink:href="#ArialMT-20" x="372.412109"/>
     <use xlink:href="#ArialMT-3d" x="400.195312"/>
     <use xlink:href="#ArialMT-20" x="458.59375"/>
     <use xlink:href="#ArialMT-43" x="486.376953"/>
     <use xlink:href="#ArialMT-6f" x="558.59375"/>
     <use xlink:href="#ArialMT-61" x="614.208984"/>
     <use xlink:href="#ArialMT-73" x="669.824219"/>
     <use xlink:href="#ArialMT-74" x="719.824219"/>
     <use xlink:href="#ArialMT-61" x="747.607422"/>
     <use xlink:href="#ArialMT-6c" x="803.222656"/>
    </g>
   </g>
  </g>
  <g id="axes_3">
   <g id="patch_8">
    <path d="M 60.47993 464.2872 
L 153.3312 464.2872 
L 153.3312 328.8528 
L 60.47993 328.8528 
z
" style="fill: #eaeaf2"/>
   </g>
   <g id="matplotlib.axis_5">
    <g id="xtick_5">
     <g id="line2d_24">
      <path d="M 95.04652 464.2872 
L 95.04652 328.8528 
" clip-path="url(#pfc01d77104)" style="fill: none; stroke: #ffffff; stroke-linecap: round"/>
     </g>
    </g>
    <g id="xtick_6">
     <g id="line2d_25">
      <path d="M 137.143402 464.2872 
L 137.143402 328.8528 
" clip-path="url(#pfc01d77104)" style="fill: none; stroke: #ffffff; stroke-linecap: round"/>
     </g>
    </g>
   </g>
   <g id="matplotlib.axis_6">
    <g id="ytick_13">
     <g id="line2d_26">
      <path d="M 60.47993 464.2872 
L 153.3312 464.2872 
" clip-path="url(#pfc01d77104)" style="fill: none; stroke: #ffffff; stroke-linecap: round"/>
     </g>
     <g id="text_18">
      <!-- 0.0 -->
      <g style="fill: #262626" transform="translate(38.74793 467.436637) scale(0.088 -0.088)">
       <use xlink:href="#ArialMT-30"/>
       <use xlink:href="#ArialMT-2e" x="55.615234"/>
       <use xlink:href="#ArialMT-30" x="83.398438"/>
      </g>
     </g>
    </g>
    <g id="ytick_14">
     <g id="line2d_27">
      <path d="M 60.47993 437.20032 
L 153.3312 437.20032 
" clip-path="url(#pfc01d77104)" style="fill: none; stroke: #ffffff; stroke-linecap: round"/>
     </g>
     <g id="text_19">
      <!-- 0.2 -->
      <g style="fill: #262626" transform="translate(38.74793 440.349757) scale(0.088 -0.088)">
       <use xlink:href="#ArialMT-30"/>
       <use xlink:href="#ArialMT-2e" x="55.615234"/>
       <use xlink:href="#ArialMT-32" x="83.398438"/>
      </g>
     </g>
    </g>
    <g id="ytick_15">
     <g id="line2d_28">
      <path d="M 60.47993 410.11344 
L 153.3312 410.11344 
" clip-path="url(#pfc01d77104)" style="fill: none; stroke: #ffffff; stroke-linecap: round"/>
     </g>
     <g id="text_20">
      <!-- 0.4 -->
      <g style="fill: #262626" transform="translate(38.74793 413.262878) scale(0.088 -0.088)">
       <use xlink:href="#ArialMT-30"/>
       <use xlink:href="#ArialMT-2e" x="55.615234"/>
       <use xlink:href="#ArialMT-34" x="83.398438"/>
      </g>
     </g>
    </g>
    <g id="ytick_16">
     <g id="line2d_29">
      <path d="M 60.47993 383.02656 
L 153.3312 383.02656 
" clip-path="url(#pfc01d77104)" style="fill: none; stroke: #ffffff; stroke-linecap: round"/>
     </g>
     <g id="text_21">
      <!-- 0.6 -->
      <g style="fill: #262626" transform="translate(38.74793 386.175997) scale(0.088 -0.088)">
       <use xlink:href="#ArialMT-30"/>
       <use xlink:href="#ArialMT-2e" x="55.615234"/>
       <use xlink:href="#ArialMT-36" x="83.398438"/>
      </g>
     </g>
    </g>
    <g id="ytick_17">
     <g id="line2d_30">
      <path d="M 60.47993 355.93968 
L 153.3312 355.93968 
" clip-path="url(#pfc01d77104)" style="fill: none; stroke: #ffffff; stroke-linecap: round"/>
     </g>
     <g id="text_22">
      <!-- 0.8 -->
      <g style="fill: #262626" transform="translate(38.74793 359.089118) scale(0.088 -0.088)">
       <use xlink:href="#ArialMT-30"/>
       <use xlink:href="#ArialMT-2e" x="55.615234"/>
       <use xlink:href="#ArialMT-38" x="83.398438"/>
      </g>
     </g>
    </g>
    <g id="ytick_18">
     <g id="line2d_31">
      <path d="M 60.47993 328.8528 
L 153.3312 328.8528 
" clip-path="url(#pfc01d77104)" style="fill: none; stroke: #ffffff; stroke-linecap: round"/>
     </g>
     <g id="text_23">
      <!-- 1.0 -->
      <g style="fill: #262626" transform="translate(38.74793 332.002238) scale(0.088 -0.088)">
       <use xlink:href="#ArialMT-31"/>
       <use xlink:href="#ArialMT-2e" x="55.615234"/>
       <use xlink:href="#ArialMT-30" x="83.398438"/>
      </g>
     </g>
    </g>
    <g id="text_24">
     <!-- Proportion -->
     <g style="fill: #262626" transform="translate(32.83993 418.7145) rotate(-90) scale(0.096 -0.096)">
      <use xlink:href="#ArialMT-50"/>
      <use xlink:href="#ArialMT-72" x="66.699219"/>
      <use xlink:href="#ArialMT-6f" x="100"/>
      <use xlink:href="#ArialMT-70" x="155.615234"/>
      <use xlink:href="#ArialMT-6f" x="211.230469"/>
      <use xlink:href="#ArialMT-72" x="266.845703"/>
      <use xlink:href="#ArialMT-74" x="300.146484"/>
      <use xlink:href="#ArialMT-69" x="327.929688"/>
      <use xlink:href="#ArialMT-6f" x="350.146484"/>
      <use xlink:href="#ArialMT-6e" x="405.761719"/>
     </g>
    </g>
   </g>
   <g id="line2d_32">
    <path d="M 74.701296 464.2872 
L 74.747917 460.525133 
L 80.249128 460.525133 
L 80.249376 459.020307 
L 80.435419 459.020307 
L 80.482683 451.496173 
L 80.808038 451.496173 
L 80.823133 446.981693 
L 81.206647 446.981693 
L 81.304409 436.447907 
L 81.331789 436.447907 
L 81.367115 433.438253 
L 85.02818 433.438253 
L 85.050374 424.409293 
L 85.475823 424.409293 
L 85.478126 419.894813 
L 104.105334 419.894813 
L 104.199894 404.094133 
L 104.223047 404.094133 
L 104.25405 401.08448 
L 109.732561 401.08448 
L 109.732844 399.579653 
L 110.289393 399.579653 
L 110.289489 398.074827 
L 110.588033 398.074827 
L 110.688053 380.016907 
L 110.715044 380.016907 
L 110.789929 375.502427 
L 110.832086 375.502427 
L 110.936628 367.978293 
L 110.949116 367.978293 
L 111.059721 359.701747 
L 111.062374 359.701747 
L 111.131542 355.93968 
L 111.301546 355.93968 
L 111.344757 352.930027 
L 114.518672 352.930027 
L 114.519533 351.4252 
L 114.915617 351.4252 
L 115.009079 339.386587 
L 115.031651 339.386587 
L 115.061976 336.376933 
L 115.361227 336.376933 
L 115.471903 328.8528 
L 115.471903 328.8528 
" clip-path="url(#pfc01d77104)" style="fill: none; stroke: #023eff; stroke-width: 1.5; stroke-linecap: round"/>
   </g>
   <g id="line2d_33">
    <path d="M 74.701296 464.2872 
L 74.747919 455.010871 
L 80.808038 455.010871 
L 80.823133 443.879277 
L 81.227388 443.879277 
L 81.334493 425.326619 
L 81.364189 425.326619 
L 81.367118 421.616088 
L 115.418229 421.616088 
L 115.505158 378.944975 
L 115.532181 378.944975 
L 115.63971 365.958115 
L 120.896938 365.958115 
L 120.898005 362.247584 
L 121.092777 362.247584 
L 121.09428 358.537052 
L 121.44251 358.537052 
L 121.443582 354.826521 
L 122.520876 354.826521 
L 122.631482 343.694926 
L 122.685516 343.694926 
L 122.754408 336.273863 
L 122.949566 336.273863 
L 123.023096 328.8528 
L 123.023096 328.8528 
" clip-path="url(#pfc01d77104)" style="fill: none; stroke: #ff7c00; stroke-width: 1.5; stroke-linecap: round"/>
   </g>
   <g id="patch_9">
    <path d="M 60.47993 464.2872 
L 60.47993 328.8528 
" style="fill: none; stroke: #ffffff; stroke-width: 1.25; stroke-linejoin: miter; stroke-linecap: square"/>
   </g>
   <g id="patch_10">
    <path d="M 60.47993 464.2872 
L 153.3312 464.2872 
" style="fill: none; stroke: #ffffff; stroke-width: 1.25; stroke-linejoin: miter; stroke-linecap: square"/>
   </g>
   <g id="text_25">
    <!-- Attribute = Polar -->
    <g style="fill: #262626" transform="translate(157.096225 362.01975) rotate(-270) scale(0.096 -0.096)">
     <use xlink:href="#ArialMT-41"/>
     <use xlink:href="#ArialMT-74" x="66.699219"/>
     <use xlink:href="#ArialMT-74" x="94.482422"/>
     <use xlink:href="#ArialMT-72" x="122.265625"/>
     <use xlink:href="#ArialMT-69" x="155.566406"/>
     <use xlink:href="#ArialMT-62" x="177.783203"/>
     <use xlink:href="#ArialMT-75" x="233.398438"/>
     <use xlink:href="#ArialMT-74" x="289.013672"/>
     <use xlink:href="#ArialMT-65" x="316.796875"/>
     <use xlink:href="#ArialMT-20" x="372.412109"/>
     <use xlink:href="#ArialMT-3d" x="400.195312"/>
     <use xlink:href="#ArialMT-20" x="458.59375"/>
     <use xlink:href="#ArialMT-50" x="486.376953"/>
     <use xlink:href="#ArialMT-6f" x="553.076172"/>
     <use xlink:href="#ArialMT-6c" x="608.691406"/>
     <use xlink:href="#ArialMT-61" x="630.908203"/>
     <use xlink:href="#ArialMT-72" x="686.523438"/>
    </g>
   </g>
  </g>
  <g id="axes_4">
   <g id="patch_11">
    <path d="M 60.47993 617.2896 
L 153.3312 617.2896 
L 153.3312 481.8552 
L 60.47993 481.8552 
z
" style="fill: #eaeaf2"/>
   </g>
   <g id="matplotlib.axis_7">
    <g id="xtick_7">
     <g id="line2d_34">
      <path d="M 95.04652 617.2896 
L 95.04652 481.8552 
" clip-path="url(#p4a5da5cf9c)" style="fill: none; stroke: #ffffff; stroke-linecap: round"/>
     </g>
    </g>
    <g id="xtick_8">
     <g id="line2d_35">
      <path d="M 137.143402 617.2896 
L 137.143402 481.8552 
" clip-path="url(#p4a5da5cf9c)" style="fill: none; stroke: #ffffff; stroke-linecap: round"/>
     </g>
    </g>
   </g>
   <g id="matplotlib.axis_8">
    <g id="ytick_19">
     <g id="line2d_36">
      <path d="M 60.47993 617.2896 
L 153.3312 617.2896 
" clip-path="url(#p4a5da5cf9c)" style="fill: none; stroke: #ffffff; stroke-linecap: round"/>
     </g>
     <g id="text_26">
      <!-- 0.0 -->
      <g style="fill: #262626" transform="translate(38.74793 620.439038) scale(0.088 -0.088)">
       <use xlink:href="#ArialMT-30"/>
       <use xlink:href="#ArialMT-2e" x="55.615234"/>
       <use xlink:href="#ArialMT-30" x="83.398438"/>
      </g>
     </g>
    </g>
    <g id="ytick_20">
     <g id="line2d_37">
      <path d="M 60.47993 590.20272 
L 153.3312 590.20272 
" clip-path="url(#p4a5da5cf9c)" style="fill: none; stroke: #ffffff; stroke-linecap: round"/>
     </g>
     <g id="text_27">
      <!-- 0.2 -->
      <g style="fill: #262626" transform="translate(38.74793 593.352157) scale(0.088 -0.088)">
       <use xlink:href="#ArialMT-30"/>
       <use xlink:href="#ArialMT-2e" x="55.615234"/>
       <use xlink:href="#ArialMT-32" x="83.398438"/>
      </g>
     </g>
    </g>
    <g id="ytick_21">
     <g id="line2d_38">
      <path d="M 60.47993 563.11584 
L 153.3312 563.11584 
" clip-path="url(#p4a5da5cf9c)" style="fill: none; stroke: #ffffff; stroke-linecap: round"/>
     </g>
     <g id="text_28">
      <!-- 0.4 -->
      <g style="fill: #262626" transform="translate(38.74793 566.265278) scale(0.088 -0.088)">
       <use xlink:href="#ArialMT-30"/>
       <use xlink:href="#ArialMT-2e" x="55.615234"/>
       <use xlink:href="#ArialMT-34" x="83.398438"/>
      </g>
     </g>
    </g>
    <g id="ytick_22">
     <g id="line2d_39">
      <path d="M 60.47993 536.02896 
L 153.3312 536.02896 
" clip-path="url(#p4a5da5cf9c)" style="fill: none; stroke: #ffffff; stroke-linecap: round"/>
     </g>
     <g id="text_29">
      <!-- 0.6 -->
      <g style="fill: #262626" transform="translate(38.74793 539.178398) scale(0.088 -0.088)">
       <use xlink:href="#ArialMT-30"/>
       <use xlink:href="#ArialMT-2e" x="55.615234"/>
       <use xlink:href="#ArialMT-36" x="83.398438"/>
      </g>
     </g>
    </g>
    <g id="ytick_23">
     <g id="line2d_40">
      <path d="M 60.47993 508.94208 
L 153.3312 508.94208 
" clip-path="url(#p4a5da5cf9c)" style="fill: none; stroke: #ffffff; stroke-linecap: round"/>
     </g>
     <g id="text_30">
      <!-- 0.8 -->
      <g style="fill: #262626" transform="translate(38.74793 512.091518) scale(0.088 -0.088)">
       <use xlink:href="#ArialMT-30"/>
       <use xlink:href="#ArialMT-2e" x="55.615234"/>
       <use xlink:href="#ArialMT-38" x="83.398438"/>
      </g>
     </g>
    </g>
    <g id="ytick_24">
     <g id="line2d_41">
      <path d="M 60.47993 481.8552 
L 153.3312 481.8552 
" clip-path="url(#p4a5da5cf9c)" style="fill: none; stroke: #ffffff; stroke-linecap: round"/>
     </g>
     <g id="text_31">
      <!-- 1.0 -->
      <g style="fill: #262626" transform="translate(38.74793 485.004638) scale(0.088 -0.088)">
       <use xlink:href="#ArialMT-31"/>
       <use xlink:href="#ArialMT-2e" x="55.615234"/>
       <use xlink:href="#ArialMT-30" x="83.398438"/>
      </g>
     </g>
    </g>
    <g id="text_32">
     <!-- Proportion -->
     <g style="fill: #262626" transform="translate(32.83993 571.7169) rotate(-90) scale(0.096 -0.096)">
      <use xlink:href="#ArialMT-50"/>
      <use xlink:href="#ArialMT-72" x="66.699219"/>
      <use xlink:href="#ArialMT-6f" x="100"/>
      <use xlink:href="#ArialMT-70" x="155.615234"/>
      <use xlink:href="#ArialMT-6f" x="211.230469"/>
      <use xlink:href="#ArialMT-72" x="266.845703"/>
      <use xlink:href="#ArialMT-74" x="300.146484"/>
      <use xlink:href="#ArialMT-69" x="327.929688"/>
      <use xlink:href="#ArialMT-6f" x="350.146484"/>
      <use xlink:href="#ArialMT-6e" x="405.761719"/>
     </g>
    </g>
   </g>
   <g id="line2d_42">
    <path d="M 96.676785 617.2896 
L 96.759336 611.202661 
L 96.834918 611.202661 
L 96.931922 605.115721 
L 97.019156 605.115721 
L 97.027696 602.072252 
L 98.18404 602.072252 
L 98.285962 595.985312 
L 117.460714 595.985312 
L 117.543698 586.854903 
L 117.66146 586.854903 
L 117.719381 582.289699 
L 117.777937 582.289699 
L 117.862759 556.420207 
L 117.903426 556.420207 
L 118.013434 547.289798 
L 118.093734 547.289798 
L 118.195103 541.202858 
L 118.270251 541.202858 
L 118.298161 518.376836 
L 118.504239 518.376836 
L 118.59411 512.289897 
L 118.961944 512.289897 
L 119.066409 498.594283 
L 119.124509 498.594283 
L 119.198758 492.507344 
L 122.152528 492.507344 
L 122.198032 486.420404 
L 123.24213 486.420404 
L 123.279444 481.8552 
L 123.279444 481.8552 
" clip-path="url(#p4a5da5cf9c)" style="fill: none; stroke: #023eff; stroke-width: 1.5; stroke-linecap: round"/>
   </g>
   <g id="line2d_43">
    <path d="M 117.71782 617.2896 
L 117.71782 615.03236 
L 117.723704 615.03236 
L 117.723704 612.77512 
L 117.788728 612.77512 
L 117.788728 610.51788 
L 117.795165 610.51788 
L 117.795165 608.26064 
L 117.86344 608.26064 
L 117.86344 606.0034 
L 117.86581 606.0034 
L 117.86581 603.74616 
L 117.867088 603.74616 
L 117.867088 601.48892 
L 117.872767 601.48892 
L 117.872767 599.23168 
L 117.908391 599.23168 
L 117.908391 596.97444 
L 117.912611 596.97444 
L 117.912611 594.7172 
L 117.959882 594.7172 
L 117.959882 592.45996 
L 117.964642 592.45996 
L 117.964642 590.20272 
L 118.017751 590.20272 
L 118.017751 587.94548 
L 118.02307 587.94548 
L 118.02307 585.68824 
L 118.081819 585.68824 
L 118.081819 583.431 
L 118.087651 583.431 
L 118.087651 581.17376 
L 118.270476 581.17376 
L 118.270476 578.91652 
L 118.270515 578.91652 
L 118.270515 576.65928 
L 118.270701 576.65928 
L 118.270701 574.40204 
L 118.270733 574.40204 
L 118.270733 572.1448 
L 118.275326 572.1448 
L 118.275326 569.88756 
L 118.275531 569.88756 
L 118.275531 567.63032 
L 118.276 567.63032 
L 118.276 565.37308 
L 118.276193 565.37308 
L 118.276193 563.11584 
L 118.285167 563.11584 
L 118.285167 560.8586 
L 118.285841 560.8586 
L 118.285841 558.60136 
L 118.286259 558.60136 
L 118.286259 556.34412 
L 118.286984 556.34412 
L 118.286984 554.08688 
L 134.635125 554.08688 
L 134.635125 551.82964 
L 134.635626 551.82964 
L 134.635626 549.5724 
L 134.643874 549.5724 
L 134.643874 547.31516 
L 134.644914 547.31516 
L 134.644914 545.05792 
L 134.658783 545.05792 
L 134.658783 542.80068 
L 134.660343 542.80068 
L 134.660343 540.54344 
L 135.071401 540.54344 
L 135.071401 538.2862 
L 135.071799 538.2862 
L 135.071799 536.02896 
L 135.078544 536.02896 
L 135.078544 533.77172 
L 135.079424 533.77172 
L 135.079424 531.51448 
L 135.115903 531.51448 
L 135.115903 529.25724 
L 135.117875 529.25724 
L 135.117875 527 
L 135.141513 527 
L 135.141513 524.74276 
L 135.143973 524.74276 
L 135.143973 522.48552 
L 135.571032 522.48552 
L 135.571032 520.22828 
L 135.575033 520.22828 
L 135.575033 517.97104 
L 135.619381 517.97104 
L 135.619381 515.7138 
L 135.623755 515.7138 
L 135.623755 513.45656 
L 135.820744 513.45656 
L 135.820744 511.19932 
L 135.822286 511.19932 
L 135.822286 508.94208 
L 135.961727 508.94208 
L 135.961727 506.68484 
L 135.964874 506.68484 
L 135.964874 504.4276 
L 136.775902 504.4276 
L 136.775902 502.17036 
L 136.776101 502.17036 
L 136.776101 499.91312 
L 136.779403 499.91312 
L 136.779403 497.65588 
L 136.779814 497.65588 
L 136.779814 495.39864 
L 136.814757 495.39864 
L 136.814757 493.1414 
L 136.815907 493.1414 
L 136.815907 490.88416 
L 136.82914 490.88416 
L 136.82914 488.62692 
L 136.830476 488.62692 
L 136.830476 486.36968 
L 136.845847 486.36968 
L 136.845847 484.11244 
L 136.847395 484.11244 
L 136.847395 481.8552 
" clip-path="url(#p4a5da5cf9c)" style="fill: none; stroke: #ff7c00; stroke-width: 1.5; stroke-linecap: round"/>
   </g>
   <g id="line2d_44">
    <path d="M 64.700444 617.2896 
L 64.737618 614.634024 
L 66.783575 614.634024 
L 66.871299 606.667294 
L 66.896076 606.667294 
L 67.002508 601.356141 
L 67.040851 601.356141 
L 67.140511 597.372776 
L 67.189558 597.372776 
L 67.252275 594.7172 
L 67.308768 594.7172 
L 67.380526 592.061624 
L 68.296551 592.061624 
L 68.372598 588.742153 
L 68.463344 588.742153 
L 68.538247 584.758788 
L 69.439947 584.758788 
L 69.522577 572.1448 
L 69.551344 572.1448 
L 69.632946 568.161435 
L 69.675619 568.161435 
L 69.783919 564.178071 
L 69.789074 564.178071 
L 69.851349 562.186388 
L 69.912772 562.186388 
L 69.918804 560.8586 
L 71.213306 560.8586 
L 71.314562 554.883553 
L 71.341345 554.883553 
L 71.452013 549.5724 
L 71.490903 549.5724 
L 71.494739 548.244612 
L 72.636728 548.244612 
L 72.722578 540.277882 
L 72.754967 540.277882 
L 72.847951 536.294518 
L 72.896937 536.294518 
L 72.901833 534.966729 
L 73.532564 534.966729 
L 73.62735 520.361059 
L 73.656497 520.361059 
L 73.737726 516.377694 
L 73.779737 516.377694 
L 73.890624 512.394329 
L 73.945763 512.394329 
L 74.016661 509.738753 
L 74.080778 509.738753 
L 74.087061 508.410965 
L 82.38705 508.410965 
L 82.474413 501.772024 
L 83.58647 501.772024 
L 83.687968 496.460871 
L 83.724591 496.460871 
L 83.728191 495.133082 
L 92.863631 495.133082 
L 92.923083 492.477506 
L 92.976177 492.477506 
L 92.981367 491.149718 
L 93.385782 491.149718 
L 93.405894 488.494141 
L 98.180511 488.494141 
L 98.246994 484.510776 
L 98.615325 484.510776 
L 98.616013 483.182988 
L 99.683446 483.182988 
L 99.685377 481.8552 
L 99.685377 481.8552 
" clip-path="url(#p4a5da5cf9c)" style="fill: none; stroke: #1ac938; stroke-width: 1.5; stroke-linecap: round"/>
   </g>
   <g id="line2d_45">
    <path d="M 64.700442 617.2896 
L 64.737617 614.438349 
L 67.189558 614.438349 
L 67.292687 605.884598 
L 67.308766 605.884598 
L 67.394534 597.330846 
L 67.425759 597.330846 
L 67.508567 593.053971 
L 67.549955 593.053971 
L 67.603348 590.20272 
L 68.906668 590.20272 
L 68.909523 588.777095 
L 81.361321 588.777095 
L 81.37896 584.500219 
L 82.507021 584.500219 
L 82.585661 582.361781 
L 82.631765 582.361781 
L 82.742756 577.372093 
L 82.797722 577.372093 
L 82.868229 574.520842 
L 83.473228 574.520842 
L 83.562755 560.264589 
L 83.58647 560.264589 
L 83.687968 554.562088 
L 83.724591 554.562088 
L 83.728191 553.136463 
L 92.863631 553.136463 
L 92.92308 550.285213 
L 92.976177 550.285213 
L 92.98137 548.859587 
L 93.385782 548.859587 
L 93.46341 543.157086 
L 94.39492 543.157086 
L 94.499597 538.880211 
L 94.551842 538.880211 
L 94.619295 536.02896 
L 96.512164 536.02896 
L 96.55206 533.890522 
L 96.740493 533.890522 
L 96.850903 523.911145 
L 96.876141 523.911145 
L 96.942168 518.921457 
L 97.057247 518.921457 
L 97.100953 517.495832 
L 97.732117 517.495832 
L 97.811395 513.218956 
L 97.854147 513.218956 
L 97.911505 510.367705 
L 98.042531 510.367705 
L 98.143765 504.665204 
L 98.176901 504.665204 
L 98.176901 503.952392 
L 99.609506 503.952392 
L 99.646508 499.675516 
L 99.793615 499.675516 
L 99.828023 497.537078 
L 102.483551 497.537078 
L 102.514268 486.844888 
L 103.989561 486.844888 
L 104.097995 481.8552 
L 104.097995 481.8552 
" clip-path="url(#p4a5da5cf9c)" style="fill: none; stroke: #e8000b; stroke-width: 1.5; stroke-linecap: round"/>
   </g>
   <g id="patch_12">
    <path d="M 60.47993 617.2896 
L 60.47993 481.8552 
" style="fill: none; stroke: #ffffff; stroke-width: 1.25; stroke-linejoin: miter; stroke-linecap: square"/>
   </g>
   <g id="patch_13">
    <path d="M 60.47993 617.2896 
L 153.3312 617.2896 
" style="fill: none; stroke: #ffffff; stroke-width: 1.25; stroke-linejoin: miter; stroke-linecap: square"/>
   </g>
   <g id="text_33">
    <!-- Attribute = Equatorial -->
    <g style="fill: #262626" transform="translate(157.096225 504.6144) rotate(-270) scale(0.096 -0.096)">
     <defs>
      <path id="ArialMT-45" d="M 506 0 
L 506 4581 
L 3819 4581 
L 3819 4041 
L 1113 4041 
L 1113 2638 
L 3647 2638 
L 3647 2100 
L 1113 2100 
L 1113 541 
L 3925 541 
L 3925 0 
L 506 0 
z
" transform="scale(0.015625)"/>
      <path id="ArialMT-71" d="M 2538 -1272 
L 2538 353 
Q 2406 169 2170 47 
Q 1934 -75 1669 -75 
Q 1078 -75 651 397 
Q 225 869 225 1691 
Q 225 2191 398 2587 
Q 572 2984 901 3189 
Q 1231 3394 1625 3394 
Q 2241 3394 2594 2875 
L 2594 3319 
L 3100 3319 
L 3100 -1272 
L 2538 -1272 
z
M 803 1669 
Q 803 1028 1072 708 
Q 1341 388 1716 388 
Q 2075 388 2334 692 
Q 2594 997 2594 1619 
Q 2594 2281 2320 2615 
Q 2047 2950 1678 2950 
Q 1313 2950 1058 2639 
Q 803 2328 803 1669 
z
" transform="scale(0.015625)"/>
     </defs>
     <use xlink:href="#ArialMT-41"/>
     <use xlink:href="#ArialMT-74" x="66.699219"/>
     <use xlink:href="#ArialMT-74" x="94.482422"/>
     <use xlink:href="#ArialMT-72" x="122.265625"/>
     <use xlink:href="#ArialMT-69" x="155.566406"/>
     <use xlink:href="#ArialMT-62" x="177.783203"/>
     <use xlink:href="#ArialMT-75" x="233.398438"/>
     <use xlink:href="#ArialMT-74" x="289.013672"/>
     <use xlink:href="#ArialMT-65" x="316.796875"/>
     <use xlink:href="#ArialMT-20" x="372.412109"/>
     <use xlink:href="#ArialMT-3d" x="400.195312"/>
     <use xlink:href="#ArialMT-20" x="458.59375"/>
     <use xlink:href="#ArialMT-45" x="486.376953"/>
     <use xlink:href="#ArialMT-71" x="553.076172"/>
     <use xlink:href="#ArialMT-75" x="608.691406"/>
     <use xlink:href="#ArialMT-61" x="664.306641"/>
     <use xlink:href="#ArialMT-74" x="719.921875"/>
     <use xlink:href="#ArialMT-6f" x="747.705078"/>
     <use xlink:href="#ArialMT-72" x="803.320312"/>
     <use xlink:href="#ArialMT-69" x="836.621094"/>
     <use xlink:href="#ArialMT-61" x="858.837891"/>
     <use xlink:href="#ArialMT-6c" x="914.453125"/>
    </g>
   </g>
  </g>
  <g id="axes_5">
   <g id="patch_14">
    <path d="M 60.47993 770.292 
L 153.3312 770.292 
L 153.3312 634.8576 
L 60.47993 634.8576 
z
" style="fill: #eaeaf2"/>
   </g>
   <g id="matplotlib.axis_9">
    <g id="xtick_9">
     <g id="line2d_46">
      <path d="M 95.04652 770.292 
L 95.04652 634.8576 
" clip-path="url(#p27a4d99d94)" style="fill: none; stroke: #ffffff; stroke-linecap: round"/>
     </g>
     <g id="text_34">
      <!-- 50 -->
      <g style="fill: #262626" transform="translate(90.152895 786.090875) scale(0.088 -0.088)">
       <defs>
        <path id="ArialMT-35" d="M 266 1200 
L 856 1250 
Q 922 819 1161 601 
Q 1400 384 1738 384 
Q 2144 384 2425 690 
Q 2706 997 2706 1503 
Q 2706 1984 2436 2262 
Q 2166 2541 1728 2541 
Q 1456 2541 1237 2417 
Q 1019 2294 894 2097 
L 366 2166 
L 809 4519 
L 3088 4519 
L 3088 3981 
L 1259 3981 
L 1013 2750 
Q 1425 3038 1878 3038 
Q 2478 3038 2890 2622 
Q 3303 2206 3303 1553 
Q 3303 931 2941 478 
Q 2500 -78 1738 -78 
Q 1113 -78 717 272 
Q 322 622 266 1200 
z
" transform="scale(0.015625)"/>
       </defs>
       <use xlink:href="#ArialMT-35"/>
       <use xlink:href="#ArialMT-30" x="55.615234"/>
      </g>
     </g>
    </g>
    <g id="xtick_10">
     <g id="line2d_47">
      <path d="M 137.143402 770.292 
L 137.143402 634.8576 
" clip-path="url(#p27a4d99d94)" style="fill: none; stroke: #ffffff; stroke-linecap: round"/>
     </g>
     <g id="text_35">
      <!-- 100 -->
      <g style="fill: #262626" transform="translate(129.802964 786.090875) scale(0.088 -0.088)">
       <use xlink:href="#ArialMT-31"/>
       <use xlink:href="#ArialMT-30" x="55.615234"/>
       <use xlink:href="#ArialMT-30" x="111.230469"/>
      </g>
     </g>
    </g>
    <g id="text_36">
     <!-- RTT -->
     <g style="fill: #262626" transform="translate(97.659565 798.711375) scale(0.096 -0.096)">
      <defs>
       <path id="ArialMT-52" d="M 503 0 
L 503 4581 
L 2534 4581 
Q 3147 4581 3465 4457 
Q 3784 4334 3975 4021 
Q 4166 3709 4166 3331 
Q 4166 2844 3850 2509 
Q 3534 2175 2875 2084 
Q 3116 1969 3241 1856 
Q 3506 1613 3744 1247 
L 4541 0 
L 3778 0 
L 3172 953 
Q 2906 1366 2734 1584 
Q 2563 1803 2427 1890 
Q 2291 1978 2150 2013 
Q 2047 2034 1813 2034 
L 1109 2034 
L 1109 0 
L 503 0 
z
M 1109 2559 
L 2413 2559 
Q 2828 2559 3062 2645 
Q 3297 2731 3419 2920 
Q 3541 3109 3541 3331 
Q 3541 3656 3305 3865 
Q 3069 4075 2559 4075 
L 1109 4075 
L 1109 2559 
z
" transform="scale(0.015625)"/>
       <path id="ArialMT-54" d="M 1659 0 
L 1659 4041 
L 150 4041 
L 150 4581 
L 3781 4581 
L 3781 4041 
L 2266 4041 
L 2266 0 
L 1659 0 
z
" transform="scale(0.015625)"/>
      </defs>
      <use xlink:href="#ArialMT-52"/>
      <use xlink:href="#ArialMT-54" x="70.466797"/>
      <use xlink:href="#ArialMT-54" x="131.550781"/>
     </g>
    </g>
   </g>
   <g id="matplotlib.axis_10">
    <g id="ytick_25">
     <g id="line2d_48">
      <path d="M 60.47993 770.292 
L 153.3312 770.292 
" clip-path="url(#p27a4d99d94)" style="fill: none; stroke: #ffffff; stroke-linecap: round"/>
     </g>
     <g id="text_37">
      <!-- 0.0 -->
      <g style="fill: #262626" transform="translate(38.74793 773.441438) scale(0.088 -0.088)">
       <use xlink:href="#ArialMT-30"/>
       <use xlink:href="#ArialMT-2e" x="55.615234"/>
       <use xlink:href="#ArialMT-30" x="83.398438"/>
      </g>
     </g>
    </g>
    <g id="ytick_26">
     <g id="line2d_49">
      <path d="M 60.47993 743.20512 
L 153.3312 743.20512 
" clip-path="url(#p27a4d99d94)" style="fill: none; stroke: #ffffff; stroke-linecap: round"/>
     </g>
     <g id="text_38">
      <!-- 0.2 -->
      <g style="fill: #262626" transform="translate(38.74793 746.354558) scale(0.088 -0.088)">
       <use xlink:href="#ArialMT-30"/>
       <use xlink:href="#ArialMT-2e" x="55.615234"/>
       <use xlink:href="#ArialMT-32" x="83.398438"/>
      </g>
     </g>
    </g>
    <g id="ytick_27">
     <g id="line2d_50">
      <path d="M 60.47993 716.11824 
L 153.3312 716.11824 
" clip-path="url(#p27a4d99d94)" style="fill: none; stroke: #ffffff; stroke-linecap: round"/>
     </g>
     <g id="text_39">
      <!-- 0.4 -->
      <g style="fill: #262626" transform="translate(38.74793 719.267677) scale(0.088 -0.088)">
       <use xlink:href="#ArialMT-30"/>
       <use xlink:href="#ArialMT-2e" x="55.615234"/>
       <use xlink:href="#ArialMT-34" x="83.398438"/>
      </g>
     </g>
    </g>
    <g id="ytick_28">
     <g id="line2d_51">
      <path d="M 60.47993 689.03136 
L 153.3312 689.03136 
" clip-path="url(#p27a4d99d94)" style="fill: none; stroke: #ffffff; stroke-linecap: round"/>
     </g>
     <g id="text_40">
      <!-- 0.6 -->
      <g style="fill: #262626" transform="translate(38.74793 692.180798) scale(0.088 -0.088)">
       <use xlink:href="#ArialMT-30"/>
       <use xlink:href="#ArialMT-2e" x="55.615234"/>
       <use xlink:href="#ArialMT-36" x="83.398438"/>
      </g>
     </g>
    </g>
    <g id="ytick_29">
     <g id="line2d_52">
      <path d="M 60.47993 661.94448 
L 153.3312 661.94448 
" clip-path="url(#p27a4d99d94)" style="fill: none; stroke: #ffffff; stroke-linecap: round"/>
     </g>
     <g id="text_41">
      <!-- 0.8 -->
      <g style="fill: #262626" transform="translate(38.74793 665.093918) scale(0.088 -0.088)">
       <use xlink:href="#ArialMT-30"/>
       <use xlink:href="#ArialMT-2e" x="55.615234"/>
       <use xlink:href="#ArialMT-38" x="83.398438"/>
      </g>
     </g>
    </g>
    <g id="ytick_30">
     <g id="line2d_53">
      <path d="M 60.47993 634.8576 
L 153.3312 634.8576 
" clip-path="url(#p27a4d99d94)" style="fill: none; stroke: #ffffff; stroke-linecap: round"/>
     </g>
     <g id="text_42">
      <!-- 1.0 -->
      <g style="fill: #262626" transform="translate(38.74793 638.007038) scale(0.088 -0.088)">
       <use xlink:href="#ArialMT-31"/>
       <use xlink:href="#ArialMT-2e" x="55.615234"/>
       <use xlink:href="#ArialMT-30" x="83.398438"/>
      </g>
     </g>
    </g>
    <g id="text_43">
     <!-- Proportion -->
     <g style="fill: #262626" transform="translate(32.83993 724.7193) rotate(-90) scale(0.096 -0.096)">
      <use xlink:href="#ArialMT-50"/>
      <use xlink:href="#ArialMT-72" x="66.699219"/>
      <use xlink:href="#ArialMT-6f" x="100"/>
      <use xlink:href="#ArialMT-70" x="155.615234"/>
      <use xlink:href="#ArialMT-6f" x="211.230469"/>
      <use xlink:href="#ArialMT-72" x="266.845703"/>
      <use xlink:href="#ArialMT-74" x="300.146484"/>
      <use xlink:href="#ArialMT-69" x="327.929688"/>
      <use xlink:href="#ArialMT-6f" x="350.146484"/>
      <use xlink:href="#ArialMT-6e" x="405.761719"/>
     </g>
    </g>
   </g>
   <g id="line2d_54">
    <path d="M 65.126837 770.292 
L 65.126906 768.951065 
L 66.139257 768.951065 
L 66.224757 763.587327 
L 66.261024 763.587327 
L 66.3105 761.575925 
L 66.597538 761.575925 
L 66.691311 754.200784 
L 67.881628 754.200784 
L 67.955209 751.518915 
L 68.057612 751.518915 
L 68.121467 744.814242 
L 69.847754 744.814242 
L 69.955313 736.768634 
L 69.986743 736.768634 
L 70.095518 727.382091 
L 70.11207 727.382091 
L 70.206441 719.336483 
L 70.225436 719.336483 
L 70.298527 715.313679 
L 70.348476 715.313679 
L 70.414198 711.961343 
L 70.480683 711.961343 
L 70.55283 710.620408 
L 70.630552 710.620408 
L 70.734359 708.609006 
L 70.745287 708.609006 
L 70.81034 705.927137 
L 71.180691 705.927137 
L 71.180691 705.256669 
L 71.768035 705.256669 
L 71.830621 700.563398 
L 72.60093 700.563398 
L 72.60397 697.881529 
L 73.74754 697.881529 
L 73.813056 687.824519 
L 74.108316 687.824519 
L 74.201255 677.767509 
L 74.221735 677.767509 
L 74.320413 667.710499 
L 74.3583 667.710499 
L 74.40858 664.358162 
L 74.831673 664.358162 
L 74.865635 661.676293 
L 75.597934 661.676293 
L 75.690291 654.97162 
L 75.714384 654.97162 
L 75.714384 654.301152 
L 76.37757 654.301152 
L 76.439242 650.278349 
L 76.925297 650.278349 
L 77.027941 645.585077 
L 77.737568 645.585077 
L 77.737568 644.91461 
L 78.164179 644.91461 
L 78.199367 642.232741 
L 79.021114 642.232741 
L 79.021114 641.562273 
L 80.333128 641.562273 
L 80.379628 639.550871 
L 81.107382 639.550871 
L 81.162052 634.8576 
L 81.162052 634.8576 
" clip-path="url(#p27a4d99d94)" style="fill: none; stroke: #023eff; stroke-width: 1.5; stroke-linecap: round"/>
   </g>
   <g id="line2d_55">
    <path d="M 65.127424 770.292 
L 65.127699 768.989746 
L 66.678524 768.989746 
L 66.715565 767.687492 
L 67.98816 767.687492 
L 68.095859 755.316081 
L 68.113642 755.316081 
L 68.115449 754.013827 
L 68.25764 754.013827 
L 68.368574 744.89805 
L 68.403927 744.89805 
L 68.452172 742.293542 
L 70.010706 742.293542 
L 70.014115 740.991288 
L 70.204038 740.991288 
L 70.269326 738.386781 
L 70.334427 738.386781 
L 70.334427 737.735654 
L 70.720837 737.735654 
L 70.827822 728.619877 
L 70.859382 728.619877 
L 70.862589 727.317623 
L 71.307813 727.317623 
L 71.359573 723.410862 
L 71.682333 723.410862 
L 71.788831 714.295085 
L 71.794529 714.295085 
L 71.839761 709.737196 
L 72.096763 709.737196 
L 72.20509 705.830435 
L 72.258521 705.830435 
L 72.327013 703.225927 
L 73.780115 703.225927 
L 73.889715 696.714658 
L 74.060729 696.714658 
L 74.108698 690.854515 
L 74.233957 690.854515 
L 74.234564 689.552262 
L 74.962752 689.552262 
L 74.962827 688.250008 
L 75.104889 688.250008 
L 75.142227 679.134231 
L 75.593714 679.134231 
L 75.640369 672.622962 
L 76.396414 672.622962 
L 76.420706 669.367327 
L 77.004026 669.367327 
L 77.066612 661.553804 
L 77.475377 661.553804 
L 77.570517 655.042535 
L 77.99322 655.042535 
L 78.098886 651.135773 
L 78.10455 651.135773 
L 78.21232 647.229012 
L 79.062987 647.229012 
L 79.164534 640.066615 
L 79.189649 640.066615 
L 79.190355 638.764362 
L 79.783269 638.764362 
L 79.783287 637.462108 
L 80.208792 637.462108 
L 80.258577 634.8576 
L 80.258577 634.8576 
" clip-path="url(#p27a4d99d94)" style="fill: none; stroke: #ff7c00; stroke-width: 1.5; stroke-linecap: round"/>
   </g>
   <g id="line2d_56">
    <path d="M 76.135057 770.292 
L 76.224724 759.457248 
L 76.253808 759.457248 
L 76.335562 756.206822 
L 76.378063 756.206822 
L 76.488968 752.956397 
L 76.490534 752.956397 
L 76.552032 751.331184 
L 80.117438 751.331184 
L 80.218321 744.830333 
L 80.247629 744.830333 
L 80.327408 741.579907 
L 80.368037 741.579907 
L 80.473934 738.329482 
L 81.960869 738.329482 
L 82.06121 731.82863 
L 82.101835 731.82863 
L 82.101835 731.286893 
L 84.77736 731.286893 
L 84.826133 729.119942 
L 84.988352 729.119942 
L 85.080731 725.869517 
L 85.127375 725.869517 
L 85.187788 723.702566 
L 85.242808 723.702566 
L 85.313296 722.077354 
L 85.383074 722.077354 
L 85.457596 720.993878 
L 85.618536 720.993878 
L 85.712017 715.576502 
L 85.742676 715.576502 
L 85.784522 713.409552 
L 86.772603 713.409552 
L 86.868978 710.159126 
L 86.904516 710.159126 
L 86.995501 706.908701 
L 87.03974 706.908701 
L 87.044072 705.825226 
L 87.84083 705.825226 
L 87.84083 705.283488 
L 88.361013 705.283488 
L 88.464938 702.033062 
L 88.517762 702.033062 
L 88.586384 699.866112 
L 88.648859 699.866112 
L 88.72884 697.699162 
L 88.800783 697.699162 
L 88.891942 695.532211 
L 88.973215 695.532211 
L 88.981132 694.448736 
L 89.949811 694.448736 
L 90.039676 690.114835 
L 90.953457 690.114835 
L 91.047095 685.239197 
L 91.07477 685.239197 
L 91.185704 680.905296 
L 91.22374 680.905296 
L 91.319816 677.65487 
L 91.365982 677.65487 
L 91.370475 676.571395 
L 92.169051 676.571395 
L 92.2647 672.237494 
L 92.300164 672.237494 
L 92.3037 671.154019 
L 92.445296 671.154019 
L 92.510513 668.987069 
L 92.570316 668.987069 
L 92.647413 666.820118 
L 92.717156 666.820118 
L 92.798738 665.194906 
L 93.097728 665.194906 
L 93.166806 663.027955 
L 94.158109 663.027955 
L 94.159882 661.94448 
L 101.436027 661.94448 
L 101.545518 657.610579 
L 101.575564 657.610579 
L 101.663026 654.360154 
L 101.705135 654.360154 
L 101.812562 651.109728 
L 101.864495 651.109728 
L 101.92705 648.942778 
L 101.985543 648.942778 
L 102.059127 646.775827 
L 102.127839 646.775827 
L 102.206163 644.608877 
L 102.278411 644.608877 
L 102.292861 642.441926 
L 103.1132 642.441926 
L 103.209381 640.816714 
L 103.267344 640.816714 
L 103.337597 638.108026 
L 103.401418 638.108026 
L 103.485058 635.941075 
L 103.560922 635.941075 
L 103.568393 634.8576 
L 103.568393 634.8576 
" clip-path="url(#p27a4d99d94)" style="fill: none; stroke: #1ac938; stroke-width: 1.5; stroke-linecap: round"/>
   </g>
   <g id="line2d_57">
    <path d="M 76.135057 770.292 
L 76.224724 759.19082 
L 76.253806 759.19082 
L 76.335564 755.860466 
L 76.378063 755.860466 
L 76.488968 752.530111 
L 76.490534 752.530111 
L 76.552032 750.864934 
L 82.06121 750.864934 
L 82.101838 749.754816 
L 83.730154 749.754816 
L 83.765952 745.869403 
L 84.77736 745.869403 
L 84.873208 738.098577 
L 84.88943 738.098577 
L 84.991785 733.658105 
L 85.030204 733.658105 
L 85.131981 730.327751 
L 85.1828 730.327751 
L 85.248188 728.107515 
L 85.313296 728.107515 
L 85.383074 726.997397 
L 85.457596 726.997397 
L 85.457596 726.442338 
L 85.618536 726.442338 
L 85.712017 720.891748 
L 85.742676 720.891748 
L 85.784522 718.671511 
L 86.216498 718.671511 
L 86.325941 714.786098 
L 86.363059 714.786098 
L 86.453254 710.900685 
L 86.628111 710.900685 
L 86.718364 700.909623 
L 86.740438 700.909623 
L 86.832968 696.469151 
L 86.865731 696.469151 
L 86.95018 693.138797 
L 87.411913 693.138797 
L 87.504125 686.478089 
L 87.52688 686.478089 
L 87.618308 682.037616 
L 88.384944 682.037616 
L 88.413033 675.376908 
L 88.766145 675.376908 
L 88.836369 673.156672 
L 90.062097 673.156672 
L 90.155873 667.051023 
L 90.183462 667.051023 
L 90.291142 663.16561 
L 90.294636 663.16561 
L 90.381677 660.390315 
L 90.425444 660.390315 
L 90.53516 657.059961 
L 91.275029 657.059961 
L 91.380505 651.50937 
L 91.417652 651.50937 
L 91.520633 648.179016 
L 91.573646 648.179016 
L 91.642878 646.513839 
L 91.787882 646.513839 
L 91.787882 645.95878 
L 99.13298 645.95878 
L 99.220844 641.518308 
L 99.250112 641.518308 
L 99.286954 639.298072 
L 99.946806 639.298072 
L 100.033526 635.967718 
L 100.081525 635.967718 
L 100.133729 634.8576 
L 100.133729 634.8576 
" clip-path="url(#p27a4d99d94)" style="fill: none; stroke: #e8000b; stroke-width: 1.5; stroke-linecap: round"/>
   </g>
   <g id="patch_15">
    <path d="M 60.47993 770.292 
L 60.47993 634.8576 
" style="fill: none; stroke: #ffffff; stroke-width: 1.25; stroke-linejoin: miter; stroke-linecap: square"/>
   </g>
   <g id="patch_16">
    <path d="M 60.47993 770.292 
L 153.3312 770.292 
" style="fill: none; stroke: #ffffff; stroke-width: 1.25; stroke-linejoin: miter; stroke-linecap: square"/>
   </g>
   <g id="text_44">
    <!-- Attribute = IntraOrbital -->
    <g style="fill: #262626" transform="translate(157.096225 655.48905) rotate(-270) scale(0.096 -0.096)">
     <defs>
      <path id="ArialMT-49" d="M 597 0 
L 597 4581 
L 1203 4581 
L 1203 0 
L 597 0 
z
" transform="scale(0.015625)"/>
     </defs>
     <use xlink:href="#ArialMT-41"/>
     <use xlink:href="#ArialMT-74" x="66.699219"/>
     <use xlink:href="#ArialMT-74" x="94.482422"/>
     <use xlink:href="#ArialMT-72" x="122.265625"/>
     <use xlink:href="#ArialMT-69" x="155.566406"/>
     <use xlink:href="#ArialMT-62" x="177.783203"/>
     <use xlink:href="#ArialMT-75" x="233.398438"/>
     <use xlink:href="#ArialMT-74" x="289.013672"/>
     <use xlink:href="#ArialMT-65" x="316.796875"/>
     <use xlink:href="#ArialMT-20" x="372.412109"/>
     <use xlink:href="#ArialMT-3d" x="400.195312"/>
     <use xlink:href="#ArialMT-20" x="458.59375"/>
     <use xlink:href="#ArialMT-49" x="486.376953"/>
     <use xlink:href="#ArialMT-6e" x="514.160156"/>
     <use xlink:href="#ArialMT-74" x="569.775391"/>
     <use xlink:href="#ArialMT-72" x="597.558594"/>
     <use xlink:href="#ArialMT-61" x="630.859375"/>
     <use xlink:href="#ArialMT-4f" x="686.474609"/>
     <use xlink:href="#ArialMT-72" x="764.257812"/>
     <use xlink:href="#ArialMT-62" x="797.558594"/>
     <use xlink:href="#ArialMT-69" x="853.173828"/>
     <use xlink:href="#ArialMT-74" x="875.390625"/>
     <use xlink:href="#ArialMT-61" x="903.173828"/>
     <use xlink:href="#ArialMT-6c" x="958.789062"/>
    </g>
   </g>
  </g>
  <g id="legend_1">
   <g id="text_45">
    <!-- Direction -->
    <g style="fill: #262626" transform="translate(166.04325 382.586) scale(0.096 -0.096)">
     <defs>
      <path id="ArialMT-44" d="M 494 0 
L 494 4581 
L 2072 4581 
Q 2606 4581 2888 4516 
Q 3281 4425 3559 4188 
Q 3922 3881 4101 3404 
Q 4281 2928 4281 2316 
Q 4281 1794 4159 1391 
Q 4038 988 3847 723 
Q 3656 459 3429 307 
Q 3203 156 2883 78 
Q 2563 0 2147 0 
L 494 0 
z
M 1100 541 
L 2078 541 
Q 2531 541 2789 625 
Q 3047 709 3200 863 
Q 3416 1078 3536 1442 
Q 3656 1806 3656 2325 
Q 3656 3044 3420 3430 
Q 3184 3816 2847 3947 
Q 2603 4041 2063 4041 
L 1100 4041 
L 1100 541 
z
" transform="scale(0.015625)"/>
     </defs>
     <use xlink:href="#ArialMT-44"/>
     <use xlink:href="#ArialMT-69" x="72.216797"/>
     <use xlink:href="#ArialMT-72" x="94.433594"/>
     <use xlink:href="#ArialMT-65" x="127.734375"/>
     <use xlink:href="#ArialMT-63" x="183.349609"/>
     <use xlink:href="#ArialMT-74" x="233.349609"/>
     <use xlink:href="#ArialMT-69" x="261.132812"/>
     <use xlink:href="#ArialMT-6f" x="283.349609"/>
     <use xlink:href="#ArialMT-6e" x="338.964844"/>
    </g>
   </g>
   <g id="line2d_58">
    <path d="M 161.1645 392.112875 
L 169.9645 392.112875 
L 169.9645 392.112875 
L 178.7645 392.112875 
L 178.7645 392.112875 
" style="fill: none; stroke: #023eff; stroke-width: 1.5; stroke-linecap: round"/>
   </g>
   <g id="text_46">
    <!-- East -->
    <g style="fill: #262626" transform="translate(185.8045 395.192875) scale(0.088 -0.088)">
     <use xlink:href="#ArialMT-45"/>
     <use xlink:href="#ArialMT-61" x="66.699219"/>
     <use xlink:href="#ArialMT-73" x="122.314453"/>
     <use xlink:href="#ArialMT-74" x="172.314453"/>
    </g>
   </g>
   <g id="line2d_59">
    <path d="M 161.1645 404.56075 
L 169.9645 404.56075 
L 169.9645 404.56075 
L 178.7645 404.56075 
L 178.7645 404.56075 
" style="fill: none; stroke: #ff7c00; stroke-width: 1.5; stroke-linecap: round"/>
   </g>
   <g id="text_47">
    <!-- West -->
    <g style="fill: #262626" transform="translate(185.8045 407.64075) scale(0.088 -0.088)">
     <defs>
      <path id="ArialMT-57" d="M 1294 0 
L 78 4581 
L 700 4581 
L 1397 1578 
Q 1509 1106 1591 641 
Q 1766 1375 1797 1488 
L 2669 4581 
L 3400 4581 
L 4056 2263 
Q 4303 1400 4413 641 
Q 4500 1075 4641 1638 
L 5359 4581 
L 5969 4581 
L 4713 0 
L 4128 0 
L 3163 3491 
Q 3041 3928 3019 4028 
Q 2947 3713 2884 3491 
L 1913 0 
L 1294 0 
z
" transform="scale(0.015625)"/>
     </defs>
     <use xlink:href="#ArialMT-57"/>
     <use xlink:href="#ArialMT-65" x="92.634766"/>
     <use xlink:href="#ArialMT-73" x="148.25"/>
     <use xlink:href="#ArialMT-74" x="198.25"/>
    </g>
   </g>
   <g id="line2d_60">
    <path d="M 161.1645 417.008625 
L 169.9645 417.008625 
L 169.9645 417.008625 
L 178.7645 417.008625 
L 178.7645 417.008625 
" style="fill: none; stroke: #1ac938; stroke-width: 1.5; stroke-linecap: round"/>
   </g>
   <g id="text_48">
    <!-- North -->
    <g style="fill: #262626" transform="translate(185.8045 420.088625) scale(0.088 -0.088)">
     <defs>
      <path id="ArialMT-4e" d="M 488 0 
L 488 4581 
L 1109 4581 
L 3516 984 
L 3516 4581 
L 4097 4581 
L 4097 0 
L 3475 0 
L 1069 3600 
L 1069 0 
L 488 0 
z
" transform="scale(0.015625)"/>
      <path id="ArialMT-68" d="M 422 0 
L 422 4581 
L 984 4581 
L 984 2938 
Q 1378 3394 1978 3394 
Q 2347 3394 2619 3248 
Q 2891 3103 3008 2847 
Q 3125 2591 3125 2103 
L 3125 0 
L 2563 0 
L 2563 2103 
Q 2563 2525 2380 2717 
Q 2197 2909 1863 2909 
Q 1613 2909 1392 2779 
Q 1172 2650 1078 2428 
Q 984 2206 984 1816 
L 984 0 
L 422 0 
z
" transform="scale(0.015625)"/>
     </defs>
     <use xlink:href="#ArialMT-4e"/>
     <use xlink:href="#ArialMT-6f" x="72.216797"/>
     <use xlink:href="#ArialMT-72" x="127.832031"/>
     <use xlink:href="#ArialMT-74" x="161.132812"/>
     <use xlink:href="#ArialMT-68" x="188.916016"/>
    </g>
   </g>
   <g id="line2d_61">
    <path d="M 161.1645 429.4565 
L 169.9645 429.4565 
L 169.9645 429.4565 
L 178.7645 429.4565 
L 178.7645 429.4565 
" style="fill: none; stroke: #e8000b; stroke-width: 1.5; stroke-linecap: round"/>
   </g>
   <g id="text_49">
    <!-- South -->
    <g style="fill: #262626" transform="translate(185.8045 432.5365) scale(0.088 -0.088)">
     <defs>
      <path id="ArialMT-53" d="M 288 1472 
L 859 1522 
Q 900 1178 1048 958 
Q 1197 738 1509 602 
Q 1822 466 2213 466 
Q 2559 466 2825 569 
Q 3091 672 3220 851 
Q 3350 1031 3350 1244 
Q 3350 1459 3225 1620 
Q 3100 1781 2813 1891 
Q 2628 1963 1997 2114 
Q 1366 2266 1113 2400 
Q 784 2572 623 2826 
Q 463 3081 463 3397 
Q 463 3744 659 4045 
Q 856 4347 1234 4503 
Q 1613 4659 2075 4659 
Q 2584 4659 2973 4495 
Q 3363 4331 3572 4012 
Q 3781 3694 3797 3291 
L 3216 3247 
Q 3169 3681 2898 3903 
Q 2628 4125 2100 4125 
Q 1550 4125 1298 3923 
Q 1047 3722 1047 3438 
Q 1047 3191 1225 3031 
Q 1400 2872 2139 2705 
Q 2878 2538 3153 2413 
Q 3553 2228 3743 1945 
Q 3934 1663 3934 1294 
Q 3934 928 3725 604 
Q 3516 281 3123 101 
Q 2731 -78 2241 -78 
Q 1619 -78 1198 103 
Q 778 284 539 648 
Q 300 1013 288 1472 
z
" transform="scale(0.015625)"/>
     </defs>
     <use xlink:href="#ArialMT-53"/>
     <use xlink:href="#ArialMT-6f" x="66.699219"/>
     <use xlink:href="#ArialMT-75" x="122.314453"/>
     <use xlink:href="#ArialMT-74" x="177.929688"/>
     <use xlink:href="#ArialMT-68" x="205.712891"/>
    </g>
   </g>
  </g>
 </g>
 <defs>
  <clipPath id="p052fb18bec">
   <rect x="60.47993" y="22.848" width="92.85127" height="135.4344"/>
  </clipPath>
  <clipPath id="pf88929f991">
   <rect x="60.47993" y="175.8504" width="92.85127" height="135.4344"/>
  </clipPath>
  <clipPath id="pfc01d77104">
   <rect x="60.47993" y="328.8528" width="92.85127" height="135.4344"/>
  </clipPath>
  <clipPath id="p4a5da5cf9c">
   <rect x="60.47993" y="481.8552" width="92.85127" height="135.4344"/>
  </clipPath>
  <clipPath id="p27a4d99d94">
   <rect x="60.47993" y="634.8576" width="92.85127" height="135.4344"/>
  </clipPath>
 </defs>
</svg>
