<?xml version="1.0" encoding="utf-8" standalone="no"?>
<!DOCTYPE svg PUBLIC "-//W3C//DTD SVG 1.1//EN"
  "http://www.w3.org/Graphics/SVG/1.1/DTD/svg11.dtd">
<svg xmlns:xlink="http://www.w3.org/1999/xlink" width="707.22pt" height="324pt" viewBox="0 0 707.22 324" xmlns="http://www.w3.org/2000/svg" version="1.1">
 <metadata>
  <rdf:RDF xmlns:dc="http://purl.org/dc/elements/1.1/" xmlns:cc="http://creativecommons.org/ns#" xmlns:rdf="http://www.w3.org/1999/02/22-rdf-syntax-ns#">
   <cc:Work>
    <dc:type rdf:resource="http://purl.org/dc/dcmitype/StillImage"/>
    <dc:date>2024-08-22T13:53:22.916511</dc:date>
    <dc:format>image/svg+xml</dc:format>
    <dc:creator>
     <cc:Agent>
      <dc:title>Matplotlib v3.9.0, https://matplotlib.org/</dc:title>
     </cc:Agent>
    </dc:creator>
   </cc:Work>
  </rdf:RDF>
 </metadata>
 <defs>
  <style type="text/css">*{stroke-linejoin: round; stroke-linecap: butt}</style>
 </defs>
 <g id="figure_1">
  <g id="patch_1">
   <path d="M 0 324 
L 707.22 324 
L 707.22 0 
L 0 0 
z
" style="fill: #ffffff"/>
  </g>
  <g id="axes_1">
   <g id="patch_2">
    <path d="M 46.28362 144.44986 
L 175.14375 144.44986 
L 175.14375 22.848 
L 46.28362 22.848 
z
" style="fill: #eaeaf2"/>
   </g>
   <g id="matplotlib.axis_1">
    <g id="xtick_1"/>
    <g id="xtick_2"/>
    <g id="xtick_3"/>
    <g id="xtick_4"/>
    <g id="xtick_5"/>
   </g>
   <g id="matplotlib.axis_2">
    <g id="ytick_1">
     <g id="line2d_1">
      <path d="M 46.28362 125.730999 
L 175.14375 125.730999 
" clip-path="url(#p42ac69c498)" style="fill: none; stroke: #ffffff; stroke-linecap: round"/>
     </g>
     <g id="text_1">
      <!-- 0 -->
      <g style="fill: #262626" transform="translate(31.889995 128.880437) scale(0.088 -0.088)">
       <defs>
        <path id="ArialMT-30" d="M 266 2259 
Q 266 3072 433 3567 
Q 600 4063 929 4331 
Q 1259 4600 1759 4600 
Q 2128 4600 2406 4451 
Q 2684 4303 2865 4023 
Q 3047 3744 3150 3342 
Q 3253 2941 3253 2259 
Q 3253 1453 3087 958 
Q 2922 463 2592 192 
Q 2263 -78 1759 -78 
Q 1097 -78 719 397 
Q 266 969 266 2259 
z
M 844 2259 
Q 844 1131 1108 757 
Q 1372 384 1759 384 
Q 2147 384 2411 759 
Q 2675 1134 2675 2259 
Q 2675 3391 2411 3762 
Q 2147 4134 1753 4134 
Q 1366 4134 1134 3806 
Q 844 3388 844 2259 
z
" transform="scale(0.015625)"/>
       </defs>
       <use xlink:href="#ArialMT-30"/>
      </g>
     </g>
    </g>
    <g id="ytick_2">
     <g id="line2d_2">
      <path d="M 46.28362 101.392089 
L 175.14375 101.392089 
" clip-path="url(#p42ac69c498)" style="fill: none; stroke: #ffffff; stroke-linecap: round"/>
     </g>
     <g id="text_2">
      <!-- 5 -->
      <g style="fill: #262626" transform="translate(31.889995 104.541526) scale(0.088 -0.088)">
       <defs>
        <path id="ArialMT-35" d="M 266 1200 
L 856 1250 
Q 922 819 1161 601 
Q 1400 384 1738 384 
Q 2144 384 2425 690 
Q 2706 997 2706 1503 
Q 2706 1984 2436 2262 
Q 2166 2541 1728 2541 
Q 1456 2541 1237 2417 
Q 1019 2294 894 2097 
L 366 2166 
L 809 4519 
L 3088 4519 
L 3088 3981 
L 1259 3981 
L 1013 2750 
Q 1425 3038 1878 3038 
Q 2478 3038 2890 2622 
Q 3303 2206 3303 1553 
Q 3303 931 2941 478 
Q 2500 -78 1738 -78 
Q 1113 -78 717 272 
Q 322 622 266 1200 
z
" transform="scale(0.015625)"/>
       </defs>
       <use xlink:href="#ArialMT-35"/>
      </g>
     </g>
    </g>
    <g id="ytick_3">
     <g id="line2d_3">
      <path d="M 46.28362 77.053178 
L 175.14375 77.053178 
" clip-path="url(#p42ac69c498)" style="fill: none; stroke: #ffffff; stroke-linecap: round"/>
     </g>
     <g id="text_3">
      <!-- 10 -->
      <g style="fill: #262626" transform="translate(26.99637 80.202616) scale(0.088 -0.088)">
       <defs>
        <path id="ArialMT-31" d="M 2384 0 
L 1822 0 
L 1822 3584 
Q 1619 3391 1289 3197 
Q 959 3003 697 2906 
L 697 3450 
Q 1169 3672 1522 3987 
Q 1875 4303 2022 4600 
L 2384 4600 
L 2384 0 
z
" transform="scale(0.015625)"/>
       </defs>
       <use xlink:href="#ArialMT-31"/>
       <use xlink:href="#ArialMT-30" x="55.615234"/>
      </g>
     </g>
    </g>
    <g id="ytick_4">
     <g id="line2d_4">
      <path d="M 46.28362 52.714268 
L 175.14375 52.714268 
" clip-path="url(#p42ac69c498)" style="fill: none; stroke: #ffffff; stroke-linecap: round"/>
     </g>
     <g id="text_4">
      <!-- 15 -->
      <g style="fill: #262626" transform="translate(26.99637 55.863705) scale(0.088 -0.088)">
       <use xlink:href="#ArialMT-31"/>
       <use xlink:href="#ArialMT-35" x="55.615234"/>
      </g>
     </g>
    </g>
    <g id="ytick_5">
     <g id="line2d_5">
      <path d="M 46.28362 28.375357 
L 175.14375 28.375357 
" clip-path="url(#p42ac69c498)" style="fill: none; stroke: #ffffff; stroke-linecap: round"/>
     </g>
     <g id="text_5">
      <!-- 20 -->
      <g style="fill: #262626" transform="translate(26.99637 31.524795) scale(0.088 -0.088)">
       <defs>
        <path id="ArialMT-32" d="M 3222 541 
L 3222 0 
L 194 0 
Q 188 203 259 391 
Q 375 700 629 1000 
Q 884 1300 1366 1694 
Q 2113 2306 2375 2664 
Q 2638 3022 2638 3341 
Q 2638 3675 2398 3904 
Q 2159 4134 1775 4134 
Q 1369 4134 1125 3890 
Q 881 3647 878 3216 
L 300 3275 
Q 359 3922 746 4261 
Q 1134 4600 1788 4600 
Q 2447 4600 2831 4234 
Q 3216 3869 3216 3328 
Q 3216 3053 3103 2787 
Q 2991 2522 2730 2228 
Q 2469 1934 1863 1422 
Q 1356 997 1212 845 
Q 1069 694 975 541 
L 3222 541 
z
" transform="scale(0.015625)"/>
       </defs>
       <use xlink:href="#ArialMT-32"/>
       <use xlink:href="#ArialMT-30" x="55.615234"/>
      </g>
     </g>
    </g>
    <g id="text_6">
     <!-- Expected traffic (Gbps) -->
     <g style="fill: #262626" transform="translate(20.97587 132.64718) rotate(-90) scale(0.096 -0.096)">
      <defs>
       <path id="ArialMT-45" d="M 506 0 
L 506 4581 
L 3819 4581 
L 3819 4041 
L 1113 4041 
L 1113 2638 
L 3647 2638 
L 3647 2100 
L 1113 2100 
L 1113 541 
L 3925 541 
L 3925 0 
L 506 0 
z
" transform="scale(0.015625)"/>
       <path id="ArialMT-78" d="M 47 0 
L 1259 1725 
L 138 3319 
L 841 3319 
L 1350 2541 
Q 1494 2319 1581 2169 
Q 1719 2375 1834 2534 
L 2394 3319 
L 3066 3319 
L 1919 1756 
L 3153 0 
L 2463 0 
L 1781 1031 
L 1600 1309 
L 728 0 
L 47 0 
z
" transform="scale(0.015625)"/>
       <path id="ArialMT-70" d="M 422 -1272 
L 422 3319 
L 934 3319 
L 934 2888 
Q 1116 3141 1344 3267 
Q 1572 3394 1897 3394 
Q 2322 3394 2647 3175 
Q 2972 2956 3137 2557 
Q 3303 2159 3303 1684 
Q 3303 1175 3120 767 
Q 2938 359 2589 142 
Q 2241 -75 1856 -75 
Q 1575 -75 1351 44 
Q 1128 163 984 344 
L 984 -1272 
L 422 -1272 
z
M 931 1641 
Q 931 1000 1190 694 
Q 1450 388 1819 388 
Q 2194 388 2461 705 
Q 2728 1022 2728 1688 
Q 2728 2322 2467 2637 
Q 2206 2953 1844 2953 
Q 1484 2953 1207 2617 
Q 931 2281 931 1641 
z
" transform="scale(0.015625)"/>
       <path id="ArialMT-65" d="M 2694 1069 
L 3275 997 
Q 3138 488 2766 206 
Q 2394 -75 1816 -75 
Q 1088 -75 661 373 
Q 234 822 234 1631 
Q 234 2469 665 2931 
Q 1097 3394 1784 3394 
Q 2450 3394 2872 2941 
Q 3294 2488 3294 1666 
Q 3294 1616 3291 1516 
L 816 1516 
Q 847 969 1125 678 
Q 1403 388 1819 388 
Q 2128 388 2347 550 
Q 2566 713 2694 1069 
z
M 847 1978 
L 2700 1978 
Q 2663 2397 2488 2606 
Q 2219 2931 1791 2931 
Q 1403 2931 1139 2672 
Q 875 2413 847 1978 
z
" transform="scale(0.015625)"/>
       <path id="ArialMT-63" d="M 2588 1216 
L 3141 1144 
Q 3050 572 2676 248 
Q 2303 -75 1759 -75 
Q 1078 -75 664 370 
Q 250 816 250 1647 
Q 250 2184 428 2587 
Q 606 2991 970 3192 
Q 1334 3394 1763 3394 
Q 2303 3394 2647 3120 
Q 2991 2847 3088 2344 
L 2541 2259 
Q 2463 2594 2264 2762 
Q 2066 2931 1784 2931 
Q 1359 2931 1093 2626 
Q 828 2322 828 1663 
Q 828 994 1084 691 
Q 1341 388 1753 388 
Q 2084 388 2306 591 
Q 2528 794 2588 1216 
z
" transform="scale(0.015625)"/>
       <path id="ArialMT-74" d="M 1650 503 
L 1731 6 
Q 1494 -44 1306 -44 
Q 1000 -44 831 53 
Q 663 150 594 308 
Q 525 466 525 972 
L 525 2881 
L 113 2881 
L 113 3319 
L 525 3319 
L 525 4141 
L 1084 4478 
L 1084 3319 
L 1650 3319 
L 1650 2881 
L 1084 2881 
L 1084 941 
Q 1084 700 1114 631 
Q 1144 563 1211 522 
Q 1278 481 1403 481 
Q 1497 481 1650 503 
z
" transform="scale(0.015625)"/>
       <path id="ArialMT-64" d="M 2575 0 
L 2575 419 
Q 2259 -75 1647 -75 
Q 1250 -75 917 144 
Q 584 363 401 755 
Q 219 1147 219 1656 
Q 219 2153 384 2558 
Q 550 2963 881 3178 
Q 1213 3394 1622 3394 
Q 1922 3394 2156 3267 
Q 2391 3141 2538 2938 
L 2538 4581 
L 3097 4581 
L 3097 0 
L 2575 0 
z
M 797 1656 
Q 797 1019 1065 703 
Q 1334 388 1700 388 
Q 2069 388 2326 689 
Q 2584 991 2584 1609 
Q 2584 2291 2321 2609 
Q 2059 2928 1675 2928 
Q 1300 2928 1048 2622 
Q 797 2316 797 1656 
z
" transform="scale(0.015625)"/>
       <path id="ArialMT-20" transform="scale(0.015625)"/>
       <path id="ArialMT-72" d="M 416 0 
L 416 3319 
L 922 3319 
L 922 2816 
Q 1116 3169 1280 3281 
Q 1444 3394 1641 3394 
Q 1925 3394 2219 3213 
L 2025 2691 
Q 1819 2813 1613 2813 
Q 1428 2813 1281 2702 
Q 1134 2591 1072 2394 
Q 978 2094 978 1738 
L 978 0 
L 416 0 
z
" transform="scale(0.015625)"/>
       <path id="ArialMT-61" d="M 2588 409 
Q 2275 144 1986 34 
Q 1697 -75 1366 -75 
Q 819 -75 525 192 
Q 231 459 231 875 
Q 231 1119 342 1320 
Q 453 1522 633 1644 
Q 813 1766 1038 1828 
Q 1203 1872 1538 1913 
Q 2219 1994 2541 2106 
Q 2544 2222 2544 2253 
Q 2544 2597 2384 2738 
Q 2169 2928 1744 2928 
Q 1347 2928 1158 2789 
Q 969 2650 878 2297 
L 328 2372 
Q 403 2725 575 2942 
Q 747 3159 1072 3276 
Q 1397 3394 1825 3394 
Q 2250 3394 2515 3294 
Q 2781 3194 2906 3042 
Q 3031 2891 3081 2659 
Q 3109 2516 3109 2141 
L 3109 1391 
Q 3109 606 3145 398 
Q 3181 191 3288 0 
L 2700 0 
Q 2613 175 2588 409 
z
M 2541 1666 
Q 2234 1541 1622 1453 
Q 1275 1403 1131 1340 
Q 988 1278 909 1158 
Q 831 1038 831 891 
Q 831 666 1001 516 
Q 1172 366 1500 366 
Q 1825 366 2078 508 
Q 2331 650 2450 897 
Q 2541 1088 2541 1459 
L 2541 1666 
z
" transform="scale(0.015625)"/>
       <path id="ArialMT-66" d="M 556 0 
L 556 2881 
L 59 2881 
L 59 3319 
L 556 3319 
L 556 3672 
Q 556 4006 616 4169 
Q 697 4388 901 4523 
Q 1106 4659 1475 4659 
Q 1713 4659 2000 4603 
L 1916 4113 
Q 1741 4144 1584 4144 
Q 1328 4144 1222 4034 
Q 1116 3925 1116 3625 
L 1116 3319 
L 1763 3319 
L 1763 2881 
L 1116 2881 
L 1116 0 
L 556 0 
z
" transform="scale(0.015625)"/>
       <path id="ArialMT-69" d="M 425 3934 
L 425 4581 
L 988 4581 
L 988 3934 
L 425 3934 
z
M 425 0 
L 425 3319 
L 988 3319 
L 988 0 
L 425 0 
z
" transform="scale(0.015625)"/>
       <path id="ArialMT-28" d="M 1497 -1347 
Q 1031 -759 709 28 
Q 388 816 388 1659 
Q 388 2403 628 3084 
Q 909 3875 1497 4659 
L 1900 4659 
Q 1522 4009 1400 3731 
Q 1209 3300 1100 2831 
Q 966 2247 966 1656 
Q 966 153 1900 -1347 
L 1497 -1347 
z
" transform="scale(0.015625)"/>
       <path id="ArialMT-47" d="M 2638 1797 
L 2638 2334 
L 4578 2338 
L 4578 638 
Q 4131 281 3656 101 
Q 3181 -78 2681 -78 
Q 2006 -78 1454 211 
Q 903 500 622 1047 
Q 341 1594 341 2269 
Q 341 2938 620 3517 
Q 900 4097 1425 4378 
Q 1950 4659 2634 4659 
Q 3131 4659 3532 4498 
Q 3934 4338 4162 4050 
Q 4391 3763 4509 3300 
L 3963 3150 
Q 3859 3500 3706 3700 
Q 3553 3900 3268 4020 
Q 2984 4141 2638 4141 
Q 2222 4141 1919 4014 
Q 1616 3888 1430 3681 
Q 1244 3475 1141 3228 
Q 966 2803 966 2306 
Q 966 1694 1177 1281 
Q 1388 869 1791 669 
Q 2194 469 2647 469 
Q 3041 469 3416 620 
Q 3791 772 3984 944 
L 3984 1797 
L 2638 1797 
z
" transform="scale(0.015625)"/>
       <path id="ArialMT-62" d="M 941 0 
L 419 0 
L 419 4581 
L 981 4581 
L 981 2947 
Q 1338 3394 1891 3394 
Q 2197 3394 2470 3270 
Q 2744 3147 2920 2923 
Q 3097 2700 3197 2384 
Q 3297 2069 3297 1709 
Q 3297 856 2875 390 
Q 2453 -75 1863 -75 
Q 1275 -75 941 416 
L 941 0 
z
M 934 1684 
Q 934 1088 1097 822 
Q 1363 388 1816 388 
Q 2184 388 2453 708 
Q 2722 1028 2722 1663 
Q 2722 2313 2464 2622 
Q 2206 2931 1841 2931 
Q 1472 2931 1203 2611 
Q 934 2291 934 1684 
z
" transform="scale(0.015625)"/>
       <path id="ArialMT-73" d="M 197 991 
L 753 1078 
Q 800 744 1014 566 
Q 1228 388 1613 388 
Q 2000 388 2187 545 
Q 2375 703 2375 916 
Q 2375 1106 2209 1216 
Q 2094 1291 1634 1406 
Q 1016 1563 777 1677 
Q 538 1791 414 1992 
Q 291 2194 291 2438 
Q 291 2659 392 2848 
Q 494 3038 669 3163 
Q 800 3259 1026 3326 
Q 1253 3394 1513 3394 
Q 1903 3394 2198 3281 
Q 2494 3169 2634 2976 
Q 2775 2784 2828 2463 
L 2278 2388 
Q 2241 2644 2061 2787 
Q 1881 2931 1553 2931 
Q 1166 2931 1000 2803 
Q 834 2675 834 2503 
Q 834 2394 903 2306 
Q 972 2216 1119 2156 
Q 1203 2125 1616 2013 
Q 2213 1853 2448 1751 
Q 2684 1650 2818 1456 
Q 2953 1263 2953 975 
Q 2953 694 2789 445 
Q 2625 197 2315 61 
Q 2006 -75 1616 -75 
Q 969 -75 630 194 
Q 291 463 197 991 
z
" transform="scale(0.015625)"/>
       <path id="ArialMT-29" d="M 791 -1347 
L 388 -1347 
Q 1322 153 1322 1656 
Q 1322 2244 1188 2822 
Q 1081 3291 891 3722 
Q 769 4003 388 4659 
L 791 4659 
Q 1378 3875 1659 3084 
Q 1900 2403 1900 1659 
Q 1900 816 1576 28 
Q 1253 -759 791 -1347 
z
" transform="scale(0.015625)"/>
      </defs>
      <use xlink:href="#ArialMT-45"/>
      <use xlink:href="#ArialMT-78" x="66.699219"/>
      <use xlink:href="#ArialMT-70" x="116.699219"/>
      <use xlink:href="#ArialMT-65" x="172.314453"/>
      <use xlink:href="#ArialMT-63" x="227.929688"/>
      <use xlink:href="#ArialMT-74" x="277.929688"/>
      <use xlink:href="#ArialMT-65" x="305.712891"/>
      <use xlink:href="#ArialMT-64" x="361.328125"/>
      <use xlink:href="#ArialMT-20" x="416.943359"/>
      <use xlink:href="#ArialMT-74" x="444.726562"/>
      <use xlink:href="#ArialMT-72" x="472.509766"/>
      <use xlink:href="#ArialMT-61" x="505.810547"/>
      <use xlink:href="#ArialMT-66" x="561.425781"/>
      <use xlink:href="#ArialMT-66" x="587.458984"/>
      <use xlink:href="#ArialMT-69" x="615.242188"/>
      <use xlink:href="#ArialMT-63" x="637.458984"/>
      <use xlink:href="#ArialMT-20" x="687.458984"/>
      <use xlink:href="#ArialMT-28" x="715.242188"/>
      <use xlink:href="#ArialMT-47" x="748.542969"/>
      <use xlink:href="#ArialMT-62" x="826.326172"/>
      <use xlink:href="#ArialMT-70" x="881.941406"/>
      <use xlink:href="#ArialMT-73" x="937.556641"/>
      <use xlink:href="#ArialMT-29" x="987.556641"/>
     </g>
    </g>
   </g>
   <g id="patch_3">
    <path d="M 48.860823 125.730999 
L 69.478443 125.730999 
L 69.478443 28.375357 
L 48.860823 28.375357 
z
" clip-path="url(#p42ac69c498)" style="fill: #8a42cb; stroke: #ffffff; stroke-linejoin: miter"/>
   </g>
   <g id="patch_4">
    <path d="M 74.632849 125.730999 
L 95.25047 125.730999 
L 95.25047 75.106065 
L 74.632849 75.106065 
z
" clip-path="url(#p42ac69c498)" style="fill: #224fdf; stroke: #ffffff; stroke-linejoin: miter"/>
   </g>
   <g id="patch_5">
    <path d="M 100.404875 125.730999 
L 121.022496 125.730999 
L 121.022496 97.303152 
L 100.404875 97.303152 
z
" clip-path="url(#p42ac69c498)" style="fill: #df7d20; stroke: #ffffff; stroke-linejoin: miter"/>
   </g>
   <g id="line2d_6">
    <path d="M 56.59243 28.375357 
L 61.746836 28.375357 
M 59.169633 28.375357 
L 59.169633 28.375357 
M 56.59243 28.375357 
L 61.746836 28.375357 
" clip-path="url(#p42ac69c498)" style="fill: none; stroke: #424242; stroke-width: 2.25; stroke-linecap: round"/>
   </g>
   <g id="line2d_7">
    <path d="M 82.364456 84.649704 
L 87.518862 84.649704 
M 84.941659 84.649704 
L 84.941659 65.562426 
M 82.364456 65.562426 
L 87.518862 65.562426 
" clip-path="url(#p42ac69c498)" style="fill: none; stroke: #424242; stroke-width: 2.25; stroke-linecap: round"/>
   </g>
   <g id="line2d_8">
    <path d="M 108.136483 107.012368 
L 113.290888 107.012368 
M 110.713685 107.012368 
L 110.713685 87.593935 
M 108.136483 87.593935 
L 113.290888 87.593935 
" clip-path="url(#p42ac69c498)" style="fill: none; stroke: #424242; stroke-width: 2.25; stroke-linecap: round"/>
   </g>
   <g id="patch_6">
    <path d="M 46.28362 144.44986 
L 46.28362 22.848 
" style="fill: none; stroke: #ffffff; stroke-width: 1.25; stroke-linejoin: miter; stroke-linecap: square"/>
   </g>
   <g id="patch_7">
    <path d="M 46.28362 144.44986 
L 175.14375 144.44986 
" style="fill: none; stroke: #ffffff; stroke-width: 1.25; stroke-linejoin: miter; stroke-linecap: square"/>
   </g>
   <g id="text_7">
    <!-- imax = OFF -->
    <g style="fill: #262626" transform="translate(85.512185 16.848) scale(0.096 -0.096)">
     <defs>
      <path id="ArialMT-6d" d="M 422 0 
L 422 3319 
L 925 3319 
L 925 2853 
Q 1081 3097 1340 3245 
Q 1600 3394 1931 3394 
Q 2300 3394 2536 3241 
Q 2772 3088 2869 2813 
Q 3263 3394 3894 3394 
Q 4388 3394 4653 3120 
Q 4919 2847 4919 2278 
L 4919 0 
L 4359 0 
L 4359 2091 
Q 4359 2428 4304 2576 
Q 4250 2725 4106 2815 
Q 3963 2906 3769 2906 
Q 3419 2906 3187 2673 
Q 2956 2441 2956 1928 
L 2956 0 
L 2394 0 
L 2394 2156 
Q 2394 2531 2256 2718 
Q 2119 2906 1806 2906 
Q 1569 2906 1367 2781 
Q 1166 2656 1075 2415 
Q 984 2175 984 1722 
L 984 0 
L 422 0 
z
" transform="scale(0.015625)"/>
      <path id="ArialMT-3d" d="M 3381 2694 
L 356 2694 
L 356 3219 
L 3381 3219 
L 3381 2694 
z
M 3381 1303 
L 356 1303 
L 356 1828 
L 3381 1828 
L 3381 1303 
z
" transform="scale(0.015625)"/>
      <path id="ArialMT-4f" d="M 309 2231 
Q 309 3372 921 4017 
Q 1534 4663 2503 4663 
Q 3138 4663 3647 4359 
Q 4156 4056 4423 3514 
Q 4691 2972 4691 2284 
Q 4691 1588 4409 1038 
Q 4128 488 3612 205 
Q 3097 -78 2500 -78 
Q 1853 -78 1343 234 
Q 834 547 571 1087 
Q 309 1628 309 2231 
z
M 934 2222 
Q 934 1394 1379 917 
Q 1825 441 2497 441 
Q 3181 441 3623 922 
Q 4066 1403 4066 2288 
Q 4066 2847 3877 3264 
Q 3688 3681 3323 3911 
Q 2959 4141 2506 4141 
Q 1863 4141 1398 3698 
Q 934 3256 934 2222 
z
" transform="scale(0.015625)"/>
      <path id="ArialMT-46" d="M 525 0 
L 525 4581 
L 3616 4581 
L 3616 4041 
L 1131 4041 
L 1131 2622 
L 3281 2622 
L 3281 2081 
L 1131 2081 
L 1131 0 
L 525 0 
z
" transform="scale(0.015625)"/>
     </defs>
     <use xlink:href="#ArialMT-69"/>
     <use xlink:href="#ArialMT-6d" x="22.216797"/>
     <use xlink:href="#ArialMT-61" x="105.517578"/>
     <use xlink:href="#ArialMT-78" x="161.132812"/>
     <use xlink:href="#ArialMT-20" x="211.132812"/>
     <use xlink:href="#ArialMT-3d" x="238.916016"/>
     <use xlink:href="#ArialMT-20" x="297.314453"/>
     <use xlink:href="#ArialMT-4f" x="325.097656"/>
     <use xlink:href="#ArialMT-46" x="402.880859"/>
     <use xlink:href="#ArialMT-46" x="463.964844"/>
    </g>
   </g>
  </g>
  <g id="axes_2">
   <g id="patch_8">
    <path d="M 194.47277 144.44986 
L 323.3329 144.44986 
L 323.3329 22.848 
L 194.47277 22.848 
z
" style="fill: #eaeaf2"/>
   </g>
   <g id="matplotlib.axis_3">
    <g id="xtick_6"/>
    <g id="xtick_7"/>
    <g id="xtick_8"/>
    <g id="xtick_9"/>
    <g id="xtick_10"/>
   </g>
   <g id="matplotlib.axis_4">
    <g id="ytick_6">
     <g id="line2d_9">
      <path d="M 194.47277 125.730999 
L 323.3329 125.730999 
" clip-path="url(#p7a0b4471da)" style="fill: none; stroke: #ffffff; stroke-linecap: round"/>
     </g>
    </g>
    <g id="ytick_7">
     <g id="line2d_10">
      <path d="M 194.47277 101.392089 
L 323.3329 101.392089 
" clip-path="url(#p7a0b4471da)" style="fill: none; stroke: #ffffff; stroke-linecap: round"/>
     </g>
    </g>
    <g id="ytick_8">
     <g id="line2d_11">
      <path d="M 194.47277 77.053178 
L 323.3329 77.053178 
" clip-path="url(#p7a0b4471da)" style="fill: none; stroke: #ffffff; stroke-linecap: round"/>
     </g>
    </g>
    <g id="ytick_9">
     <g id="line2d_12">
      <path d="M 194.47277 52.714268 
L 323.3329 52.714268 
" clip-path="url(#p7a0b4471da)" style="fill: none; stroke: #ffffff; stroke-linecap: round"/>
     </g>
    </g>
    <g id="ytick_10">
     <g id="line2d_13">
      <path d="M 194.47277 28.375357 
L 323.3329 28.375357 
" clip-path="url(#p7a0b4471da)" style="fill: none; stroke: #ffffff; stroke-linecap: round"/>
     </g>
    </g>
   </g>
   <g id="patch_9">
    <path d="M 197.049972 125.730999 
L 217.667593 125.730999 
L 217.667593 93.344022 
L 197.049972 93.344022 
z
" clip-path="url(#p7a0b4471da)" style="fill: #8a42cb; stroke: #ffffff; stroke-linejoin: miter"/>
   </g>
   <g id="patch_10">
    <path d="M 222.821999 125.730999 
L 243.439619 125.730999 
L 243.439619 106.512995 
L 222.821999 106.512995 
z
" clip-path="url(#p7a0b4471da)" style="fill: #224fdf; stroke: #ffffff; stroke-linejoin: miter"/>
   </g>
   <g id="patch_11">
    <path d="M 248.594025 125.730999 
L 269.211645 125.730999 
L 269.211645 116.754809 
L 248.594025 116.754809 
z
" clip-path="url(#p7a0b4471da)" style="fill: #df7d20; stroke: #ffffff; stroke-linejoin: miter"/>
   </g>
   <g id="line2d_14">
    <path d="M 204.78158 113.941389 
L 209.935986 113.941389 
M 207.358783 113.941389 
L 207.358783 72.746655 
M 204.78158 72.746655 
L 209.935986 72.746655 
" clip-path="url(#p7a0b4471da)" style="fill: none; stroke: #424242; stroke-width: 2.25; stroke-linecap: round"/>
   </g>
   <g id="line2d_15">
    <path d="M 230.553606 129.388142 
L 235.708012 129.388142 
M 233.130809 129.388142 
L 233.130809 83.637848 
M 230.553606 83.637848 
L 235.708012 83.637848 
" clip-path="url(#p7a0b4471da)" style="fill: none; stroke: #424242; stroke-width: 2.25; stroke-linecap: round"/>
   </g>
   <g id="line2d_16">
    <path d="M 256.325632 130.755024 
L 261.480038 130.755024 
M 258.902835 130.755024 
L 258.902835 102.754594 
M 256.325632 102.754594 
L 261.480038 102.754594 
" clip-path="url(#p7a0b4471da)" style="fill: none; stroke: #424242; stroke-width: 2.25; stroke-linecap: round"/>
   </g>
   <g id="patch_12">
    <path d="M 194.47277 144.44986 
L 194.47277 22.848 
" style="fill: none; stroke: #ffffff; stroke-width: 1.25; stroke-linejoin: miter; stroke-linecap: square"/>
   </g>
   <g id="patch_13">
    <path d="M 194.47277 144.44986 
L 323.3329 144.44986 
" style="fill: none; stroke: #ffffff; stroke-width: 1.25; stroke-linejoin: miter; stroke-linecap: square"/>
   </g>
   <g id="text_8">
    <!-- imax = 3 -->
    <g style="fill: #262626" transform="translate(240.629085 16.848) scale(0.096 -0.096)">
     <defs>
      <path id="ArialMT-33" d="M 269 1209 
L 831 1284 
Q 928 806 1161 595 
Q 1394 384 1728 384 
Q 2125 384 2398 659 
Q 2672 934 2672 1341 
Q 2672 1728 2419 1979 
Q 2166 2231 1775 2231 
Q 1616 2231 1378 2169 
L 1441 2663 
Q 1497 2656 1531 2656 
Q 1891 2656 2178 2843 
Q 2466 3031 2466 3422 
Q 2466 3731 2256 3934 
Q 2047 4138 1716 4138 
Q 1388 4138 1169 3931 
Q 950 3725 888 3313 
L 325 3413 
Q 428 3978 793 4289 
Q 1159 4600 1703 4600 
Q 2078 4600 2393 4439 
Q 2709 4278 2876 4000 
Q 3044 3722 3044 3409 
Q 3044 3113 2884 2869 
Q 2725 2625 2413 2481 
Q 2819 2388 3044 2092 
Q 3269 1797 3269 1353 
Q 3269 753 2831 336 
Q 2394 -81 1725 -81 
Q 1122 -81 723 278 
Q 325 638 269 1209 
z
" transform="scale(0.015625)"/>
     </defs>
     <use xlink:href="#ArialMT-69"/>
     <use xlink:href="#ArialMT-6d" x="22.216797"/>
     <use xlink:href="#ArialMT-61" x="105.517578"/>
     <use xlink:href="#ArialMT-78" x="161.132812"/>
     <use xlink:href="#ArialMT-20" x="211.132812"/>
     <use xlink:href="#ArialMT-3d" x="238.916016"/>
     <use xlink:href="#ArialMT-20" x="297.314453"/>
     <use xlink:href="#ArialMT-33" x="325.097656"/>
    </g>
   </g>
  </g>
  <g id="axes_3">
   <g id="patch_14">
    <path d="M 342.66192 144.44986 
L 471.52205 144.44986 
L 471.52205 22.848 
L 342.66192 22.848 
z
" style="fill: #eaeaf2"/>
   </g>
   <g id="matplotlib.axis_5">
    <g id="xtick_11"/>
    <g id="xtick_12"/>
    <g id="xtick_13"/>
    <g id="xtick_14"/>
    <g id="xtick_15"/>
   </g>
   <g id="matplotlib.axis_6">
    <g id="ytick_11">
     <g id="line2d_17">
      <path d="M 342.66192 125.730999 
L 471.52205 125.730999 
" clip-path="url(#pfeefe7695a)" style="fill: none; stroke: #ffffff; stroke-linecap: round"/>
     </g>
    </g>
    <g id="ytick_12">
     <g id="line2d_18">
      <path d="M 342.66192 101.392089 
L 471.52205 101.392089 
" clip-path="url(#pfeefe7695a)" style="fill: none; stroke: #ffffff; stroke-linecap: round"/>
     </g>
    </g>
    <g id="ytick_13">
     <g id="line2d_19">
      <path d="M 342.66192 77.053178 
L 471.52205 77.053178 
" clip-path="url(#pfeefe7695a)" style="fill: none; stroke: #ffffff; stroke-linecap: round"/>
     </g>
    </g>
    <g id="ytick_14">
     <g id="line2d_20">
      <path d="M 342.66192 52.714268 
L 471.52205 52.714268 
" clip-path="url(#pfeefe7695a)" style="fill: none; stroke: #ffffff; stroke-linecap: round"/>
     </g>
    </g>
    <g id="ytick_15">
     <g id="line2d_21">
      <path d="M 342.66192 28.375357 
L 471.52205 28.375357 
" clip-path="url(#pfeefe7695a)" style="fill: none; stroke: #ffffff; stroke-linecap: round"/>
     </g>
    </g>
   </g>
   <g id="patch_15">
    <path d="M 345.239122 125.730999 
L 365.856743 125.730999 
L 365.856743 110.069722 
L 345.239122 110.069722 
z
" clip-path="url(#pfeefe7695a)" style="fill: #8a42cb; stroke: #ffffff; stroke-linejoin: miter"/>
   </g>
   <g id="patch_16">
    <path d="M 371.011148 125.730999 
L 391.628769 125.730999 
L 391.628769 116.190146 
L 371.011148 116.190146 
z
" clip-path="url(#pfeefe7695a)" style="fill: #224fdf; stroke: #ffffff; stroke-linejoin: miter"/>
   </g>
   <g id="patch_17">
    <path d="M 396.783175 125.730999 
L 417.400795 125.730999 
L 417.400795 120.318025 
L 396.783175 120.318025 
z
" clip-path="url(#pfeefe7695a)" style="fill: #df7d20; stroke: #ffffff; stroke-linejoin: miter"/>
   </g>
   <g id="line2d_22">
    <path d="M 352.97073 126.192119 
L 358.125135 126.192119 
M 355.547933 126.192119 
L 355.547933 93.947324 
M 352.97073 93.947324 
L 358.125135 93.947324 
" clip-path="url(#pfeefe7695a)" style="fill: none; stroke: #424242; stroke-width: 2.25; stroke-linecap: round"/>
   </g>
   <g id="line2d_23">
    <path d="M 378.742756 134.711323 
L 383.897161 134.711323 
M 381.319959 134.711323 
L 381.319959 97.66897 
M 378.742756 97.66897 
L 383.897161 97.66897 
" clip-path="url(#pfeefe7695a)" style="fill: none; stroke: #424242; stroke-width: 2.25; stroke-linecap: round"/>
   </g>
   <g id="line2d_24">
    <path d="M 404.514782 131.655759 
L 409.669188 131.655759 
M 407.091985 131.655759 
L 407.091985 108.980292 
M 404.514782 108.980292 
L 409.669188 108.980292 
" clip-path="url(#pfeefe7695a)" style="fill: none; stroke: #424242; stroke-width: 2.25; stroke-linecap: round"/>
   </g>
   <g id="patch_18">
    <path d="M 342.66192 144.44986 
L 342.66192 22.848 
" style="fill: none; stroke: #ffffff; stroke-width: 1.25; stroke-linejoin: miter; stroke-linecap: square"/>
   </g>
   <g id="patch_19">
    <path d="M 342.66192 144.44986 
L 471.52205 144.44986 
" style="fill: none; stroke: #ffffff; stroke-width: 1.25; stroke-linejoin: miter; stroke-linecap: square"/>
   </g>
   <g id="text_9">
    <!-- imax = 6 -->
    <g style="fill: #262626" transform="translate(388.818235 16.848) scale(0.096 -0.096)">
     <defs>
      <path id="ArialMT-36" d="M 3184 3459 
L 2625 3416 
Q 2550 3747 2413 3897 
Q 2184 4138 1850 4138 
Q 1581 4138 1378 3988 
Q 1113 3794 959 3422 
Q 806 3050 800 2363 
Q 1003 2672 1297 2822 
Q 1591 2972 1913 2972 
Q 2475 2972 2870 2558 
Q 3266 2144 3266 1488 
Q 3266 1056 3080 686 
Q 2894 316 2569 119 
Q 2244 -78 1831 -78 
Q 1128 -78 684 439 
Q 241 956 241 2144 
Q 241 3472 731 4075 
Q 1159 4600 1884 4600 
Q 2425 4600 2770 4297 
Q 3116 3994 3184 3459 
z
M 888 1484 
Q 888 1194 1011 928 
Q 1134 663 1356 523 
Q 1578 384 1822 384 
Q 2178 384 2434 671 
Q 2691 959 2691 1453 
Q 2691 1928 2437 2201 
Q 2184 2475 1800 2475 
Q 1419 2475 1153 2201 
Q 888 1928 888 1484 
z
" transform="scale(0.015625)"/>
     </defs>
     <use xlink:href="#ArialMT-69"/>
     <use xlink:href="#ArialMT-6d" x="22.216797"/>
     <use xlink:href="#ArialMT-61" x="105.517578"/>
     <use xlink:href="#ArialMT-78" x="161.132812"/>
     <use xlink:href="#ArialMT-20" x="211.132812"/>
     <use xlink:href="#ArialMT-3d" x="238.916016"/>
     <use xlink:href="#ArialMT-20" x="297.314453"/>
     <use xlink:href="#ArialMT-36" x="325.097656"/>
    </g>
   </g>
  </g>
  <g id="axes_4">
   <g id="patch_20">
    <path d="M 490.85107 144.44986 
L 619.7112 144.44986 
L 619.7112 22.848 
L 490.85107 22.848 
z
" style="fill: #eaeaf2"/>
   </g>
   <g id="matplotlib.axis_7">
    <g id="xtick_16"/>
    <g id="xtick_17"/>
    <g id="xtick_18"/>
    <g id="xtick_19"/>
    <g id="xtick_20"/>
   </g>
   <g id="matplotlib.axis_8">
    <g id="ytick_16">
     <g id="line2d_25">
      <path d="M 490.85107 125.730999 
L 619.7112 125.730999 
" clip-path="url(#p6a5c80ea8d)" style="fill: none; stroke: #ffffff; stroke-linecap: round"/>
     </g>
    </g>
    <g id="ytick_17">
     <g id="line2d_26">
      <path d="M 490.85107 101.392089 
L 619.7112 101.392089 
" clip-path="url(#p6a5c80ea8d)" style="fill: none; stroke: #ffffff; stroke-linecap: round"/>
     </g>
    </g>
    <g id="ytick_18">
     <g id="line2d_27">
      <path d="M 490.85107 77.053178 
L 619.7112 77.053178 
" clip-path="url(#p6a5c80ea8d)" style="fill: none; stroke: #ffffff; stroke-linecap: round"/>
     </g>
    </g>
    <g id="ytick_19">
     <g id="line2d_28">
      <path d="M 490.85107 52.714268 
L 619.7112 52.714268 
" clip-path="url(#p6a5c80ea8d)" style="fill: none; stroke: #ffffff; stroke-linecap: round"/>
     </g>
    </g>
    <g id="ytick_20">
     <g id="line2d_29">
      <path d="M 490.85107 28.375357 
L 619.7112 28.375357 
" clip-path="url(#p6a5c80ea8d)" style="fill: none; stroke: #ffffff; stroke-linecap: round"/>
     </g>
    </g>
   </g>
   <g id="patch_21">
    <path d="M 493.428272 125.730999 
L 514.045893 125.730999 
L 514.045893 114.937504 
L 493.428272 114.937504 
z
" clip-path="url(#p6a5c80ea8d)" style="fill: #8a42cb; stroke: #ffffff; stroke-linejoin: miter"/>
   </g>
   <g id="patch_22">
    <path d="M 519.200298 125.730999 
L 539.817919 125.730999 
L 539.817919 118.877162 
L 519.200298 118.877162 
z
" clip-path="url(#p6a5c80ea8d)" style="fill: #224fdf; stroke: #ffffff; stroke-linejoin: miter"/>
   </g>
   <g id="patch_23">
    <path d="M 544.972324 125.730999 
L 565.589945 125.730999 
L 565.589945 122.518263 
L 544.972324 122.518263 
z
" clip-path="url(#p6a5c80ea8d)" style="fill: #df7d20; stroke: #ffffff; stroke-linejoin: miter"/>
   </g>
   <g id="line2d_30">
    <path d="M 501.15988 128.491182 
L 506.314285 128.491182 
M 503.737083 128.491182 
L 503.737083 101.383826 
M 501.15988 101.383826 
L 506.314285 101.383826 
" clip-path="url(#p6a5c80ea8d)" style="fill: none; stroke: #424242; stroke-width: 2.25; stroke-linecap: round"/>
   </g>
   <g id="line2d_31">
    <path d="M 526.931906 134.776417 
L 532.086311 134.776417 
M 529.509109 134.776417 
L 529.509109 102.977906 
M 526.931906 102.977906 
L 532.086311 102.977906 
" clip-path="url(#p6a5c80ea8d)" style="fill: none; stroke: #424242; stroke-width: 2.25; stroke-linecap: round"/>
   </g>
   <g id="line2d_32">
    <path d="M 552.703932 131.85639 
L 557.858337 131.85639 
M 555.281135 131.85639 
L 555.281135 113.180136 
M 552.703932 113.180136 
L 557.858337 113.180136 
" clip-path="url(#p6a5c80ea8d)" style="fill: none; stroke: #424242; stroke-width: 2.25; stroke-linecap: round"/>
   </g>
   <g id="patch_24">
    <path d="M 490.85107 144.44986 
L 490.85107 22.848 
" style="fill: none; stroke: #ffffff; stroke-width: 1.25; stroke-linejoin: miter; stroke-linecap: square"/>
   </g>
   <g id="patch_25">
    <path d="M 490.85107 144.44986 
L 619.7112 144.44986 
" style="fill: none; stroke: #ffffff; stroke-width: 1.25; stroke-linejoin: miter; stroke-linecap: square"/>
   </g>
   <g id="text_10">
    <!-- Attribute = Polar -->
    <g style="fill: #262626" transform="translate(624.196403 49.09868) rotate(-270) scale(0.096 -0.096)">
     <defs>
      <path id="ArialMT-41" d="M -9 0 
L 1750 4581 
L 2403 4581 
L 4278 0 
L 3588 0 
L 3053 1388 
L 1138 1388 
L 634 0 
L -9 0 
z
M 1313 1881 
L 2866 1881 
L 2388 3150 
Q 2169 3728 2063 4100 
Q 1975 3659 1816 3225 
L 1313 1881 
z
" transform="scale(0.015625)"/>
      <path id="ArialMT-75" d="M 2597 0 
L 2597 488 
Q 2209 -75 1544 -75 
Q 1250 -75 995 37 
Q 741 150 617 320 
Q 494 491 444 738 
Q 409 903 409 1263 
L 409 3319 
L 972 3319 
L 972 1478 
Q 972 1038 1006 884 
Q 1059 663 1231 536 
Q 1403 409 1656 409 
Q 1909 409 2131 539 
Q 2353 669 2445 892 
Q 2538 1116 2538 1541 
L 2538 3319 
L 3100 3319 
L 3100 0 
L 2597 0 
z
" transform="scale(0.015625)"/>
      <path id="ArialMT-50" d="M 494 0 
L 494 4581 
L 2222 4581 
Q 2678 4581 2919 4538 
Q 3256 4481 3484 4323 
Q 3713 4166 3852 3881 
Q 3991 3597 3991 3256 
Q 3991 2672 3619 2267 
Q 3247 1863 2275 1863 
L 1100 1863 
L 1100 0 
L 494 0 
z
M 1100 2403 
L 2284 2403 
Q 2872 2403 3119 2622 
Q 3366 2841 3366 3238 
Q 3366 3525 3220 3729 
Q 3075 3934 2838 4000 
Q 2684 4041 2272 4041 
L 1100 4041 
L 1100 2403 
z
" transform="scale(0.015625)"/>
      <path id="ArialMT-6f" d="M 213 1659 
Q 213 2581 725 3025 
Q 1153 3394 1769 3394 
Q 2453 3394 2887 2945 
Q 3322 2497 3322 1706 
Q 3322 1066 3130 698 
Q 2938 331 2570 128 
Q 2203 -75 1769 -75 
Q 1072 -75 642 372 
Q 213 819 213 1659 
z
M 791 1659 
Q 791 1022 1069 705 
Q 1347 388 1769 388 
Q 2188 388 2466 706 
Q 2744 1025 2744 1678 
Q 2744 2294 2464 2611 
Q 2184 2928 1769 2928 
Q 1347 2928 1069 2612 
Q 791 2297 791 1659 
z
" transform="scale(0.015625)"/>
      <path id="ArialMT-6c" d="M 409 0 
L 409 4581 
L 972 4581 
L 972 0 
L 409 0 
z
" transform="scale(0.015625)"/>
     </defs>
     <use xlink:href="#ArialMT-41"/>
     <use xlink:href="#ArialMT-74" x="66.699219"/>
     <use xlink:href="#ArialMT-74" x="94.482422"/>
     <use xlink:href="#ArialMT-72" x="122.265625"/>
     <use xlink:href="#ArialMT-69" x="155.566406"/>
     <use xlink:href="#ArialMT-62" x="177.783203"/>
     <use xlink:href="#ArialMT-75" x="233.398438"/>
     <use xlink:href="#ArialMT-74" x="289.013672"/>
     <use xlink:href="#ArialMT-65" x="316.796875"/>
     <use xlink:href="#ArialMT-20" x="372.412109"/>
     <use xlink:href="#ArialMT-3d" x="400.195312"/>
     <use xlink:href="#ArialMT-20" x="458.59375"/>
     <use xlink:href="#ArialMT-50" x="486.376953"/>
     <use xlink:href="#ArialMT-6f" x="553.076172"/>
     <use xlink:href="#ArialMT-6c" x="608.691406"/>
     <use xlink:href="#ArialMT-61" x="630.908203"/>
     <use xlink:href="#ArialMT-72" x="686.523438"/>
    </g>
   </g>
   <g id="text_11">
    <!-- imax = 9 -->
    <g style="fill: #262626" transform="translate(537.007385 16.848) scale(0.096 -0.096)">
     <defs>
      <path id="ArialMT-39" d="M 350 1059 
L 891 1109 
Q 959 728 1153 556 
Q 1347 384 1650 384 
Q 1909 384 2104 503 
Q 2300 622 2425 820 
Q 2550 1019 2634 1356 
Q 2719 1694 2719 2044 
Q 2719 2081 2716 2156 
Q 2547 1888 2255 1720 
Q 1963 1553 1622 1553 
Q 1053 1553 659 1965 
Q 266 2378 266 3053 
Q 266 3750 677 4175 
Q 1088 4600 1706 4600 
Q 2153 4600 2523 4359 
Q 2894 4119 3086 3673 
Q 3278 3228 3278 2384 
Q 3278 1506 3087 986 
Q 2897 466 2520 194 
Q 2144 -78 1638 -78 
Q 1100 -78 759 220 
Q 419 519 350 1059 
z
M 2653 3081 
Q 2653 3566 2395 3850 
Q 2138 4134 1775 4134 
Q 1400 4134 1122 3828 
Q 844 3522 844 3034 
Q 844 2597 1108 2323 
Q 1372 2050 1759 2050 
Q 2150 2050 2401 2323 
Q 2653 2597 2653 3081 
z
" transform="scale(0.015625)"/>
     </defs>
     <use xlink:href="#ArialMT-69"/>
     <use xlink:href="#ArialMT-6d" x="22.216797"/>
     <use xlink:href="#ArialMT-61" x="105.517578"/>
     <use xlink:href="#ArialMT-78" x="161.132812"/>
     <use xlink:href="#ArialMT-20" x="211.132812"/>
     <use xlink:href="#ArialMT-3d" x="238.916016"/>
     <use xlink:href="#ArialMT-20" x="297.314453"/>
     <use xlink:href="#ArialMT-39" x="325.097656"/>
    </g>
   </g>
  </g>
  <g id="axes_5">
   <g id="patch_26">
    <path d="M 46.28362 284.292 
L 175.14375 284.292 
L 175.14375 162.69014 
L 46.28362 162.69014 
z
" style="fill: #eaeaf2"/>
   </g>
   <g id="matplotlib.axis_9">
    <g id="xtick_21">
     <g id="text_12">
      <!-- Theory -->
      <g style="fill: #262626" transform="translate(45.476696 300.090875) scale(0.088 -0.088)">
       <defs>
        <path id="ArialMT-54" d="M 1659 0 
L 1659 4041 
L 150 4041 
L 150 4581 
L 3781 4581 
L 3781 4041 
L 2266 4041 
L 2266 0 
L 1659 0 
z
" transform="scale(0.015625)"/>
        <path id="ArialMT-68" d="M 422 0 
L 422 4581 
L 984 4581 
L 984 2938 
Q 1378 3394 1978 3394 
Q 2347 3394 2619 3248 
Q 2891 3103 3008 2847 
Q 3125 2591 3125 2103 
L 3125 0 
L 2563 0 
L 2563 2103 
Q 2563 2525 2380 2717 
Q 2197 2909 1863 2909 
Q 1613 2909 1392 2779 
Q 1172 2650 1078 2428 
Q 984 2206 984 1816 
L 984 0 
L 422 0 
z
" transform="scale(0.015625)"/>
        <path id="ArialMT-79" d="M 397 -1278 
L 334 -750 
Q 519 -800 656 -800 
Q 844 -800 956 -737 
Q 1069 -675 1141 -563 
Q 1194 -478 1313 -144 
Q 1328 -97 1363 -6 
L 103 3319 
L 709 3319 
L 1400 1397 
Q 1534 1031 1641 628 
Q 1738 1016 1872 1384 
L 2581 3319 
L 3144 3319 
L 1881 -56 
Q 1678 -603 1566 -809 
Q 1416 -1088 1222 -1217 
Q 1028 -1347 759 -1347 
Q 597 -1347 397 -1278 
z
" transform="scale(0.015625)"/>
       </defs>
       <use xlink:href="#ArialMT-54"/>
       <use xlink:href="#ArialMT-68" x="61.083984"/>
       <use xlink:href="#ArialMT-65" x="116.699219"/>
       <use xlink:href="#ArialMT-6f" x="172.314453"/>
       <use xlink:href="#ArialMT-72" x="227.929688"/>
       <use xlink:href="#ArialMT-79" x="261.230469"/>
      </g>
     </g>
    </g>
    <g id="xtick_22">
     <g id="text_13">
      <!-- East -->
      <g style="fill: #262626" transform="translate(76.137534 300.090875) scale(0.088 -0.088)">
       <use xlink:href="#ArialMT-45"/>
       <use xlink:href="#ArialMT-61" x="66.699219"/>
       <use xlink:href="#ArialMT-73" x="122.314453"/>
       <use xlink:href="#ArialMT-74" x="172.314453"/>
      </g>
     </g>
    </g>
    <g id="xtick_23">
     <g id="text_14">
      <!-- West -->
      <g style="fill: #262626" transform="translate(100.76831 300.090875) scale(0.088 -0.088)">
       <defs>
        <path id="ArialMT-57" d="M 1294 0 
L 78 4581 
L 700 4581 
L 1397 1578 
Q 1509 1106 1591 641 
Q 1766 1375 1797 1488 
L 2669 4581 
L 3400 4581 
L 4056 2263 
Q 4303 1400 4413 641 
Q 4500 1075 4641 1638 
L 5359 4581 
L 5969 4581 
L 4713 0 
L 4128 0 
L 3163 3491 
Q 3041 3928 3019 4028 
Q 2947 3713 2884 3491 
L 1913 0 
L 1294 0 
z
" transform="scale(0.015625)"/>
       </defs>
       <use xlink:href="#ArialMT-57"/>
       <use xlink:href="#ArialMT-65" x="92.634766"/>
       <use xlink:href="#ArialMT-73" x="148.25"/>
       <use xlink:href="#ArialMT-74" x="198.25"/>
      </g>
     </g>
    </g>
    <g id="xtick_24">
     <g id="text_15">
      <!-- North -->
      <g style="fill: #262626" transform="translate(125.727024 300.090875) scale(0.088 -0.088)">
       <defs>
        <path id="ArialMT-4e" d="M 488 0 
L 488 4581 
L 1109 4581 
L 3516 984 
L 3516 4581 
L 4097 4581 
L 4097 0 
L 3475 0 
L 1069 3600 
L 1069 0 
L 488 0 
z
" transform="scale(0.015625)"/>
       </defs>
       <use xlink:href="#ArialMT-4e"/>
       <use xlink:href="#ArialMT-6f" x="72.216797"/>
       <use xlink:href="#ArialMT-72" x="127.832031"/>
       <use xlink:href="#ArialMT-74" x="161.132812"/>
       <use xlink:href="#ArialMT-68" x="188.916016"/>
      </g>
     </g>
    </g>
    <g id="xtick_25">
     <g id="text_16">
      <!-- South -->
      <g style="fill: #262626" transform="translate(150.759987 300.090875) scale(0.088 -0.088)">
       <defs>
        <path id="ArialMT-53" d="M 288 1472 
L 859 1522 
Q 900 1178 1048 958 
Q 1197 738 1509 602 
Q 1822 466 2213 466 
Q 2559 466 2825 569 
Q 3091 672 3220 851 
Q 3350 1031 3350 1244 
Q 3350 1459 3225 1620 
Q 3100 1781 2813 1891 
Q 2628 1963 1997 2114 
Q 1366 2266 1113 2400 
Q 784 2572 623 2826 
Q 463 3081 463 3397 
Q 463 3744 659 4045 
Q 856 4347 1234 4503 
Q 1613 4659 2075 4659 
Q 2584 4659 2973 4495 
Q 3363 4331 3572 4012 
Q 3781 3694 3797 3291 
L 3216 3247 
Q 3169 3681 2898 3903 
Q 2628 4125 2100 4125 
Q 1550 4125 1298 3923 
Q 1047 3722 1047 3438 
Q 1047 3191 1225 3031 
Q 1400 2872 2139 2705 
Q 2878 2538 3153 2413 
Q 3553 2228 3743 1945 
Q 3934 1663 3934 1294 
Q 3934 928 3725 604 
Q 3516 281 3123 101 
Q 2731 -78 2241 -78 
Q 1619 -78 1198 103 
Q 778 284 539 648 
Q 300 1013 288 1472 
z
" transform="scale(0.015625)"/>
       </defs>
       <use xlink:href="#ArialMT-53"/>
       <use xlink:href="#ArialMT-6f" x="66.699219"/>
       <use xlink:href="#ArialMT-75" x="122.314453"/>
       <use xlink:href="#ArialMT-74" x="177.929688"/>
       <use xlink:href="#ArialMT-68" x="205.712891"/>
      </g>
     </g>
    </g>
    <g id="text_17">
     <!-- Direction -->
     <g style="fill: #262626" transform="translate(91.774685 312.8145) scale(0.096 -0.096)">
      <defs>
       <path id="ArialMT-44" d="M 494 0 
L 494 4581 
L 2072 4581 
Q 2606 4581 2888 4516 
Q 3281 4425 3559 4188 
Q 3922 3881 4101 3404 
Q 4281 2928 4281 2316 
Q 4281 1794 4159 1391 
Q 4038 988 3847 723 
Q 3656 459 3429 307 
Q 3203 156 2883 78 
Q 2563 0 2147 0 
L 494 0 
z
M 1100 541 
L 2078 541 
Q 2531 541 2789 625 
Q 3047 709 3200 863 
Q 3416 1078 3536 1442 
Q 3656 1806 3656 2325 
Q 3656 3044 3420 3430 
Q 3184 3816 2847 3947 
Q 2603 4041 2063 4041 
L 1100 4041 
L 1100 541 
z
" transform="scale(0.015625)"/>
       <path id="ArialMT-6e" d="M 422 0 
L 422 3319 
L 928 3319 
L 928 2847 
Q 1294 3394 1984 3394 
Q 2284 3394 2536 3286 
Q 2788 3178 2913 3003 
Q 3038 2828 3088 2588 
Q 3119 2431 3119 2041 
L 3119 0 
L 2556 0 
L 2556 2019 
Q 2556 2363 2490 2533 
Q 2425 2703 2258 2804 
Q 2091 2906 1866 2906 
Q 1506 2906 1245 2678 
Q 984 2450 984 1813 
L 984 0 
L 422 0 
z
" transform="scale(0.015625)"/>
      </defs>
      <use xlink:href="#ArialMT-44"/>
      <use xlink:href="#ArialMT-69" x="72.216797"/>
      <use xlink:href="#ArialMT-72" x="94.433594"/>
      <use xlink:href="#ArialMT-65" x="127.734375"/>
      <use xlink:href="#ArialMT-63" x="183.349609"/>
      <use xlink:href="#ArialMT-74" x="233.349609"/>
      <use xlink:href="#ArialMT-69" x="261.132812"/>
      <use xlink:href="#ArialMT-6f" x="283.349609"/>
      <use xlink:href="#ArialMT-6e" x="338.964844"/>
     </g>
    </g>
   </g>
   <g id="matplotlib.axis_10">
    <g id="ytick_21">
     <g id="line2d_33">
      <path d="M 46.28362 265.573139 
L 175.14375 265.573139 
" clip-path="url(#pa71b7f9607)" style="fill: none; stroke: #ffffff; stroke-linecap: round"/>
     </g>
     <g id="text_18">
      <!-- 0 -->
      <g style="fill: #262626" transform="translate(31.889995 268.722576) scale(0.088 -0.088)">
       <use xlink:href="#ArialMT-30"/>
      </g>
     </g>
    </g>
    <g id="ytick_22">
     <g id="line2d_34">
      <path d="M 46.28362 241.234228 
L 175.14375 241.234228 
" clip-path="url(#pa71b7f9607)" style="fill: none; stroke: #ffffff; stroke-linecap: round"/>
     </g>
     <g id="text_19">
      <!-- 5 -->
      <g style="fill: #262626" transform="translate(31.889995 244.383666) scale(0.088 -0.088)">
       <use xlink:href="#ArialMT-35"/>
      </g>
     </g>
    </g>
    <g id="ytick_23">
     <g id="line2d_35">
      <path d="M 46.28362 216.895318 
L 175.14375 216.895318 
" clip-path="url(#pa71b7f9607)" style="fill: none; stroke: #ffffff; stroke-linecap: round"/>
     </g>
     <g id="text_20">
      <!-- 10 -->
      <g style="fill: #262626" transform="translate(26.99637 220.044755) scale(0.088 -0.088)">
       <use xlink:href="#ArialMT-31"/>
       <use xlink:href="#ArialMT-30" x="55.615234"/>
      </g>
     </g>
    </g>
    <g id="ytick_24">
     <g id="line2d_36">
      <path d="M 46.28362 192.556407 
L 175.14375 192.556407 
" clip-path="url(#pa71b7f9607)" style="fill: none; stroke: #ffffff; stroke-linecap: round"/>
     </g>
     <g id="text_21">
      <!-- 15 -->
      <g style="fill: #262626" transform="translate(26.99637 195.705845) scale(0.088 -0.088)">
       <use xlink:href="#ArialMT-31"/>
       <use xlink:href="#ArialMT-35" x="55.615234"/>
      </g>
     </g>
    </g>
    <g id="ytick_25">
     <g id="line2d_37">
      <path d="M 46.28362 168.217497 
L 175.14375 168.217497 
" clip-path="url(#pa71b7f9607)" style="fill: none; stroke: #ffffff; stroke-linecap: round"/>
     </g>
     <g id="text_22">
      <!-- 20 -->
      <g style="fill: #262626" transform="translate(26.99637 171.366934) scale(0.088 -0.088)">
       <use xlink:href="#ArialMT-32"/>
       <use xlink:href="#ArialMT-30" x="55.615234"/>
      </g>
     </g>
    </g>
    <g id="text_23">
     <!-- Expected traffic (Gbps) -->
     <g style="fill: #262626" transform="translate(20.97587 272.48932) rotate(-90) scale(0.096 -0.096)">
      <use xlink:href="#ArialMT-45"/>
      <use xlink:href="#ArialMT-78" x="66.699219"/>
      <use xlink:href="#ArialMT-70" x="116.699219"/>
      <use xlink:href="#ArialMT-65" x="172.314453"/>
      <use xlink:href="#ArialMT-63" x="227.929688"/>
      <use xlink:href="#ArialMT-74" x="277.929688"/>
      <use xlink:href="#ArialMT-65" x="305.712891"/>
      <use xlink:href="#ArialMT-64" x="361.328125"/>
      <use xlink:href="#ArialMT-20" x="416.943359"/>
      <use xlink:href="#ArialMT-74" x="444.726562"/>
      <use xlink:href="#ArialMT-72" x="472.509766"/>
      <use xlink:href="#ArialMT-61" x="505.810547"/>
      <use xlink:href="#ArialMT-66" x="561.425781"/>
      <use xlink:href="#ArialMT-66" x="587.458984"/>
      <use xlink:href="#ArialMT-69" x="615.242188"/>
      <use xlink:href="#ArialMT-63" x="637.458984"/>
      <use xlink:href="#ArialMT-20" x="687.458984"/>
      <use xlink:href="#ArialMT-28" x="715.242188"/>
      <use xlink:href="#ArialMT-47" x="748.542969"/>
      <use xlink:href="#ArialMT-62" x="826.326172"/>
      <use xlink:href="#ArialMT-70" x="881.941406"/>
      <use xlink:href="#ArialMT-73" x="937.556641"/>
      <use xlink:href="#ArialMT-29" x="987.556641"/>
     </g>
    </g>
   </g>
   <g id="patch_27">
    <path d="M 48.860823 265.573139 
L 69.478443 265.573139 
L 69.478443 168.217497 
L 48.860823 168.217497 
z
" clip-path="url(#pa71b7f9607)" style="fill: #8a42cb; stroke: #ffffff; stroke-linejoin: miter"/>
   </g>
   <g id="patch_28">
    <path d="M 74.632849 265.573139 
L 95.25047 265.573139 
L 95.25047 240.494325 
L 74.632849 240.494325 
z
" clip-path="url(#pa71b7f9607)" style="fill: #224fdf; stroke: #ffffff; stroke-linejoin: miter"/>
   </g>
   <g id="patch_29">
    <path d="M 100.404875 265.573139 
L 121.022496 265.573139 
L 121.022496 242.207785 
L 100.404875 242.207785 
z
" clip-path="url(#pa71b7f9607)" style="fill: #df7d20; stroke: #ffffff; stroke-linejoin: miter"/>
   </g>
   <g id="patch_30">
    <path d="M 126.176901 265.573139 
L 146.794522 265.573139 
L 146.794522 186.130935 
L 126.176901 186.130935 
z
" clip-path="url(#pa71b7f9607)" style="fill: #30b346; stroke: #ffffff; stroke-linejoin: miter"/>
   </g>
   <g id="patch_31">
    <path d="M 151.948927 265.573139 
L 172.566548 265.573139 
L 172.566548 191.582851 
L 151.948927 191.582851 
z
" clip-path="url(#pa71b7f9607)" style="fill: #cb1d25; stroke: #ffffff; stroke-linejoin: miter"/>
   </g>
   <g id="line2d_38">
    <path d="M 56.59243 168.217497 
L 61.746836 168.217497 
M 59.169633 168.217497 
L 59.169633 168.217497 
M 56.59243 168.217497 
L 61.746836 168.217497 
" clip-path="url(#pa71b7f9607)" style="fill: none; stroke: #424242; stroke-width: 2.25; stroke-linecap: round"/>
   </g>
   <g id="line2d_39">
    <path d="M 82.364456 275.716775 
L 87.518862 275.716775 
M 84.941659 275.716775 
L 84.941659 205.271876 
M 82.364456 205.271876 
L 87.518862 205.271876 
" clip-path="url(#pa71b7f9607)" style="fill: none; stroke: #424242; stroke-width: 2.25; stroke-linecap: round"/>
   </g>
   <g id="line2d_40">
    <path d="M 108.136483 276.617864 
L 113.290888 276.617864 
M 110.713685 276.617864 
L 110.713685 207.797705 
M 108.136483 207.797705 
L 113.290888 207.797705 
" clip-path="url(#pa71b7f9607)" style="fill: none; stroke: #424242; stroke-width: 2.25; stroke-linecap: round"/>
   </g>
   <g id="line2d_41">
    <path d="M 133.908509 191.415963 
L 139.062914 191.415963 
M 136.485711 191.415963 
L 136.485711 180.845907 
M 133.908509 180.845907 
L 139.062914 180.845907 
" clip-path="url(#pa71b7f9607)" style="fill: none; stroke: #424242; stroke-width: 2.25; stroke-linecap: round"/>
   </g>
   <g id="line2d_42">
    <path d="M 159.680535 199.375199 
L 164.83494 199.375199 
M 162.257737 199.375199 
L 162.257737 183.790502 
M 159.680535 183.790502 
L 164.83494 183.790502 
" clip-path="url(#pa71b7f9607)" style="fill: none; stroke: #424242; stroke-width: 2.25; stroke-linecap: round"/>
   </g>
   <g id="patch_32">
    <path d="M 46.28362 284.292 
L 46.28362 162.69014 
" style="fill: none; stroke: #ffffff; stroke-width: 1.25; stroke-linejoin: miter; stroke-linecap: square"/>
   </g>
   <g id="patch_33">
    <path d="M 46.28362 284.292 
L 175.14375 284.292 
" style="fill: none; stroke: #ffffff; stroke-width: 1.25; stroke-linejoin: miter; stroke-linecap: square"/>
   </g>
  </g>
  <g id="axes_6">
   <g id="patch_34">
    <path d="M 194.47277 284.292 
L 323.3329 284.292 
L 323.3329 162.69014 
L 194.47277 162.69014 
z
" style="fill: #eaeaf2"/>
   </g>
   <g id="matplotlib.axis_11">
    <g id="xtick_26">
     <g id="text_24">
      <!-- Theory -->
      <g style="fill: #262626" transform="translate(193.665845 300.090875) scale(0.088 -0.088)">
       <use xlink:href="#ArialMT-54"/>
       <use xlink:href="#ArialMT-68" x="61.083984"/>
       <use xlink:href="#ArialMT-65" x="116.699219"/>
       <use xlink:href="#ArialMT-6f" x="172.314453"/>
       <use xlink:href="#ArialMT-72" x="227.929688"/>
       <use xlink:href="#ArialMT-79" x="261.230469"/>
      </g>
     </g>
    </g>
    <g id="xtick_27">
     <g id="text_25">
      <!-- East -->
      <g style="fill: #262626" transform="translate(224.326684 300.090875) scale(0.088 -0.088)">
       <use xlink:href="#ArialMT-45"/>
       <use xlink:href="#ArialMT-61" x="66.699219"/>
       <use xlink:href="#ArialMT-73" x="122.314453"/>
       <use xlink:href="#ArialMT-74" x="172.314453"/>
      </g>
     </g>
    </g>
    <g id="xtick_28">
     <g id="text_26">
      <!-- West -->
      <g style="fill: #262626" transform="translate(248.95746 300.090875) scale(0.088 -0.088)">
       <use xlink:href="#ArialMT-57"/>
       <use xlink:href="#ArialMT-65" x="92.634766"/>
       <use xlink:href="#ArialMT-73" x="148.25"/>
       <use xlink:href="#ArialMT-74" x="198.25"/>
      </g>
     </g>
    </g>
    <g id="xtick_29">
     <g id="text_27">
      <!-- North -->
      <g style="fill: #262626" transform="translate(273.916174 300.090875) scale(0.088 -0.088)">
       <use xlink:href="#ArialMT-4e"/>
       <use xlink:href="#ArialMT-6f" x="72.216797"/>
       <use xlink:href="#ArialMT-72" x="127.832031"/>
       <use xlink:href="#ArialMT-74" x="161.132812"/>
       <use xlink:href="#ArialMT-68" x="188.916016"/>
      </g>
     </g>
    </g>
    <g id="xtick_30">
     <g id="text_28">
      <!-- South -->
      <g style="fill: #262626" transform="translate(298.949137 300.090875) scale(0.088 -0.088)">
       <use xlink:href="#ArialMT-53"/>
       <use xlink:href="#ArialMT-6f" x="66.699219"/>
       <use xlink:href="#ArialMT-75" x="122.314453"/>
       <use xlink:href="#ArialMT-74" x="177.929688"/>
       <use xlink:href="#ArialMT-68" x="205.712891"/>
      </g>
     </g>
    </g>
    <g id="text_29">
     <!-- Direction -->
     <g style="fill: #262626" transform="translate(239.963835 312.8145) scale(0.096 -0.096)">
      <use xlink:href="#ArialMT-44"/>
      <use xlink:href="#ArialMT-69" x="72.216797"/>
      <use xlink:href="#ArialMT-72" x="94.433594"/>
      <use xlink:href="#ArialMT-65" x="127.734375"/>
      <use xlink:href="#ArialMT-63" x="183.349609"/>
      <use xlink:href="#ArialMT-74" x="233.349609"/>
      <use xlink:href="#ArialMT-69" x="261.132812"/>
      <use xlink:href="#ArialMT-6f" x="283.349609"/>
      <use xlink:href="#ArialMT-6e" x="338.964844"/>
     </g>
    </g>
   </g>
   <g id="matplotlib.axis_12">
    <g id="ytick_26">
     <g id="line2d_43">
      <path d="M 194.47277 265.573139 
L 323.3329 265.573139 
" clip-path="url(#p4b2eb702cf)" style="fill: none; stroke: #ffffff; stroke-linecap: round"/>
     </g>
    </g>
    <g id="ytick_27">
     <g id="line2d_44">
      <path d="M 194.47277 241.234228 
L 323.3329 241.234228 
" clip-path="url(#p4b2eb702cf)" style="fill: none; stroke: #ffffff; stroke-linecap: round"/>
     </g>
    </g>
    <g id="ytick_28">
     <g id="line2d_45">
      <path d="M 194.47277 216.895318 
L 323.3329 216.895318 
" clip-path="url(#p4b2eb702cf)" style="fill: none; stroke: #ffffff; stroke-linecap: round"/>
     </g>
    </g>
    <g id="ytick_29">
     <g id="line2d_46">
      <path d="M 194.47277 192.556407 
L 323.3329 192.556407 
" clip-path="url(#p4b2eb702cf)" style="fill: none; stroke: #ffffff; stroke-linecap: round"/>
     </g>
    </g>
    <g id="ytick_30">
     <g id="line2d_47">
      <path d="M 194.47277 168.217497 
L 323.3329 168.217497 
" clip-path="url(#p4b2eb702cf)" style="fill: none; stroke: #ffffff; stroke-linecap: round"/>
     </g>
    </g>
   </g>
   <g id="patch_35">
    <path d="M 197.049972 265.573139 
L 217.667593 265.573139 
L 217.667593 232.770778 
L 197.049972 232.770778 
z
" clip-path="url(#p4b2eb702cf)" style="fill: #8a42cb; stroke: #ffffff; stroke-linejoin: miter"/>
   </g>
   <g id="patch_36">
    <path d="M 222.821999 265.573139 
L 243.439619 265.573139 
L 243.439619 256.480122 
L 222.821999 256.480122 
z
" clip-path="url(#p4b2eb702cf)" style="fill: #224fdf; stroke: #ffffff; stroke-linejoin: miter"/>
   </g>
   <g id="patch_37">
    <path d="M 248.594025 265.573139 
L 269.211645 265.573139 
L 269.211645 256.635891 
L 248.594025 256.635891 
z
" clip-path="url(#p4b2eb702cf)" style="fill: #df7d20; stroke: #ffffff; stroke-linejoin: miter"/>
   </g>
   <g id="patch_38">
    <path d="M 274.366051 265.573139 
L 294.983672 265.573139 
L 294.983672 237.106349 
L 274.366051 237.106349 
z
" clip-path="url(#p4b2eb702cf)" style="fill: #30b346; stroke: #ffffff; stroke-linejoin: miter"/>
   </g>
   <g id="patch_39">
    <path d="M 300.138077 265.573139 
L 320.755698 265.573139 
L 320.755698 239.754422 
L 300.138077 239.754422 
z
" clip-path="url(#p4b2eb702cf)" style="fill: #cb1d25; stroke: #ffffff; stroke-linejoin: miter"/>
   </g>
   <g id="line2d_48">
    <path d="M 204.78158 253.08301 
L 209.935986 253.08301 
M 207.358783 253.08301 
L 207.358783 212.458546 
M 204.78158 212.458546 
L 209.935986 212.458546 
" clip-path="url(#p4b2eb702cf)" style="fill: none; stroke: #424242; stroke-width: 2.25; stroke-linecap: round"/>
   </g>
   <g id="line2d_49">
    <path d="M 230.553606 278.181069 
L 235.708012 278.181069 
M 233.130809 278.181069 
L 233.130809 234.779174 
M 230.553606 234.779174 
L 235.708012 234.779174 
" clip-path="url(#p4b2eb702cf)" style="fill: none; stroke: #424242; stroke-width: 2.25; stroke-linecap: round"/>
   </g>
   <g id="line2d_50">
    <path d="M 256.325632 278.764643 
L 261.480038 278.764643 
M 258.902835 278.764643 
L 258.902835 234.507139 
M 256.325632 234.507139 
L 261.480038 234.507139 
" clip-path="url(#p4b2eb702cf)" style="fill: none; stroke: #424242; stroke-width: 2.25; stroke-linecap: round"/>
   </g>
   <g id="line2d_51">
    <path d="M 282.097659 269.238308 
L 287.252064 269.238308 
M 284.674861 269.238308 
L 284.674861 204.974389 
M 282.097659 204.974389 
L 287.252064 204.974389 
" clip-path="url(#p4b2eb702cf)" style="fill: none; stroke: #424242; stroke-width: 2.25; stroke-linecap: round"/>
   </g>
   <g id="line2d_52">
    <path d="M 307.869685 270.31968 
L 313.02409 270.31968 
M 310.446887 270.31968 
L 310.446887 209.189165 
M 307.869685 209.189165 
L 313.02409 209.189165 
" clip-path="url(#p4b2eb702cf)" style="fill: none; stroke: #424242; stroke-width: 2.25; stroke-linecap: round"/>
   </g>
   <g id="patch_40">
    <path d="M 194.47277 284.292 
L 194.47277 162.69014 
" style="fill: none; stroke: #ffffff; stroke-width: 1.25; stroke-linejoin: miter; stroke-linecap: square"/>
   </g>
   <g id="patch_41">
    <path d="M 194.47277 284.292 
L 323.3329 284.292 
" style="fill: none; stroke: #ffffff; stroke-width: 1.25; stroke-linejoin: miter; stroke-linecap: square"/>
   </g>
  </g>
  <g id="axes_7">
   <g id="patch_42">
    <path d="M 342.66192 284.292 
L 471.52205 284.292 
L 471.52205 162.69014 
L 342.66192 162.69014 
z
" style="fill: #eaeaf2"/>
   </g>
   <g id="matplotlib.axis_13">
    <g id="xtick_31">
     <g id="text_30">
      <!-- Theory -->
      <g style="fill: #262626" transform="translate(341.854995 300.090875) scale(0.088 -0.088)">
       <use xlink:href="#ArialMT-54"/>
       <use xlink:href="#ArialMT-68" x="61.083984"/>
       <use xlink:href="#ArialMT-65" x="116.699219"/>
       <use xlink:href="#ArialMT-6f" x="172.314453"/>
       <use xlink:href="#ArialMT-72" x="227.929688"/>
       <use xlink:href="#ArialMT-79" x="261.230469"/>
      </g>
     </g>
    </g>
    <g id="xtick_32">
     <g id="text_31">
      <!-- East -->
      <g style="fill: #262626" transform="translate(372.515834 300.090875) scale(0.088 -0.088)">
       <use xlink:href="#ArialMT-45"/>
       <use xlink:href="#ArialMT-61" x="66.699219"/>
       <use xlink:href="#ArialMT-73" x="122.314453"/>
       <use xlink:href="#ArialMT-74" x="172.314453"/>
      </g>
     </g>
    </g>
    <g id="xtick_33">
     <g id="text_32">
      <!-- West -->
      <g style="fill: #262626" transform="translate(397.14661 300.090875) scale(0.088 -0.088)">
       <use xlink:href="#ArialMT-57"/>
       <use xlink:href="#ArialMT-65" x="92.634766"/>
       <use xlink:href="#ArialMT-73" x="148.25"/>
       <use xlink:href="#ArialMT-74" x="198.25"/>
      </g>
     </g>
    </g>
    <g id="xtick_34">
     <g id="text_33">
      <!-- North -->
      <g style="fill: #262626" transform="translate(422.105324 300.090875) scale(0.088 -0.088)">
       <use xlink:href="#ArialMT-4e"/>
       <use xlink:href="#ArialMT-6f" x="72.216797"/>
       <use xlink:href="#ArialMT-72" x="127.832031"/>
       <use xlink:href="#ArialMT-74" x="161.132812"/>
       <use xlink:href="#ArialMT-68" x="188.916016"/>
      </g>
     </g>
    </g>
    <g id="xtick_35">
     <g id="text_34">
      <!-- South -->
      <g style="fill: #262626" transform="translate(447.138287 300.090875) scale(0.088 -0.088)">
       <use xlink:href="#ArialMT-53"/>
       <use xlink:href="#ArialMT-6f" x="66.699219"/>
       <use xlink:href="#ArialMT-75" x="122.314453"/>
       <use xlink:href="#ArialMT-74" x="177.929688"/>
       <use xlink:href="#ArialMT-68" x="205.712891"/>
      </g>
     </g>
    </g>
    <g id="text_35">
     <!-- Direction -->
     <g style="fill: #262626" transform="translate(388.152985 312.8145) scale(0.096 -0.096)">
      <use xlink:href="#ArialMT-44"/>
      <use xlink:href="#ArialMT-69" x="72.216797"/>
      <use xlink:href="#ArialMT-72" x="94.433594"/>
      <use xlink:href="#ArialMT-65" x="127.734375"/>
      <use xlink:href="#ArialMT-63" x="183.349609"/>
      <use xlink:href="#ArialMT-74" x="233.349609"/>
      <use xlink:href="#ArialMT-69" x="261.132812"/>
      <use xlink:href="#ArialMT-6f" x="283.349609"/>
      <use xlink:href="#ArialMT-6e" x="338.964844"/>
     </g>
    </g>
   </g>
   <g id="matplotlib.axis_14">
    <g id="ytick_31">
     <g id="line2d_53">
      <path d="M 342.66192 265.573139 
L 471.52205 265.573139 
" clip-path="url(#pf7cc3e2879)" style="fill: none; stroke: #ffffff; stroke-linecap: round"/>
     </g>
    </g>
    <g id="ytick_32">
     <g id="line2d_54">
      <path d="M 342.66192 241.234228 
L 471.52205 241.234228 
" clip-path="url(#pf7cc3e2879)" style="fill: none; stroke: #ffffff; stroke-linecap: round"/>
     </g>
    </g>
    <g id="ytick_33">
     <g id="line2d_55">
      <path d="M 342.66192 216.895318 
L 471.52205 216.895318 
" clip-path="url(#pf7cc3e2879)" style="fill: none; stroke: #ffffff; stroke-linecap: round"/>
     </g>
    </g>
    <g id="ytick_34">
     <g id="line2d_56">
      <path d="M 342.66192 192.556407 
L 471.52205 192.556407 
" clip-path="url(#pf7cc3e2879)" style="fill: none; stroke: #ffffff; stroke-linecap: round"/>
     </g>
    </g>
    <g id="ytick_35">
     <g id="line2d_57">
      <path d="M 342.66192 168.217497 
L 471.52205 168.217497 
" clip-path="url(#pf7cc3e2879)" style="fill: none; stroke: #ffffff; stroke-linecap: round"/>
     </g>
    </g>
   </g>
   <g id="patch_43">
    <path d="M 345.239122 265.573139 
L 365.856743 265.573139 
L 365.856743 248.646238 
L 345.239122 248.646238 
z
" clip-path="url(#pf7cc3e2879)" style="fill: #8a42cb; stroke: #ffffff; stroke-linejoin: miter"/>
   </g>
   <g id="patch_44">
    <path d="M 371.011148 265.573139 
L 391.628769 265.573139 
L 391.628769 259.887569 
L 371.011148 259.887569 
z
" clip-path="url(#pf7cc3e2879)" style="fill: #224fdf; stroke: #ffffff; stroke-linejoin: miter"/>
   </g>
   <g id="patch_45">
    <path d="M 396.783175 265.573139 
L 417.400795 265.573139 
L 417.400795 260.121223 
L 396.783175 260.121223 
z
" clip-path="url(#pf7cc3e2879)" style="fill: #df7d20; stroke: #ffffff; stroke-linejoin: miter"/>
   </g>
   <g id="patch_46">
    <path d="M 422.555201 265.573139 
L 443.172821 265.573139 
L 443.172821 249.042151 
L 422.555201 249.042151 
z
" clip-path="url(#pf7cc3e2879)" style="fill: #30b346; stroke: #ffffff; stroke-linejoin: miter"/>
   </g>
   <g id="patch_47">
    <path d="M 448.327227 265.573139 
L 468.944848 265.573139 
L 468.944848 250.210418 
L 448.327227 250.210418 
z
" clip-path="url(#pf7cc3e2879)" style="fill: #cb1d25; stroke: #ffffff; stroke-linejoin: miter"/>
   </g>
   <g id="line2d_58">
    <path d="M 352.97073 264.981429 
L 358.125135 264.981429 
M 355.547933 264.981429 
L 355.547933 232.311046 
M 352.97073 232.311046 
L 358.125135 232.311046 
" clip-path="url(#pf7cc3e2879)" style="fill: none; stroke: #424242; stroke-width: 2.25; stroke-linecap: round"/>
   </g>
   <g id="line2d_59">
    <path d="M 378.742756 277.34156 
L 383.897161 277.34156 
M 381.319959 277.34156 
L 381.319959 242.433578 
M 378.742756 242.433578 
L 383.897161 242.433578 
" clip-path="url(#pf7cc3e2879)" style="fill: none; stroke: #424242; stroke-width: 2.25; stroke-linecap: round"/>
   </g>
   <g id="line2d_60">
    <path d="M 404.514782 277.099783 
L 409.669188 277.099783 
M 407.091985 277.099783 
L 407.091985 243.142663 
M 404.514782 243.142663 
L 409.669188 243.142663 
" clip-path="url(#pf7cc3e2879)" style="fill: none; stroke: #424242; stroke-width: 2.25; stroke-linecap: round"/>
   </g>
   <g id="line2d_61">
    <path d="M 430.286808 276.302837 
L 435.441214 276.302837 
M 432.864011 276.302837 
L 432.864011 221.781464 
M 430.286808 221.781464 
L 435.441214 221.781464 
" clip-path="url(#pf7cc3e2879)" style="fill: none; stroke: #424242; stroke-width: 2.25; stroke-linecap: round"/>
   </g>
   <g id="line2d_62">
    <path d="M 456.058834 276.335705 
L 461.21324 276.335705 
M 458.636037 276.335705 
L 458.636037 224.085132 
M 456.058834 224.085132 
L 461.21324 224.085132 
" clip-path="url(#pf7cc3e2879)" style="fill: none; stroke: #424242; stroke-width: 2.25; stroke-linecap: round"/>
   </g>
   <g id="patch_48">
    <path d="M 342.66192 284.292 
L 342.66192 162.69014 
" style="fill: none; stroke: #ffffff; stroke-width: 1.25; stroke-linejoin: miter; stroke-linecap: square"/>
   </g>
   <g id="patch_49">
    <path d="M 342.66192 284.292 
L 471.52205 284.292 
" style="fill: none; stroke: #ffffff; stroke-width: 1.25; stroke-linejoin: miter; stroke-linecap: square"/>
   </g>
  </g>
  <g id="axes_8">
   <g id="patch_50">
    <path d="M 490.85107 284.292 
L 619.7112 284.292 
L 619.7112 162.69014 
L 490.85107 162.69014 
z
" style="fill: #eaeaf2"/>
   </g>
   <g id="matplotlib.axis_15">
    <g id="xtick_36">
     <g id="text_36">
      <!-- Theory -->
      <g style="fill: #262626" transform="translate(490.044145 300.090875) scale(0.088 -0.088)">
       <use xlink:href="#ArialMT-54"/>
       <use xlink:href="#ArialMT-68" x="61.083984"/>
       <use xlink:href="#ArialMT-65" x="116.699219"/>
       <use xlink:href="#ArialMT-6f" x="172.314453"/>
       <use xlink:href="#ArialMT-72" x="227.929688"/>
       <use xlink:href="#ArialMT-79" x="261.230469"/>
      </g>
     </g>
    </g>
    <g id="xtick_37">
     <g id="text_37">
      <!-- East -->
      <g style="fill: #262626" transform="translate(520.704984 300.090875) scale(0.088 -0.088)">
       <use xlink:href="#ArialMT-45"/>
       <use xlink:href="#ArialMT-61" x="66.699219"/>
       <use xlink:href="#ArialMT-73" x="122.314453"/>
       <use xlink:href="#ArialMT-74" x="172.314453"/>
      </g>
     </g>
    </g>
    <g id="xtick_38">
     <g id="text_38">
      <!-- West -->
      <g style="fill: #262626" transform="translate(545.33576 300.090875) scale(0.088 -0.088)">
       <use xlink:href="#ArialMT-57"/>
       <use xlink:href="#ArialMT-65" x="92.634766"/>
       <use xlink:href="#ArialMT-73" x="148.25"/>
       <use xlink:href="#ArialMT-74" x="198.25"/>
      </g>
     </g>
    </g>
    <g id="xtick_39">
     <g id="text_39">
      <!-- North -->
      <g style="fill: #262626" transform="translate(570.294473 300.090875) scale(0.088 -0.088)">
       <use xlink:href="#ArialMT-4e"/>
       <use xlink:href="#ArialMT-6f" x="72.216797"/>
       <use xlink:href="#ArialMT-72" x="127.832031"/>
       <use xlink:href="#ArialMT-74" x="161.132812"/>
       <use xlink:href="#ArialMT-68" x="188.916016"/>
      </g>
     </g>
    </g>
    <g id="xtick_40">
     <g id="text_40">
      <!-- South -->
      <g style="fill: #262626" transform="translate(595.327437 300.090875) scale(0.088 -0.088)">
       <use xlink:href="#ArialMT-53"/>
       <use xlink:href="#ArialMT-6f" x="66.699219"/>
       <use xlink:href="#ArialMT-75" x="122.314453"/>
       <use xlink:href="#ArialMT-74" x="177.929688"/>
       <use xlink:href="#ArialMT-68" x="205.712891"/>
      </g>
     </g>
    </g>
    <g id="text_41">
     <!-- Direction -->
     <g style="fill: #262626" transform="translate(536.342135 312.8145) scale(0.096 -0.096)">
      <use xlink:href="#ArialMT-44"/>
      <use xlink:href="#ArialMT-69" x="72.216797"/>
      <use xlink:href="#ArialMT-72" x="94.433594"/>
      <use xlink:href="#ArialMT-65" x="127.734375"/>
      <use xlink:href="#ArialMT-63" x="183.349609"/>
      <use xlink:href="#ArialMT-74" x="233.349609"/>
      <use xlink:href="#ArialMT-69" x="261.132812"/>
      <use xlink:href="#ArialMT-6f" x="283.349609"/>
      <use xlink:href="#ArialMT-6e" x="338.964844"/>
     </g>
    </g>
   </g>
   <g id="matplotlib.axis_16">
    <g id="ytick_36">
     <g id="line2d_63">
      <path d="M 490.85107 265.573139 
L 619.7112 265.573139 
" clip-path="url(#pca08cc94d1)" style="fill: none; stroke: #ffffff; stroke-linecap: round"/>
     </g>
    </g>
    <g id="ytick_37">
     <g id="line2d_64">
      <path d="M 490.85107 241.234228 
L 619.7112 241.234228 
" clip-path="url(#pca08cc94d1)" style="fill: none; stroke: #ffffff; stroke-linecap: round"/>
     </g>
    </g>
    <g id="ytick_38">
     <g id="line2d_65">
      <path d="M 490.85107 216.895318 
L 619.7112 216.895318 
" clip-path="url(#pca08cc94d1)" style="fill: none; stroke: #ffffff; stroke-linecap: round"/>
     </g>
    </g>
    <g id="ytick_39">
     <g id="line2d_66">
      <path d="M 490.85107 192.556407 
L 619.7112 192.556407 
" clip-path="url(#pca08cc94d1)" style="fill: none; stroke: #ffffff; stroke-linecap: round"/>
     </g>
    </g>
    <g id="ytick_40">
     <g id="line2d_67">
      <path d="M 490.85107 168.217497 
L 619.7112 168.217497 
" clip-path="url(#pca08cc94d1)" style="fill: none; stroke: #ffffff; stroke-linecap: round"/>
     </g>
    </g>
   </g>
   <g id="patch_51">
    <path d="M 493.428272 265.573139 
L 514.045893 265.573139 
L 514.045893 254.90296 
L 493.428272 254.90296 
z
" clip-path="url(#pca08cc94d1)" style="fill: #8a42cb; stroke: #ffffff; stroke-linejoin: miter"/>
   </g>
   <g id="patch_52">
    <path d="M 519.200298 265.573139 
L 539.817919 265.573139 
L 539.817919 261.406317 
L 519.200298 261.406317 
z
" clip-path="url(#pca08cc94d1)" style="fill: #224fdf; stroke: #ffffff; stroke-linejoin: miter"/>
   </g>
   <g id="patch_53">
    <path d="M 544.972324 265.573139 
L 565.589945 265.573139 
L 565.589945 262.029393 
L 544.972324 262.029393 
z
" clip-path="url(#pca08cc94d1)" style="fill: #df7d20; stroke: #ffffff; stroke-linejoin: miter"/>
   </g>
   <g id="patch_54">
    <path d="M 570.74435 265.573139 
L 591.361971 265.573139 
L 591.361971 254.182529 
L 570.74435 254.182529 
z
" clip-path="url(#pca08cc94d1)" style="fill: #30b346; stroke: #ffffff; stroke-linejoin: miter"/>
   </g>
   <g id="patch_55">
    <path d="M 596.516377 265.573139 
L 617.133997 265.573139 
L 617.133997 254.708249 
L 596.516377 254.708249 
z
" clip-path="url(#pca08cc94d1)" style="fill: #cb1d25; stroke: #ffffff; stroke-linejoin: miter"/>
   </g>
   <g id="line2d_68">
    <path d="M 501.15988 268.306311 
L 506.314285 268.306311 
M 503.737083 268.306311 
L 503.737083 241.49961 
M 501.15988 241.49961 
L 506.314285 241.49961 
" clip-path="url(#pca08cc94d1)" style="fill: none; stroke: #424242; stroke-width: 2.25; stroke-linecap: round"/>
   </g>
   <g id="line2d_69">
    <path d="M 526.931906 275.75096 
L 532.086311 275.75096 
M 529.509109 275.75096 
L 529.509109 247.061674 
M 526.931906 247.061674 
L 532.086311 247.061674 
" clip-path="url(#pca08cc94d1)" style="fill: none; stroke: #424242; stroke-width: 2.25; stroke-linecap: round"/>
   </g>
   <g id="line2d_70">
    <path d="M 552.703932 275.926179 
L 557.858337 275.926179 
M 555.281135 275.926179 
L 555.281135 248.132608 
M 552.703932 248.132608 
L 557.858337 248.132608 
" clip-path="url(#pca08cc94d1)" style="fill: none; stroke: #424242; stroke-width: 2.25; stroke-linecap: round"/>
   </g>
   <g id="line2d_71">
    <path d="M 578.475958 277.759816 
L 583.630364 277.759816 
M 581.053161 277.759816 
L 581.053161 230.605241 
M 578.475958 230.605241 
L 583.630364 230.605241 
" clip-path="url(#pca08cc94d1)" style="fill: none; stroke: #424242; stroke-width: 2.25; stroke-linecap: round"/>
   </g>
   <g id="line2d_72">
    <path d="M 604.247984 277.230664 
L 609.40239 277.230664 
M 606.825187 277.230664 
L 606.825187 232.185834 
M 604.247984 232.185834 
L 609.40239 232.185834 
" clip-path="url(#pca08cc94d1)" style="fill: none; stroke: #424242; stroke-width: 2.25; stroke-linecap: round"/>
   </g>
   <g id="patch_56">
    <path d="M 490.85107 284.292 
L 490.85107 162.69014 
" style="fill: none; stroke: #ffffff; stroke-width: 1.25; stroke-linejoin: miter; stroke-linecap: square"/>
   </g>
   <g id="patch_57">
    <path d="M 490.85107 284.292 
L 619.7112 284.292 
" style="fill: none; stroke: #ffffff; stroke-width: 1.25; stroke-linejoin: miter; stroke-linecap: square"/>
   </g>
   <g id="text_42">
    <!-- Attribute = Equatorial -->
    <g style="fill: #262626" transform="translate(624.196403 178.53307) rotate(-270) scale(0.096 -0.096)">
     <defs>
      <path id="ArialMT-71" d="M 2538 -1272 
L 2538 353 
Q 2406 169 2170 47 
Q 1934 -75 1669 -75 
Q 1078 -75 651 397 
Q 225 869 225 1691 
Q 225 2191 398 2587 
Q 572 2984 901 3189 
Q 1231 3394 1625 3394 
Q 2241 3394 2594 2875 
L 2594 3319 
L 3100 3319 
L 3100 -1272 
L 2538 -1272 
z
M 803 1669 
Q 803 1028 1072 708 
Q 1341 388 1716 388 
Q 2075 388 2334 692 
Q 2594 997 2594 1619 
Q 2594 2281 2320 2615 
Q 2047 2950 1678 2950 
Q 1313 2950 1058 2639 
Q 803 2328 803 1669 
z
" transform="scale(0.015625)"/>
     </defs>
     <use xlink:href="#ArialMT-41"/>
     <use xlink:href="#ArialMT-74" x="66.699219"/>
     <use xlink:href="#ArialMT-74" x="94.482422"/>
     <use xlink:href="#ArialMT-72" x="122.265625"/>
     <use xlink:href="#ArialMT-69" x="155.566406"/>
     <use xlink:href="#ArialMT-62" x="177.783203"/>
     <use xlink:href="#ArialMT-75" x="233.398438"/>
     <use xlink:href="#ArialMT-74" x="289.013672"/>
     <use xlink:href="#ArialMT-65" x="316.796875"/>
     <use xlink:href="#ArialMT-20" x="372.412109"/>
     <use xlink:href="#ArialMT-3d" x="400.195312"/>
     <use xlink:href="#ArialMT-20" x="458.59375"/>
     <use xlink:href="#ArialMT-45" x="486.376953"/>
     <use xlink:href="#ArialMT-71" x="553.076172"/>
     <use xlink:href="#ArialMT-75" x="608.691406"/>
     <use xlink:href="#ArialMT-61" x="664.306641"/>
     <use xlink:href="#ArialMT-74" x="719.921875"/>
     <use xlink:href="#ArialMT-6f" x="747.705078"/>
     <use xlink:href="#ArialMT-72" x="803.320312"/>
     <use xlink:href="#ArialMT-69" x="836.621094"/>
     <use xlink:href="#ArialMT-61" x="858.837891"/>
     <use xlink:href="#ArialMT-6c" x="914.453125"/>
    </g>
   </g>
  </g>
  <g id="legend_1">
   <g id="text_43">
    <!-- Direction -->
    <g style="fill: #262626" transform="translate(654.348062 133.3105) scale(0.096 -0.096)">
     <use xlink:href="#ArialMT-44"/>
     <use xlink:href="#ArialMT-69" x="72.216797"/>
     <use xlink:href="#ArialMT-72" x="94.433594"/>
     <use xlink:href="#ArialMT-65" x="127.734375"/>
     <use xlink:href="#ArialMT-63" x="183.349609"/>
     <use xlink:href="#ArialMT-74" x="233.349609"/>
     <use xlink:href="#ArialMT-69" x="261.132812"/>
     <use xlink:href="#ArialMT-6f" x="283.349609"/>
     <use xlink:href="#ArialMT-6e" x="338.964844"/>
    </g>
   </g>
   <g id="patch_58">
    <path d="M 647.274125 145.917375 
L 664.874125 145.917375 
L 664.874125 139.757375 
L 647.274125 139.757375 
z
" style="fill: #8a42cb; stroke: #ffffff; stroke-linejoin: miter"/>
   </g>
   <g id="text_44">
    <!-- Theory -->
    <g style="fill: #262626" transform="translate(671.914125 145.917375) scale(0.088 -0.088)">
     <use xlink:href="#ArialMT-54"/>
     <use xlink:href="#ArialMT-68" x="61.083984"/>
     <use xlink:href="#ArialMT-65" x="116.699219"/>
     <use xlink:href="#ArialMT-6f" x="172.314453"/>
     <use xlink:href="#ArialMT-72" x="227.929688"/>
     <use xlink:href="#ArialMT-79" x="261.230469"/>
    </g>
   </g>
   <g id="patch_59">
    <path d="M 647.274125 158.468375 
L 664.874125 158.468375 
L 664.874125 152.308375 
L 647.274125 152.308375 
z
" style="fill: #224fdf; stroke: #ffffff; stroke-linejoin: miter"/>
   </g>
   <g id="text_45">
    <!-- East -->
    <g style="fill: #262626" transform="translate(671.914125 158.468375) scale(0.088 -0.088)">
     <use xlink:href="#ArialMT-45"/>
     <use xlink:href="#ArialMT-61" x="66.699219"/>
     <use xlink:href="#ArialMT-73" x="122.314453"/>
     <use xlink:href="#ArialMT-74" x="172.314453"/>
    </g>
   </g>
   <g id="patch_60">
    <path d="M 647.274125 170.91625 
L 664.874125 170.91625 
L 664.874125 164.75625 
L 647.274125 164.75625 
z
" style="fill: #df7d20; stroke: #ffffff; stroke-linejoin: miter"/>
   </g>
   <g id="text_46">
    <!-- West -->
    <g style="fill: #262626" transform="translate(671.914125 170.91625) scale(0.088 -0.088)">
     <use xlink:href="#ArialMT-57"/>
     <use xlink:href="#ArialMT-65" x="92.634766"/>
     <use xlink:href="#ArialMT-73" x="148.25"/>
     <use xlink:href="#ArialMT-74" x="198.25"/>
    </g>
   </g>
   <g id="patch_61">
    <path d="M 647.274125 183.364125 
L 664.874125 183.364125 
L 664.874125 177.204125 
L 647.274125 177.204125 
z
" style="fill: #30b346; stroke: #ffffff; stroke-linejoin: miter"/>
   </g>
   <g id="text_47">
    <!-- North -->
    <g style="fill: #262626" transform="translate(671.914125 183.364125) scale(0.088 -0.088)">
     <use xlink:href="#ArialMT-4e"/>
     <use xlink:href="#ArialMT-6f" x="72.216797"/>
     <use xlink:href="#ArialMT-72" x="127.832031"/>
     <use xlink:href="#ArialMT-74" x="161.132812"/>
     <use xlink:href="#ArialMT-68" x="188.916016"/>
    </g>
   </g>
   <g id="patch_62">
    <path d="M 647.274125 195.812 
L 664.874125 195.812 
L 664.874125 189.652 
L 647.274125 189.652 
z
" style="fill: #cb1d25; stroke: #ffffff; stroke-linejoin: miter"/>
   </g>
   <g id="text_48">
    <!-- South -->
    <g style="fill: #262626" transform="translate(671.914125 195.812) scale(0.088 -0.088)">
     <use xlink:href="#ArialMT-53"/>
     <use xlink:href="#ArialMT-6f" x="66.699219"/>
     <use xlink:href="#ArialMT-75" x="122.314453"/>
     <use xlink:href="#ArialMT-74" x="177.929688"/>
     <use xlink:href="#ArialMT-68" x="205.712891"/>
    </g>
   </g>
  </g>
 </g>
 <defs>
  <clipPath id="p42ac69c498">
   <rect x="46.28362" y="22.848" width="128.86013" height="121.60186"/>
  </clipPath>
  <clipPath id="p7a0b4471da">
   <rect x="194.47277" y="22.848" width="128.86013" height="121.60186"/>
  </clipPath>
  <clipPath id="pfeefe7695a">
   <rect x="342.66192" y="22.848" width="128.86013" height="121.60186"/>
  </clipPath>
  <clipPath id="p6a5c80ea8d">
   <rect x="490.85107" y="22.848" width="128.86013" height="121.60186"/>
  </clipPath>
  <clipPath id="pa71b7f9607">
   <rect x="46.28362" y="162.69014" width="128.86013" height="121.60186"/>
  </clipPath>
  <clipPath id="p4b2eb702cf">
   <rect x="194.47277" y="162.69014" width="128.86013" height="121.60186"/>
  </clipPath>
  <clipPath id="pf7cc3e2879">
   <rect x="342.66192" y="162.69014" width="128.86013" height="121.60186"/>
  </clipPath>
  <clipPath id="pca08cc94d1">
   <rect x="490.85107" y="162.69014" width="128.86013" height="121.60186"/>
  </clipPath>
 </defs>
</svg>
