<?xml version="1.0" encoding="utf-8" standalone="no"?>
<!DOCTYPE svg PUBLIC "-//W3C//DTD SVG 1.1//EN"
  "http://www.w3.org/Graphics/SVG/1.1/DTD/svg11.dtd">
<svg xmlns:xlink="http://www.w3.org/1999/xlink" width="378.72pt" height="162pt" viewBox="0 0 378.72 162" xmlns="http://www.w3.org/2000/svg" version="1.1">
 <metadata>
  <rdf:RDF xmlns:dc="http://purl.org/dc/elements/1.1/" xmlns:cc="http://creativecommons.org/ns#" xmlns:rdf="http://www.w3.org/1999/02/22-rdf-syntax-ns#">
   <cc:Work>
    <dc:type rdf:resource="http://purl.org/dc/dcmitype/StillImage"/>
    <dc:date>2024-08-26T15:08:16.980211</dc:date>
    <dc:format>image/svg+xml</dc:format>
    <dc:creator>
     <cc:Agent>
      <dc:title>Matplotlib v3.9.0, https://matplotlib.org/</dc:title>
     </cc:Agent>
    </dc:creator>
   </cc:Work>
  </rdf:RDF>
 </metadata>
 <defs>
  <style type="text/css">*{stroke-linejoin: round; stroke-linecap: butt}</style>
 </defs>
 <g id="figure_1">
  <g id="patch_1">
   <path d="M 0 162 
L 378.72 162 
L 378.72 0 
L 0 0 
z
" style="fill: #ffffff"/>
  </g>
  <g id="axes_1">
   <g id="patch_2">
    <path d="M 49.57024 122.292 
L 174.254992 122.292 
L 174.254992 22.848 
L 49.57024 22.848 
z
" style="fill: #eaeaf2"/>
   </g>
   <g id="matplotlib.axis_1">
    <g id="xtick_1">
     <g id="line2d_1">
      <path d="M 52.924468 122.292 
L 52.924468 22.848 
" clip-path="url(#pd193b7a283)" style="fill: none; stroke: #ffffff; stroke-linecap: round"/>
     </g>
     <g id="text_1">
      <!-- 0 -->
      <g style="fill: #262626" transform="translate(50.477656 138.090875) scale(0.088 -0.088)">
       <defs>
        <path id="ArialMT-30" d="M 266 2259 
Q 266 3072 433 3567 
Q 600 4063 929 4331 
Q 1259 4600 1759 4600 
Q 2128 4600 2406 4451 
Q 2684 4303 2865 4023 
Q 3047 3744 3150 3342 
Q 3253 2941 3253 2259 
Q 3253 1453 3087 958 
Q 2922 463 2592 192 
Q 2263 -78 1759 -78 
Q 1097 -78 719 397 
Q 266 969 266 2259 
z
M 844 2259 
Q 844 1131 1108 757 
Q 1372 384 1759 384 
Q 2147 384 2411 759 
Q 2675 1134 2675 2259 
Q 2675 3391 2411 3762 
Q 2147 4134 1753 4134 
Q 1366 4134 1134 3806 
Q 844 3388 844 2259 
z
" transform="scale(0.015625)"/>
       </defs>
       <use xlink:href="#ArialMT-30"/>
      </g>
     </g>
    </g>
    <g id="xtick_2">
     <g id="line2d_2">
      <path d="M 99.189682 122.292 
L 99.189682 22.848 
" clip-path="url(#pd193b7a283)" style="fill: none; stroke: #ffffff; stroke-linecap: round"/>
     </g>
     <g id="text_2">
      <!-- 20 -->
      <g style="fill: #262626" transform="translate(94.296057 138.090875) scale(0.088 -0.088)">
       <defs>
        <path id="ArialMT-32" d="M 3222 541 
L 3222 0 
L 194 0 
Q 188 203 259 391 
Q 375 700 629 1000 
Q 884 1300 1366 1694 
Q 2113 2306 2375 2664 
Q 2638 3022 2638 3341 
Q 2638 3675 2398 3904 
Q 2159 4134 1775 4134 
Q 1369 4134 1125 3890 
Q 881 3647 878 3216 
L 300 3275 
Q 359 3922 746 4261 
Q 1134 4600 1788 4600 
Q 2447 4600 2831 4234 
Q 3216 3869 3216 3328 
Q 3216 3053 3103 2787 
Q 2991 2522 2730 2228 
Q 2469 1934 1863 1422 
Q 1356 997 1212 845 
Q 1069 694 975 541 
L 3222 541 
z
" transform="scale(0.015625)"/>
       </defs>
       <use xlink:href="#ArialMT-32"/>
       <use xlink:href="#ArialMT-30" x="55.615234"/>
      </g>
     </g>
    </g>
    <g id="xtick_3">
     <g id="line2d_3">
      <path d="M 145.454896 122.292 
L 145.454896 22.848 
" clip-path="url(#pd193b7a283)" style="fill: none; stroke: #ffffff; stroke-linecap: round"/>
     </g>
     <g id="text_3">
      <!-- 40 -->
      <g style="fill: #262626" transform="translate(140.561271 138.090875) scale(0.088 -0.088)">
       <defs>
        <path id="ArialMT-34" d="M 2069 0 
L 2069 1097 
L 81 1097 
L 81 1613 
L 2172 4581 
L 2631 4581 
L 2631 1613 
L 3250 1613 
L 3250 1097 
L 2631 1097 
L 2631 0 
L 2069 0 
z
M 2069 1613 
L 2069 3678 
L 634 1613 
L 2069 1613 
z
" transform="scale(0.015625)"/>
       </defs>
       <use xlink:href="#ArialMT-34"/>
       <use xlink:href="#ArialMT-30" x="55.615234"/>
      </g>
     </g>
    </g>
    <g id="text_4">
     <!-- Frame -->
     <g style="fill: #262626" transform="translate(98.045866 150.711375) scale(0.096 -0.096)">
      <defs>
       <path id="ArialMT-46" d="M 525 0 
L 525 4581 
L 3616 4581 
L 3616 4041 
L 1131 4041 
L 1131 2622 
L 3281 2622 
L 3281 2081 
L 1131 2081 
L 1131 0 
L 525 0 
z
" transform="scale(0.015625)"/>
       <path id="ArialMT-72" d="M 416 0 
L 416 3319 
L 922 3319 
L 922 2816 
Q 1116 3169 1280 3281 
Q 1444 3394 1641 3394 
Q 1925 3394 2219 3213 
L 2025 2691 
Q 1819 2813 1613 2813 
Q 1428 2813 1281 2702 
Q 1134 2591 1072 2394 
Q 978 2094 978 1738 
L 978 0 
L 416 0 
z
" transform="scale(0.015625)"/>
       <path id="ArialMT-61" d="M 2588 409 
Q 2275 144 1986 34 
Q 1697 -75 1366 -75 
Q 819 -75 525 192 
Q 231 459 231 875 
Q 231 1119 342 1320 
Q 453 1522 633 1644 
Q 813 1766 1038 1828 
Q 1203 1872 1538 1913 
Q 2219 1994 2541 2106 
Q 2544 2222 2544 2253 
Q 2544 2597 2384 2738 
Q 2169 2928 1744 2928 
Q 1347 2928 1158 2789 
Q 969 2650 878 2297 
L 328 2372 
Q 403 2725 575 2942 
Q 747 3159 1072 3276 
Q 1397 3394 1825 3394 
Q 2250 3394 2515 3294 
Q 2781 3194 2906 3042 
Q 3031 2891 3081 2659 
Q 3109 2516 3109 2141 
L 3109 1391 
Q 3109 606 3145 398 
Q 3181 191 3288 0 
L 2700 0 
Q 2613 175 2588 409 
z
M 2541 1666 
Q 2234 1541 1622 1453 
Q 1275 1403 1131 1340 
Q 988 1278 909 1158 
Q 831 1038 831 891 
Q 831 666 1001 516 
Q 1172 366 1500 366 
Q 1825 366 2078 508 
Q 2331 650 2450 897 
Q 2541 1088 2541 1459 
L 2541 1666 
z
" transform="scale(0.015625)"/>
       <path id="ArialMT-6d" d="M 422 0 
L 422 3319 
L 925 3319 
L 925 2853 
Q 1081 3097 1340 3245 
Q 1600 3394 1931 3394 
Q 2300 3394 2536 3241 
Q 2772 3088 2869 2813 
Q 3263 3394 3894 3394 
Q 4388 3394 4653 3120 
Q 4919 2847 4919 2278 
L 4919 0 
L 4359 0 
L 4359 2091 
Q 4359 2428 4304 2576 
Q 4250 2725 4106 2815 
Q 3963 2906 3769 2906 
Q 3419 2906 3187 2673 
Q 2956 2441 2956 1928 
L 2956 0 
L 2394 0 
L 2394 2156 
Q 2394 2531 2256 2718 
Q 2119 2906 1806 2906 
Q 1569 2906 1367 2781 
Q 1166 2656 1075 2415 
Q 984 2175 984 1722 
L 984 0 
L 422 0 
z
" transform="scale(0.015625)"/>
       <path id="ArialMT-65" d="M 2694 1069 
L 3275 997 
Q 3138 488 2766 206 
Q 2394 -75 1816 -75 
Q 1088 -75 661 373 
Q 234 822 234 1631 
Q 234 2469 665 2931 
Q 1097 3394 1784 3394 
Q 2450 3394 2872 2941 
Q 3294 2488 3294 1666 
Q 3294 1616 3291 1516 
L 816 1516 
Q 847 969 1125 678 
Q 1403 388 1819 388 
Q 2128 388 2347 550 
Q 2566 713 2694 1069 
z
M 847 1978 
L 2700 1978 
Q 2663 2397 2488 2606 
Q 2219 2931 1791 2931 
Q 1403 2931 1139 2672 
Q 875 2413 847 1978 
z
" transform="scale(0.015625)"/>
      </defs>
      <use xlink:href="#ArialMT-46"/>
      <use xlink:href="#ArialMT-72" x="61.083984"/>
      <use xlink:href="#ArialMT-61" x="94.384766"/>
      <use xlink:href="#ArialMT-6d" x="150"/>
      <use xlink:href="#ArialMT-65" x="233.300781"/>
     </g>
    </g>
   </g>
   <g id="matplotlib.axis_2">
    <g id="ytick_1">
     <g id="line2d_4">
      <path d="M 49.57024 114.021146 
L 174.254992 114.021146 
" clip-path="url(#pd193b7a283)" style="fill: none; stroke: #ffffff; stroke-linecap: round"/>
     </g>
     <g id="text_5">
      <!-- 20 -->
      <g style="fill: #262626" transform="translate(30.28299 117.170584) scale(0.088 -0.088)">
       <use xlink:href="#ArialMT-32"/>
       <use xlink:href="#ArialMT-30" x="55.615234"/>
      </g>
     </g>
    </g>
    <g id="ytick_2">
     <g id="line2d_5">
      <path d="M 49.57024 81.305119 
L 174.254992 81.305119 
" clip-path="url(#pd193b7a283)" style="fill: none; stroke: #ffffff; stroke-linecap: round"/>
     </g>
     <g id="text_6">
      <!-- 30 -->
      <g style="fill: #262626" transform="translate(30.28299 84.454556) scale(0.088 -0.088)">
       <defs>
        <path id="ArialMT-33" d="M 269 1209 
L 831 1284 
Q 928 806 1161 595 
Q 1394 384 1728 384 
Q 2125 384 2398 659 
Q 2672 934 2672 1341 
Q 2672 1728 2419 1979 
Q 2166 2231 1775 2231 
Q 1616 2231 1378 2169 
L 1441 2663 
Q 1497 2656 1531 2656 
Q 1891 2656 2178 2843 
Q 2466 3031 2466 3422 
Q 2466 3731 2256 3934 
Q 2047 4138 1716 4138 
Q 1388 4138 1169 3931 
Q 950 3725 888 3313 
L 325 3413 
Q 428 3978 793 4289 
Q 1159 4600 1703 4600 
Q 2078 4600 2393 4439 
Q 2709 4278 2876 4000 
Q 3044 3722 3044 3409 
Q 3044 3113 2884 2869 
Q 2725 2625 2413 2481 
Q 2819 2388 3044 2092 
Q 3269 1797 3269 1353 
Q 3269 753 2831 336 
Q 2394 -81 1725 -81 
Q 1122 -81 723 278 
Q 325 638 269 1209 
z
" transform="scale(0.015625)"/>
       </defs>
       <use xlink:href="#ArialMT-33"/>
       <use xlink:href="#ArialMT-30" x="55.615234"/>
      </g>
     </g>
    </g>
    <g id="ytick_3">
     <g id="line2d_6">
      <path d="M 49.57024 48.589091 
L 174.254992 48.589091 
" clip-path="url(#pd193b7a283)" style="fill: none; stroke: #ffffff; stroke-linecap: round"/>
     </g>
     <g id="text_7">
      <!-- 40 -->
      <g style="fill: #262626" transform="translate(30.28299 51.738529) scale(0.088 -0.088)">
       <use xlink:href="#ArialMT-34"/>
       <use xlink:href="#ArialMT-30" x="55.615234"/>
      </g>
     </g>
    </g>
    <g id="text_8">
     <!-- RTT (ms) -->
     <g style="fill: #262626" transform="translate(24.26249 92.66025) rotate(-90) scale(0.096 -0.096)">
      <defs>
       <path id="ArialMT-52" d="M 503 0 
L 503 4581 
L 2534 4581 
Q 3147 4581 3465 4457 
Q 3784 4334 3975 4021 
Q 4166 3709 4166 3331 
Q 4166 2844 3850 2509 
Q 3534 2175 2875 2084 
Q 3116 1969 3241 1856 
Q 3506 1613 3744 1247 
L 4541 0 
L 3778 0 
L 3172 953 
Q 2906 1366 2734 1584 
Q 2563 1803 2427 1890 
Q 2291 1978 2150 2013 
Q 2047 2034 1813 2034 
L 1109 2034 
L 1109 0 
L 503 0 
z
M 1109 2559 
L 2413 2559 
Q 2828 2559 3062 2645 
Q 3297 2731 3419 2920 
Q 3541 3109 3541 3331 
Q 3541 3656 3305 3865 
Q 3069 4075 2559 4075 
L 1109 4075 
L 1109 2559 
z
" transform="scale(0.015625)"/>
       <path id="ArialMT-54" d="M 1659 0 
L 1659 4041 
L 150 4041 
L 150 4581 
L 3781 4581 
L 3781 4041 
L 2266 4041 
L 2266 0 
L 1659 0 
z
" transform="scale(0.015625)"/>
       <path id="ArialMT-20" transform="scale(0.015625)"/>
       <path id="ArialMT-28" d="M 1497 -1347 
Q 1031 -759 709 28 
Q 388 816 388 1659 
Q 388 2403 628 3084 
Q 909 3875 1497 4659 
L 1900 4659 
Q 1522 4009 1400 3731 
Q 1209 3300 1100 2831 
Q 966 2247 966 1656 
Q 966 153 1900 -1347 
L 1497 -1347 
z
" transform="scale(0.015625)"/>
       <path id="ArialMT-73" d="M 197 991 
L 753 1078 
Q 800 744 1014 566 
Q 1228 388 1613 388 
Q 2000 388 2187 545 
Q 2375 703 2375 916 
Q 2375 1106 2209 1216 
Q 2094 1291 1634 1406 
Q 1016 1563 777 1677 
Q 538 1791 414 1992 
Q 291 2194 291 2438 
Q 291 2659 392 2848 
Q 494 3038 669 3163 
Q 800 3259 1026 3326 
Q 1253 3394 1513 3394 
Q 1903 3394 2198 3281 
Q 2494 3169 2634 2976 
Q 2775 2784 2828 2463 
L 2278 2388 
Q 2241 2644 2061 2787 
Q 1881 2931 1553 2931 
Q 1166 2931 1000 2803 
Q 834 2675 834 2503 
Q 834 2394 903 2306 
Q 972 2216 1119 2156 
Q 1203 2125 1616 2013 
Q 2213 1853 2448 1751 
Q 2684 1650 2818 1456 
Q 2953 1263 2953 975 
Q 2953 694 2789 445 
Q 2625 197 2315 61 
Q 2006 -75 1616 -75 
Q 969 -75 630 194 
Q 291 463 197 991 
z
" transform="scale(0.015625)"/>
       <path id="ArialMT-29" d="M 791 -1347 
L 388 -1347 
Q 1322 153 1322 1656 
Q 1322 2244 1188 2822 
Q 1081 3291 891 3722 
Q 769 4003 388 4659 
L 791 4659 
Q 1378 3875 1659 3084 
Q 1900 2403 1900 1659 
Q 1900 816 1576 28 
Q 1253 -759 791 -1347 
z
" transform="scale(0.015625)"/>
      </defs>
      <use xlink:href="#ArialMT-52"/>
      <use xlink:href="#ArialMT-54" x="70.466797"/>
      <use xlink:href="#ArialMT-54" x="131.550781"/>
      <use xlink:href="#ArialMT-20" x="190.884766"/>
      <use xlink:href="#ArialMT-28" x="218.667969"/>
      <use xlink:href="#ArialMT-6d" x="251.96875"/>
      <use xlink:href="#ArialMT-73" x="335.269531"/>
      <use xlink:href="#ArialMT-29" x="385.269531"/>
     </g>
    </g>
   </g>
   <g id="PolyCollection_1">
    <defs>
     <path id="me9b92b5fc0" d="M 140.828374 -64.052734 
L 140.828374 -62.810993 
L 143.141635 -62.962558 
L 145.454896 -63.031899 
L 147.768157 -63.114548 
L 150.081417 -63.208268 
L 152.394678 -63.320723 
L 154.707939 -63.444636 
L 157.021199 -63.582758 
L 161.647721 -63.697458 
L 163.960981 -63.565886 
L 166.274242 -63.462762 
L 168.587503 -65.88974 
L 168.587503 -68.034335 
L 168.587503 -68.034335 
L 166.274242 -63.462762 
L 163.960981 -63.565886 
L 161.647721 -63.697458 
L 157.021199 -64.82875 
L 154.707939 -64.676826 
L 152.394678 -64.538874 
L 150.081417 -64.414705 
L 147.768157 -64.304125 
L 145.454896 -64.20704 
L 143.141635 -64.21996 
L 140.828374 -64.052734 
z
" style="stroke: #023eff; stroke-opacity: 0.2"/>
    </defs>
    <g clip-path="url(#pd193b7a283)">
     <use xlink:href="#me9b92b5fc0" x="0" y="162" style="fill: #023eff; fill-opacity: 0.2; stroke: #023eff; stroke-opacity: 0.2"/>
    </g>
   </g>
   <g id="PolyCollection_2">
    <defs>
     <path id="m49cb1c3922" d="M 55.237729 -61.659941 
L 55.237729 -54.205379 
L 57.550989 -61.829421 
L 59.86425 -61.829285 
L 62.177511 -68.786421 
L 64.490771 -73.67995 
L 66.804032 -83.596627 
L 69.117293 -83.677443 
L 71.430554 -83.705492 
L 73.743814 -83.758945 
L 80.683596 -76.62897 
L 82.996857 -76.496391 
L 85.310118 -76.759649 
L 87.623378 -76.397878 
L 89.936639 -77.101372 
L 92.2499 -76.767093 
L 94.563161 -75.691359 
L 96.876421 -76.155663 
L 108.442725 -70.517823 
L 110.755985 -70.318041 
L 113.069246 -70.390387 
L 115.382507 -70.196637 
L 117.695768 -54.208164 
L 120.009028 -61.829447 
L 122.322289 -68.787369 
L 124.63555 -73.287929 
L 126.94881 -83.592429 
L 129.262071 -83.653357 
L 131.575332 -83.701998 
L 133.888592 -83.753254 
L 140.828374 -76.631489 
L 143.141635 -76.415994 
L 145.454896 -76.558747 
L 147.768157 -76.681598 
L 150.081417 -76.622963 
L 152.394678 -76.68606 
L 154.707939 -76.037027 
L 157.021199 -76.086307 
L 168.587503 -70.536369 
L 168.587503 -70.536369 
L 168.587503 -70.536369 
L 157.021199 -82.470142 
L 154.707939 -82.056862 
L 152.394678 -82.768548 
L 150.081417 -82.797625 
L 147.768157 -82.647603 
L 145.454896 -82.703545 
L 143.141635 -82.539766 
L 140.828374 -83.005004 
L 133.888592 -83.753254 
L 131.575332 -83.701998 
L 129.262071 -83.66476 
L 126.94881 -83.63096 
L 124.63555 -78.631277 
L 122.322289 -75.69449 
L 120.009028 -75.857451 
L 117.695768 -61.663808 
L 115.382507 -70.368738 
L 113.069246 -70.587522 
L 110.755985 -70.318041 
L 108.442725 -70.517823 
L 96.876421 -82.167352 
L 94.563161 -82.044901 
L 92.2499 -82.590418 
L 89.936639 -82.610803 
L 87.623378 -82.725602 
L 85.310118 -82.781095 
L 82.996857 -82.687246 
L 80.683596 -82.728464 
L 73.743814 -83.758945 
L 71.430554 -83.705492 
L 69.117293 -83.677443 
L 66.804032 -83.632896 
L 64.490771 -78.654589 
L 62.177511 -75.691457 
L 59.86425 -75.859466 
L 57.550989 -75.858082 
L 55.237729 -61.659941 
z
" style="stroke: #ff7c00; stroke-opacity: 0.2"/>
    </defs>
    <g clip-path="url(#pd193b7a283)">
     <use xlink:href="#m49cb1c3922" x="0" y="162" style="fill: #ff7c00; fill-opacity: 0.2; stroke: #ff7c00; stroke-opacity: 0.2"/>
    </g>
   </g>
   <g id="PolyCollection_3"/>
   <g id="PolyCollection_4"/>
   <g id="line2d_7">
    <path d="M 140.828374 98.520377 
L 143.141635 98.457103 
L 145.454896 98.38053 
L 147.768157 98.290664 
L 150.081417 98.187259 
L 152.394678 98.070202 
L 154.707939 97.939269 
L 157.021199 97.794246 
L 161.647721 98.302542 
L 163.960981 98.434114 
L 166.274242 98.537238 
L 168.587503 95.037962 
" clip-path="url(#pd193b7a283)" style="fill: none; stroke: #023eff; stroke-width: 1.5; stroke-linecap: round"/>
   </g>
   <g id="line2d_8">
    <path d="M 55.237729 104.06734 
L 57.550989 93.156248 
L 59.86425 93.155624 
L 62.177511 89.761061 
L 64.490771 86.017703 
L 66.804032 78.385239 
L 69.117293 78.322557 
L 71.430554 78.294508 
L 73.743814 78.241055 
L 80.683596 82.214277 
L 82.996857 82.248524 
L 85.310118 82.269364 
L 87.623378 82.276569 
L 89.936639 82.269999 
L 92.2499 82.249435 
L 94.563161 82.931302 
L 96.876421 82.861532 
L 108.442725 91.482177 
L 110.755985 91.681959 
L 113.069246 91.527473 
L 115.382507 91.717312 
L 117.695768 104.064014 
L 120.009028 93.156551 
L 122.322289 89.75907 
L 124.63555 86.019575 
L 126.94881 78.388306 
L 129.262071 78.34138 
L 131.575332 78.298002 
L 133.888592 78.246746 
L 140.828374 82.210659 
L 143.141635 82.246145 
L 145.454896 82.268091 
L 147.768157 82.276501 
L 150.081417 82.271103 
L 152.394678 82.25178 
L 154.707939 82.936683 
L 157.021199 82.868109 
L 168.587503 91.463631 
" clip-path="url(#pd193b7a283)" style="fill: none; stroke: #ff7c00; stroke-width: 1.5; stroke-linecap: round"/>
   </g>
   <g id="line2d_9"/>
   <g id="line2d_10"/>
   <g id="patch_3">
    <path d="M 49.57024 122.292 
L 49.57024 22.848 
" style="fill: none; stroke: #ffffff; stroke-width: 1.25; stroke-linejoin: miter; stroke-linecap: square"/>
   </g>
   <g id="patch_4">
    <path d="M 49.57024 122.292 
L 174.254992 122.292 
" style="fill: none; stroke: #ffffff; stroke-width: 1.25; stroke-linejoin: miter; stroke-linecap: square"/>
   </g>
   <g id="text_9">
    <!-- TransOrbital -->
    <g style="fill: #262626" transform="translate(85.687366 16.848) scale(0.096 -0.096)">
     <defs>
      <path id="ArialMT-6e" d="M 422 0 
L 422 3319 
L 928 3319 
L 928 2847 
Q 1294 3394 1984 3394 
Q 2284 3394 2536 3286 
Q 2788 3178 2913 3003 
Q 3038 2828 3088 2588 
Q 3119 2431 3119 2041 
L 3119 0 
L 2556 0 
L 2556 2019 
Q 2556 2363 2490 2533 
Q 2425 2703 2258 2804 
Q 2091 2906 1866 2906 
Q 1506 2906 1245 2678 
Q 984 2450 984 1813 
L 984 0 
L 422 0 
z
" transform="scale(0.015625)"/>
      <path id="ArialMT-4f" d="M 309 2231 
Q 309 3372 921 4017 
Q 1534 4663 2503 4663 
Q 3138 4663 3647 4359 
Q 4156 4056 4423 3514 
Q 4691 2972 4691 2284 
Q 4691 1588 4409 1038 
Q 4128 488 3612 205 
Q 3097 -78 2500 -78 
Q 1853 -78 1343 234 
Q 834 547 571 1087 
Q 309 1628 309 2231 
z
M 934 2222 
Q 934 1394 1379 917 
Q 1825 441 2497 441 
Q 3181 441 3623 922 
Q 4066 1403 4066 2288 
Q 4066 2847 3877 3264 
Q 3688 3681 3323 3911 
Q 2959 4141 2506 4141 
Q 1863 4141 1398 3698 
Q 934 3256 934 2222 
z
" transform="scale(0.015625)"/>
      <path id="ArialMT-62" d="M 941 0 
L 419 0 
L 419 4581 
L 981 4581 
L 981 2947 
Q 1338 3394 1891 3394 
Q 2197 3394 2470 3270 
Q 2744 3147 2920 2923 
Q 3097 2700 3197 2384 
Q 3297 2069 3297 1709 
Q 3297 856 2875 390 
Q 2453 -75 1863 -75 
Q 1275 -75 941 416 
L 941 0 
z
M 934 1684 
Q 934 1088 1097 822 
Q 1363 388 1816 388 
Q 2184 388 2453 708 
Q 2722 1028 2722 1663 
Q 2722 2313 2464 2622 
Q 2206 2931 1841 2931 
Q 1472 2931 1203 2611 
Q 934 2291 934 1684 
z
" transform="scale(0.015625)"/>
      <path id="ArialMT-69" d="M 425 3934 
L 425 4581 
L 988 4581 
L 988 3934 
L 425 3934 
z
M 425 0 
L 425 3319 
L 988 3319 
L 988 0 
L 425 0 
z
" transform="scale(0.015625)"/>
      <path id="ArialMT-74" d="M 1650 503 
L 1731 6 
Q 1494 -44 1306 -44 
Q 1000 -44 831 53 
Q 663 150 594 308 
Q 525 466 525 972 
L 525 2881 
L 113 2881 
L 113 3319 
L 525 3319 
L 525 4141 
L 1084 4478 
L 1084 3319 
L 1650 3319 
L 1650 2881 
L 1084 2881 
L 1084 941 
Q 1084 700 1114 631 
Q 1144 563 1211 522 
Q 1278 481 1403 481 
Q 1497 481 1650 503 
z
" transform="scale(0.015625)"/>
      <path id="ArialMT-6c" d="M 409 0 
L 409 4581 
L 972 4581 
L 972 0 
L 409 0 
z
" transform="scale(0.015625)"/>
     </defs>
     <use xlink:href="#ArialMT-54"/>
     <use xlink:href="#ArialMT-72" x="57.333984"/>
     <use xlink:href="#ArialMT-61" x="90.634766"/>
     <use xlink:href="#ArialMT-6e" x="146.25"/>
     <use xlink:href="#ArialMT-73" x="201.865234"/>
     <use xlink:href="#ArialMT-4f" x="251.865234"/>
     <use xlink:href="#ArialMT-72" x="329.648438"/>
     <use xlink:href="#ArialMT-62" x="362.949219"/>
     <use xlink:href="#ArialMT-69" x="418.564453"/>
     <use xlink:href="#ArialMT-74" x="440.78125"/>
     <use xlink:href="#ArialMT-61" x="468.564453"/>
     <use xlink:href="#ArialMT-6c" x="524.179688"/>
    </g>
   </g>
  </g>
  <g id="axes_2">
   <g id="patch_5">
    <path d="M 184.166448 122.292 
L 308.8512 122.292 
L 308.8512 22.848 
L 184.166448 22.848 
z
" style="fill: #eaeaf2"/>
   </g>
   <g id="matplotlib.axis_3">
    <g id="xtick_4">
     <g id="line2d_11">
      <path d="M 187.520676 122.292 
L 187.520676 22.848 
" clip-path="url(#p2a681a086a)" style="fill: none; stroke: #ffffff; stroke-linecap: round"/>
     </g>
     <g id="text_10">
      <!-- 0 -->
      <g style="fill: #262626" transform="translate(185.073864 138.090875) scale(0.088 -0.088)">
       <use xlink:href="#ArialMT-30"/>
      </g>
     </g>
    </g>
    <g id="xtick_5">
     <g id="line2d_12">
      <path d="M 233.78589 122.292 
L 233.78589 22.848 
" clip-path="url(#p2a681a086a)" style="fill: none; stroke: #ffffff; stroke-linecap: round"/>
     </g>
     <g id="text_11">
      <!-- 20 -->
      <g style="fill: #262626" transform="translate(228.892265 138.090875) scale(0.088 -0.088)">
       <use xlink:href="#ArialMT-32"/>
       <use xlink:href="#ArialMT-30" x="55.615234"/>
      </g>
     </g>
    </g>
    <g id="xtick_6">
     <g id="line2d_13">
      <path d="M 280.051104 122.292 
L 280.051104 22.848 
" clip-path="url(#p2a681a086a)" style="fill: none; stroke: #ffffff; stroke-linecap: round"/>
     </g>
     <g id="text_12">
      <!-- 40 -->
      <g style="fill: #262626" transform="translate(275.157479 138.090875) scale(0.088 -0.088)">
       <use xlink:href="#ArialMT-34"/>
       <use xlink:href="#ArialMT-30" x="55.615234"/>
      </g>
     </g>
    </g>
    <g id="text_13">
     <!-- Frame -->
     <g style="fill: #262626" transform="translate(232.642074 150.711375) scale(0.096 -0.096)">
      <use xlink:href="#ArialMT-46"/>
      <use xlink:href="#ArialMT-72" x="61.083984"/>
      <use xlink:href="#ArialMT-61" x="94.384766"/>
      <use xlink:href="#ArialMT-6d" x="150"/>
      <use xlink:href="#ArialMT-65" x="233.300781"/>
     </g>
    </g>
   </g>
   <g id="matplotlib.axis_4">
    <g id="ytick_4">
     <g id="line2d_14">
      <path d="M 184.166448 114.021146 
L 308.8512 114.021146 
" clip-path="url(#p2a681a086a)" style="fill: none; stroke: #ffffff; stroke-linecap: round"/>
     </g>
    </g>
    <g id="ytick_5">
     <g id="line2d_15">
      <path d="M 184.166448 81.305119 
L 308.8512 81.305119 
" clip-path="url(#p2a681a086a)" style="fill: none; stroke: #ffffff; stroke-linecap: round"/>
     </g>
    </g>
    <g id="ytick_6">
     <g id="line2d_16">
      <path d="M 184.166448 48.589091 
L 308.8512 48.589091 
" clip-path="url(#p2a681a086a)" style="fill: none; stroke: #ffffff; stroke-linecap: round"/>
     </g>
    </g>
   </g>
   <g id="PolyCollection_5">
    <defs>
     <path id="m39d169eb67" d="M 189.833937 -70.830736 
L 189.833937 -65.112198 
L 192.147198 -69.305712 
L 194.460459 -69.282059 
L 196.773719 -70.396745 
L 199.08698 -71.167655 
L 201.400241 -61.298876 
L 203.713501 -61.044432 
L 206.026762 -61.027114 
L 208.340023 -58.167408 
L 210.653283 -58.029774 
L 212.966544 -58.218913 
L 215.279805 -45.834308 
L 217.593066 -48.115736 
L 219.906326 -48.585966 
L 222.219587 -48.644188 
L 224.532848 -48.723949 
L 226.846108 -48.827208 
L 229.159369 -45.070926 
L 231.47263 -46.769073 
L 233.78589 -44.228182 
L 236.099151 -44.271135 
L 238.412412 -44.324499 
L 240.725672 -44.510852 
L 243.038933 -45.284547 
L 245.352194 -49.138769 
L 247.665455 -57.820707 
L 249.978715 -57.995862 
L 252.291976 -65.113916 
L 254.605237 -69.239443 
L 256.918497 -69.132186 
L 259.231758 -71.083041 
L 261.545019 -61.374995 
L 263.858279 -60.992403 
L 266.17154 -60.948091 
L 268.484801 -59.768444 
L 270.798062 -58.179326 
L 273.111322 -58.292365 
L 275.424583 -45.825117 
L 277.737844 -48.088773 
L 280.051104 -48.577654 
L 282.364365 -48.640362 
L 284.677626 -48.713274 
L 286.990886 -48.819356 
L 289.304147 -45.217317 
L 291.617408 -46.887838 
L 293.930669 -44.305049 
L 296.243929 -44.336507 
L 298.55719 -44.512375 
L 300.870451 -44.515226 
L 303.183711 -44.609144 
L 303.183711 -48.805839 
L 303.183711 -48.805839 
L 300.870451 -48.809713 
L 298.55719 -48.662098 
L 296.243929 -48.678814 
L 293.930669 -48.483152 
L 291.617408 -51.285781 
L 289.304147 -50.401564 
L 286.990886 -49.045019 
L 284.677626 -48.942737 
L 282.364365 -48.874963 
L 280.051104 -48.827076 
L 277.737844 -48.908733 
L 275.424583 -50.401507 
L 273.111322 -63.172806 
L 270.798062 -63.274806 
L 268.484801 -66.015595 
L 266.17154 -65.49261 
L 263.858279 -65.194864 
L 261.545019 -65.638925 
L 259.231758 -75.77159 
L 256.918497 -73.379182 
L 254.605237 -73.349372 
L 252.291976 -70.965128 
L 249.978715 -65.248382 
L 247.665455 -65.147891 
L 245.352194 -52.836462 
L 243.038933 -49.668926 
L 240.725672 -48.685681 
L 238.412412 -48.48829 
L 236.099151 -48.504146 
L 233.78589 -48.536991 
L 231.47263 -51.153269 
L 229.159369 -50.491208 
L 226.846108 -49.047256 
L 224.532848 -48.954813 
L 222.219587 -48.877804 
L 219.906326 -48.847978 
L 217.593066 -48.909719 
L 215.279805 -50.237872 
L 212.966544 -63.092375 
L 210.653283 -63.214569 
L 208.340023 -63.182713 
L 206.026762 -65.604012 
L 203.713501 -65.477964 
L 201.400241 -65.910992 
L 199.08698 -75.612537 
L 196.773719 -74.762543 
L 194.460459 -73.562449 
L 192.147198 -73.455791 
L 189.833937 -70.830736 
z
" style="stroke: #023eff; stroke-opacity: 0.2"/>
    </defs>
    <g clip-path="url(#p2a681a086a)">
     <use xlink:href="#m39d169eb67" x="0" y="162" style="fill: #023eff; fill-opacity: 0.2; stroke: #023eff; stroke-opacity: 0.2"/>
    </g>
   </g>
   <g id="PolyCollection_6">
    <defs>
     <path id="md1bb67ef67" d="M 189.833937 -68.534029 
L 189.833937 -62.781823 
L 192.147198 -70.13172 
L 194.460459 -70.202303 
L 196.773719 -70.159099 
L 199.08698 -72.00686 
L 201.400241 -71.880721 
L 203.713501 -55.659444 
L 206.026762 -55.509706 
L 208.340023 -50.780627 
L 210.653283 -50.610025 
L 212.966544 -50.76288 
L 215.279805 -62.838585 
L 217.593066 -69.075326 
L 219.906326 -68.821898 
L 222.219587 -68.483669 
L 224.532848 -68.38296 
L 226.846108 -68.432031 
L 229.159369 -59.770344 
L 231.47263 -59.369967 
L 233.78589 -56.636566 
L 236.099151 -55.814517 
L 238.412412 -56.187687 
L 240.725672 -60.53418 
L 243.038933 -61.089817 
L 245.352194 -60.562675 
L 247.665455 -58.089775 
L 249.978715 -58.3662 
L 252.291976 -63.106338 
L 254.605237 -70.274297 
L 256.918497 -70.260705 
L 259.231758 -71.995841 
L 261.545019 -72.273226 
L 263.858279 -55.50817 
L 266.17154 -55.393847 
L 268.484801 -50.683954 
L 270.798062 -50.654682 
L 273.111322 -50.707723 
L 275.424583 -63.072696 
L 277.737844 -68.790622 
L 280.051104 -68.741864 
L 282.364365 -68.600926 
L 284.677626 -68.79282 
L 286.990886 -68.729789 
L 289.304147 -59.775085 
L 291.617408 -59.410295 
L 293.930669 -56.460722 
L 296.243929 -56.067563 
L 298.55719 -56.006965 
L 300.870451 -60.550929 
L 303.183711 -60.953294 
L 303.183711 -68.872719 
L 303.183711 -68.872719 
L 300.870451 -67.777603 
L 298.55719 -62.818666 
L 296.243929 -63.016703 
L 293.930669 -62.90196 
L 291.617408 -65.221721 
L 289.304147 -66.015111 
L 286.990886 -74.765172 
L 284.677626 -74.811613 
L 282.364365 -74.99236 
L 280.051104 -74.963898 
L 277.737844 -75.241693 
L 275.424583 -67.77829 
L 273.111322 -55.428414 
L 270.798062 -55.218472 
L 268.484801 -55.223569 
L 266.17154 -61.88609 
L 263.858279 -61.699238 
L 261.545019 -77.068131 
L 259.231758 -77.149703 
L 256.918497 -72.802317 
L 254.605237 -72.561864 
L 252.291976 -68.744323 
L 249.978715 -66.414569 
L 247.665455 -66.108332 
L 245.352194 -67.733002 
L 243.038933 -68.728182 
L 240.725672 -67.944681 
L 238.412412 -62.46679 
L 236.099151 -62.88244 
L 233.78589 -63.310407 
L 231.47263 -65.303525 
L 229.159369 -65.804604 
L 226.846108 -74.696534 
L 224.532848 -75.028776 
L 222.219587 -74.901283 
L 219.906326 -74.836907 
L 217.593066 -75.347173 
L 215.279805 -67.911286 
L 212.966544 -55.165234 
L 210.653283 -55.255484 
L 208.340023 -55.24979 
L 206.026762 -61.713249 
L 203.713501 -61.768405 
L 201.400241 -77.175676 
L 199.08698 -77.164843 
L 196.773719 -72.773552 
L 194.460459 -72.638126 
L 192.147198 -72.643942 
L 189.833937 -68.534029 
z
" style="stroke: #ff7c00; stroke-opacity: 0.2"/>
    </defs>
    <g clip-path="url(#p2a681a086a)">
     <use xlink:href="#md1bb67ef67" x="0" y="162" style="fill: #ff7c00; fill-opacity: 0.2; stroke: #ff7c00; stroke-opacity: 0.2"/>
    </g>
   </g>
   <g id="PolyCollection_7">
    <defs>
     <path id="m5e3287a6aa" d="M 189.833937 -125.031859 
L 189.833937 -111.628835 
L 192.147198 -111.618824 
L 194.460459 -111.503856 
L 196.773719 -110.988899 
L 199.08698 -112.211137 
L 201.400241 -112.227951 
L 203.713501 -112.233818 
L 206.026762 -112.509555 
L 208.340023 -112.815763 
L 210.653283 -112.780713 
L 212.966544 -115.424749 
L 215.279805 -110.413475 
L 217.593066 -110.428463 
L 219.906326 -110.025189 
L 222.219587 -110.037109 
L 224.532848 -110.078618 
L 226.846108 -111.122426 
L 229.159369 -110.469842 
L 231.47263 -125.127816 
L 233.78589 -125.363613 
L 236.099151 -125.674419 
L 238.412412 -123.52249 
L 240.725672 -121.994903 
L 243.038933 -122.297543 
L 245.352194 -124.698768 
L 247.665455 -119.403108 
L 249.978715 -119.88456 
L 252.291976 -111.350509 
L 254.605237 -111.637418 
L 256.918497 -111.510513 
L 259.231758 -112.185428 
L 261.545019 -112.207567 
L 263.858279 -112.51437 
L 266.17154 -112.607826 
L 268.484801 -112.388327 
L 270.798062 -112.276527 
L 273.111322 -115.071357 
L 275.424583 -110.869855 
L 277.737844 -110.310503 
L 280.051104 -110.661102 
L 282.364365 -109.944459 
L 284.677626 -109.939583 
L 286.990886 -110.394964 
L 289.304147 -110.403804 
L 291.617408 -124.99499 
L 293.930669 -125.085824 
L 296.243929 -125.303783 
L 298.55719 -123.907415 
L 300.870451 -121.992399 
L 303.183711 -122.334064 
L 303.183711 -131.917427 
L 303.183711 -131.917427 
L 300.870451 -131.721522 
L 298.55719 -133.250812 
L 296.243929 -134.463515 
L 293.930669 -134.105916 
L 291.617408 -134.108907 
L 289.304147 -124.09496 
L 286.990886 -124.060478 
L 284.677626 -123.465539 
L 282.364365 -123.893039 
L 280.051104 -123.472345 
L 277.737844 -123.957821 
L 275.424583 -125.338857 
L 273.111322 -129.456585 
L 270.798062 -126.001854 
L 268.484801 -127.207994 
L 266.17154 -126.330264 
L 263.858279 -126.122307 
L 261.545019 -126.730316 
L 259.231758 -126.387244 
L 256.918497 -125.607486 
L 254.605237 -125.292584 
L 252.291976 -125.709083 
L 249.978715 -131.133631 
L 247.665455 -131.433912 
L 245.352194 -134.631818 
L 243.038933 -132.441325 
L 240.725672 -131.588602 
L 238.412412 -133.177127 
L 236.099151 -134.416489 
L 233.78589 -134.448543 
L 231.47263 -133.845726 
L 229.159369 -123.911676 
L 226.846108 -123.848327 
L 224.532848 -123.805466 
L 222.219587 -123.642459 
L 219.906326 -123.315751 
L 217.593066 -123.28071 
L 215.279805 -123.493707 
L 212.966544 -130.01168 
L 210.653283 -126.388589 
L 208.340023 -126.686867 
L 206.026762 -126.161612 
L 203.713501 -126.306802 
L 201.400241 -127.110101 
L 199.08698 -126.715458 
L 196.773719 -125.513545 
L 194.460459 -125.473084 
L 192.147198 -125.660035 
L 189.833937 -125.031859 
z
" style="stroke: #1ac938; stroke-opacity: 0.2"/>
    </defs>
    <g clip-path="url(#p2a681a086a)">
     <use xlink:href="#m5e3287a6aa" x="0" y="162" style="fill: #1ac938; fill-opacity: 0.2; stroke: #1ac938; stroke-opacity: 0.2"/>
    </g>
   </g>
   <g id="PolyCollection_8">
    <defs>
     <path id="m4c273a3b81" d="M 189.833937 -108.328765 
L 189.833937 -101.671712 
L 192.147198 -101.529637 
L 194.460459 -101.561601 
L 196.773719 -101.472255 
L 199.08698 -104.17549 
L 201.400241 -104.127584 
L 203.713501 -103.675712 
L 206.026762 -103.681507 
L 208.340023 -103.67225 
L 210.653283 -103.748625 
L 212.966544 -103.689319 
L 215.279805 -103.578152 
L 217.593066 -103.59245 
L 219.906326 -103.658132 
L 222.219587 -103.915355 
L 224.532848 -104.397421 
L 226.846108 -105.264475 
L 229.159369 -104.913412 
L 231.47263 -116.420861 
L 233.78589 -116.575715 
L 236.099151 -116.525037 
L 238.412412 -116.861226 
L 240.725672 -112.482564 
L 243.038933 -112.542587 
L 245.352194 -113.505352 
L 247.665455 -109.426865 
L 249.978715 -109.497015 
L 252.291976 -101.564924 
L 254.605237 -101.499771 
L 256.918497 -101.458142 
L 259.231758 -104.051972 
L 261.545019 -104.355042 
L 263.858279 -103.813036 
L 266.17154 -103.741343 
L 268.484801 -103.690157 
L 270.798062 -103.79607 
L 273.111322 -103.478009 
L 275.424583 -103.83255 
L 277.737844 -103.653905 
L 280.051104 -103.710617 
L 282.364365 -103.701855 
L 284.677626 -104.254919 
L 286.990886 -104.961497 
L 289.304147 -105.387104 
L 291.617408 -116.358054 
L 293.930669 -116.424568 
L 296.243929 -116.730271 
L 298.55719 -116.740948 
L 300.870451 -112.402461 
L 303.183711 -112.58358 
L 303.183711 -117.135906 
L 303.183711 -117.135906 
L 300.870451 -116.923116 
L 298.55719 -120.69802 
L 296.243929 -120.526993 
L 293.930669 -120.408019 
L 291.617408 -120.401399 
L 289.304147 -113.050401 
L 286.990886 -112.808662 
L 284.677626 -112.130349 
L 282.364365 -111.605803 
L 280.051104 -111.193191 
L 277.737844 -111.281934 
L 275.424583 -110.983692 
L 273.111322 -111.071506 
L 270.798062 -110.967688 
L 268.484801 -110.888823 
L 266.17154 -110.653846 
L 263.858279 -110.561563 
L 261.545019 -111.427018 
L 259.231758 -111.283894 
L 256.918497 -108.356885 
L 254.605237 -108.444462 
L 252.291976 -108.613646 
L 249.978715 -114.343954 
L 247.665455 -114.238285 
L 245.352194 -117.982375 
L 243.038933 -117.131996 
L 240.725672 -116.858624 
L 238.412412 -120.782877 
L 236.099151 -120.641594 
L 233.78589 -120.552591 
L 231.47263 -120.344725 
L 229.159369 -112.900173 
L 226.846108 -112.853865 
L 224.532848 -111.82881 
L 222.219587 -111.272074 
L 219.906326 -111.071606 
L 217.593066 -111.054936 
L 215.279805 -111.205765 
L 212.966544 -111.037211 
L 210.653283 -110.899842 
L 208.340023 -111.04451 
L 206.026762 -110.707159 
L 203.713501 -110.874685 
L 201.400241 -111.417367 
L 199.08698 -111.270153 
L 196.773719 -108.35687 
L 194.460459 -108.552859 
L 192.147198 -108.653113 
L 189.833937 -108.328765 
z
" style="stroke: #e8000b; stroke-opacity: 0.2"/>
    </defs>
    <g clip-path="url(#p2a681a086a)">
     <use xlink:href="#m4c273a3b81" x="0" y="162" style="fill: #e8000b; fill-opacity: 0.2; stroke: #e8000b; stroke-opacity: 0.2"/>
    </g>
   </g>
   <g id="line2d_17">
    <path d="M 189.833937 94.016889 
L 192.147198 90.709359 
L 194.460459 90.707451 
L 196.773719 89.47919 
L 199.08698 88.632203 
L 201.400241 98.455159 
L 203.713501 98.803213 
L 206.026762 98.70421 
L 208.340023 101.238607 
L 210.653283 101.260949 
L 212.966544 101.338958 
L 215.279805 114.086896 
L 217.593066 113.434226 
L 219.906326 113.294103 
L 222.219587 113.238349 
L 224.532848 113.161636 
L 226.846108 113.064122 
L 229.159369 114.126418 
L 231.47263 112.924901 
L 233.78589 115.627194 
L 236.099151 115.495459 
L 238.412412 115.490424 
L 240.725672 115.353536 
L 243.038933 114.546206 
L 245.352194 111.0084 
L 247.665455 100.614841 
L 249.978715 100.239644 
L 252.291976 94.021677 
L 254.605237 90.710154 
L 256.918497 90.671183 
L 259.231758 88.631462 
L 261.545019 98.453365 
L 263.858279 98.802222 
L 266.17154 98.704395 
L 268.484801 99.053964 
L 270.798062 101.263418 
L 273.111322 101.342882 
L 275.424583 114.094272 
L 277.737844 113.43668 
L 280.051104 113.297919 
L 282.364365 113.244006 
L 284.677626 113.169067 
L 286.990886 113.073337 
L 289.304147 114.130987 
L 291.617408 112.932302 
L 293.930669 115.634048 
L 296.243929 115.504347 
L 298.55719 115.501201 
L 300.870451 115.366245 
L 303.183711 115.208475 
" clip-path="url(#p2a681a086a)" style="fill: none; stroke: #023eff; stroke-width: 1.5; stroke-linecap: round"/>
   </g>
   <g id="line2d_18">
    <path d="M 189.833937 96.320364 
L 192.147198 90.579174 
L 194.460459 90.572699 
L 196.773719 90.45802 
L 199.08698 87.417488 
L 201.400241 87.320234 
L 203.713501 103.39811 
L 206.026762 103.402813 
L 208.340023 109.030568 
L 210.653283 109.012062 
L 212.966544 108.982605 
L 215.279805 96.501374 
L 217.593066 89.900072 
L 219.906326 90.042391 
L 222.219587 90.168548 
L 224.532848 90.278602 
L 226.846108 90.372597 
L 229.159369 99.194623 
L 231.47263 99.7624 
L 233.78589 102.213272 
L 236.099151 102.535574 
L 238.412412 102.568676 
L 240.725672 97.712983 
L 243.038933 97.024956 
L 245.352194 97.637645 
L 247.665455 99.705802 
L 249.978715 99.658569 
L 252.291976 96.323997 
L 254.605237 90.581996 
L 256.918497 90.468489 
L 259.231758 87.425186 
L 261.545019 87.329322 
L 263.858279 103.397186 
L 266.17154 103.402858 
L 268.484801 109.031646 
L 270.798062 109.014099 
L 273.111322 108.985558 
L 275.424583 96.499174 
L 277.737844 89.887062 
L 280.051104 90.030712 
L 282.364365 90.15827 
L 284.677626 90.269688 
L 286.990886 90.365077 
L 289.304147 99.185761 
L 291.617408 99.756392 
L 293.930669 102.207318 
L 296.243929 102.531834 
L 298.55719 102.566551 
L 300.870451 97.714749 
L 303.183711 97.026818 
" clip-path="url(#p2a681a086a)" style="fill: none; stroke: #ff7c00; stroke-width: 1.5; stroke-linecap: round"/>
   </g>
   <g id="line2d_19">
    <path d="M 189.833937 43.460324 
L 192.147198 43.435411 
L 194.460459 43.433169 
L 196.773719 43.38529 
L 199.08698 42.727283 
L 201.400241 42.623122 
L 203.713501 42.722944 
L 206.026762 42.754857 
L 208.340023 42.141454 
L 210.653283 42.764922 
L 212.966544 39.456752 
L 215.279805 45.349883 
L 217.593066 45.301899 
L 219.906326 45.237846 
L 222.219587 45.157652 
L 224.532848 45.06144 
L 226.846108 44.949152 
L 229.159369 44.820857 
L 231.47263 32.60234 
L 233.78589 32.396048 
L 236.099151 32.174874 
L 238.412412 33.721385 
L 240.725672 35.10172 
L 243.038933 34.881117 
L 245.352194 32.331523 
L 247.665455 36.685384 
L 249.978715 36.593035 
L 252.291976 43.460684 
L 254.605237 43.4364 
L 256.918497 43.390396 
L 259.231758 42.735385 
L 261.545019 42.633085 
L 263.858279 42.719248 
L 266.17154 42.752783 
L 268.484801 42.14176 
L 270.798062 42.766077 
L 273.111322 39.461853 
L 275.424583 43.919871 
L 277.737844 45.306794 
L 280.051104 45.244076 
L 282.364365 45.165299 
L 284.677626 45.07039 
L 286.990886 44.95951 
L 289.304147 44.832596 
L 291.617408 32.619523 
L 293.930669 32.414493 
L 296.243929 32.194588 
L 298.55719 33.737489 
L 300.870451 35.12017 
L 303.183711 34.900679 
" clip-path="url(#p2a681a086a)" style="fill: none; stroke: #1ac938; stroke-width: 1.5; stroke-linecap: round"/>
   </g>
   <g id="line2d_20">
    <path d="M 189.833937 56.959222 
L 192.147198 56.929786 
L 194.460459 56.927521 
L 196.773719 56.882414 
L 199.08698 54.216317 
L 201.400241 54.167398 
L 203.713501 54.639612 
L 206.026762 54.640105 
L 208.340023 54.62668 
L 210.653283 54.599404 
L 212.966544 54.558407 
L 215.279805 54.503667 
L 217.593066 54.4353 
L 219.906326 54.353297 
L 222.219587 54.257484 
L 224.532848 53.616652 
L 226.846108 52.952443 
L 229.159369 52.880241 
L 231.47263 43.686476 
L 233.78589 43.572295 
L 236.099151 43.440189 
L 238.412412 43.290072 
L 240.725672 47.424276 
L 243.038933 47.245135 
L 245.352194 46.325674 
L 247.665455 50.158328 
L 249.978715 50.0376 
L 252.291976 56.959785 
L 254.605237 56.930783 
L 256.918497 56.886908 
L 259.231758 54.219776 
L 261.545019 54.172413 
L 263.858279 54.638935 
L 266.17154 54.640638 
L 268.484801 54.628371 
L 270.798062 54.602316 
L 273.111322 54.562496 
L 275.424583 54.508994 
L 277.737844 54.441835 
L 280.051104 54.360958 
L 282.364365 54.266374 
L 284.677626 53.623612 
L 286.990886 52.957784 
L 289.304147 52.887196 
L 291.617408 43.695499 
L 293.930669 43.582866 
L 296.243929 43.45227 
L 298.55719 43.303753 
L 300.870451 47.438909 
L 303.183711 47.261191 
" clip-path="url(#p2a681a086a)" style="fill: none; stroke: #e8000b; stroke-width: 1.5; stroke-linecap: round"/>
   </g>
   <g id="patch_6">
    <path d="M 184.166448 122.292 
L 184.166448 22.848 
" style="fill: none; stroke: #ffffff; stroke-width: 1.25; stroke-linejoin: miter; stroke-linecap: square"/>
   </g>
   <g id="patch_7">
    <path d="M 184.166448 122.292 
L 308.8512 122.292 
" style="fill: none; stroke: #ffffff; stroke-width: 1.25; stroke-linejoin: miter; stroke-linecap: square"/>
   </g>
   <g id="text_14">
    <!-- IntraOrbital -->
    <g style="fill: #262626" transform="translate(222.768324 16.848) scale(0.096 -0.096)">
     <defs>
      <path id="ArialMT-49" d="M 597 0 
L 597 4581 
L 1203 4581 
L 1203 0 
L 597 0 
z
" transform="scale(0.015625)"/>
     </defs>
     <use xlink:href="#ArialMT-49"/>
     <use xlink:href="#ArialMT-6e" x="27.783203"/>
     <use xlink:href="#ArialMT-74" x="83.398438"/>
     <use xlink:href="#ArialMT-72" x="111.181641"/>
     <use xlink:href="#ArialMT-61" x="144.482422"/>
     <use xlink:href="#ArialMT-4f" x="200.097656"/>
     <use xlink:href="#ArialMT-72" x="277.880859"/>
     <use xlink:href="#ArialMT-62" x="311.181641"/>
     <use xlink:href="#ArialMT-69" x="366.796875"/>
     <use xlink:href="#ArialMT-74" x="389.013672"/>
     <use xlink:href="#ArialMT-61" x="416.796875"/>
     <use xlink:href="#ArialMT-6c" x="472.412109"/>
    </g>
   </g>
  </g>
  <g id="legend_1">
   <g id="text_15">
    <!-- Direction -->
    <g style="fill: #262626" transform="translate(328.04325 58.586) scale(0.096 -0.096)">
     <defs>
      <path id="ArialMT-44" d="M 494 0 
L 494 4581 
L 2072 4581 
Q 2606 4581 2888 4516 
Q 3281 4425 3559 4188 
Q 3922 3881 4101 3404 
Q 4281 2928 4281 2316 
Q 4281 1794 4159 1391 
Q 4038 988 3847 723 
Q 3656 459 3429 307 
Q 3203 156 2883 78 
Q 2563 0 2147 0 
L 494 0 
z
M 1100 541 
L 2078 541 
Q 2531 541 2789 625 
Q 3047 709 3200 863 
Q 3416 1078 3536 1442 
Q 3656 1806 3656 2325 
Q 3656 3044 3420 3430 
Q 3184 3816 2847 3947 
Q 2603 4041 2063 4041 
L 1100 4041 
L 1100 541 
z
" transform="scale(0.015625)"/>
      <path id="ArialMT-63" d="M 2588 1216 
L 3141 1144 
Q 3050 572 2676 248 
Q 2303 -75 1759 -75 
Q 1078 -75 664 370 
Q 250 816 250 1647 
Q 250 2184 428 2587 
Q 606 2991 970 3192 
Q 1334 3394 1763 3394 
Q 2303 3394 2647 3120 
Q 2991 2847 3088 2344 
L 2541 2259 
Q 2463 2594 2264 2762 
Q 2066 2931 1784 2931 
Q 1359 2931 1093 2626 
Q 828 2322 828 1663 
Q 828 994 1084 691 
Q 1341 388 1753 388 
Q 2084 388 2306 591 
Q 2528 794 2588 1216 
z
" transform="scale(0.015625)"/>
      <path id="ArialMT-6f" d="M 213 1659 
Q 213 2581 725 3025 
Q 1153 3394 1769 3394 
Q 2453 3394 2887 2945 
Q 3322 2497 3322 1706 
Q 3322 1066 3130 698 
Q 2938 331 2570 128 
Q 2203 -75 1769 -75 
Q 1072 -75 642 372 
Q 213 819 213 1659 
z
M 791 1659 
Q 791 1022 1069 705 
Q 1347 388 1769 388 
Q 2188 388 2466 706 
Q 2744 1025 2744 1678 
Q 2744 2294 2464 2611 
Q 2184 2928 1769 2928 
Q 1347 2928 1069 2612 
Q 791 2297 791 1659 
z
" transform="scale(0.015625)"/>
     </defs>
     <use xlink:href="#ArialMT-44"/>
     <use xlink:href="#ArialMT-69" x="72.216797"/>
     <use xlink:href="#ArialMT-72" x="94.433594"/>
     <use xlink:href="#ArialMT-65" x="127.734375"/>
     <use xlink:href="#ArialMT-63" x="183.349609"/>
     <use xlink:href="#ArialMT-74" x="233.349609"/>
     <use xlink:href="#ArialMT-69" x="261.132812"/>
     <use xlink:href="#ArialMT-6f" x="283.349609"/>
     <use xlink:href="#ArialMT-6e" x="338.964844"/>
    </g>
   </g>
   <g id="line2d_21">
    <path d="M 323.1645 68.112875 
L 331.9645 68.112875 
L 340.7645 68.112875 
" style="fill: none; stroke: #023eff; stroke-width: 1.5; stroke-linecap: round"/>
   </g>
   <g id="text_16">
    <!-- East -->
    <g style="fill: #262626" transform="translate(347.8045 71.192875) scale(0.088 -0.088)">
     <defs>
      <path id="ArialMT-45" d="M 506 0 
L 506 4581 
L 3819 4581 
L 3819 4041 
L 1113 4041 
L 1113 2638 
L 3647 2638 
L 3647 2100 
L 1113 2100 
L 1113 541 
L 3925 541 
L 3925 0 
L 506 0 
z
" transform="scale(0.015625)"/>
     </defs>
     <use xlink:href="#ArialMT-45"/>
     <use xlink:href="#ArialMT-61" x="66.699219"/>
     <use xlink:href="#ArialMT-73" x="122.314453"/>
     <use xlink:href="#ArialMT-74" x="172.314453"/>
    </g>
   </g>
   <g id="line2d_22">
    <path d="M 323.1645 80.56075 
L 331.9645 80.56075 
L 340.7645 80.56075 
" style="fill: none; stroke: #ff7c00; stroke-width: 1.5; stroke-linecap: round"/>
   </g>
   <g id="text_17">
    <!-- West -->
    <g style="fill: #262626" transform="translate(347.8045 83.64075) scale(0.088 -0.088)">
     <defs>
      <path id="ArialMT-57" d="M 1294 0 
L 78 4581 
L 700 4581 
L 1397 1578 
Q 1509 1106 1591 641 
Q 1766 1375 1797 1488 
L 2669 4581 
L 3400 4581 
L 4056 2263 
Q 4303 1400 4413 641 
Q 4500 1075 4641 1638 
L 5359 4581 
L 5969 4581 
L 4713 0 
L 4128 0 
L 3163 3491 
Q 3041 3928 3019 4028 
Q 2947 3713 2884 3491 
L 1913 0 
L 1294 0 
z
" transform="scale(0.015625)"/>
     </defs>
     <use xlink:href="#ArialMT-57"/>
     <use xlink:href="#ArialMT-65" x="92.634766"/>
     <use xlink:href="#ArialMT-73" x="148.25"/>
     <use xlink:href="#ArialMT-74" x="198.25"/>
    </g>
   </g>
   <g id="line2d_23">
    <path d="M 323.1645 93.008625 
L 331.9645 93.008625 
L 340.7645 93.008625 
" style="fill: none; stroke: #1ac938; stroke-width: 1.5; stroke-linecap: round"/>
   </g>
   <g id="text_18">
    <!-- North -->
    <g style="fill: #262626" transform="translate(347.8045 96.088625) scale(0.088 -0.088)">
     <defs>
      <path id="ArialMT-4e" d="M 488 0 
L 488 4581 
L 1109 4581 
L 3516 984 
L 3516 4581 
L 4097 4581 
L 4097 0 
L 3475 0 
L 1069 3600 
L 1069 0 
L 488 0 
z
" transform="scale(0.015625)"/>
      <path id="ArialMT-68" d="M 422 0 
L 422 4581 
L 984 4581 
L 984 2938 
Q 1378 3394 1978 3394 
Q 2347 3394 2619 3248 
Q 2891 3103 3008 2847 
Q 3125 2591 3125 2103 
L 3125 0 
L 2563 0 
L 2563 2103 
Q 2563 2525 2380 2717 
Q 2197 2909 1863 2909 
Q 1613 2909 1392 2779 
Q 1172 2650 1078 2428 
Q 984 2206 984 1816 
L 984 0 
L 422 0 
z
" transform="scale(0.015625)"/>
     </defs>
     <use xlink:href="#ArialMT-4e"/>
     <use xlink:href="#ArialMT-6f" x="72.216797"/>
     <use xlink:href="#ArialMT-72" x="127.832031"/>
     <use xlink:href="#ArialMT-74" x="161.132812"/>
     <use xlink:href="#ArialMT-68" x="188.916016"/>
    </g>
   </g>
   <g id="line2d_24">
    <path d="M 323.1645 105.4565 
L 331.9645 105.4565 
L 340.7645 105.4565 
" style="fill: none; stroke: #e8000b; stroke-width: 1.5; stroke-linecap: round"/>
   </g>
   <g id="text_19">
    <!-- South -->
    <g style="fill: #262626" transform="translate(347.8045 108.5365) scale(0.088 -0.088)">
     <defs>
      <path id="ArialMT-53" d="M 288 1472 
L 859 1522 
Q 900 1178 1048 958 
Q 1197 738 1509 602 
Q 1822 466 2213 466 
Q 2559 466 2825 569 
Q 3091 672 3220 851 
Q 3350 1031 3350 1244 
Q 3350 1459 3225 1620 
Q 3100 1781 2813 1891 
Q 2628 1963 1997 2114 
Q 1366 2266 1113 2400 
Q 784 2572 623 2826 
Q 463 3081 463 3397 
Q 463 3744 659 4045 
Q 856 4347 1234 4503 
Q 1613 4659 2075 4659 
Q 2584 4659 2973 4495 
Q 3363 4331 3572 4012 
Q 3781 3694 3797 3291 
L 3216 3247 
Q 3169 3681 2898 3903 
Q 2628 4125 2100 4125 
Q 1550 4125 1298 3923 
Q 1047 3722 1047 3438 
Q 1047 3191 1225 3031 
Q 1400 2872 2139 2705 
Q 2878 2538 3153 2413 
Q 3553 2228 3743 1945 
Q 3934 1663 3934 1294 
Q 3934 928 3725 604 
Q 3516 281 3123 101 
Q 2731 -78 2241 -78 
Q 1619 -78 1198 103 
Q 778 284 539 648 
Q 300 1013 288 1472 
z
" transform="scale(0.015625)"/>
      <path id="ArialMT-75" d="M 2597 0 
L 2597 488 
Q 2209 -75 1544 -75 
Q 1250 -75 995 37 
Q 741 150 617 320 
Q 494 491 444 738 
Q 409 903 409 1263 
L 409 3319 
L 972 3319 
L 972 1478 
Q 972 1038 1006 884 
Q 1059 663 1231 536 
Q 1403 409 1656 409 
Q 1909 409 2131 539 
Q 2353 669 2445 892 
Q 2538 1116 2538 1541 
L 2538 3319 
L 3100 3319 
L 3100 0 
L 2597 0 
z
" transform="scale(0.015625)"/>
     </defs>
     <use xlink:href="#ArialMT-53"/>
     <use xlink:href="#ArialMT-6f" x="66.699219"/>
     <use xlink:href="#ArialMT-75" x="122.314453"/>
     <use xlink:href="#ArialMT-74" x="177.929688"/>
     <use xlink:href="#ArialMT-68" x="205.712891"/>
    </g>
   </g>
  </g>
 </g>
 <defs>
  <clipPath id="pd193b7a283">
   <rect x="49.57024" y="22.848" width="124.684752" height="99.444"/>
  </clipPath>
  <clipPath id="p2a681a086a">
   <rect x="184.166448" y="22.848" width="124.684752" height="99.444"/>
  </clipPath>
 </defs>
</svg>
