<?xml version="1.0" encoding="utf-8" standalone="no"?>
<!DOCTYPE svg PUBLIC "-//W3C//DTD SVG 1.1//EN"
  "http://www.w3.org/Graphics/SVG/1.1/DTD/svg11.dtd">
<svg xmlns:xlink="http://www.w3.org/1999/xlink" width="540.72pt" height="162pt" viewBox="0 0 540.72 162" xmlns="http://www.w3.org/2000/svg" version="1.1">
 <metadata>
  <rdf:RDF xmlns:dc="http://purl.org/dc/elements/1.1/" xmlns:cc="http://creativecommons.org/ns#" xmlns:rdf="http://www.w3.org/1999/02/22-rdf-syntax-ns#">
   <cc:Work>
    <dc:type rdf:resource="http://purl.org/dc/dcmitype/StillImage"/>
    <dc:date>2024-08-26T15:08:09.258985</dc:date>
    <dc:format>image/svg+xml</dc:format>
    <dc:creator>
     <cc:Agent>
      <dc:title>Matplotlib v3.9.0, https://matplotlib.org/</dc:title>
     </cc:Agent>
    </dc:creator>
   </cc:Work>
  </rdf:RDF>
 </metadata>
 <defs>
  <style type="text/css">*{stroke-linejoin: round; stroke-linecap: butt}</style>
 </defs>
 <g id="figure_1">
  <g id="patch_1">
   <path d="M 0 162 
L 540.72 162 
L 540.72 0 
L 0 0 
z
" style="fill: #ffffff"/>
  </g>
  <g id="axes_1">
   <g id="patch_2">
    <path d="M 50.299477 122.292 
L 181.67396 122.292 
L 181.67396 22.848 
L 50.299477 22.848 
z
" style="fill: #eaeaf2"/>
   </g>
   <g id="matplotlib.axis_1">
    <g id="xtick_1">
     <g id="line2d_1">
      <path d="M 99.421454 122.292 
L 99.421454 22.848 
" clip-path="url(#pff44316d07)" style="fill: none; stroke: #ffffff; stroke-linecap: round"/>
     </g>
     <g id="text_1">
      <!-- 50 -->
      <g style="fill: #262626" transform="translate(94.527829 138.090875) scale(0.088 -0.088)">
       <defs>
        <path id="ArialMT-35" d="M 266 1200 
L 856 1250 
Q 922 819 1161 601 
Q 1400 384 1738 384 
Q 2144 384 2425 690 
Q 2706 997 2706 1503 
Q 2706 1984 2436 2262 
Q 2166 2541 1728 2541 
Q 1456 2541 1237 2417 
Q 1019 2294 894 2097 
L 366 2166 
L 809 4519 
L 3088 4519 
L 3088 3981 
L 1259 3981 
L 1013 2750 
Q 1425 3038 1878 3038 
Q 2478 3038 2890 2622 
Q 3303 2206 3303 1553 
Q 3303 931 2941 478 
Q 2500 -78 1738 -78 
Q 1113 -78 717 272 
Q 322 622 266 1200 
z
" transform="scale(0.015625)"/>
        <path id="ArialMT-30" d="M 266 2259 
Q 266 3072 433 3567 
Q 600 4063 929 4331 
Q 1259 4600 1759 4600 
Q 2128 4600 2406 4451 
Q 2684 4303 2865 4023 
Q 3047 3744 3150 3342 
Q 3253 2941 3253 2259 
Q 3253 1453 3087 958 
Q 2922 463 2592 192 
Q 2263 -78 1759 -78 
Q 1097 -78 719 397 
Q 266 969 266 2259 
z
M 844 2259 
Q 844 1131 1108 757 
Q 1372 384 1759 384 
Q 2147 384 2411 759 
Q 2675 1134 2675 2259 
Q 2675 3391 2411 3762 
Q 2147 4134 1753 4134 
Q 1366 4134 1134 3806 
Q 844 3388 844 2259 
z
" transform="scale(0.015625)"/>
       </defs>
       <use xlink:href="#ArialMT-35"/>
       <use xlink:href="#ArialMT-30" x="55.615234"/>
      </g>
     </g>
    </g>
    <g id="xtick_2">
     <g id="line2d_2">
      <path d="M 160.134524 122.292 
L 160.134524 22.848 
" clip-path="url(#pff44316d07)" style="fill: none; stroke: #ffffff; stroke-linecap: round"/>
     </g>
     <g id="text_2">
      <!-- 100 -->
      <g style="fill: #262626" transform="translate(152.794086 138.090875) scale(0.088 -0.088)">
       <defs>
        <path id="ArialMT-31" d="M 2384 0 
L 1822 0 
L 1822 3584 
Q 1619 3391 1289 3197 
Q 959 3003 697 2906 
L 697 3450 
Q 1169 3672 1522 3987 
Q 1875 4303 2022 4600 
L 2384 4600 
L 2384 0 
z
" transform="scale(0.015625)"/>
       </defs>
       <use xlink:href="#ArialMT-31"/>
       <use xlink:href="#ArialMT-30" x="55.615234"/>
       <use xlink:href="#ArialMT-30" x="111.230469"/>
      </g>
     </g>
    </g>
    <g id="text_3">
     <!-- RTT (ms) -->
     <g style="fill: #262626" transform="translate(95.896468 150.828375) scale(0.096 -0.096)">
      <defs>
       <path id="ArialMT-52" d="M 503 0 
L 503 4581 
L 2534 4581 
Q 3147 4581 3465 4457 
Q 3784 4334 3975 4021 
Q 4166 3709 4166 3331 
Q 4166 2844 3850 2509 
Q 3534 2175 2875 2084 
Q 3116 1969 3241 1856 
Q 3506 1613 3744 1247 
L 4541 0 
L 3778 0 
L 3172 953 
Q 2906 1366 2734 1584 
Q 2563 1803 2427 1890 
Q 2291 1978 2150 2013 
Q 2047 2034 1813 2034 
L 1109 2034 
L 1109 0 
L 503 0 
z
M 1109 2559 
L 2413 2559 
Q 2828 2559 3062 2645 
Q 3297 2731 3419 2920 
Q 3541 3109 3541 3331 
Q 3541 3656 3305 3865 
Q 3069 4075 2559 4075 
L 1109 4075 
L 1109 2559 
z
" transform="scale(0.015625)"/>
       <path id="ArialMT-54" d="M 1659 0 
L 1659 4041 
L 150 4041 
L 150 4581 
L 3781 4581 
L 3781 4041 
L 2266 4041 
L 2266 0 
L 1659 0 
z
" transform="scale(0.015625)"/>
       <path id="ArialMT-20" transform="scale(0.015625)"/>
       <path id="ArialMT-28" d="M 1497 -1347 
Q 1031 -759 709 28 
Q 388 816 388 1659 
Q 388 2403 628 3084 
Q 909 3875 1497 4659 
L 1900 4659 
Q 1522 4009 1400 3731 
Q 1209 3300 1100 2831 
Q 966 2247 966 1656 
Q 966 153 1900 -1347 
L 1497 -1347 
z
" transform="scale(0.015625)"/>
       <path id="ArialMT-6d" d="M 422 0 
L 422 3319 
L 925 3319 
L 925 2853 
Q 1081 3097 1340 3245 
Q 1600 3394 1931 3394 
Q 2300 3394 2536 3241 
Q 2772 3088 2869 2813 
Q 3263 3394 3894 3394 
Q 4388 3394 4653 3120 
Q 4919 2847 4919 2278 
L 4919 0 
L 4359 0 
L 4359 2091 
Q 4359 2428 4304 2576 
Q 4250 2725 4106 2815 
Q 3963 2906 3769 2906 
Q 3419 2906 3187 2673 
Q 2956 2441 2956 1928 
L 2956 0 
L 2394 0 
L 2394 2156 
Q 2394 2531 2256 2718 
Q 2119 2906 1806 2906 
Q 1569 2906 1367 2781 
Q 1166 2656 1075 2415 
Q 984 2175 984 1722 
L 984 0 
L 422 0 
z
" transform="scale(0.015625)"/>
       <path id="ArialMT-73" d="M 197 991 
L 753 1078 
Q 800 744 1014 566 
Q 1228 388 1613 388 
Q 2000 388 2187 545 
Q 2375 703 2375 916 
Q 2375 1106 2209 1216 
Q 2094 1291 1634 1406 
Q 1016 1563 777 1677 
Q 538 1791 414 1992 
Q 291 2194 291 2438 
Q 291 2659 392 2848 
Q 494 3038 669 3163 
Q 800 3259 1026 3326 
Q 1253 3394 1513 3394 
Q 1903 3394 2198 3281 
Q 2494 3169 2634 2976 
Q 2775 2784 2828 2463 
L 2278 2388 
Q 2241 2644 2061 2787 
Q 1881 2931 1553 2931 
Q 1166 2931 1000 2803 
Q 834 2675 834 2503 
Q 834 2394 903 2306 
Q 972 2216 1119 2156 
Q 1203 2125 1616 2013 
Q 2213 1853 2448 1751 
Q 2684 1650 2818 1456 
Q 2953 1263 2953 975 
Q 2953 694 2789 445 
Q 2625 197 2315 61 
Q 2006 -75 1616 -75 
Q 969 -75 630 194 
Q 291 463 197 991 
z
" transform="scale(0.015625)"/>
       <path id="ArialMT-29" d="M 791 -1347 
L 388 -1347 
Q 1322 153 1322 1656 
Q 1322 2244 1188 2822 
Q 1081 3291 891 3722 
Q 769 4003 388 4659 
L 791 4659 
Q 1378 3875 1659 3084 
Q 1900 2403 1900 1659 
Q 1900 816 1576 28 
Q 1253 -759 791 -1347 
z
" transform="scale(0.015625)"/>
      </defs>
      <use xlink:href="#ArialMT-52"/>
      <use xlink:href="#ArialMT-54" x="70.466797"/>
      <use xlink:href="#ArialMT-54" x="131.550781"/>
      <use xlink:href="#ArialMT-20" x="190.884766"/>
      <use xlink:href="#ArialMT-28" x="218.667969"/>
      <use xlink:href="#ArialMT-6d" x="251.96875"/>
      <use xlink:href="#ArialMT-73" x="335.269531"/>
      <use xlink:href="#ArialMT-29" x="385.269531"/>
     </g>
    </g>
   </g>
   <g id="matplotlib.axis_2">
    <g id="ytick_1">
     <g id="line2d_3">
      <path d="M 50.299477 122.292 
L 181.67396 122.292 
" clip-path="url(#pff44316d07)" style="fill: none; stroke: #ffffff; stroke-linecap: round"/>
     </g>
     <g id="text_4">
      <!-- 0.0 -->
      <g style="fill: #262626" transform="translate(28.567477 125.441438) scale(0.088 -0.088)">
       <defs>
        <path id="ArialMT-2e" d="M 581 0 
L 581 641 
L 1222 641 
L 1222 0 
L 581 0 
z
" transform="scale(0.015625)"/>
       </defs>
       <use xlink:href="#ArialMT-30"/>
       <use xlink:href="#ArialMT-2e" x="55.615234"/>
       <use xlink:href="#ArialMT-30" x="83.398438"/>
      </g>
     </g>
    </g>
    <g id="ytick_2">
     <g id="line2d_4">
      <path d="M 50.299477 102.4032 
L 181.67396 102.4032 
" clip-path="url(#pff44316d07)" style="fill: none; stroke: #ffffff; stroke-linecap: round"/>
     </g>
     <g id="text_5">
      <!-- 0.2 -->
      <g style="fill: #262626" transform="translate(28.567477 105.552638) scale(0.088 -0.088)">
       <defs>
        <path id="ArialMT-32" d="M 3222 541 
L 3222 0 
L 194 0 
Q 188 203 259 391 
Q 375 700 629 1000 
Q 884 1300 1366 1694 
Q 2113 2306 2375 2664 
Q 2638 3022 2638 3341 
Q 2638 3675 2398 3904 
Q 2159 4134 1775 4134 
Q 1369 4134 1125 3890 
Q 881 3647 878 3216 
L 300 3275 
Q 359 3922 746 4261 
Q 1134 4600 1788 4600 
Q 2447 4600 2831 4234 
Q 3216 3869 3216 3328 
Q 3216 3053 3103 2787 
Q 2991 2522 2730 2228 
Q 2469 1934 1863 1422 
Q 1356 997 1212 845 
Q 1069 694 975 541 
L 3222 541 
z
" transform="scale(0.015625)"/>
       </defs>
       <use xlink:href="#ArialMT-30"/>
       <use xlink:href="#ArialMT-2e" x="55.615234"/>
       <use xlink:href="#ArialMT-32" x="83.398438"/>
      </g>
     </g>
    </g>
    <g id="ytick_3">
     <g id="line2d_5">
      <path d="M 50.299477 82.5144 
L 181.67396 82.5144 
" clip-path="url(#pff44316d07)" style="fill: none; stroke: #ffffff; stroke-linecap: round"/>
     </g>
     <g id="text_6">
      <!-- 0.4 -->
      <g style="fill: #262626" transform="translate(28.567477 85.663837) scale(0.088 -0.088)">
       <defs>
        <path id="ArialMT-34" d="M 2069 0 
L 2069 1097 
L 81 1097 
L 81 1613 
L 2172 4581 
L 2631 4581 
L 2631 1613 
L 3250 1613 
L 3250 1097 
L 2631 1097 
L 2631 0 
L 2069 0 
z
M 2069 1613 
L 2069 3678 
L 634 1613 
L 2069 1613 
z
" transform="scale(0.015625)"/>
       </defs>
       <use xlink:href="#ArialMT-30"/>
       <use xlink:href="#ArialMT-2e" x="55.615234"/>
       <use xlink:href="#ArialMT-34" x="83.398438"/>
      </g>
     </g>
    </g>
    <g id="ytick_4">
     <g id="line2d_6">
      <path d="M 50.299477 62.6256 
L 181.67396 62.6256 
" clip-path="url(#pff44316d07)" style="fill: none; stroke: #ffffff; stroke-linecap: round"/>
     </g>
     <g id="text_7">
      <!-- 0.6 -->
      <g style="fill: #262626" transform="translate(28.567477 65.775037) scale(0.088 -0.088)">
       <defs>
        <path id="ArialMT-36" d="M 3184 3459 
L 2625 3416 
Q 2550 3747 2413 3897 
Q 2184 4138 1850 4138 
Q 1581 4138 1378 3988 
Q 1113 3794 959 3422 
Q 806 3050 800 2363 
Q 1003 2672 1297 2822 
Q 1591 2972 1913 2972 
Q 2475 2972 2870 2558 
Q 3266 2144 3266 1488 
Q 3266 1056 3080 686 
Q 2894 316 2569 119 
Q 2244 -78 1831 -78 
Q 1128 -78 684 439 
Q 241 956 241 2144 
Q 241 3472 731 4075 
Q 1159 4600 1884 4600 
Q 2425 4600 2770 4297 
Q 3116 3994 3184 3459 
z
M 888 1484 
Q 888 1194 1011 928 
Q 1134 663 1356 523 
Q 1578 384 1822 384 
Q 2178 384 2434 671 
Q 2691 959 2691 1453 
Q 2691 1928 2437 2201 
Q 2184 2475 1800 2475 
Q 1419 2475 1153 2201 
Q 888 1928 888 1484 
z
" transform="scale(0.015625)"/>
       </defs>
       <use xlink:href="#ArialMT-30"/>
       <use xlink:href="#ArialMT-2e" x="55.615234"/>
       <use xlink:href="#ArialMT-36" x="83.398438"/>
      </g>
     </g>
    </g>
    <g id="ytick_5">
     <g id="line2d_7">
      <path d="M 50.299477 42.7368 
L 181.67396 42.7368 
" clip-path="url(#pff44316d07)" style="fill: none; stroke: #ffffff; stroke-linecap: round"/>
     </g>
     <g id="text_8">
      <!-- 0.8 -->
      <g style="fill: #262626" transform="translate(28.567477 45.886237) scale(0.088 -0.088)">
       <defs>
        <path id="ArialMT-38" d="M 1131 2484 
Q 781 2613 612 2850 
Q 444 3088 444 3419 
Q 444 3919 803 4259 
Q 1163 4600 1759 4600 
Q 2359 4600 2725 4251 
Q 3091 3903 3091 3403 
Q 3091 3084 2923 2848 
Q 2756 2613 2416 2484 
Q 2838 2347 3058 2040 
Q 3278 1734 3278 1309 
Q 3278 722 2862 322 
Q 2447 -78 1769 -78 
Q 1091 -78 675 323 
Q 259 725 259 1325 
Q 259 1772 486 2073 
Q 713 2375 1131 2484 
z
M 1019 3438 
Q 1019 3113 1228 2906 
Q 1438 2700 1772 2700 
Q 2097 2700 2305 2904 
Q 2513 3109 2513 3406 
Q 2513 3716 2298 3927 
Q 2084 4138 1766 4138 
Q 1444 4138 1231 3931 
Q 1019 3725 1019 3438 
z
M 838 1322 
Q 838 1081 952 856 
Q 1066 631 1291 507 
Q 1516 384 1775 384 
Q 2178 384 2440 643 
Q 2703 903 2703 1303 
Q 2703 1709 2433 1975 
Q 2163 2241 1756 2241 
Q 1359 2241 1098 1978 
Q 838 1716 838 1322 
z
" transform="scale(0.015625)"/>
       </defs>
       <use xlink:href="#ArialMT-30"/>
       <use xlink:href="#ArialMT-2e" x="55.615234"/>
       <use xlink:href="#ArialMT-38" x="83.398438"/>
      </g>
     </g>
    </g>
    <g id="ytick_6">
     <g id="line2d_8">
      <path d="M 50.299477 22.848 
L 181.67396 22.848 
" clip-path="url(#pff44316d07)" style="fill: none; stroke: #ffffff; stroke-linecap: round"/>
     </g>
     <g id="text_9">
      <!-- 1.0 -->
      <g style="fill: #262626" transform="translate(28.567477 25.997437) scale(0.088 -0.088)">
       <use xlink:href="#ArialMT-31"/>
       <use xlink:href="#ArialMT-2e" x="55.615234"/>
       <use xlink:href="#ArialMT-30" x="83.398438"/>
      </g>
     </g>
    </g>
    <g id="text_10">
     <!-- Proportion -->
     <g style="fill: #262626" transform="translate(22.659477 94.7145) rotate(-90) scale(0.096 -0.096)">
      <defs>
       <path id="ArialMT-50" d="M 494 0 
L 494 4581 
L 2222 4581 
Q 2678 4581 2919 4538 
Q 3256 4481 3484 4323 
Q 3713 4166 3852 3881 
Q 3991 3597 3991 3256 
Q 3991 2672 3619 2267 
Q 3247 1863 2275 1863 
L 1100 1863 
L 1100 0 
L 494 0 
z
M 1100 2403 
L 2284 2403 
Q 2872 2403 3119 2622 
Q 3366 2841 3366 3238 
Q 3366 3525 3220 3729 
Q 3075 3934 2838 4000 
Q 2684 4041 2272 4041 
L 1100 4041 
L 1100 2403 
z
" transform="scale(0.015625)"/>
       <path id="ArialMT-72" d="M 416 0 
L 416 3319 
L 922 3319 
L 922 2816 
Q 1116 3169 1280 3281 
Q 1444 3394 1641 3394 
Q 1925 3394 2219 3213 
L 2025 2691 
Q 1819 2813 1613 2813 
Q 1428 2813 1281 2702 
Q 1134 2591 1072 2394 
Q 978 2094 978 1738 
L 978 0 
L 416 0 
z
" transform="scale(0.015625)"/>
       <path id="ArialMT-6f" d="M 213 1659 
Q 213 2581 725 3025 
Q 1153 3394 1769 3394 
Q 2453 3394 2887 2945 
Q 3322 2497 3322 1706 
Q 3322 1066 3130 698 
Q 2938 331 2570 128 
Q 2203 -75 1769 -75 
Q 1072 -75 642 372 
Q 213 819 213 1659 
z
M 791 1659 
Q 791 1022 1069 705 
Q 1347 388 1769 388 
Q 2188 388 2466 706 
Q 2744 1025 2744 1678 
Q 2744 2294 2464 2611 
Q 2184 2928 1769 2928 
Q 1347 2928 1069 2612 
Q 791 2297 791 1659 
z
" transform="scale(0.015625)"/>
       <path id="ArialMT-70" d="M 422 -1272 
L 422 3319 
L 934 3319 
L 934 2888 
Q 1116 3141 1344 3267 
Q 1572 3394 1897 3394 
Q 2322 3394 2647 3175 
Q 2972 2956 3137 2557 
Q 3303 2159 3303 1684 
Q 3303 1175 3120 767 
Q 2938 359 2589 142 
Q 2241 -75 1856 -75 
Q 1575 -75 1351 44 
Q 1128 163 984 344 
L 984 -1272 
L 422 -1272 
z
M 931 1641 
Q 931 1000 1190 694 
Q 1450 388 1819 388 
Q 2194 388 2461 705 
Q 2728 1022 2728 1688 
Q 2728 2322 2467 2637 
Q 2206 2953 1844 2953 
Q 1484 2953 1207 2617 
Q 931 2281 931 1641 
z
" transform="scale(0.015625)"/>
       <path id="ArialMT-74" d="M 1650 503 
L 1731 6 
Q 1494 -44 1306 -44 
Q 1000 -44 831 53 
Q 663 150 594 308 
Q 525 466 525 972 
L 525 2881 
L 113 2881 
L 113 3319 
L 525 3319 
L 525 4141 
L 1084 4478 
L 1084 3319 
L 1650 3319 
L 1650 2881 
L 1084 2881 
L 1084 941 
Q 1084 700 1114 631 
Q 1144 563 1211 522 
Q 1278 481 1403 481 
Q 1497 481 1650 503 
z
" transform="scale(0.015625)"/>
       <path id="ArialMT-69" d="M 425 3934 
L 425 4581 
L 988 4581 
L 988 3934 
L 425 3934 
z
M 425 0 
L 425 3319 
L 988 3319 
L 988 0 
L 425 0 
z
" transform="scale(0.015625)"/>
       <path id="ArialMT-6e" d="M 422 0 
L 422 3319 
L 928 3319 
L 928 2847 
Q 1294 3394 1984 3394 
Q 2284 3394 2536 3286 
Q 2788 3178 2913 3003 
Q 3038 2828 3088 2588 
Q 3119 2431 3119 2041 
L 3119 0 
L 2556 0 
L 2556 2019 
Q 2556 2363 2490 2533 
Q 2425 2703 2258 2804 
Q 2091 2906 1866 2906 
Q 1506 2906 1245 2678 
Q 984 2450 984 1813 
L 984 0 
L 422 0 
z
" transform="scale(0.015625)"/>
      </defs>
      <use xlink:href="#ArialMT-50"/>
      <use xlink:href="#ArialMT-72" x="66.699219"/>
      <use xlink:href="#ArialMT-6f" x="100"/>
      <use xlink:href="#ArialMT-70" x="155.615234"/>
      <use xlink:href="#ArialMT-6f" x="211.230469"/>
      <use xlink:href="#ArialMT-72" x="266.845703"/>
      <use xlink:href="#ArialMT-74" x="300.146484"/>
      <use xlink:href="#ArialMT-69" x="327.929688"/>
      <use xlink:href="#ArialMT-6f" x="350.146484"/>
      <use xlink:href="#ArialMT-6e" x="405.761719"/>
     </g>
    </g>
   </g>
   <g id="line2d_9">
    <path d="M 56.271044 122.292 
L 56.271857 121.317059 
L 57.721727 121.317059 
L 57.721727 121.219565 
L 57.83076 117.929138 
L 57.835079 117.929138 
L 57.835079 117.831644 
L 57.896686 116.466726 
L 57.946772 116.466726 
L 57.946772 116.369232 
L 57.960665 115.516159 
L 58.39188 115.467412 
L 58.39188 115.418665 
L 58.469668 110.202729 
L 58.508492 110.202729 
L 58.508492 110.105235 
L 58.569012 109.179041 
L 60.344558 109.154668 
L 60.344558 109.081547 
L 60.346809 108.179726 
L 60.492452 108.179726 
L 60.492452 108.082232 
L 60.584539 102.354453 
L 63.089572 102.330079 
L 63.089572 102.256959 
L 63.181143 98.430315 
L 63.213898 98.430315 
L 63.213898 98.332821 
L 63.321077 95.529865 
L 63.374086 95.505491 
L 63.374086 95.432371 
L 63.484562 88.705276 
L 63.513406 88.656529 
L 63.513406 88.607782 
L 63.61032 84.781138 
L 63.629429 84.781138 
L 63.629429 84.683644 
L 63.71112 82.368159 
L 63.771621 82.368159 
L 63.771621 82.270665 
L 63.873774 79.955179 
L 63.947599 79.955179 
L 63.947599 79.857685 
L 64.057024 78.541515 
L 64.166178 78.517141 
L 64.166178 78.444021 
L 64.189735 77.980924 
L 64.283293 77.980924 
L 64.283293 77.883429 
L 64.393825 76.518512 
L 64.408284 76.494138 
L 64.408284 76.421018 
L 64.435078 75.543571 
L 64.952305 75.543571 
L 64.952305 75.446076 
L 64.968362 75.0561 
L 65.843079 75.0561 
L 65.843079 74.958606 
L 65.928945 72.545626 
L 67.050309 72.521253 
L 67.050309 72.448132 
L 67.05734 69.182079 
L 68.70344 69.182079 
L 68.70344 69.084585 
L 68.788331 62.406238 
L 68.825556 62.406238 
L 68.825556 62.308744 
L 68.825556 61.943141 
L 69.22233 61.943141 
L 69.22233 61.845647 
L 69.31951 57.555906 
L 69.338724 57.507159 
L 69.338724 57.458412 
L 69.446315 49.244532 
L 69.490715 49.195785 
L 69.490715 49.147038 
L 69.600177 46.807179 
L 69.611921 46.782806 
L 69.611921 46.709685 
L 69.668296 45.832238 
L 70.260958 45.832238 
L 70.260958 45.734744 
L 70.309108 43.906729 
L 71.370202 43.906729 
L 71.370202 43.809235 
L 71.464307 39.00765 
L 71.489658 39.00765 
L 71.489658 38.910156 
L 71.533852 37.057768 
L 72.492038 37.033394 
L 72.492038 36.960274 
L 72.585478 35.083512 
L 72.720147 35.083512 
L 72.720147 34.986018 
L 72.720599 34.108571 
L 73.328672 34.084197 
L 73.328672 34.011076 
L 73.41572 31.671218 
L 73.477989 31.671218 
L 73.477989 31.573724 
L 73.487776 30.72065 
L 74.455254 30.72065 
L 74.455254 30.623156 
L 74.465671 29.696962 
L 75.085593 29.672588 
L 75.085593 29.599468 
L 75.097931 28.258924 
L 78.198495 28.23455 
L 78.198495 28.161429 
L 78.288264 25.309726 
L 79.308777 25.285353 
L 79.308777 25.212232 
L 79.402562 22.848 
L 79.402562 22.848 
" clip-path="url(#pff44316d07)" style="fill: none; stroke: #023eff; stroke-width: 1.5; stroke-linecap: round"/>
   </g>
   <g id="line2d_10">
    <path d="M 58.508492 122.292 
L 58.561913 121.282416 
L 60.397278 121.282416 
L 60.397278 121.181458 
L 60.507453 115.729706 
L 60.508963 115.729706 
L 60.508963 115.628747 
L 60.580857 111.691371 
L 60.785929 111.666131 
L 60.785929 111.590412 
L 60.894312 106.13866 
L 60.898057 106.13866 
L 60.898057 106.037702 
L 61.002076 103.614701 
L 61.060597 103.614701 
L 61.060597 103.513742 
L 61.066487 102.605117 
L 64.408284 102.605117 
L 64.408284 102.504158 
L 64.411723 101.595533 
L 65.184956 101.595533 
L 65.184956 101.494575 
L 65.259606 98.566782 
L 65.831638 98.566782 
L 65.831638 98.465823 
L 65.921923 89.98532 
L 65.948249 89.96008 
L 65.948249 89.884361 
L 65.952145 88.975736 
L 66.322798 88.975736 
L 66.322798 88.874778 
L 66.400776 86.956569 
L 66.472015 86.956569 
L 66.472015 86.85561 
L 66.563669 84.937401 
L 66.646712 84.937401 
L 66.646712 84.836443 
L 66.654869 83.927817 
L 68.750566 83.927817 
L 68.750566 83.826859 
L 68.86145 80.394274 
L 68.865058 80.394274 
L 68.865058 80.293316 
L 68.908634 78.879898 
L 69.155274 78.879898 
L 69.155274 78.77894 
L 69.224456 74.336772 
L 69.405108 74.336772 
L 69.405108 74.235813 
L 69.405983 73.327188 
L 70.456192 73.327188 
L 70.456192 73.226229 
L 70.456301 72.317604 
L 70.661185 72.317604 
L 70.661185 72.216646 
L 70.715035 65.250518 
L 71.366179 65.250518 
L 71.366179 65.149559 
L 71.433466 60.202599 
L 71.566649 60.202599 
L 71.566649 60.101641 
L 71.570403 59.193015 
L 72.523851 59.193015 
L 72.523851 59.092057 
L 72.558885 56.669056 
L 73.400163 56.669056 
L 73.400163 56.568097 
L 73.490426 50.611553 
L 74.079957 50.611553 
L 74.079957 50.510595 
L 74.17427 46.573218 
L 74.213237 46.573218 
L 74.213237 46.47226 
L 74.217169 45.563635 
L 74.826801 45.563635 
L 74.826801 45.462676 
L 74.903881 43.544467 
L 74.972505 43.544467 
L 74.972505 43.443509 
L 75.058811 40.515716 
L 75.135372 40.515716 
L 75.135372 40.414757 
L 75.142792 39.506132 
L 75.418144 39.506132 
L 75.418144 39.405174 
L 75.418181 38.496548 
L 76.369643 38.496548 
L 76.369643 38.39559 
L 76.455417 33.953421 
L 76.552317 33.953421 
L 76.552317 33.852463 
L 76.553336 32.943838 
L 77.40845 32.918598 
L 77.40845 32.842879 
L 77.461149 30.92467 
L 78.022149 30.92467 
L 78.022149 30.823712 
L 78.09395 28.905503 
L 78.391735 28.905503 
L 78.391735 28.804544 
L 78.451289 26.886335 
L 78.505813 26.886335 
L 78.505813 26.785377 
L 78.575965 24.867168 
L 78.639438 24.867168 
L 78.639438 24.766209 
L 78.720285 22.848 
L 78.720285 22.848 
" clip-path="url(#pff44316d07)" style="fill: none; stroke: #ff7c00; stroke-width: 1.5; stroke-linecap: round"/>
   </g>
   <g id="line2d_11">
    <path d="M 72.146916 122.292 
L 72.237065 115.132032 
L 72.27256 115.132032 
L 72.27256 115.032588 
L 72.375748 112.745376 
L 72.430599 112.745376 
L 72.430599 112.645932 
L 72.503505 111.154272 
L 72.571281 111.154272 
L 72.571281 111.054828 
L 72.659593 109.165392 
L 72.745825 109.165392 
L 72.745825 109.065948 
L 72.748287 108.36984 
L 77.890395 108.36984 
L 77.890395 108.270396 
L 77.995293 104.39208 
L 78.032173 104.39208 
L 78.032173 104.292636 
L 78.134837 102.005424 
L 78.187939 102.005424 
L 78.187939 101.90598 
L 78.2576 100.41432 
L 78.321712 100.41432 
L 78.321712 100.314876 
L 78.404542 98.823216 
L 80.549033 98.823216 
L 80.549033 98.723772 
L 80.644926 94.44768 
L 80.693747 94.44768 
L 80.693747 94.348236 
L 80.752338 93.652128 
L 84.61104 93.652128 
L 84.61104 93.552684 
L 84.681382 92.061024 
L 84.915337 92.061024 
L 84.915337 91.96158 
L 84.98121 90.46992 
L 85.042515 90.46992 
L 85.042515 90.370476 
L 85.122482 88.878816 
L 85.19578 88.878816 
L 85.19578 88.779372 
L 85.290079 87.287712 
L 85.383979 87.287712 
L 85.383979 87.188268 
L 85.484615 86.49216 
L 85.592092 86.49216 
L 85.592092 86.392716 
L 85.592092 86.094384 
L 85.824204 86.094384 
L 85.824204 85.99494 
L 85.918572 82.912176 
L 85.955124 82.912176 
L 85.955124 82.812732 
L 86.063592 80.52552 
L 87.488625 80.52552 
L 87.488625 80.426076 
L 87.575684 78.934416 
L 87.622936 78.934416 
L 87.622936 78.834972 
L 87.683921 77.343312 
L 87.73926 77.343312 
L 87.73926 77.243868 
L 87.810093 75.752208 
L 87.873895 75.752208 
L 87.873895 75.652764 
L 87.880144 74.956656 
L 89.029246 74.956656 
L 89.029246 74.857212 
L 89.029246 74.55888 
L 89.779465 74.55888 
L 89.779465 74.459436 
L 89.853323 72.967776 
L 89.922443 72.967776 
L 89.922443 72.868332 
L 90.01311 71.376672 
L 90.096288 71.376672 
L 90.096288 71.277228 
L 90.203473 69.785568 
L 90.300431 69.785568 
L 90.300431 69.686124 
L 90.309954 68.990016 
L 90.413712 68.990016 
L 90.413712 68.890572 
L 90.423879 68.194464 
L 90.534391 68.194464 
L 90.534391 68.09502 
L 90.545183 67.398912 
L 90.662397 67.398912 
L 90.662397 67.299468 
L 90.673815 66.60336 
L 92.070866 66.60336 
L 92.070866 66.503916 
L 92.149675 64.216704 
L 92.195778 64.216704 
L 92.195778 64.11726 
L 92.20047 63.421152 
L 93.518346 63.421152 
L 93.518346 63.321708 
L 93.613562 60.63672 
L 93.649785 60.63672 
L 93.649785 60.537276 
L 93.7452 58.250064 
L 93.792521 58.250064 
L 93.792521 58.15062 
L 93.853298 56.65896 
L 93.908155 56.65896 
L 93.908155 56.559516 
L 93.982972 55.067856 
L 94.040585 55.067856 
L 94.040585 54.968412 
L 94.119779 53.476752 
L 95.271503 53.476752 
L 95.271503 53.377308 
L 95.360262 51.487872 
L 95.40505 51.487872 
L 95.40505 51.388428 
L 95.465697 49.498992 
L 95.66991 49.498992 
L 95.66991 49.399548 
L 95.763968 47.907888 
L 95.850216 47.907888 
L 95.850216 47.808444 
L 95.952172 46.71456 
L 95.961409 46.71456 
L 95.961409 46.615116 
L 96.071911 45.521232 
L 96.179652 45.521232 
L 96.179652 45.421788 
L 96.179652 45.123456 
L 96.610862 45.123456 
L 96.610862 45.024012 
L 96.710488 43.532352 
L 98.140167 43.532352 
L 98.140167 43.432908 
L 98.142724 42.7368 
L 108.636545 42.7368 
L 108.636545 42.637356 
L 108.744499 40.74792 
L 108.748256 40.74792 
L 108.748256 40.648476 
L 108.845834 38.75904 
L 108.89719 38.75904 
L 108.89719 38.659596 
L 108.963928 37.167936 
L 109.024659 37.167936 
L 109.024659 37.068492 
L 109.102551 35.576832 
L 109.172708 35.576832 
L 109.172708 35.477388 
L 109.261801 33.985728 
L 109.336932 33.985728 
L 109.336932 33.886284 
L 109.437281 32.394624 
L 109.526513 32.394624 
L 109.526513 32.29518 
L 109.634291 31.201296 
L 109.643467 31.201296 
L 109.643467 31.101852 
L 109.747252 30.007968 
L 109.85145 30.007968 
L 109.85145 29.908524 
L 109.87229 28.416864 
L 111.055401 28.416864 
L 111.055401 28.31742 
L 111.119971 27.621312 
L 111.194116 27.621312 
L 111.194116 27.521868 
L 111.280055 26.427984 
L 111.370537 26.427984 
L 111.370537 26.32854 
L 111.480293 24.439104 
L 111.58167 24.439104 
L 111.58167 24.33966 
L 111.591703 23.643552 
L 111.701116 23.643552 
L 111.701116 23.544108 
L 111.71189 22.848 
L 111.71189 22.848 
" clip-path="url(#pff44316d07)" style="fill: none; stroke: #1ac938; stroke-width: 1.5; stroke-linecap: round"/>
   </g>
   <g id="line2d_12">
    <path d="M 72.146916 122.292 
L 72.23706 114.739291 
L 72.27256 114.739291 
L 72.27256 114.634392 
L 72.375748 112.221722 
L 72.430594 112.221722 
L 72.430594 112.116823 
L 72.503505 110.543342 
L 72.571281 110.543342 
L 72.571281 110.438443 
L 72.659593 108.445367 
L 72.745825 108.445367 
L 72.745825 108.340468 
L 72.748287 107.606177 
L 80.693747 107.606177 
L 80.693747 107.501278 
L 80.752343 106.766987 
L 83.100736 106.766987 
L 83.100736 106.662089 
L 83.152365 103.829823 
L 84.61104 103.829823 
L 84.61104 103.724924 
L 84.717322 94.598734 
L 84.737824 94.598734 
L 84.737824 94.493835 
L 84.817694 91.241975 
L 84.861393 91.241975 
L 84.861393 91.137076 
L 84.920289 89.563595 
L 84.975697 89.563595 
L 84.975697 89.458696 
L 85.048569 87.885215 
L 85.11584 87.885215 
L 85.11584 87.780316 
L 85.202973 86.206835 
L 85.28232 86.206835 
L 85.28232 86.101937 
L 85.383979 84.948051 
L 85.484615 84.927071 
L 85.484615 84.843152 
L 85.592092 84.108861 
L 85.824204 84.108861 
L 85.824204 84.003962 
L 85.917419 80.752101 
L 85.955128 80.752101 
L 85.955128 80.647203 
L 86.063592 78.234532 
L 86.686597 78.234532 
L 86.686597 78.129633 
L 86.7967 75.716962 
L 86.844438 75.716962 
L 86.844438 75.612063 
L 86.899467 74.458177 
L 86.957201 74.458177 
L 86.957201 74.353278 
L 87.028052 72.360203 
L 87.280234 72.360203 
L 87.280234 72.255304 
L 87.379471 65.646684 
L 87.407504 65.646684 
L 87.407504 65.541785 
L 87.484651 63.129114 
L 87.524111 63.129114 
L 87.524111 63.024215 
L 87.627619 60.611544 
L 87.678872 60.611544 
L 87.678872 60.506646 
L 87.744731 58.933165 
L 88.410651 58.933165 
L 88.410651 58.828266 
L 88.510768 54.737215 
L 88.540608 54.737215 
L 88.540608 54.632316 
L 88.619218 52.219646 
L 88.658164 52.219646 
L 88.658164 52.114747 
L 88.70832 50.541266 
L 89.813979 50.541266 
L 89.813979 50.436367 
L 89.85449 45.506127 
L 90.363755 45.506127 
L 90.363755 45.401228 
L 90.465035 43.827747 
L 92.232807 43.806767 
L 92.232807 43.722848 
L 92.328454 40.051392 
L 92.364445 40.051392 
L 92.364445 39.946494 
L 92.459726 37.533823 
L 92.507167 37.533823 
L 92.507167 37.428924 
L 92.56818 35.855443 
L 92.623389 35.834463 
L 92.623389 35.750544 
L 92.693713 34.177063 
L 92.756834 34.177063 
L 92.756834 34.072165 
L 92.836769 32.498684 
L 92.908116 32.498684 
L 92.908116 32.393785 
L 92.915069 31.659494 
L 93.982124 31.659494 
L 93.982124 31.554595 
L 94.083705 28.302734 
L 94.129548 28.302734 
L 94.129548 28.197835 
L 94.193229 26.624354 
L 94.254483 26.624354 
L 94.254483 26.519456 
L 94.336341 24.945975 
L 94.412797 24.945975 
L 94.412797 24.841076 
L 94.512646 23.68719 
L 94.613133 23.66621 
L 94.613133 23.582291 
L 94.721773 22.848 
L 94.721773 22.848 
" clip-path="url(#pff44316d07)" style="fill: none; stroke: #e8000b; stroke-width: 1.5; stroke-linecap: round"/>
   </g>
   <g id="patch_3">
    <path d="M 50.299477 122.292 
L 50.299477 22.848 
" style="fill: none; stroke: #ffffff; stroke-width: 1.25; stroke-linejoin: miter; stroke-linecap: square"/>
   </g>
   <g id="patch_4">
    <path d="M 50.299477 122.292 
L 181.67396 122.292 
" style="fill: none; stroke: #ffffff; stroke-width: 1.25; stroke-linejoin: miter; stroke-linecap: square"/>
   </g>
   <g id="text_11">
    <!-- Landlocked -->
    <g style="fill: #262626" transform="translate(91.435468 16.848) scale(0.096 -0.096)">
     <defs>
      <path id="ArialMT-4c" d="M 469 0 
L 469 4581 
L 1075 4581 
L 1075 541 
L 3331 541 
L 3331 0 
L 469 0 
z
" transform="scale(0.015625)"/>
      <path id="ArialMT-61" d="M 2588 409 
Q 2275 144 1986 34 
Q 1697 -75 1366 -75 
Q 819 -75 525 192 
Q 231 459 231 875 
Q 231 1119 342 1320 
Q 453 1522 633 1644 
Q 813 1766 1038 1828 
Q 1203 1872 1538 1913 
Q 2219 1994 2541 2106 
Q 2544 2222 2544 2253 
Q 2544 2597 2384 2738 
Q 2169 2928 1744 2928 
Q 1347 2928 1158 2789 
Q 969 2650 878 2297 
L 328 2372 
Q 403 2725 575 2942 
Q 747 3159 1072 3276 
Q 1397 3394 1825 3394 
Q 2250 3394 2515 3294 
Q 2781 3194 2906 3042 
Q 3031 2891 3081 2659 
Q 3109 2516 3109 2141 
L 3109 1391 
Q 3109 606 3145 398 
Q 3181 191 3288 0 
L 2700 0 
Q 2613 175 2588 409 
z
M 2541 1666 
Q 2234 1541 1622 1453 
Q 1275 1403 1131 1340 
Q 988 1278 909 1158 
Q 831 1038 831 891 
Q 831 666 1001 516 
Q 1172 366 1500 366 
Q 1825 366 2078 508 
Q 2331 650 2450 897 
Q 2541 1088 2541 1459 
L 2541 1666 
z
" transform="scale(0.015625)"/>
      <path id="ArialMT-64" d="M 2575 0 
L 2575 419 
Q 2259 -75 1647 -75 
Q 1250 -75 917 144 
Q 584 363 401 755 
Q 219 1147 219 1656 
Q 219 2153 384 2558 
Q 550 2963 881 3178 
Q 1213 3394 1622 3394 
Q 1922 3394 2156 3267 
Q 2391 3141 2538 2938 
L 2538 4581 
L 3097 4581 
L 3097 0 
L 2575 0 
z
M 797 1656 
Q 797 1019 1065 703 
Q 1334 388 1700 388 
Q 2069 388 2326 689 
Q 2584 991 2584 1609 
Q 2584 2291 2321 2609 
Q 2059 2928 1675 2928 
Q 1300 2928 1048 2622 
Q 797 2316 797 1656 
z
" transform="scale(0.015625)"/>
      <path id="ArialMT-6c" d="M 409 0 
L 409 4581 
L 972 4581 
L 972 0 
L 409 0 
z
" transform="scale(0.015625)"/>
      <path id="ArialMT-63" d="M 2588 1216 
L 3141 1144 
Q 3050 572 2676 248 
Q 2303 -75 1759 -75 
Q 1078 -75 664 370 
Q 250 816 250 1647 
Q 250 2184 428 2587 
Q 606 2991 970 3192 
Q 1334 3394 1763 3394 
Q 2303 3394 2647 3120 
Q 2991 2847 3088 2344 
L 2541 2259 
Q 2463 2594 2264 2762 
Q 2066 2931 1784 2931 
Q 1359 2931 1093 2626 
Q 828 2322 828 1663 
Q 828 994 1084 691 
Q 1341 388 1753 388 
Q 2084 388 2306 591 
Q 2528 794 2588 1216 
z
" transform="scale(0.015625)"/>
      <path id="ArialMT-6b" d="M 425 0 
L 425 4581 
L 988 4581 
L 988 1969 
L 2319 3319 
L 3047 3319 
L 1778 2088 
L 3175 0 
L 2481 0 
L 1384 1697 
L 988 1316 
L 988 0 
L 425 0 
z
" transform="scale(0.015625)"/>
      <path id="ArialMT-65" d="M 2694 1069 
L 3275 997 
Q 3138 488 2766 206 
Q 2394 -75 1816 -75 
Q 1088 -75 661 373 
Q 234 822 234 1631 
Q 234 2469 665 2931 
Q 1097 3394 1784 3394 
Q 2450 3394 2872 2941 
Q 3294 2488 3294 1666 
Q 3294 1616 3291 1516 
L 816 1516 
Q 847 969 1125 678 
Q 1403 388 1819 388 
Q 2128 388 2347 550 
Q 2566 713 2694 1069 
z
M 847 1978 
L 2700 1978 
Q 2663 2397 2488 2606 
Q 2219 2931 1791 2931 
Q 1403 2931 1139 2672 
Q 875 2413 847 1978 
z
" transform="scale(0.015625)"/>
     </defs>
     <use xlink:href="#ArialMT-4c"/>
     <use xlink:href="#ArialMT-61" x="55.615234"/>
     <use xlink:href="#ArialMT-6e" x="111.230469"/>
     <use xlink:href="#ArialMT-64" x="166.845703"/>
     <use xlink:href="#ArialMT-6c" x="222.460938"/>
     <use xlink:href="#ArialMT-6f" x="244.677734"/>
     <use xlink:href="#ArialMT-63" x="300.292969"/>
     <use xlink:href="#ArialMT-6b" x="350.292969"/>
     <use xlink:href="#ArialMT-65" x="400.292969"/>
     <use xlink:href="#ArialMT-64" x="455.908203"/>
    </g>
   </g>
  </g>
  <g id="axes_2">
   <g id="patch_5">
    <path d="M 191.648097 122.292 
L 323.02258 122.292 
L 323.02258 22.848 
L 191.648097 22.848 
z
" style="fill: #eaeaf2"/>
   </g>
   <g id="matplotlib.axis_3">
    <g id="xtick_3">
     <g id="line2d_13">
      <path d="M 240.770074 122.292 
L 240.770074 22.848 
" clip-path="url(#p983926353e)" style="fill: none; stroke: #ffffff; stroke-linecap: round"/>
     </g>
     <g id="text_12">
      <!-- 50 -->
      <g style="fill: #262626" transform="translate(235.876449 138.090875) scale(0.088 -0.088)">
       <use xlink:href="#ArialMT-35"/>
       <use xlink:href="#ArialMT-30" x="55.615234"/>
      </g>
     </g>
    </g>
    <g id="xtick_4">
     <g id="line2d_14">
      <path d="M 301.483144 122.292 
L 301.483144 22.848 
" clip-path="url(#p983926353e)" style="fill: none; stroke: #ffffff; stroke-linecap: round"/>
     </g>
     <g id="text_13">
      <!-- 100 -->
      <g style="fill: #262626" transform="translate(294.142707 138.090875) scale(0.088 -0.088)">
       <use xlink:href="#ArialMT-31"/>
       <use xlink:href="#ArialMT-30" x="55.615234"/>
       <use xlink:href="#ArialMT-30" x="111.230469"/>
      </g>
     </g>
    </g>
    <g id="text_14">
     <!-- RTT (ms) -->
     <g style="fill: #262626" transform="translate(237.245088 150.828375) scale(0.096 -0.096)">
      <use xlink:href="#ArialMT-52"/>
      <use xlink:href="#ArialMT-54" x="70.466797"/>
      <use xlink:href="#ArialMT-54" x="131.550781"/>
      <use xlink:href="#ArialMT-20" x="190.884766"/>
      <use xlink:href="#ArialMT-28" x="218.667969"/>
      <use xlink:href="#ArialMT-6d" x="251.96875"/>
      <use xlink:href="#ArialMT-73" x="335.269531"/>
      <use xlink:href="#ArialMT-29" x="385.269531"/>
     </g>
    </g>
   </g>
   <g id="matplotlib.axis_4">
    <g id="ytick_7">
     <g id="line2d_15">
      <path d="M 191.648097 122.292 
L 323.02258 122.292 
" clip-path="url(#p983926353e)" style="fill: none; stroke: #ffffff; stroke-linecap: round"/>
     </g>
    </g>
    <g id="ytick_8">
     <g id="line2d_16">
      <path d="M 191.648097 102.4032 
L 323.02258 102.4032 
" clip-path="url(#p983926353e)" style="fill: none; stroke: #ffffff; stroke-linecap: round"/>
     </g>
    </g>
    <g id="ytick_9">
     <g id="line2d_17">
      <path d="M 191.648097 82.5144 
L 323.02258 82.5144 
" clip-path="url(#p983926353e)" style="fill: none; stroke: #ffffff; stroke-linecap: round"/>
     </g>
    </g>
    <g id="ytick_10">
     <g id="line2d_18">
      <path d="M 191.648097 62.6256 
L 323.02258 62.6256 
" clip-path="url(#p983926353e)" style="fill: none; stroke: #ffffff; stroke-linecap: round"/>
     </g>
    </g>
    <g id="ytick_11">
     <g id="line2d_19">
      <path d="M 191.648097 42.7368 
L 323.02258 42.7368 
" clip-path="url(#p983926353e)" style="fill: none; stroke: #ffffff; stroke-linecap: round"/>
     </g>
    </g>
    <g id="ytick_12">
     <g id="line2d_20">
      <path d="M 191.648097 22.848 
L 323.02258 22.848 
" clip-path="url(#p983926353e)" style="fill: none; stroke: #ffffff; stroke-linecap: round"/>
     </g>
    </g>
   </g>
   <g id="line2d_21">
    <path d="M 209.516883 122.292 
L 209.594979 118.078271 
L 209.631545 118.078271 
L 209.631545 117.972928 
L 209.741405 115.550034 
L 210.05206 115.550034 
L 210.05206 115.444691 
L 210.099369 110.493559 
L 219.173384 110.493559 
L 219.173384 110.388216 
L 219.26237 107.965322 
L 219.393073 107.965322 
L 219.393073 107.859979 
L 219.467588 106.279831 
L 219.537282 106.279831 
L 219.537282 106.174487 
L 219.646172 100.801983 
L 219.649613 100.801983 
L 219.649613 100.69664 
L 219.74533 98.695119 
L 220.481491 98.695119 
L 220.481491 98.589775 
L 220.484534 97.852373 
L 221.013318 97.852373 
L 221.013318 97.74703 
L 221.087811 96.166881 
L 221.155818 96.166881 
L 221.155818 96.061538 
L 221.243118 94.48139 
L 302.060685 94.48139 
L 302.060685 94.376047 
L 302.11463 86.475305 
L 304.342289 86.475305 
L 304.342289 86.369962 
L 304.401876 85.211186 
L 308.255742 85.211186 
L 308.255742 85.105843 
L 308.359231 80.997458 
L 308.380927 80.997458 
L 308.380927 80.892114 
L 308.473707 75.940983 
L 308.4991 75.940983 
L 308.4991 75.83564 
L 308.60787 72.991373 
L 308.611584 72.991373 
L 308.611584 72.88603 
L 308.706328 70.041763 
L 308.815098 70.041763 
L 308.815098 69.936419 
L 308.820369 69.199017 
L 309.797766 69.199017 
L 309.797766 69.093674 
L 309.900218 65.406661 
L 309.94224 65.406661 
L 309.94224 65.301318 
L 309.943435 64.563915 
L 310.571076 64.563915 
L 310.571076 64.458572 
L 310.676233 59.507441 
L 310.707999 59.507441 
L 310.707999 59.402097 
L 310.816546 54.872339 
L 310.821744 54.872339 
L 310.821744 54.766996 
L 310.88498 53.60822 
L 312.125477 53.60822 
L 312.125477 53.502877 
L 312.140541 51.922729 
L 312.253359 51.922729 
L 312.253359 51.817386 
L 312.339413 48.130373 
L 312.373208 48.130373 
L 312.373208 48.02503 
L 312.376664 47.287627 
L 313.88782 47.287627 
L 313.88782 47.182284 
L 313.994441 44.75939 
L 313.999851 44.75939 
L 313.999851 44.654047 
L 314.065987 42.652525 
L 314.973783 42.652525 
L 314.973783 42.547182 
L 315.070917 30.011339 
L 315.108316 30.011339 
L 315.108316 29.905996 
L 315.111883 29.168593 
L 315.292653 29.168593 
L 315.292653 29.06325 
L 315.397272 26.218983 
L 315.432365 26.218983 
L 315.432365 26.11364 
L 315.51954 23.690746 
L 315.566138 23.690746 
L 315.566138 23.585403 
L 315.567889 22.848 
L 315.567889 22.848 
" clip-path="url(#p983926353e)" style="fill: none; stroke: #ff7c00; stroke-width: 1.5; stroke-linecap: round"/>
   </g>
   <g id="line2d_22">
    <path d="M 197.739361 122.292 
L 197.843007 114.197721 
L 197.883671 114.197721 
L 197.883671 114.110997 
L 197.940665 111.88507 
L 197.995992 111.88507 
L 197.995992 111.798345 
L 198.070498 109.572419 
L 200.488431 109.572419 
L 200.488431 109.485694 
L 200.550128 107.259767 
L 200.608394 107.259767 
L 200.608394 107.173043 
L 200.685446 104.947116 
L 204.78739 104.947116 
L 204.78739 104.860392 
L 204.897343 93.38386 
L 204.901278 93.38386 
L 204.901278 93.297136 
L 205.002099 87.602233 
L 205.048637 87.602233 
L 205.048637 87.515508 
L 205.128815 84.133256 
L 205.196522 84.133256 
L 205.196522 84.046531 
L 205.285228 81.820605 
L 205.366654 81.820605 
L 205.366654 81.73388 
L 205.374707 80.664279 
L 208.444981 80.664279 
L 208.444981 80.577555 
L 208.456341 78.929791 
L 208.625987 78.929791 
L 208.625987 78.843066 
L 208.702024 75.460814 
L 208.747501 75.460814 
L 208.747501 75.37409 
L 208.752212 74.304488 
L 210.579026 74.304488 
L 210.579026 74.217764 
L 210.670787 59.850419 
L 210.692523 59.850419 
L 210.692523 59.763694 
L 210.794425 54.068791 
L 210.830298 54.068791 
L 210.830298 53.982066 
L 210.941008 44.818186 
L 210.957957 44.818186 
L 210.957957 44.731462 
L 211.051406 37.880233 
L 211.082415 37.880233 
L 211.082415 37.793508 
L 211.180867 33.25493 
L 211.236549 33.25493 
L 211.236549 33.168206 
L 211.328191 30.942279 
L 211.349098 30.942279 
L 211.349098 30.855555 
L 211.371107 28.629628 
L 213.053207 28.629628 
L 213.053207 28.542903 
L 213.164068 25.160651 
L 213.182892 25.160651 
L 213.182892 25.073927 
L 213.216194 22.848 
L 213.216194 22.848 
" clip-path="url(#p983926353e)" style="fill: none; stroke: #1ac938; stroke-width: 1.5; stroke-linecap: round"/>
   </g>
   <g id="line2d_23">
    <path d="M 198.034749 122.292 
L 198.115064 115.927584 
L 198.149844 115.927584 
L 198.149844 115.82814 
L 198.252564 113.540928 
L 203.310027 113.521039 
L 203.310027 113.441484 
L 203.32295 111.949824 
L 204.216836 111.949824 
L 204.216836 111.85038 
L 204.325981 105.585408 
L 204.364955 105.585408 
L 204.364955 105.485964 
L 204.475922 103.198752 
L 205.283139 103.198752 
L 205.283139 103.099308 
L 205.346978 101.607648 
L 205.605753 101.607648 
L 205.605753 101.508204 
L 205.716431 97.232112 
L 205.752221 97.232112 
L 205.752221 97.132668 
L 205.755892 96.43656 
L 207.276148 96.43656 
L 207.276148 96.337116 
L 207.348554 94.049904 
L 207.387896 94.049904 
L 207.387896 93.95046 
L 207.495234 91.663248 
L 207.54979 91.663248 
L 207.54979 91.563804 
L 207.620786 90.072144 
L 207.685525 90.072144 
L 207.685525 89.9727 
L 207.768589 88.48104 
L 213.679278 88.48104 
L 213.679278 88.381596 
L 213.727106 85.696608 
L 215.784892 85.696608 
L 215.784892 85.597164 
L 215.849074 84.105504 
L 215.909631 84.105504 
L 215.909631 84.00606 
L 215.989593 82.5144 
L 216.063433 82.5144 
L 216.063433 82.414956 
L 216.159256 80.923296 
L 216.246533 80.923296 
L 216.246533 80.823852 
L 216.349128 79.729968 
L 217.000411 79.729968 
L 217.000411 79.630524 
L 217.090671 75.752208 
L 217.132135 75.752208 
L 217.132135 75.652764 
L 217.240557 73.763328 
L 217.245793 73.763328 
L 217.245793 73.663884 
L 217.309623 72.57 
L 217.373242 72.57 
L 217.373242 72.470556 
L 217.455518 70.978896 
L 217.530342 70.978896 
L 217.530342 70.879452 
L 217.626007 69.387792 
L 217.712126 69.387792 
L 217.712126 69.288348 
L 217.720531 68.59224 
L 219.956755 68.59224 
L 219.956755 68.492796 
L 220.019621 67.001136 
L 220.081477 67.001136 
L 220.081477 66.901692 
L 220.165678 65.012256 
L 221.495514 65.012256 
L 221.495514 64.912812 
L 221.600411 63.421152 
L 221.69503 63.421152 
L 221.69503 63.321708 
L 221.704289 62.6256 
L 278.302426 62.605711 
L 278.302426 62.526156 
L 278.399866 55.465632 
L 278.435143 55.465632 
L 278.435143 55.366188 
L 278.484447 53.874528 
L 279.013213 53.874528 
L 279.013213 53.775084 
L 279.118276 46.71456 
L 279.153915 46.71456 
L 279.153915 46.615116 
L 279.203423 45.123456 
L 285.339856 45.123456 
L 285.339856 45.024012 
L 285.427837 41.941248 
L 285.589125 41.941248 
L 285.589125 41.841804 
L 285.654038 40.350144 
L 285.713949 40.350144 
L 285.713949 40.2507 
L 285.791804 38.75904 
L 285.862776 38.75904 
L 285.862776 38.659596 
L 285.95399 37.167936 
L 286.036348 37.167936 
L 286.036348 37.068492 
L 286.109516 33.190176 
L 286.30811 33.190176 
L 286.30811 33.090732 
L 286.372884 31.599072 
L 286.432536 31.599072 
L 286.432536 31.499628 
L 286.438455 30.80352 
L 288.112799 30.80352 
L 288.112799 30.704076 
L 288.114198 30.007968 
L 288.494034 30.007968 
L 288.494034 29.908524 
L 288.494034 29.610192 
L 288.79193 29.610192 
L 288.79193 29.510748 
L 288.792245 28.81464 
L 289.734624 28.81464 
L 289.734624 28.715196 
L 289.786234 27.223536 
L 290.410263 27.223536 
L 290.410263 27.124092 
L 290.500671 24.83688 
L 290.55405 24.816991 
L 290.55405 24.737436 
L 290.614202 23.643552 
L 290.675049 23.643552 
L 290.675049 23.544108 
L 290.681135 22.848 
L 290.681135 22.848 
" clip-path="url(#p983926353e)" style="fill: none; stroke: #e8000b; stroke-width: 1.5; stroke-linecap: round"/>
   </g>
   <g id="patch_6">
    <path d="M 191.648097 122.292 
L 191.648097 22.848 
" style="fill: none; stroke: #ffffff; stroke-width: 1.25; stroke-linejoin: miter; stroke-linecap: square"/>
   </g>
   <g id="patch_7">
    <path d="M 191.648097 122.292 
L 323.02258 122.292 
" style="fill: none; stroke: #ffffff; stroke-width: 1.25; stroke-linejoin: miter; stroke-linecap: square"/>
   </g>
   <g id="text_15">
    <!-- Coastal -->
    <g style="fill: #262626" transform="translate(241.061088 16.848) scale(0.096 -0.096)">
     <defs>
      <path id="ArialMT-43" d="M 3763 1606 
L 4369 1453 
Q 4178 706 3683 314 
Q 3188 -78 2472 -78 
Q 1731 -78 1267 223 
Q 803 525 561 1097 
Q 319 1669 319 2325 
Q 319 3041 592 3573 
Q 866 4106 1370 4382 
Q 1875 4659 2481 4659 
Q 3169 4659 3637 4309 
Q 4106 3959 4291 3325 
L 3694 3184 
Q 3534 3684 3231 3912 
Q 2928 4141 2469 4141 
Q 1941 4141 1586 3887 
Q 1231 3634 1087 3207 
Q 944 2781 944 2328 
Q 944 1744 1114 1308 
Q 1284 872 1643 656 
Q 2003 441 2422 441 
Q 2931 441 3284 734 
Q 3638 1028 3763 1606 
z
" transform="scale(0.015625)"/>
     </defs>
     <use xlink:href="#ArialMT-43"/>
     <use xlink:href="#ArialMT-6f" x="72.216797"/>
     <use xlink:href="#ArialMT-61" x="127.832031"/>
     <use xlink:href="#ArialMT-73" x="183.447266"/>
     <use xlink:href="#ArialMT-74" x="233.447266"/>
     <use xlink:href="#ArialMT-61" x="261.230469"/>
     <use xlink:href="#ArialMT-6c" x="316.845703"/>
    </g>
   </g>
  </g>
  <g id="axes_3">
   <g id="patch_8">
    <path d="M 332.996717 122.292 
L 464.3712 122.292 
L 464.3712 22.848 
L 332.996717 22.848 
z
" style="fill: #eaeaf2"/>
   </g>
   <g id="matplotlib.axis_5">
    <g id="xtick_5">
     <g id="line2d_24">
      <path d="M 382.118695 122.292 
L 382.118695 22.848 
" clip-path="url(#pcb01cce935)" style="fill: none; stroke: #ffffff; stroke-linecap: round"/>
     </g>
     <g id="text_16">
      <!-- 50 -->
      <g style="fill: #262626" transform="translate(377.22507 138.090875) scale(0.088 -0.088)">
       <use xlink:href="#ArialMT-35"/>
       <use xlink:href="#ArialMT-30" x="55.615234"/>
      </g>
     </g>
    </g>
    <g id="xtick_6">
     <g id="line2d_25">
      <path d="M 442.831764 122.292 
L 442.831764 22.848 
" clip-path="url(#pcb01cce935)" style="fill: none; stroke: #ffffff; stroke-linecap: round"/>
     </g>
     <g id="text_17">
      <!-- 100 -->
      <g style="fill: #262626" transform="translate(435.491327 138.090875) scale(0.088 -0.088)">
       <use xlink:href="#ArialMT-31"/>
       <use xlink:href="#ArialMT-30" x="55.615234"/>
       <use xlink:href="#ArialMT-30" x="111.230469"/>
      </g>
     </g>
    </g>
    <g id="text_18">
     <!-- RTT (ms) -->
     <g style="fill: #262626" transform="translate(378.593709 150.828375) scale(0.096 -0.096)">
      <use xlink:href="#ArialMT-52"/>
      <use xlink:href="#ArialMT-54" x="70.466797"/>
      <use xlink:href="#ArialMT-54" x="131.550781"/>
      <use xlink:href="#ArialMT-20" x="190.884766"/>
      <use xlink:href="#ArialMT-28" x="218.667969"/>
      <use xlink:href="#ArialMT-6d" x="251.96875"/>
      <use xlink:href="#ArialMT-73" x="335.269531"/>
      <use xlink:href="#ArialMT-29" x="385.269531"/>
     </g>
    </g>
   </g>
   <g id="matplotlib.axis_6">
    <g id="ytick_13">
     <g id="line2d_26">
      <path d="M 332.996717 122.292 
L 464.3712 122.292 
" clip-path="url(#pcb01cce935)" style="fill: none; stroke: #ffffff; stroke-linecap: round"/>
     </g>
    </g>
    <g id="ytick_14">
     <g id="line2d_27">
      <path d="M 332.996717 102.4032 
L 464.3712 102.4032 
" clip-path="url(#pcb01cce935)" style="fill: none; stroke: #ffffff; stroke-linecap: round"/>
     </g>
    </g>
    <g id="ytick_15">
     <g id="line2d_28">
      <path d="M 332.996717 82.5144 
L 464.3712 82.5144 
" clip-path="url(#pcb01cce935)" style="fill: none; stroke: #ffffff; stroke-linecap: round"/>
     </g>
    </g>
    <g id="ytick_16">
     <g id="line2d_29">
      <path d="M 332.996717 62.6256 
L 464.3712 62.6256 
" clip-path="url(#pcb01cce935)" style="fill: none; stroke: #ffffff; stroke-linecap: round"/>
     </g>
    </g>
    <g id="ytick_17">
     <g id="line2d_30">
      <path d="M 332.996717 42.7368 
L 464.3712 42.7368 
" clip-path="url(#pcb01cce935)" style="fill: none; stroke: #ffffff; stroke-linecap: round"/>
     </g>
    </g>
    <g id="ytick_18">
     <g id="line2d_31">
      <path d="M 332.996717 22.848 
L 464.3712 22.848 
" clip-path="url(#pcb01cce935)" style="fill: none; stroke: #ffffff; stroke-linecap: round"/>
     </g>
    </g>
   </g>
   <g id="line2d_32">
    <path d="M 433.065164 122.292 
L 433.154794 115.735253 
L 433.260738 115.735253 
L 433.260738 115.625974 
L 433.326902 113.54967 
L 433.400015 113.54967 
L 433.400015 113.440391 
L 433.449902 101.528967 
L 436.207169 101.528967 
L 436.207169 101.419688 
L 436.265959 88.415473 
L 437.086312 88.415473 
L 437.086312 88.306193 
L 437.150206 84.044308 
L 438.76802 84.044308 
L 438.76802 83.935029 
L 438.852444 73.116396 
L 438.887731 73.116396 
L 438.887731 73.007116 
L 438.891316 70.930813 
L 439.168469 70.930813 
L 439.168469 70.821534 
L 439.22259 57.817319 
L 439.986682 57.817319 
L 439.986682 57.70804 
L 440.087735 47.982198 
L 440.140068 47.982198 
L 440.140068 47.872919 
L 440.213106 43.611033 
L 440.283448 43.611033 
L 440.283448 43.501754 
L 440.290553 41.425451 
L 452.601848 41.425451 
L 452.601848 41.316171 
L 452.665964 34.868703 
L 452.755131 34.868703 
L 452.755131 34.759424 
L 452.849875 31.59033 
L 452.909332 31.59033 
L 452.909332 31.481051 
L 452.987548 27.219165 
L 453.059475 27.219165 
L 453.059475 27.109886 
L 453.066626 25.033582 
L 458.171236 25.033582 
L 458.171236 24.924303 
L 458.171866 22.848 
L 458.171866 22.848 
" clip-path="url(#pcb01cce935)" style="fill: none; stroke: #1ac938; stroke-width: 1.5; stroke-linecap: round"/>
   </g>
   <g id="line2d_33">
    <path d="M 433.403757 122.292 
L 433.504513 94.279606 
L 433.541199 94.279606 
L 433.541199 94.209575 
L 433.592161 88.677127 
L 435.001876 88.677127 
L 435.001876 88.607096 
L 435.066002 78.872789 
L 450.604345 78.872789 
L 450.604345 78.802758 
L 450.704045 67.667831 
L 450.73773 67.667831 
L 450.73773 67.5978 
L 450.740814 64.866592 
L 452.37573 64.866592 
L 452.37573 64.796561 
L 452.468806 36.854197 
L 452.50527 36.854197 
L 452.50527 36.784166 
L 452.556379 31.251718 
L 458.308687 31.251718 
L 458.308687 31.181687 
L 458.399633 22.848 
L 458.399633 22.848 
" clip-path="url(#pcb01cce935)" style="fill: none; stroke: #e8000b; stroke-width: 1.5; stroke-linecap: round"/>
   </g>
   <g id="patch_9">
    <path d="M 332.996717 122.292 
L 332.996717 22.848 
" style="fill: none; stroke: #ffffff; stroke-width: 1.25; stroke-linejoin: miter; stroke-linecap: square"/>
   </g>
   <g id="patch_10">
    <path d="M 332.996717 122.292 
L 464.3712 122.292 
" style="fill: none; stroke: #ffffff; stroke-width: 1.25; stroke-linejoin: miter; stroke-linecap: square"/>
   </g>
   <g id="text_19">
    <!-- Insular -->
    <g style="fill: #262626" transform="translate(384.277959 16.848) scale(0.096 -0.096)">
     <defs>
      <path id="ArialMT-49" d="M 597 0 
L 597 4581 
L 1203 4581 
L 1203 0 
L 597 0 
z
" transform="scale(0.015625)"/>
      <path id="ArialMT-75" d="M 2597 0 
L 2597 488 
Q 2209 -75 1544 -75 
Q 1250 -75 995 37 
Q 741 150 617 320 
Q 494 491 444 738 
Q 409 903 409 1263 
L 409 3319 
L 972 3319 
L 972 1478 
Q 972 1038 1006 884 
Q 1059 663 1231 536 
Q 1403 409 1656 409 
Q 1909 409 2131 539 
Q 2353 669 2445 892 
Q 2538 1116 2538 1541 
L 2538 3319 
L 3100 3319 
L 3100 0 
L 2597 0 
z
" transform="scale(0.015625)"/>
     </defs>
     <use xlink:href="#ArialMT-49"/>
     <use xlink:href="#ArialMT-6e" x="27.783203"/>
     <use xlink:href="#ArialMT-73" x="83.398438"/>
     <use xlink:href="#ArialMT-75" x="133.398438"/>
     <use xlink:href="#ArialMT-6c" x="189.013672"/>
     <use xlink:href="#ArialMT-61" x="211.230469"/>
     <use xlink:href="#ArialMT-72" x="266.845703"/>
    </g>
   </g>
  </g>
  <g id="legend_1">
   <g id="text_20">
    <!-- Direction -->
    <g style="fill: #262626" transform="translate(490.04325 58.586) scale(0.096 -0.096)">
     <defs>
      <path id="ArialMT-44" d="M 494 0 
L 494 4581 
L 2072 4581 
Q 2606 4581 2888 4516 
Q 3281 4425 3559 4188 
Q 3922 3881 4101 3404 
Q 4281 2928 4281 2316 
Q 4281 1794 4159 1391 
Q 4038 988 3847 723 
Q 3656 459 3429 307 
Q 3203 156 2883 78 
Q 2563 0 2147 0 
L 494 0 
z
M 1100 541 
L 2078 541 
Q 2531 541 2789 625 
Q 3047 709 3200 863 
Q 3416 1078 3536 1442 
Q 3656 1806 3656 2325 
Q 3656 3044 3420 3430 
Q 3184 3816 2847 3947 
Q 2603 4041 2063 4041 
L 1100 4041 
L 1100 541 
z
" transform="scale(0.015625)"/>
     </defs>
     <use xlink:href="#ArialMT-44"/>
     <use xlink:href="#ArialMT-69" x="72.216797"/>
     <use xlink:href="#ArialMT-72" x="94.433594"/>
     <use xlink:href="#ArialMT-65" x="127.734375"/>
     <use xlink:href="#ArialMT-63" x="183.349609"/>
     <use xlink:href="#ArialMT-74" x="233.349609"/>
     <use xlink:href="#ArialMT-69" x="261.132812"/>
     <use xlink:href="#ArialMT-6f" x="283.349609"/>
     <use xlink:href="#ArialMT-6e" x="338.964844"/>
    </g>
   </g>
   <g id="line2d_34">
    <path d="M 485.1645 68.112875 
L 493.9645 68.112875 
L 493.9645 68.112875 
L 502.7645 68.112875 
L 502.7645 68.112875 
" style="fill: none; stroke: #023eff; stroke-width: 1.5; stroke-linecap: round"/>
   </g>
   <g id="text_21">
    <!-- East -->
    <g style="fill: #262626" transform="translate(509.8045 71.192875) scale(0.088 -0.088)">
     <defs>
      <path id="ArialMT-45" d="M 506 0 
L 506 4581 
L 3819 4581 
L 3819 4041 
L 1113 4041 
L 1113 2638 
L 3647 2638 
L 3647 2100 
L 1113 2100 
L 1113 541 
L 3925 541 
L 3925 0 
L 506 0 
z
" transform="scale(0.015625)"/>
     </defs>
     <use xlink:href="#ArialMT-45"/>
     <use xlink:href="#ArialMT-61" x="66.699219"/>
     <use xlink:href="#ArialMT-73" x="122.314453"/>
     <use xlink:href="#ArialMT-74" x="172.314453"/>
    </g>
   </g>
   <g id="line2d_35">
    <path d="M 485.1645 80.56075 
L 493.9645 80.56075 
L 493.9645 80.56075 
L 502.7645 80.56075 
L 502.7645 80.56075 
" style="fill: none; stroke: #ff7c00; stroke-width: 1.5; stroke-linecap: round"/>
   </g>
   <g id="text_22">
    <!-- West -->
    <g style="fill: #262626" transform="translate(509.8045 83.64075) scale(0.088 -0.088)">
     <defs>
      <path id="ArialMT-57" d="M 1294 0 
L 78 4581 
L 700 4581 
L 1397 1578 
Q 1509 1106 1591 641 
Q 1766 1375 1797 1488 
L 2669 4581 
L 3400 4581 
L 4056 2263 
Q 4303 1400 4413 641 
Q 4500 1075 4641 1638 
L 5359 4581 
L 5969 4581 
L 4713 0 
L 4128 0 
L 3163 3491 
Q 3041 3928 3019 4028 
Q 2947 3713 2884 3491 
L 1913 0 
L 1294 0 
z
" transform="scale(0.015625)"/>
     </defs>
     <use xlink:href="#ArialMT-57"/>
     <use xlink:href="#ArialMT-65" x="92.634766"/>
     <use xlink:href="#ArialMT-73" x="148.25"/>
     <use xlink:href="#ArialMT-74" x="198.25"/>
    </g>
   </g>
   <g id="line2d_36">
    <path d="M 485.1645 93.008625 
L 493.9645 93.008625 
L 493.9645 93.008625 
L 502.7645 93.008625 
L 502.7645 93.008625 
" style="fill: none; stroke: #1ac938; stroke-width: 1.5; stroke-linecap: round"/>
   </g>
   <g id="text_23">
    <!-- North -->
    <g style="fill: #262626" transform="translate(509.8045 96.088625) scale(0.088 -0.088)">
     <defs>
      <path id="ArialMT-4e" d="M 488 0 
L 488 4581 
L 1109 4581 
L 3516 984 
L 3516 4581 
L 4097 4581 
L 4097 0 
L 3475 0 
L 1069 3600 
L 1069 0 
L 488 0 
z
" transform="scale(0.015625)"/>
      <path id="ArialMT-68" d="M 422 0 
L 422 4581 
L 984 4581 
L 984 2938 
Q 1378 3394 1978 3394 
Q 2347 3394 2619 3248 
Q 2891 3103 3008 2847 
Q 3125 2591 3125 2103 
L 3125 0 
L 2563 0 
L 2563 2103 
Q 2563 2525 2380 2717 
Q 2197 2909 1863 2909 
Q 1613 2909 1392 2779 
Q 1172 2650 1078 2428 
Q 984 2206 984 1816 
L 984 0 
L 422 0 
z
" transform="scale(0.015625)"/>
     </defs>
     <use xlink:href="#ArialMT-4e"/>
     <use xlink:href="#ArialMT-6f" x="72.216797"/>
     <use xlink:href="#ArialMT-72" x="127.832031"/>
     <use xlink:href="#ArialMT-74" x="161.132812"/>
     <use xlink:href="#ArialMT-68" x="188.916016"/>
    </g>
   </g>
   <g id="line2d_37">
    <path d="M 485.1645 105.4565 
L 493.9645 105.4565 
L 493.9645 105.4565 
L 502.7645 105.4565 
L 502.7645 105.4565 
" style="fill: none; stroke: #e8000b; stroke-width: 1.5; stroke-linecap: round"/>
   </g>
   <g id="text_24">
    <!-- South -->
    <g style="fill: #262626" transform="translate(509.8045 108.5365) scale(0.088 -0.088)">
     <defs>
      <path id="ArialMT-53" d="M 288 1472 
L 859 1522 
Q 900 1178 1048 958 
Q 1197 738 1509 602 
Q 1822 466 2213 466 
Q 2559 466 2825 569 
Q 3091 672 3220 851 
Q 3350 1031 3350 1244 
Q 3350 1459 3225 1620 
Q 3100 1781 2813 1891 
Q 2628 1963 1997 2114 
Q 1366 2266 1113 2400 
Q 784 2572 623 2826 
Q 463 3081 463 3397 
Q 463 3744 659 4045 
Q 856 4347 1234 4503 
Q 1613 4659 2075 4659 
Q 2584 4659 2973 4495 
Q 3363 4331 3572 4012 
Q 3781 3694 3797 3291 
L 3216 3247 
Q 3169 3681 2898 3903 
Q 2628 4125 2100 4125 
Q 1550 4125 1298 3923 
Q 1047 3722 1047 3438 
Q 1047 3191 1225 3031 
Q 1400 2872 2139 2705 
Q 2878 2538 3153 2413 
Q 3553 2228 3743 1945 
Q 3934 1663 3934 1294 
Q 3934 928 3725 604 
Q 3516 281 3123 101 
Q 2731 -78 2241 -78 
Q 1619 -78 1198 103 
Q 778 284 539 648 
Q 300 1013 288 1472 
z
" transform="scale(0.015625)"/>
     </defs>
     <use xlink:href="#ArialMT-53"/>
     <use xlink:href="#ArialMT-6f" x="66.699219"/>
     <use xlink:href="#ArialMT-75" x="122.314453"/>
     <use xlink:href="#ArialMT-74" x="177.929688"/>
     <use xlink:href="#ArialMT-68" x="205.712891"/>
    </g>
   </g>
  </g>
 </g>
 <defs>
  <clipPath id="pff44316d07">
   <rect x="50.299477" y="22.848" width="131.374483" height="99.444"/>
  </clipPath>
  <clipPath id="p983926353e">
   <rect x="191.648097" y="22.848" width="131.374483" height="99.444"/>
  </clipPath>
  <clipPath id="pcb01cce935">
   <rect x="332.996717" y="22.848" width="131.374483" height="99.444"/>
  </clipPath>
 </defs>
</svg>
