<?xml version="1.0" encoding="utf-8" standalone="no"?>
<!DOCTYPE svg PUBLIC "-//W3C//DTD SVG 1.1//EN"
  "http://www.w3.org/Graphics/SVG/1.1/DTD/svg11.dtd">
<svg xmlns:xlink="http://www.w3.org/1999/xlink" width="540.72pt" height="162pt" viewBox="0 0 540.72 162" xmlns="http://www.w3.org/2000/svg" version="1.1">
 <metadata>
  <rdf:RDF xmlns:dc="http://purl.org/dc/elements/1.1/" xmlns:cc="http://creativecommons.org/ns#" xmlns:rdf="http://www.w3.org/1999/02/22-rdf-syntax-ns#">
   <cc:Work>
    <dc:type rdf:resource="http://purl.org/dc/dcmitype/StillImage"/>
    <dc:date>2024-08-26T15:08:13.589654</dc:date>
    <dc:format>image/svg+xml</dc:format>
    <dc:creator>
     <cc:Agent>
      <dc:title>Matplotlib v3.9.0, https://matplotlib.org/</dc:title>
     </cc:Agent>
    </dc:creator>
   </cc:Work>
  </rdf:RDF>
 </metadata>
 <defs>
  <style type="text/css">*{stroke-linejoin: round; stroke-linecap: butt}</style>
 </defs>
 <g id="figure_1">
  <g id="patch_1">
   <path d="M 0 162 
L 540.72 162 
L 540.72 0 
L 0 0 
z
" style="fill: #ffffff"/>
  </g>
  <g id="axes_1">
   <g id="patch_2">
    <path d="M 52.69016 122.292 
L 183.27297 122.292 
L 183.27297 22.848 
L 52.69016 22.848 
z
" style="fill: #eaeaf2"/>
   </g>
   <g id="matplotlib.axis_1">
    <g id="xtick_1">
     <g id="line2d_1">
      <path d="M 56.203056 122.292 
L 56.203056 22.848 
" clip-path="url(#pf47b146bac)" style="fill: none; stroke: #ffffff; stroke-linecap: round"/>
     </g>
     <g id="text_1">
      <!-- 0 -->
      <g style="fill: #262626" transform="translate(53.756243 138.090875) scale(0.088 -0.088)">
       <defs>
        <path id="ArialMT-30" d="M 266 2259 
Q 266 3072 433 3567 
Q 600 4063 929 4331 
Q 1259 4600 1759 4600 
Q 2128 4600 2406 4451 
Q 2684 4303 2865 4023 
Q 3047 3744 3150 3342 
Q 3253 2941 3253 2259 
Q 3253 1453 3087 958 
Q 2922 463 2592 192 
Q 2263 -78 1759 -78 
Q 1097 -78 719 397 
Q 266 969 266 2259 
z
M 844 2259 
Q 844 1131 1108 757 
Q 1372 384 1759 384 
Q 2147 384 2411 759 
Q 2675 1134 2675 2259 
Q 2675 3391 2411 3762 
Q 2147 4134 1753 4134 
Q 1366 4134 1134 3806 
Q 844 3388 844 2259 
z
" transform="scale(0.015625)"/>
       </defs>
       <use xlink:href="#ArialMT-30"/>
      </g>
     </g>
    </g>
    <g id="xtick_2">
     <g id="line2d_2">
      <path d="M 104.656789 122.292 
L 104.656789 22.848 
" clip-path="url(#pf47b146bac)" style="fill: none; stroke: #ffffff; stroke-linecap: round"/>
     </g>
     <g id="text_2">
      <!-- 20 -->
      <g style="fill: #262626" transform="translate(99.763164 138.090875) scale(0.088 -0.088)">
       <defs>
        <path id="ArialMT-32" d="M 3222 541 
L 3222 0 
L 194 0 
Q 188 203 259 391 
Q 375 700 629 1000 
Q 884 1300 1366 1694 
Q 2113 2306 2375 2664 
Q 2638 3022 2638 3341 
Q 2638 3675 2398 3904 
Q 2159 4134 1775 4134 
Q 1369 4134 1125 3890 
Q 881 3647 878 3216 
L 300 3275 
Q 359 3922 746 4261 
Q 1134 4600 1788 4600 
Q 2447 4600 2831 4234 
Q 3216 3869 3216 3328 
Q 3216 3053 3103 2787 
Q 2991 2522 2730 2228 
Q 2469 1934 1863 1422 
Q 1356 997 1212 845 
Q 1069 694 975 541 
L 3222 541 
z
" transform="scale(0.015625)"/>
       </defs>
       <use xlink:href="#ArialMT-32"/>
       <use xlink:href="#ArialMT-30" x="55.615234"/>
      </g>
     </g>
    </g>
    <g id="xtick_3">
     <g id="line2d_3">
      <path d="M 153.110522 122.292 
L 153.110522 22.848 
" clip-path="url(#pf47b146bac)" style="fill: none; stroke: #ffffff; stroke-linecap: round"/>
     </g>
     <g id="text_3">
      <!-- 40 -->
      <g style="fill: #262626" transform="translate(148.216897 138.090875) scale(0.088 -0.088)">
       <defs>
        <path id="ArialMT-34" d="M 2069 0 
L 2069 1097 
L 81 1097 
L 81 1613 
L 2172 4581 
L 2631 4581 
L 2631 1613 
L 3250 1613 
L 3250 1097 
L 2631 1097 
L 2631 0 
L 2069 0 
z
M 2069 1613 
L 2069 3678 
L 634 1613 
L 2069 1613 
z
" transform="scale(0.015625)"/>
       </defs>
       <use xlink:href="#ArialMT-34"/>
       <use xlink:href="#ArialMT-30" x="55.615234"/>
      </g>
     </g>
    </g>
    <g id="text_4">
     <!-- Frame -->
     <g style="fill: #262626" transform="translate(104.114815 150.711375) scale(0.096 -0.096)">
      <defs>
       <path id="ArialMT-46" d="M 525 0 
L 525 4581 
L 3616 4581 
L 3616 4041 
L 1131 4041 
L 1131 2622 
L 3281 2622 
L 3281 2081 
L 1131 2081 
L 1131 0 
L 525 0 
z
" transform="scale(0.015625)"/>
       <path id="ArialMT-72" d="M 416 0 
L 416 3319 
L 922 3319 
L 922 2816 
Q 1116 3169 1280 3281 
Q 1444 3394 1641 3394 
Q 1925 3394 2219 3213 
L 2025 2691 
Q 1819 2813 1613 2813 
Q 1428 2813 1281 2702 
Q 1134 2591 1072 2394 
Q 978 2094 978 1738 
L 978 0 
L 416 0 
z
" transform="scale(0.015625)"/>
       <path id="ArialMT-61" d="M 2588 409 
Q 2275 144 1986 34 
Q 1697 -75 1366 -75 
Q 819 -75 525 192 
Q 231 459 231 875 
Q 231 1119 342 1320 
Q 453 1522 633 1644 
Q 813 1766 1038 1828 
Q 1203 1872 1538 1913 
Q 2219 1994 2541 2106 
Q 2544 2222 2544 2253 
Q 2544 2597 2384 2738 
Q 2169 2928 1744 2928 
Q 1347 2928 1158 2789 
Q 969 2650 878 2297 
L 328 2372 
Q 403 2725 575 2942 
Q 747 3159 1072 3276 
Q 1397 3394 1825 3394 
Q 2250 3394 2515 3294 
Q 2781 3194 2906 3042 
Q 3031 2891 3081 2659 
Q 3109 2516 3109 2141 
L 3109 1391 
Q 3109 606 3145 398 
Q 3181 191 3288 0 
L 2700 0 
Q 2613 175 2588 409 
z
M 2541 1666 
Q 2234 1541 1622 1453 
Q 1275 1403 1131 1340 
Q 988 1278 909 1158 
Q 831 1038 831 891 
Q 831 666 1001 516 
Q 1172 366 1500 366 
Q 1825 366 2078 508 
Q 2331 650 2450 897 
Q 2541 1088 2541 1459 
L 2541 1666 
z
" transform="scale(0.015625)"/>
       <path id="ArialMT-6d" d="M 422 0 
L 422 3319 
L 925 3319 
L 925 2853 
Q 1081 3097 1340 3245 
Q 1600 3394 1931 3394 
Q 2300 3394 2536 3241 
Q 2772 3088 2869 2813 
Q 3263 3394 3894 3394 
Q 4388 3394 4653 3120 
Q 4919 2847 4919 2278 
L 4919 0 
L 4359 0 
L 4359 2091 
Q 4359 2428 4304 2576 
Q 4250 2725 4106 2815 
Q 3963 2906 3769 2906 
Q 3419 2906 3187 2673 
Q 2956 2441 2956 1928 
L 2956 0 
L 2394 0 
L 2394 2156 
Q 2394 2531 2256 2718 
Q 2119 2906 1806 2906 
Q 1569 2906 1367 2781 
Q 1166 2656 1075 2415 
Q 984 2175 984 1722 
L 984 0 
L 422 0 
z
" transform="scale(0.015625)"/>
       <path id="ArialMT-65" d="M 2694 1069 
L 3275 997 
Q 3138 488 2766 206 
Q 2394 -75 1816 -75 
Q 1088 -75 661 373 
Q 234 822 234 1631 
Q 234 2469 665 2931 
Q 1097 3394 1784 3394 
Q 2450 3394 2872 2941 
Q 3294 2488 3294 1666 
Q 3294 1616 3291 1516 
L 816 1516 
Q 847 969 1125 678 
Q 1403 388 1819 388 
Q 2128 388 2347 550 
Q 2566 713 2694 1069 
z
M 847 1978 
L 2700 1978 
Q 2663 2397 2488 2606 
Q 2219 2931 1791 2931 
Q 1403 2931 1139 2672 
Q 875 2413 847 1978 
z
" transform="scale(0.015625)"/>
      </defs>
      <use xlink:href="#ArialMT-46"/>
      <use xlink:href="#ArialMT-72" x="61.083984"/>
      <use xlink:href="#ArialMT-61" x="94.384766"/>
      <use xlink:href="#ArialMT-6d" x="150"/>
      <use xlink:href="#ArialMT-65" x="233.300781"/>
     </g>
    </g>
   </g>
   <g id="matplotlib.axis_2">
    <g id="ytick_1">
     <g id="line2d_4">
      <path d="M 52.69016 111.848783 
L 183.27297 111.848783 
" clip-path="url(#pf47b146bac)" style="fill: none; stroke: #ffffff; stroke-linecap: round"/>
     </g>
     <g id="text_5">
      <!-- 25 -->
      <g style="fill: #262626" transform="translate(33.40291 114.99822) scale(0.088 -0.088)">
       <defs>
        <path id="ArialMT-35" d="M 266 1200 
L 856 1250 
Q 922 819 1161 601 
Q 1400 384 1738 384 
Q 2144 384 2425 690 
Q 2706 997 2706 1503 
Q 2706 1984 2436 2262 
Q 2166 2541 1728 2541 
Q 1456 2541 1237 2417 
Q 1019 2294 894 2097 
L 366 2166 
L 809 4519 
L 3088 4519 
L 3088 3981 
L 1259 3981 
L 1013 2750 
Q 1425 3038 1878 3038 
Q 2478 3038 2890 2622 
Q 3303 2206 3303 1553 
Q 3303 931 2941 478 
Q 2500 -78 1738 -78 
Q 1113 -78 717 272 
Q 322 622 266 1200 
z
" transform="scale(0.015625)"/>
       </defs>
       <use xlink:href="#ArialMT-32"/>
       <use xlink:href="#ArialMT-35" x="55.615234"/>
      </g>
     </g>
    </g>
    <g id="ytick_2">
     <g id="line2d_5">
      <path d="M 52.69016 87.799654 
L 183.27297 87.799654 
" clip-path="url(#pf47b146bac)" style="fill: none; stroke: #ffffff; stroke-linecap: round"/>
     </g>
     <g id="text_6">
      <!-- 50 -->
      <g style="fill: #262626" transform="translate(33.40291 90.949092) scale(0.088 -0.088)">
       <use xlink:href="#ArialMT-35"/>
       <use xlink:href="#ArialMT-30" x="55.615234"/>
      </g>
     </g>
    </g>
    <g id="ytick_3">
     <g id="line2d_6">
      <path d="M 52.69016 63.750525 
L 183.27297 63.750525 
" clip-path="url(#pf47b146bac)" style="fill: none; stroke: #ffffff; stroke-linecap: round"/>
     </g>
     <g id="text_7">
      <!-- 75 -->
      <g style="fill: #262626" transform="translate(33.40291 66.899963) scale(0.088 -0.088)">
       <defs>
        <path id="ArialMT-37" d="M 303 3981 
L 303 4522 
L 3269 4522 
L 3269 4084 
Q 2831 3619 2401 2847 
Q 1972 2075 1738 1259 
Q 1569 684 1522 0 
L 944 0 
Q 953 541 1156 1306 
Q 1359 2072 1739 2783 
Q 2119 3494 2547 3981 
L 303 3981 
z
" transform="scale(0.015625)"/>
       </defs>
       <use xlink:href="#ArialMT-37"/>
       <use xlink:href="#ArialMT-35" x="55.615234"/>
      </g>
     </g>
    </g>
    <g id="ytick_4">
     <g id="line2d_7">
      <path d="M 52.69016 39.701397 
L 183.27297 39.701397 
" clip-path="url(#pf47b146bac)" style="fill: none; stroke: #ffffff; stroke-linecap: round"/>
     </g>
     <g id="text_8">
      <!-- 100 -->
      <g style="fill: #262626" transform="translate(28.509285 42.850834) scale(0.088 -0.088)">
       <defs>
        <path id="ArialMT-31" d="M 2384 0 
L 1822 0 
L 1822 3584 
Q 1619 3391 1289 3197 
Q 959 3003 697 2906 
L 697 3450 
Q 1169 3672 1522 3987 
Q 1875 4303 2022 4600 
L 2384 4600 
L 2384 0 
z
" transform="scale(0.015625)"/>
       </defs>
       <use xlink:href="#ArialMT-31"/>
       <use xlink:href="#ArialMT-30" x="55.615234"/>
       <use xlink:href="#ArialMT-30" x="111.230469"/>
      </g>
     </g>
    </g>
    <g id="text_9">
     <!-- RTT (ms) -->
     <g style="fill: #262626" transform="translate(22.488785 92.66025) rotate(-90) scale(0.096 -0.096)">
      <defs>
       <path id="ArialMT-52" d="M 503 0 
L 503 4581 
L 2534 4581 
Q 3147 4581 3465 4457 
Q 3784 4334 3975 4021 
Q 4166 3709 4166 3331 
Q 4166 2844 3850 2509 
Q 3534 2175 2875 2084 
Q 3116 1969 3241 1856 
Q 3506 1613 3744 1247 
L 4541 0 
L 3778 0 
L 3172 953 
Q 2906 1366 2734 1584 
Q 2563 1803 2427 1890 
Q 2291 1978 2150 2013 
Q 2047 2034 1813 2034 
L 1109 2034 
L 1109 0 
L 503 0 
z
M 1109 2559 
L 2413 2559 
Q 2828 2559 3062 2645 
Q 3297 2731 3419 2920 
Q 3541 3109 3541 3331 
Q 3541 3656 3305 3865 
Q 3069 4075 2559 4075 
L 1109 4075 
L 1109 2559 
z
" transform="scale(0.015625)"/>
       <path id="ArialMT-54" d="M 1659 0 
L 1659 4041 
L 150 4041 
L 150 4581 
L 3781 4581 
L 3781 4041 
L 2266 4041 
L 2266 0 
L 1659 0 
z
" transform="scale(0.015625)"/>
       <path id="ArialMT-20" transform="scale(0.015625)"/>
       <path id="ArialMT-28" d="M 1497 -1347 
Q 1031 -759 709 28 
Q 388 816 388 1659 
Q 388 2403 628 3084 
Q 909 3875 1497 4659 
L 1900 4659 
Q 1522 4009 1400 3731 
Q 1209 3300 1100 2831 
Q 966 2247 966 1656 
Q 966 153 1900 -1347 
L 1497 -1347 
z
" transform="scale(0.015625)"/>
       <path id="ArialMT-73" d="M 197 991 
L 753 1078 
Q 800 744 1014 566 
Q 1228 388 1613 388 
Q 2000 388 2187 545 
Q 2375 703 2375 916 
Q 2375 1106 2209 1216 
Q 2094 1291 1634 1406 
Q 1016 1563 777 1677 
Q 538 1791 414 1992 
Q 291 2194 291 2438 
Q 291 2659 392 2848 
Q 494 3038 669 3163 
Q 800 3259 1026 3326 
Q 1253 3394 1513 3394 
Q 1903 3394 2198 3281 
Q 2494 3169 2634 2976 
Q 2775 2784 2828 2463 
L 2278 2388 
Q 2241 2644 2061 2787 
Q 1881 2931 1553 2931 
Q 1166 2931 1000 2803 
Q 834 2675 834 2503 
Q 834 2394 903 2306 
Q 972 2216 1119 2156 
Q 1203 2125 1616 2013 
Q 2213 1853 2448 1751 
Q 2684 1650 2818 1456 
Q 2953 1263 2953 975 
Q 2953 694 2789 445 
Q 2625 197 2315 61 
Q 2006 -75 1616 -75 
Q 969 -75 630 194 
Q 291 463 197 991 
z
" transform="scale(0.015625)"/>
       <path id="ArialMT-29" d="M 791 -1347 
L 388 -1347 
Q 1322 153 1322 1656 
Q 1322 2244 1188 2822 
Q 1081 3291 891 3722 
Q 769 4003 388 4659 
L 791 4659 
Q 1378 3875 1659 3084 
Q 1900 2403 1900 1659 
Q 1900 816 1576 28 
Q 1253 -759 791 -1347 
z
" transform="scale(0.015625)"/>
      </defs>
      <use xlink:href="#ArialMT-52"/>
      <use xlink:href="#ArialMT-54" x="70.466797"/>
      <use xlink:href="#ArialMT-54" x="131.550781"/>
      <use xlink:href="#ArialMT-20" x="190.884766"/>
      <use xlink:href="#ArialMT-28" x="218.667969"/>
      <use xlink:href="#ArialMT-6d" x="251.96875"/>
      <use xlink:href="#ArialMT-73" x="335.269531"/>
      <use xlink:href="#ArialMT-29" x="385.269531"/>
     </g>
    </g>
   </g>
   <g id="PolyCollection_1">
    <defs>
     <path id="m398fe28a84" d="M 58.625742 -52.046147 
L 58.625742 -50.386229 
L 61.048429 -51.459716 
L 63.471116 -51.57985 
L 65.893802 -51.864102 
L 68.316489 -52.148808 
L 70.739176 -49.185065 
L 73.161862 -49.080482 
L 75.584549 -49.159448 
L 78.007235 -48.362371 
L 80.429922 -48.245888 
L 82.852609 -48.30996 
L 85.275295 -44.659963 
L 87.697982 -45.485594 
L 90.120669 -45.519181 
L 92.543355 -45.5371 
L 94.966042 -45.5592 
L 97.388729 -45.586562 
L 99.811415 -44.548882 
L 102.234102 -44.943506 
L 104.656789 -44.237796 
L 107.079475 -44.305184 
L 109.502162 -44.305104 
L 111.924849 -44.335891 
L 114.347535 -44.540009 
L 116.770222 -45.704259 
L 119.192909 -48.225914 
L 121.615595 -48.259632 
L 124.038282 -50.432449 
L 126.460968 -51.452053 
L 128.883655 -51.604389 
L 131.306342 -52.107482 
L 133.729028 -49.193238 
L 136.151715 -49.294923 
L 138.574402 -49.118095 
L 140.997088 -48.91901 
L 143.419775 -48.414239 
L 145.842462 -48.334441 
L 148.265148 -44.677782 
L 150.687835 -45.491403 
L 153.110522 -45.390397 
L 155.533208 -45.534993 
L 157.955895 -45.554978 
L 160.378582 -45.586249 
L 162.801268 -44.524886 
L 165.223955 -44.93998 
L 167.646642 -44.228182 
L 170.069328 -44.313699 
L 172.492015 -44.285026 
L 174.914702 -44.263577 
L 177.337388 -44.399536 
L 177.337388 -45.651656 
L 177.337388 -45.651656 
L 174.914702 -45.545823 
L 172.492015 -45.507738 
L 170.069328 -45.51773 
L 167.646642 -45.426823 
L 165.223955 -46.23009 
L 162.801268 -46.089763 
L 160.378582 -45.652646 
L 157.955895 -45.630321 
L 155.533208 -45.608023 
L 153.110522 -45.629474 
L 150.687835 -46.351298 
L 148.265148 -46.004501 
L 145.842462 -49.773244 
L 143.419775 -49.794913 
L 140.997088 -50.601916 
L 138.574402 -50.557058 
L 136.151715 -50.591717 
L 133.729028 -50.595612 
L 131.306342 -53.483878 
L 128.883655 -52.775977 
L 126.460968 -52.788573 
L 124.038282 -52.075486 
L 121.615595 -50.564382 
L 119.192909 -50.428673 
L 116.770222 -46.754676 
L 114.347535 -45.798879 
L 111.924849 -45.616423 
L 109.502162 -45.540504 
L 107.079475 -45.536679 
L 104.656789 -45.470541 
L 102.234102 -46.316118 
L 99.811415 -46.066618 
L 97.388729 -45.65531 
L 94.966042 -45.626209 
L 92.543355 -45.606745 
L 90.120669 -45.590919 
L 87.697982 -46.418644 
L 85.275295 -45.962872 
L 82.852609 -49.744298 
L 80.429922 -49.869875 
L 78.007235 -49.776177 
L 75.584549 -50.456001 
L 73.161862 -50.457073 
L 70.739176 -50.58939 
L 68.316489 -53.436131 
L 65.893802 -53.181968 
L 63.471116 -52.768498 
L 61.048429 -52.757185 
L 58.625742 -52.046147 
z
" style="stroke: #023eff; stroke-opacity: 0.2"/>
    </defs>
    <g clip-path="url(#pf47b146bac)">
     <use xlink:href="#m398fe28a84" x="0" y="162" style="fill: #023eff; fill-opacity: 0.2; stroke: #023eff; stroke-opacity: 0.2"/>
    </g>
   </g>
   <g id="PolyCollection_2">
    <defs>
     <path id="m4790eca7c0" d="M 58.625742 -51.310227 
L 58.625742 -49.779164 
L 61.048429 -51.876371 
L 63.471116 -51.854846 
L 65.893802 -51.863251 
L 68.316489 -52.462836 
L 70.739176 -52.429746 
L 73.161862 -47.510287 
L 75.584549 -47.521554 
L 78.007235 -46.103849 
L 80.429922 -46.165273 
L 82.852609 -46.174375 
L 85.275295 -49.781846 
L 87.697982 -51.574546 
L 90.120669 -51.383592 
L 92.543355 -51.327735 
L 94.966042 -51.411151 
L 97.388729 -51.359419 
L 99.811415 -48.758068 
L 102.234102 -48.649177 
L 104.656789 -47.881441 
L 107.079475 -47.75508 
L 109.502162 -47.730701 
L 111.924849 -48.914069 
L 114.347535 -49.164077 
L 116.770222 -49.033433 
L 119.192909 -48.351983 
L 121.615595 -48.358708 
L 124.038282 -49.708929 
L 126.460968 -51.875692 
L 128.883655 -51.905002 
L 131.306342 -52.430232 
L 133.729028 -52.42749 
L 136.151715 -47.443927 
L 138.574402 -47.554695 
L 140.997088 -46.08154 
L 143.419775 -46.175307 
L 145.842462 -46.15879 
L 148.265148 -49.758411 
L 150.687835 -51.47808 
L 153.110522 -51.477934 
L 155.533208 -51.371352 
L 157.955895 -51.385197 
L 160.378582 -51.38126 
L 162.801268 -48.811613 
L 165.223955 -48.717827 
L 167.646642 -47.838411 
L 170.069328 -47.764675 
L 172.492015 -47.767961 
L 174.914702 -49.040821 
L 177.337388 -49.212055 
L 177.337388 -51.466884 
L 177.337388 -51.466884 
L 174.914702 -51.174173 
L 172.492015 -49.75253 
L 170.069328 -49.762696 
L 167.646642 -49.762006 
L 165.223955 -50.350783 
L 162.801268 -50.602642 
L 160.378582 -53.225695 
L 157.955895 -53.209812 
L 155.533208 -53.270835 
L 153.110522 -53.19412 
L 150.687835 -53.41106 
L 148.265148 -51.238425 
L 145.842462 -47.546462 
L 143.419775 -47.4662 
L 140.997088 -47.479306 
L 138.574402 -49.371534 
L 136.151715 -49.297331 
L 133.729028 -53.952007 
L 131.306342 -53.97752 
L 128.883655 -52.59567 
L 126.460968 -52.579419 
L 124.038282 -51.452641 
L 121.615595 -50.704294 
L 119.192909 -50.663988 
L 116.770222 -51.270338 
L 114.347535 -51.435725 
L 111.924849 -51.292399 
L 109.502162 -49.742968 
L 107.079475 -49.718869 
L 104.656789 -49.828682 
L 102.234102 -50.389639 
L 99.811415 -50.626037 
L 97.388729 -53.203751 
L 94.966042 -53.189872 
L 92.543355 -53.266583 
L 90.120669 -53.243862 
L 87.697982 -53.414691 
L 85.275295 -51.182403 
L 82.852609 -47.531334 
L 80.429922 -47.480974 
L 78.007235 -47.506897 
L 75.584549 -49.354782 
L 73.161862 -49.374701 
L 70.739176 -53.952374 
L 68.316489 -53.923154 
L 65.893802 -52.631791 
L 63.471116 -52.607815 
L 61.048429 -52.603465 
L 58.625742 -51.310227 
z
" style="stroke: #ff7c00; stroke-opacity: 0.2"/>
    </defs>
    <g clip-path="url(#pf47b146bac)">
     <use xlink:href="#m4790eca7c0" x="0" y="162" style="fill: #ff7c00; fill-opacity: 0.2; stroke: #ff7c00; stroke-opacity: 0.2"/>
    </g>
   </g>
   <g id="PolyCollection_3">
    <defs>
     <path id="m26882681bf" d="M 58.625742 -68.31213 
L 58.625742 -64.128484 
L 61.048429 -64.264382 
L 63.471116 -63.951465 
L 65.893802 -64.016535 
L 68.316489 -64.211 
L 70.739176 -64.373904 
L 73.161862 -64.405493 
L 75.584549 -64.343763 
L 78.007235 -64.323999 
L 80.429922 -64.217082 
L 82.852609 -65.096913 
L 85.275295 -63.617028 
L 87.697982 -63.619306 
L 90.120669 -63.619031 
L 92.543355 -63.576701 
L 94.966042 -63.622821 
L 97.388729 -63.782602 
L 99.811415 -63.876567 
L 102.234102 -67.969259 
L 104.656789 -67.986472 
L 107.079475 -68.057204 
L 109.502162 -67.622144 
L 111.924849 -67.127111 
L 114.347535 -67.167245 
L 116.770222 -67.97784 
L 119.192909 -66.425343 
L 121.615595 -66.494062 
L 124.038282 -64.088462 
L 126.460968 -64.126209 
L 128.883655 -63.939283 
L 131.306342 -64.184674 
L 133.729028 -64.301648 
L 136.151715 -64.36414 
L 138.574402 -64.330222 
L 140.997088 -64.460272 
L 143.419775 -64.379292 
L 145.842462 -65.117263 
L 148.265148 -64.004478 
L 150.687835 -63.540448 
L 153.110522 -63.644227 
L 155.533208 -63.635415 
L 157.955895 -63.785435 
L 160.378582 -63.675294 
L 162.801268 -63.838507 
L 165.223955 -68.023438 
L 167.646642 -68.07422 
L 170.069328 -68.218115 
L 172.492015 -67.513692 
L 174.914702 -67.193538 
L 177.337388 -67.213673 
L 177.337388 -70.035392 
L 177.337388 -70.035392 
L 174.914702 -70.033319 
L 172.492015 -70.439254 
L 170.069328 -70.752752 
L 167.646642 -70.56931 
L 165.223955 -70.590226 
L 162.801268 -67.731068 
L 160.378582 -67.784388 
L 157.955895 -67.624416 
L 155.533208 -67.477797 
L 153.110522 -67.579805 
L 150.687835 -67.565902 
L 148.265148 -67.982992 
L 145.842462 -69.335594 
L 143.419775 -68.282712 
L 140.997088 -68.569512 
L 138.574402 -68.286637 
L 136.151715 -68.283875 
L 133.729028 -68.392923 
L 131.306342 -68.469751 
L 128.883655 -68.184291 
L 126.460968 -68.211481 
L 124.038282 -68.102854 
L 121.615595 -69.977359 
L 119.192909 -69.785601 
L 116.770222 -70.858498 
L 114.347535 -70.201653 
L 111.924849 -70.057136 
L 109.502162 -70.298833 
L 107.079475 -70.71978 
L 104.656789 -70.65335 
L 102.234102 -70.595742 
L 99.811415 -67.646357 
L 97.388729 -67.622525 
L 94.966042 -67.754367 
L 92.543355 -67.415345 
L 90.120669 -67.608545 
L 87.697982 -67.588698 
L 85.275295 -67.533151 
L 82.852609 -69.439322 
L 80.429922 -68.253968 
L 78.007235 -68.736592 
L 75.584549 -68.297881 
L 73.161862 -68.154785 
L 70.739176 -68.560662 
L 68.316489 -68.304691 
L 65.893802 -68.056697 
L 63.471116 -68.047704 
L 61.048429 -68.306969 
L 58.625742 -68.31213 
z
" style="stroke: #1ac938; stroke-opacity: 0.2"/>
    </defs>
    <g clip-path="url(#pf47b146bac)">
     <use xlink:href="#m26882681bf" x="0" y="162" style="fill: #1ac938; fill-opacity: 0.2; stroke: #1ac938; stroke-opacity: 0.2"/>
    </g>
   </g>
   <g id="PolyCollection_4">
    <defs>
     <path id="m32eceb7921" d="M 58.625742 -63.10577 
L 58.625742 -61.08595 
L 61.048429 -61.136403 
L 63.471116 -61.039416 
L 65.893802 -61.19666 
L 68.316489 -61.825181 
L 70.739176 -61.878476 
L 73.161862 -61.712175 
L 75.584549 -61.631447 
L 78.007235 -61.779601 
L 80.429922 -61.716798 
L 82.852609 -61.804271 
L 85.275295 -61.700296 
L 87.697982 -61.783398 
L 90.120669 -61.834411 
L 92.543355 -61.850146 
L 94.966042 -61.925668 
L 97.388729 -62.142789 
L 99.811415 -62.186807 
L 102.234102 -65.465918 
L 104.656789 -65.463967 
L 107.079475 -65.504462 
L 109.502162 -65.57177 
L 111.924849 -64.231602 
L 114.347535 -64.367222 
L 116.770222 -64.644697 
L 119.192909 -63.423202 
L 121.615595 -63.470296 
L 124.038282 -61.109851 
L 126.460968 -61.071812 
L 128.883655 -61.072543 
L 131.306342 -61.84094 
L 133.729028 -61.791087 
L 136.151715 -61.660569 
L 138.574402 -61.654797 
L 140.997088 -61.704025 
L 143.419775 -61.661341 
L 145.842462 -61.715666 
L 148.265148 -61.780263 
L 150.687835 -61.812504 
L 153.110522 -61.686895 
L 155.533208 -61.717631 
L 157.955895 -61.917526 
L 160.378582 -62.264499 
L 162.801268 -62.152789 
L 165.223955 -65.442149 
L 167.646642 -65.499799 
L 170.069328 -65.526764 
L 172.492015 -65.557121 
L 174.914702 -64.286171 
L 177.337388 -64.367708 
L 177.337388 -65.702104 
L 177.337388 -65.702104 
L 174.914702 -65.595077 
L 172.492015 -66.734035 
L 170.069328 -66.633958 
L 167.646642 -66.630202 
L 165.223955 -66.610882 
L 162.801268 -64.39284 
L 160.378582 -64.431674 
L 157.955895 -64.21542 
L 155.533208 -64.068271 
L 153.110522 -63.930102 
L 150.687835 -63.85978 
L 148.265148 -63.885236 
L 145.842462 -63.870399 
L 143.419775 -63.894309 
L 140.997088 -63.856883 
L 138.574402 -63.809989 
L 136.151715 -63.825875 
L 133.729028 -63.987329 
L 131.306342 -63.966911 
L 128.883655 -63.153917 
L 126.460968 -63.079945 
L 124.038282 -63.101677 
L 121.615595 -64.85394 
L 119.192909 -64.834722 
L 116.770222 -65.973516 
L 114.347535 -65.665695 
L 111.924849 -65.626358 
L 109.502162 -66.720433 
L 107.079475 -66.690257 
L 104.656789 -66.595935 
L 102.234102 -66.630684 
L 99.811415 -64.390973 
L 97.388729 -64.443425 
L 94.966042 -64.231853 
L 92.543355 -64.075732 
L 90.120669 -63.976759 
L 87.697982 -63.896633 
L 85.275295 -63.845257 
L 82.852609 -63.890578 
L 80.429922 -63.815636 
L 78.007235 -63.831597 
L 75.584549 -63.873031 
L 73.161862 -63.746127 
L 70.739176 -63.947148 
L 68.316489 -63.959443 
L 65.893802 -63.087624 
L 63.471116 -63.155916 
L 61.048429 -63.096013 
L 58.625742 -63.10577 
z
" style="stroke: #e8000b; stroke-opacity: 0.2"/>
    </defs>
    <g clip-path="url(#pf47b146bac)">
     <use xlink:href="#m32eceb7921" x="0" y="162" style="fill: #e8000b; fill-opacity: 0.2; stroke: #e8000b; stroke-opacity: 0.2"/>
    </g>
   </g>
   <g id="line2d_8">
    <path d="M 58.625742 110.778441 
L 61.048429 109.894288 
L 63.471116 109.804124 
L 65.893802 109.473007 
L 68.316489 109.193688 
L 70.739176 112.081483 
L 73.161862 112.183799 
L 75.584549 112.154777 
L 78.007235 112.900053 
L 80.429922 112.891883 
L 82.852609 112.929804 
L 85.275295 116.678566 
L 87.697982 116.118812 
L 90.120669 116.444941 
L 92.543355 116.428729 
L 94.966042 116.406353 
L 97.388729 116.377858 
L 99.811415 116.689986 
L 102.234102 116.390815 
L 104.656789 117.131268 
L 107.079475 117.09277 
L 109.502162 117.091396 
L 111.924849 117.051342 
L 114.347535 116.814155 
L 116.770222 115.774111 
L 119.192909 112.718432 
L 121.615595 112.57205 
L 124.038282 110.779044 
L 126.460968 109.892885 
L 128.883655 109.793605 
L 131.306342 109.193457 
L 133.729028 112.093474 
L 136.151715 112.020884 
L 138.574402 112.155581 
L 140.997088 112.257678 
L 143.419775 112.892643 
L 145.842462 112.930947 
L 148.265148 116.680714 
L 150.687835 116.119514 
L 153.110522 116.476657 
L 155.533208 116.430377 
L 157.955895 116.408522 
L 160.378582 116.380553 
L 162.801268 116.691321 
L 165.223955 116.393026 
L 167.646642 117.13327 
L 170.069328 117.095371 
L 172.492015 117.094547 
L 174.914702 117.055062 
L 177.337388 117.008868 
" clip-path="url(#pf47b146bac)" style="fill: none; stroke: #023eff; stroke-width: 1.5; stroke-linecap: round"/>
   </g>
   <g id="line2d_9">
    <path d="M 58.625742 111.453962 
L 61.048429 109.765852 
L 63.471116 109.763948 
L 65.893802 109.730229 
L 68.316489 108.836206 
L 70.739176 108.80761 
L 73.161862 113.535066 
L 75.584549 113.536449 
L 78.007235 115.191205 
L 80.429922 115.185763 
L 82.852609 115.177102 
L 85.275295 111.507185 
L 87.697982 109.566173 
L 90.120669 109.608019 
L 92.543355 109.645114 
L 94.966042 109.677474 
L 97.388729 109.705111 
L 99.811415 112.299094 
L 102.234102 112.466041 
L 104.656789 113.186682 
L 107.079475 113.28145 
L 109.502162 113.291183 
L 111.924849 111.863441 
L 114.347535 111.661137 
L 116.770222 111.841289 
L 119.192909 112.449399 
L 121.615595 112.435511 
L 124.038282 111.45503 
L 126.460968 109.766682 
L 128.883655 109.733307 
L 131.306342 108.83847 
L 133.729028 108.810283 
L 136.151715 113.534794 
L 138.574402 113.536462 
L 140.997088 115.191522 
L 143.419775 115.186362 
L 145.842462 115.17797 
L 148.265148 111.506538 
L 150.687835 109.562347 
L 153.110522 109.604585 
L 155.533208 109.642092 
L 157.955895 109.674853 
L 160.378582 109.7029 
L 162.801268 112.296489 
L 165.223955 112.464274 
L 167.646642 113.184932 
L 170.069328 113.280351 
L 172.492015 113.290559 
L 174.914702 111.86396 
L 177.337388 111.661684 
" clip-path="url(#pf47b146bac)" style="fill: none; stroke: #ff7c00; stroke-width: 1.5; stroke-linecap: round"/>
   </g>
   <g id="line2d_10">
    <path d="M 58.625742 95.911269 
L 61.048429 95.903944 
L 63.471116 95.903285 
L 65.893802 95.889207 
L 68.316489 95.69573 
L 70.739176 95.665103 
L 73.161862 95.694454 
L 75.584549 95.703838 
L 78.007235 95.523476 
L 80.429922 95.706797 
L 82.852609 94.73408 
L 85.275295 96.466866 
L 87.697982 96.452757 
L 90.120669 96.433923 
L 92.543355 96.410343 
L 94.966042 96.382053 
L 97.388729 96.349037 
L 99.811415 96.311314 
L 102.234102 92.718644 
L 104.656789 92.657987 
L 107.079475 92.592954 
L 109.502162 93.047682 
L 111.924849 93.453549 
L 114.347535 93.388684 
L 116.770222 92.639014 
L 119.192909 93.919201 
L 121.615595 93.892047 
L 124.038282 95.911375 
L 126.460968 95.904235 
L 128.883655 95.890708 
L 131.306342 95.698112 
L 133.729028 95.668032 
L 136.151715 95.693367 
L 138.574402 95.703228 
L 140.997088 95.523566 
L 143.419775 95.707136 
L 145.842462 94.73558 
L 148.265148 96.046392 
L 150.687835 96.454196 
L 153.110522 96.435755 
L 155.533208 96.412591 
L 157.955895 96.384685 
L 160.378582 96.352082 
L 162.801268 96.314765 
L 165.223955 92.723696 
L 167.646642 92.663411 
L 170.069328 92.598751 
L 172.492015 93.052417 
L 174.914702 93.458974 
L 177.337388 93.394436 
" clip-path="url(#pf47b146bac)" style="fill: none; stroke: #1ac938; stroke-width: 1.5; stroke-linecap: round"/>
   </g>
   <g id="line2d_11">
    <path d="M 58.625742 99.880416 
L 61.048429 99.87176 
L 63.471116 99.871094 
L 65.893802 99.857831 
L 68.316489 99.073906 
L 70.739176 99.059522 
L 73.161862 99.198369 
L 75.584549 99.198514 
L 78.007235 99.194567 
L 80.429922 99.186547 
L 82.852609 99.174492 
L 85.275295 99.158397 
L 87.697982 99.138295 
L 90.120669 99.114183 
L 92.543355 99.08601 
L 94.966042 98.897584 
L 97.388729 98.702283 
L 99.811415 98.681053 
L 102.234102 95.977766 
L 104.656789 95.944193 
L 107.079475 95.905349 
L 109.502162 95.861209 
L 111.924849 97.076809 
L 114.347535 97.024136 
L 116.770222 96.753782 
L 119.192909 97.880716 
L 121.615595 97.845218 
L 124.038282 99.880581 
L 126.460968 99.872054 
L 128.883655 99.859153 
L 131.306342 99.074923 
L 133.729028 99.060997 
L 136.151715 99.19817 
L 138.574402 99.198671 
L 140.997088 99.195064 
L 143.419775 99.187403 
L 145.842462 99.175695 
L 148.265148 99.159963 
L 150.687835 99.140216 
L 153.110522 99.116436 
L 155.533208 99.088624 
L 157.955895 98.89963 
L 160.378582 98.703853 
L 162.801268 98.683098 
L 165.223955 95.980419 
L 167.646642 95.947301 
L 170.069328 95.908901 
L 172.492015 95.865232 
L 174.914702 97.081112 
L 177.337388 97.028857 
" clip-path="url(#pf47b146bac)" style="fill: none; stroke: #e8000b; stroke-width: 1.5; stroke-linecap: round"/>
   </g>
   <g id="patch_3">
    <path d="M 52.69016 122.292 
L 52.69016 22.848 
" style="fill: none; stroke: #ffffff; stroke-width: 1.25; stroke-linejoin: miter; stroke-linecap: square"/>
   </g>
   <g id="patch_4">
    <path d="M 52.69016 122.292 
L 183.27297 122.292 
" style="fill: none; stroke: #ffffff; stroke-width: 1.25; stroke-linejoin: miter; stroke-linecap: square"/>
   </g>
   <g id="text_10">
    <!-- Landlocked -->
    <g style="fill: #262626" transform="translate(93.430315 16.848) scale(0.096 -0.096)">
     <defs>
      <path id="ArialMT-4c" d="M 469 0 
L 469 4581 
L 1075 4581 
L 1075 541 
L 3331 541 
L 3331 0 
L 469 0 
z
" transform="scale(0.015625)"/>
      <path id="ArialMT-6e" d="M 422 0 
L 422 3319 
L 928 3319 
L 928 2847 
Q 1294 3394 1984 3394 
Q 2284 3394 2536 3286 
Q 2788 3178 2913 3003 
Q 3038 2828 3088 2588 
Q 3119 2431 3119 2041 
L 3119 0 
L 2556 0 
L 2556 2019 
Q 2556 2363 2490 2533 
Q 2425 2703 2258 2804 
Q 2091 2906 1866 2906 
Q 1506 2906 1245 2678 
Q 984 2450 984 1813 
L 984 0 
L 422 0 
z
" transform="scale(0.015625)"/>
      <path id="ArialMT-64" d="M 2575 0 
L 2575 419 
Q 2259 -75 1647 -75 
Q 1250 -75 917 144 
Q 584 363 401 755 
Q 219 1147 219 1656 
Q 219 2153 384 2558 
Q 550 2963 881 3178 
Q 1213 3394 1622 3394 
Q 1922 3394 2156 3267 
Q 2391 3141 2538 2938 
L 2538 4581 
L 3097 4581 
L 3097 0 
L 2575 0 
z
M 797 1656 
Q 797 1019 1065 703 
Q 1334 388 1700 388 
Q 2069 388 2326 689 
Q 2584 991 2584 1609 
Q 2584 2291 2321 2609 
Q 2059 2928 1675 2928 
Q 1300 2928 1048 2622 
Q 797 2316 797 1656 
z
" transform="scale(0.015625)"/>
      <path id="ArialMT-6c" d="M 409 0 
L 409 4581 
L 972 4581 
L 972 0 
L 409 0 
z
" transform="scale(0.015625)"/>
      <path id="ArialMT-6f" d="M 213 1659 
Q 213 2581 725 3025 
Q 1153 3394 1769 3394 
Q 2453 3394 2887 2945 
Q 3322 2497 3322 1706 
Q 3322 1066 3130 698 
Q 2938 331 2570 128 
Q 2203 -75 1769 -75 
Q 1072 -75 642 372 
Q 213 819 213 1659 
z
M 791 1659 
Q 791 1022 1069 705 
Q 1347 388 1769 388 
Q 2188 388 2466 706 
Q 2744 1025 2744 1678 
Q 2744 2294 2464 2611 
Q 2184 2928 1769 2928 
Q 1347 2928 1069 2612 
Q 791 2297 791 1659 
z
" transform="scale(0.015625)"/>
      <path id="ArialMT-63" d="M 2588 1216 
L 3141 1144 
Q 3050 572 2676 248 
Q 2303 -75 1759 -75 
Q 1078 -75 664 370 
Q 250 816 250 1647 
Q 250 2184 428 2587 
Q 606 2991 970 3192 
Q 1334 3394 1763 3394 
Q 2303 3394 2647 3120 
Q 2991 2847 3088 2344 
L 2541 2259 
Q 2463 2594 2264 2762 
Q 2066 2931 1784 2931 
Q 1359 2931 1093 2626 
Q 828 2322 828 1663 
Q 828 994 1084 691 
Q 1341 388 1753 388 
Q 2084 388 2306 591 
Q 2528 794 2588 1216 
z
" transform="scale(0.015625)"/>
      <path id="ArialMT-6b" d="M 425 0 
L 425 4581 
L 988 4581 
L 988 1969 
L 2319 3319 
L 3047 3319 
L 1778 2088 
L 3175 0 
L 2481 0 
L 1384 1697 
L 988 1316 
L 988 0 
L 425 0 
z
" transform="scale(0.015625)"/>
     </defs>
     <use xlink:href="#ArialMT-4c"/>
     <use xlink:href="#ArialMT-61" x="55.615234"/>
     <use xlink:href="#ArialMT-6e" x="111.230469"/>
     <use xlink:href="#ArialMT-64" x="166.845703"/>
     <use xlink:href="#ArialMT-6c" x="222.460938"/>
     <use xlink:href="#ArialMT-6f" x="244.677734"/>
     <use xlink:href="#ArialMT-63" x="300.292969"/>
     <use xlink:href="#ArialMT-6b" x="350.292969"/>
     <use xlink:href="#ArialMT-65" x="400.292969"/>
     <use xlink:href="#ArialMT-64" x="455.908203"/>
    </g>
   </g>
  </g>
  <g id="axes_2">
   <g id="patch_5">
    <path d="M 193.239275 122.292 
L 323.822085 122.292 
L 323.822085 22.848 
L 193.239275 22.848 
z
" style="fill: #eaeaf2"/>
   </g>
   <g id="matplotlib.axis_3">
    <g id="xtick_4">
     <g id="line2d_12">
      <path d="M 196.75217 122.292 
L 196.75217 22.848 
" clip-path="url(#pa4d11d2753)" style="fill: none; stroke: #ffffff; stroke-linecap: round"/>
     </g>
     <g id="text_11">
      <!-- 0 -->
      <g style="fill: #262626" transform="translate(194.305358 138.090875) scale(0.088 -0.088)">
       <use xlink:href="#ArialMT-30"/>
      </g>
     </g>
    </g>
    <g id="xtick_5">
     <g id="line2d_13">
      <path d="M 245.205903 122.292 
L 245.205903 22.848 
" clip-path="url(#pa4d11d2753)" style="fill: none; stroke: #ffffff; stroke-linecap: round"/>
     </g>
     <g id="text_12">
      <!-- 20 -->
      <g style="fill: #262626" transform="translate(240.312278 138.090875) scale(0.088 -0.088)">
       <use xlink:href="#ArialMT-32"/>
       <use xlink:href="#ArialMT-30" x="55.615234"/>
      </g>
     </g>
    </g>
    <g id="xtick_6">
     <g id="line2d_14">
      <path d="M 293.659636 122.292 
L 293.659636 22.848 
" clip-path="url(#pa4d11d2753)" style="fill: none; stroke: #ffffff; stroke-linecap: round"/>
     </g>
     <g id="text_13">
      <!-- 40 -->
      <g style="fill: #262626" transform="translate(288.766011 138.090875) scale(0.088 -0.088)">
       <use xlink:href="#ArialMT-34"/>
       <use xlink:href="#ArialMT-30" x="55.615234"/>
      </g>
     </g>
    </g>
    <g id="text_14">
     <!-- Frame -->
     <g style="fill: #262626" transform="translate(244.66393 150.711375) scale(0.096 -0.096)">
      <use xlink:href="#ArialMT-46"/>
      <use xlink:href="#ArialMT-72" x="61.083984"/>
      <use xlink:href="#ArialMT-61" x="94.384766"/>
      <use xlink:href="#ArialMT-6d" x="150"/>
      <use xlink:href="#ArialMT-65" x="233.300781"/>
     </g>
    </g>
   </g>
   <g id="matplotlib.axis_4">
    <g id="ytick_5">
     <g id="line2d_15">
      <path d="M 193.239275 111.848783 
L 323.822085 111.848783 
" clip-path="url(#pa4d11d2753)" style="fill: none; stroke: #ffffff; stroke-linecap: round"/>
     </g>
    </g>
    <g id="ytick_6">
     <g id="line2d_16">
      <path d="M 193.239275 87.799654 
L 323.822085 87.799654 
" clip-path="url(#pa4d11d2753)" style="fill: none; stroke: #ffffff; stroke-linecap: round"/>
     </g>
    </g>
    <g id="ytick_7">
     <g id="line2d_17">
      <path d="M 193.239275 63.750525 
L 323.822085 63.750525 
" clip-path="url(#pa4d11d2753)" style="fill: none; stroke: #ffffff; stroke-linecap: round"/>
     </g>
    </g>
    <g id="ytick_8">
     <g id="line2d_18">
      <path d="M 193.239275 39.701397 
L 323.822085 39.701397 
" clip-path="url(#pa4d11d2753)" style="fill: none; stroke: #ffffff; stroke-linecap: round"/>
     </g>
    </g>
   </g>
   <g id="PolyCollection_5"/>
   <g id="PolyCollection_6">
    <defs>
     <path id="mf7513c9f2e" d="M 199.174857 -130.546809 
L 199.174857 -128.982143 
L 201.597544 -128.840835 
L 204.02023 -128.78009 
L 206.442917 -128.762905 
L 208.865604 -128.790508 
L 211.28829 -128.892607 
L 213.710977 -128.326035 
L 216.133664 -128.045921 
L 218.55635 -128.110823 
L 220.979037 -92.226152 
L 223.401724 -91.872908 
L 225.82441 -91.90759 
L 228.247097 -92.290238 
L 230.669784 -91.642001 
L 233.09247 -91.866965 
L 235.515157 -91.632898 
L 237.937843 -91.77135 
L 240.36053 -92.3458 
L 242.783217 -77.756171 
L 245.205903 -77.845431 
L 247.62859 -77.557664 
L 250.051277 -77.291363 
L 252.473963 -54.094704 
L 254.89665 -129.172348 
L 257.319337 -129.217758 
L 259.742023 -128.358824 
L 262.16471 -128.506643 
L 264.587397 -129.067422 
L 267.010083 -128.797651 
L 269.43277 -128.776808 
L 271.855457 -128.830479 
L 274.278143 -128.869767 
L 276.70083 -128.344187 
L 279.123517 -128.108665 
L 281.546203 -128.112662 
L 283.96889 -92.348622 
L 286.391576 -92.021038 
L 288.814263 -92.230471 
L 291.23695 -91.801304 
L 293.659636 -92.0538 
L 296.082323 -91.619709 
L 298.50501 -91.730656 
L 300.927696 -92.186914 
L 303.350383 -91.584022 
L 305.77307 -77.922361 
L 308.195756 -77.590732 
L 310.618443 -77.320902 
L 313.04113 -77.022873 
L 315.463816 -54.231907 
L 317.886503 -129.176882 
L 317.886503 -131.316224 
L 317.886503 -131.316224 
L 315.463816 -56.002758 
L 313.04113 -91.245066 
L 310.618443 -91.741795 
L 308.195756 -91.919407 
L 305.77307 -91.86179 
L 303.350383 -106.502063 
L 300.927696 -106.357165 
L 298.50501 -107.064159 
L 296.082323 -107.024793 
L 293.659636 -106.668506 
L 291.23695 -107.126082 
L 288.814263 -106.94014 
L 286.391576 -107.137454 
L 283.96889 -107.013447 
L 281.546203 -129.391235 
L 279.123517 -129.479731 
L 276.70083 -129.765079 
L 274.278143 -130.265769 
L 271.855457 -130.294295 
L 269.43277 -130.234185 
L 267.010083 -130.22088 
L 264.587397 -130.541239 
L 262.16471 -130.948125 
L 259.742023 -130.817172 
L 257.319337 -131.361094 
L 254.89665 -131.310244 
L 252.473963 -56.0539 
L 250.051277 -91.554022 
L 247.62859 -90.901437 
L 245.205903 -91.275795 
L 242.783217 -91.690956 
L 240.36053 -106.823625 
L 237.937843 -106.247901 
L 235.515157 -107.03446 
L 233.09247 -106.268824 
L 230.669784 -106.226864 
L 228.247097 -106.282781 
L 225.82441 -106.538325 
L 223.401724 -106.478611 
L 220.979037 -106.577641 
L 218.55635 -129.456947 
L 216.133664 -129.409668 
L 213.710977 -129.768589 
L 211.28829 -130.267 
L 208.865604 -130.252863 
L 206.442917 -130.236645 
L 204.02023 -130.216251 
L 201.597544 -130.187614 
L 199.174857 -130.546809 
z
" style="stroke: #ff7c00; stroke-opacity: 0.2"/>
    </defs>
    <g clip-path="url(#pa4d11d2753)">
     <use xlink:href="#mf7513c9f2e" x="0" y="162" style="fill: #ff7c00; fill-opacity: 0.2; stroke: #ff7c00; stroke-opacity: 0.2"/>
    </g>
   </g>
   <g id="PolyCollection_7">
    <defs>
     <path id="md6eaf312cb" d="M 199.174857 -47.660579 
L 199.174857 -45.804594 
L 201.597544 -45.797825 
L 204.02023 -45.828794 
L 206.442917 -45.698835 
L 208.865604 -45.806238 
L 211.28829 -48.2533 
L 213.710977 -48.256954 
L 216.133664 -48.326335 
L 218.55635 -48.344218 
L 220.979037 -48.353572 
L 223.401724 -48.372905 
L 225.82441 -48.4097 
L 228.247097 -48.394455 
L 230.669784 -48.562866 
L 233.09247 -48.528751 
L 235.515157 -46.345118 
L 237.937843 -46.348538 
L 240.36053 -45.820112 
L 242.783217 -45.793409 
L 245.205903 -46.698175 
L 247.62859 -46.271233 
L 250.051277 -46.202913 
L 252.473963 -46.231242 
L 254.89665 -45.913624 
L 257.319337 -45.845821 
L 259.742023 -45.838369 
L 262.16471 -45.818583 
L 264.587397 -45.782621 
L 267.010083 -45.715128 
L 269.43277 -45.711906 
L 271.855457 -45.78724 
L 274.278143 -48.243057 
L 276.70083 -48.316983 
L 279.123517 -48.3397 
L 281.546203 -48.342981 
L 283.96889 -48.295726 
L 286.391576 -48.374996 
L 288.814263 -48.362909 
L 291.23695 -48.447682 
L 293.659636 -48.576876 
L 296.082323 -48.603383 
L 298.50501 -46.377518 
L 300.927696 -46.298642 
L 303.350383 -46.329322 
L 305.77307 -45.793211 
L 308.195756 -46.533914 
L 310.618443 -46.322556 
L 313.04113 -46.233905 
L 315.463816 -46.184581 
L 317.886503 -45.851463 
L 317.886503 -47.709407 
L 317.886503 -47.709407 
L 315.463816 -48.310988 
L 313.04113 -48.293897 
L 310.618443 -48.345865 
L 308.195756 -48.775632 
L 305.77307 -47.277788 
L 303.350383 -48.058656 
L 300.927696 -48.089569 
L 298.50501 -48.052429 
L 296.082323 -49.648781 
L 293.659636 -49.642311 
L 291.23695 -49.48712 
L 288.814263 -49.457922 
L 286.391576 -49.449474 
L 283.96889 -49.460129 
L 281.546203 -49.435016 
L 279.123517 -49.408873 
L 276.70083 -49.43429 
L 274.278143 -49.44079 
L 271.855457 -47.544341 
L 269.43277 -47.598168 
L 267.010083 -47.647114 
L 264.587397 -47.606731 
L 262.16471 -47.682437 
L 259.742023 -47.650364 
L 257.319337 -47.774391 
L 254.89665 -47.770872 
L 252.473963 -48.197137 
L 250.051277 -48.278518 
L 247.62859 -48.333929 
L 245.205903 -48.78748 
L 242.783217 -47.280922 
L 240.36053 -47.30381 
L 237.937843 -48.115948 
L 235.515157 -48.074987 
L 233.09247 -49.696144 
L 230.669784 -49.645154 
L 228.247097 -49.481425 
L 225.82441 -49.467681 
L 223.401724 -49.468069 
L 220.979037 -49.382358 
L 218.55635 -49.42641 
L 216.133664 -49.413495 
L 213.710977 -49.414434 
L 211.28829 -49.450178 
L 208.865604 -47.61241 
L 206.442917 -47.567195 
L 204.02023 -47.684984 
L 201.597544 -47.613585 
L 199.174857 -47.660579 
z
" style="stroke: #1ac938; stroke-opacity: 0.2"/>
    </defs>
    <g clip-path="url(#pa4d11d2753)">
     <use xlink:href="#md6eaf312cb" x="0" y="162" style="fill: #1ac938; fill-opacity: 0.2; stroke: #1ac938; stroke-opacity: 0.2"/>
    </g>
   </g>
   <g id="PolyCollection_8">
    <defs>
     <path id="mb271a2d9d8" d="M 199.174857 -75.742598 
L 199.174857 -64.922991 
L 201.597544 -64.620509 
L 204.02023 -64.941048 
L 206.442917 -64.937187 
L 208.865604 -64.537134 
L 211.28829 -70.924723 
L 213.710977 -71.008709 
L 216.133664 -71.391496 
L 218.55635 -70.024489 
L 220.979037 -70.926744 
L 223.401724 -70.030744 
L 225.82441 -70.48132 
L 228.247097 -71.084703 
L 230.669784 -70.97351 
L 233.09247 -71.439929 
L 235.515157 -69.368277 
L 237.937843 -69.1617 
L 240.36053 -69.784204 
L 242.783217 -70.009318 
L 245.205903 -62.390492 
L 247.62859 -62.355868 
L 250.051277 -62.340046 
L 252.473963 -62.399182 
L 254.89665 -62.521927 
L 257.319337 -62.422971 
L 259.742023 -61.899555 
L 262.16471 -62.320013 
L 264.587397 -64.904282 
L 267.010083 -65.031755 
L 269.43277 -65.228785 
L 271.855457 -65.227627 
L 274.278143 -71.13161 
L 276.70083 -70.977652 
L 279.123517 -71.218583 
L 281.546203 -70.313351 
L 283.96889 -70.154033 
L 286.391576 -70.093689 
L 288.814263 -70.686626 
L 291.23695 -70.93211 
L 293.659636 -71.472618 
L 296.082323 -71.025217 
L 298.50501 -69.061952 
L 300.927696 -69.43676 
L 303.350383 -69.897656 
L 305.77307 -69.623167 
L 308.195756 -62.378156 
L 310.618443 -62.510445 
L 313.04113 -62.716251 
L 315.463816 -62.282801 
L 317.886503 -62.592554 
L 317.886503 -73.752131 
L 317.886503 -73.752131 
L 315.463816 -74.250687 
L 313.04113 -74.521937 
L 310.618443 -73.69602 
L 308.195756 -73.365177 
L 305.77307 -80.655372 
L 303.350383 -80.49912 
L 300.927696 -80.382183 
L 298.50501 -80.24128 
L 296.082323 -82.654499 
L 293.659636 -82.847786 
L 291.23695 -82.680436 
L 288.814263 -81.647509 
L 286.391576 -81.983939 
L 283.96889 -82.20025 
L 281.546203 -81.406558 
L 279.123517 -81.935031 
L 276.70083 -82.411583 
L 274.278143 -82.241377 
L 271.855457 -75.918999 
L 269.43277 -76.041979 
L 267.010083 -75.810001 
L 264.587397 -75.774643 
L 262.16471 -73.960654 
L 259.742023 -74.102949 
L 257.319337 -73.887967 
L 254.89665 -73.669009 
L 252.473963 -73.817137 
L 250.051277 -74.014607 
L 247.62859 -73.515635 
L 245.205903 -74.395725 
L 242.783217 -81.414461 
L 240.36053 -80.855143 
L 237.937843 -80.667727 
L 235.515157 -80.14269 
L 233.09247 -82.898242 
L 230.669784 -82.650926 
L 228.247097 -82.333464 
L 225.82441 -81.949093 
L 223.401724 -81.620862 
L 220.979037 -81.790435 
L 218.55635 -81.511388 
L 216.133664 -82.528172 
L 213.710977 -81.942809 
L 211.28829 -81.640171 
L 208.865604 -76.240023 
L 206.442917 -75.878244 
L 204.02023 -76.315619 
L 201.597544 -75.692742 
L 199.174857 -75.742598 
z
" style="stroke: #e8000b; stroke-opacity: 0.2"/>
    </defs>
    <g clip-path="url(#pa4d11d2753)">
     <use xlink:href="#mb271a2d9d8" x="0" y="162" style="fill: #e8000b; fill-opacity: 0.2; stroke: #e8000b; stroke-opacity: 0.2"/>
    </g>
   </g>
   <g id="line2d_19"/>
   <g id="line2d_20">
    <path d="M 199.174857 32.188536 
L 201.597544 32.46109 
L 204.02023 32.460928 
L 206.442917 32.456172 
L 208.865604 32.446932 
L 211.28829 32.433227 
L 213.710977 32.944519 
L 216.133664 33.228098 
L 218.55635 33.215292 
L 220.979037 62.497804 
L 223.401724 62.500818 
L 225.82441 62.510928 
L 228.247097 62.515515 
L 230.669784 62.514579 
L 233.09247 62.568226 
L 235.515157 62.562817 
L 237.937843 62.551609 
L 240.36053 62.282388 
L 242.783217 77.290512 
L 245.205903 77.645274 
L 247.62859 77.677244 
L 250.051277 77.7044 
L 252.473963 106.857201 
L 254.89665 31.684421 
L 257.319337 31.668094 
L 259.742023 32.269466 
L 262.16471 32.26624 
L 264.587397 32.1886 
L 267.010083 32.461172 
L 269.43277 32.45678 
L 271.855457 32.447957 
L 274.278143 32.434623 
L 276.70083 32.945418 
L 279.123517 33.229056 
L 281.546203 33.216557 
L 283.96889 62.4971 
L 286.391576 62.499683 
L 288.814263 62.510297 
L 291.23695 62.515358 
L 293.659636 62.514882 
L 296.082323 62.56843 
L 298.50501 62.563505 
L 300.927696 62.552799 
L 303.350383 62.284061 
L 305.77307 77.289701 
L 308.195756 77.642284 
L 310.618443 77.67467 
L 313.04113 77.702252 
L 315.463816 106.856658 
L 317.886503 31.685529 
" clip-path="url(#pa4d11d2753)" style="fill: none; stroke: #ff7c00; stroke-width: 1.5; stroke-linecap: round"/>
   </g>
   <g id="line2d_21">
    <path d="M 199.174857 115.273011 
L 201.597544 115.289313 
L 204.02023 115.290129 
L 206.442917 115.300846 
L 208.865604 115.306306 
L 211.28829 113.122812 
L 213.710977 113.124095 
L 216.133664 113.120644 
L 218.55635 113.112452 
L 220.979037 113.099536 
L 223.401724 113.081798 
L 225.82441 113.059294 
L 228.247097 113.031952 
L 230.669784 112.89599 
L 233.09247 112.857256 
L 235.515157 114.774255 
L 237.937843 114.793685 
L 240.36053 115.435382 
L 242.783217 115.461639 
L 245.205903 114.279907 
L 247.62859 114.693333 
L 250.051277 114.735061 
L 252.473963 114.770306 
L 254.89665 115.153317 
L 257.319337 115.191222 
L 259.742023 115.223676 
L 262.16471 115.250759 
L 264.587397 115.272501 
L 267.010083 115.288939 
L 269.43277 115.3001 
L 271.855457 115.30601 
L 274.278143 113.12249 
L 276.70083 113.124179 
L 279.123517 113.121128 
L 281.546203 113.113358 
L 283.96889 113.100823 
L 286.391576 113.083525 
L 288.814263 113.061455 
L 291.23695 113.034522 
L 293.659636 112.89911 
L 296.082323 112.860806 
L 298.50501 114.772281 
L 300.927696 114.792224 
L 303.350383 114.806275 
L 305.77307 115.459643 
L 308.195756 114.276729 
L 310.618443 114.689447 
L 313.04113 114.731713 
L 315.463816 114.767539 
L 317.886503 115.149801 
" clip-path="url(#pa4d11d2753)" style="fill: none; stroke: #1ac938; stroke-width: 1.5; stroke-linecap: round"/>
   </g>
   <g id="line2d_22">
    <path d="M 199.174857 91.600044 
L 201.597544 91.600873 
L 204.02023 91.600733 
L 206.442917 91.59517 
L 208.865604 91.583435 
L 211.28829 85.57427 
L 213.710977 85.568106 
L 216.133664 85.557275 
L 218.55635 86.284456 
L 220.979037 85.984018 
L 223.401724 85.988913 
L 225.82441 85.891787 
L 228.247097 85.264419 
L 230.669784 85.022344 
L 233.09247 85.047934 
L 235.515157 87.140844 
L 237.937843 87.168712 
L 240.36053 86.874576 
L 242.783217 86.905551 
L 245.205903 93.820336 
L 247.62859 93.849104 
L 250.051277 93.872793 
L 252.473963 93.891318 
L 254.89665 93.904745 
L 257.319337 93.913005 
L 259.742023 93.916047 
L 262.16471 93.913832 
L 264.587397 91.599939 
L 267.010083 91.600919 
L 269.43277 91.595867 
L 271.855457 91.584663 
L 274.278143 85.574609 
L 276.70083 85.568846 
L 279.123517 85.558407 
L 281.546203 86.284543 
L 283.96889 85.98336 
L 286.391576 85.988678 
L 288.814263 85.989487 
L 291.23695 85.262548 
L 293.659636 85.019885 
L 296.082323 85.045932 
L 298.50501 87.138202 
L 300.927696 87.166463 
L 303.350383 86.871662 
L 305.77307 86.903086 
L 308.195756 93.817591 
L 310.618443 93.846813 
L 313.04113 93.87093 
L 315.463816 93.889922 
L 317.886503 93.90379 
" clip-path="url(#pa4d11d2753)" style="fill: none; stroke: #e8000b; stroke-width: 1.5; stroke-linecap: round"/>
   </g>
   <g id="patch_6">
    <path d="M 193.239275 122.292 
L 193.239275 22.848 
" style="fill: none; stroke: #ffffff; stroke-width: 1.25; stroke-linejoin: miter; stroke-linecap: square"/>
   </g>
   <g id="patch_7">
    <path d="M 193.239275 122.292 
L 323.822085 122.292 
" style="fill: none; stroke: #ffffff; stroke-width: 1.25; stroke-linejoin: miter; stroke-linecap: square"/>
   </g>
   <g id="text_15">
    <!-- Coastal -->
    <g style="fill: #262626" transform="translate(242.25643 16.848) scale(0.096 -0.096)">
     <defs>
      <path id="ArialMT-43" d="M 3763 1606 
L 4369 1453 
Q 4178 706 3683 314 
Q 3188 -78 2472 -78 
Q 1731 -78 1267 223 
Q 803 525 561 1097 
Q 319 1669 319 2325 
Q 319 3041 592 3573 
Q 866 4106 1370 4382 
Q 1875 4659 2481 4659 
Q 3169 4659 3637 4309 
Q 4106 3959 4291 3325 
L 3694 3184 
Q 3534 3684 3231 3912 
Q 2928 4141 2469 4141 
Q 1941 4141 1586 3887 
Q 1231 3634 1087 3207 
Q 944 2781 944 2328 
Q 944 1744 1114 1308 
Q 1284 872 1643 656 
Q 2003 441 2422 441 
Q 2931 441 3284 734 
Q 3638 1028 3763 1606 
z
" transform="scale(0.015625)"/>
      <path id="ArialMT-74" d="M 1650 503 
L 1731 6 
Q 1494 -44 1306 -44 
Q 1000 -44 831 53 
Q 663 150 594 308 
Q 525 466 525 972 
L 525 2881 
L 113 2881 
L 113 3319 
L 525 3319 
L 525 4141 
L 1084 4478 
L 1084 3319 
L 1650 3319 
L 1650 2881 
L 1084 2881 
L 1084 941 
Q 1084 700 1114 631 
Q 1144 563 1211 522 
Q 1278 481 1403 481 
Q 1497 481 1650 503 
z
" transform="scale(0.015625)"/>
     </defs>
     <use xlink:href="#ArialMT-43"/>
     <use xlink:href="#ArialMT-6f" x="72.216797"/>
     <use xlink:href="#ArialMT-61" x="127.832031"/>
     <use xlink:href="#ArialMT-73" x="183.447266"/>
     <use xlink:href="#ArialMT-74" x="233.447266"/>
     <use xlink:href="#ArialMT-61" x="261.230469"/>
     <use xlink:href="#ArialMT-6c" x="316.845703"/>
    </g>
   </g>
  </g>
  <g id="axes_3">
   <g id="patch_8">
    <path d="M 333.78839 122.292 
L 464.3712 122.292 
L 464.3712 22.848 
L 333.78839 22.848 
z
" style="fill: #eaeaf2"/>
   </g>
   <g id="matplotlib.axis_5">
    <g id="xtick_7">
     <g id="line2d_23">
      <path d="M 337.301285 122.292 
L 337.301285 22.848 
" clip-path="url(#p87340c2b52)" style="fill: none; stroke: #ffffff; stroke-linecap: round"/>
     </g>
     <g id="text_16">
      <!-- 0 -->
      <g style="fill: #262626" transform="translate(334.854473 138.090875) scale(0.088 -0.088)">
       <use xlink:href="#ArialMT-30"/>
      </g>
     </g>
    </g>
    <g id="xtick_8">
     <g id="line2d_24">
      <path d="M 385.755018 122.292 
L 385.755018 22.848 
" clip-path="url(#p87340c2b52)" style="fill: none; stroke: #ffffff; stroke-linecap: round"/>
     </g>
     <g id="text_17">
      <!-- 20 -->
      <g style="fill: #262626" transform="translate(380.861393 138.090875) scale(0.088 -0.088)">
       <use xlink:href="#ArialMT-32"/>
       <use xlink:href="#ArialMT-30" x="55.615234"/>
      </g>
     </g>
    </g>
    <g id="xtick_9">
     <g id="line2d_25">
      <path d="M 434.208751 122.292 
L 434.208751 22.848 
" clip-path="url(#p87340c2b52)" style="fill: none; stroke: #ffffff; stroke-linecap: round"/>
     </g>
     <g id="text_18">
      <!-- 40 -->
      <g style="fill: #262626" transform="translate(429.315126 138.090875) scale(0.088 -0.088)">
       <use xlink:href="#ArialMT-34"/>
       <use xlink:href="#ArialMT-30" x="55.615234"/>
      </g>
     </g>
    </g>
    <g id="text_19">
     <!-- Frame -->
     <g style="fill: #262626" transform="translate(385.213045 150.711375) scale(0.096 -0.096)">
      <use xlink:href="#ArialMT-46"/>
      <use xlink:href="#ArialMT-72" x="61.083984"/>
      <use xlink:href="#ArialMT-61" x="94.384766"/>
      <use xlink:href="#ArialMT-6d" x="150"/>
      <use xlink:href="#ArialMT-65" x="233.300781"/>
     </g>
    </g>
   </g>
   <g id="matplotlib.axis_6">
    <g id="ytick_9">
     <g id="line2d_26">
      <path d="M 333.78839 111.848783 
L 464.3712 111.848783 
" clip-path="url(#p87340c2b52)" style="fill: none; stroke: #ffffff; stroke-linecap: round"/>
     </g>
    </g>
    <g id="ytick_10">
     <g id="line2d_27">
      <path d="M 333.78839 87.799654 
L 464.3712 87.799654 
" clip-path="url(#p87340c2b52)" style="fill: none; stroke: #ffffff; stroke-linecap: round"/>
     </g>
    </g>
    <g id="ytick_11">
     <g id="line2d_28">
      <path d="M 333.78839 63.750525 
L 464.3712 63.750525 
" clip-path="url(#p87340c2b52)" style="fill: none; stroke: #ffffff; stroke-linecap: round"/>
     </g>
    </g>
    <g id="ytick_12">
     <g id="line2d_29">
      <path d="M 333.78839 39.701397 
L 464.3712 39.701397 
" clip-path="url(#p87340c2b52)" style="fill: none; stroke: #ffffff; stroke-linecap: round"/>
     </g>
    </g>
   </g>
   <g id="PolyCollection_9"/>
   <g id="PolyCollection_10"/>
   <g id="PolyCollection_11">
    <defs>
     <path id="m369ae28001" d="M 339.723972 -120.04512 
L 339.723972 -120.04512 
L 342.146658 -120.065457 
L 344.569345 -120.066844 
L 346.992032 -120.27977 
L 349.414718 -123.782822 
L 351.837405 -123.726681 
L 354.260092 -123.677524 
L 356.682778 -123.635408 
L 359.105465 -116.198327 
L 361.528152 -116.055159 
L 363.950838 -116.142559 
L 366.373525 -116.451203 
L 368.796212 -116.439547 
L 371.218898 -116.433285 
L 373.641585 -116.432375 
L 376.064272 -116.436713 
L 378.486958 -117.888099 
L 380.909645 -117.774879 
L 383.332332 -117.785114 
L 385.755018 -117.801302 
L 388.177705 -121.613201 
L 390.600392 -121.634853 
L 393.023078 -122.069272 
L 395.445765 -123.626386 
L 397.868451 -120.121585 
L 400.291138 -114.768638 
L 402.713825 -114.826559 
L 405.136511 -120.044665 
L 407.559198 -120.064892 
L 409.981885 -120.285399 
L 412.404571 -123.78804 
L 414.827258 -123.731308 
L 417.249945 -123.681521 
L 419.672631 -123.638774 
L 422.095318 -116.201254 
L 424.518005 -116.170129 
L 426.940691 -116.144544 
L 429.363378 -116.452456 
L 431.786065 -116.44035 
L 434.208751 -116.433626 
L 436.631438 -116.432231 
L 439.054125 -116.436166 
L 441.476811 -117.889453 
L 443.899498 -117.774288 
L 446.322184 -117.783987 
L 448.744871 -117.746833 
L 451.167558 -121.611612 
L 453.590244 -121.632723 
L 456.012931 -122.065913 
L 458.435618 -123.623416 
L 458.435618 -128.620706 
L 458.435618 -128.620706 
L 456.012931 -125.767901 
L 453.590244 -125.522294 
L 451.167558 -125.501029 
L 448.744871 -118.434012 
L 446.322184 -118.411525 
L 443.899498 -118.394582 
L 441.476811 -118.60398 
L 439.054125 -117.813281 
L 436.631438 -117.805268 
L 434.208751 -117.916477 
L 431.786065 -117.804708 
L 429.363378 -117.812205 
L 426.940691 -117.499505 
L 424.518005 -117.520114 
L 422.095318 -117.54608 
L 419.672631 -126.936975 
L 417.249945 -126.730206 
L 414.827258 -126.783432 
L 412.404571 -126.842894 
L 409.981885 -120.285399 
L 407.559198 -120.064892 
L 405.136511 -120.044665 
L 402.713825 -114.826559 
L 400.291138 -114.768638 
L 397.868451 -124.754754 
L 395.445765 -128.622536 
L 393.023078 -125.778617 
L 390.600392 -125.524421 
L 388.177705 -125.502647 
L 385.755018 -118.43619 
L 383.332332 -118.41326 
L 380.909645 -118.395819 
L 378.486958 -118.604856 
L 376.064272 -117.814172 
L 373.641585 -117.805769 
L 371.218898 -117.802445 
L 368.796212 -117.804292 
L 366.373525 -117.811358 
L 363.950838 -117.497938 
L 361.528152 -117.518115 
L 359.105465 -117.543606 
L 356.682778 -126.6795 
L 354.260092 -126.725872 
L 351.837405 -126.778539 
L 349.414718 -126.83747 
L 346.992032 -120.27977 
L 344.569345 -120.066844 
L 342.146658 -120.065457 
L 339.723972 -120.04512 
z
" style="stroke: #1ac938; stroke-opacity: 0.2"/>
    </defs>
    <g clip-path="url(#p87340c2b52)">
     <use xlink:href="#m369ae28001" x="0" y="162" style="fill: #1ac938; fill-opacity: 0.2; stroke: #1ac938; stroke-opacity: 0.2"/>
    </g>
   </g>
   <g id="PolyCollection_12">
    <defs>
     <path id="mbe5cf2cda6" d="M 339.723972 -124.145372 
L 339.723972 -120.43673 
L 342.146658 -120.42255 
L 344.569345 -120.421809 
L 359.105465 -134.62842 
L 361.528152 -134.591585 
L 363.950838 -134.559769 
L 366.373525 -120.530473 
L 368.796212 -120.137529 
L 371.218898 -120.119132 
L 373.641585 -120.106322 
L 376.064272 -119.72267 
L 378.486958 -120.097394 
L 380.909645 -120.101265 
L 383.332332 -120.110711 
L 385.755018 -120.125692 
L 388.177705 -120.146301 
L 390.600392 -120.172515 
L 393.023078 -120.204371 
L 395.445765 -128.561887 
L 397.868451 -128.535201 
L 400.291138 -120.474163 
L 402.713825 -120.454196 
L 405.136511 -120.437135 
L 407.559198 -120.422892 
L 422.095318 -134.631818 
L 424.518005 -134.594564 
L 426.940691 -134.562367 
L 429.363378 -120.163884 
L 431.786065 -120.139382 
L 434.208751 -120.120515 
L 436.631438 -120.107216 
L 439.054125 -120.09948 
L 441.476811 -120.097334 
L 443.899498 -120.100707 
L 446.322184 -120.109663 
L 448.744871 -120.124191 
L 451.167558 -120.14428 
L 453.590244 -120.170016 
L 456.012931 -119.82807 
L 458.435618 -128.56433 
L 458.435618 -128.56433 
L 458.435618 -128.56433 
L 456.012931 -124.680829 
L 453.590244 -124.654251 
L 451.167558 -124.633537 
L 448.744871 -124.993241 
L 446.322184 -124.609609 
L 443.899498 -124.60625 
L 441.476811 -124.608611 
L 439.054125 -124.616585 
L 436.631438 -125.007146 
L 434.208751 -124.649486 
L 431.786065 -124.674346 
L 429.363378 -124.704859 
L 426.940691 -134.562367 
L 424.518005 -134.594564 
L 422.095318 -134.631818 
L 407.559198 -124.131116 
L 405.136511 -124.14579 
L 402.713825 -124.163282 
L 400.291138 -124.183681 
L 397.868451 -128.535201 
L 395.445765 -128.561887 
L 393.023078 -124.683447 
L 390.600392 -124.656332 
L 388.177705 -124.63512 
L 385.755018 -124.629107 
L 383.332332 -124.610191 
L 380.909645 -124.606331 
L 378.486958 -124.608176 
L 376.064272 -124.615654 
L 373.641585 -124.628825 
L 371.218898 -124.647589 
L 368.796212 -124.671979 
L 366.373525 -124.702022 
L 363.950838 -134.559769 
L 361.528152 -134.591585 
L 359.105465 -134.62842 
L 344.569345 -124.129997 
L 342.146658 -124.130768 
L 339.723972 -124.145372 
z
" style="stroke: #e8000b; stroke-opacity: 0.2"/>
    </defs>
    <g clip-path="url(#p87340c2b52)">
     <use xlink:href="#mbe5cf2cda6" x="0" y="162" style="fill: #e8000b; fill-opacity: 0.2; stroke: #e8000b; stroke-opacity: 0.2"/>
    </g>
   </g>
   <g id="line2d_30"/>
   <g id="line2d_31"/>
   <g id="line2d_32">
    <path d="M 339.723972 41.95488 
L 342.146658 41.934543 
L 344.569345 41.933156 
L 346.992032 41.72023 
L 349.414718 36.689854 
L 351.837405 36.74739 
L 354.260092 36.798302 
L 356.682778 36.842546 
L 359.105465 45.129034 
L 361.528152 45.157095 
L 363.950838 45.179751 
L 366.373525 44.868719 
L 368.796212 44.87808 
L 371.218898 44.882135 
L 373.641585 44.880928 
L 376.064272 44.874557 
L 378.486958 43.752777 
L 380.909645 43.914651 
L 383.332332 43.900813 
L 385.755018 43.881254 
L 388.177705 38.442076 
L 390.600392 38.420363 
L 393.023078 38.079912 
L 395.445765 35.875539 
L 397.868451 39.561831 
L 400.291138 47.231362 
L 402.713825 47.173441 
L 405.136511 41.955335 
L 407.559198 41.935108 
L 409.981885 41.714601 
L 412.404571 36.684533 
L 414.827258 36.74263 
L 417.249945 36.794137 
L 419.672631 36.838979 
L 422.095318 45.126333 
L 424.518005 45.154879 
L 426.940691 45.177975 
L 429.363378 44.86767 
L 431.786065 44.877471 
L 434.208751 44.881981 
L 436.631438 44.881251 
L 439.054125 44.875277 
L 441.476811 43.753284 
L 443.899498 43.915565 
L 446.322184 43.902244 
L 448.744871 43.883147 
L 451.167558 38.44368 
L 453.590244 38.422491 
L 456.012931 38.083093 
L 458.435618 35.877939 
" clip-path="url(#p87340c2b52)" style="fill: none; stroke: #1ac938; stroke-width: 1.5; stroke-linecap: round"/>
   </g>
   <g id="line2d_33">
    <path d="M 339.723972 39.708949 
L 342.146658 39.723341 
L 344.569345 39.724097 
L 359.105465 27.37158 
L 361.528152 27.408415 
L 363.950838 27.440231 
L 366.373525 39.568208 
L 368.796212 39.595246 
L 371.218898 39.61664 
L 373.641585 39.632426 
L 376.064272 39.642646 
L 378.486958 39.647215 
L 380.909645 39.646202 
L 383.332332 39.639549 
L 385.755018 39.627282 
L 388.177705 39.60929 
L 390.600392 39.585577 
L 393.023078 39.556091 
L 395.445765 33.438113 
L 397.868451 33.464799 
L 400.291138 39.671078 
L 402.713825 39.691261 
L 405.136511 39.708538 
L 407.559198 39.722996 
L 422.095318 27.368182 
L 424.518005 27.405436 
L 426.940691 27.437633 
L 429.363378 39.565629 
L 431.786065 39.593136 
L 434.208751 39.615 
L 436.631438 39.631278 
L 439.054125 39.641967 
L 441.476811 39.647028 
L 443.899498 39.646521 
L 446.322184 39.640364 
L 448.744871 39.628555 
L 451.167558 39.611091 
L 453.590244 39.587866 
L 456.012931 39.558906 
L 458.435618 33.43567 
" clip-path="url(#p87340c2b52)" style="fill: none; stroke: #e8000b; stroke-width: 1.5; stroke-linecap: round"/>
   </g>
   <g id="patch_9">
    <path d="M 333.78839 122.292 
L 333.78839 22.848 
" style="fill: none; stroke: #ffffff; stroke-width: 1.25; stroke-linejoin: miter; stroke-linecap: square"/>
   </g>
   <g id="patch_10">
    <path d="M 333.78839 122.292 
L 464.3712 122.292 
" style="fill: none; stroke: #ffffff; stroke-width: 1.25; stroke-linejoin: miter; stroke-linecap: square"/>
   </g>
   <g id="text_20">
    <!-- Insular -->
    <g style="fill: #262626" transform="translate(384.673795 16.848) scale(0.096 -0.096)">
     <defs>
      <path id="ArialMT-49" d="M 597 0 
L 597 4581 
L 1203 4581 
L 1203 0 
L 597 0 
z
" transform="scale(0.015625)"/>
      <path id="ArialMT-75" d="M 2597 0 
L 2597 488 
Q 2209 -75 1544 -75 
Q 1250 -75 995 37 
Q 741 150 617 320 
Q 494 491 444 738 
Q 409 903 409 1263 
L 409 3319 
L 972 3319 
L 972 1478 
Q 972 1038 1006 884 
Q 1059 663 1231 536 
Q 1403 409 1656 409 
Q 1909 409 2131 539 
Q 2353 669 2445 892 
Q 2538 1116 2538 1541 
L 2538 3319 
L 3100 3319 
L 3100 0 
L 2597 0 
z
" transform="scale(0.015625)"/>
     </defs>
     <use xlink:href="#ArialMT-49"/>
     <use xlink:href="#ArialMT-6e" x="27.783203"/>
     <use xlink:href="#ArialMT-73" x="83.398438"/>
     <use xlink:href="#ArialMT-75" x="133.398438"/>
     <use xlink:href="#ArialMT-6c" x="189.013672"/>
     <use xlink:href="#ArialMT-61" x="211.230469"/>
     <use xlink:href="#ArialMT-72" x="266.845703"/>
    </g>
   </g>
  </g>
  <g id="legend_1">
   <g id="text_21">
    <!-- Direction -->
    <g style="fill: #262626" transform="translate(490.04325 58.586) scale(0.096 -0.096)">
     <defs>
      <path id="ArialMT-44" d="M 494 0 
L 494 4581 
L 2072 4581 
Q 2606 4581 2888 4516 
Q 3281 4425 3559 4188 
Q 3922 3881 4101 3404 
Q 4281 2928 4281 2316 
Q 4281 1794 4159 1391 
Q 4038 988 3847 723 
Q 3656 459 3429 307 
Q 3203 156 2883 78 
Q 2563 0 2147 0 
L 494 0 
z
M 1100 541 
L 2078 541 
Q 2531 541 2789 625 
Q 3047 709 3200 863 
Q 3416 1078 3536 1442 
Q 3656 1806 3656 2325 
Q 3656 3044 3420 3430 
Q 3184 3816 2847 3947 
Q 2603 4041 2063 4041 
L 1100 4041 
L 1100 541 
z
" transform="scale(0.015625)"/>
      <path id="ArialMT-69" d="M 425 3934 
L 425 4581 
L 988 4581 
L 988 3934 
L 425 3934 
z
M 425 0 
L 425 3319 
L 988 3319 
L 988 0 
L 425 0 
z
" transform="scale(0.015625)"/>
     </defs>
     <use xlink:href="#ArialMT-44"/>
     <use xlink:href="#ArialMT-69" x="72.216797"/>
     <use xlink:href="#ArialMT-72" x="94.433594"/>
     <use xlink:href="#ArialMT-65" x="127.734375"/>
     <use xlink:href="#ArialMT-63" x="183.349609"/>
     <use xlink:href="#ArialMT-74" x="233.349609"/>
     <use xlink:href="#ArialMT-69" x="261.132812"/>
     <use xlink:href="#ArialMT-6f" x="283.349609"/>
     <use xlink:href="#ArialMT-6e" x="338.964844"/>
    </g>
   </g>
   <g id="line2d_34">
    <path d="M 485.1645 68.112875 
L 493.9645 68.112875 
L 502.7645 68.112875 
" style="fill: none; stroke: #023eff; stroke-width: 1.5; stroke-linecap: round"/>
   </g>
   <g id="text_22">
    <!-- East -->
    <g style="fill: #262626" transform="translate(509.8045 71.192875) scale(0.088 -0.088)">
     <defs>
      <path id="ArialMT-45" d="M 506 0 
L 506 4581 
L 3819 4581 
L 3819 4041 
L 1113 4041 
L 1113 2638 
L 3647 2638 
L 3647 2100 
L 1113 2100 
L 1113 541 
L 3925 541 
L 3925 0 
L 506 0 
z
" transform="scale(0.015625)"/>
     </defs>
     <use xlink:href="#ArialMT-45"/>
     <use xlink:href="#ArialMT-61" x="66.699219"/>
     <use xlink:href="#ArialMT-73" x="122.314453"/>
     <use xlink:href="#ArialMT-74" x="172.314453"/>
    </g>
   </g>
   <g id="line2d_35">
    <path d="M 485.1645 80.56075 
L 493.9645 80.56075 
L 502.7645 80.56075 
" style="fill: none; stroke: #ff7c00; stroke-width: 1.5; stroke-linecap: round"/>
   </g>
   <g id="text_23">
    <!-- West -->
    <g style="fill: #262626" transform="translate(509.8045 83.64075) scale(0.088 -0.088)">
     <defs>
      <path id="ArialMT-57" d="M 1294 0 
L 78 4581 
L 700 4581 
L 1397 1578 
Q 1509 1106 1591 641 
Q 1766 1375 1797 1488 
L 2669 4581 
L 3400 4581 
L 4056 2263 
Q 4303 1400 4413 641 
Q 4500 1075 4641 1638 
L 5359 4581 
L 5969 4581 
L 4713 0 
L 4128 0 
L 3163 3491 
Q 3041 3928 3019 4028 
Q 2947 3713 2884 3491 
L 1913 0 
L 1294 0 
z
" transform="scale(0.015625)"/>
     </defs>
     <use xlink:href="#ArialMT-57"/>
     <use xlink:href="#ArialMT-65" x="92.634766"/>
     <use xlink:href="#ArialMT-73" x="148.25"/>
     <use xlink:href="#ArialMT-74" x="198.25"/>
    </g>
   </g>
   <g id="line2d_36">
    <path d="M 485.1645 93.008625 
L 493.9645 93.008625 
L 502.7645 93.008625 
" style="fill: none; stroke: #1ac938; stroke-width: 1.5; stroke-linecap: round"/>
   </g>
   <g id="text_24">
    <!-- North -->
    <g style="fill: #262626" transform="translate(509.8045 96.088625) scale(0.088 -0.088)">
     <defs>
      <path id="ArialMT-4e" d="M 488 0 
L 488 4581 
L 1109 4581 
L 3516 984 
L 3516 4581 
L 4097 4581 
L 4097 0 
L 3475 0 
L 1069 3600 
L 1069 0 
L 488 0 
z
" transform="scale(0.015625)"/>
      <path id="ArialMT-68" d="M 422 0 
L 422 4581 
L 984 4581 
L 984 2938 
Q 1378 3394 1978 3394 
Q 2347 3394 2619 3248 
Q 2891 3103 3008 2847 
Q 3125 2591 3125 2103 
L 3125 0 
L 2563 0 
L 2563 2103 
Q 2563 2525 2380 2717 
Q 2197 2909 1863 2909 
Q 1613 2909 1392 2779 
Q 1172 2650 1078 2428 
Q 984 2206 984 1816 
L 984 0 
L 422 0 
z
" transform="scale(0.015625)"/>
     </defs>
     <use xlink:href="#ArialMT-4e"/>
     <use xlink:href="#ArialMT-6f" x="72.216797"/>
     <use xlink:href="#ArialMT-72" x="127.832031"/>
     <use xlink:href="#ArialMT-74" x="161.132812"/>
     <use xlink:href="#ArialMT-68" x="188.916016"/>
    </g>
   </g>
   <g id="line2d_37">
    <path d="M 485.1645 105.4565 
L 493.9645 105.4565 
L 502.7645 105.4565 
" style="fill: none; stroke: #e8000b; stroke-width: 1.5; stroke-linecap: round"/>
   </g>
   <g id="text_25">
    <!-- South -->
    <g style="fill: #262626" transform="translate(509.8045 108.5365) scale(0.088 -0.088)">
     <defs>
      <path id="ArialMT-53" d="M 288 1472 
L 859 1522 
Q 900 1178 1048 958 
Q 1197 738 1509 602 
Q 1822 466 2213 466 
Q 2559 466 2825 569 
Q 3091 672 3220 851 
Q 3350 1031 3350 1244 
Q 3350 1459 3225 1620 
Q 3100 1781 2813 1891 
Q 2628 1963 1997 2114 
Q 1366 2266 1113 2400 
Q 784 2572 623 2826 
Q 463 3081 463 3397 
Q 463 3744 659 4045 
Q 856 4347 1234 4503 
Q 1613 4659 2075 4659 
Q 2584 4659 2973 4495 
Q 3363 4331 3572 4012 
Q 3781 3694 3797 3291 
L 3216 3247 
Q 3169 3681 2898 3903 
Q 2628 4125 2100 4125 
Q 1550 4125 1298 3923 
Q 1047 3722 1047 3438 
Q 1047 3191 1225 3031 
Q 1400 2872 2139 2705 
Q 2878 2538 3153 2413 
Q 3553 2228 3743 1945 
Q 3934 1663 3934 1294 
Q 3934 928 3725 604 
Q 3516 281 3123 101 
Q 2731 -78 2241 -78 
Q 1619 -78 1198 103 
Q 778 284 539 648 
Q 300 1013 288 1472 
z
" transform="scale(0.015625)"/>
     </defs>
     <use xlink:href="#ArialMT-53"/>
     <use xlink:href="#ArialMT-6f" x="66.699219"/>
     <use xlink:href="#ArialMT-75" x="122.314453"/>
     <use xlink:href="#ArialMT-74" x="177.929688"/>
     <use xlink:href="#ArialMT-68" x="205.712891"/>
    </g>
   </g>
  </g>
 </g>
 <defs>
  <clipPath id="pf47b146bac">
   <rect x="52.69016" y="22.848" width="130.58281" height="99.444"/>
  </clipPath>
  <clipPath id="pa4d11d2753">
   <rect x="193.239275" y="22.848" width="130.58281" height="99.444"/>
  </clipPath>
  <clipPath id="p87340c2b52">
   <rect x="333.78839" y="22.848" width="130.58281" height="99.444"/>
  </clipPath>
 </defs>
</svg>
