<?xml version="1.0" encoding="utf-8" standalone="no"?>
<!DOCTYPE svg PUBLIC "-//W3C//DTD SVG 1.1//EN"
  "http://www.w3.org/Graphics/SVG/1.1/DTD/svg11.dtd">
<svg xmlns:xlink="http://www.w3.org/1999/xlink" width="540.72pt" height="162pt" viewBox="0 0 540.72 162" xmlns="http://www.w3.org/2000/svg" version="1.1">
 <metadata>
  <rdf:RDF xmlns:dc="http://purl.org/dc/elements/1.1/" xmlns:cc="http://creativecommons.org/ns#" xmlns:rdf="http://www.w3.org/1999/02/22-rdf-syntax-ns#">
   <cc:Work>
    <dc:type rdf:resource="http://purl.org/dc/dcmitype/StillImage"/>
    <dc:date>2024-08-23T23:33:32.531537</dc:date>
    <dc:format>image/svg+xml</dc:format>
    <dc:creator>
     <cc:Agent>
      <dc:title>Matplotlib v3.9.0, https://matplotlib.org/</dc:title>
     </cc:Agent>
    </dc:creator>
   </cc:Work>
  </rdf:RDF>
 </metadata>
 <defs>
  <style type="text/css">*{stroke-linejoin: round; stroke-linecap: butt}</style>
 </defs>
 <g id="figure_1">
  <g id="patch_1">
   <path d="M 0 162 
L 540.72 162 
L 540.72 0 
L 0 0 
z
" style="fill: #ffffff"/>
  </g>
  <g id="axes_1">
   <g id="patch_2">
    <path d="M 52.69016 122.292 
L 183.27297 122.292 
L 183.27297 22.848 
L 52.69016 22.848 
z
" style="fill: #eaeaf2"/>
   </g>
   <g id="matplotlib.axis_1">
    <g id="xtick_1">
     <g id="line2d_1">
      <path d="M 56.203056 122.292 
L 56.203056 22.848 
" clip-path="url(#pe86854a3e8)" style="fill: none; stroke: #ffffff; stroke-linecap: round"/>
     </g>
     <g id="text_1">
      <!-- 0 -->
      <g style="fill: #262626" transform="translate(53.756243 138.090875) scale(0.088 -0.088)">
       <defs>
        <path id="ArialMT-30" d="M 266 2259 
Q 266 3072 433 3567 
Q 600 4063 929 4331 
Q 1259 4600 1759 4600 
Q 2128 4600 2406 4451 
Q 2684 4303 2865 4023 
Q 3047 3744 3150 3342 
Q 3253 2941 3253 2259 
Q 3253 1453 3087 958 
Q 2922 463 2592 192 
Q 2263 -78 1759 -78 
Q 1097 -78 719 397 
Q 266 969 266 2259 
z
M 844 2259 
Q 844 1131 1108 757 
Q 1372 384 1759 384 
Q 2147 384 2411 759 
Q 2675 1134 2675 2259 
Q 2675 3391 2411 3762 
Q 2147 4134 1753 4134 
Q 1366 4134 1134 3806 
Q 844 3388 844 2259 
z
" transform="scale(0.015625)"/>
       </defs>
       <use xlink:href="#ArialMT-30"/>
      </g>
     </g>
    </g>
    <g id="xtick_2">
     <g id="line2d_2">
      <path d="M 104.656789 122.292 
L 104.656789 22.848 
" clip-path="url(#pe86854a3e8)" style="fill: none; stroke: #ffffff; stroke-linecap: round"/>
     </g>
     <g id="text_2">
      <!-- 20 -->
      <g style="fill: #262626" transform="translate(99.763164 138.090875) scale(0.088 -0.088)">
       <defs>
        <path id="ArialMT-32" d="M 3222 541 
L 3222 0 
L 194 0 
Q 188 203 259 391 
Q 375 700 629 1000 
Q 884 1300 1366 1694 
Q 2113 2306 2375 2664 
Q 2638 3022 2638 3341 
Q 2638 3675 2398 3904 
Q 2159 4134 1775 4134 
Q 1369 4134 1125 3890 
Q 881 3647 878 3216 
L 300 3275 
Q 359 3922 746 4261 
Q 1134 4600 1788 4600 
Q 2447 4600 2831 4234 
Q 3216 3869 3216 3328 
Q 3216 3053 3103 2787 
Q 2991 2522 2730 2228 
Q 2469 1934 1863 1422 
Q 1356 997 1212 845 
Q 1069 694 975 541 
L 3222 541 
z
" transform="scale(0.015625)"/>
       </defs>
       <use xlink:href="#ArialMT-32"/>
       <use xlink:href="#ArialMT-30" x="55.615234"/>
      </g>
     </g>
    </g>
    <g id="xtick_3">
     <g id="line2d_3">
      <path d="M 153.110522 122.292 
L 153.110522 22.848 
" clip-path="url(#pe86854a3e8)" style="fill: none; stroke: #ffffff; stroke-linecap: round"/>
     </g>
     <g id="text_3">
      <!-- 40 -->
      <g style="fill: #262626" transform="translate(148.216897 138.090875) scale(0.088 -0.088)">
       <defs>
        <path id="ArialMT-34" d="M 2069 0 
L 2069 1097 
L 81 1097 
L 81 1613 
L 2172 4581 
L 2631 4581 
L 2631 1613 
L 3250 1613 
L 3250 1097 
L 2631 1097 
L 2631 0 
L 2069 0 
z
M 2069 1613 
L 2069 3678 
L 634 1613 
L 2069 1613 
z
" transform="scale(0.015625)"/>
       </defs>
       <use xlink:href="#ArialMT-34"/>
       <use xlink:href="#ArialMT-30" x="55.615234"/>
      </g>
     </g>
    </g>
    <g id="text_4">
     <!-- Frame -->
     <g style="fill: #262626" transform="translate(104.114815 150.711375) scale(0.096 -0.096)">
      <defs>
       <path id="ArialMT-46" d="M 525 0 
L 525 4581 
L 3616 4581 
L 3616 4041 
L 1131 4041 
L 1131 2622 
L 3281 2622 
L 3281 2081 
L 1131 2081 
L 1131 0 
L 525 0 
z
" transform="scale(0.015625)"/>
       <path id="ArialMT-72" d="M 416 0 
L 416 3319 
L 922 3319 
L 922 2816 
Q 1116 3169 1280 3281 
Q 1444 3394 1641 3394 
Q 1925 3394 2219 3213 
L 2025 2691 
Q 1819 2813 1613 2813 
Q 1428 2813 1281 2702 
Q 1134 2591 1072 2394 
Q 978 2094 978 1738 
L 978 0 
L 416 0 
z
" transform="scale(0.015625)"/>
       <path id="ArialMT-61" d="M 2588 409 
Q 2275 144 1986 34 
Q 1697 -75 1366 -75 
Q 819 -75 525 192 
Q 231 459 231 875 
Q 231 1119 342 1320 
Q 453 1522 633 1644 
Q 813 1766 1038 1828 
Q 1203 1872 1538 1913 
Q 2219 1994 2541 2106 
Q 2544 2222 2544 2253 
Q 2544 2597 2384 2738 
Q 2169 2928 1744 2928 
Q 1347 2928 1158 2789 
Q 969 2650 878 2297 
L 328 2372 
Q 403 2725 575 2942 
Q 747 3159 1072 3276 
Q 1397 3394 1825 3394 
Q 2250 3394 2515 3294 
Q 2781 3194 2906 3042 
Q 3031 2891 3081 2659 
Q 3109 2516 3109 2141 
L 3109 1391 
Q 3109 606 3145 398 
Q 3181 191 3288 0 
L 2700 0 
Q 2613 175 2588 409 
z
M 2541 1666 
Q 2234 1541 1622 1453 
Q 1275 1403 1131 1340 
Q 988 1278 909 1158 
Q 831 1038 831 891 
Q 831 666 1001 516 
Q 1172 366 1500 366 
Q 1825 366 2078 508 
Q 2331 650 2450 897 
Q 2541 1088 2541 1459 
L 2541 1666 
z
" transform="scale(0.015625)"/>
       <path id="ArialMT-6d" d="M 422 0 
L 422 3319 
L 925 3319 
L 925 2853 
Q 1081 3097 1340 3245 
Q 1600 3394 1931 3394 
Q 2300 3394 2536 3241 
Q 2772 3088 2869 2813 
Q 3263 3394 3894 3394 
Q 4388 3394 4653 3120 
Q 4919 2847 4919 2278 
L 4919 0 
L 4359 0 
L 4359 2091 
Q 4359 2428 4304 2576 
Q 4250 2725 4106 2815 
Q 3963 2906 3769 2906 
Q 3419 2906 3187 2673 
Q 2956 2441 2956 1928 
L 2956 0 
L 2394 0 
L 2394 2156 
Q 2394 2531 2256 2718 
Q 2119 2906 1806 2906 
Q 1569 2906 1367 2781 
Q 1166 2656 1075 2415 
Q 984 2175 984 1722 
L 984 0 
L 422 0 
z
" transform="scale(0.015625)"/>
       <path id="ArialMT-65" d="M 2694 1069 
L 3275 997 
Q 3138 488 2766 206 
Q 2394 -75 1816 -75 
Q 1088 -75 661 373 
Q 234 822 234 1631 
Q 234 2469 665 2931 
Q 1097 3394 1784 3394 
Q 2450 3394 2872 2941 
Q 3294 2488 3294 1666 
Q 3294 1616 3291 1516 
L 816 1516 
Q 847 969 1125 678 
Q 1403 388 1819 388 
Q 2128 388 2347 550 
Q 2566 713 2694 1069 
z
M 847 1978 
L 2700 1978 
Q 2663 2397 2488 2606 
Q 2219 2931 1791 2931 
Q 1403 2931 1139 2672 
Q 875 2413 847 1978 
z
" transform="scale(0.015625)"/>
      </defs>
      <use xlink:href="#ArialMT-46"/>
      <use xlink:href="#ArialMT-72" x="61.083984"/>
      <use xlink:href="#ArialMT-61" x="94.384766"/>
      <use xlink:href="#ArialMT-6d" x="150"/>
      <use xlink:href="#ArialMT-65" x="233.300781"/>
     </g>
    </g>
   </g>
   <g id="matplotlib.axis_2">
    <g id="ytick_1">
     <g id="line2d_4">
      <path d="M 52.69016 111.831152 
L 183.27297 111.831152 
" clip-path="url(#pe86854a3e8)" style="fill: none; stroke: #ffffff; stroke-linecap: round"/>
     </g>
     <g id="text_5">
      <!-- 25 -->
      <g style="fill: #262626" transform="translate(33.40291 114.980589) scale(0.088 -0.088)">
       <defs>
        <path id="ArialMT-35" d="M 266 1200 
L 856 1250 
Q 922 819 1161 601 
Q 1400 384 1738 384 
Q 2144 384 2425 690 
Q 2706 997 2706 1503 
Q 2706 1984 2436 2262 
Q 2166 2541 1728 2541 
Q 1456 2541 1237 2417 
Q 1019 2294 894 2097 
L 366 2166 
L 809 4519 
L 3088 4519 
L 3088 3981 
L 1259 3981 
L 1013 2750 
Q 1425 3038 1878 3038 
Q 2478 3038 2890 2622 
Q 3303 2206 3303 1553 
Q 3303 931 2941 478 
Q 2500 -78 1738 -78 
Q 1113 -78 717 272 
Q 322 622 266 1200 
z
" transform="scale(0.015625)"/>
       </defs>
       <use xlink:href="#ArialMT-32"/>
       <use xlink:href="#ArialMT-35" x="55.615234"/>
      </g>
     </g>
    </g>
    <g id="ytick_2">
     <g id="line2d_5">
      <path d="M 52.69016 87.787042 
L 183.27297 87.787042 
" clip-path="url(#pe86854a3e8)" style="fill: none; stroke: #ffffff; stroke-linecap: round"/>
     </g>
     <g id="text_6">
      <!-- 50 -->
      <g style="fill: #262626" transform="translate(33.40291 90.93648) scale(0.088 -0.088)">
       <use xlink:href="#ArialMT-35"/>
       <use xlink:href="#ArialMT-30" x="55.615234"/>
      </g>
     </g>
    </g>
    <g id="ytick_3">
     <g id="line2d_6">
      <path d="M 52.69016 63.742932 
L 183.27297 63.742932 
" clip-path="url(#pe86854a3e8)" style="fill: none; stroke: #ffffff; stroke-linecap: round"/>
     </g>
     <g id="text_7">
      <!-- 75 -->
      <g style="fill: #262626" transform="translate(33.40291 66.89237) scale(0.088 -0.088)">
       <defs>
        <path id="ArialMT-37" d="M 303 3981 
L 303 4522 
L 3269 4522 
L 3269 4084 
Q 2831 3619 2401 2847 
Q 1972 2075 1738 1259 
Q 1569 684 1522 0 
L 944 0 
Q 953 541 1156 1306 
Q 1359 2072 1739 2783 
Q 2119 3494 2547 3981 
L 303 3981 
z
" transform="scale(0.015625)"/>
       </defs>
       <use xlink:href="#ArialMT-37"/>
       <use xlink:href="#ArialMT-35" x="55.615234"/>
      </g>
     </g>
    </g>
    <g id="ytick_4">
     <g id="line2d_7">
      <path d="M 52.69016 39.698823 
L 183.27297 39.698823 
" clip-path="url(#pe86854a3e8)" style="fill: none; stroke: #ffffff; stroke-linecap: round"/>
     </g>
     <g id="text_8">
      <!-- 100 -->
      <g style="fill: #262626" transform="translate(28.509285 42.84826) scale(0.088 -0.088)">
       <defs>
        <path id="ArialMT-31" d="M 2384 0 
L 1822 0 
L 1822 3584 
Q 1619 3391 1289 3197 
Q 959 3003 697 2906 
L 697 3450 
Q 1169 3672 1522 3987 
Q 1875 4303 2022 4600 
L 2384 4600 
L 2384 0 
z
" transform="scale(0.015625)"/>
       </defs>
       <use xlink:href="#ArialMT-31"/>
       <use xlink:href="#ArialMT-30" x="55.615234"/>
       <use xlink:href="#ArialMT-30" x="111.230469"/>
      </g>
     </g>
    </g>
    <g id="text_9">
     <!-- RTT (ms) -->
     <g style="fill: #262626" transform="translate(22.488785 92.66025) rotate(-90) scale(0.096 -0.096)">
      <defs>
       <path id="ArialMT-52" d="M 503 0 
L 503 4581 
L 2534 4581 
Q 3147 4581 3465 4457 
Q 3784 4334 3975 4021 
Q 4166 3709 4166 3331 
Q 4166 2844 3850 2509 
Q 3534 2175 2875 2084 
Q 3116 1969 3241 1856 
Q 3506 1613 3744 1247 
L 4541 0 
L 3778 0 
L 3172 953 
Q 2906 1366 2734 1584 
Q 2563 1803 2427 1890 
Q 2291 1978 2150 2013 
Q 2047 2034 1813 2034 
L 1109 2034 
L 1109 0 
L 503 0 
z
M 1109 2559 
L 2413 2559 
Q 2828 2559 3062 2645 
Q 3297 2731 3419 2920 
Q 3541 3109 3541 3331 
Q 3541 3656 3305 3865 
Q 3069 4075 2559 4075 
L 1109 4075 
L 1109 2559 
z
" transform="scale(0.015625)"/>
       <path id="ArialMT-54" d="M 1659 0 
L 1659 4041 
L 150 4041 
L 150 4581 
L 3781 4581 
L 3781 4041 
L 2266 4041 
L 2266 0 
L 1659 0 
z
" transform="scale(0.015625)"/>
       <path id="ArialMT-20" transform="scale(0.015625)"/>
       <path id="ArialMT-28" d="M 1497 -1347 
Q 1031 -759 709 28 
Q 388 816 388 1659 
Q 388 2403 628 3084 
Q 909 3875 1497 4659 
L 1900 4659 
Q 1522 4009 1400 3731 
Q 1209 3300 1100 2831 
Q 966 2247 966 1656 
Q 966 153 1900 -1347 
L 1497 -1347 
z
" transform="scale(0.015625)"/>
       <path id="ArialMT-73" d="M 197 991 
L 753 1078 
Q 800 744 1014 566 
Q 1228 388 1613 388 
Q 2000 388 2187 545 
Q 2375 703 2375 916 
Q 2375 1106 2209 1216 
Q 2094 1291 1634 1406 
Q 1016 1563 777 1677 
Q 538 1791 414 1992 
Q 291 2194 291 2438 
Q 291 2659 392 2848 
Q 494 3038 669 3163 
Q 800 3259 1026 3326 
Q 1253 3394 1513 3394 
Q 1903 3394 2198 3281 
Q 2494 3169 2634 2976 
Q 2775 2784 2828 2463 
L 2278 2388 
Q 2241 2644 2061 2787 
Q 1881 2931 1553 2931 
Q 1166 2931 1000 2803 
Q 834 2675 834 2503 
Q 834 2394 903 2306 
Q 972 2216 1119 2156 
Q 1203 2125 1616 2013 
Q 2213 1853 2448 1751 
Q 2684 1650 2818 1456 
Q 2953 1263 2953 975 
Q 2953 694 2789 445 
Q 2625 197 2315 61 
Q 2006 -75 1616 -75 
Q 969 -75 630 194 
Q 291 463 197 991 
z
" transform="scale(0.015625)"/>
       <path id="ArialMT-29" d="M 791 -1347 
L 388 -1347 
Q 1322 153 1322 1656 
Q 1322 2244 1188 2822 
Q 1081 3291 891 3722 
Q 769 4003 388 4659 
L 791 4659 
Q 1378 3875 1659 3084 
Q 1900 2403 1900 1659 
Q 1900 816 1576 28 
Q 1253 -759 791 -1347 
z
" transform="scale(0.015625)"/>
      </defs>
      <use xlink:href="#ArialMT-52"/>
      <use xlink:href="#ArialMT-54" x="70.466797"/>
      <use xlink:href="#ArialMT-54" x="131.550781"/>
      <use xlink:href="#ArialMT-20" x="190.884766"/>
      <use xlink:href="#ArialMT-28" x="218.667969"/>
      <use xlink:href="#ArialMT-6d" x="251.96875"/>
      <use xlink:href="#ArialMT-73" x="335.269531"/>
      <use xlink:href="#ArialMT-29" x="385.269531"/>
     </g>
    </g>
   </g>
   <g id="PolyCollection_1">
    <defs>
     <path id="m29be0dad40" d="M 58.625742 -52.09559 
L 58.625742 -50.389679 
L 61.048429 -51.447431 
L 63.471116 -51.62589 
L 65.893802 -51.879257 
L 68.316489 -52.14756 
L 70.739176 -49.22763 
L 73.161862 -49.129325 
L 75.584549 -49.127293 
L 78.007235 -48.291956 
L 80.429922 -48.400994 
L 82.852609 -48.300672 
L 85.275295 -44.729283 
L 87.697982 -45.497434 
L 90.120669 -45.537078 
L 92.543355 -45.554748 
L 94.966042 -45.578263 
L 97.388729 -45.607951 
L 99.811415 -44.547218 
L 102.234102 -44.897973 
L 104.656789 -44.233668 
L 107.079475 -44.312537 
L 109.502162 -44.280175 
L 111.924849 -44.351484 
L 114.347535 -44.613733 
L 116.770222 -45.713901 
L 119.192909 -48.146571 
L 121.615595 -48.332079 
L 124.038282 -50.37188 
L 126.460968 -51.502976 
L 128.883655 -51.650737 
L 131.306342 -52.188214 
L 133.729028 -49.256839 
L 136.151715 -49.312665 
L 138.574402 -49.16231 
L 140.997088 -48.854264 
L 143.419775 -48.42789 
L 145.842462 -48.326052 
L 148.265148 -44.716036 
L 150.687835 -45.521784 
L 153.110522 -45.403166 
L 155.533208 -45.553332 
L 157.955895 -45.576023 
L 160.378582 -45.604448 
L 162.801268 -44.531726 
L 165.223955 -44.915919 
L 167.646642 -44.228182 
L 170.069328 -44.321015 
L 172.492015 -44.321172 
L 174.914702 -44.353361 
L 177.337388 -44.381067 
L 177.337388 -45.637786 
L 177.337388 -45.637786 
L 174.914702 -45.629051 
L 172.492015 -45.551431 
L 170.069328 -45.582386 
L 167.646642 -45.533128 
L 165.223955 -46.296038 
L 162.801268 -46.179686 
L 160.378582 -45.670831 
L 157.955895 -45.644781 
L 155.533208 -45.623096 
L 153.110522 -45.642043 
L 150.687835 -46.409562 
L 148.265148 -46.035817 
L 145.842462 -49.780824 
L 143.419775 -49.853385 
L 140.997088 -50.680899 
L 138.574402 -50.475741 
L 136.151715 -50.683583 
L 133.729028 -50.567183 
L 131.306342 -53.490341 
L 128.883655 -52.851694 
L 126.460968 -52.808304 
L 124.038282 -52.106505 
L 121.615595 -50.522978 
L 119.192909 -50.314169 
L 116.770222 -46.785386 
L 114.347535 -45.824278 
L 111.924849 -45.600278 
L 109.502162 -45.630251 
L 107.079475 -45.555532 
L 104.656789 -45.564873 
L 102.234102 -46.263963 
L 99.811415 -46.097995 
L 97.388729 -45.673486 
L 94.966042 -45.645454 
L 92.543355 -45.62437 
L 90.120669 -45.610255 
L 87.697982 -46.375911 
L 85.275295 -46.023537 
L 82.852609 -49.762418 
L 80.429922 -49.855196 
L 78.007235 -49.764791 
L 75.584549 -50.572096 
L 73.161862 -50.461801 
L 70.739176 -50.578667 
L 68.316489 -53.466511 
L 65.893802 -53.204607 
L 63.471116 -52.81641 
L 61.048429 -52.821528 
L 58.625742 -52.09559 
z
" style="stroke: #023eff; stroke-opacity: 0.2"/>
    </defs>
    <g clip-path="url(#pe86854a3e8)">
     <use xlink:href="#m29be0dad40" x="0" y="162" style="fill: #023eff; fill-opacity: 0.2; stroke: #023eff; stroke-opacity: 0.2"/>
    </g>
   </g>
   <g id="PolyCollection_2">
    <defs>
     <path id="m1940c0f05e" d="M 58.625742 -51.427685 
L 58.625742 -49.70371 
L 61.048429 -51.849214 
L 63.471116 -51.838962 
L 65.893802 -51.900564 
L 68.316489 -52.393528 
L 70.739176 -52.506871 
L 73.161862 -47.573045 
L 75.584549 -47.497589 
L 78.007235 -46.115972 
L 80.429922 -46.224053 
L 82.852609 -46.209424 
L 85.275295 -49.730853 
L 87.697982 -51.538014 
L 90.120669 -51.559057 
L 92.543355 -51.454745 
L 94.966042 -51.379829 
L 97.388729 -51.314799 
L 99.811415 -48.7988 
L 102.234102 -48.685631 
L 104.656789 -47.874804 
L 107.079475 -47.781217 
L 109.502162 -47.729237 
L 111.924849 -49.090034 
L 114.347535 -49.211583 
L 116.770222 -49.163182 
L 119.192909 -48.348712 
L 121.615595 -48.439798 
L 124.038282 -49.789221 
L 126.460968 -51.890914 
L 128.883655 -51.926383 
L 131.306342 -52.478084 
L 133.729028 -52.444708 
L 136.151715 -47.483053 
L 138.574402 -47.50596 
L 140.997088 -46.169227 
L 143.419775 -46.146558 
L 145.842462 -46.177254 
L 148.265148 -49.82063 
L 150.687835 -51.568326 
L 153.110522 -51.534667 
L 155.533208 -51.478042 
L 157.955895 -51.38734 
L 160.378582 -51.316468 
L 162.801268 -48.810499 
L 165.223955 -48.715335 
L 167.646642 -47.806147 
L 170.069328 -47.817629 
L 172.492015 -47.722887 
L 174.914702 -49.035962 
L 177.337388 -49.242515 
L 177.337388 -51.463312 
L 177.337388 -51.463312 
L 174.914702 -51.316649 
L 172.492015 -49.668658 
L 170.069328 -49.723543 
L 167.646642 -49.889335 
L 165.223955 -50.436724 
L 162.801268 -50.559652 
L 160.378582 -53.246321 
L 157.955895 -53.30298 
L 155.533208 -53.314978 
L 153.110522 -53.322208 
L 150.687835 -53.372745 
L 148.265148 -51.195151 
L 145.842462 -47.518455 
L 143.419775 -47.527891 
L 140.997088 -47.505882 
L 138.574402 -49.355451 
L 136.151715 -49.393455 
L 133.729028 -53.9712 
L 131.306342 -54.024359 
L 128.883655 -52.669637 
L 126.460968 -52.60987 
L 124.038282 -51.457431 
L 121.615595 -50.695845 
L 119.192909 -50.695096 
L 116.770222 -51.24958 
L 114.347535 -51.565149 
L 111.924849 -51.222974 
L 109.502162 -49.660879 
L 107.079475 -49.706019 
L 104.656789 -49.79281 
L 102.234102 -50.46362 
L 99.811415 -50.647447 
L 97.388729 -53.193622 
L 94.966042 -53.309544 
L 92.543355 -53.322683 
L 90.120669 -53.322133 
L 87.697982 -53.363489 
L 85.275295 -51.166176 
L 82.852609 -47.518739 
L 80.429922 -47.48457 
L 78.007235 -47.470574 
L 75.584549 -49.389172 
L 73.161862 -49.414083 
L 70.739176 -53.91203 
L 68.316489 -53.968064 
L 65.893802 -52.668943 
L 63.471116 -52.599517 
L 61.048429 -52.597706 
L 58.625742 -51.427685 
z
" style="stroke: #ff7c00; stroke-opacity: 0.2"/>
    </defs>
    <g clip-path="url(#pe86854a3e8)">
     <use xlink:href="#m1940c0f05e" x="0" y="162" style="fill: #ff7c00; fill-opacity: 0.2; stroke: #ff7c00; stroke-opacity: 0.2"/>
    </g>
   </g>
   <g id="PolyCollection_3">
    <defs>
     <path id="m16e784ac88" d="M 58.625742 -68.266545 
L 58.625742 -64.011018 
L 61.048429 -64.16103 
L 63.471116 -64.064788 
L 65.893802 -64.175361 
L 68.316489 -63.977527 
L 70.739176 -64.250998 
L 73.161862 -64.315508 
L 75.584549 -64.258061 
L 78.007235 -64.524058 
L 80.429922 -64.428079 
L 82.852609 -65.219711 
L 85.275295 -63.383554 
L 87.697982 -63.629508 
L 90.120669 -63.634182 
L 92.543355 -63.631662 
L 94.966042 -63.75851 
L 97.388729 -63.594278 
L 99.811415 -63.735692 
L 102.234102 -68.025381 
L 104.656789 -68.074667 
L 107.079475 -68.189145 
L 109.502162 -67.612071 
L 111.924849 -67.221328 
L 114.347535 -67.13623 
L 116.770222 -67.935154 
L 119.192909 -66.510186 
L 121.615595 -66.593282 
L 124.038282 -64.017247 
L 126.460968 -64.009152 
L 128.883655 -64.122391 
L 131.306342 -64.328872 
L 133.729028 -64.29072 
L 136.151715 -64.323229 
L 138.574402 -64.233404 
L 140.997088 -64.444503 
L 143.419775 -64.410158 
L 145.842462 -65.144127 
L 148.265148 -63.89973 
L 150.687835 -63.705416 
L 153.110522 -63.594843 
L 155.533208 -63.636419 
L 157.955895 -63.637213 
L 160.378582 -63.720299 
L 162.801268 -63.725368 
L 165.223955 -68.032848 
L 167.646642 -68.067173 
L 170.069328 -68.052644 
L 172.492015 -67.585657 
L 174.914702 -67.118717 
L 177.337388 -67.247381 
L 177.337388 -70.038816 
L 177.337388 -70.038816 
L 174.914702 -69.973128 
L 172.492015 -70.384088 
L 170.069328 -70.815568 
L 167.646642 -70.754535 
L 165.223955 -70.660705 
L 162.801268 -67.646873 
L 160.378582 -67.697733 
L 157.955895 -67.621793 
L 155.533208 -67.699104 
L 153.110522 -67.493119 
L 150.687835 -67.613199 
L 148.265148 -67.910919 
L 145.842462 -69.342813 
L 143.419775 -68.332828 
L 140.997088 -68.574609 
L 138.574402 -68.234272 
L 136.151715 -68.301779 
L 133.729028 -68.440422 
L 131.306342 -68.549887 
L 128.883655 -68.216071 
L 126.460968 -68.259159 
L 124.038282 -68.353264 
L 121.615595 -69.842958 
L 119.192909 -69.832648 
L 116.770222 -70.938966 
L 114.347535 -70.143944 
L 111.924849 -69.997421 
L 109.502162 -70.319453 
L 107.079475 -70.799941 
L 104.656789 -70.679107 
L 102.234102 -70.589409 
L 99.811415 -67.660284 
L 97.388729 -67.711146 
L 94.966042 -67.520152 
L 92.543355 -67.602019 
L 90.120669 -67.478908 
L 87.697982 -67.4307 
L 85.275295 -67.435588 
L 82.852609 -69.253831 
L 80.429922 -68.275609 
L 78.007235 -68.47431 
L 75.584549 -68.336122 
L 73.161862 -68.213882 
L 70.739176 -68.300334 
L 68.316489 -68.279941 
L 65.893802 -68.351845 
L 63.471116 -68.305075 
L 61.048429 -68.114143 
L 58.625742 -68.266545 
z
" style="stroke: #1ac938; stroke-opacity: 0.2"/>
    </defs>
    <g clip-path="url(#pe86854a3e8)">
     <use xlink:href="#m16e784ac88" x="0" y="162" style="fill: #1ac938; fill-opacity: 0.2; stroke: #1ac938; stroke-opacity: 0.2"/>
    </g>
   </g>
   <g id="PolyCollection_4">
    <defs>
     <path id="m4c45fc872d" d="M 58.625742 -63.15695 
L 58.625742 -61.19543 
L 61.048429 -61.165268 
L 63.471116 -61.0822 
L 65.893802 -61.081657 
L 68.316489 -61.799324 
L 70.739176 -61.860541 
L 73.161862 -61.825874 
L 75.584549 -61.746277 
L 78.007235 -61.719041 
L 80.429922 -61.722365 
L 82.852609 -61.841615 
L 85.275295 -61.755119 
L 87.697982 -61.757738 
L 90.120669 -61.778145 
L 92.543355 -61.775437 
L 94.966042 -61.909895 
L 97.388729 -62.199156 
L 99.811415 -62.134712 
L 102.234102 -65.486504 
L 104.656789 -65.500188 
L 107.079475 -65.561484 
L 109.502162 -65.579676 
L 111.924849 -64.281355 
L 114.347535 -64.331919 
L 116.770222 -64.608385 
L 119.192909 -63.42577 
L 121.615595 -63.483192 
L 124.038282 -61.057448 
L 126.460968 -61.112479 
L 128.883655 -61.065306 
L 131.306342 -61.91601 
L 133.729028 -61.916248 
L 136.151715 -61.774271 
L 138.574402 -61.76183 
L 140.997088 -61.627201 
L 143.419775 -61.775952 
L 145.842462 -61.787153 
L 148.265148 -61.725702 
L 150.687835 -61.73179 
L 153.110522 -61.895239 
L 155.533208 -61.790427 
L 157.955895 -62.050397 
L 160.378582 -62.261548 
L 162.801268 -62.151924 
L 165.223955 -65.423869 
L 167.646642 -65.493174 
L 170.069328 -65.538936 
L 172.492015 -65.564323 
L 174.914702 -64.280604 
L 177.337388 -64.339938 
L 177.337388 -65.724856 
L 177.337388 -65.724856 
L 174.914702 -65.610976 
L 172.492015 -66.747321 
L 170.069328 -66.759426 
L 167.646642 -66.625034 
L 165.223955 -66.600563 
L 162.801268 -64.518423 
L 160.378582 -64.408677 
L 157.955895 -64.251116 
L 155.533208 -63.986359 
L 153.110522 -64.019824 
L 150.687835 -64.011484 
L 148.265148 -63.818516 
L 145.842462 -63.861413 
L 143.419775 -63.85409 
L 140.997088 -63.865154 
L 138.574402 -63.853384 
L 136.151715 -63.824023 
L 133.729028 -63.987407 
L 131.306342 -64.023027 
L 128.883655 -63.120832 
L 126.460968 -63.128595 
L 124.038282 -63.13592 
L 121.615595 -64.898303 
L 119.192909 -64.82439 
L 116.770222 -65.899306 
L 114.347535 -65.676424 
L 111.924849 -65.643358 
L 109.502162 -66.688071 
L 107.079475 -66.69909 
L 104.656789 -66.657324 
L 102.234102 -66.628843 
L 99.811415 -64.384541 
L 97.388729 -64.49423 
L 94.966042 -64.232654 
L 92.543355 -64.023431 
L 90.120669 -63.977157 
L 87.697982 -63.940385 
L 85.275295 -63.950888 
L 82.852609 -63.982759 
L 80.429922 -63.917214 
L 78.007235 -63.835674 
L 75.584549 -63.860018 
L 73.161862 -63.847325 
L 70.739176 -64.073621 
L 68.316489 -63.961566 
L 65.893802 -63.021817 
L 63.471116 -63.100079 
L 61.048429 -63.140538 
L 58.625742 -63.15695 
z
" style="stroke: #e8000b; stroke-opacity: 0.2"/>
    </defs>
    <g clip-path="url(#pe86854a3e8)">
     <use xlink:href="#m4c45fc872d" x="0" y="162" style="fill: #e8000b; fill-opacity: 0.2; stroke: #e8000b; stroke-opacity: 0.2"/>
    </g>
   </g>
   <g id="line2d_8">
    <path d="M 58.625742 110.761033 
L 61.048429 109.877065 
L 63.471116 109.78692 
L 65.893802 109.455872 
L 68.316489 109.176612 
L 70.739176 112.063803 
L 73.161862 112.166098 
L 75.584549 112.137082 
L 78.007235 112.882202 
L 80.429922 112.874035 
L 82.852609 112.911948 
L 85.275295 116.659927 
L 87.697982 116.10029 
L 90.120669 116.426351 
L 92.543355 116.410142 
L 94.966042 116.387771 
L 97.388729 116.359282 
L 99.811415 116.671344 
L 102.234102 116.372236 
L 104.656789 117.112534 
L 107.079475 117.074045 
L 109.502162 117.072671 
L 111.924849 117.032625 
L 114.347535 116.795488 
L 116.770222 115.755661 
L 119.192909 112.700619 
L 121.615595 112.554268 
L 124.038282 110.761636 
L 126.460968 109.875663 
L 128.883655 109.776403 
L 131.306342 109.17638 
L 133.729028 112.075792 
L 136.151715 112.003217 
L 138.574402 112.137886 
L 140.997088 112.239961 
L 143.419775 112.874794 
L 145.842462 112.913091 
L 148.265148 116.662075 
L 150.687835 116.100991 
L 153.110522 116.45806 
L 155.533208 116.41179 
L 157.955895 116.389939 
L 160.378582 116.361976 
L 162.801268 116.672679 
L 165.223955 116.374447 
L 167.646642 117.114536 
L 170.069328 117.076645 
L 172.492015 117.075822 
L 174.914702 117.036345 
L 177.337388 116.99016 
" clip-path="url(#pe86854a3e8)" style="fill: none; stroke: #023eff; stroke-width: 1.5; stroke-linecap: round"/>
   </g>
   <g id="line2d_9">
    <path d="M 58.625742 111.436414 
L 61.048429 109.748656 
L 63.471116 109.746752 
L 65.893802 109.71304 
L 68.316489 108.819204 
L 70.739176 108.790614 
L 73.161862 113.517083 
L 75.584549 113.518465 
L 78.007235 115.172876 
L 80.429922 115.167436 
L 82.852609 115.158776 
L 85.275295 111.489626 
L 87.697982 109.549018 
L 90.120669 109.590856 
L 92.543355 109.627943 
L 94.966042 109.660296 
L 97.388729 109.687928 
L 99.811415 112.28137 
L 102.234102 112.448281 
L 104.656789 113.168772 
L 107.079475 113.26352 
L 109.502162 113.273251 
L 111.924849 111.845807 
L 114.347535 111.643545 
L 116.770222 111.823659 
L 119.192909 112.431642 
L 121.615595 112.417757 
L 124.038282 111.437482 
L 126.460968 109.749486 
L 128.883655 109.716118 
L 131.306342 108.821467 
L 133.729028 108.793286 
L 136.151715 113.516811 
L 138.574402 113.518479 
L 140.997088 115.173193 
L 143.419775 115.168035 
L 145.842462 115.159645 
L 148.265148 111.488979 
L 150.687835 109.545193 
L 153.110522 109.587423 
L 155.533208 109.624921 
L 157.955895 109.657675 
L 160.378582 109.685717 
L 162.801268 112.278764 
L 165.223955 112.446515 
L 167.646642 113.167022 
L 170.069328 113.262421 
L 172.492015 113.272627 
L 174.914702 111.846326 
L 177.337388 111.644092 
" clip-path="url(#pe86854a3e8)" style="fill: none; stroke: #ff7c00; stroke-width: 1.5; stroke-linecap: round"/>
   </g>
   <g id="line2d_10">
    <path d="M 58.625742 95.896965 
L 61.048429 95.889641 
L 63.471116 95.888982 
L 65.893802 95.874907 
L 68.316489 95.68147 
L 70.739176 95.65085 
L 73.161862 95.680194 
L 75.584549 95.689576 
L 78.007235 95.509252 
L 80.429922 95.692535 
L 82.852609 94.720021 
L 85.275295 96.452445 
L 87.697982 96.438339 
L 90.120669 96.419509 
L 92.543355 96.395934 
L 94.966042 96.36765 
L 97.388729 96.334641 
L 99.811415 96.296925 
L 102.234102 92.705005 
L 104.656789 92.644361 
L 107.079475 92.579342 
L 109.502162 93.033975 
L 111.924849 93.439757 
L 114.347535 93.374906 
L 116.770222 92.625392 
L 119.192909 93.905312 
L 121.615595 93.878164 
L 124.038282 95.897071 
L 126.460968 95.889932 
L 128.883655 95.876408 
L 131.306342 95.683852 
L 133.729028 95.653778 
L 136.151715 95.679108 
L 138.574402 95.688966 
L 140.997088 95.509342 
L 143.419775 95.692874 
L 145.842462 94.72152 
L 148.265148 96.032059 
L 150.687835 96.439778 
L 153.110522 96.42134 
L 155.533208 96.398182 
L 157.955895 96.370281 
L 160.378582 96.337685 
L 162.801268 96.300376 
L 165.223955 92.710057 
L 167.646642 92.649784 
L 170.069328 92.585137 
L 172.492015 93.038709 
L 174.914702 93.445181 
L 177.337388 93.380656 
" clip-path="url(#pe86854a3e8)" style="fill: none; stroke: #1ac938; stroke-width: 1.5; stroke-linecap: round"/>
   </g>
   <g id="line2d_11">
    <path d="M 58.625742 99.865282 
L 61.048429 99.856629 
L 63.471116 99.855963 
L 65.893802 99.842703 
L 68.316489 99.058941 
L 70.739176 99.04456 
L 73.161862 99.183379 
L 75.584549 99.183523 
L 78.007235 99.179577 
L 80.429922 99.171559 
L 82.852609 99.159507 
L 85.275295 99.143414 
L 87.697982 99.123316 
L 90.120669 99.099209 
L 92.543355 99.071043 
L 94.966042 98.882655 
L 97.388729 98.687396 
L 99.811415 98.66617 
L 102.234102 95.963447 
L 104.656789 95.929881 
L 107.079475 95.891046 
L 109.502162 95.846915 
L 111.924849 97.062261 
L 114.347535 97.009599 
L 116.770222 96.739302 
L 119.192909 97.866 
L 121.615595 97.830509 
L 124.038282 99.865448 
L 126.460968 99.856922 
L 128.883655 99.844024 
L 131.306342 99.059958 
L 133.729028 99.046034 
L 136.151715 99.18318 
L 138.574402 99.18368 
L 140.997088 99.180074 
L 143.419775 99.172415 
L 145.842462 99.160708 
L 148.265148 99.14498 
L 150.687835 99.125237 
L 153.110522 99.101462 
L 155.533208 99.073656 
L 157.955895 98.884702 
L 160.378582 98.688966 
L 162.801268 98.668215 
L 165.223955 95.9661 
L 167.646642 95.932989 
L 170.069328 95.894597 
L 172.492015 95.850937 
L 174.914702 97.066563 
L 177.337388 97.014319 
" clip-path="url(#pe86854a3e8)" style="fill: none; stroke: #e8000b; stroke-width: 1.5; stroke-linecap: round"/>
   </g>
   <g id="patch_3">
    <path d="M 52.69016 122.292 
L 52.69016 22.848 
" style="fill: none; stroke: #ffffff; stroke-width: 1.25; stroke-linejoin: miter; stroke-linecap: square"/>
   </g>
   <g id="patch_4">
    <path d="M 52.69016 122.292 
L 183.27297 122.292 
" style="fill: none; stroke: #ffffff; stroke-width: 1.25; stroke-linejoin: miter; stroke-linecap: square"/>
   </g>
   <g id="text_10">
    <!-- Landlocked -->
    <g style="fill: #262626" transform="translate(93.430315 16.848) scale(0.096 -0.096)">
     <defs>
      <path id="ArialMT-4c" d="M 469 0 
L 469 4581 
L 1075 4581 
L 1075 541 
L 3331 541 
L 3331 0 
L 469 0 
z
" transform="scale(0.015625)"/>
      <path id="ArialMT-6e" d="M 422 0 
L 422 3319 
L 928 3319 
L 928 2847 
Q 1294 3394 1984 3394 
Q 2284 3394 2536 3286 
Q 2788 3178 2913 3003 
Q 3038 2828 3088 2588 
Q 3119 2431 3119 2041 
L 3119 0 
L 2556 0 
L 2556 2019 
Q 2556 2363 2490 2533 
Q 2425 2703 2258 2804 
Q 2091 2906 1866 2906 
Q 1506 2906 1245 2678 
Q 984 2450 984 1813 
L 984 0 
L 422 0 
z
" transform="scale(0.015625)"/>
      <path id="ArialMT-64" d="M 2575 0 
L 2575 419 
Q 2259 -75 1647 -75 
Q 1250 -75 917 144 
Q 584 363 401 755 
Q 219 1147 219 1656 
Q 219 2153 384 2558 
Q 550 2963 881 3178 
Q 1213 3394 1622 3394 
Q 1922 3394 2156 3267 
Q 2391 3141 2538 2938 
L 2538 4581 
L 3097 4581 
L 3097 0 
L 2575 0 
z
M 797 1656 
Q 797 1019 1065 703 
Q 1334 388 1700 388 
Q 2069 388 2326 689 
Q 2584 991 2584 1609 
Q 2584 2291 2321 2609 
Q 2059 2928 1675 2928 
Q 1300 2928 1048 2622 
Q 797 2316 797 1656 
z
" transform="scale(0.015625)"/>
      <path id="ArialMT-6c" d="M 409 0 
L 409 4581 
L 972 4581 
L 972 0 
L 409 0 
z
" transform="scale(0.015625)"/>
      <path id="ArialMT-6f" d="M 213 1659 
Q 213 2581 725 3025 
Q 1153 3394 1769 3394 
Q 2453 3394 2887 2945 
Q 3322 2497 3322 1706 
Q 3322 1066 3130 698 
Q 2938 331 2570 128 
Q 2203 -75 1769 -75 
Q 1072 -75 642 372 
Q 213 819 213 1659 
z
M 791 1659 
Q 791 1022 1069 705 
Q 1347 388 1769 388 
Q 2188 388 2466 706 
Q 2744 1025 2744 1678 
Q 2744 2294 2464 2611 
Q 2184 2928 1769 2928 
Q 1347 2928 1069 2612 
Q 791 2297 791 1659 
z
" transform="scale(0.015625)"/>
      <path id="ArialMT-63" d="M 2588 1216 
L 3141 1144 
Q 3050 572 2676 248 
Q 2303 -75 1759 -75 
Q 1078 -75 664 370 
Q 250 816 250 1647 
Q 250 2184 428 2587 
Q 606 2991 970 3192 
Q 1334 3394 1763 3394 
Q 2303 3394 2647 3120 
Q 2991 2847 3088 2344 
L 2541 2259 
Q 2463 2594 2264 2762 
Q 2066 2931 1784 2931 
Q 1359 2931 1093 2626 
Q 828 2322 828 1663 
Q 828 994 1084 691 
Q 1341 388 1753 388 
Q 2084 388 2306 591 
Q 2528 794 2588 1216 
z
" transform="scale(0.015625)"/>
      <path id="ArialMT-6b" d="M 425 0 
L 425 4581 
L 988 4581 
L 988 1969 
L 2319 3319 
L 3047 3319 
L 1778 2088 
L 3175 0 
L 2481 0 
L 1384 1697 
L 988 1316 
L 988 0 
L 425 0 
z
" transform="scale(0.015625)"/>
     </defs>
     <use xlink:href="#ArialMT-4c"/>
     <use xlink:href="#ArialMT-61" x="55.615234"/>
     <use xlink:href="#ArialMT-6e" x="111.230469"/>
     <use xlink:href="#ArialMT-64" x="166.845703"/>
     <use xlink:href="#ArialMT-6c" x="222.460938"/>
     <use xlink:href="#ArialMT-6f" x="244.677734"/>
     <use xlink:href="#ArialMT-63" x="300.292969"/>
     <use xlink:href="#ArialMT-6b" x="350.292969"/>
     <use xlink:href="#ArialMT-65" x="400.292969"/>
     <use xlink:href="#ArialMT-64" x="455.908203"/>
    </g>
   </g>
  </g>
  <g id="axes_2">
   <g id="patch_5">
    <path d="M 193.239275 122.292 
L 323.822085 122.292 
L 323.822085 22.848 
L 193.239275 22.848 
z
" style="fill: #eaeaf2"/>
   </g>
   <g id="matplotlib.axis_3">
    <g id="xtick_4">
     <g id="line2d_12">
      <path d="M 196.75217 122.292 
L 196.75217 22.848 
" clip-path="url(#p6558082bba)" style="fill: none; stroke: #ffffff; stroke-linecap: round"/>
     </g>
     <g id="text_11">
      <!-- 0 -->
      <g style="fill: #262626" transform="translate(194.305358 138.090875) scale(0.088 -0.088)">
       <use xlink:href="#ArialMT-30"/>
      </g>
     </g>
    </g>
    <g id="xtick_5">
     <g id="line2d_13">
      <path d="M 245.205903 122.292 
L 245.205903 22.848 
" clip-path="url(#p6558082bba)" style="fill: none; stroke: #ffffff; stroke-linecap: round"/>
     </g>
     <g id="text_12">
      <!-- 20 -->
      <g style="fill: #262626" transform="translate(240.312278 138.090875) scale(0.088 -0.088)">
       <use xlink:href="#ArialMT-32"/>
       <use xlink:href="#ArialMT-30" x="55.615234"/>
      </g>
     </g>
    </g>
    <g id="xtick_6">
     <g id="line2d_14">
      <path d="M 293.659636 122.292 
L 293.659636 22.848 
" clip-path="url(#p6558082bba)" style="fill: none; stroke: #ffffff; stroke-linecap: round"/>
     </g>
     <g id="text_13">
      <!-- 40 -->
      <g style="fill: #262626" transform="translate(288.766011 138.090875) scale(0.088 -0.088)">
       <use xlink:href="#ArialMT-34"/>
       <use xlink:href="#ArialMT-30" x="55.615234"/>
      </g>
     </g>
    </g>
    <g id="text_14">
     <!-- Frame -->
     <g style="fill: #262626" transform="translate(244.66393 150.711375) scale(0.096 -0.096)">
      <use xlink:href="#ArialMT-46"/>
      <use xlink:href="#ArialMT-72" x="61.083984"/>
      <use xlink:href="#ArialMT-61" x="94.384766"/>
      <use xlink:href="#ArialMT-6d" x="150"/>
      <use xlink:href="#ArialMT-65" x="233.300781"/>
     </g>
    </g>
   </g>
   <g id="matplotlib.axis_4">
    <g id="ytick_5">
     <g id="line2d_15">
      <path d="M 193.239275 111.831152 
L 323.822085 111.831152 
" clip-path="url(#p6558082bba)" style="fill: none; stroke: #ffffff; stroke-linecap: round"/>
     </g>
    </g>
    <g id="ytick_6">
     <g id="line2d_16">
      <path d="M 193.239275 87.787042 
L 323.822085 87.787042 
" clip-path="url(#p6558082bba)" style="fill: none; stroke: #ffffff; stroke-linecap: round"/>
     </g>
    </g>
    <g id="ytick_7">
     <g id="line2d_17">
      <path d="M 193.239275 63.742932 
L 323.822085 63.742932 
" clip-path="url(#p6558082bba)" style="fill: none; stroke: #ffffff; stroke-linecap: round"/>
     </g>
    </g>
    <g id="ytick_8">
     <g id="line2d_18">
      <path d="M 193.239275 39.698823 
L 323.822085 39.698823 
" clip-path="url(#p6558082bba)" style="fill: none; stroke: #ffffff; stroke-linecap: round"/>
     </g>
    </g>
   </g>
   <g id="PolyCollection_5"/>
   <g id="PolyCollection_6">
    <defs>
     <path id="m9f8d837489" d="M 199.174857 -130.57551 
L 199.174857 -129.082129 
L 201.597544 -128.781831 
L 204.02023 -128.832383 
L 206.442917 -128.820967 
L 208.865604 -128.772097 
L 211.28829 -128.779381 
L 213.710977 -128.302904 
L 216.133664 -128.048367 
L 218.55635 -128.10508 
L 220.979037 -92.173133 
L 223.401724 -92.31658 
L 225.82441 -91.976791 
L 228.247097 -91.376128 
L 230.669784 -92.347805 
L 233.09247 -92.254514 
L 235.515157 -92.012117 
L 237.937843 -91.958362 
L 240.36053 -91.756694 
L 242.783217 -77.333607 
L 245.205903 -77.758312 
L 247.62859 -77.742809 
L 250.051277 -77.498794 
L 252.473963 -54.236124 
L 254.89665 -129.296637 
L 257.319337 -129.305911 
L 259.742023 -128.509481 
L 262.16471 -128.507276 
L 264.587397 -129.094316 
L 267.010083 -128.820908 
L 269.43277 -128.821238 
L 271.855457 -128.836249 
L 274.278143 -128.871359 
L 276.70083 -128.315314 
L 279.123517 -128.107304 
L 281.546203 -128.119703 
L 283.96889 -92.09701 
L 286.391576 -92.329049 
L 288.814263 -92.141787 
L 291.23695 -91.537799 
L 293.659636 -92.357659 
L 296.082323 -91.373296 
L 298.50501 -91.780357 
L 300.927696 -91.904852 
L 303.350383 -92.723332 
L 305.77307 -77.720167 
L 308.195756 -77.371701 
L 310.618443 -77.333429 
L 313.04113 -77.562375 
L 315.463816 -54.11156 
L 317.886503 -129.310765 
L 317.886503 -131.320057 
L 317.886503 -131.320057 
L 315.463816 -56.047161 
L 313.04113 -91.499893 
L 310.618443 -91.11231 
L 308.195756 -91.179624 
L 305.77307 -91.98659 
L 303.350383 -106.50857 
L 300.927696 -106.961858 
L 298.50501 -106.095096 
L 296.082323 -106.899786 
L 293.659636 -106.250774 
L 291.23695 -106.655262 
L 288.814263 -106.867681 
L 286.391576 -106.136071 
L 283.96889 -106.43786 
L 281.546203 -129.457351 
L 279.123517 -129.449089 
L 276.70083 -129.729446 
L 274.278143 -130.295048 
L 271.855457 -130.279827 
L 269.43277 -130.237651 
L 267.010083 -130.271278 
L 264.587397 -130.502978 
L 262.16471 -130.968423 
L 259.742023 -131.092353 
L 257.319337 -131.323325 
L 254.89665 -131.323956 
L 252.473963 -56.082653 
L 250.051277 -91.303404 
L 247.62859 -91.630469 
L 245.205903 -91.259398 
L 242.783217 -91.660132 
L 240.36053 -107.743608 
L 237.937843 -106.630385 
L 235.515157 -106.638772 
L 233.09247 -106.971915 
L 230.669784 -106.938677 
L 228.247097 -106.917417 
L 225.82441 -106.509792 
L 223.401724 -107.166138 
L 220.979037 -106.92794 
L 218.55635 -129.496376 
L 216.133664 -129.428703 
L 213.710977 -129.78806 
L 211.28829 -130.268739 
L 208.865604 -130.261212 
L 206.442917 -130.208433 
L 204.02023 -130.1797 
L 201.597544 -130.238577 
L 199.174857 -130.57551 
z
" style="stroke: #ff7c00; stroke-opacity: 0.2"/>
    </defs>
    <g clip-path="url(#p6558082bba)">
     <use xlink:href="#m9f8d837489" x="0" y="162" style="fill: #ff7c00; fill-opacity: 0.2; stroke: #ff7c00; stroke-opacity: 0.2"/>
    </g>
   </g>
   <g id="PolyCollection_7">
    <defs>
     <path id="m3ef42adfae" d="M 199.174857 -47.640099 
L 199.174857 -45.828707 
L 201.597544 -45.739533 
L 204.02023 -45.784396 
L 206.442917 -45.737756 
L 208.865604 -45.813504 
L 211.28829 -48.276513 
L 213.710977 -48.330845 
L 216.133664 -48.329981 
L 218.55635 -48.357758 
L 220.979037 -48.393723 
L 223.401724 -48.403681 
L 225.82441 -48.371439 
L 228.247097 -48.400877 
L 230.669784 -48.554072 
L 233.09247 -48.625401 
L 235.515157 -46.34087 
L 237.937843 -46.363173 
L 240.36053 -45.833267 
L 242.783217 -45.807051 
L 245.205903 -46.603562 
L 247.62859 -46.361905 
L 250.051277 -46.248737 
L 252.473963 -46.237489 
L 254.89665 -45.742233 
L 257.319337 -45.755255 
L 259.742023 -45.898167 
L 262.16471 -45.784413 
L 264.587397 -45.79853 
L 267.010083 -45.790132 
L 269.43277 -45.811982 
L 271.855457 -45.792483 
L 274.278143 -48.331992 
L 276.70083 -48.330322 
L 279.123517 -48.343301 
L 281.546203 -48.304896 
L 283.96889 -48.344479 
L 286.391576 -48.397131 
L 288.814263 -48.425019 
L 291.23695 -48.454231 
L 293.659636 -48.541642 
L 296.082323 -48.621554 
L 298.50501 -46.447656 
L 300.927696 -46.2896 
L 303.350383 -46.368555 
L 305.77307 -45.806925 
L 308.195756 -46.577052 
L 310.618443 -46.247635 
L 313.04113 -46.14981 
L 315.463816 -46.182614 
L 317.886503 -45.874556 
L 317.886503 -47.802121 
L 317.886503 -47.802121 
L 315.463816 -48.259604 
L 313.04113 -48.322404 
L 310.618443 -48.312884 
L 308.195756 -48.741043 
L 305.77307 -47.300905 
L 303.350383 -48.19057 
L 300.927696 -48.134964 
L 298.50501 -48.122072 
L 296.082323 -49.701403 
L 293.659636 -49.633834 
L 291.23695 -49.508734 
L 288.814263 -49.48369 
L 286.391576 -49.454535 
L 283.96889 -49.455386 
L 281.546203 -49.439121 
L 279.123517 -49.421776 
L 276.70083 -49.442228 
L 274.278143 -49.42332 
L 271.855457 -47.607115 
L 269.43277 -47.662397 
L 267.010083 -47.609318 
L 264.587397 -47.679279 
L 262.16471 -47.663918 
L 259.742023 -47.764815 
L 257.319337 -47.765581 
L 254.89665 -47.812419 
L 252.473963 -48.249159 
L 250.051277 -48.284005 
L 247.62859 -48.308181 
L 245.205903 -48.739189 
L 242.783217 -47.296882 
L 240.36053 -47.232893 
L 237.937843 -48.054644 
L 235.515157 -48.147065 
L 233.09247 -49.695554 
L 230.669784 -49.636273 
L 228.247097 -49.464947 
L 225.82441 -49.481325 
L 223.401724 -49.468498 
L 220.979037 -49.447507 
L 218.55635 -49.430331 
L 216.133664 -49.445765 
L 213.710977 -49.441912 
L 211.28829 -49.447719 
L 208.865604 -47.589452 
L 206.442917 -47.669515 
L 204.02023 -47.653417 
L 201.597544 -47.631306 
L 199.174857 -47.640099 
z
" style="stroke: #1ac938; stroke-opacity: 0.2"/>
    </defs>
    <g clip-path="url(#p6558082bba)">
     <use xlink:href="#m3ef42adfae" x="0" y="162" style="fill: #1ac938; fill-opacity: 0.2; stroke: #1ac938; stroke-opacity: 0.2"/>
    </g>
   </g>
   <g id="PolyCollection_8">
    <defs>
     <path id="m4431674e84" d="M 199.174857 -75.847805 
L 199.174857 -64.759544 
L 201.597544 -64.830479 
L 204.02023 -64.817584 
L 206.442917 -65.137996 
L 208.865604 -64.983483 
L 211.28829 -70.789537 
L 213.710977 -70.713662 
L 216.133664 -71.220674 
L 218.55635 -70.002954 
L 220.979037 -70.506623 
L 223.401724 -70.323279 
L 225.82441 -70.650694 
L 228.247097 -71.271973 
L 230.669784 -71.490805 
L 233.09247 -71.517634 
L 235.515157 -69.597716 
L 237.937843 -69.767637 
L 240.36053 -69.614007 
L 242.783217 -69.333787 
L 245.205903 -62.287003 
L 247.62859 -62.561725 
L 250.051277 -62.034537 
L 252.473963 -62.6261 
L 254.89665 -62.372968 
L 257.319337 -62.141446 
L 259.742023 -62.341331 
L 262.16471 -62.766703 
L 264.587397 -64.605032 
L 267.010083 -64.88874 
L 269.43277 -65.259227 
L 271.855457 -64.808346 
L 274.278143 -71.173696 
L 276.70083 -71.278577 
L 279.123517 -71.343647 
L 281.546203 -70.413116 
L 283.96889 -70.253658 
L 286.391576 -70.454422 
L 288.814263 -70.706336 
L 291.23695 -71.026176 
L 293.659636 -71.188197 
L 296.082323 -71.084734 
L 298.50501 -69.464911 
L 300.927696 -69.011785 
L 303.350383 -69.681106 
L 305.77307 -69.792642 
L 308.195756 -62.550276 
L 310.618443 -62.661654 
L 313.04113 -62.524928 
L 315.463816 -62.453975 
L 317.886503 -62.341561 
L 317.886503 -73.759563 
L 317.886503 -73.759563 
L 315.463816 -74.128993 
L 313.04113 -74.35241 
L 310.618443 -74.131067 
L 308.195756 -73.986018 
L 305.77307 -80.859369 
L 303.350383 -80.997226 
L 300.927696 -80.078842 
L 298.50501 -80.132706 
L 296.082323 -82.534136 
L 293.659636 -82.529066 
L 291.23695 -82.458094 
L 288.814263 -81.921219 
L 286.391576 -81.939968 
L 283.96889 -81.931613 
L 281.546203 -81.487933 
L 279.123517 -82.045258 
L 276.70083 -81.811722 
L 274.278143 -82.072796 
L 271.855457 -76.295172 
L 269.43277 -75.945798 
L 267.010083 -76.068632 
L 264.587397 -76.35722 
L 262.16471 -74.278538 
L 259.742023 -73.734254 
L 257.319337 -73.937638 
L 254.89665 -73.953221 
L 252.473963 -74.039289 
L 250.051277 -74.093987 
L 247.62859 -73.815681 
L 245.205903 -73.649199 
L 242.783217 -81.059053 
L 240.36053 -80.814273 
L 237.937843 -80.634188 
L 235.515157 -80.660578 
L 233.09247 -82.740494 
L 230.669784 -83.177526 
L 228.247097 -82.636026 
L 225.82441 -81.831693 
L 223.401724 -82.123245 
L 220.979037 -81.973733 
L 218.55635 -80.957897 
L 216.133664 -82.044501 
L 213.710977 -81.783259 
L 211.28829 -81.519343 
L 208.865604 -75.828529 
L 206.442917 -75.84208 
L 204.02023 -76.036177 
L 201.597544 -75.709311 
L 199.174857 -75.847805 
z
" style="stroke: #e8000b; stroke-opacity: 0.2"/>
    </defs>
    <g clip-path="url(#p6558082bba)">
     <use xlink:href="#m4431674e84" x="0" y="162" style="fill: #e8000b; fill-opacity: 0.2; stroke: #e8000b; stroke-opacity: 0.2"/>
    </g>
   </g>
   <g id="line2d_19"/>
   <g id="line2d_20">
    <path d="M 199.174857 32.18753 
L 201.597544 32.460027 
L 204.02023 32.459865 
L 206.442917 32.455111 
L 208.865604 32.445872 
L 211.28829 32.43217 
L 213.710977 32.943355 
L 216.133664 33.226875 
L 218.55635 33.214072 
L 220.979037 62.490472 
L 223.401724 62.493486 
L 225.82441 62.503594 
L 228.247097 62.50818 
L 230.669784 62.507244 
L 233.09247 62.56088 
L 235.515157 62.555472 
L 237.937843 62.544266 
L 240.36053 62.275102 
L 242.783217 77.280093 
L 245.205903 77.634781 
L 247.62859 77.666744 
L 250.051277 77.693895 
L 252.473963 106.840612 
L 254.89665 31.68352 
L 257.319337 31.667196 
L 259.742023 32.268443 
L 262.16471 32.265217 
L 264.587397 32.187593 
L 267.010083 32.460109 
L 269.43277 32.455718 
L 271.855457 32.446897 
L 274.278143 32.433566 
L 276.70083 32.944254 
L 279.123517 33.227833 
L 281.546203 33.215337 
L 283.96889 62.489769 
L 286.391576 62.492352 
L 288.814263 62.502963 
L 291.23695 62.508023 
L 293.659636 62.507547 
L 296.082323 62.561084 
L 298.50501 62.55616 
L 300.927696 62.545456 
L 303.350383 62.276774 
L 305.77307 77.279282 
L 308.195756 77.631791 
L 310.618443 77.664171 
L 313.04113 77.691748 
L 315.463816 106.840069 
L 317.886503 31.684628 
" clip-path="url(#p6558082bba)" style="fill: none; stroke: #ff7c00; stroke-width: 1.5; stroke-linecap: round"/>
   </g>
   <g id="line2d_21">
    <path d="M 199.174857 115.254666 
L 201.597544 115.270964 
L 204.02023 115.271779 
L 206.442917 115.282494 
L 208.865604 115.287954 
L 211.28829 113.104915 
L 213.710977 113.106198 
L 216.133664 113.102748 
L 218.55635 113.094557 
L 220.979037 113.081644 
L 223.401724 113.06391 
L 225.82441 113.04141 
L 228.247097 113.014074 
L 230.669784 112.87814 
L 233.09247 112.839415 
L 235.515157 114.756013 
L 237.937843 114.775439 
L 240.36053 115.417003 
L 242.783217 115.443254 
L 245.205903 114.261769 
L 247.62859 114.675109 
L 250.051277 114.716828 
L 252.473963 114.752066 
L 254.89665 115.134996 
L 257.319337 115.172893 
L 259.742023 115.205341 
L 262.16471 115.232418 
L 264.587397 115.254156 
L 267.010083 115.27059 
L 269.43277 115.281748 
L 271.855457 115.287657 
L 274.278143 113.104593 
L 276.70083 113.106282 
L 279.123517 113.103232 
L 281.546203 113.095463 
L 283.96889 113.082931 
L 286.391576 113.065636 
L 288.814263 113.043571 
L 291.23695 113.016643 
L 293.659636 112.881259 
L 296.082323 112.842963 
L 298.50501 114.75404 
L 300.927696 114.773979 
L 303.350383 114.788027 
L 305.77307 115.441259 
L 308.195756 114.258591 
L 310.618443 114.671223 
L 313.04113 114.71348 
L 315.463816 114.749299 
L 317.886503 115.131481 
" clip-path="url(#p6558082bba)" style="fill: none; stroke: #1ac938; stroke-width: 1.5; stroke-linecap: round"/>
   </g>
   <g id="line2d_22">
    <path d="M 199.174857 91.586639 
L 201.597544 91.587468 
L 204.02023 91.587328 
L 206.442917 91.581766 
L 208.865604 91.570034 
L 211.28829 85.562122 
L 213.710977 85.55596 
L 216.133664 85.545131 
L 218.55635 86.27216 
L 220.979037 85.971785 
L 223.401724 85.976679 
L 225.82441 85.879573 
L 228.247097 85.252336 
L 230.669784 85.010312 
L 233.09247 85.035896 
L 235.515157 87.12837 
L 237.937843 87.156231 
L 240.36053 86.862157 
L 242.783217 86.893125 
L 245.205903 93.806468 
L 247.62859 93.83523 
L 250.051277 93.858914 
L 252.473963 93.877435 
L 254.89665 93.890859 
L 257.319337 93.899118 
L 259.742023 93.902158 
L 262.16471 93.899944 
L 264.587397 91.586534 
L 267.010083 91.587514 
L 269.43277 91.582463 
L 271.855457 91.571261 
L 274.278143 85.562461 
L 276.70083 85.5567 
L 279.123517 85.546263 
L 281.546203 86.272247 
L 283.96889 85.971127 
L 286.391576 85.976444 
L 288.814263 85.977253 
L 291.23695 85.250466 
L 293.659636 85.007854 
L 296.082323 85.033894 
L 298.50501 87.125728 
L 300.927696 87.153983 
L 303.350383 86.859244 
L 305.77307 86.890662 
L 308.195756 93.803723 
L 310.618443 93.832939 
L 313.04113 93.857051 
L 315.463816 93.876039 
L 317.886503 93.889904 
" clip-path="url(#p6558082bba)" style="fill: none; stroke: #e8000b; stroke-width: 1.5; stroke-linecap: round"/>
   </g>
   <g id="patch_6">
    <path d="M 193.239275 122.292 
L 193.239275 22.848 
" style="fill: none; stroke: #ffffff; stroke-width: 1.25; stroke-linejoin: miter; stroke-linecap: square"/>
   </g>
   <g id="patch_7">
    <path d="M 193.239275 122.292 
L 323.822085 122.292 
" style="fill: none; stroke: #ffffff; stroke-width: 1.25; stroke-linejoin: miter; stroke-linecap: square"/>
   </g>
   <g id="text_15">
    <!-- Coastal -->
    <g style="fill: #262626" transform="translate(242.25643 16.848) scale(0.096 -0.096)">
     <defs>
      <path id="ArialMT-43" d="M 3763 1606 
L 4369 1453 
Q 4178 706 3683 314 
Q 3188 -78 2472 -78 
Q 1731 -78 1267 223 
Q 803 525 561 1097 
Q 319 1669 319 2325 
Q 319 3041 592 3573 
Q 866 4106 1370 4382 
Q 1875 4659 2481 4659 
Q 3169 4659 3637 4309 
Q 4106 3959 4291 3325 
L 3694 3184 
Q 3534 3684 3231 3912 
Q 2928 4141 2469 4141 
Q 1941 4141 1586 3887 
Q 1231 3634 1087 3207 
Q 944 2781 944 2328 
Q 944 1744 1114 1308 
Q 1284 872 1643 656 
Q 2003 441 2422 441 
Q 2931 441 3284 734 
Q 3638 1028 3763 1606 
z
" transform="scale(0.015625)"/>
      <path id="ArialMT-74" d="M 1650 503 
L 1731 6 
Q 1494 -44 1306 -44 
Q 1000 -44 831 53 
Q 663 150 594 308 
Q 525 466 525 972 
L 525 2881 
L 113 2881 
L 113 3319 
L 525 3319 
L 525 4141 
L 1084 4478 
L 1084 3319 
L 1650 3319 
L 1650 2881 
L 1084 2881 
L 1084 941 
Q 1084 700 1114 631 
Q 1144 563 1211 522 
Q 1278 481 1403 481 
Q 1497 481 1650 503 
z
" transform="scale(0.015625)"/>
     </defs>
     <use xlink:href="#ArialMT-43"/>
     <use xlink:href="#ArialMT-6f" x="72.216797"/>
     <use xlink:href="#ArialMT-61" x="127.832031"/>
     <use xlink:href="#ArialMT-73" x="183.447266"/>
     <use xlink:href="#ArialMT-74" x="233.447266"/>
     <use xlink:href="#ArialMT-61" x="261.230469"/>
     <use xlink:href="#ArialMT-6c" x="316.845703"/>
    </g>
   </g>
  </g>
  <g id="axes_3">
   <g id="patch_8">
    <path d="M 333.78839 122.292 
L 464.3712 122.292 
L 464.3712 22.848 
L 333.78839 22.848 
z
" style="fill: #eaeaf2"/>
   </g>
   <g id="matplotlib.axis_5">
    <g id="xtick_7">
     <g id="line2d_23">
      <path d="M 337.301285 122.292 
L 337.301285 22.848 
" clip-path="url(#p46c661e44d)" style="fill: none; stroke: #ffffff; stroke-linecap: round"/>
     </g>
     <g id="text_16">
      <!-- 0 -->
      <g style="fill: #262626" transform="translate(334.854473 138.090875) scale(0.088 -0.088)">
       <use xlink:href="#ArialMT-30"/>
      </g>
     </g>
    </g>
    <g id="xtick_8">
     <g id="line2d_24">
      <path d="M 385.755018 122.292 
L 385.755018 22.848 
" clip-path="url(#p46c661e44d)" style="fill: none; stroke: #ffffff; stroke-linecap: round"/>
     </g>
     <g id="text_17">
      <!-- 20 -->
      <g style="fill: #262626" transform="translate(380.861393 138.090875) scale(0.088 -0.088)">
       <use xlink:href="#ArialMT-32"/>
       <use xlink:href="#ArialMT-30" x="55.615234"/>
      </g>
     </g>
    </g>
    <g id="xtick_9">
     <g id="line2d_25">
      <path d="M 434.208751 122.292 
L 434.208751 22.848 
" clip-path="url(#p46c661e44d)" style="fill: none; stroke: #ffffff; stroke-linecap: round"/>
     </g>
     <g id="text_18">
      <!-- 40 -->
      <g style="fill: #262626" transform="translate(429.315126 138.090875) scale(0.088 -0.088)">
       <use xlink:href="#ArialMT-34"/>
       <use xlink:href="#ArialMT-30" x="55.615234"/>
      </g>
     </g>
    </g>
    <g id="text_19">
     <!-- Frame -->
     <g style="fill: #262626" transform="translate(385.213045 150.711375) scale(0.096 -0.096)">
      <use xlink:href="#ArialMT-46"/>
      <use xlink:href="#ArialMT-72" x="61.083984"/>
      <use xlink:href="#ArialMT-61" x="94.384766"/>
      <use xlink:href="#ArialMT-6d" x="150"/>
      <use xlink:href="#ArialMT-65" x="233.300781"/>
     </g>
    </g>
   </g>
   <g id="matplotlib.axis_6">
    <g id="ytick_9">
     <g id="line2d_26">
      <path d="M 333.78839 111.831152 
L 464.3712 111.831152 
" clip-path="url(#p46c661e44d)" style="fill: none; stroke: #ffffff; stroke-linecap: round"/>
     </g>
    </g>
    <g id="ytick_10">
     <g id="line2d_27">
      <path d="M 333.78839 87.787042 
L 464.3712 87.787042 
" clip-path="url(#p46c661e44d)" style="fill: none; stroke: #ffffff; stroke-linecap: round"/>
     </g>
    </g>
    <g id="ytick_11">
     <g id="line2d_28">
      <path d="M 333.78839 63.742932 
L 464.3712 63.742932 
" clip-path="url(#p46c661e44d)" style="fill: none; stroke: #ffffff; stroke-linecap: round"/>
     </g>
    </g>
    <g id="ytick_12">
     <g id="line2d_29">
      <path d="M 333.78839 39.698823 
L 464.3712 39.698823 
" clip-path="url(#p46c661e44d)" style="fill: none; stroke: #ffffff; stroke-linecap: round"/>
     </g>
    </g>
   </g>
   <g id="PolyCollection_9"/>
   <g id="PolyCollection_10"/>
   <g id="PolyCollection_11">
    <defs>
     <path id="m1d70de42ff" d="M 339.723972 -120.048165 
L 339.723972 -120.048165 
L 342.146658 -120.068497 
L 344.569345 -120.069884 
L 346.992032 -120.282765 
L 349.414718 -123.785086 
L 351.837405 -123.728957 
L 354.260092 -123.67981 
L 356.682778 -123.637703 
L 359.105465 -116.202174 
L 361.528152 -116.171548 
L 363.950838 -116.146418 
L 366.373525 -116.454998 
L 368.796212 -116.329639 
L 371.218898 -116.437083 
L 373.641585 -116.436173 
L 376.064272 -116.325746 
L 378.486958 -117.893083 
L 380.909645 -117.778397 
L 383.332332 -117.78863 
L 385.755018 -117.804815 
L 388.177705 -121.615918 
L 390.600392 -121.637566 
L 393.023078 -122.071893 
L 395.445765 -123.628683 
L 397.868451 -120.124613 
L 400.291138 -114.772784 
L 402.713825 -114.830693 
L 405.136511 -120.04771 
L 407.559198 -120.067932 
L 409.981885 -120.288393 
L 412.404571 -123.790303 
L 414.827258 -123.733583 
L 417.249945 -123.429802 
L 419.672631 -123.641068 
L 422.095318 -116.205101 
L 424.518005 -116.061507 
L 426.940691 -116.148403 
L 429.363378 -116.45625 
L 431.786065 -116.444146 
L 434.208751 -116.323382 
L 436.631438 -116.436029 
L 439.054125 -116.439963 
L 441.476811 -117.892947 
L 443.899498 -117.777806 
L 446.322184 -117.787503 
L 448.744871 -117.803206 
L 451.167558 -121.614329 
L 453.590244 -121.635436 
L 456.012931 -122.068535 
L 458.435618 -123.625714 
L 458.435618 -128.62196 
L 458.435618 -128.62196 
L 456.012931 -125.769751 
L 453.590244 -125.524196 
L 451.167558 -125.502935 
L 448.744871 -118.437393 
L 446.322184 -118.41491 
L 443.899498 -118.397971 
L 441.476811 -118.607325 
L 439.054125 -117.816791 
L 436.631438 -117.80878 
L 434.208751 -117.805924 
L 431.786065 -117.80822 
L 429.363378 -117.815715 
L 426.940691 -117.503081 
L 424.518005 -117.523685 
L 422.095318 -117.549646 
L 419.672631 -126.684926 
L 417.249945 -126.731855 
L 414.827258 -126.78507 
L 412.404571 -126.84452 
L 409.981885 -120.288393 
L 407.559198 -120.067932 
L 405.136511 -120.04771 
L 402.713825 -114.830693 
L 400.291138 -114.772784 
L 397.868451 -124.756815 
L 395.445765 -129.040049 
L 393.023078 -125.772754 
L 390.600392 -125.526321 
L 388.177705 -125.504552 
L 385.755018 -118.43957 
L 383.332332 -118.416645 
L 380.909645 -118.399207 
L 378.486958 -118.608201 
L 376.064272 -117.817682 
L 373.641585 -117.809281 
L 371.218898 -117.805957 
L 368.796212 -117.921509 
L 366.373525 -117.814869 
L 363.950838 -117.614439 
L 361.528152 -117.521687 
L 359.105465 -117.547173 
L 356.682778 -126.681159 
L 354.260092 -126.733872 
L 351.837405 -126.780178 
L 349.414718 -126.839096 
L 346.992032 -120.282765 
L 344.569345 -120.069884 
L 342.146658 -120.068497 
L 339.723972 -120.048165 
z
" style="stroke: #1ac938; stroke-opacity: 0.2"/>
    </defs>
    <g clip-path="url(#p46c661e44d)">
     <use xlink:href="#m1d70de42ff" x="0" y="162" style="fill: #1ac938; fill-opacity: 0.2; stroke: #1ac938; stroke-opacity: 0.2"/>
    </g>
   </g>
   <g id="PolyCollection_12">
    <defs>
     <path id="m63d886cf3f" d="M 339.723972 -124.147561 
L 339.723972 -120.439693 
L 342.146658 -120.425515 
L 344.569345 -120.115824 
L 359.105465 -134.628421 
L 361.528152 -134.591593 
L 363.950838 -134.559784 
L 366.373525 -120.164581 
L 368.796212 -120.140554 
L 371.218898 -120.12216 
L 373.641585 -120.109353 
L 376.064272 -120.102086 
L 378.486958 -120.100428 
L 380.909645 -120.104297 
L 383.332332 -120.113741 
L 385.755018 -120.128719 
L 388.177705 -120.149324 
L 390.600392 -120.175533 
L 393.023078 -120.207382 
L 395.445765 -128.563153 
L 397.868451 -128.536473 
L 400.291138 -120.477117 
L 402.713825 -120.457154 
L 405.136511 -120.440097 
L 407.559198 -120.425858 
L 422.095318 -134.631818 
L 424.518005 -134.594572 
L 426.940691 -134.562382 
L 429.363378 -120.166904 
L 431.786065 -120.142407 
L 434.208751 -120.123544 
L 436.631438 -120.100826 
L 439.054125 -120.102513 
L 441.476811 -120.100367 
L 443.899498 -120.103739 
L 446.322184 -120.112694 
L 448.744871 -120.127219 
L 451.167558 -120.147304 
L 453.590244 -120.173034 
L 456.012931 -120.204371 
L 458.435618 -128.565597 
L 458.435618 -128.565597 
L 458.435618 -128.565597 
L 456.012931 -125.056117 
L 453.590244 -124.656333 
L 451.167558 -124.635624 
L 448.744871 -124.620789 
L 446.322184 -124.986618 
L 443.899498 -124.608343 
L 441.476811 -124.610702 
L 439.054125 -124.618675 
L 436.631438 -124.632316 
L 434.208751 -124.651569 
L 431.786065 -125.054259 
L 429.363378 -124.70693 
L 426.940691 -134.562382 
L 424.518005 -134.594572 
L 422.095318 -134.631818 
L 407.559198 -124.133307 
L 405.136511 -124.147978 
L 402.713825 -124.165467 
L 400.291138 -124.185861 
L 397.868451 -128.536473 
L 395.445765 -128.563153 
L 393.023078 -124.685523 
L 390.600392 -124.658413 
L 388.177705 -124.637206 
L 385.755018 -124.621834 
L 383.332332 -124.612282 
L 380.909645 -124.608423 
L 378.486958 -124.610268 
L 376.064272 -124.617744 
L 373.641585 -124.630913 
L 371.218898 -124.649672 
L 368.796212 -124.674058 
L 366.373525 -124.704095 
L 363.950838 -134.559784 
L 361.528152 -134.591593 
L 359.105465 -134.628421 
L 344.569345 -124.132189 
L 342.146658 -124.13296 
L 339.723972 -124.147561 
z
" style="stroke: #e8000b; stroke-opacity: 0.2"/>
    </defs>
    <g clip-path="url(#p46c661e44d)">
     <use xlink:href="#m63d886cf3f" x="0" y="162" style="fill: #e8000b; fill-opacity: 0.2; stroke: #e8000b; stroke-opacity: 0.2"/>
    </g>
   </g>
   <g id="line2d_30"/>
   <g id="line2d_31"/>
   <g id="line2d_32">
    <path d="M 339.723972 41.951835 
L 342.146658 41.931503 
L 344.569345 41.930116 
L 346.992032 41.717235 
L 349.414718 36.687909 
L 351.837405 36.745432 
L 354.260092 36.796334 
L 356.682778 36.840569 
L 359.105465 45.125327 
L 361.528152 45.153383 
L 363.950838 45.176034 
L 366.373525 44.865067 
L 368.796212 44.874426 
L 371.218898 44.87848 
L 373.641585 44.877273 
L 376.064272 44.870904 
L 378.486958 43.749358 
L 380.909645 43.911198 
L 383.332332 43.897363 
L 385.755018 43.877808 
L 388.177705 38.439765 
L 390.600392 38.418056 
L 393.023078 38.077676 
L 395.445765 35.873764 
L 397.868451 39.559286 
L 400.291138 47.227216 
L 402.713825 47.169307 
L 405.136511 41.95229 
L 407.559198 41.932068 
L 409.981885 41.711607 
L 412.404571 36.682589 
L 414.827258 36.740674 
L 417.249945 36.79217 
L 419.672631 36.837003 
L 422.095318 45.122627 
L 424.518005 45.151167 
L 426.940691 45.174258 
L 429.363378 44.864018 
L 431.786065 44.873817 
L 434.208751 44.878326 
L 436.631438 44.877596 
L 439.054125 44.871623 
L 441.476811 43.749864 
L 443.899498 43.912111 
L 446.322184 43.898793 
L 448.744871 43.879701 
L 451.167558 38.441368 
L 453.590244 38.420184 
L 456.012931 38.080857 
L 458.435618 35.876163 
" clip-path="url(#p46c661e44d)" style="fill: none; stroke: #1ac938; stroke-width: 1.5; stroke-linecap: round"/>
   </g>
   <g id="line2d_33">
    <path d="M 339.723972 39.706373 
L 342.146658 39.720762 
L 344.569345 39.721518 
L 359.105465 27.371579 
L 361.528152 27.408407 
L 363.950838 27.440216 
L 366.373525 39.565662 
L 368.796212 39.592694 
L 371.218898 39.614084 
L 373.641585 39.629867 
L 376.064272 39.640085 
L 378.486958 39.644652 
L 380.909645 39.64364 
L 383.332332 39.636988 
L 385.755018 39.624723 
L 388.177705 39.606735 
L 390.600392 39.583027 
L 393.023078 39.553548 
L 395.445765 33.436847 
L 397.868451 33.463527 
L 400.291138 39.668511 
L 402.713825 39.688689 
L 405.136511 39.705962 
L 407.559198 39.720418 
L 422.095318 27.368182 
L 424.518005 27.405428 
L 426.940691 27.437618 
L 429.363378 39.563083 
L 431.786065 39.590585 
L 434.208751 39.612444 
L 436.631438 39.628719 
L 439.054125 39.639406 
L 441.476811 39.644465 
L 443.899498 39.643959 
L 446.322184 39.637803 
L 448.744871 39.625996 
L 451.167558 39.608536 
L 453.590244 39.585316 
L 456.012931 39.556362 
L 458.435618 33.434403 
" clip-path="url(#p46c661e44d)" style="fill: none; stroke: #e8000b; stroke-width: 1.5; stroke-linecap: round"/>
   </g>
   <g id="patch_9">
    <path d="M 333.78839 122.292 
L 333.78839 22.848 
" style="fill: none; stroke: #ffffff; stroke-width: 1.25; stroke-linejoin: miter; stroke-linecap: square"/>
   </g>
   <g id="patch_10">
    <path d="M 333.78839 122.292 
L 464.3712 122.292 
" style="fill: none; stroke: #ffffff; stroke-width: 1.25; stroke-linejoin: miter; stroke-linecap: square"/>
   </g>
   <g id="text_20">
    <!-- Insular -->
    <g style="fill: #262626" transform="translate(384.673795 16.848) scale(0.096 -0.096)">
     <defs>
      <path id="ArialMT-49" d="M 597 0 
L 597 4581 
L 1203 4581 
L 1203 0 
L 597 0 
z
" transform="scale(0.015625)"/>
      <path id="ArialMT-75" d="M 2597 0 
L 2597 488 
Q 2209 -75 1544 -75 
Q 1250 -75 995 37 
Q 741 150 617 320 
Q 494 491 444 738 
Q 409 903 409 1263 
L 409 3319 
L 972 3319 
L 972 1478 
Q 972 1038 1006 884 
Q 1059 663 1231 536 
Q 1403 409 1656 409 
Q 1909 409 2131 539 
Q 2353 669 2445 892 
Q 2538 1116 2538 1541 
L 2538 3319 
L 3100 3319 
L 3100 0 
L 2597 0 
z
" transform="scale(0.015625)"/>
     </defs>
     <use xlink:href="#ArialMT-49"/>
     <use xlink:href="#ArialMT-6e" x="27.783203"/>
     <use xlink:href="#ArialMT-73" x="83.398438"/>
     <use xlink:href="#ArialMT-75" x="133.398438"/>
     <use xlink:href="#ArialMT-6c" x="189.013672"/>
     <use xlink:href="#ArialMT-61" x="211.230469"/>
     <use xlink:href="#ArialMT-72" x="266.845703"/>
    </g>
   </g>
  </g>
  <g id="legend_1">
   <g id="text_21">
    <!-- Direction -->
    <g style="fill: #262626" transform="translate(490.04325 58.586) scale(0.096 -0.096)">
     <defs>
      <path id="ArialMT-44" d="M 494 0 
L 494 4581 
L 2072 4581 
Q 2606 4581 2888 4516 
Q 3281 4425 3559 4188 
Q 3922 3881 4101 3404 
Q 4281 2928 4281 2316 
Q 4281 1794 4159 1391 
Q 4038 988 3847 723 
Q 3656 459 3429 307 
Q 3203 156 2883 78 
Q 2563 0 2147 0 
L 494 0 
z
M 1100 541 
L 2078 541 
Q 2531 541 2789 625 
Q 3047 709 3200 863 
Q 3416 1078 3536 1442 
Q 3656 1806 3656 2325 
Q 3656 3044 3420 3430 
Q 3184 3816 2847 3947 
Q 2603 4041 2063 4041 
L 1100 4041 
L 1100 541 
z
" transform="scale(0.015625)"/>
      <path id="ArialMT-69" d="M 425 3934 
L 425 4581 
L 988 4581 
L 988 3934 
L 425 3934 
z
M 425 0 
L 425 3319 
L 988 3319 
L 988 0 
L 425 0 
z
" transform="scale(0.015625)"/>
     </defs>
     <use xlink:href="#ArialMT-44"/>
     <use xlink:href="#ArialMT-69" x="72.216797"/>
     <use xlink:href="#ArialMT-72" x="94.433594"/>
     <use xlink:href="#ArialMT-65" x="127.734375"/>
     <use xlink:href="#ArialMT-63" x="183.349609"/>
     <use xlink:href="#ArialMT-74" x="233.349609"/>
     <use xlink:href="#ArialMT-69" x="261.132812"/>
     <use xlink:href="#ArialMT-6f" x="283.349609"/>
     <use xlink:href="#ArialMT-6e" x="338.964844"/>
    </g>
   </g>
   <g id="line2d_34">
    <path d="M 485.1645 68.112875 
L 493.9645 68.112875 
L 502.7645 68.112875 
" style="fill: none; stroke: #023eff; stroke-width: 1.5; stroke-linecap: round"/>
   </g>
   <g id="text_22">
    <!-- East -->
    <g style="fill: #262626" transform="translate(509.8045 71.192875) scale(0.088 -0.088)">
     <defs>
      <path id="ArialMT-45" d="M 506 0 
L 506 4581 
L 3819 4581 
L 3819 4041 
L 1113 4041 
L 1113 2638 
L 3647 2638 
L 3647 2100 
L 1113 2100 
L 1113 541 
L 3925 541 
L 3925 0 
L 506 0 
z
" transform="scale(0.015625)"/>
     </defs>
     <use xlink:href="#ArialMT-45"/>
     <use xlink:href="#ArialMT-61" x="66.699219"/>
     <use xlink:href="#ArialMT-73" x="122.314453"/>
     <use xlink:href="#ArialMT-74" x="172.314453"/>
    </g>
   </g>
   <g id="line2d_35">
    <path d="M 485.1645 80.56075 
L 493.9645 80.56075 
L 502.7645 80.56075 
" style="fill: none; stroke: #ff7c00; stroke-width: 1.5; stroke-linecap: round"/>
   </g>
   <g id="text_23">
    <!-- West -->
    <g style="fill: #262626" transform="translate(509.8045 83.64075) scale(0.088 -0.088)">
     <defs>
      <path id="ArialMT-57" d="M 1294 0 
L 78 4581 
L 700 4581 
L 1397 1578 
Q 1509 1106 1591 641 
Q 1766 1375 1797 1488 
L 2669 4581 
L 3400 4581 
L 4056 2263 
Q 4303 1400 4413 641 
Q 4500 1075 4641 1638 
L 5359 4581 
L 5969 4581 
L 4713 0 
L 4128 0 
L 3163 3491 
Q 3041 3928 3019 4028 
Q 2947 3713 2884 3491 
L 1913 0 
L 1294 0 
z
" transform="scale(0.015625)"/>
     </defs>
     <use xlink:href="#ArialMT-57"/>
     <use xlink:href="#ArialMT-65" x="92.634766"/>
     <use xlink:href="#ArialMT-73" x="148.25"/>
     <use xlink:href="#ArialMT-74" x="198.25"/>
    </g>
   </g>
   <g id="line2d_36">
    <path d="M 485.1645 93.008625 
L 493.9645 93.008625 
L 502.7645 93.008625 
" style="fill: none; stroke: #1ac938; stroke-width: 1.5; stroke-linecap: round"/>
   </g>
   <g id="text_24">
    <!-- North -->
    <g style="fill: #262626" transform="translate(509.8045 96.088625) scale(0.088 -0.088)">
     <defs>
      <path id="ArialMT-4e" d="M 488 0 
L 488 4581 
L 1109 4581 
L 3516 984 
L 3516 4581 
L 4097 4581 
L 4097 0 
L 3475 0 
L 1069 3600 
L 1069 0 
L 488 0 
z
" transform="scale(0.015625)"/>
      <path id="ArialMT-68" d="M 422 0 
L 422 4581 
L 984 4581 
L 984 2938 
Q 1378 3394 1978 3394 
Q 2347 3394 2619 3248 
Q 2891 3103 3008 2847 
Q 3125 2591 3125 2103 
L 3125 0 
L 2563 0 
L 2563 2103 
Q 2563 2525 2380 2717 
Q 2197 2909 1863 2909 
Q 1613 2909 1392 2779 
Q 1172 2650 1078 2428 
Q 984 2206 984 1816 
L 984 0 
L 422 0 
z
" transform="scale(0.015625)"/>
     </defs>
     <use xlink:href="#ArialMT-4e"/>
     <use xlink:href="#ArialMT-6f" x="72.216797"/>
     <use xlink:href="#ArialMT-72" x="127.832031"/>
     <use xlink:href="#ArialMT-74" x="161.132812"/>
     <use xlink:href="#ArialMT-68" x="188.916016"/>
    </g>
   </g>
   <g id="line2d_37">
    <path d="M 485.1645 105.4565 
L 493.9645 105.4565 
L 502.7645 105.4565 
" style="fill: none; stroke: #e8000b; stroke-width: 1.5; stroke-linecap: round"/>
   </g>
   <g id="text_25">
    <!-- South -->
    <g style="fill: #262626" transform="translate(509.8045 108.5365) scale(0.088 -0.088)">
     <defs>
      <path id="ArialMT-53" d="M 288 1472 
L 859 1522 
Q 900 1178 1048 958 
Q 1197 738 1509 602 
Q 1822 466 2213 466 
Q 2559 466 2825 569 
Q 3091 672 3220 851 
Q 3350 1031 3350 1244 
Q 3350 1459 3225 1620 
Q 3100 1781 2813 1891 
Q 2628 1963 1997 2114 
Q 1366 2266 1113 2400 
Q 784 2572 623 2826 
Q 463 3081 463 3397 
Q 463 3744 659 4045 
Q 856 4347 1234 4503 
Q 1613 4659 2075 4659 
Q 2584 4659 2973 4495 
Q 3363 4331 3572 4012 
Q 3781 3694 3797 3291 
L 3216 3247 
Q 3169 3681 2898 3903 
Q 2628 4125 2100 4125 
Q 1550 4125 1298 3923 
Q 1047 3722 1047 3438 
Q 1047 3191 1225 3031 
Q 1400 2872 2139 2705 
Q 2878 2538 3153 2413 
Q 3553 2228 3743 1945 
Q 3934 1663 3934 1294 
Q 3934 928 3725 604 
Q 3516 281 3123 101 
Q 2731 -78 2241 -78 
Q 1619 -78 1198 103 
Q 778 284 539 648 
Q 300 1013 288 1472 
z
" transform="scale(0.015625)"/>
     </defs>
     <use xlink:href="#ArialMT-53"/>
     <use xlink:href="#ArialMT-6f" x="66.699219"/>
     <use xlink:href="#ArialMT-75" x="122.314453"/>
     <use xlink:href="#ArialMT-74" x="177.929688"/>
     <use xlink:href="#ArialMT-68" x="205.712891"/>
    </g>
   </g>
  </g>
 </g>
 <defs>
  <clipPath id="pe86854a3e8">
   <rect x="52.69016" y="22.848" width="130.58281" height="99.444"/>
  </clipPath>
  <clipPath id="p6558082bba">
   <rect x="193.239275" y="22.848" width="130.58281" height="99.444"/>
  </clipPath>
  <clipPath id="p46c661e44d">
   <rect x="333.78839" y="22.848" width="130.58281" height="99.444"/>
  </clipPath>
 </defs>
</svg>
