<?xml version="1.0" encoding="utf-8" standalone="no"?>
<!DOCTYPE svg PUBLIC "-//W3C//DTD SVG 1.1//EN"
  "http://www.w3.org/Graphics/SVG/1.1/DTD/svg11.dtd">
<svg xmlns:xlink="http://www.w3.org/1999/xlink" width="378.72pt" height="162pt" viewBox="0 0 378.72 162" xmlns="http://www.w3.org/2000/svg" version="1.1">
 <metadata>
  <rdf:RDF xmlns:dc="http://purl.org/dc/elements/1.1/" xmlns:cc="http://creativecommons.org/ns#" xmlns:rdf="http://www.w3.org/1999/02/22-rdf-syntax-ns#">
   <cc:Work>
    <dc:type rdf:resource="http://purl.org/dc/dcmitype/StillImage"/>
    <dc:date>2024-08-26T15:08:09.881780</dc:date>
    <dc:format>image/svg+xml</dc:format>
    <dc:creator>
     <cc:Agent>
      <dc:title>Matplotlib v3.9.0, https://matplotlib.org/</dc:title>
     </cc:Agent>
    </dc:creator>
   </cc:Work>
  </rdf:RDF>
 </metadata>
 <defs>
  <style type="text/css">*{stroke-linejoin: round; stroke-linecap: butt}</style>
 </defs>
 <g id="figure_1">
  <g id="patch_1">
   <path d="M 0 162 
L 378.72 162 
L 378.72 0 
L 0 0 
z
" style="fill: #ffffff"/>
  </g>
  <g id="axes_1">
   <g id="patch_2">
    <path d="M 52.84459 122.292 
L 175.903686 122.292 
L 175.903686 22.848 
L 52.84459 22.848 
z
" style="fill: #eaeaf2"/>
   </g>
   <g id="matplotlib.axis_1">
    <g id="xtick_1">
     <g id="line2d_1">
      <path d="M 72.003843 122.292 
L 72.003843 22.848 
" clip-path="url(#p8274df7884)" style="fill: none; stroke: #ffffff; stroke-linecap: round"/>
     </g>
     <g id="text_1">
      <!-- 20 -->
      <g style="fill: #262626" transform="translate(67.110218 138.090875) scale(0.088 -0.088)">
       <defs>
        <path id="ArialMT-32" d="M 3222 541 
L 3222 0 
L 194 0 
Q 188 203 259 391 
Q 375 700 629 1000 
Q 884 1300 1366 1694 
Q 2113 2306 2375 2664 
Q 2638 3022 2638 3341 
Q 2638 3675 2398 3904 
Q 2159 4134 1775 4134 
Q 1369 4134 1125 3890 
Q 881 3647 878 3216 
L 300 3275 
Q 359 3922 746 4261 
Q 1134 4600 1788 4600 
Q 2447 4600 2831 4234 
Q 3216 3869 3216 3328 
Q 3216 3053 3103 2787 
Q 2991 2522 2730 2228 
Q 2469 1934 1863 1422 
Q 1356 997 1212 845 
Q 1069 694 975 541 
L 3222 541 
z
" transform="scale(0.015625)"/>
        <path id="ArialMT-30" d="M 266 2259 
Q 266 3072 433 3567 
Q 600 4063 929 4331 
Q 1259 4600 1759 4600 
Q 2128 4600 2406 4451 
Q 2684 4303 2865 4023 
Q 3047 3744 3150 3342 
Q 3253 2941 3253 2259 
Q 3253 1453 3087 958 
Q 2922 463 2592 192 
Q 2263 -78 1759 -78 
Q 1097 -78 719 397 
Q 266 969 266 2259 
z
M 844 2259 
Q 844 1131 1108 757 
Q 1372 384 1759 384 
Q 2147 384 2411 759 
Q 2675 1134 2675 2259 
Q 2675 3391 2411 3762 
Q 2147 4134 1753 4134 
Q 1366 4134 1134 3806 
Q 844 3388 844 2259 
z
" transform="scale(0.015625)"/>
       </defs>
       <use xlink:href="#ArialMT-32"/>
       <use xlink:href="#ArialMT-30" x="55.615234"/>
      </g>
     </g>
    </g>
    <g id="xtick_2">
     <g id="line2d_2">
      <path d="M 121.007825 122.292 
L 121.007825 22.848 
" clip-path="url(#p8274df7884)" style="fill: none; stroke: #ffffff; stroke-linecap: round"/>
     </g>
     <g id="text_2">
      <!-- 40 -->
      <g style="fill: #262626" transform="translate(116.1142 138.090875) scale(0.088 -0.088)">
       <defs>
        <path id="ArialMT-34" d="M 2069 0 
L 2069 1097 
L 81 1097 
L 81 1613 
L 2172 4581 
L 2631 4581 
L 2631 1613 
L 3250 1613 
L 3250 1097 
L 2631 1097 
L 2631 0 
L 2069 0 
z
M 2069 1613 
L 2069 3678 
L 634 1613 
L 2069 1613 
z
" transform="scale(0.015625)"/>
       </defs>
       <use xlink:href="#ArialMT-34"/>
       <use xlink:href="#ArialMT-30" x="55.615234"/>
      </g>
     </g>
    </g>
    <g id="xtick_3">
     <g id="line2d_3">
      <path d="M 170.011807 122.292 
L 170.011807 22.848 
" clip-path="url(#p8274df7884)" style="fill: none; stroke: #ffffff; stroke-linecap: round"/>
     </g>
     <g id="text_3">
      <!-- 60 -->
      <g style="fill: #262626" transform="translate(165.118182 138.090875) scale(0.088 -0.088)">
       <defs>
        <path id="ArialMT-36" d="M 3184 3459 
L 2625 3416 
Q 2550 3747 2413 3897 
Q 2184 4138 1850 4138 
Q 1581 4138 1378 3988 
Q 1113 3794 959 3422 
Q 806 3050 800 2363 
Q 1003 2672 1297 2822 
Q 1591 2972 1913 2972 
Q 2475 2972 2870 2558 
Q 3266 2144 3266 1488 
Q 3266 1056 3080 686 
Q 2894 316 2569 119 
Q 2244 -78 1831 -78 
Q 1128 -78 684 439 
Q 241 956 241 2144 
Q 241 3472 731 4075 
Q 1159 4600 1884 4600 
Q 2425 4600 2770 4297 
Q 3116 3994 3184 3459 
z
M 888 1484 
Q 888 1194 1011 928 
Q 1134 663 1356 523 
Q 1578 384 1822 384 
Q 2178 384 2434 671 
Q 2691 959 2691 1453 
Q 2691 1928 2437 2201 
Q 2184 2475 1800 2475 
Q 1419 2475 1153 2201 
Q 888 1928 888 1484 
z
" transform="scale(0.015625)"/>
       </defs>
       <use xlink:href="#ArialMT-36"/>
       <use xlink:href="#ArialMT-30" x="55.615234"/>
      </g>
     </g>
    </g>
    <g id="text_4">
     <!-- RTT (ms) -->
     <g style="fill: #262626" transform="translate(94.283888 150.828375) scale(0.096 -0.096)">
      <defs>
       <path id="ArialMT-52" d="M 503 0 
L 503 4581 
L 2534 4581 
Q 3147 4581 3465 4457 
Q 3784 4334 3975 4021 
Q 4166 3709 4166 3331 
Q 4166 2844 3850 2509 
Q 3534 2175 2875 2084 
Q 3116 1969 3241 1856 
Q 3506 1613 3744 1247 
L 4541 0 
L 3778 0 
L 3172 953 
Q 2906 1366 2734 1584 
Q 2563 1803 2427 1890 
Q 2291 1978 2150 2013 
Q 2047 2034 1813 2034 
L 1109 2034 
L 1109 0 
L 503 0 
z
M 1109 2559 
L 2413 2559 
Q 2828 2559 3062 2645 
Q 3297 2731 3419 2920 
Q 3541 3109 3541 3331 
Q 3541 3656 3305 3865 
Q 3069 4075 2559 4075 
L 1109 4075 
L 1109 2559 
z
" transform="scale(0.015625)"/>
       <path id="ArialMT-54" d="M 1659 0 
L 1659 4041 
L 150 4041 
L 150 4581 
L 3781 4581 
L 3781 4041 
L 2266 4041 
L 2266 0 
L 1659 0 
z
" transform="scale(0.015625)"/>
       <path id="ArialMT-20" transform="scale(0.015625)"/>
       <path id="ArialMT-28" d="M 1497 -1347 
Q 1031 -759 709 28 
Q 388 816 388 1659 
Q 388 2403 628 3084 
Q 909 3875 1497 4659 
L 1900 4659 
Q 1522 4009 1400 3731 
Q 1209 3300 1100 2831 
Q 966 2247 966 1656 
Q 966 153 1900 -1347 
L 1497 -1347 
z
" transform="scale(0.015625)"/>
       <path id="ArialMT-6d" d="M 422 0 
L 422 3319 
L 925 3319 
L 925 2853 
Q 1081 3097 1340 3245 
Q 1600 3394 1931 3394 
Q 2300 3394 2536 3241 
Q 2772 3088 2869 2813 
Q 3263 3394 3894 3394 
Q 4388 3394 4653 3120 
Q 4919 2847 4919 2278 
L 4919 0 
L 4359 0 
L 4359 2091 
Q 4359 2428 4304 2576 
Q 4250 2725 4106 2815 
Q 3963 2906 3769 2906 
Q 3419 2906 3187 2673 
Q 2956 2441 2956 1928 
L 2956 0 
L 2394 0 
L 2394 2156 
Q 2394 2531 2256 2718 
Q 2119 2906 1806 2906 
Q 1569 2906 1367 2781 
Q 1166 2656 1075 2415 
Q 984 2175 984 1722 
L 984 0 
L 422 0 
z
" transform="scale(0.015625)"/>
       <path id="ArialMT-73" d="M 197 991 
L 753 1078 
Q 800 744 1014 566 
Q 1228 388 1613 388 
Q 2000 388 2187 545 
Q 2375 703 2375 916 
Q 2375 1106 2209 1216 
Q 2094 1291 1634 1406 
Q 1016 1563 777 1677 
Q 538 1791 414 1992 
Q 291 2194 291 2438 
Q 291 2659 392 2848 
Q 494 3038 669 3163 
Q 800 3259 1026 3326 
Q 1253 3394 1513 3394 
Q 1903 3394 2198 3281 
Q 2494 3169 2634 2976 
Q 2775 2784 2828 2463 
L 2278 2388 
Q 2241 2644 2061 2787 
Q 1881 2931 1553 2931 
Q 1166 2931 1000 2803 
Q 834 2675 834 2503 
Q 834 2394 903 2306 
Q 972 2216 1119 2156 
Q 1203 2125 1616 2013 
Q 2213 1853 2448 1751 
Q 2684 1650 2818 1456 
Q 2953 1263 2953 975 
Q 2953 694 2789 445 
Q 2625 197 2315 61 
Q 2006 -75 1616 -75 
Q 969 -75 630 194 
Q 291 463 197 991 
z
" transform="scale(0.015625)"/>
       <path id="ArialMT-29" d="M 791 -1347 
L 388 -1347 
Q 1322 153 1322 1656 
Q 1322 2244 1188 2822 
Q 1081 3291 891 3722 
Q 769 4003 388 4659 
L 791 4659 
Q 1378 3875 1659 3084 
Q 1900 2403 1900 1659 
Q 1900 816 1576 28 
Q 1253 -759 791 -1347 
z
" transform="scale(0.015625)"/>
      </defs>
      <use xlink:href="#ArialMT-52"/>
      <use xlink:href="#ArialMT-54" x="70.466797"/>
      <use xlink:href="#ArialMT-54" x="131.550781"/>
      <use xlink:href="#ArialMT-20" x="190.884766"/>
      <use xlink:href="#ArialMT-28" x="218.667969"/>
      <use xlink:href="#ArialMT-6d" x="251.96875"/>
      <use xlink:href="#ArialMT-73" x="335.269531"/>
      <use xlink:href="#ArialMT-29" x="385.269531"/>
     </g>
    </g>
   </g>
   <g id="matplotlib.axis_2">
    <g id="ytick_1">
     <g id="line2d_4">
      <path d="M 52.84459 122.292 
L 175.903686 122.292 
" clip-path="url(#p8274df7884)" style="fill: none; stroke: #ffffff; stroke-linecap: round"/>
     </g>
     <g id="text_5">
      <!-- 0.0 -->
      <g style="fill: #262626" transform="translate(31.11259 125.441438) scale(0.088 -0.088)">
       <defs>
        <path id="ArialMT-2e" d="M 581 0 
L 581 641 
L 1222 641 
L 1222 0 
L 581 0 
z
" transform="scale(0.015625)"/>
       </defs>
       <use xlink:href="#ArialMT-30"/>
       <use xlink:href="#ArialMT-2e" x="55.615234"/>
       <use xlink:href="#ArialMT-30" x="83.398438"/>
      </g>
     </g>
    </g>
    <g id="ytick_2">
     <g id="line2d_5">
      <path d="M 52.84459 102.4032 
L 175.903686 102.4032 
" clip-path="url(#p8274df7884)" style="fill: none; stroke: #ffffff; stroke-linecap: round"/>
     </g>
     <g id="text_6">
      <!-- 0.2 -->
      <g style="fill: #262626" transform="translate(31.11259 105.552638) scale(0.088 -0.088)">
       <use xlink:href="#ArialMT-30"/>
       <use xlink:href="#ArialMT-2e" x="55.615234"/>
       <use xlink:href="#ArialMT-32" x="83.398438"/>
      </g>
     </g>
    </g>
    <g id="ytick_3">
     <g id="line2d_6">
      <path d="M 52.84459 82.5144 
L 175.903686 82.5144 
" clip-path="url(#p8274df7884)" style="fill: none; stroke: #ffffff; stroke-linecap: round"/>
     </g>
     <g id="text_7">
      <!-- 0.4 -->
      <g style="fill: #262626" transform="translate(31.11259 85.663837) scale(0.088 -0.088)">
       <use xlink:href="#ArialMT-30"/>
       <use xlink:href="#ArialMT-2e" x="55.615234"/>
       <use xlink:href="#ArialMT-34" x="83.398438"/>
      </g>
     </g>
    </g>
    <g id="ytick_4">
     <g id="line2d_7">
      <path d="M 52.84459 62.6256 
L 175.903686 62.6256 
" clip-path="url(#p8274df7884)" style="fill: none; stroke: #ffffff; stroke-linecap: round"/>
     </g>
     <g id="text_8">
      <!-- 0.6 -->
      <g style="fill: #262626" transform="translate(31.11259 65.775037) scale(0.088 -0.088)">
       <use xlink:href="#ArialMT-30"/>
       <use xlink:href="#ArialMT-2e" x="55.615234"/>
       <use xlink:href="#ArialMT-36" x="83.398438"/>
      </g>
     </g>
    </g>
    <g id="ytick_5">
     <g id="line2d_8">
      <path d="M 52.84459 42.7368 
L 175.903686 42.7368 
" clip-path="url(#p8274df7884)" style="fill: none; stroke: #ffffff; stroke-linecap: round"/>
     </g>
     <g id="text_9">
      <!-- 0.8 -->
      <g style="fill: #262626" transform="translate(31.11259 45.886237) scale(0.088 -0.088)">
       <defs>
        <path id="ArialMT-38" d="M 1131 2484 
Q 781 2613 612 2850 
Q 444 3088 444 3419 
Q 444 3919 803 4259 
Q 1163 4600 1759 4600 
Q 2359 4600 2725 4251 
Q 3091 3903 3091 3403 
Q 3091 3084 2923 2848 
Q 2756 2613 2416 2484 
Q 2838 2347 3058 2040 
Q 3278 1734 3278 1309 
Q 3278 722 2862 322 
Q 2447 -78 1769 -78 
Q 1091 -78 675 323 
Q 259 725 259 1325 
Q 259 1772 486 2073 
Q 713 2375 1131 2484 
z
M 1019 3438 
Q 1019 3113 1228 2906 
Q 1438 2700 1772 2700 
Q 2097 2700 2305 2904 
Q 2513 3109 2513 3406 
Q 2513 3716 2298 3927 
Q 2084 4138 1766 4138 
Q 1444 4138 1231 3931 
Q 1019 3725 1019 3438 
z
M 838 1322 
Q 838 1081 952 856 
Q 1066 631 1291 507 
Q 1516 384 1775 384 
Q 2178 384 2440 643 
Q 2703 903 2703 1303 
Q 2703 1709 2433 1975 
Q 2163 2241 1756 2241 
Q 1359 2241 1098 1978 
Q 838 1716 838 1322 
z
" transform="scale(0.015625)"/>
       </defs>
       <use xlink:href="#ArialMT-30"/>
       <use xlink:href="#ArialMT-2e" x="55.615234"/>
       <use xlink:href="#ArialMT-38" x="83.398438"/>
      </g>
     </g>
    </g>
    <g id="ytick_6">
     <g id="line2d_9">
      <path d="M 52.84459 22.848 
L 175.903686 22.848 
" clip-path="url(#p8274df7884)" style="fill: none; stroke: #ffffff; stroke-linecap: round"/>
     </g>
     <g id="text_10">
      <!-- 1.0 -->
      <g style="fill: #262626" transform="translate(31.11259 25.997437) scale(0.088 -0.088)">
       <defs>
        <path id="ArialMT-31" d="M 2384 0 
L 1822 0 
L 1822 3584 
Q 1619 3391 1289 3197 
Q 959 3003 697 2906 
L 697 3450 
Q 1169 3672 1522 3987 
Q 1875 4303 2022 4600 
L 2384 4600 
L 2384 0 
z
" transform="scale(0.015625)"/>
       </defs>
       <use xlink:href="#ArialMT-31"/>
       <use xlink:href="#ArialMT-2e" x="55.615234"/>
       <use xlink:href="#ArialMT-30" x="83.398438"/>
      </g>
     </g>
    </g>
    <g id="text_11">
     <!-- Proportion -->
     <g style="fill: #262626" transform="translate(25.20459 94.7145) rotate(-90) scale(0.096 -0.096)">
      <defs>
       <path id="ArialMT-50" d="M 494 0 
L 494 4581 
L 2222 4581 
Q 2678 4581 2919 4538 
Q 3256 4481 3484 4323 
Q 3713 4166 3852 3881 
Q 3991 3597 3991 3256 
Q 3991 2672 3619 2267 
Q 3247 1863 2275 1863 
L 1100 1863 
L 1100 0 
L 494 0 
z
M 1100 2403 
L 2284 2403 
Q 2872 2403 3119 2622 
Q 3366 2841 3366 3238 
Q 3366 3525 3220 3729 
Q 3075 3934 2838 4000 
Q 2684 4041 2272 4041 
L 1100 4041 
L 1100 2403 
z
" transform="scale(0.015625)"/>
       <path id="ArialMT-72" d="M 416 0 
L 416 3319 
L 922 3319 
L 922 2816 
Q 1116 3169 1280 3281 
Q 1444 3394 1641 3394 
Q 1925 3394 2219 3213 
L 2025 2691 
Q 1819 2813 1613 2813 
Q 1428 2813 1281 2702 
Q 1134 2591 1072 2394 
Q 978 2094 978 1738 
L 978 0 
L 416 0 
z
" transform="scale(0.015625)"/>
       <path id="ArialMT-6f" d="M 213 1659 
Q 213 2581 725 3025 
Q 1153 3394 1769 3394 
Q 2453 3394 2887 2945 
Q 3322 2497 3322 1706 
Q 3322 1066 3130 698 
Q 2938 331 2570 128 
Q 2203 -75 1769 -75 
Q 1072 -75 642 372 
Q 213 819 213 1659 
z
M 791 1659 
Q 791 1022 1069 705 
Q 1347 388 1769 388 
Q 2188 388 2466 706 
Q 2744 1025 2744 1678 
Q 2744 2294 2464 2611 
Q 2184 2928 1769 2928 
Q 1347 2928 1069 2612 
Q 791 2297 791 1659 
z
" transform="scale(0.015625)"/>
       <path id="ArialMT-70" d="M 422 -1272 
L 422 3319 
L 934 3319 
L 934 2888 
Q 1116 3141 1344 3267 
Q 1572 3394 1897 3394 
Q 2322 3394 2647 3175 
Q 2972 2956 3137 2557 
Q 3303 2159 3303 1684 
Q 3303 1175 3120 767 
Q 2938 359 2589 142 
Q 2241 -75 1856 -75 
Q 1575 -75 1351 44 
Q 1128 163 984 344 
L 984 -1272 
L 422 -1272 
z
M 931 1641 
Q 931 1000 1190 694 
Q 1450 388 1819 388 
Q 2194 388 2461 705 
Q 2728 1022 2728 1688 
Q 2728 2322 2467 2637 
Q 2206 2953 1844 2953 
Q 1484 2953 1207 2617 
Q 931 2281 931 1641 
z
" transform="scale(0.015625)"/>
       <path id="ArialMT-74" d="M 1650 503 
L 1731 6 
Q 1494 -44 1306 -44 
Q 1000 -44 831 53 
Q 663 150 594 308 
Q 525 466 525 972 
L 525 2881 
L 113 2881 
L 113 3319 
L 525 3319 
L 525 4141 
L 1084 4478 
L 1084 3319 
L 1650 3319 
L 1650 2881 
L 1084 2881 
L 1084 941 
Q 1084 700 1114 631 
Q 1144 563 1211 522 
Q 1278 481 1403 481 
Q 1497 481 1650 503 
z
" transform="scale(0.015625)"/>
       <path id="ArialMT-69" d="M 425 3934 
L 425 4581 
L 988 4581 
L 988 3934 
L 425 3934 
z
M 425 0 
L 425 3319 
L 988 3319 
L 988 0 
L 425 0 
z
" transform="scale(0.015625)"/>
       <path id="ArialMT-6e" d="M 422 0 
L 422 3319 
L 928 3319 
L 928 2847 
Q 1294 3394 1984 3394 
Q 2284 3394 2536 3286 
Q 2788 3178 2913 3003 
Q 3038 2828 3088 2588 
Q 3119 2431 3119 2041 
L 3119 0 
L 2556 0 
L 2556 2019 
Q 2556 2363 2490 2533 
Q 2425 2703 2258 2804 
Q 2091 2906 1866 2906 
Q 1506 2906 1245 2678 
Q 984 2450 984 1813 
L 984 0 
L 422 0 
z
" transform="scale(0.015625)"/>
      </defs>
      <use xlink:href="#ArialMT-50"/>
      <use xlink:href="#ArialMT-72" x="66.699219"/>
      <use xlink:href="#ArialMT-6f" x="100"/>
      <use xlink:href="#ArialMT-70" x="155.615234"/>
      <use xlink:href="#ArialMT-6f" x="211.230469"/>
      <use xlink:href="#ArialMT-72" x="266.845703"/>
      <use xlink:href="#ArialMT-74" x="300.146484"/>
      <use xlink:href="#ArialMT-69" x="327.929688"/>
      <use xlink:href="#ArialMT-6f" x="350.146484"/>
      <use xlink:href="#ArialMT-6e" x="405.761719"/>
     </g>
    </g>
   </g>
   <g id="line2d_10">
    <path d="M 82.18209 122.292 
L 82.250728 108.085714 
L 82.300014 108.085714 
L 82.359543 98.614857 
L 82.429457 98.614857 
L 82.509994 89.144 
L 82.601377 89.144 
L 82.601377 84.408571 
L 83.543989 84.408571 
L 83.600196 74.937714 
L 83.677428 74.937714 
L 83.775966 65.466857 
L 85.043556 65.466857 
L 85.108988 55.996 
L 85.184389 55.996 
L 85.269711 46.525143 
L 85.365067 46.525143 
L 85.470489 37.054286 
L 85.586071 37.054286 
L 85.586071 32.318857 
L 85.711911 32.318857 
L 85.711911 27.583429 
L 88.897822 27.583429 
L 88.897822 22.848 
L 88.897822 22.848 
" clip-path="url(#p8274df7884)" style="fill: none; stroke: #023eff; stroke-width: 1.5; stroke-linecap: round"/>
   </g>
   <g id="line2d_11">
    <path d="M 70.117955 122.292 
L 70.154782 116.510372 
L 81.552847 116.510372 
L 81.552847 116.452556 
L 81.578415 111.88507 
L 82.509994 111.88507 
L 82.509994 111.827253 
L 82.609789 107.259767 
L 83.143751 107.259767 
L 83.143751 107.201951 
L 83.218623 95.696512 
L 83.260441 95.696512 
L 83.260441 95.638695 
L 83.264881 93.38386 
L 88.493018 93.38386 
L 88.493018 93.326044 
L 88.603946 91.071209 
L 88.734315 91.071209 
L 88.734315 91.013393 
L 88.767281 87.602233 
L 88.883938 87.602233 
L 88.883938 87.544416 
L 88.922657 84.133256 
L 89.096081 84.133256 
L 89.096081 84.07544 
L 89.096081 82.97693 
L 98.592248 82.97693 
L 98.592248 82.919114 
L 98.647534 78.351628 
L 98.712326 78.351628 
L 98.712326 78.293812 
L 98.800601 63.319395 
L 101.190261 63.319395 
L 101.190261 63.261579 
L 101.298357 48.287163 
L 101.302567 48.287163 
L 101.302567 48.229347 
L 101.3574 44.818186 
L 102.043374 44.818186 
L 102.043374 44.76037 
L 102.053384 40.192884 
L 102.87217 40.192884 
L 102.87217 40.135067 
L 102.951926 33.25493 
L 102.999875 33.25493 
L 102.999875 33.197114 
L 103.067041 28.629628 
L 103.132048 28.629628 
L 103.132048 28.571812 
L 103.138628 26.316977 
L 105.13992 26.316977 
L 105.13992 26.25916 
L 105.143332 22.848 
L 105.143332 22.848 
" clip-path="url(#p8274df7884)" style="fill: none; stroke: #ff7c00; stroke-width: 1.5; stroke-linecap: round"/>
   </g>
   <g id="patch_3">
    <path d="M 52.84459 122.292 
L 52.84459 22.848 
" style="fill: none; stroke: #ffffff; stroke-width: 1.25; stroke-linejoin: miter; stroke-linecap: square"/>
   </g>
   <g id="patch_4">
    <path d="M 52.84459 122.292 
L 175.903686 122.292 
" style="fill: none; stroke: #ffffff; stroke-width: 1.25; stroke-linejoin: miter; stroke-linecap: square"/>
   </g>
   <g id="text_12">
    <!-- TransOrbital -->
    <g style="fill: #262626" transform="translate(88.148888 16.848) scale(0.096 -0.096)">
     <defs>
      <path id="ArialMT-61" d="M 2588 409 
Q 2275 144 1986 34 
Q 1697 -75 1366 -75 
Q 819 -75 525 192 
Q 231 459 231 875 
Q 231 1119 342 1320 
Q 453 1522 633 1644 
Q 813 1766 1038 1828 
Q 1203 1872 1538 1913 
Q 2219 1994 2541 2106 
Q 2544 2222 2544 2253 
Q 2544 2597 2384 2738 
Q 2169 2928 1744 2928 
Q 1347 2928 1158 2789 
Q 969 2650 878 2297 
L 328 2372 
Q 403 2725 575 2942 
Q 747 3159 1072 3276 
Q 1397 3394 1825 3394 
Q 2250 3394 2515 3294 
Q 2781 3194 2906 3042 
Q 3031 2891 3081 2659 
Q 3109 2516 3109 2141 
L 3109 1391 
Q 3109 606 3145 398 
Q 3181 191 3288 0 
L 2700 0 
Q 2613 175 2588 409 
z
M 2541 1666 
Q 2234 1541 1622 1453 
Q 1275 1403 1131 1340 
Q 988 1278 909 1158 
Q 831 1038 831 891 
Q 831 666 1001 516 
Q 1172 366 1500 366 
Q 1825 366 2078 508 
Q 2331 650 2450 897 
Q 2541 1088 2541 1459 
L 2541 1666 
z
" transform="scale(0.015625)"/>
      <path id="ArialMT-4f" d="M 309 2231 
Q 309 3372 921 4017 
Q 1534 4663 2503 4663 
Q 3138 4663 3647 4359 
Q 4156 4056 4423 3514 
Q 4691 2972 4691 2284 
Q 4691 1588 4409 1038 
Q 4128 488 3612 205 
Q 3097 -78 2500 -78 
Q 1853 -78 1343 234 
Q 834 547 571 1087 
Q 309 1628 309 2231 
z
M 934 2222 
Q 934 1394 1379 917 
Q 1825 441 2497 441 
Q 3181 441 3623 922 
Q 4066 1403 4066 2288 
Q 4066 2847 3877 3264 
Q 3688 3681 3323 3911 
Q 2959 4141 2506 4141 
Q 1863 4141 1398 3698 
Q 934 3256 934 2222 
z
" transform="scale(0.015625)"/>
      <path id="ArialMT-62" d="M 941 0 
L 419 0 
L 419 4581 
L 981 4581 
L 981 2947 
Q 1338 3394 1891 3394 
Q 2197 3394 2470 3270 
Q 2744 3147 2920 2923 
Q 3097 2700 3197 2384 
Q 3297 2069 3297 1709 
Q 3297 856 2875 390 
Q 2453 -75 1863 -75 
Q 1275 -75 941 416 
L 941 0 
z
M 934 1684 
Q 934 1088 1097 822 
Q 1363 388 1816 388 
Q 2184 388 2453 708 
Q 2722 1028 2722 1663 
Q 2722 2313 2464 2622 
Q 2206 2931 1841 2931 
Q 1472 2931 1203 2611 
Q 934 2291 934 1684 
z
" transform="scale(0.015625)"/>
      <path id="ArialMT-6c" d="M 409 0 
L 409 4581 
L 972 4581 
L 972 0 
L 409 0 
z
" transform="scale(0.015625)"/>
     </defs>
     <use xlink:href="#ArialMT-54"/>
     <use xlink:href="#ArialMT-72" x="57.333984"/>
     <use xlink:href="#ArialMT-61" x="90.634766"/>
     <use xlink:href="#ArialMT-6e" x="146.25"/>
     <use xlink:href="#ArialMT-73" x="201.865234"/>
     <use xlink:href="#ArialMT-4f" x="251.865234"/>
     <use xlink:href="#ArialMT-72" x="329.648438"/>
     <use xlink:href="#ArialMT-62" x="362.949219"/>
     <use xlink:href="#ArialMT-69" x="418.564453"/>
     <use xlink:href="#ArialMT-74" x="440.78125"/>
     <use xlink:href="#ArialMT-61" x="468.564453"/>
     <use xlink:href="#ArialMT-6c" x="524.179688"/>
    </g>
   </g>
  </g>
  <g id="axes_2">
   <g id="patch_5">
    <path d="M 185.792104 122.292 
L 308.8512 122.292 
L 308.8512 22.848 
L 185.792104 22.848 
z
" style="fill: #eaeaf2"/>
   </g>
   <g id="matplotlib.axis_3">
    <g id="xtick_4">
     <g id="line2d_12">
      <path d="M 204.951358 122.292 
L 204.951358 22.848 
" clip-path="url(#p45da8842bb)" style="fill: none; stroke: #ffffff; stroke-linecap: round"/>
     </g>
     <g id="text_13">
      <!-- 20 -->
      <g style="fill: #262626" transform="translate(200.057733 138.090875) scale(0.088 -0.088)">
       <use xlink:href="#ArialMT-32"/>
       <use xlink:href="#ArialMT-30" x="55.615234"/>
      </g>
     </g>
    </g>
    <g id="xtick_5">
     <g id="line2d_13">
      <path d="M 253.95534 122.292 
L 253.95534 22.848 
" clip-path="url(#p45da8842bb)" style="fill: none; stroke: #ffffff; stroke-linecap: round"/>
     </g>
     <g id="text_14">
      <!-- 40 -->
      <g style="fill: #262626" transform="translate(249.061715 138.090875) scale(0.088 -0.088)">
       <use xlink:href="#ArialMT-34"/>
       <use xlink:href="#ArialMT-30" x="55.615234"/>
      </g>
     </g>
    </g>
    <g id="xtick_6">
     <g id="line2d_14">
      <path d="M 302.959321 122.292 
L 302.959321 22.848 
" clip-path="url(#p45da8842bb)" style="fill: none; stroke: #ffffff; stroke-linecap: round"/>
     </g>
     <g id="text_15">
      <!-- 60 -->
      <g style="fill: #262626" transform="translate(298.065696 138.090875) scale(0.088 -0.088)">
       <use xlink:href="#ArialMT-36"/>
       <use xlink:href="#ArialMT-30" x="55.615234"/>
      </g>
     </g>
    </g>
    <g id="text_16">
     <!-- RTT (ms) -->
     <g style="fill: #262626" transform="translate(227.231402 150.828375) scale(0.096 -0.096)">
      <use xlink:href="#ArialMT-52"/>
      <use xlink:href="#ArialMT-54" x="70.466797"/>
      <use xlink:href="#ArialMT-54" x="131.550781"/>
      <use xlink:href="#ArialMT-20" x="190.884766"/>
      <use xlink:href="#ArialMT-28" x="218.667969"/>
      <use xlink:href="#ArialMT-6d" x="251.96875"/>
      <use xlink:href="#ArialMT-73" x="335.269531"/>
      <use xlink:href="#ArialMT-29" x="385.269531"/>
     </g>
    </g>
   </g>
   <g id="matplotlib.axis_4">
    <g id="ytick_7">
     <g id="line2d_15">
      <path d="M 185.792104 122.292 
L 308.8512 122.292 
" clip-path="url(#p45da8842bb)" style="fill: none; stroke: #ffffff; stroke-linecap: round"/>
     </g>
    </g>
    <g id="ytick_8">
     <g id="line2d_16">
      <path d="M 185.792104 102.4032 
L 308.8512 102.4032 
" clip-path="url(#p45da8842bb)" style="fill: none; stroke: #ffffff; stroke-linecap: round"/>
     </g>
    </g>
    <g id="ytick_9">
     <g id="line2d_17">
      <path d="M 185.792104 82.5144 
L 308.8512 82.5144 
" clip-path="url(#p45da8842bb)" style="fill: none; stroke: #ffffff; stroke-linecap: round"/>
     </g>
    </g>
    <g id="ytick_10">
     <g id="line2d_18">
      <path d="M 185.792104 62.6256 
L 308.8512 62.6256 
" clip-path="url(#p45da8842bb)" style="fill: none; stroke: #ffffff; stroke-linecap: round"/>
     </g>
    </g>
    <g id="ytick_11">
     <g id="line2d_19">
      <path d="M 185.792104 42.7368 
L 308.8512 42.7368 
" clip-path="url(#p45da8842bb)" style="fill: none; stroke: #ffffff; stroke-linecap: round"/>
     </g>
    </g>
    <g id="ytick_12">
     <g id="line2d_20">
      <path d="M 185.792104 22.848 
L 308.8512 22.848 
" clip-path="url(#p45da8842bb)" style="fill: none; stroke: #ffffff; stroke-linecap: round"/>
     </g>
    </g>
   </g>
   <g id="line2d_21">
    <path d="M 191.3857 122.292 
L 191.387854 121.316102 
L 194.313476 121.316102 
L 194.313476 121.218512 
L 194.41838 119.388704 
L 194.44238 119.364306 
L 194.44238 119.291114 
L 194.542204 117.461305 
L 194.64202 117.41251 
L 194.64202 117.363715 
L 194.739189 116.46101 
L 194.767584 116.46101 
L 194.767584 116.36342 
L 194.877996 115.509509 
L 195.665746 115.509509 
L 195.665746 115.41192 
L 195.745628 110.703212 
L 195.813256 110.678815 
L 195.813256 110.605622 
L 195.901051 109.727314 
L 196.008847 109.702917 
L 196.008847 109.629724 
L 196.027863 109.214968 
L 199.60596 109.141775 
L 199.60596 109.117378 
L 199.625284 108.165877 
L 199.904388 108.165877 
L 199.904388 108.068288 
L 200.015367 104.725837 
L 200.021251 104.725837 
L 200.021251 104.628247 
L 200.082776 102.359285 
L 205.14499 102.31049 
L 205.14499 102.261695 
L 205.250277 99.431591 
L 205.313956 99.382796 
L 205.313956 99.334001 
L 205.403512 97.479795 
L 205.490633 97.431 
L 205.490633 97.382205 
L 205.598336 95.991551 
L 205.608253 95.991551 
L 205.608253 95.893961 
L 205.719096 95.015653 
L 205.73014 95.015653 
L 205.73014 94.918063 
L 205.830211 91.575612 
L 205.853003 91.575612 
L 205.853003 91.478023 
L 205.954467 88.672316 
L 206.000224 88.599124 
L 206.000224 88.574726 
L 206.111119 86.671725 
L 206.116998 86.671725 
L 206.116998 86.574135 
L 206.207657 84.744327 
L 206.234342 84.744327 
L 206.234342 84.646737 
L 206.338736 83.28048 
L 206.369164 83.28048 
L 206.369164 83.18289 
L 206.473647 82.328979 
L 206.521264 82.304582 
L 206.521264 82.23139 
L 206.540425 80.913927 
L 206.690422 80.840735 
L 206.690422 80.816338 
L 206.705811 79.913632 
L 206.876362 79.889235 
L 206.876362 79.816042 
L 206.893158 78.962132 
L 207.097165 78.937734 
L 207.097165 78.864542 
L 207.097165 78.474183 
L 207.317422 78.449785 
L 207.317422 78.376593 
L 207.317422 77.986234 
L 207.553741 77.961836 
L 207.553741 77.888644 
L 207.592838 77.473887 
L 207.755654 77.376297 
L 207.812889 75.497694 
L 208.903709 75.473296 
L 208.903709 75.400104 
L 208.903709 75.009745 
L 210.701157 74.985347 
L 210.701157 74.912155 
L 210.799448 73.545898 
L 210.858202 73.472706 
L 210.858202 73.448308 
L 210.923424 72.496808 
L 213.137168 72.448013 
L 213.137168 72.399218 
L 213.151356 69.154357 
L 216.472941 69.105562 
L 216.472941 69.056767 
L 216.568404 63.29897 
L 216.628602 63.274572 
L 216.628602 63.20138 
L 216.719354 61.85952 
L 217.519984 61.85952 
L 217.519984 61.76193 
L 217.587664 60.371276 
L 217.671575 60.371276 
L 217.671575 60.273686 
L 217.774833 56.418889 
L 217.810664 56.418889 
L 217.810664 56.321299 
L 217.918643 51.075848 
L 217.942126 51.075848 
L 217.942126 50.978258 
L 218.000221 49.172847 
L 218.061545 49.172847 
L 218.061545 49.075257 
L 218.103106 48.196949 
L 218.17295 48.196949 
L 218.17295 48.099359 
L 218.219847 46.7575 
L 218.306122 46.7575 
L 218.306122 46.65991 
L 218.350487 45.757204 
L 219.615782 45.732807 
L 219.615782 45.659614 
L 219.653235 43.829806 
L 221.854071 43.781011 
L 221.854071 43.732216 
L 221.96291 40.389765 
L 221.977397 40.365368 
L 221.977397 40.292176 
L 222.080684 38.925919 
L 222.095115 38.925919 
L 222.095115 38.828329 
L 222.174768 37.022918 
L 224.11777 37.022918 
L 224.11777 36.925328 
L 224.182963 35.998225 
L 224.306228 35.998225 
L 224.306228 35.900635 
L 224.308009 35.022327 
L 224.57806 35.022327 
L 224.57806 34.924737 
L 224.578411 34.095224 
L 225.805973 34.022031 
L 225.805973 33.997634 
L 225.905437 33.070531 
L 225.950236 33.070531 
L 225.950236 32.972941 
L 226.058617 31.655479 
L 226.107271 31.631081 
L 226.107271 31.557889 
L 226.121478 30.703978 
L 228.079248 30.703978 
L 228.079248 30.606389 
L 228.101166 29.72808 
L 229.351179 29.679286 
L 229.351179 29.630491 
L 229.400895 28.239836 
L 235.632553 28.215439 
L 235.632553 28.142246 
L 235.658836 27.239541 
L 235.744452 27.239541 
L 235.744452 27.141951 
L 235.813693 25.33654 
L 237.872936 25.33654 
L 237.872936 25.23895 
L 237.968562 23.848295 
L 238.007548 23.848295 
L 238.007548 23.750706 
L 238.028438 22.848 
L 238.028438 22.848 
" clip-path="url(#p45da8842bb)" style="fill: none; stroke: #023eff; stroke-width: 1.5; stroke-linecap: round"/>
   </g>
   <g id="line2d_22">
    <path d="M 195.901051 122.292 
L 196.008847 121.282416 
L 199.71234 121.282416 
L 199.71234 121.181458 
L 199.823431 118.758457 
L 199.829801 118.758457 
L 199.829801 118.657498 
L 199.937705 115.224914 
L 199.973634 115.224914 
L 199.973634 115.123955 
L 200.082776 111.691371 
L 200.496581 111.691371 
L 200.496581 111.590412 
L 200.58072 107.653036 
L 200.637151 107.653036 
L 200.637151 107.552077 
L 200.722838 105.633868 
L 200.81037 105.633868 
L 200.81037 105.53291 
L 200.819418 104.624284 
L 200.922303 104.624284 
L 200.922303 104.523326 
L 200.932734 103.614701 
L 201.050821 103.589461 
L 201.050821 103.513742 
L 201.062705 102.605117 
L 207.805954 102.605117 
L 207.805954 102.504158 
L 207.812894 101.595533 
L 209.373164 101.595533 
L 209.373164 101.494575 
L 209.446335 99.576365 
L 209.51674 99.576365 
L 209.51674 99.475407 
L 209.523796 98.566782 
L 210.678071 98.566782 
L 210.678071 98.465823 
L 210.77302 92.509279 
L 210.789601 92.509279 
L 210.789601 92.408321 
L 210.860253 89.98532 
L 210.913376 89.98532 
L 210.913376 89.884361 
L 210.921236 88.975736 
L 211.66916 88.975736 
L 211.66916 88.874778 
L 211.681119 87.966152 
L 211.813427 87.966152 
L 211.813427 87.865194 
L 211.826508 86.956569 
L 211.970257 86.956569 
L 211.970257 86.85561 
L 211.984413 85.946985 
L 212.139905 85.946985 
L 212.139905 85.846026 
L 212.155201 84.937401 
L 212.32277 84.937401 
L 212.32277 84.836443 
L 212.33923 83.927817 
L 216.568035 83.927817 
L 216.568035 83.826859 
L 216.642505 81.90865 
L 216.710881 81.90865 
L 216.710881 81.807691 
L 216.799063 79.889482 
L 216.879137 79.864243 
L 216.879137 79.788524 
L 216.886993 78.879898 
L 217.384676 78.879898 
L 217.384676 78.77894 
L 217.467035 75.346355 
L 217.518849 75.321116 
L 217.518849 75.245397 
L 217.524274 74.336772 
L 217.888803 74.336772 
L 217.888803 74.235813 
L 217.89057 73.327188 
L 220.009734 73.327188 
L 220.009734 73.226229 
L 220.009954 72.317604 
L 220.42338 72.317604 
L 220.42338 72.216646 
L 220.532041 65.250518 
L 221.845954 65.250518 
L 221.845954 65.149559 
L 221.935991 61.212183 
L 221.977392 61.212183 
L 221.977392 61.111224 
L 221.981729 60.202599 
L 222.250472 60.202599 
L 222.250472 60.101641 
L 222.258048 59.193015 
L 224.181963 59.193015 
L 224.181963 59.092057 
L 224.252657 56.669056 
L 225.950231 56.669056 
L 225.950231 56.568097 
L 226.055355 53.640305 
L 226.088349 53.640305 
L 226.088349 53.539346 
L 226.132367 50.611553 
L 227.321954 50.611553 
L 227.321954 50.510595 
L 227.432031 48.087594 
L 227.437891 48.087594 
L 227.437891 47.986636 
L 227.512263 46.573218 
L 227.590893 46.573218 
L 227.590893 46.47226 
L 227.598828 45.563635 
L 228.828975 45.563635 
L 228.828975 45.462676 
L 228.841004 44.554051 
L 228.971733 44.554051 
L 228.971733 44.453092 
L 228.98451 43.544467 
L 229.122982 43.544467 
L 229.122982 43.443509 
L 229.158444 41.525299 
L 229.282896 41.525299 
L 229.282896 41.424341 
L 229.297136 40.515716 
L 229.451624 40.515716 
L 229.451624 40.414757 
L 229.466598 39.506132 
L 230.022216 39.506132 
L 230.022216 39.405174 
L 230.022291 38.496548 
L 231.942201 38.496548 
L 231.942201 38.39559 
L 232.023658 34.458213 
L 232.11528 34.458213 
L 232.11528 34.357255 
L 232.11528 33.953421 
L 232.31081 33.953421 
L 232.31081 33.852463 
L 232.312866 32.943838 
L 234.038359 32.918598 
L 234.038359 32.842879 
L 234.144697 30.92467 
L 235.276712 30.92467 
L 235.276712 30.823712 
L 235.287629 29.915086 
L 235.409343 29.915086 
L 235.409343 29.814128 
L 235.421596 28.905503 
L 236.022481 28.905503 
L 236.022481 28.804544 
L 236.132652 27.391127 
L 236.142653 27.391127 
L 236.142653 27.290169 
L 236.252673 26.381543 
L 236.263534 26.381543 
L 236.263534 26.280585 
L 236.263534 25.876751 
L 236.382537 25.876751 
L 236.382537 25.775793 
L 236.39423 24.867168 
L 236.522309 24.867168 
L 236.522309 24.766209 
L 236.534871 23.857584 
L 236.672072 23.857584 
L 236.672072 23.756625 
L 236.685448 22.848 
L 236.685448 22.848 
" clip-path="url(#p45da8842bb)" style="fill: none; stroke: #ff7c00; stroke-width: 1.5; stroke-linecap: round"/>
   </g>
   <g id="line2d_23">
    <path d="M 223.421365 122.292 
L 223.487811 116.723136 
L 223.533447 116.723136 
L 223.533447 116.623692 
L 223.603272 115.132032 
L 223.674896 115.132032 
L 223.674896 115.032588 
L 223.775608 113.540928 
L 223.873249 113.540928 
L 223.873249 113.441484 
L 223.883114 112.745376 
L 223.993794 112.745376 
L 223.993794 112.645932 
L 224.004875 111.949824 
L 224.12856 111.949824 
L 224.12856 111.85038 
L 224.140907 111.154272 
L 224.277669 111.154272 
L 224.277669 111.054828 
L 224.291255 110.35872 
L 224.44106 110.35872 
L 224.44106 110.259276 
L 224.45587 109.165392 
L 224.629874 109.165392 
L 224.629874 109.065948 
L 224.634842 108.36984 
L 235.010853 108.36984 
L 235.010853 108.270396 
L 235.094235 105.983184 
L 235.146979 105.983184 
L 235.146979 105.88374 
L 235.222519 104.39208 
L 235.296938 104.39208 
L 235.296938 104.292636 
L 235.398285 102.800976 
L 235.494482 102.800976 
L 235.494482 102.701532 
L 235.5041 102.005424 
L 235.611252 102.005424 
L 235.611252 101.90598 
L 235.621907 101.209872 
L 235.740143 101.209872 
L 235.740143 101.110428 
L 235.751818 100.41432 
L 235.881186 100.41432 
L 235.881186 100.314876 
L 235.893954 99.618768 
L 236.034539 99.618768 
L 236.034539 99.519324 
L 236.048325 98.823216 
L 240.375589 98.823216 
L 240.375589 98.723772 
L 240.484572 96.038784 
L 240.488638 96.038784 
L 240.488638 95.93934 
L 240.569086 94.44768 
L 240.667601 94.44768 
L 240.667601 94.348236 
L 240.667601 94.049904 
L 240.785828 94.049904 
L 240.785828 93.95046 
L 240.785828 93.652128 
L 248.572115 93.652128 
L 248.572115 93.552684 
L 248.583098 92.856576 
L 248.702456 92.856576 
L 248.702456 92.757132 
L 248.714055 92.061024 
L 249.186142 92.061024 
L 249.186142 91.96158 
L 249.196134 91.265472 
L 249.30793 91.265472 
L 249.30793 91.166028 
L 249.319062 90.46992 
L 249.442767 90.46992 
L 249.442767 90.370476 
L 249.454983 89.674368 
L 249.590726 89.674368 
L 249.590726 89.574924 
L 249.604129 88.878816 
L 249.752033 88.878816 
L 249.752033 88.779372 
L 249.766539 88.083264 
L 249.926658 88.083264 
L 249.926658 87.98382 
L 249.942314 87.287712 
L 250.131792 87.287712 
L 250.131792 87.188268 
L 250.131792 86.889936 
L 250.33486 86.889936 
L 250.33486 86.790492 
L 250.33486 86.49216 
L 250.551733 86.49216 
L 250.551733 86.392716 
L 250.551733 86.094384 
L 251.020099 86.094384 
L 251.020099 85.99494 
L 251.081339 84.901056 
L 251.135158 84.901056 
L 251.135158 84.801612 
L 251.210521 82.912176 
L 251.284276 82.912176 
L 251.284276 82.812732 
L 251.390568 81.321072 
L 251.492756 81.321072 
L 251.492756 81.221628 
L 251.50315 80.52552 
L 254.378655 80.52552 
L 254.378655 80.426076 
L 254.384319 79.729968 
L 254.545625 79.729968 
L 254.545625 79.630524 
L 254.649673 78.53664 
L 254.659123 78.53664 
L 254.659123 78.437196 
L 254.762545 77.741088 
L 254.772733 77.741088 
L 254.772733 77.641644 
L 254.772733 77.343312 
L 254.884399 77.343312 
L 254.884399 77.243868 
L 254.895437 76.54776 
L 255.015497 76.54776 
L 255.015497 76.448316 
L 255.02733 75.752208 
L 255.156072 75.752208 
L 255.156072 75.652764 
L 255.168681 74.956656 
L 257.487399 74.956656 
L 257.487399 74.857212 
L 257.487399 74.55888 
L 259.001229 74.55888 
L 259.001229 74.459436 
L 259.01252 73.763328 
L 259.137627 73.763328 
L 259.137627 73.663884 
L 259.150264 72.967776 
L 259.289736 72.967776 
L 259.289736 72.868332 
L 259.303672 72.172224 
L 259.457398 72.172224 
L 259.457398 72.07278 
L 259.47269 71.376672 
L 259.64053 71.356783 
L 259.64053 71.277228 
L 259.657102 70.58112 
L 259.838915 70.58112 
L 259.838915 70.481676 
L 259.856814 69.785568 
L 260.05246 69.785568 
L 260.05246 69.686124 
L 260.071677 68.990016 
L 260.281045 68.990016 
L 260.281045 68.890572 
L 260.301561 68.194464 
L 260.524556 68.194464 
L 260.524556 68.09502 
L 260.546334 67.398912 
L 260.782854 67.398912 
L 260.782854 67.299468 
L 260.805894 66.60336 
L 263.624935 66.60336 
L 263.624935 66.503916 
L 263.69841 65.012256 
L 263.775988 65.012256 
L 263.775988 64.912812 
L 263.886458 63.421152 
L 266.545735 63.421152 
L 266.545735 63.321708 
L 266.601591 62.227824 
L 266.659681 62.227824 
L 266.659681 62.12838 
L 266.737867 60.63672 
L 266.810959 60.63672 
L 266.810959 60.537276 
L 266.906791 59.045616 
L 266.994782 59.045616 
L 266.994782 58.946172 
L 267.098979 57.852288 
L 267.10842 57.852288 
L 267.10842 57.752844 
L 267.211477 57.056736 
L 267.221618 57.056736 
L 267.221618 56.957292 
L 267.332312 56.261184 
L 267.343173 56.261184 
L 267.343173 56.16174 
L 267.343173 55.863408 
L 267.471598 55.863408 
L 267.471598 55.763964 
L 267.483281 55.067856 
L 267.599536 55.067856 
L 267.599536 54.968412 
L 267.611911 54.272304 
L 267.746262 54.272304 
L 267.746262 54.17286 
L 267.759338 53.476752 
L 270.083346 53.476752 
L 270.083346 53.377308 
L 270.184198 52.283424 
L 270.260187 52.283424 
L 270.260187 52.18398 
L 270.361702 50.294544 
L 270.464909 50.294544 
L 270.464909 50.1951 
L 270.4752 49.498992 
L 270.887271 49.498992 
L 270.887271 49.399548 
L 270.901759 48.70344 
L 271.061196 48.70344 
L 271.061196 48.603996 
L 271.077067 47.907888 
L 271.251103 47.907888 
L 271.251103 47.808444 
L 271.268311 47.112336 
L 271.456835 47.112336 
L 271.456835 47.012892 
L 271.475472 46.316784 
L 271.678438 46.316784 
L 271.678438 46.21734 
L 271.698449 45.521232 
L 271.915855 45.521232 
L 271.915855 45.421788 
L 271.915855 45.123456 
L 272.785973 45.123456 
L 272.785973 45.024012 
L 272.801508 44.327904 
L 272.970292 44.327904 
L 272.970292 44.22846 
L 272.987004 43.532352 
L 275.871884 43.532352 
L 275.871884 43.432908 
L 275.877043 42.7368 
L 297.052015 42.7368 
L 297.052015 42.637356 
L 297.122648 41.145696 
L 297.26985 41.145696 
L 297.26985 41.046252 
L 297.370655 39.554592 
L 297.458094 39.554592 
L 297.458094 39.455148 
L 297.47433 38.75904 
L 297.577957 38.739151 
L 297.577957 38.659596 
L 297.588351 37.963488 
L 297.7014 37.963488 
L 297.7014 37.864044 
L 297.712625 37.167936 
L 297.835171 37.167936 
L 297.835171 37.068492 
L 297.847322 36.372384 
L 297.979382 36.372384 
L 297.979382 36.27294 
L 297.992346 35.576832 
L 298.133912 35.576832 
L 298.133912 35.477388 
L 298.147802 34.78128 
L 298.298939 34.78128 
L 298.298939 34.681836 
L 298.313688 33.985728 
L 298.465293 33.985728 
L 298.465293 33.886284 
L 298.480986 33.190176 
L 298.651209 33.190176 
L 298.651209 33.090732 
L 298.667781 32.394624 
L 298.847837 32.394624 
L 298.847837 32.29518 
L 298.865353 31.599072 
L 299.065318 31.599072 
L 299.065318 31.499628 
L 299.083834 30.80352 
L 299.273863 30.80352 
L 299.273863 30.704076 
L 299.293257 30.007968 
L 299.503513 29.988079 
L 299.503513 29.908524 
L 299.545564 28.416864 
L 301.932906 28.416864 
L 301.932906 28.31742 
L 301.932906 28.019088 
L 302.0632 28.019088 
L 302.0632 27.919644 
L 302.0632 27.621312 
L 302.212814 27.621312 
L 302.212814 27.521868 
L 302.212814 27.223536 
L 302.381495 27.223536 
L 302.381495 27.124092 
L 302.386224 26.427984 
L 302.568804 26.427984 
L 302.568804 26.32854 
L 302.585946 25.234656 
L 302.771676 25.234656 
L 302.771676 25.135212 
L 302.790276 24.439104 
L 302.994839 24.439104 
L 302.994839 24.33966 
L 303.015084 23.643552 
L 303.235864 23.623663 
L 303.235864 23.544108 
L 303.257605 22.848 
L 303.257605 22.848 
" clip-path="url(#p45da8842bb)" style="fill: none; stroke: #1ac938; stroke-width: 1.5; stroke-linecap: round"/>
   </g>
   <g id="line2d_24">
    <path d="M 223.421365 122.292 
L 223.487811 116.417671 
L 223.533447 116.417671 
L 223.533447 116.312772 
L 223.603263 114.739291 
L 223.674896 114.739291 
L 223.674896 114.634392 
L 223.775598 113.060911 
L 223.873244 113.060911 
L 223.873244 112.956013 
L 223.883114 112.221722 
L 223.993785 112.221722 
L 223.993785 112.116823 
L 224.004879 111.382532 
L 224.12856 111.382532 
L 224.12856 111.277633 
L 224.140907 110.543342 
L 224.277669 110.543342 
L 224.277669 110.438443 
L 224.291255 109.704152 
L 224.441065 109.704152 
L 224.441065 109.599253 
L 224.45587 108.445367 
L 224.629874 108.445367 
L 224.629874 108.340468 
L 224.634842 107.606177 
L 240.667601 107.606177 
L 240.667601 107.501278 
L 240.667601 107.186582 
L 240.785837 107.186582 
L 240.785837 107.081684 
L 240.785837 106.766987 
L 245.524546 106.766987 
L 245.524546 106.662089 
L 245.628725 103.829823 
L 248.572115 103.829823 
L 248.572115 103.724924 
L 248.679024 100.473063 
L 248.694483 100.473063 
L 248.694483 100.368165 
L 248.786577 94.598734 
L 248.827946 94.598734 
L 248.827946 94.493835 
L 248.904888 92.081165 
L 248.981373 92.081165 
L 248.981373 91.976266 
L 249.086178 90.402785 
L 249.186142 90.402785 
L 249.186142 90.297886 
L 249.196134 89.563595 
L 249.30794 89.563595 
L 249.30794 89.458696 
L 249.319053 88.724405 
L 249.442767 88.724405 
L 249.442767 88.619506 
L 249.454983 87.885215 
L 249.590726 87.885215 
L 249.590726 87.780316 
L 249.604129 87.046025 
L 249.752023 87.046025 
L 249.752023 86.941127 
L 249.766548 86.206835 
L 249.926658 86.206835 
L 249.926658 86.101937 
L 249.942314 85.367646 
L 250.131792 85.367646 
L 250.131792 85.262747 
L 250.131792 84.948051 
L 250.33486 84.948051 
L 250.33486 84.843152 
L 250.33486 84.528456 
L 250.551733 84.528456 
L 250.551733 84.423557 
L 250.551733 84.108861 
L 251.020099 84.108861 
L 251.020099 84.003962 
L 251.080358 82.850076 
L 251.133513 82.850076 
L 251.133513 82.745177 
L 251.208194 80.752101 
L 251.284286 80.752101 
L 251.284286 80.647203 
L 251.390549 79.073722 
L 251.492756 79.073722 
L 251.492756 78.968823 
L 251.50315 78.234532 
L 252.76028 78.234532 
L 252.76028 78.129633 
L 252.825259 76.556152 
L 252.89794 76.556152 
L 252.89794 76.451253 
L 252.982453 75.716962 
L 253.078781 75.716962 
L 253.078781 75.612063 
L 253.189821 74.458177 
L 253.306319 74.458177 
L 253.306319 74.353278 
L 253.317273 73.199392 
L 253.437379 73.199392 
L 253.437379 73.094494 
L 253.449287 72.360203 
L 253.958153 72.360203 
L 253.958153 72.255304 
L 254.058659 67.325063 
L 254.099981 67.325063 
L 254.099981 67.220165 
L 254.158398 65.646684 
L 254.214965 65.646684 
L 254.214965 65.541785 
L 254.291515 63.968304 
L 254.363429 63.968304 
L 254.363429 63.863405 
L 254.458214 62.289924 
L 254.545616 62.289924 
L 254.545616 62.185025 
L 254.649673 61.031139 
L 254.659123 61.031139 
L 254.659123 60.926241 
L 254.762545 60.191949 
L 254.772742 60.191949 
L 254.772742 60.087051 
L 254.772742 59.772354 
L 254.884399 59.772354 
L 254.884399 59.667456 
L 254.895437 58.933165 
L 256.239166 58.933165 
L 256.239166 58.828266 
L 256.328512 56.415595 
L 256.376666 56.415595 
L 256.376666 56.310696 
L 256.441187 54.737215 
L 256.501399 54.737215 
L 256.501399 54.632316 
L 256.580435 53.058835 
L 256.652789 53.058835 
L 256.652789 52.953937 
L 256.746471 51.380456 
L 256.831433 51.380456 
L 256.831433 51.275557 
L 256.839817 50.541266 
L 259.070872 50.541266 
L 259.070872 50.436367 
L 259.152619 45.506127 
L 260.18024 45.506127 
L 260.18024 45.401228 
L 260.195961 44.666937 
L 260.367587 44.666937 
L 260.367587 44.562038 
L 260.384607 43.827747 
L 263.951708 43.827747 
L 263.951708 43.722848 
L 264.010387 41.729772 
L 264.067495 41.729772 
L 264.067495 41.624873 
L 264.144709 40.051392 
L 264.217333 40.051392 
L 264.217333 39.946494 
L 264.312895 38.373013 
L 264.400895 38.373013 
L 264.400895 38.268114 
L 264.505326 37.114228 
L 264.514738 37.114228 
L 264.514738 37.009329 
L 264.618272 36.275038 
L 264.628442 36.275038 
L 264.628442 36.170139 
L 264.628442 35.855443 
L 264.739846 35.834463 
L 264.739846 35.750544 
L 264.750744 35.016253 
L 264.870084 35.016253 
L 264.870084 34.911354 
L 264.881748 34.177063 
L 265.009117 34.177063 
L 265.009117 34.072165 
L 265.021595 33.337873 
L 265.157188 33.337873 
L 265.157188 33.232975 
L 265.170414 32.498684 
L 265.314382 32.498684 
L 265.314382 32.393785 
L 265.328412 31.659494 
L 267.481571 31.659494 
L 267.481571 31.554595 
L 267.534613 29.981114 
L 267.595339 29.981114 
L 267.595339 29.876215 
L 267.686545 28.302734 
L 267.77905 28.302734 
L 267.77905 28.197835 
L 267.788528 27.463544 
L 267.896632 27.463544 
L 267.896632 27.358646 
L 267.90755 26.624354 
L 268.031151 26.624354 
L 268.031151 26.519456 
L 268.043536 25.785165 
L 268.182559 25.785165 
L 268.182559 25.680266 
L 268.196327 24.945975 
L 268.350605 24.945975 
L 268.350605 24.841076 
L 268.36585 24.106785 
L 268.552084 24.106785 
L 268.552084 24.001886 
L 268.552084 23.68719 
L 268.754853 23.68719 
L 268.754853 23.582291 
L 268.754853 23.267595 
L 268.974072 23.267595 
L 268.974072 23.162696 
L 268.974072 22.848 
L 268.974072 22.848 
" clip-path="url(#p45da8842bb)" style="fill: none; stroke: #e8000b; stroke-width: 1.5; stroke-linecap: round"/>
   </g>
   <g id="patch_6">
    <path d="M 185.792104 122.292 
L 185.792104 22.848 
" style="fill: none; stroke: #ffffff; stroke-width: 1.25; stroke-linejoin: miter; stroke-linecap: square"/>
   </g>
   <g id="patch_7">
    <path d="M 185.792104 122.292 
L 308.8512 122.292 
" style="fill: none; stroke: #ffffff; stroke-width: 1.25; stroke-linejoin: miter; stroke-linecap: square"/>
   </g>
   <g id="text_17">
    <!-- IntraOrbital -->
    <g style="fill: #262626" transform="translate(223.581152 16.848) scale(0.096 -0.096)">
     <defs>
      <path id="ArialMT-49" d="M 597 0 
L 597 4581 
L 1203 4581 
L 1203 0 
L 597 0 
z
" transform="scale(0.015625)"/>
     </defs>
     <use xlink:href="#ArialMT-49"/>
     <use xlink:href="#ArialMT-6e" x="27.783203"/>
     <use xlink:href="#ArialMT-74" x="83.398438"/>
     <use xlink:href="#ArialMT-72" x="111.181641"/>
     <use xlink:href="#ArialMT-61" x="144.482422"/>
     <use xlink:href="#ArialMT-4f" x="200.097656"/>
     <use xlink:href="#ArialMT-72" x="277.880859"/>
     <use xlink:href="#ArialMT-62" x="311.181641"/>
     <use xlink:href="#ArialMT-69" x="366.796875"/>
     <use xlink:href="#ArialMT-74" x="389.013672"/>
     <use xlink:href="#ArialMT-61" x="416.796875"/>
     <use xlink:href="#ArialMT-6c" x="472.412109"/>
    </g>
   </g>
  </g>
  <g id="legend_1">
   <g id="text_18">
    <!-- Direction -->
    <g style="fill: #262626" transform="translate(328.04325 58.586) scale(0.096 -0.096)">
     <defs>
      <path id="ArialMT-44" d="M 494 0 
L 494 4581 
L 2072 4581 
Q 2606 4581 2888 4516 
Q 3281 4425 3559 4188 
Q 3922 3881 4101 3404 
Q 4281 2928 4281 2316 
Q 4281 1794 4159 1391 
Q 4038 988 3847 723 
Q 3656 459 3429 307 
Q 3203 156 2883 78 
Q 2563 0 2147 0 
L 494 0 
z
M 1100 541 
L 2078 541 
Q 2531 541 2789 625 
Q 3047 709 3200 863 
Q 3416 1078 3536 1442 
Q 3656 1806 3656 2325 
Q 3656 3044 3420 3430 
Q 3184 3816 2847 3947 
Q 2603 4041 2063 4041 
L 1100 4041 
L 1100 541 
z
" transform="scale(0.015625)"/>
      <path id="ArialMT-65" d="M 2694 1069 
L 3275 997 
Q 3138 488 2766 206 
Q 2394 -75 1816 -75 
Q 1088 -75 661 373 
Q 234 822 234 1631 
Q 234 2469 665 2931 
Q 1097 3394 1784 3394 
Q 2450 3394 2872 2941 
Q 3294 2488 3294 1666 
Q 3294 1616 3291 1516 
L 816 1516 
Q 847 969 1125 678 
Q 1403 388 1819 388 
Q 2128 388 2347 550 
Q 2566 713 2694 1069 
z
M 847 1978 
L 2700 1978 
Q 2663 2397 2488 2606 
Q 2219 2931 1791 2931 
Q 1403 2931 1139 2672 
Q 875 2413 847 1978 
z
" transform="scale(0.015625)"/>
      <path id="ArialMT-63" d="M 2588 1216 
L 3141 1144 
Q 3050 572 2676 248 
Q 2303 -75 1759 -75 
Q 1078 -75 664 370 
Q 250 816 250 1647 
Q 250 2184 428 2587 
Q 606 2991 970 3192 
Q 1334 3394 1763 3394 
Q 2303 3394 2647 3120 
Q 2991 2847 3088 2344 
L 2541 2259 
Q 2463 2594 2264 2762 
Q 2066 2931 1784 2931 
Q 1359 2931 1093 2626 
Q 828 2322 828 1663 
Q 828 994 1084 691 
Q 1341 388 1753 388 
Q 2084 388 2306 591 
Q 2528 794 2588 1216 
z
" transform="scale(0.015625)"/>
     </defs>
     <use xlink:href="#ArialMT-44"/>
     <use xlink:href="#ArialMT-69" x="72.216797"/>
     <use xlink:href="#ArialMT-72" x="94.433594"/>
     <use xlink:href="#ArialMT-65" x="127.734375"/>
     <use xlink:href="#ArialMT-63" x="183.349609"/>
     <use xlink:href="#ArialMT-74" x="233.349609"/>
     <use xlink:href="#ArialMT-69" x="261.132812"/>
     <use xlink:href="#ArialMT-6f" x="283.349609"/>
     <use xlink:href="#ArialMT-6e" x="338.964844"/>
    </g>
   </g>
   <g id="line2d_25">
    <path d="M 323.1645 68.112875 
L 331.9645 68.112875 
L 331.9645 68.112875 
L 340.7645 68.112875 
L 340.7645 68.112875 
" style="fill: none; stroke: #023eff; stroke-width: 1.5; stroke-linecap: round"/>
   </g>
   <g id="text_19">
    <!-- East -->
    <g style="fill: #262626" transform="translate(347.8045 71.192875) scale(0.088 -0.088)">
     <defs>
      <path id="ArialMT-45" d="M 506 0 
L 506 4581 
L 3819 4581 
L 3819 4041 
L 1113 4041 
L 1113 2638 
L 3647 2638 
L 3647 2100 
L 1113 2100 
L 1113 541 
L 3925 541 
L 3925 0 
L 506 0 
z
" transform="scale(0.015625)"/>
     </defs>
     <use xlink:href="#ArialMT-45"/>
     <use xlink:href="#ArialMT-61" x="66.699219"/>
     <use xlink:href="#ArialMT-73" x="122.314453"/>
     <use xlink:href="#ArialMT-74" x="172.314453"/>
    </g>
   </g>
   <g id="line2d_26">
    <path d="M 323.1645 80.56075 
L 331.9645 80.56075 
L 331.9645 80.56075 
L 340.7645 80.56075 
L 340.7645 80.56075 
" style="fill: none; stroke: #ff7c00; stroke-width: 1.5; stroke-linecap: round"/>
   </g>
   <g id="text_20">
    <!-- West -->
    <g style="fill: #262626" transform="translate(347.8045 83.64075) scale(0.088 -0.088)">
     <defs>
      <path id="ArialMT-57" d="M 1294 0 
L 78 4581 
L 700 4581 
L 1397 1578 
Q 1509 1106 1591 641 
Q 1766 1375 1797 1488 
L 2669 4581 
L 3400 4581 
L 4056 2263 
Q 4303 1400 4413 641 
Q 4500 1075 4641 1638 
L 5359 4581 
L 5969 4581 
L 4713 0 
L 4128 0 
L 3163 3491 
Q 3041 3928 3019 4028 
Q 2947 3713 2884 3491 
L 1913 0 
L 1294 0 
z
" transform="scale(0.015625)"/>
     </defs>
     <use xlink:href="#ArialMT-57"/>
     <use xlink:href="#ArialMT-65" x="92.634766"/>
     <use xlink:href="#ArialMT-73" x="148.25"/>
     <use xlink:href="#ArialMT-74" x="198.25"/>
    </g>
   </g>
   <g id="line2d_27">
    <path d="M 323.1645 93.008625 
L 331.9645 93.008625 
L 331.9645 93.008625 
L 340.7645 93.008625 
L 340.7645 93.008625 
" style="fill: none; stroke: #1ac938; stroke-width: 1.5; stroke-linecap: round"/>
   </g>
   <g id="text_21">
    <!-- North -->
    <g style="fill: #262626" transform="translate(347.8045 96.088625) scale(0.088 -0.088)">
     <defs>
      <path id="ArialMT-4e" d="M 488 0 
L 488 4581 
L 1109 4581 
L 3516 984 
L 3516 4581 
L 4097 4581 
L 4097 0 
L 3475 0 
L 1069 3600 
L 1069 0 
L 488 0 
z
" transform="scale(0.015625)"/>
      <path id="ArialMT-68" d="M 422 0 
L 422 4581 
L 984 4581 
L 984 2938 
Q 1378 3394 1978 3394 
Q 2347 3394 2619 3248 
Q 2891 3103 3008 2847 
Q 3125 2591 3125 2103 
L 3125 0 
L 2563 0 
L 2563 2103 
Q 2563 2525 2380 2717 
Q 2197 2909 1863 2909 
Q 1613 2909 1392 2779 
Q 1172 2650 1078 2428 
Q 984 2206 984 1816 
L 984 0 
L 422 0 
z
" transform="scale(0.015625)"/>
     </defs>
     <use xlink:href="#ArialMT-4e"/>
     <use xlink:href="#ArialMT-6f" x="72.216797"/>
     <use xlink:href="#ArialMT-72" x="127.832031"/>
     <use xlink:href="#ArialMT-74" x="161.132812"/>
     <use xlink:href="#ArialMT-68" x="188.916016"/>
    </g>
   </g>
   <g id="line2d_28">
    <path d="M 323.1645 105.4565 
L 331.9645 105.4565 
L 331.9645 105.4565 
L 340.7645 105.4565 
L 340.7645 105.4565 
" style="fill: none; stroke: #e8000b; stroke-width: 1.5; stroke-linecap: round"/>
   </g>
   <g id="text_22">
    <!-- South -->
    <g style="fill: #262626" transform="translate(347.8045 108.5365) scale(0.088 -0.088)">
     <defs>
      <path id="ArialMT-53" d="M 288 1472 
L 859 1522 
Q 900 1178 1048 958 
Q 1197 738 1509 602 
Q 1822 466 2213 466 
Q 2559 466 2825 569 
Q 3091 672 3220 851 
Q 3350 1031 3350 1244 
Q 3350 1459 3225 1620 
Q 3100 1781 2813 1891 
Q 2628 1963 1997 2114 
Q 1366 2266 1113 2400 
Q 784 2572 623 2826 
Q 463 3081 463 3397 
Q 463 3744 659 4045 
Q 856 4347 1234 4503 
Q 1613 4659 2075 4659 
Q 2584 4659 2973 4495 
Q 3363 4331 3572 4012 
Q 3781 3694 3797 3291 
L 3216 3247 
Q 3169 3681 2898 3903 
Q 2628 4125 2100 4125 
Q 1550 4125 1298 3923 
Q 1047 3722 1047 3438 
Q 1047 3191 1225 3031 
Q 1400 2872 2139 2705 
Q 2878 2538 3153 2413 
Q 3553 2228 3743 1945 
Q 3934 1663 3934 1294 
Q 3934 928 3725 604 
Q 3516 281 3123 101 
Q 2731 -78 2241 -78 
Q 1619 -78 1198 103 
Q 778 284 539 648 
Q 300 1013 288 1472 
z
" transform="scale(0.015625)"/>
      <path id="ArialMT-75" d="M 2597 0 
L 2597 488 
Q 2209 -75 1544 -75 
Q 1250 -75 995 37 
Q 741 150 617 320 
Q 494 491 444 738 
Q 409 903 409 1263 
L 409 3319 
L 972 3319 
L 972 1478 
Q 972 1038 1006 884 
Q 1059 663 1231 536 
Q 1403 409 1656 409 
Q 1909 409 2131 539 
Q 2353 669 2445 892 
Q 2538 1116 2538 1541 
L 2538 3319 
L 3100 3319 
L 3100 0 
L 2597 0 
z
" transform="scale(0.015625)"/>
     </defs>
     <use xlink:href="#ArialMT-53"/>
     <use xlink:href="#ArialMT-6f" x="66.699219"/>
     <use xlink:href="#ArialMT-75" x="122.314453"/>
     <use xlink:href="#ArialMT-74" x="177.929688"/>
     <use xlink:href="#ArialMT-68" x="205.712891"/>
    </g>
   </g>
  </g>
 </g>
 <defs>
  <clipPath id="p8274df7884">
   <rect x="52.84459" y="22.848" width="123.059096" height="99.444"/>
  </clipPath>
  <clipPath id="p45da8842bb">
   <rect x="185.792104" y="22.848" width="123.059096" height="99.444"/>
  </clipPath>
 </defs>
</svg>
