<?xml version="1.0" encoding="utf-8" standalone="no"?>
<!DOCTYPE svg PUBLIC "-//W3C//DTD SVG 1.1//EN"
  "http://www.w3.org/Graphics/SVG/1.1/DTD/svg11.dtd">
<svg xmlns:xlink="http://www.w3.org/1999/xlink" width="378.72pt" height="162pt" viewBox="0 0 378.72 162" xmlns="http://www.w3.org/2000/svg" version="1.1">
 <metadata>
  <rdf:RDF xmlns:dc="http://purl.org/dc/elements/1.1/" xmlns:cc="http://creativecommons.org/ns#" xmlns:rdf="http://www.w3.org/1999/02/22-rdf-syntax-ns#">
   <cc:Work>
    <dc:type rdf:resource="http://purl.org/dc/dcmitype/StillImage"/>
    <dc:date>2024-08-26T15:08:09.493849</dc:date>
    <dc:format>image/svg+xml</dc:format>
    <dc:creator>
     <cc:Agent>
      <dc:title>Matplotlib v3.9.0, https://matplotlib.org/</dc:title>
     </cc:Agent>
    </dc:creator>
   </cc:Work>
  </rdf:RDF>
 </metadata>
 <defs>
  <style type="text/css">*{stroke-linejoin: round; stroke-linecap: butt}</style>
 </defs>
 <g id="figure_1">
  <g id="patch_1">
   <path d="M 0 162 
L 378.72 162 
L 378.72 0 
L 0 0 
z
" style="fill: #ffffff"/>
  </g>
  <g id="axes_1">
   <g id="patch_2">
    <path d="M 52.84459 122.292 
L 174.746923 122.292 
L 174.746923 23.12925 
L 52.84459 23.12925 
z
" style="fill: #eaeaf2"/>
   </g>
   <g id="matplotlib.axis_1">
    <g id="xtick_1">
     <g id="line2d_1">
      <path d="M 72.667109 122.292 
L 72.667109 23.12925 
" clip-path="url(#p9d82c74d4a)" style="fill: none; stroke: #ffffff; stroke-linecap: round"/>
     </g>
     <g id="text_1">
      <!-- 25 -->
      <g style="fill: #262626" transform="translate(67.773484 138.090875) scale(0.088 -0.088)">
       <defs>
        <path id="ArialMT-32" d="M 3222 541 
L 3222 0 
L 194 0 
Q 188 203 259 391 
Q 375 700 629 1000 
Q 884 1300 1366 1694 
Q 2113 2306 2375 2664 
Q 2638 3022 2638 3341 
Q 2638 3675 2398 3904 
Q 2159 4134 1775 4134 
Q 1369 4134 1125 3890 
Q 881 3647 878 3216 
L 300 3275 
Q 359 3922 746 4261 
Q 1134 4600 1788 4600 
Q 2447 4600 2831 4234 
Q 3216 3869 3216 3328 
Q 3216 3053 3103 2787 
Q 2991 2522 2730 2228 
Q 2469 1934 1863 1422 
Q 1356 997 1212 845 
Q 1069 694 975 541 
L 3222 541 
z
" transform="scale(0.015625)"/>
        <path id="ArialMT-35" d="M 266 1200 
L 856 1250 
Q 922 819 1161 601 
Q 1400 384 1738 384 
Q 2144 384 2425 690 
Q 2706 997 2706 1503 
Q 2706 1984 2436 2262 
Q 2166 2541 1728 2541 
Q 1456 2541 1237 2417 
Q 1019 2294 894 2097 
L 366 2166 
L 809 4519 
L 3088 4519 
L 3088 3981 
L 1259 3981 
L 1013 2750 
Q 1425 3038 1878 3038 
Q 2478 3038 2890 2622 
Q 3303 2206 3303 1553 
Q 3303 931 2941 478 
Q 2500 -78 1738 -78 
Q 1113 -78 717 272 
Q 322 622 266 1200 
z
" transform="scale(0.015625)"/>
       </defs>
       <use xlink:href="#ArialMT-32"/>
       <use xlink:href="#ArialMT-35" x="55.615234"/>
      </g>
     </g>
    </g>
    <g id="xtick_2">
     <g id="line2d_2">
      <path d="M 104.998267 122.292 
L 104.998267 23.12925 
" clip-path="url(#p9d82c74d4a)" style="fill: none; stroke: #ffffff; stroke-linecap: round"/>
     </g>
     <g id="text_2">
      <!-- 50 -->
      <g style="fill: #262626" transform="translate(100.104642 138.090875) scale(0.088 -0.088)">
       <defs>
        <path id="ArialMT-30" d="M 266 2259 
Q 266 3072 433 3567 
Q 600 4063 929 4331 
Q 1259 4600 1759 4600 
Q 2128 4600 2406 4451 
Q 2684 4303 2865 4023 
Q 3047 3744 3150 3342 
Q 3253 2941 3253 2259 
Q 3253 1453 3087 958 
Q 2922 463 2592 192 
Q 2263 -78 1759 -78 
Q 1097 -78 719 397 
Q 266 969 266 2259 
z
M 844 2259 
Q 844 1131 1108 757 
Q 1372 384 1759 384 
Q 2147 384 2411 759 
Q 2675 1134 2675 2259 
Q 2675 3391 2411 3762 
Q 2147 4134 1753 4134 
Q 1366 4134 1134 3806 
Q 844 3388 844 2259 
z
" transform="scale(0.015625)"/>
       </defs>
       <use xlink:href="#ArialMT-35"/>
       <use xlink:href="#ArialMT-30" x="55.615234"/>
      </g>
     </g>
    </g>
    <g id="xtick_3">
     <g id="line2d_3">
      <path d="M 137.329426 122.292 
L 137.329426 23.12925 
" clip-path="url(#p9d82c74d4a)" style="fill: none; stroke: #ffffff; stroke-linecap: round"/>
     </g>
     <g id="text_3">
      <!-- 75 -->
      <g style="fill: #262626" transform="translate(132.435801 138.090875) scale(0.088 -0.088)">
       <defs>
        <path id="ArialMT-37" d="M 303 3981 
L 303 4522 
L 3269 4522 
L 3269 4084 
Q 2831 3619 2401 2847 
Q 1972 2075 1738 1259 
Q 1569 684 1522 0 
L 944 0 
Q 953 541 1156 1306 
Q 1359 2072 1739 2783 
Q 2119 3494 2547 3981 
L 303 3981 
z
" transform="scale(0.015625)"/>
       </defs>
       <use xlink:href="#ArialMT-37"/>
       <use xlink:href="#ArialMT-35" x="55.615234"/>
      </g>
     </g>
    </g>
    <g id="xtick_4">
     <g id="line2d_4">
      <path d="M 169.660585 122.292 
L 169.660585 23.12925 
" clip-path="url(#p9d82c74d4a)" style="fill: none; stroke: #ffffff; stroke-linecap: round"/>
     </g>
     <g id="text_4">
      <!-- 100 -->
      <g style="fill: #262626" transform="translate(162.320147 138.090875) scale(0.088 -0.088)">
       <defs>
        <path id="ArialMT-31" d="M 2384 0 
L 1822 0 
L 1822 3584 
Q 1619 3391 1289 3197 
Q 959 3003 697 2906 
L 697 3450 
Q 1169 3672 1522 3987 
Q 1875 4303 2022 4600 
L 2384 4600 
L 2384 0 
z
" transform="scale(0.015625)"/>
       </defs>
       <use xlink:href="#ArialMT-31"/>
       <use xlink:href="#ArialMT-30" x="55.615234"/>
       <use xlink:href="#ArialMT-30" x="111.230469"/>
      </g>
     </g>
    </g>
    <g id="text_5">
     <!-- RTT (ms) -->
     <g style="fill: #262626" transform="translate(93.705507 150.828375) scale(0.096 -0.096)">
      <defs>
       <path id="ArialMT-52" d="M 503 0 
L 503 4581 
L 2534 4581 
Q 3147 4581 3465 4457 
Q 3784 4334 3975 4021 
Q 4166 3709 4166 3331 
Q 4166 2844 3850 2509 
Q 3534 2175 2875 2084 
Q 3116 1969 3241 1856 
Q 3506 1613 3744 1247 
L 4541 0 
L 3778 0 
L 3172 953 
Q 2906 1366 2734 1584 
Q 2563 1803 2427 1890 
Q 2291 1978 2150 2013 
Q 2047 2034 1813 2034 
L 1109 2034 
L 1109 0 
L 503 0 
z
M 1109 2559 
L 2413 2559 
Q 2828 2559 3062 2645 
Q 3297 2731 3419 2920 
Q 3541 3109 3541 3331 
Q 3541 3656 3305 3865 
Q 3069 4075 2559 4075 
L 1109 4075 
L 1109 2559 
z
" transform="scale(0.015625)"/>
       <path id="ArialMT-54" d="M 1659 0 
L 1659 4041 
L 150 4041 
L 150 4581 
L 3781 4581 
L 3781 4041 
L 2266 4041 
L 2266 0 
L 1659 0 
z
" transform="scale(0.015625)"/>
       <path id="ArialMT-20" transform="scale(0.015625)"/>
       <path id="ArialMT-28" d="M 1497 -1347 
Q 1031 -759 709 28 
Q 388 816 388 1659 
Q 388 2403 628 3084 
Q 909 3875 1497 4659 
L 1900 4659 
Q 1522 4009 1400 3731 
Q 1209 3300 1100 2831 
Q 966 2247 966 1656 
Q 966 153 1900 -1347 
L 1497 -1347 
z
" transform="scale(0.015625)"/>
       <path id="ArialMT-6d" d="M 422 0 
L 422 3319 
L 925 3319 
L 925 2853 
Q 1081 3097 1340 3245 
Q 1600 3394 1931 3394 
Q 2300 3394 2536 3241 
Q 2772 3088 2869 2813 
Q 3263 3394 3894 3394 
Q 4388 3394 4653 3120 
Q 4919 2847 4919 2278 
L 4919 0 
L 4359 0 
L 4359 2091 
Q 4359 2428 4304 2576 
Q 4250 2725 4106 2815 
Q 3963 2906 3769 2906 
Q 3419 2906 3187 2673 
Q 2956 2441 2956 1928 
L 2956 0 
L 2394 0 
L 2394 2156 
Q 2394 2531 2256 2718 
Q 2119 2906 1806 2906 
Q 1569 2906 1367 2781 
Q 1166 2656 1075 2415 
Q 984 2175 984 1722 
L 984 0 
L 422 0 
z
" transform="scale(0.015625)"/>
       <path id="ArialMT-73" d="M 197 991 
L 753 1078 
Q 800 744 1014 566 
Q 1228 388 1613 388 
Q 2000 388 2187 545 
Q 2375 703 2375 916 
Q 2375 1106 2209 1216 
Q 2094 1291 1634 1406 
Q 1016 1563 777 1677 
Q 538 1791 414 1992 
Q 291 2194 291 2438 
Q 291 2659 392 2848 
Q 494 3038 669 3163 
Q 800 3259 1026 3326 
Q 1253 3394 1513 3394 
Q 1903 3394 2198 3281 
Q 2494 3169 2634 2976 
Q 2775 2784 2828 2463 
L 2278 2388 
Q 2241 2644 2061 2787 
Q 1881 2931 1553 2931 
Q 1166 2931 1000 2803 
Q 834 2675 834 2503 
Q 834 2394 903 2306 
Q 972 2216 1119 2156 
Q 1203 2125 1616 2013 
Q 2213 1853 2448 1751 
Q 2684 1650 2818 1456 
Q 2953 1263 2953 975 
Q 2953 694 2789 445 
Q 2625 197 2315 61 
Q 2006 -75 1616 -75 
Q 969 -75 630 194 
Q 291 463 197 991 
z
" transform="scale(0.015625)"/>
       <path id="ArialMT-29" d="M 791 -1347 
L 388 -1347 
Q 1322 153 1322 1656 
Q 1322 2244 1188 2822 
Q 1081 3291 891 3722 
Q 769 4003 388 4659 
L 791 4659 
Q 1378 3875 1659 3084 
Q 1900 2403 1900 1659 
Q 1900 816 1576 28 
Q 1253 -759 791 -1347 
z
" transform="scale(0.015625)"/>
      </defs>
      <use xlink:href="#ArialMT-52"/>
      <use xlink:href="#ArialMT-54" x="70.466797"/>
      <use xlink:href="#ArialMT-54" x="131.550781"/>
      <use xlink:href="#ArialMT-20" x="190.884766"/>
      <use xlink:href="#ArialMT-28" x="218.667969"/>
      <use xlink:href="#ArialMT-6d" x="251.96875"/>
      <use xlink:href="#ArialMT-73" x="335.269531"/>
      <use xlink:href="#ArialMT-29" x="385.269531"/>
     </g>
    </g>
   </g>
   <g id="matplotlib.axis_2">
    <g id="ytick_1">
     <g id="line2d_5">
      <path d="M 52.84459 122.292 
L 174.746923 122.292 
" clip-path="url(#p9d82c74d4a)" style="fill: none; stroke: #ffffff; stroke-linecap: round"/>
     </g>
     <g id="text_6">
      <!-- 0.0 -->
      <g style="fill: #262626" transform="translate(31.11259 125.441438) scale(0.088 -0.088)">
       <defs>
        <path id="ArialMT-2e" d="M 581 0 
L 581 641 
L 1222 641 
L 1222 0 
L 581 0 
z
" transform="scale(0.015625)"/>
       </defs>
       <use xlink:href="#ArialMT-30"/>
       <use xlink:href="#ArialMT-2e" x="55.615234"/>
       <use xlink:href="#ArialMT-30" x="83.398438"/>
      </g>
     </g>
    </g>
    <g id="ytick_2">
     <g id="line2d_6">
      <path d="M 52.84459 102.45945 
L 174.746923 102.45945 
" clip-path="url(#p9d82c74d4a)" style="fill: none; stroke: #ffffff; stroke-linecap: round"/>
     </g>
     <g id="text_7">
      <!-- 0.2 -->
      <g style="fill: #262626" transform="translate(31.11259 105.608888) scale(0.088 -0.088)">
       <use xlink:href="#ArialMT-30"/>
       <use xlink:href="#ArialMT-2e" x="55.615234"/>
       <use xlink:href="#ArialMT-32" x="83.398438"/>
      </g>
     </g>
    </g>
    <g id="ytick_3">
     <g id="line2d_7">
      <path d="M 52.84459 82.6269 
L 174.746923 82.6269 
" clip-path="url(#p9d82c74d4a)" style="fill: none; stroke: #ffffff; stroke-linecap: round"/>
     </g>
     <g id="text_8">
      <!-- 0.4 -->
      <g style="fill: #262626" transform="translate(31.11259 85.776338) scale(0.088 -0.088)">
       <defs>
        <path id="ArialMT-34" d="M 2069 0 
L 2069 1097 
L 81 1097 
L 81 1613 
L 2172 4581 
L 2631 4581 
L 2631 1613 
L 3250 1613 
L 3250 1097 
L 2631 1097 
L 2631 0 
L 2069 0 
z
M 2069 1613 
L 2069 3678 
L 634 1613 
L 2069 1613 
z
" transform="scale(0.015625)"/>
       </defs>
       <use xlink:href="#ArialMT-30"/>
       <use xlink:href="#ArialMT-2e" x="55.615234"/>
       <use xlink:href="#ArialMT-34" x="83.398438"/>
      </g>
     </g>
    </g>
    <g id="ytick_4">
     <g id="line2d_8">
      <path d="M 52.84459 62.79435 
L 174.746923 62.79435 
" clip-path="url(#p9d82c74d4a)" style="fill: none; stroke: #ffffff; stroke-linecap: round"/>
     </g>
     <g id="text_9">
      <!-- 0.6 -->
      <g style="fill: #262626" transform="translate(31.11259 65.943787) scale(0.088 -0.088)">
       <defs>
        <path id="ArialMT-36" d="M 3184 3459 
L 2625 3416 
Q 2550 3747 2413 3897 
Q 2184 4138 1850 4138 
Q 1581 4138 1378 3988 
Q 1113 3794 959 3422 
Q 806 3050 800 2363 
Q 1003 2672 1297 2822 
Q 1591 2972 1913 2972 
Q 2475 2972 2870 2558 
Q 3266 2144 3266 1488 
Q 3266 1056 3080 686 
Q 2894 316 2569 119 
Q 2244 -78 1831 -78 
Q 1128 -78 684 439 
Q 241 956 241 2144 
Q 241 3472 731 4075 
Q 1159 4600 1884 4600 
Q 2425 4600 2770 4297 
Q 3116 3994 3184 3459 
z
M 888 1484 
Q 888 1194 1011 928 
Q 1134 663 1356 523 
Q 1578 384 1822 384 
Q 2178 384 2434 671 
Q 2691 959 2691 1453 
Q 2691 1928 2437 2201 
Q 2184 2475 1800 2475 
Q 1419 2475 1153 2201 
Q 888 1928 888 1484 
z
" transform="scale(0.015625)"/>
       </defs>
       <use xlink:href="#ArialMT-30"/>
       <use xlink:href="#ArialMT-2e" x="55.615234"/>
       <use xlink:href="#ArialMT-36" x="83.398438"/>
      </g>
     </g>
    </g>
    <g id="ytick_5">
     <g id="line2d_9">
      <path d="M 52.84459 42.9618 
L 174.746923 42.9618 
" clip-path="url(#p9d82c74d4a)" style="fill: none; stroke: #ffffff; stroke-linecap: round"/>
     </g>
     <g id="text_10">
      <!-- 0.8 -->
      <g style="fill: #262626" transform="translate(31.11259 46.111237) scale(0.088 -0.088)">
       <defs>
        <path id="ArialMT-38" d="M 1131 2484 
Q 781 2613 612 2850 
Q 444 3088 444 3419 
Q 444 3919 803 4259 
Q 1163 4600 1759 4600 
Q 2359 4600 2725 4251 
Q 3091 3903 3091 3403 
Q 3091 3084 2923 2848 
Q 2756 2613 2416 2484 
Q 2838 2347 3058 2040 
Q 3278 1734 3278 1309 
Q 3278 722 2862 322 
Q 2447 -78 1769 -78 
Q 1091 -78 675 323 
Q 259 725 259 1325 
Q 259 1772 486 2073 
Q 713 2375 1131 2484 
z
M 1019 3438 
Q 1019 3113 1228 2906 
Q 1438 2700 1772 2700 
Q 2097 2700 2305 2904 
Q 2513 3109 2513 3406 
Q 2513 3716 2298 3927 
Q 2084 4138 1766 4138 
Q 1444 4138 1231 3931 
Q 1019 3725 1019 3438 
z
M 838 1322 
Q 838 1081 952 856 
Q 1066 631 1291 507 
Q 1516 384 1775 384 
Q 2178 384 2440 643 
Q 2703 903 2703 1303 
Q 2703 1709 2433 1975 
Q 2163 2241 1756 2241 
Q 1359 2241 1098 1978 
Q 838 1716 838 1322 
z
" transform="scale(0.015625)"/>
       </defs>
       <use xlink:href="#ArialMT-30"/>
       <use xlink:href="#ArialMT-2e" x="55.615234"/>
       <use xlink:href="#ArialMT-38" x="83.398438"/>
      </g>
     </g>
    </g>
    <g id="ytick_6">
     <g id="line2d_10">
      <path d="M 52.84459 23.12925 
L 174.746923 23.12925 
" clip-path="url(#p9d82c74d4a)" style="fill: none; stroke: #ffffff; stroke-linecap: round"/>
     </g>
     <g id="text_11">
      <!-- 1.0 -->
      <g style="fill: #262626" transform="translate(31.11259 26.278687) scale(0.088 -0.088)">
       <use xlink:href="#ArialMT-31"/>
       <use xlink:href="#ArialMT-2e" x="55.615234"/>
       <use xlink:href="#ArialMT-30" x="83.398438"/>
      </g>
     </g>
    </g>
    <g id="text_12">
     <!-- Proportion -->
     <g style="fill: #262626" transform="translate(25.20459 94.855125) rotate(-90) scale(0.096 -0.096)">
      <defs>
       <path id="ArialMT-50" d="M 494 0 
L 494 4581 
L 2222 4581 
Q 2678 4581 2919 4538 
Q 3256 4481 3484 4323 
Q 3713 4166 3852 3881 
Q 3991 3597 3991 3256 
Q 3991 2672 3619 2267 
Q 3247 1863 2275 1863 
L 1100 1863 
L 1100 0 
L 494 0 
z
M 1100 2403 
L 2284 2403 
Q 2872 2403 3119 2622 
Q 3366 2841 3366 3238 
Q 3366 3525 3220 3729 
Q 3075 3934 2838 4000 
Q 2684 4041 2272 4041 
L 1100 4041 
L 1100 2403 
z
" transform="scale(0.015625)"/>
       <path id="ArialMT-72" d="M 416 0 
L 416 3319 
L 922 3319 
L 922 2816 
Q 1116 3169 1280 3281 
Q 1444 3394 1641 3394 
Q 1925 3394 2219 3213 
L 2025 2691 
Q 1819 2813 1613 2813 
Q 1428 2813 1281 2702 
Q 1134 2591 1072 2394 
Q 978 2094 978 1738 
L 978 0 
L 416 0 
z
" transform="scale(0.015625)"/>
       <path id="ArialMT-6f" d="M 213 1659 
Q 213 2581 725 3025 
Q 1153 3394 1769 3394 
Q 2453 3394 2887 2945 
Q 3322 2497 3322 1706 
Q 3322 1066 3130 698 
Q 2938 331 2570 128 
Q 2203 -75 1769 -75 
Q 1072 -75 642 372 
Q 213 819 213 1659 
z
M 791 1659 
Q 791 1022 1069 705 
Q 1347 388 1769 388 
Q 2188 388 2466 706 
Q 2744 1025 2744 1678 
Q 2744 2294 2464 2611 
Q 2184 2928 1769 2928 
Q 1347 2928 1069 2612 
Q 791 2297 791 1659 
z
" transform="scale(0.015625)"/>
       <path id="ArialMT-70" d="M 422 -1272 
L 422 3319 
L 934 3319 
L 934 2888 
Q 1116 3141 1344 3267 
Q 1572 3394 1897 3394 
Q 2322 3394 2647 3175 
Q 2972 2956 3137 2557 
Q 3303 2159 3303 1684 
Q 3303 1175 3120 767 
Q 2938 359 2589 142 
Q 2241 -75 1856 -75 
Q 1575 -75 1351 44 
Q 1128 163 984 344 
L 984 -1272 
L 422 -1272 
z
M 931 1641 
Q 931 1000 1190 694 
Q 1450 388 1819 388 
Q 2194 388 2461 705 
Q 2728 1022 2728 1688 
Q 2728 2322 2467 2637 
Q 2206 2953 1844 2953 
Q 1484 2953 1207 2617 
Q 931 2281 931 1641 
z
" transform="scale(0.015625)"/>
       <path id="ArialMT-74" d="M 1650 503 
L 1731 6 
Q 1494 -44 1306 -44 
Q 1000 -44 831 53 
Q 663 150 594 308 
Q 525 466 525 972 
L 525 2881 
L 113 2881 
L 113 3319 
L 525 3319 
L 525 4141 
L 1084 4478 
L 1084 3319 
L 1650 3319 
L 1650 2881 
L 1084 2881 
L 1084 941 
Q 1084 700 1114 631 
Q 1144 563 1211 522 
Q 1278 481 1403 481 
Q 1497 481 1650 503 
z
" transform="scale(0.015625)"/>
       <path id="ArialMT-69" d="M 425 3934 
L 425 4581 
L 988 4581 
L 988 3934 
L 425 3934 
z
M 425 0 
L 425 3319 
L 988 3319 
L 988 0 
L 425 0 
z
" transform="scale(0.015625)"/>
       <path id="ArialMT-6e" d="M 422 0 
L 422 3319 
L 928 3319 
L 928 2847 
Q 1294 3394 1984 3394 
Q 2284 3394 2536 3286 
Q 2788 3178 2913 3003 
Q 3038 2828 3088 2588 
Q 3119 2431 3119 2041 
L 3119 0 
L 2556 0 
L 2556 2019 
Q 2556 2363 2490 2533 
Q 2425 2703 2258 2804 
Q 2091 2906 1866 2906 
Q 1506 2906 1245 2678 
Q 984 2450 984 1813 
L 984 0 
L 422 0 
z
" transform="scale(0.015625)"/>
      </defs>
      <use xlink:href="#ArialMT-50"/>
      <use xlink:href="#ArialMT-72" x="66.699219"/>
      <use xlink:href="#ArialMT-6f" x="100"/>
      <use xlink:href="#ArialMT-70" x="155.615234"/>
      <use xlink:href="#ArialMT-6f" x="211.230469"/>
      <use xlink:href="#ArialMT-72" x="266.845703"/>
      <use xlink:href="#ArialMT-74" x="300.146484"/>
      <use xlink:href="#ArialMT-69" x="327.929688"/>
      <use xlink:href="#ArialMT-6f" x="350.146484"/>
      <use xlink:href="#ArialMT-6e" x="405.761719"/>
     </g>
    </g>
   </g>
   <g id="line2d_11">
    <path d="M 73.747274 122.292 
L 73.818886 118.478048 
L 82.268944 118.478048 
L 82.268944 118.401769 
L 82.269324 116.952467 
L 82.555093 116.952467 
L 82.555093 116.876188 
L 82.627692 109.324563 
L 83.127449 109.324563 
L 83.127449 109.248284 
L 83.150636 104.747821 
L 83.739726 104.747821 
L 83.739726 104.671542 
L 83.847559 95.594337 
L 83.886099 95.594337 
L 83.886099 95.518057 
L 83.986211 91.017594 
L 118.91293 91.017594 
L 118.91293 90.941315 
L 119.023861 76.524577 
L 119.055035 76.524577 
L 119.055035 76.448298 
L 119.141363 71.947835 
L 127.556552 71.947835 
L 127.556552 71.871556 
L 127.556986 70.422254 
L 128.411865 70.422254 
L 128.411865 70.345975 
L 128.412013 68.896673 
L 128.870587 68.896673 
L 128.870587 68.820394 
L 128.981686 52.878075 
L 128.984794 52.878075 
L 128.984794 52.801796 
L 129.069875 49.064123 
L 129.117215 49.064123 
L 129.117215 48.987844 
L 129.180707 46.012962 
L 129.245462 46.012962 
L 129.245462 45.936682 
L 129.249448 44.487381 
L 129.375535 44.487381 
L 129.375535 44.411102 
L 129.480743 33.808315 
L 129.511863 33.808315 
L 129.511863 33.732036 
L 129.599193 29.231573 
L 129.644876 29.231573 
L 129.644876 29.155294 
L 129.705437 26.180412 
L 129.966569 26.180412 
L 129.966569 26.104132 
L 130.032942 23.12925 
L 130.032942 23.12925 
" clip-path="url(#p9d82c74d4a)" style="fill: none; stroke: #023eff; stroke-width: 1.5; stroke-linecap: round"/>
   </g>
   <g id="line2d_12">
    <path d="M 73.747274 122.292 
L 73.818889 115.500031 
L 83.127449 115.500031 
L 83.127449 115.432111 
L 83.150636 107.349668 
L 83.771586 107.349668 
L 83.771586 107.281748 
L 83.847559 99.199305 
L 83.886099 99.199305 
L 83.886099 99.131385 
L 83.986216 91.048942 
L 136.289941 90.981022 
L 136.289941 90.981022 
L 136.387611 61.164277 
L 136.423467 61.164277 
L 136.423467 61.096358 
L 136.512297 57.089096 
L 136.565528 57.089096 
L 136.565528 57.021176 
L 136.630144 50.297127 
L 144.705435 50.297127 
L 144.705435 50.229207 
L 144.707073 47.580339 
L 145.006251 47.580339 
L 145.006251 47.512419 
L 145.00856 44.863551 
L 145.543453 44.863551 
L 145.543453 44.795632 
L 145.5451 42.146764 
L 147.199862 42.146764 
L 147.199862 42.078844 
L 147.284923 36.713188 
L 147.362169 36.713188 
L 147.362169 36.645269 
L 147.460895 31.279613 
L 147.549863 31.279613 
L 147.549863 31.211693 
L 147.558575 28.562825 
L 147.858345 28.562825 
L 147.858345 28.494906 
L 147.961955 24.487644 
L 147.971289 24.487644 
L 147.971289 24.419724 
L 147.971289 23.12925 
L 147.971289 23.12925 
" clip-path="url(#p9d82c74d4a)" style="fill: none; stroke: #ff7c00; stroke-width: 1.5; stroke-linecap: round"/>
   </g>
   <g id="patch_3">
    <path d="M 52.84459 122.292 
L 52.84459 23.12925 
" style="fill: none; stroke: #ffffff; stroke-width: 1.25; stroke-linejoin: miter; stroke-linecap: square"/>
   </g>
   <g id="patch_4">
    <path d="M 52.84459 122.292 
L 174.746923 122.292 
" style="fill: none; stroke: #ffffff; stroke-width: 1.25; stroke-linejoin: miter; stroke-linecap: square"/>
   </g>
   <g id="text_13">
    <!-- Polar -->
    <g style="fill: #262626" transform="translate(102.590757 17.12925) scale(0.096 -0.096)">
     <defs>
      <path id="ArialMT-6c" d="M 409 0 
L 409 4581 
L 972 4581 
L 972 0 
L 409 0 
z
" transform="scale(0.015625)"/>
      <path id="ArialMT-61" d="M 2588 409 
Q 2275 144 1986 34 
Q 1697 -75 1366 -75 
Q 819 -75 525 192 
Q 231 459 231 875 
Q 231 1119 342 1320 
Q 453 1522 633 1644 
Q 813 1766 1038 1828 
Q 1203 1872 1538 1913 
Q 2219 1994 2541 2106 
Q 2544 2222 2544 2253 
Q 2544 2597 2384 2738 
Q 2169 2928 1744 2928 
Q 1347 2928 1158 2789 
Q 969 2650 878 2297 
L 328 2372 
Q 403 2725 575 2942 
Q 747 3159 1072 3276 
Q 1397 3394 1825 3394 
Q 2250 3394 2515 3294 
Q 2781 3194 2906 3042 
Q 3031 2891 3081 2659 
Q 3109 2516 3109 2141 
L 3109 1391 
Q 3109 606 3145 398 
Q 3181 191 3288 0 
L 2700 0 
Q 2613 175 2588 409 
z
M 2541 1666 
Q 2234 1541 1622 1453 
Q 1275 1403 1131 1340 
Q 988 1278 909 1158 
Q 831 1038 831 891 
Q 831 666 1001 516 
Q 1172 366 1500 366 
Q 1825 366 2078 508 
Q 2331 650 2450 897 
Q 2541 1088 2541 1459 
L 2541 1666 
z
" transform="scale(0.015625)"/>
     </defs>
     <use xlink:href="#ArialMT-50"/>
     <use xlink:href="#ArialMT-6f" x="66.699219"/>
     <use xlink:href="#ArialMT-6c" x="122.314453"/>
     <use xlink:href="#ArialMT-61" x="144.53125"/>
     <use xlink:href="#ArialMT-72" x="200.146484"/>
    </g>
   </g>
  </g>
  <g id="axes_2">
   <g id="patch_5">
    <path d="M 186.948867 122.292 
L 308.8512 122.292 
L 308.8512 23.12925 
L 186.948867 23.12925 
z
" style="fill: #eaeaf2"/>
   </g>
   <g id="matplotlib.axis_3">
    <g id="xtick_5">
     <g id="line2d_13">
      <path d="M 206.771385 122.292 
L 206.771385 23.12925 
" clip-path="url(#p5efe5ccf17)" style="fill: none; stroke: #ffffff; stroke-linecap: round"/>
     </g>
     <g id="text_14">
      <!-- 25 -->
      <g style="fill: #262626" transform="translate(201.87776 138.090875) scale(0.088 -0.088)">
       <use xlink:href="#ArialMT-32"/>
       <use xlink:href="#ArialMT-35" x="55.615234"/>
      </g>
     </g>
    </g>
    <g id="xtick_6">
     <g id="line2d_14">
      <path d="M 239.102544 122.292 
L 239.102544 23.12925 
" clip-path="url(#p5efe5ccf17)" style="fill: none; stroke: #ffffff; stroke-linecap: round"/>
     </g>
     <g id="text_15">
      <!-- 50 -->
      <g style="fill: #262626" transform="translate(234.208919 138.090875) scale(0.088 -0.088)">
       <use xlink:href="#ArialMT-35"/>
       <use xlink:href="#ArialMT-30" x="55.615234"/>
      </g>
     </g>
    </g>
    <g id="xtick_7">
     <g id="line2d_15">
      <path d="M 271.433703 122.292 
L 271.433703 23.12925 
" clip-path="url(#p5efe5ccf17)" style="fill: none; stroke: #ffffff; stroke-linecap: round"/>
     </g>
     <g id="text_16">
      <!-- 75 -->
      <g style="fill: #262626" transform="translate(266.540078 138.090875) scale(0.088 -0.088)">
       <use xlink:href="#ArialMT-37"/>
       <use xlink:href="#ArialMT-35" x="55.615234"/>
      </g>
     </g>
    </g>
    <g id="xtick_8">
     <g id="line2d_16">
      <path d="M 303.764861 122.292 
L 303.764861 23.12925 
" clip-path="url(#p5efe5ccf17)" style="fill: none; stroke: #ffffff; stroke-linecap: round"/>
     </g>
     <g id="text_17">
      <!-- 100 -->
      <g style="fill: #262626" transform="translate(296.424424 138.090875) scale(0.088 -0.088)">
       <use xlink:href="#ArialMT-31"/>
       <use xlink:href="#ArialMT-30" x="55.615234"/>
       <use xlink:href="#ArialMT-30" x="111.230469"/>
      </g>
     </g>
    </g>
    <g id="text_18">
     <!-- RTT (ms) -->
     <g style="fill: #262626" transform="translate(227.809783 150.828375) scale(0.096 -0.096)">
      <use xlink:href="#ArialMT-52"/>
      <use xlink:href="#ArialMT-54" x="70.466797"/>
      <use xlink:href="#ArialMT-54" x="131.550781"/>
      <use xlink:href="#ArialMT-20" x="190.884766"/>
      <use xlink:href="#ArialMT-28" x="218.667969"/>
      <use xlink:href="#ArialMT-6d" x="251.96875"/>
      <use xlink:href="#ArialMT-73" x="335.269531"/>
      <use xlink:href="#ArialMT-29" x="385.269531"/>
     </g>
    </g>
   </g>
   <g id="matplotlib.axis_4">
    <g id="ytick_7">
     <g id="line2d_17">
      <path d="M 186.948867 122.292 
L 308.8512 122.292 
" clip-path="url(#p5efe5ccf17)" style="fill: none; stroke: #ffffff; stroke-linecap: round"/>
     </g>
    </g>
    <g id="ytick_8">
     <g id="line2d_18">
      <path d="M 186.948867 102.45945 
L 308.8512 102.45945 
" clip-path="url(#p5efe5ccf17)" style="fill: none; stroke: #ffffff; stroke-linecap: round"/>
     </g>
    </g>
    <g id="ytick_9">
     <g id="line2d_19">
      <path d="M 186.948867 82.6269 
L 308.8512 82.6269 
" clip-path="url(#p5efe5ccf17)" style="fill: none; stroke: #ffffff; stroke-linecap: round"/>
     </g>
    </g>
    <g id="ytick_10">
     <g id="line2d_20">
      <path d="M 186.948867 62.79435 
L 308.8512 62.79435 
" clip-path="url(#p5efe5ccf17)" style="fill: none; stroke: #ffffff; stroke-linecap: round"/>
     </g>
    </g>
    <g id="ytick_11">
     <g id="line2d_21">
      <path d="M 186.948867 42.9618 
L 308.8512 42.9618 
" clip-path="url(#p5efe5ccf17)" style="fill: none; stroke: #ffffff; stroke-linecap: round"/>
     </g>
    </g>
    <g id="ytick_12">
     <g id="line2d_22">
      <path d="M 186.948867 23.12925 
L 308.8512 23.12925 
" clip-path="url(#p5efe5ccf17)" style="fill: none; stroke: #ffffff; stroke-linecap: round"/>
     </g>
    </g>
   </g>
   <g id="line2d_23">
    <path d="M 243.907497 122.292 
L 243.973826 119.212411 
L 244.050303 119.212411 
L 244.050303 119.135422 
L 244.06308 116.286802 
L 273.863976 116.209813 
L 273.955736 113.053234 
L 274.008217 112.976245 
L 274.008217 112.976245 
L 274.114847 108.510841 
L 274.124486 108.510841 
L 274.124486 108.433852 
L 274.23082 99.272076 
L 274.241268 99.272076 
L 274.241268 99.195086 
L 274.288688 97.501312 
L 274.355811 97.501312 
L 274.355811 97.424323 
L 274.417833 94.421724 
L 274.489514 94.421724 
L 274.489514 94.344734 
L 274.555562 91.342135 
L 274.631703 91.342135 
L 274.631703 91.265146 
L 274.701569 88.262547 
L 274.774691 88.185557 
L 274.855588 66.705427 
L 275.110563 66.628438 
L 275.157982 63.625839 
L 275.23589 63.548849 
L 275.286101 60.54625 
L 275.36837 60.469261 
L 275.36837 60.392271 
L 275.806924 60.315281 
L 275.914649 54.387073 
L 275.936464 54.310084 
L 275.993089 48.073917 
L 276.088115 48.073917 
L 276.088115 47.996927 
L 276.188745 41.91474 
L 280.49068 41.83775 
L 280.541197 38.835151 
L 280.624255 38.758162 
L 280.624255 38.681172 
L 280.738847 38.681172 
L 280.738847 38.604182 
L 280.80001 32.521995 
L 282.401403 32.445005 
L 282.507815 26.285828 
L 282.574988 26.208839 
L 282.683896 23.20624 
L 282.699367 23.20624 
L 282.699367 23.12925 
" clip-path="url(#p5efe5ccf17)" style="fill: none; stroke: #023eff; stroke-width: 1.5; stroke-linecap: round"/>
   </g>
   <g id="line2d_24">
    <path d="M 273.847045 122.292 
L 273.948169 118.903939 
L 274.03539 118.903939 
L 274.03539 118.821304 
L 274.05908 115.598514 
L 274.15015 115.598514 
L 274.15015 115.515879 
L 274.234737 105.682239 
L 274.298288 105.682239 
L 274.298288 105.599604 
L 274.406762 99.071389 
L 274.485587 99.071389 
L 274.485587 98.988754 
L 274.498019 95.8486 
L 274.775323 95.765964 
L 274.802032 76.01605 
L 299.911763 75.933414 
L 299.950795 66.099775 
L 300.582194 66.017139 
L 300.582194 66.017139 
L 300.689889 54.448152 
L 300.693668 54.448152 
L 300.693668 54.365516 
L 300.693668 52.878075 
L 301.349645 52.795439 
L 301.43063 46.349861 
L 301.733212 46.349861 
L 301.733212 46.267225 
L 301.738915 43.044436 
L 301.947891 42.9618 
L 302.00125 39.656375 
L 303.200221 39.573739 
L 303.310185 23.12925 
L 303.310185 23.12925 
" clip-path="url(#p5efe5ccf17)" style="fill: none; stroke: #ff7c00; stroke-width: 1.5; stroke-linecap: round"/>
   </g>
   <g id="line2d_25">
    <path d="M 192.489884 122.292 
L 192.546985 120.347632 
L 195.689648 120.347632 
L 195.689648 120.250414 
L 195.788071 115.486713 
L 195.821028 115.486713 
L 195.821028 115.389495 
L 195.913827 112.570162 
L 195.962188 112.570162 
L 195.962188 112.472943 
L 196.025937 110.625794 
L 196.084834 110.625794 
L 196.084834 110.528576 
L 196.161308 108.681426 
L 196.231058 108.681426 
L 196.231058 108.584208 
L 196.320648 106.737059 
L 196.401651 106.737059 
L 196.401651 106.63984 
L 196.504859 104.792691 
L 196.597529 104.792691 
L 196.597529 104.695473 
L 196.606587 103.820507 
L 198.013633 103.820507 
L 198.013633 103.723289 
L 198.086708 102.362232 
L 198.129261 102.362232 
L 198.129261 102.265013 
L 198.130445 101.390048 
L 198.269834 101.390048 
L 198.269834 101.292829 
L 198.379189 98.959588 
L 198.384887 98.959588 
L 198.384887 98.86237 
L 198.384887 98.473496 
L 199.76993 98.473496 
L 199.76993 98.376278 
L 199.855931 90.209934 
L 199.892995 90.209934 
L 199.892995 90.112715 
L 200.002088 87.293382 
L 200.060509 87.293382 
L 200.060509 87.196164 
L 200.138485 85.349015 
L 200.172678 85.349015 
L 200.172678 85.251796 
L 200.218423 83.890739 
L 200.298284 83.890739 
L 200.298284 83.793521 
L 200.401859 81.946371 
L 200.496207 81.946371 
L 200.496207 81.849153 
L 200.505472 80.974187 
L 202.493873 80.974187 
L 202.493873 80.876969 
L 202.571517 79.02982 
L 202.605769 79.02982 
L 202.605769 78.932601 
L 202.694668 75.627176 
L 202.740336 75.627176 
L 202.740336 75.529958 
L 202.800152 73.682809 
L 202.855105 73.682809 
L 202.855105 73.58559 
L 202.926165 71.738441 
L 204.680301 71.738441 
L 204.680301 71.641223 
L 204.766709 66.877522 
L 204.807858 66.877522 
L 204.807858 66.780304 
L 204.867048 64.933154 
L 204.925321 64.933154 
L 204.925321 64.835936 
L 205.004748 62.988787 
L 205.079991 62.988787 
L 205.079991 62.891568 
L 205.087512 62.016603 
L 206.056337 62.016603 
L 206.056337 61.919385 
L 206.159747 52.294765 
L 206.197978 52.294765 
L 206.197978 52.197546 
L 206.307747 49.378213 
L 206.365667 49.378213 
L 206.365667 49.280995 
L 206.442432 47.433846 
L 206.513628 47.433846 
L 206.513628 47.336627 
L 206.60633 45.489478 
L 206.691026 45.489478 
L 206.691026 45.39226 
L 206.799927 43.54511 
L 206.898414 43.54511 
L 206.898414 43.447892 
L 206.908064 42.572926 
L 219.657145 42.548622 
L 219.657145 42.475708 
L 219.748047 38.684191 
L 219.787355 38.684191 
L 219.787355 38.586973 
L 219.791337 37.712007 
L 221.499497 37.712007 
L 221.499497 37.614789 
L 221.59919 34.795456 
L 221.650359 34.795456 
L 221.650359 34.698237 
L 221.717186 32.851088 
L 235.749548 32.851088 
L 235.749548 32.75387 
L 235.840869 30.906721 
L 235.922422 30.906721 
L 235.922422 30.809502 
L 235.930394 29.934537 
L 236.551591 29.934537 
L 236.551591 29.837318 
L 236.582484 27.990169 
L 243.916466 27.990169 
L 243.916466 27.892951 
L 244.018586 25.073618 
L 244.584357 25.073618 
L 244.584357 24.976399 
L 244.585412 24.101434 
L 246.225029 24.077129 
L 246.225029 24.004215 
L 246.227994 23.12925 
L 246.227994 23.12925 
" clip-path="url(#p5efe5ccf17)" style="fill: none; stroke: #1ac938; stroke-width: 1.5; stroke-linecap: round"/>
   </g>
   <g id="line2d_26">
    <path d="M 192.489882 122.292 
L 192.546984 120.204363 
L 196.313252 120.204363 
L 196.313252 120.099981 
L 196.424043 116.550999 
L 196.443988 116.550999 
L 196.443988 116.446617 
L 196.539089 110.809997 
L 196.577033 110.809997 
L 196.577033 110.705616 
L 196.680848 106.634724 
L 196.733928 106.608628 
L 196.733928 106.530342 
L 196.803262 104.547087 
L 196.866835 104.547087 
L 196.866835 104.442705 
L 196.94885 102.45945 
L 198.950795 102.45945 
L 198.950795 102.355068 
L 198.955181 101.415632 
L 218.081588 101.415632 
L 218.081588 101.31125 
L 218.108682 98.284176 
L 219.841425 98.284176 
L 219.841425 98.179794 
L 219.898385 97.240358 
L 219.962218 97.240358 
L 219.962218 97.135976 
L 220.035004 95.67463 
L 220.110874 95.67463 
L 220.110874 95.570248 
L 220.203522 93.065084 
L 220.287952 93.065084 
L 220.287952 92.960702 
L 220.396253 90.977447 
L 221.325552 90.977447 
L 221.325552 90.873066 
L 221.428205 81.583082 
L 221.459897 81.583082 
L 221.459897 81.4787 
L 221.54846 78.451626 
L 221.594641 78.451626 
L 221.594641 78.347244 
L 221.6554 76.363989 
L 221.711655 76.363989 
L 221.711655 76.259608 
L 221.717186 75.320171 
L 235.749548 75.320171 
L 235.749548 75.215789 
L 235.840864 73.232534 
L 235.922422 73.232534 
L 235.922422 73.128152 
L 235.930399 72.188716 
L 236.551591 72.188716 
L 236.551591 72.084334 
L 236.621576 69.057261 
L 236.666119 69.057261 
L 236.666119 68.952879 
L 236.67083 68.013442 
L 238.101662 68.013442 
L 238.101662 67.90906 
L 238.181538 65.925805 
L 238.255158 65.925805 
L 238.255158 65.821423 
L 238.350688 63.838168 
L 238.437687 63.838168 
L 238.437687 63.733787 
L 238.446311 62.79435 
L 241.353826 62.79435 
L 241.353826 62.689968 
L 241.415108 61.228622 
L 241.704547 61.228622 
L 241.704547 61.124241 
L 241.801029 56.00953 
L 241.832306 56.00953 
L 241.832306 55.905148 
L 241.916824 52.878075 
L 241.959305 52.878075 
L 241.959305 52.773693 
L 242.014327 50.268529 
L 242.191093 50.268529 
L 242.191093 50.164147 
L 242.258226 49.224711 
L 243.227717 49.224711 
L 243.227717 49.120329 
L 243.286256 47.137074 
L 243.343631 47.137074 
L 243.343631 47.032692 
L 243.421809 45.049437 
L 243.495785 45.049437 
L 243.495785 44.945055 
L 243.503264 44.005618 
L 243.704525 44.005618 
L 243.704525 43.901237 
L 243.806847 40.874163 
L 243.855248 40.874163 
L 243.855248 40.769781 
L 243.910921 39.308436 
L 246.111453 39.308436 
L 246.111453 39.204054 
L 246.16829 36.17698 
L 246.394252 36.17698 
L 246.394252 36.072598 
L 246.447103 34.611253 
L 250.52609 34.611253 
L 250.52609 34.506871 
L 250.573273 26.782614 
L 252.839374 26.782614 
L 252.839374 26.678233 
L 252.946571 24.173068 
L 253.000561 24.173068 
L 253.000561 24.068687 
L 253.005934 23.12925 
L 253.005934 23.12925 
" clip-path="url(#p5efe5ccf17)" style="fill: none; stroke: #e8000b; stroke-width: 1.5; stroke-linecap: round"/>
   </g>
   <g id="patch_6">
    <path d="M 186.948867 122.292 
L 186.948867 23.12925 
" style="fill: none; stroke: #ffffff; stroke-width: 1.25; stroke-linejoin: miter; stroke-linecap: square"/>
   </g>
   <g id="patch_7">
    <path d="M 186.948867 122.292 
L 308.8512 122.292 
" style="fill: none; stroke: #ffffff; stroke-width: 1.25; stroke-linejoin: miter; stroke-linecap: square"/>
   </g>
   <g id="text_19">
    <!-- Equatorial -->
    <g style="fill: #262626" transform="translate(226.287283 17.12925) scale(0.096 -0.096)">
     <defs>
      <path id="ArialMT-45" d="M 506 0 
L 506 4581 
L 3819 4581 
L 3819 4041 
L 1113 4041 
L 1113 2638 
L 3647 2638 
L 3647 2100 
L 1113 2100 
L 1113 541 
L 3925 541 
L 3925 0 
L 506 0 
z
" transform="scale(0.015625)"/>
      <path id="ArialMT-71" d="M 2538 -1272 
L 2538 353 
Q 2406 169 2170 47 
Q 1934 -75 1669 -75 
Q 1078 -75 651 397 
Q 225 869 225 1691 
Q 225 2191 398 2587 
Q 572 2984 901 3189 
Q 1231 3394 1625 3394 
Q 2241 3394 2594 2875 
L 2594 3319 
L 3100 3319 
L 3100 -1272 
L 2538 -1272 
z
M 803 1669 
Q 803 1028 1072 708 
Q 1341 388 1716 388 
Q 2075 388 2334 692 
Q 2594 997 2594 1619 
Q 2594 2281 2320 2615 
Q 2047 2950 1678 2950 
Q 1313 2950 1058 2639 
Q 803 2328 803 1669 
z
" transform="scale(0.015625)"/>
      <path id="ArialMT-75" d="M 2597 0 
L 2597 488 
Q 2209 -75 1544 -75 
Q 1250 -75 995 37 
Q 741 150 617 320 
Q 494 491 444 738 
Q 409 903 409 1263 
L 409 3319 
L 972 3319 
L 972 1478 
Q 972 1038 1006 884 
Q 1059 663 1231 536 
Q 1403 409 1656 409 
Q 1909 409 2131 539 
Q 2353 669 2445 892 
Q 2538 1116 2538 1541 
L 2538 3319 
L 3100 3319 
L 3100 0 
L 2597 0 
z
" transform="scale(0.015625)"/>
     </defs>
     <use xlink:href="#ArialMT-45"/>
     <use xlink:href="#ArialMT-71" x="66.699219"/>
     <use xlink:href="#ArialMT-75" x="122.314453"/>
     <use xlink:href="#ArialMT-61" x="177.929688"/>
     <use xlink:href="#ArialMT-74" x="233.544922"/>
     <use xlink:href="#ArialMT-6f" x="261.328125"/>
     <use xlink:href="#ArialMT-72" x="316.943359"/>
     <use xlink:href="#ArialMT-69" x="350.244141"/>
     <use xlink:href="#ArialMT-61" x="372.460938"/>
     <use xlink:href="#ArialMT-6c" x="428.076172"/>
    </g>
   </g>
  </g>
  <g id="legend_1">
   <g id="text_20">
    <!-- Direction -->
    <g style="fill: #262626" transform="translate(328.04325 58.586) scale(0.096 -0.096)">
     <defs>
      <path id="ArialMT-44" d="M 494 0 
L 494 4581 
L 2072 4581 
Q 2606 4581 2888 4516 
Q 3281 4425 3559 4188 
Q 3922 3881 4101 3404 
Q 4281 2928 4281 2316 
Q 4281 1794 4159 1391 
Q 4038 988 3847 723 
Q 3656 459 3429 307 
Q 3203 156 2883 78 
Q 2563 0 2147 0 
L 494 0 
z
M 1100 541 
L 2078 541 
Q 2531 541 2789 625 
Q 3047 709 3200 863 
Q 3416 1078 3536 1442 
Q 3656 1806 3656 2325 
Q 3656 3044 3420 3430 
Q 3184 3816 2847 3947 
Q 2603 4041 2063 4041 
L 1100 4041 
L 1100 541 
z
" transform="scale(0.015625)"/>
      <path id="ArialMT-65" d="M 2694 1069 
L 3275 997 
Q 3138 488 2766 206 
Q 2394 -75 1816 -75 
Q 1088 -75 661 373 
Q 234 822 234 1631 
Q 234 2469 665 2931 
Q 1097 3394 1784 3394 
Q 2450 3394 2872 2941 
Q 3294 2488 3294 1666 
Q 3294 1616 3291 1516 
L 816 1516 
Q 847 969 1125 678 
Q 1403 388 1819 388 
Q 2128 388 2347 550 
Q 2566 713 2694 1069 
z
M 847 1978 
L 2700 1978 
Q 2663 2397 2488 2606 
Q 2219 2931 1791 2931 
Q 1403 2931 1139 2672 
Q 875 2413 847 1978 
z
" transform="scale(0.015625)"/>
      <path id="ArialMT-63" d="M 2588 1216 
L 3141 1144 
Q 3050 572 2676 248 
Q 2303 -75 1759 -75 
Q 1078 -75 664 370 
Q 250 816 250 1647 
Q 250 2184 428 2587 
Q 606 2991 970 3192 
Q 1334 3394 1763 3394 
Q 2303 3394 2647 3120 
Q 2991 2847 3088 2344 
L 2541 2259 
Q 2463 2594 2264 2762 
Q 2066 2931 1784 2931 
Q 1359 2931 1093 2626 
Q 828 2322 828 1663 
Q 828 994 1084 691 
Q 1341 388 1753 388 
Q 2084 388 2306 591 
Q 2528 794 2588 1216 
z
" transform="scale(0.015625)"/>
     </defs>
     <use xlink:href="#ArialMT-44"/>
     <use xlink:href="#ArialMT-69" x="72.216797"/>
     <use xlink:href="#ArialMT-72" x="94.433594"/>
     <use xlink:href="#ArialMT-65" x="127.734375"/>
     <use xlink:href="#ArialMT-63" x="183.349609"/>
     <use xlink:href="#ArialMT-74" x="233.349609"/>
     <use xlink:href="#ArialMT-69" x="261.132812"/>
     <use xlink:href="#ArialMT-6f" x="283.349609"/>
     <use xlink:href="#ArialMT-6e" x="338.964844"/>
    </g>
   </g>
   <g id="line2d_27">
    <path d="M 323.1645 68.112875 
L 331.9645 68.112875 
L 331.9645 68.112875 
L 340.7645 68.112875 
L 340.7645 68.112875 
" style="fill: none; stroke: #023eff; stroke-width: 1.5; stroke-linecap: round"/>
   </g>
   <g id="text_21">
    <!-- East -->
    <g style="fill: #262626" transform="translate(347.8045 71.192875) scale(0.088 -0.088)">
     <use xlink:href="#ArialMT-45"/>
     <use xlink:href="#ArialMT-61" x="66.699219"/>
     <use xlink:href="#ArialMT-73" x="122.314453"/>
     <use xlink:href="#ArialMT-74" x="172.314453"/>
    </g>
   </g>
   <g id="line2d_28">
    <path d="M 323.1645 80.56075 
L 331.9645 80.56075 
L 331.9645 80.56075 
L 340.7645 80.56075 
L 340.7645 80.56075 
" style="fill: none; stroke: #ff7c00; stroke-width: 1.5; stroke-linecap: round"/>
   </g>
   <g id="text_22">
    <!-- West -->
    <g style="fill: #262626" transform="translate(347.8045 83.64075) scale(0.088 -0.088)">
     <defs>
      <path id="ArialMT-57" d="M 1294 0 
L 78 4581 
L 700 4581 
L 1397 1578 
Q 1509 1106 1591 641 
Q 1766 1375 1797 1488 
L 2669 4581 
L 3400 4581 
L 4056 2263 
Q 4303 1400 4413 641 
Q 4500 1075 4641 1638 
L 5359 4581 
L 5969 4581 
L 4713 0 
L 4128 0 
L 3163 3491 
Q 3041 3928 3019 4028 
Q 2947 3713 2884 3491 
L 1913 0 
L 1294 0 
z
" transform="scale(0.015625)"/>
     </defs>
     <use xlink:href="#ArialMT-57"/>
     <use xlink:href="#ArialMT-65" x="92.634766"/>
     <use xlink:href="#ArialMT-73" x="148.25"/>
     <use xlink:href="#ArialMT-74" x="198.25"/>
    </g>
   </g>
   <g id="line2d_29">
    <path d="M 323.1645 93.008625 
L 331.9645 93.008625 
L 331.9645 93.008625 
L 340.7645 93.008625 
L 340.7645 93.008625 
" style="fill: none; stroke: #1ac938; stroke-width: 1.5; stroke-linecap: round"/>
   </g>
   <g id="text_23">
    <!-- North -->
    <g style="fill: #262626" transform="translate(347.8045 96.088625) scale(0.088 -0.088)">
     <defs>
      <path id="ArialMT-4e" d="M 488 0 
L 488 4581 
L 1109 4581 
L 3516 984 
L 3516 4581 
L 4097 4581 
L 4097 0 
L 3475 0 
L 1069 3600 
L 1069 0 
L 488 0 
z
" transform="scale(0.015625)"/>
      <path id="ArialMT-68" d="M 422 0 
L 422 4581 
L 984 4581 
L 984 2938 
Q 1378 3394 1978 3394 
Q 2347 3394 2619 3248 
Q 2891 3103 3008 2847 
Q 3125 2591 3125 2103 
L 3125 0 
L 2563 0 
L 2563 2103 
Q 2563 2525 2380 2717 
Q 2197 2909 1863 2909 
Q 1613 2909 1392 2779 
Q 1172 2650 1078 2428 
Q 984 2206 984 1816 
L 984 0 
L 422 0 
z
" transform="scale(0.015625)"/>
     </defs>
     <use xlink:href="#ArialMT-4e"/>
     <use xlink:href="#ArialMT-6f" x="72.216797"/>
     <use xlink:href="#ArialMT-72" x="127.832031"/>
     <use xlink:href="#ArialMT-74" x="161.132812"/>
     <use xlink:href="#ArialMT-68" x="188.916016"/>
    </g>
   </g>
   <g id="line2d_30">
    <path d="M 323.1645 105.4565 
L 331.9645 105.4565 
L 331.9645 105.4565 
L 340.7645 105.4565 
L 340.7645 105.4565 
" style="fill: none; stroke: #e8000b; stroke-width: 1.5; stroke-linecap: round"/>
   </g>
   <g id="text_24">
    <!-- South -->
    <g style="fill: #262626" transform="translate(347.8045 108.5365) scale(0.088 -0.088)">
     <defs>
      <path id="ArialMT-53" d="M 288 1472 
L 859 1522 
Q 900 1178 1048 958 
Q 1197 738 1509 602 
Q 1822 466 2213 466 
Q 2559 466 2825 569 
Q 3091 672 3220 851 
Q 3350 1031 3350 1244 
Q 3350 1459 3225 1620 
Q 3100 1781 2813 1891 
Q 2628 1963 1997 2114 
Q 1366 2266 1113 2400 
Q 784 2572 623 2826 
Q 463 3081 463 3397 
Q 463 3744 659 4045 
Q 856 4347 1234 4503 
Q 1613 4659 2075 4659 
Q 2584 4659 2973 4495 
Q 3363 4331 3572 4012 
Q 3781 3694 3797 3291 
L 3216 3247 
Q 3169 3681 2898 3903 
Q 2628 4125 2100 4125 
Q 1550 4125 1298 3923 
Q 1047 3722 1047 3438 
Q 1047 3191 1225 3031 
Q 1400 2872 2139 2705 
Q 2878 2538 3153 2413 
Q 3553 2228 3743 1945 
Q 3934 1663 3934 1294 
Q 3934 928 3725 604 
Q 3516 281 3123 101 
Q 2731 -78 2241 -78 
Q 1619 -78 1198 103 
Q 778 284 539 648 
Q 300 1013 288 1472 
z
" transform="scale(0.015625)"/>
     </defs>
     <use xlink:href="#ArialMT-53"/>
     <use xlink:href="#ArialMT-6f" x="66.699219"/>
     <use xlink:href="#ArialMT-75" x="122.314453"/>
     <use xlink:href="#ArialMT-74" x="177.929688"/>
     <use xlink:href="#ArialMT-68" x="205.712891"/>
    </g>
   </g>
  </g>
 </g>
 <defs>
  <clipPath id="p9d82c74d4a">
   <rect x="52.84459" y="23.12925" width="121.902333" height="99.16275"/>
  </clipPath>
  <clipPath id="p5efe5ccf17">
   <rect x="186.948867" y="23.12925" width="121.902333" height="99.16275"/>
  </clipPath>
 </defs>
</svg>
