<?xml version="1.0" encoding="utf-8" standalone="no"?>
<!DOCTYPE svg PUBLIC "-//W3C//DTD SVG 1.1//EN"
  "http://www.w3.org/Graphics/SVG/1.1/DTD/svg11.dtd">
<svg xmlns:xlink="http://www.w3.org/1999/xlink" width="378.72pt" height="162pt" viewBox="0 0 378.72 162" xmlns="http://www.w3.org/2000/svg" version="1.1">
 <metadata>
  <rdf:RDF xmlns:dc="http://purl.org/dc/elements/1.1/" xmlns:cc="http://creativecommons.org/ns#" xmlns:rdf="http://www.w3.org/1999/02/22-rdf-syntax-ns#">
   <cc:Work>
    <dc:type rdf:resource="http://purl.org/dc/dcmitype/StillImage"/>
    <dc:date>2024-08-26T15:08:04.850902</dc:date>
    <dc:format>image/svg+xml</dc:format>
    <dc:creator>
     <cc:Agent>
      <dc:title>Matplotlib v3.9.0, https://matplotlib.org/</dc:title>
     </cc:Agent>
    </dc:creator>
   </cc:Work>
  </rdf:RDF>
 </metadata>
 <defs>
  <style type="text/css">*{stroke-linejoin: round; stroke-linecap: butt}</style>
 </defs>
 <g id="figure_1">
  <g id="patch_1">
   <path d="M 0 162 
L 378.72 162 
L 378.72 0 
L 0 0 
z
" style="fill: #ffffff"/>
  </g>
  <g id="axes_1">
   <g id="patch_2">
    <path d="M 49.57024 122.292 
L 174.254992 122.292 
L 174.254992 23.12925 
L 49.57024 23.12925 
z
" style="fill: #eaeaf2"/>
   </g>
   <g id="matplotlib.axis_1">
    <g id="xtick_1">
     <g id="line2d_1">
      <path d="M 52.924468 122.292 
L 52.924468 23.12925 
" clip-path="url(#p14a655d2ee)" style="fill: none; stroke: #ffffff; stroke-linecap: round"/>
     </g>
     <g id="text_1">
      <!-- 0 -->
      <g style="fill: #262626" transform="translate(50.477656 138.090875) scale(0.088 -0.088)">
       <defs>
        <path id="ArialMT-30" d="M 266 2259 
Q 266 3072 433 3567 
Q 600 4063 929 4331 
Q 1259 4600 1759 4600 
Q 2128 4600 2406 4451 
Q 2684 4303 2865 4023 
Q 3047 3744 3150 3342 
Q 3253 2941 3253 2259 
Q 3253 1453 3087 958 
Q 2922 463 2592 192 
Q 2263 -78 1759 -78 
Q 1097 -78 719 397 
Q 266 969 266 2259 
z
M 844 2259 
Q 844 1131 1108 757 
Q 1372 384 1759 384 
Q 2147 384 2411 759 
Q 2675 1134 2675 2259 
Q 2675 3391 2411 3762 
Q 2147 4134 1753 4134 
Q 1366 4134 1134 3806 
Q 844 3388 844 2259 
z
" transform="scale(0.015625)"/>
       </defs>
       <use xlink:href="#ArialMT-30"/>
      </g>
     </g>
    </g>
    <g id="xtick_2">
     <g id="line2d_2">
      <path d="M 99.189682 122.292 
L 99.189682 23.12925 
" clip-path="url(#p14a655d2ee)" style="fill: none; stroke: #ffffff; stroke-linecap: round"/>
     </g>
     <g id="text_2">
      <!-- 20 -->
      <g style="fill: #262626" transform="translate(94.296057 138.090875) scale(0.088 -0.088)">
       <defs>
        <path id="ArialMT-32" d="M 3222 541 
L 3222 0 
L 194 0 
Q 188 203 259 391 
Q 375 700 629 1000 
Q 884 1300 1366 1694 
Q 2113 2306 2375 2664 
Q 2638 3022 2638 3341 
Q 2638 3675 2398 3904 
Q 2159 4134 1775 4134 
Q 1369 4134 1125 3890 
Q 881 3647 878 3216 
L 300 3275 
Q 359 3922 746 4261 
Q 1134 4600 1788 4600 
Q 2447 4600 2831 4234 
Q 3216 3869 3216 3328 
Q 3216 3053 3103 2787 
Q 2991 2522 2730 2228 
Q 2469 1934 1863 1422 
Q 1356 997 1212 845 
Q 1069 694 975 541 
L 3222 541 
z
" transform="scale(0.015625)"/>
       </defs>
       <use xlink:href="#ArialMT-32"/>
       <use xlink:href="#ArialMT-30" x="55.615234"/>
      </g>
     </g>
    </g>
    <g id="xtick_3">
     <g id="line2d_3">
      <path d="M 145.454896 122.292 
L 145.454896 23.12925 
" clip-path="url(#p14a655d2ee)" style="fill: none; stroke: #ffffff; stroke-linecap: round"/>
     </g>
     <g id="text_3">
      <!-- 40 -->
      <g style="fill: #262626" transform="translate(140.561271 138.090875) scale(0.088 -0.088)">
       <defs>
        <path id="ArialMT-34" d="M 2069 0 
L 2069 1097 
L 81 1097 
L 81 1613 
L 2172 4581 
L 2631 4581 
L 2631 1613 
L 3250 1613 
L 3250 1097 
L 2631 1097 
L 2631 0 
L 2069 0 
z
M 2069 1613 
L 2069 3678 
L 634 1613 
L 2069 1613 
z
" transform="scale(0.015625)"/>
       </defs>
       <use xlink:href="#ArialMT-34"/>
       <use xlink:href="#ArialMT-30" x="55.615234"/>
      </g>
     </g>
    </g>
    <g id="text_4">
     <!-- Frame -->
     <g style="fill: #262626" transform="translate(98.045866 150.711375) scale(0.096 -0.096)">
      <defs>
       <path id="ArialMT-46" d="M 525 0 
L 525 4581 
L 3616 4581 
L 3616 4041 
L 1131 4041 
L 1131 2622 
L 3281 2622 
L 3281 2081 
L 1131 2081 
L 1131 0 
L 525 0 
z
" transform="scale(0.015625)"/>
       <path id="ArialMT-72" d="M 416 0 
L 416 3319 
L 922 3319 
L 922 2816 
Q 1116 3169 1280 3281 
Q 1444 3394 1641 3394 
Q 1925 3394 2219 3213 
L 2025 2691 
Q 1819 2813 1613 2813 
Q 1428 2813 1281 2702 
Q 1134 2591 1072 2394 
Q 978 2094 978 1738 
L 978 0 
L 416 0 
z
" transform="scale(0.015625)"/>
       <path id="ArialMT-61" d="M 2588 409 
Q 2275 144 1986 34 
Q 1697 -75 1366 -75 
Q 819 -75 525 192 
Q 231 459 231 875 
Q 231 1119 342 1320 
Q 453 1522 633 1644 
Q 813 1766 1038 1828 
Q 1203 1872 1538 1913 
Q 2219 1994 2541 2106 
Q 2544 2222 2544 2253 
Q 2544 2597 2384 2738 
Q 2169 2928 1744 2928 
Q 1347 2928 1158 2789 
Q 969 2650 878 2297 
L 328 2372 
Q 403 2725 575 2942 
Q 747 3159 1072 3276 
Q 1397 3394 1825 3394 
Q 2250 3394 2515 3294 
Q 2781 3194 2906 3042 
Q 3031 2891 3081 2659 
Q 3109 2516 3109 2141 
L 3109 1391 
Q 3109 606 3145 398 
Q 3181 191 3288 0 
L 2700 0 
Q 2613 175 2588 409 
z
M 2541 1666 
Q 2234 1541 1622 1453 
Q 1275 1403 1131 1340 
Q 988 1278 909 1158 
Q 831 1038 831 891 
Q 831 666 1001 516 
Q 1172 366 1500 366 
Q 1825 366 2078 508 
Q 2331 650 2450 897 
Q 2541 1088 2541 1459 
L 2541 1666 
z
" transform="scale(0.015625)"/>
       <path id="ArialMT-6d" d="M 422 0 
L 422 3319 
L 925 3319 
L 925 2853 
Q 1081 3097 1340 3245 
Q 1600 3394 1931 3394 
Q 2300 3394 2536 3241 
Q 2772 3088 2869 2813 
Q 3263 3394 3894 3394 
Q 4388 3394 4653 3120 
Q 4919 2847 4919 2278 
L 4919 0 
L 4359 0 
L 4359 2091 
Q 4359 2428 4304 2576 
Q 4250 2725 4106 2815 
Q 3963 2906 3769 2906 
Q 3419 2906 3187 2673 
Q 2956 2441 2956 1928 
L 2956 0 
L 2394 0 
L 2394 2156 
Q 2394 2531 2256 2718 
Q 2119 2906 1806 2906 
Q 1569 2906 1367 2781 
Q 1166 2656 1075 2415 
Q 984 2175 984 1722 
L 984 0 
L 422 0 
z
" transform="scale(0.015625)"/>
       <path id="ArialMT-65" d="M 2694 1069 
L 3275 997 
Q 3138 488 2766 206 
Q 2394 -75 1816 -75 
Q 1088 -75 661 373 
Q 234 822 234 1631 
Q 234 2469 665 2931 
Q 1097 3394 1784 3394 
Q 2450 3394 2872 2941 
Q 3294 2488 3294 1666 
Q 3294 1616 3291 1516 
L 816 1516 
Q 847 969 1125 678 
Q 1403 388 1819 388 
Q 2128 388 2347 550 
Q 2566 713 2694 1069 
z
M 847 1978 
L 2700 1978 
Q 2663 2397 2488 2606 
Q 2219 2931 1791 2931 
Q 1403 2931 1139 2672 
Q 875 2413 847 1978 
z
" transform="scale(0.015625)"/>
      </defs>
      <use xlink:href="#ArialMT-46"/>
      <use xlink:href="#ArialMT-72" x="61.083984"/>
      <use xlink:href="#ArialMT-61" x="94.384766"/>
      <use xlink:href="#ArialMT-6d" x="150"/>
      <use xlink:href="#ArialMT-65" x="233.300781"/>
     </g>
    </g>
   </g>
   <g id="matplotlib.axis_2">
    <g id="ytick_1">
     <g id="line2d_4">
      <path d="M 49.57024 117.784602 
L 174.254992 117.784602 
" clip-path="url(#p14a655d2ee)" style="fill: none; stroke: #ffffff; stroke-linecap: round"/>
     </g>
     <g id="text_5">
      <!-- 0 -->
      <g style="fill: #262626" transform="translate(35.176615 120.93404) scale(0.088 -0.088)">
       <use xlink:href="#ArialMT-30"/>
      </g>
     </g>
    </g>
    <g id="ytick_2">
     <g id="line2d_5">
      <path d="M 49.57024 95.247614 
L 174.254992 95.247614 
" clip-path="url(#p14a655d2ee)" style="fill: none; stroke: #ffffff; stroke-linecap: round"/>
     </g>
     <g id="text_6">
      <!-- 5 -->
      <g style="fill: #262626" transform="translate(35.176615 98.397051) scale(0.088 -0.088)">
       <defs>
        <path id="ArialMT-35" d="M 266 1200 
L 856 1250 
Q 922 819 1161 601 
Q 1400 384 1738 384 
Q 2144 384 2425 690 
Q 2706 997 2706 1503 
Q 2706 1984 2436 2262 
Q 2166 2541 1728 2541 
Q 1456 2541 1237 2417 
Q 1019 2294 894 2097 
L 366 2166 
L 809 4519 
L 3088 4519 
L 3088 3981 
L 1259 3981 
L 1013 2750 
Q 1425 3038 1878 3038 
Q 2478 3038 2890 2622 
Q 3303 2206 3303 1553 
Q 3303 931 2941 478 
Q 2500 -78 1738 -78 
Q 1113 -78 717 272 
Q 322 622 266 1200 
z
" transform="scale(0.015625)"/>
       </defs>
       <use xlink:href="#ArialMT-35"/>
      </g>
     </g>
    </g>
    <g id="ytick_3">
     <g id="line2d_6">
      <path d="M 49.57024 72.710625 
L 174.254992 72.710625 
" clip-path="url(#p14a655d2ee)" style="fill: none; stroke: #ffffff; stroke-linecap: round"/>
     </g>
     <g id="text_7">
      <!-- 10 -->
      <g style="fill: #262626" transform="translate(30.28299 75.860062) scale(0.088 -0.088)">
       <defs>
        <path id="ArialMT-31" d="M 2384 0 
L 1822 0 
L 1822 3584 
Q 1619 3391 1289 3197 
Q 959 3003 697 2906 
L 697 3450 
Q 1169 3672 1522 3987 
Q 1875 4303 2022 4600 
L 2384 4600 
L 2384 0 
z
" transform="scale(0.015625)"/>
       </defs>
       <use xlink:href="#ArialMT-31"/>
       <use xlink:href="#ArialMT-30" x="55.615234"/>
      </g>
     </g>
    </g>
    <g id="ytick_4">
     <g id="line2d_7">
      <path d="M 49.57024 50.173636 
L 174.254992 50.173636 
" clip-path="url(#p14a655d2ee)" style="fill: none; stroke: #ffffff; stroke-linecap: round"/>
     </g>
     <g id="text_8">
      <!-- 15 -->
      <g style="fill: #262626" transform="translate(30.28299 53.323074) scale(0.088 -0.088)">
       <use xlink:href="#ArialMT-31"/>
       <use xlink:href="#ArialMT-35" x="55.615234"/>
      </g>
     </g>
    </g>
    <g id="ytick_5">
     <g id="line2d_8">
      <path d="M 49.57024 27.636648 
L 174.254992 27.636648 
" clip-path="url(#p14a655d2ee)" style="fill: none; stroke: #ffffff; stroke-linecap: round"/>
     </g>
     <g id="text_9">
      <!-- 20 -->
      <g style="fill: #262626" transform="translate(30.28299 30.786085) scale(0.088 -0.088)">
       <use xlink:href="#ArialMT-32"/>
       <use xlink:href="#ArialMT-30" x="55.615234"/>
      </g>
     </g>
    </g>
    <g id="text_10">
     <!-- Malicious Traffic (Gbps) -->
     <g style="fill: #262626" transform="translate(24.26249 123.036375) rotate(-90) scale(0.096 -0.096)">
      <defs>
       <path id="ArialMT-4d" d="M 475 0 
L 475 4581 
L 1388 4581 
L 2472 1338 
Q 2622 884 2691 659 
Q 2769 909 2934 1394 
L 4031 4581 
L 4847 4581 
L 4847 0 
L 4263 0 
L 4263 3834 
L 2931 0 
L 2384 0 
L 1059 3900 
L 1059 0 
L 475 0 
z
" transform="scale(0.015625)"/>
       <path id="ArialMT-6c" d="M 409 0 
L 409 4581 
L 972 4581 
L 972 0 
L 409 0 
z
" transform="scale(0.015625)"/>
       <path id="ArialMT-69" d="M 425 3934 
L 425 4581 
L 988 4581 
L 988 3934 
L 425 3934 
z
M 425 0 
L 425 3319 
L 988 3319 
L 988 0 
L 425 0 
z
" transform="scale(0.015625)"/>
       <path id="ArialMT-63" d="M 2588 1216 
L 3141 1144 
Q 3050 572 2676 248 
Q 2303 -75 1759 -75 
Q 1078 -75 664 370 
Q 250 816 250 1647 
Q 250 2184 428 2587 
Q 606 2991 970 3192 
Q 1334 3394 1763 3394 
Q 2303 3394 2647 3120 
Q 2991 2847 3088 2344 
L 2541 2259 
Q 2463 2594 2264 2762 
Q 2066 2931 1784 2931 
Q 1359 2931 1093 2626 
Q 828 2322 828 1663 
Q 828 994 1084 691 
Q 1341 388 1753 388 
Q 2084 388 2306 591 
Q 2528 794 2588 1216 
z
" transform="scale(0.015625)"/>
       <path id="ArialMT-6f" d="M 213 1659 
Q 213 2581 725 3025 
Q 1153 3394 1769 3394 
Q 2453 3394 2887 2945 
Q 3322 2497 3322 1706 
Q 3322 1066 3130 698 
Q 2938 331 2570 128 
Q 2203 -75 1769 -75 
Q 1072 -75 642 372 
Q 213 819 213 1659 
z
M 791 1659 
Q 791 1022 1069 705 
Q 1347 388 1769 388 
Q 2188 388 2466 706 
Q 2744 1025 2744 1678 
Q 2744 2294 2464 2611 
Q 2184 2928 1769 2928 
Q 1347 2928 1069 2612 
Q 791 2297 791 1659 
z
" transform="scale(0.015625)"/>
       <path id="ArialMT-75" d="M 2597 0 
L 2597 488 
Q 2209 -75 1544 -75 
Q 1250 -75 995 37 
Q 741 150 617 320 
Q 494 491 444 738 
Q 409 903 409 1263 
L 409 3319 
L 972 3319 
L 972 1478 
Q 972 1038 1006 884 
Q 1059 663 1231 536 
Q 1403 409 1656 409 
Q 1909 409 2131 539 
Q 2353 669 2445 892 
Q 2538 1116 2538 1541 
L 2538 3319 
L 3100 3319 
L 3100 0 
L 2597 0 
z
" transform="scale(0.015625)"/>
       <path id="ArialMT-73" d="M 197 991 
L 753 1078 
Q 800 744 1014 566 
Q 1228 388 1613 388 
Q 2000 388 2187 545 
Q 2375 703 2375 916 
Q 2375 1106 2209 1216 
Q 2094 1291 1634 1406 
Q 1016 1563 777 1677 
Q 538 1791 414 1992 
Q 291 2194 291 2438 
Q 291 2659 392 2848 
Q 494 3038 669 3163 
Q 800 3259 1026 3326 
Q 1253 3394 1513 3394 
Q 1903 3394 2198 3281 
Q 2494 3169 2634 2976 
Q 2775 2784 2828 2463 
L 2278 2388 
Q 2241 2644 2061 2787 
Q 1881 2931 1553 2931 
Q 1166 2931 1000 2803 
Q 834 2675 834 2503 
Q 834 2394 903 2306 
Q 972 2216 1119 2156 
Q 1203 2125 1616 2013 
Q 2213 1853 2448 1751 
Q 2684 1650 2818 1456 
Q 2953 1263 2953 975 
Q 2953 694 2789 445 
Q 2625 197 2315 61 
Q 2006 -75 1616 -75 
Q 969 -75 630 194 
Q 291 463 197 991 
z
" transform="scale(0.015625)"/>
       <path id="ArialMT-20" transform="scale(0.015625)"/>
       <path id="ArialMT-54" d="M 1659 0 
L 1659 4041 
L 150 4041 
L 150 4581 
L 3781 4581 
L 3781 4041 
L 2266 4041 
L 2266 0 
L 1659 0 
z
" transform="scale(0.015625)"/>
       <path id="ArialMT-66" d="M 556 0 
L 556 2881 
L 59 2881 
L 59 3319 
L 556 3319 
L 556 3672 
Q 556 4006 616 4169 
Q 697 4388 901 4523 
Q 1106 4659 1475 4659 
Q 1713 4659 2000 4603 
L 1916 4113 
Q 1741 4144 1584 4144 
Q 1328 4144 1222 4034 
Q 1116 3925 1116 3625 
L 1116 3319 
L 1763 3319 
L 1763 2881 
L 1116 2881 
L 1116 0 
L 556 0 
z
" transform="scale(0.015625)"/>
       <path id="ArialMT-28" d="M 1497 -1347 
Q 1031 -759 709 28 
Q 388 816 388 1659 
Q 388 2403 628 3084 
Q 909 3875 1497 4659 
L 1900 4659 
Q 1522 4009 1400 3731 
Q 1209 3300 1100 2831 
Q 966 2247 966 1656 
Q 966 153 1900 -1347 
L 1497 -1347 
z
" transform="scale(0.015625)"/>
       <path id="ArialMT-47" d="M 2638 1797 
L 2638 2334 
L 4578 2338 
L 4578 638 
Q 4131 281 3656 101 
Q 3181 -78 2681 -78 
Q 2006 -78 1454 211 
Q 903 500 622 1047 
Q 341 1594 341 2269 
Q 341 2938 620 3517 
Q 900 4097 1425 4378 
Q 1950 4659 2634 4659 
Q 3131 4659 3532 4498 
Q 3934 4338 4162 4050 
Q 4391 3763 4509 3300 
L 3963 3150 
Q 3859 3500 3706 3700 
Q 3553 3900 3268 4020 
Q 2984 4141 2638 4141 
Q 2222 4141 1919 4014 
Q 1616 3888 1430 3681 
Q 1244 3475 1141 3228 
Q 966 2803 966 2306 
Q 966 1694 1177 1281 
Q 1388 869 1791 669 
Q 2194 469 2647 469 
Q 3041 469 3416 620 
Q 3791 772 3984 944 
L 3984 1797 
L 2638 1797 
z
" transform="scale(0.015625)"/>
       <path id="ArialMT-62" d="M 941 0 
L 419 0 
L 419 4581 
L 981 4581 
L 981 2947 
Q 1338 3394 1891 3394 
Q 2197 3394 2470 3270 
Q 2744 3147 2920 2923 
Q 3097 2700 3197 2384 
Q 3297 2069 3297 1709 
Q 3297 856 2875 390 
Q 2453 -75 1863 -75 
Q 1275 -75 941 416 
L 941 0 
z
M 934 1684 
Q 934 1088 1097 822 
Q 1363 388 1816 388 
Q 2184 388 2453 708 
Q 2722 1028 2722 1663 
Q 2722 2313 2464 2622 
Q 2206 2931 1841 2931 
Q 1472 2931 1203 2611 
Q 934 2291 934 1684 
z
" transform="scale(0.015625)"/>
       <path id="ArialMT-70" d="M 422 -1272 
L 422 3319 
L 934 3319 
L 934 2888 
Q 1116 3141 1344 3267 
Q 1572 3394 1897 3394 
Q 2322 3394 2647 3175 
Q 2972 2956 3137 2557 
Q 3303 2159 3303 1684 
Q 3303 1175 3120 767 
Q 2938 359 2589 142 
Q 2241 -75 1856 -75 
Q 1575 -75 1351 44 
Q 1128 163 984 344 
L 984 -1272 
L 422 -1272 
z
M 931 1641 
Q 931 1000 1190 694 
Q 1450 388 1819 388 
Q 2194 388 2461 705 
Q 2728 1022 2728 1688 
Q 2728 2322 2467 2637 
Q 2206 2953 1844 2953 
Q 1484 2953 1207 2617 
Q 931 2281 931 1641 
z
" transform="scale(0.015625)"/>
       <path id="ArialMT-29" d="M 791 -1347 
L 388 -1347 
Q 1322 153 1322 1656 
Q 1322 2244 1188 2822 
Q 1081 3291 891 3722 
Q 769 4003 388 4659 
L 791 4659 
Q 1378 3875 1659 3084 
Q 1900 2403 1900 1659 
Q 1900 816 1576 28 
Q 1253 -759 791 -1347 
z
" transform="scale(0.015625)"/>
      </defs>
      <use xlink:href="#ArialMT-4d"/>
      <use xlink:href="#ArialMT-61" x="83.300781"/>
      <use xlink:href="#ArialMT-6c" x="138.916016"/>
      <use xlink:href="#ArialMT-69" x="161.132812"/>
      <use xlink:href="#ArialMT-63" x="183.349609"/>
      <use xlink:href="#ArialMT-69" x="233.349609"/>
      <use xlink:href="#ArialMT-6f" x="255.566406"/>
      <use xlink:href="#ArialMT-75" x="311.181641"/>
      <use xlink:href="#ArialMT-73" x="366.796875"/>
      <use xlink:href="#ArialMT-20" x="416.796875"/>
      <use xlink:href="#ArialMT-54" x="442.830078"/>
      <use xlink:href="#ArialMT-72" x="500.164062"/>
      <use xlink:href="#ArialMT-61" x="533.464844"/>
      <use xlink:href="#ArialMT-66" x="589.080078"/>
      <use xlink:href="#ArialMT-66" x="615.113281"/>
      <use xlink:href="#ArialMT-69" x="642.896484"/>
      <use xlink:href="#ArialMT-63" x="665.113281"/>
      <use xlink:href="#ArialMT-20" x="715.113281"/>
      <use xlink:href="#ArialMT-28" x="742.896484"/>
      <use xlink:href="#ArialMT-47" x="776.197266"/>
      <use xlink:href="#ArialMT-62" x="853.980469"/>
      <use xlink:href="#ArialMT-70" x="909.595703"/>
      <use xlink:href="#ArialMT-73" x="965.210938"/>
      <use xlink:href="#ArialMT-29" x="1015.210938"/>
     </g>
    </g>
   </g>
   <g id="PolyCollection_1">
    <defs>
     <path id="m0a28418baf" d="M 55.237729 -98.30417 
L 55.237729 -98.30417 
L 57.550989 -98.30417 
L 59.86425 -98.30417 
L 62.177511 -80.27458 
L 64.490771 -80.27458 
L 66.804032 -80.27458 
L 69.117293 -80.27458 
L 71.430554 -80.27458 
L 73.743814 -80.27458 
L 76.057075 -80.27458 
L 78.370336 -80.27458 
L 80.683596 -80.27458 
L 82.996857 -80.27458 
L 85.310118 -98.30417 
L 87.623378 -98.30417 
L 89.936639 -98.30417 
L 92.2499 -98.30417 
L 94.563161 -98.30417 
L 96.876421 -98.30417 
L 99.189682 -98.30417 
L 101.502943 -98.30417 
L 103.816203 -98.30417 
L 106.129464 -98.30417 
L 108.442725 -98.30417 
L 110.755985 -98.30417 
L 113.069246 -98.30417 
L 115.382507 -98.30417 
L 117.695768 -98.30417 
L 120.009028 -98.30417 
L 122.322289 -80.27458 
L 124.63555 -80.27458 
L 126.94881 -80.27458 
L 129.262071 -80.27458 
L 131.575332 -80.27458 
L 133.888592 -80.27458 
L 136.201853 -80.27458 
L 138.515114 -80.27458 
L 140.828374 -80.27458 
L 143.141635 -80.27458 
L 145.454896 -98.30417 
L 147.768157 -98.30417 
L 150.081417 -98.30417 
L 152.394678 -98.30417 
L 154.707939 -98.30417 
L 157.021199 -98.30417 
L 159.33446 -98.30417 
L 161.647721 -98.30417 
L 163.960981 -98.30417 
L 166.274242 -98.30417 
L 168.587503 -98.30417 
L 168.587503 -98.30417 
L 168.587503 -98.30417 
L 166.274242 -98.30417 
L 163.960981 -98.30417 
L 161.647721 -98.30417 
L 159.33446 -98.30417 
L 157.021199 -98.30417 
L 154.707939 -98.30417 
L 152.394678 -98.30417 
L 150.081417 -98.30417 
L 147.768157 -98.30417 
L 145.454896 -98.30417 
L 143.141635 -80.27458 
L 140.828374 -80.27458 
L 138.515114 -80.27458 
L 136.201853 -80.27458 
L 133.888592 -80.27458 
L 131.575332 -80.27458 
L 129.262071 -80.27458 
L 126.94881 -80.27458 
L 124.63555 -80.27458 
L 122.322289 -80.27458 
L 120.009028 -98.30417 
L 117.695768 -98.30417 
L 115.382507 -98.30417 
L 113.069246 -98.30417 
L 110.755985 -98.30417 
L 108.442725 -98.30417 
L 106.129464 -98.30417 
L 103.816203 -98.30417 
L 101.502943 -98.30417 
L 99.189682 -98.30417 
L 96.876421 -98.30417 
L 94.563161 -98.30417 
L 92.2499 -98.30417 
L 89.936639 -98.30417 
L 87.623378 -98.30417 
L 85.310118 -98.30417 
L 82.996857 -80.27458 
L 80.683596 -80.27458 
L 78.370336 -80.27458 
L 76.057075 -80.27458 
L 73.743814 -80.27458 
L 71.430554 -80.27458 
L 69.117293 -80.27458 
L 66.804032 -80.27458 
L 64.490771 -80.27458 
L 62.177511 -80.27458 
L 59.86425 -98.30417 
L 57.550989 -98.30417 
L 55.237729 -98.30417 
z
" style="stroke: #023eff; stroke-opacity: 0.2"/>
    </defs>
    <g clip-path="url(#p14a655d2ee)">
     <use xlink:href="#m0a28418baf" x="0" y="162" style="fill: #023eff; fill-opacity: 0.2; stroke: #023eff; stroke-opacity: 0.2"/>
    </g>
   </g>
   <g id="PolyCollection_2">
    <defs>
     <path id="m85ca97ab02" d="M 55.237729 -80.27458 
L 55.237729 -80.27458 
L 57.550989 -62.244989 
L 59.86425 -62.244989 
L 62.177511 -62.244989 
L 64.490771 -62.244989 
L 66.804032 -62.244989 
L 69.117293 -62.244989 
L 71.430554 -62.244989 
L 73.743814 -62.244989 
L 76.057075 -62.244989 
L 78.370336 -62.244989 
L 80.683596 -80.27458 
L 82.996857 -80.27458 
L 85.310118 -80.27458 
L 87.623378 -80.27458 
L 89.936639 -80.27458 
L 92.2499 -80.27458 
L 94.563161 -80.27458 
L 96.876421 -80.27458 
L 99.189682 -80.27458 
L 101.502943 -62.244989 
L 103.816203 -62.244989 
L 106.129464 -62.244989 
L 108.442725 -62.244989 
L 110.755985 -80.27458 
L 113.069246 -80.27458 
L 115.382507 -80.27458 
L 117.695768 -80.27458 
L 120.009028 -62.244989 
L 122.322289 -62.244989 
L 124.63555 -62.244989 
L 126.94881 -62.244989 
L 129.262071 -62.244989 
L 131.575332 -62.244989 
L 133.888592 -62.244989 
L 136.201853 -62.244989 
L 138.515114 -62.244989 
L 140.828374 -80.27458 
L 143.141635 -80.27458 
L 145.454896 -80.27458 
L 147.768157 -80.27458 
L 150.081417 -80.27458 
L 152.394678 -80.27458 
L 154.707939 -80.27458 
L 157.021199 -80.27458 
L 159.33446 -80.27458 
L 161.647721 -62.244989 
L 163.960981 -62.244989 
L 166.274242 -62.244989 
L 168.587503 -62.244989 
L 168.587503 -62.244989 
L 168.587503 -62.244989 
L 166.274242 -62.244989 
L 163.960981 -62.244989 
L 161.647721 -62.244989 
L 159.33446 -80.27458 
L 157.021199 -80.27458 
L 154.707939 -80.27458 
L 152.394678 -80.27458 
L 150.081417 -80.27458 
L 147.768157 -80.27458 
L 145.454896 -80.27458 
L 143.141635 -80.27458 
L 140.828374 -80.27458 
L 138.515114 -62.244989 
L 136.201853 -62.244989 
L 133.888592 -62.244989 
L 131.575332 -62.244989 
L 129.262071 -62.244989 
L 126.94881 -62.244989 
L 124.63555 -62.244989 
L 122.322289 -62.244989 
L 120.009028 -62.244989 
L 117.695768 -80.27458 
L 115.382507 -80.27458 
L 113.069246 -80.27458 
L 110.755985 -80.27458 
L 108.442725 -62.244989 
L 106.129464 -62.244989 
L 103.816203 -62.244989 
L 101.502943 -62.244989 
L 99.189682 -80.27458 
L 96.876421 -80.27458 
L 94.563161 -80.27458 
L 92.2499 -80.27458 
L 89.936639 -80.27458 
L 87.623378 -80.27458 
L 85.310118 -80.27458 
L 82.996857 -80.27458 
L 80.683596 -80.27458 
L 78.370336 -62.244989 
L 76.057075 -62.244989 
L 73.743814 -62.244989 
L 71.430554 -62.244989 
L 69.117293 -62.244989 
L 66.804032 -62.244989 
L 64.490771 -62.244989 
L 62.177511 -62.244989 
L 59.86425 -62.244989 
L 57.550989 -62.244989 
L 55.237729 -80.27458 
z
" style="stroke: #ff7c00; stroke-opacity: 0.2"/>
    </defs>
    <g clip-path="url(#p14a655d2ee)">
     <use xlink:href="#m85ca97ab02" x="0" y="162" style="fill: #ff7c00; fill-opacity: 0.2; stroke: #ff7c00; stroke-opacity: 0.2"/>
    </g>
   </g>
   <g id="PolyCollection_3"/>
   <g id="PolyCollection_4"/>
   <g id="line2d_9">
    <path d="M 55.237729 63.69583 
L 57.550989 63.69583 
L 59.86425 63.69583 
L 62.177511 81.72542 
L 64.490771 81.72542 
L 66.804032 81.72542 
L 69.117293 81.72542 
L 71.430554 81.72542 
L 73.743814 81.72542 
L 76.057075 81.72542 
L 78.370336 81.72542 
L 80.683596 81.72542 
L 82.996857 81.72542 
L 85.310118 63.69583 
L 87.623378 63.69583 
L 89.936639 63.69583 
L 92.2499 63.69583 
L 94.563161 63.69583 
L 96.876421 63.69583 
L 99.189682 63.69583 
L 101.502943 63.69583 
L 103.816203 63.69583 
L 106.129464 63.69583 
L 108.442725 63.69583 
L 110.755985 63.69583 
L 113.069246 63.69583 
L 115.382507 63.69583 
L 117.695768 63.69583 
L 120.009028 63.69583 
L 122.322289 81.72542 
L 124.63555 81.72542 
L 126.94881 81.72542 
L 129.262071 81.72542 
L 131.575332 81.72542 
L 133.888592 81.72542 
L 136.201853 81.72542 
L 138.515114 81.72542 
L 140.828374 81.72542 
L 143.141635 81.72542 
L 145.454896 63.69583 
L 147.768157 63.69583 
L 150.081417 63.69583 
L 152.394678 63.69583 
L 154.707939 63.69583 
L 157.021199 63.69583 
L 159.33446 63.69583 
L 161.647721 63.69583 
L 163.960981 63.69583 
L 166.274242 63.69583 
L 168.587503 63.69583 
" clip-path="url(#p14a655d2ee)" style="fill: none; stroke: #023eff; stroke-width: 1.5; stroke-linecap: round"/>
   </g>
   <g id="line2d_10">
    <path d="M 55.237729 81.72542 
L 57.550989 99.755011 
L 59.86425 99.755011 
L 62.177511 99.755011 
L 64.490771 99.755011 
L 66.804032 99.755011 
L 69.117293 99.755011 
L 71.430554 99.755011 
L 73.743814 99.755011 
L 76.057075 99.755011 
L 78.370336 99.755011 
L 80.683596 81.72542 
L 82.996857 81.72542 
L 85.310118 81.72542 
L 87.623378 81.72542 
L 89.936639 81.72542 
L 92.2499 81.72542 
L 94.563161 81.72542 
L 96.876421 81.72542 
L 99.189682 81.72542 
L 101.502943 99.755011 
L 103.816203 99.755011 
L 106.129464 99.755011 
L 108.442725 99.755011 
L 110.755985 81.72542 
L 113.069246 81.72542 
L 115.382507 81.72542 
L 117.695768 81.72542 
L 120.009028 99.755011 
L 122.322289 99.755011 
L 124.63555 99.755011 
L 126.94881 99.755011 
L 129.262071 99.755011 
L 131.575332 99.755011 
L 133.888592 99.755011 
L 136.201853 99.755011 
L 138.515114 99.755011 
L 140.828374 81.72542 
L 143.141635 81.72542 
L 145.454896 81.72542 
L 147.768157 81.72542 
L 150.081417 81.72542 
L 152.394678 81.72542 
L 154.707939 81.72542 
L 157.021199 81.72542 
L 159.33446 81.72542 
L 161.647721 99.755011 
L 163.960981 99.755011 
L 166.274242 99.755011 
L 168.587503 99.755011 
" clip-path="url(#p14a655d2ee)" style="fill: none; stroke: #ff7c00; stroke-width: 1.5; stroke-linecap: round"/>
   </g>
   <g id="line2d_11"/>
   <g id="line2d_12"/>
   <g id="patch_3">
    <path d="M 49.57024 122.292 
L 49.57024 23.12925 
" style="fill: none; stroke: #ffffff; stroke-width: 1.25; stroke-linejoin: miter; stroke-linecap: square"/>
   </g>
   <g id="patch_4">
    <path d="M 49.57024 122.292 
L 174.254992 122.292 
" style="fill: none; stroke: #ffffff; stroke-width: 1.25; stroke-linejoin: miter; stroke-linecap: square"/>
   </g>
   <g id="text_11">
    <!-- Polar -->
    <g style="fill: #262626" transform="translate(100.707616 17.12925) scale(0.096 -0.096)">
     <defs>
      <path id="ArialMT-50" d="M 494 0 
L 494 4581 
L 2222 4581 
Q 2678 4581 2919 4538 
Q 3256 4481 3484 4323 
Q 3713 4166 3852 3881 
Q 3991 3597 3991 3256 
Q 3991 2672 3619 2267 
Q 3247 1863 2275 1863 
L 1100 1863 
L 1100 0 
L 494 0 
z
M 1100 2403 
L 2284 2403 
Q 2872 2403 3119 2622 
Q 3366 2841 3366 3238 
Q 3366 3525 3220 3729 
Q 3075 3934 2838 4000 
Q 2684 4041 2272 4041 
L 1100 4041 
L 1100 2403 
z
" transform="scale(0.015625)"/>
     </defs>
     <use xlink:href="#ArialMT-50"/>
     <use xlink:href="#ArialMT-6f" x="66.699219"/>
     <use xlink:href="#ArialMT-6c" x="122.314453"/>
     <use xlink:href="#ArialMT-61" x="144.53125"/>
     <use xlink:href="#ArialMT-72" x="200.146484"/>
    </g>
   </g>
  </g>
  <g id="axes_2">
   <g id="patch_5">
    <path d="M 184.166448 122.292 
L 308.8512 122.292 
L 308.8512 23.12925 
L 184.166448 23.12925 
z
" style="fill: #eaeaf2"/>
   </g>
   <g id="matplotlib.axis_3">
    <g id="xtick_4">
     <g id="line2d_13">
      <path d="M 187.520676 122.292 
L 187.520676 23.12925 
" clip-path="url(#pb3613d032d)" style="fill: none; stroke: #ffffff; stroke-linecap: round"/>
     </g>
     <g id="text_12">
      <!-- 0 -->
      <g style="fill: #262626" transform="translate(185.073864 138.090875) scale(0.088 -0.088)">
       <use xlink:href="#ArialMT-30"/>
      </g>
     </g>
    </g>
    <g id="xtick_5">
     <g id="line2d_14">
      <path d="M 233.78589 122.292 
L 233.78589 23.12925 
" clip-path="url(#pb3613d032d)" style="fill: none; stroke: #ffffff; stroke-linecap: round"/>
     </g>
     <g id="text_13">
      <!-- 20 -->
      <g style="fill: #262626" transform="translate(228.892265 138.090875) scale(0.088 -0.088)">
       <use xlink:href="#ArialMT-32"/>
       <use xlink:href="#ArialMT-30" x="55.615234"/>
      </g>
     </g>
    </g>
    <g id="xtick_6">
     <g id="line2d_15">
      <path d="M 280.051104 122.292 
L 280.051104 23.12925 
" clip-path="url(#pb3613d032d)" style="fill: none; stroke: #ffffff; stroke-linecap: round"/>
     </g>
     <g id="text_14">
      <!-- 40 -->
      <g style="fill: #262626" transform="translate(275.157479 138.090875) scale(0.088 -0.088)">
       <use xlink:href="#ArialMT-34"/>
       <use xlink:href="#ArialMT-30" x="55.615234"/>
      </g>
     </g>
    </g>
    <g id="text_15">
     <!-- Frame -->
     <g style="fill: #262626" transform="translate(232.642074 150.711375) scale(0.096 -0.096)">
      <use xlink:href="#ArialMT-46"/>
      <use xlink:href="#ArialMT-72" x="61.083984"/>
      <use xlink:href="#ArialMT-61" x="94.384766"/>
      <use xlink:href="#ArialMT-6d" x="150"/>
      <use xlink:href="#ArialMT-65" x="233.300781"/>
     </g>
    </g>
   </g>
   <g id="matplotlib.axis_4">
    <g id="ytick_6">
     <g id="line2d_16">
      <path d="M 184.166448 117.784602 
L 308.8512 117.784602 
" clip-path="url(#pb3613d032d)" style="fill: none; stroke: #ffffff; stroke-linecap: round"/>
     </g>
    </g>
    <g id="ytick_7">
     <g id="line2d_17">
      <path d="M 184.166448 95.247614 
L 308.8512 95.247614 
" clip-path="url(#pb3613d032d)" style="fill: none; stroke: #ffffff; stroke-linecap: round"/>
     </g>
    </g>
    <g id="ytick_8">
     <g id="line2d_18">
      <path d="M 184.166448 72.710625 
L 308.8512 72.710625 
" clip-path="url(#pb3613d032d)" style="fill: none; stroke: #ffffff; stroke-linecap: round"/>
     </g>
    </g>
    <g id="ytick_9">
     <g id="line2d_19">
      <path d="M 184.166448 50.173636 
L 308.8512 50.173636 
" clip-path="url(#pb3613d032d)" style="fill: none; stroke: #ffffff; stroke-linecap: round"/>
     </g>
    </g>
    <g id="ytick_10">
     <g id="line2d_20">
      <path d="M 184.166448 27.636648 
L 308.8512 27.636648 
" clip-path="url(#pb3613d032d)" style="fill: none; stroke: #ffffff; stroke-linecap: round"/>
     </g>
    </g>
   </g>
   <g id="PolyCollection_5">
    <defs>
     <path id="m9e9fbeaf92" d="M 189.833937 -44.215398 
L 189.833937 -44.215398 
L 192.147198 -44.215398 
L 194.460459 -44.215398 
L 196.773719 -44.215398 
L 199.08698 -44.215398 
L 201.400241 -44.215398 
L 203.713501 -44.215398 
L 206.026762 -59.54055 
L 208.340023 -59.54055 
L 210.653283 -92.895293 
L 212.966544 -98.30417 
L 215.279805 -98.30417 
L 217.593066 -98.30417 
L 219.906326 -98.30417 
L 222.219587 -128.954475 
L 224.532848 -134.363352 
L 226.846108 -134.363352 
L 229.159369 -44.215398 
L 231.47263 -44.215398 
L 233.78589 -44.215398 
L 236.099151 -44.215398 
L 238.412412 -44.215398 
L 240.725672 -44.215398 
L 243.038933 -44.215398 
L 245.352194 -44.215398 
L 247.665455 -44.215398 
L 249.978715 -44.215398 
L 252.291976 -44.215398 
L 254.605237 -44.215398 
L 256.918497 -44.215398 
L 259.231758 -44.215398 
L 261.545019 -44.215398 
L 263.858279 -44.215398 
L 266.17154 -59.54055 
L 268.484801 -59.54055 
L 270.798062 -92.895293 
L 273.111322 -98.30417 
L 275.424583 -98.30417 
L 277.737844 -98.30417 
L 280.051104 -98.30417 
L 282.364365 -128.954475 
L 284.677626 -134.363352 
L 286.990886 -134.363352 
L 289.304147 -44.215398 
L 291.617408 -44.215398 
L 293.930669 -44.215398 
L 296.243929 -44.215398 
L 298.55719 -44.215398 
L 300.870451 -44.215398 
L 303.183711 -44.215398 
L 303.183711 -44.215398 
L 303.183711 -44.215398 
L 300.870451 -44.215398 
L 298.55719 -44.215398 
L 296.243929 -44.215398 
L 293.930669 -44.215398 
L 291.617408 -57.737591 
L 289.304147 -57.737591 
L 286.990886 -134.363352 
L 284.677626 -134.363352 
L 282.364365 -134.363352 
L 280.051104 -98.30417 
L 277.737844 -98.30417 
L 275.424583 -98.30417 
L 273.111322 -98.30417 
L 270.798062 -98.30417 
L 268.484801 -62.244989 
L 266.17154 -62.244989 
L 263.858279 -44.215398 
L 261.545019 -44.215398 
L 259.231758 -44.215398 
L 256.918497 -44.215398 
L 254.605237 -44.215398 
L 252.291976 -44.215398 
L 249.978715 -44.215398 
L 247.665455 -44.215398 
L 245.352194 -44.215398 
L 243.038933 -44.215398 
L 240.725672 -44.215398 
L 238.412412 -44.215398 
L 236.099151 -44.215398 
L 233.78589 -44.215398 
L 231.47263 -57.737591 
L 229.159369 -57.737591 
L 226.846108 -134.363352 
L 224.532848 -134.363352 
L 222.219587 -134.363352 
L 219.906326 -98.30417 
L 217.593066 -98.30417 
L 215.279805 -98.30417 
L 212.966544 -98.30417 
L 210.653283 -98.30417 
L 208.340023 -62.244989 
L 206.026762 -62.244989 
L 203.713501 -44.215398 
L 201.400241 -44.215398 
L 199.08698 -44.215398 
L 196.773719 -44.215398 
L 194.460459 -44.215398 
L 192.147198 -44.215398 
L 189.833937 -44.215398 
z
" style="stroke: #023eff; stroke-opacity: 0.2"/>
    </defs>
    <g clip-path="url(#pb3613d032d)">
     <use xlink:href="#m9e9fbeaf92" x="0" y="162" style="fill: #023eff; fill-opacity: 0.2; stroke: #023eff; stroke-opacity: 0.2"/>
    </g>
   </g>
   <g id="PolyCollection_6">
    <defs>
     <path id="m9f43be78e5" d="M 189.833937 -44.215398 
L 189.833937 -44.215398 
L 192.147198 -44.215398 
L 194.460459 -44.215398 
L 196.773719 -44.215398 
L 199.08698 -44.215398 
L 201.400241 -44.215398 
L 203.713501 -44.215398 
L 206.026762 -44.215398 
L 208.340023 -44.215398 
L 210.653283 -90.190855 
L 212.966544 -90.190855 
L 215.279805 -113.629323 
L 217.593066 -113.629323 
L 219.906326 -116.333761 
L 222.219587 -116.333761 
L 224.532848 -116.333761 
L 226.846108 -116.333761 
L 229.159369 -44.215398 
L 231.47263 -44.215398 
L 233.78589 -44.215398 
L 236.099151 -44.215398 
L 238.412412 -44.215398 
L 240.725672 -44.215398 
L 243.038933 -44.215398 
L 245.352194 -44.215398 
L 247.665455 -44.215398 
L 249.978715 -44.215398 
L 252.291976 -44.215398 
L 254.605237 -44.215398 
L 256.918497 -44.215398 
L 259.231758 -44.215398 
L 261.545019 -44.215398 
L 263.858279 -44.215398 
L 266.17154 -44.215398 
L 268.484801 -44.215398 
L 270.798062 -90.190855 
L 273.111322 -90.190855 
L 275.424583 -113.629323 
L 277.737844 -113.629323 
L 280.051104 -116.333761 
L 282.364365 -116.333761 
L 284.677626 -116.333761 
L 286.990886 -116.333761 
L 289.304147 -44.215398 
L 291.617408 -44.215398 
L 293.930669 -44.215398 
L 296.243929 -44.215398 
L 298.55719 -44.215398 
L 300.870451 -44.215398 
L 303.183711 -44.215398 
L 303.183711 -44.215398 
L 303.183711 -44.215398 
L 300.870451 -44.215398 
L 298.55719 -44.215398 
L 296.243929 -44.215398 
L 293.930669 -44.215398 
L 291.617408 -55.033152 
L 289.304147 -55.033152 
L 286.990886 -116.333761 
L 284.677626 -116.333761 
L 282.364365 -116.333761 
L 280.051104 -116.333761 
L 277.737844 -116.333761 
L 275.424583 -116.333761 
L 273.111322 -98.30417 
L 270.798062 -98.30417 
L 268.484801 -44.215398 
L 266.17154 -44.215398 
L 263.858279 -44.215398 
L 261.545019 -44.215398 
L 259.231758 -44.215398 
L 256.918497 -44.215398 
L 254.605237 -44.215398 
L 252.291976 -44.215398 
L 249.978715 -44.215398 
L 247.665455 -44.215398 
L 245.352194 -44.215398 
L 243.038933 -44.215398 
L 240.725672 -44.215398 
L 238.412412 -44.215398 
L 236.099151 -44.215398 
L 233.78589 -44.215398 
L 231.47263 -55.033152 
L 229.159369 -55.033152 
L 226.846108 -116.333761 
L 224.532848 -116.333761 
L 222.219587 -116.333761 
L 219.906326 -116.333761 
L 217.593066 -116.333761 
L 215.279805 -116.333761 
L 212.966544 -98.30417 
L 210.653283 -98.30417 
L 208.340023 -44.215398 
L 206.026762 -44.215398 
L 203.713501 -44.215398 
L 201.400241 -44.215398 
L 199.08698 -44.215398 
L 196.773719 -44.215398 
L 194.460459 -44.215398 
L 192.147198 -44.215398 
L 189.833937 -44.215398 
z
" style="stroke: #ff7c00; stroke-opacity: 0.2"/>
    </defs>
    <g clip-path="url(#pb3613d032d)">
     <use xlink:href="#m9f43be78e5" x="0" y="162" style="fill: #ff7c00; fill-opacity: 0.2; stroke: #ff7c00; stroke-opacity: 0.2"/>
    </g>
   </g>
   <g id="PolyCollection_7">
    <defs>
     <path id="m04d562701f" d="M 189.833937 -116.333761 
L 189.833937 -116.333761 
L 192.147198 -116.333761 
L 194.460459 -116.333761 
L 196.773719 -116.333761 
L 199.08698 -116.333761 
L 201.400241 -116.333761 
L 203.713501 -116.333761 
L 206.026762 -116.333761 
L 208.340023 -116.333761 
L 210.653283 -116.333761 
L 212.966544 -116.333761 
L 215.279805 -116.333761 
L 217.593066 -116.333761 
L 219.906326 -116.333761 
L 222.219587 -116.333761 
L 224.532848 -116.333761 
L 226.846108 -116.333761 
L 229.159369 -134.363352 
L 231.47263 -134.363352 
L 233.78589 -116.333761 
L 236.099151 -116.333761 
L 238.412412 -116.333761 
L 240.725672 -116.333761 
L 243.038933 -116.333761 
L 245.352194 -116.333761 
L 247.665455 -116.333761 
L 249.978715 -116.333761 
L 252.291976 -116.333761 
L 254.605237 -116.333761 
L 256.918497 -116.333761 
L 259.231758 -116.333761 
L 261.545019 -116.333761 
L 263.858279 -116.333761 
L 266.17154 -116.333761 
L 268.484801 -116.333761 
L 270.798062 -116.333761 
L 273.111322 -116.333761 
L 275.424583 -116.333761 
L 277.737844 -116.333761 
L 280.051104 -116.333761 
L 282.364365 -116.333761 
L 284.677626 -116.333761 
L 286.990886 -116.333761 
L 289.304147 -134.363352 
L 291.617408 -134.363352 
L 293.930669 -116.333761 
L 296.243929 -116.333761 
L 298.55719 -116.333761 
L 300.870451 -116.333761 
L 303.183711 -116.333761 
L 303.183711 -116.333761 
L 303.183711 -116.333761 
L 300.870451 -116.333761 
L 298.55719 -116.333761 
L 296.243929 -116.333761 
L 293.930669 -116.333761 
L 291.617408 -134.363352 
L 289.304147 -134.363352 
L 286.990886 -116.333761 
L 284.677626 -116.333761 
L 282.364365 -116.333761 
L 280.051104 -116.333761 
L 277.737844 -116.333761 
L 275.424583 -116.333761 
L 273.111322 -116.333761 
L 270.798062 -116.333761 
L 268.484801 -116.333761 
L 266.17154 -116.333761 
L 263.858279 -116.333761 
L 261.545019 -116.333761 
L 259.231758 -116.333761 
L 256.918497 -116.333761 
L 254.605237 -116.333761 
L 252.291976 -116.333761 
L 249.978715 -116.333761 
L 247.665455 -116.333761 
L 245.352194 -116.333761 
L 243.038933 -116.333761 
L 240.725672 -116.333761 
L 238.412412 -116.333761 
L 236.099151 -116.333761 
L 233.78589 -116.333761 
L 231.47263 -134.363352 
L 229.159369 -134.363352 
L 226.846108 -116.333761 
L 224.532848 -116.333761 
L 222.219587 -116.333761 
L 219.906326 -116.333761 
L 217.593066 -116.333761 
L 215.279805 -116.333761 
L 212.966544 -116.333761 
L 210.653283 -116.333761 
L 208.340023 -116.333761 
L 206.026762 -116.333761 
L 203.713501 -116.333761 
L 201.400241 -116.333761 
L 199.08698 -116.333761 
L 196.773719 -116.333761 
L 194.460459 -116.333761 
L 192.147198 -116.333761 
L 189.833937 -116.333761 
z
" style="stroke: #1ac938; stroke-opacity: 0.2"/>
    </defs>
    <g clip-path="url(#pb3613d032d)">
     <use xlink:href="#m04d562701f" x="0" y="162" style="fill: #1ac938; fill-opacity: 0.2; stroke: #1ac938; stroke-opacity: 0.2"/>
    </g>
   </g>
   <g id="PolyCollection_8">
    <defs>
     <path id="m9d4c90b410" d="M 189.833937 -116.333761 
L 189.833937 -116.333761 
L 192.147198 -116.333761 
L 194.460459 -116.333761 
L 196.773719 -116.333761 
L 199.08698 -116.333761 
L 201.400241 -116.333761 
L 203.713501 -116.333761 
L 206.026762 -116.333761 
L 208.340023 -116.333761 
L 210.653283 -116.333761 
L 212.966544 -116.333761 
L 215.279805 -116.333761 
L 217.593066 -116.333761 
L 219.906326 -116.333761 
L 222.219587 -116.333761 
L 224.532848 -116.333761 
L 226.846108 -116.333761 
L 229.159369 -116.333761 
L 231.47263 -116.333761 
L 233.78589 -98.30417 
L 236.099151 -98.30417 
L 238.412412 -98.30417 
L 240.725672 -98.30417 
L 243.038933 -98.30417 
L 245.352194 -116.333761 
L 247.665455 -116.333761 
L 249.978715 -116.333761 
L 252.291976 -116.333761 
L 254.605237 -116.333761 
L 256.918497 -116.333761 
L 259.231758 -116.333761 
L 261.545019 -116.333761 
L 263.858279 -116.333761 
L 266.17154 -116.333761 
L 268.484801 -116.333761 
L 270.798062 -116.333761 
L 273.111322 -116.333761 
L 275.424583 -116.333761 
L 277.737844 -116.333761 
L 280.051104 -116.333761 
L 282.364365 -116.333761 
L 284.677626 -116.333761 
L 286.990886 -116.333761 
L 289.304147 -116.333761 
L 291.617408 -116.333761 
L 293.930669 -98.30417 
L 296.243929 -98.30417 
L 298.55719 -98.30417 
L 300.870451 -98.30417 
L 303.183711 -98.30417 
L 303.183711 -98.30417 
L 303.183711 -98.30417 
L 300.870451 -98.30417 
L 298.55719 -98.30417 
L 296.243929 -98.30417 
L 293.930669 -98.30417 
L 291.617408 -116.333761 
L 289.304147 -116.333761 
L 286.990886 -116.333761 
L 284.677626 -116.333761 
L 282.364365 -116.333761 
L 280.051104 -116.333761 
L 277.737844 -116.333761 
L 275.424583 -116.333761 
L 273.111322 -116.333761 
L 270.798062 -116.333761 
L 268.484801 -116.333761 
L 266.17154 -116.333761 
L 263.858279 -116.333761 
L 261.545019 -116.333761 
L 259.231758 -116.333761 
L 256.918497 -116.333761 
L 254.605237 -116.333761 
L 252.291976 -116.333761 
L 249.978715 -116.333761 
L 247.665455 -116.333761 
L 245.352194 -116.333761 
L 243.038933 -98.30417 
L 240.725672 -98.30417 
L 238.412412 -98.30417 
L 236.099151 -98.30417 
L 233.78589 -98.30417 
L 231.47263 -116.333761 
L 229.159369 -116.333761 
L 226.846108 -116.333761 
L 224.532848 -116.333761 
L 222.219587 -116.333761 
L 219.906326 -116.333761 
L 217.593066 -116.333761 
L 215.279805 -116.333761 
L 212.966544 -116.333761 
L 210.653283 -116.333761 
L 208.340023 -116.333761 
L 206.026762 -116.333761 
L 203.713501 -116.333761 
L 201.400241 -116.333761 
L 199.08698 -116.333761 
L 196.773719 -116.333761 
L 194.460459 -116.333761 
L 192.147198 -116.333761 
L 189.833937 -116.333761 
z
" style="stroke: #e8000b; stroke-opacity: 0.2"/>
    </defs>
    <g clip-path="url(#pb3613d032d)">
     <use xlink:href="#m9d4c90b410" x="0" y="162" style="fill: #e8000b; fill-opacity: 0.2; stroke: #e8000b; stroke-opacity: 0.2"/>
    </g>
   </g>
   <g id="line2d_21">
    <path d="M 189.833937 117.784602 
L 192.147198 117.784602 
L 194.460459 117.784602 
L 196.773719 117.784602 
L 199.08698 117.784602 
L 201.400241 117.784602 
L 203.713501 117.784602 
L 206.026762 100.656491 
L 208.340023 100.656491 
L 210.653283 65.498789 
L 212.966544 63.69583 
L 215.279805 63.69583 
L 217.593066 63.69583 
L 219.906326 63.69583 
L 222.219587 29.439607 
L 224.532848 27.636648 
L 226.846108 27.636648 
L 229.159369 113.277205 
L 231.47263 113.277205 
L 233.78589 117.784602 
L 236.099151 117.784602 
L 238.412412 117.784602 
L 240.725672 117.784602 
L 243.038933 117.784602 
L 245.352194 117.784602 
L 247.665455 117.784602 
L 249.978715 117.784602 
L 252.291976 117.784602 
L 254.605237 117.784602 
L 256.918497 117.784602 
L 259.231758 117.784602 
L 261.545019 117.784602 
L 263.858279 117.784602 
L 266.17154 100.656491 
L 268.484801 100.656491 
L 270.798062 65.498789 
L 273.111322 63.69583 
L 275.424583 63.69583 
L 277.737844 63.69583 
L 280.051104 63.69583 
L 282.364365 29.439607 
L 284.677626 27.636648 
L 286.990886 27.636648 
L 289.304147 113.277205 
L 291.617408 113.277205 
L 293.930669 117.784602 
L 296.243929 117.784602 
L 298.55719 117.784602 
L 300.870451 117.784602 
L 303.183711 117.784602 
" clip-path="url(#pb3613d032d)" style="fill: none; stroke: #023eff; stroke-width: 1.5; stroke-linecap: round"/>
   </g>
   <g id="line2d_22">
    <path d="M 189.833937 117.784602 
L 192.147198 117.784602 
L 194.460459 117.784602 
L 196.773719 117.784602 
L 199.08698 117.784602 
L 201.400241 117.784602 
L 203.713501 117.784602 
L 206.026762 117.784602 
L 208.340023 117.784602 
L 210.653283 66.400268 
L 212.966544 66.400268 
L 215.279805 46.567718 
L 217.593066 46.567718 
L 219.906326 45.666239 
L 222.219587 45.666239 
L 224.532848 45.666239 
L 226.846108 45.666239 
L 229.159369 114.178684 
L 231.47263 114.178684 
L 233.78589 117.784602 
L 236.099151 117.784602 
L 238.412412 117.784602 
L 240.725672 117.784602 
L 243.038933 117.784602 
L 245.352194 117.784602 
L 247.665455 117.784602 
L 249.978715 117.784602 
L 252.291976 117.784602 
L 254.605237 117.784602 
L 256.918497 117.784602 
L 259.231758 117.784602 
L 261.545019 117.784602 
L 263.858279 117.784602 
L 266.17154 117.784602 
L 268.484801 117.784602 
L 270.798062 66.400268 
L 273.111322 66.400268 
L 275.424583 46.567718 
L 277.737844 46.567718 
L 280.051104 45.666239 
L 282.364365 45.666239 
L 284.677626 45.666239 
L 286.990886 45.666239 
L 289.304147 114.178684 
L 291.617408 114.178684 
L 293.930669 117.784602 
L 296.243929 117.784602 
L 298.55719 117.784602 
L 300.870451 117.784602 
L 303.183711 117.784602 
" clip-path="url(#pb3613d032d)" style="fill: none; stroke: #ff7c00; stroke-width: 1.5; stroke-linecap: round"/>
   </g>
   <g id="line2d_23">
    <path d="M 189.833937 45.666239 
L 192.147198 45.666239 
L 194.460459 45.666239 
L 196.773719 45.666239 
L 199.08698 45.666239 
L 201.400241 45.666239 
L 203.713501 45.666239 
L 206.026762 45.666239 
L 208.340023 45.666239 
L 210.653283 45.666239 
L 212.966544 45.666239 
L 215.279805 45.666239 
L 217.593066 45.666239 
L 219.906326 45.666239 
L 222.219587 45.666239 
L 224.532848 45.666239 
L 226.846108 45.666239 
L 229.159369 27.636648 
L 231.47263 27.636648 
L 233.78589 45.666239 
L 236.099151 45.666239 
L 238.412412 45.666239 
L 240.725672 45.666239 
L 243.038933 45.666239 
L 245.352194 45.666239 
L 247.665455 45.666239 
L 249.978715 45.666239 
L 252.291976 45.666239 
L 254.605237 45.666239 
L 256.918497 45.666239 
L 259.231758 45.666239 
L 261.545019 45.666239 
L 263.858279 45.666239 
L 266.17154 45.666239 
L 268.484801 45.666239 
L 270.798062 45.666239 
L 273.111322 45.666239 
L 275.424583 45.666239 
L 277.737844 45.666239 
L 280.051104 45.666239 
L 282.364365 45.666239 
L 284.677626 45.666239 
L 286.990886 45.666239 
L 289.304147 27.636648 
L 291.617408 27.636648 
L 293.930669 45.666239 
L 296.243929 45.666239 
L 298.55719 45.666239 
L 300.870451 45.666239 
L 303.183711 45.666239 
" clip-path="url(#pb3613d032d)" style="fill: none; stroke: #1ac938; stroke-width: 1.5; stroke-linecap: round"/>
   </g>
   <g id="line2d_24">
    <path d="M 189.833937 45.666239 
L 192.147198 45.666239 
L 194.460459 45.666239 
L 196.773719 45.666239 
L 199.08698 45.666239 
L 201.400241 45.666239 
L 203.713501 45.666239 
L 206.026762 45.666239 
L 208.340023 45.666239 
L 210.653283 45.666239 
L 212.966544 45.666239 
L 215.279805 45.666239 
L 217.593066 45.666239 
L 219.906326 45.666239 
L 222.219587 45.666239 
L 224.532848 45.666239 
L 226.846108 45.666239 
L 229.159369 45.666239 
L 231.47263 45.666239 
L 233.78589 63.69583 
L 236.099151 63.69583 
L 238.412412 63.69583 
L 240.725672 63.69583 
L 243.038933 63.69583 
L 245.352194 45.666239 
L 247.665455 45.666239 
L 249.978715 45.666239 
L 252.291976 45.666239 
L 254.605237 45.666239 
L 256.918497 45.666239 
L 259.231758 45.666239 
L 261.545019 45.666239 
L 263.858279 45.666239 
L 266.17154 45.666239 
L 268.484801 45.666239 
L 270.798062 45.666239 
L 273.111322 45.666239 
L 275.424583 45.666239 
L 277.737844 45.666239 
L 280.051104 45.666239 
L 282.364365 45.666239 
L 284.677626 45.666239 
L 286.990886 45.666239 
L 289.304147 45.666239 
L 291.617408 45.666239 
L 293.930669 63.69583 
L 296.243929 63.69583 
L 298.55719 63.69583 
L 300.870451 63.69583 
L 303.183711 63.69583 
" clip-path="url(#pb3613d032d)" style="fill: none; stroke: #e8000b; stroke-width: 1.5; stroke-linecap: round"/>
   </g>
   <g id="patch_6">
    <path d="M 184.166448 122.292 
L 184.166448 23.12925 
" style="fill: none; stroke: #ffffff; stroke-width: 1.25; stroke-linejoin: miter; stroke-linecap: square"/>
   </g>
   <g id="patch_7">
    <path d="M 184.166448 122.292 
L 308.8512 122.292 
" style="fill: none; stroke: #ffffff; stroke-width: 1.25; stroke-linejoin: miter; stroke-linecap: square"/>
   </g>
   <g id="text_16">
    <!-- Equatorial -->
    <g style="fill: #262626" transform="translate(224.896074 17.12925) scale(0.096 -0.096)">
     <defs>
      <path id="ArialMT-45" d="M 506 0 
L 506 4581 
L 3819 4581 
L 3819 4041 
L 1113 4041 
L 1113 2638 
L 3647 2638 
L 3647 2100 
L 1113 2100 
L 1113 541 
L 3925 541 
L 3925 0 
L 506 0 
z
" transform="scale(0.015625)"/>
      <path id="ArialMT-71" d="M 2538 -1272 
L 2538 353 
Q 2406 169 2170 47 
Q 1934 -75 1669 -75 
Q 1078 -75 651 397 
Q 225 869 225 1691 
Q 225 2191 398 2587 
Q 572 2984 901 3189 
Q 1231 3394 1625 3394 
Q 2241 3394 2594 2875 
L 2594 3319 
L 3100 3319 
L 3100 -1272 
L 2538 -1272 
z
M 803 1669 
Q 803 1028 1072 708 
Q 1341 388 1716 388 
Q 2075 388 2334 692 
Q 2594 997 2594 1619 
Q 2594 2281 2320 2615 
Q 2047 2950 1678 2950 
Q 1313 2950 1058 2639 
Q 803 2328 803 1669 
z
" transform="scale(0.015625)"/>
      <path id="ArialMT-74" d="M 1650 503 
L 1731 6 
Q 1494 -44 1306 -44 
Q 1000 -44 831 53 
Q 663 150 594 308 
Q 525 466 525 972 
L 525 2881 
L 113 2881 
L 113 3319 
L 525 3319 
L 525 4141 
L 1084 4478 
L 1084 3319 
L 1650 3319 
L 1650 2881 
L 1084 2881 
L 1084 941 
Q 1084 700 1114 631 
Q 1144 563 1211 522 
Q 1278 481 1403 481 
Q 1497 481 1650 503 
z
" transform="scale(0.015625)"/>
     </defs>
     <use xlink:href="#ArialMT-45"/>
     <use xlink:href="#ArialMT-71" x="66.699219"/>
     <use xlink:href="#ArialMT-75" x="122.314453"/>
     <use xlink:href="#ArialMT-61" x="177.929688"/>
     <use xlink:href="#ArialMT-74" x="233.544922"/>
     <use xlink:href="#ArialMT-6f" x="261.328125"/>
     <use xlink:href="#ArialMT-72" x="316.943359"/>
     <use xlink:href="#ArialMT-69" x="350.244141"/>
     <use xlink:href="#ArialMT-61" x="372.460938"/>
     <use xlink:href="#ArialMT-6c" x="428.076172"/>
    </g>
   </g>
  </g>
  <g id="legend_1">
   <g id="text_17">
    <!-- Direction -->
    <g style="fill: #262626" transform="translate(328.04325 58.586) scale(0.096 -0.096)">
     <defs>
      <path id="ArialMT-44" d="M 494 0 
L 494 4581 
L 2072 4581 
Q 2606 4581 2888 4516 
Q 3281 4425 3559 4188 
Q 3922 3881 4101 3404 
Q 4281 2928 4281 2316 
Q 4281 1794 4159 1391 
Q 4038 988 3847 723 
Q 3656 459 3429 307 
Q 3203 156 2883 78 
Q 2563 0 2147 0 
L 494 0 
z
M 1100 541 
L 2078 541 
Q 2531 541 2789 625 
Q 3047 709 3200 863 
Q 3416 1078 3536 1442 
Q 3656 1806 3656 2325 
Q 3656 3044 3420 3430 
Q 3184 3816 2847 3947 
Q 2603 4041 2063 4041 
L 1100 4041 
L 1100 541 
z
" transform="scale(0.015625)"/>
      <path id="ArialMT-6e" d="M 422 0 
L 422 3319 
L 928 3319 
L 928 2847 
Q 1294 3394 1984 3394 
Q 2284 3394 2536 3286 
Q 2788 3178 2913 3003 
Q 3038 2828 3088 2588 
Q 3119 2431 3119 2041 
L 3119 0 
L 2556 0 
L 2556 2019 
Q 2556 2363 2490 2533 
Q 2425 2703 2258 2804 
Q 2091 2906 1866 2906 
Q 1506 2906 1245 2678 
Q 984 2450 984 1813 
L 984 0 
L 422 0 
z
" transform="scale(0.015625)"/>
     </defs>
     <use xlink:href="#ArialMT-44"/>
     <use xlink:href="#ArialMT-69" x="72.216797"/>
     <use xlink:href="#ArialMT-72" x="94.433594"/>
     <use xlink:href="#ArialMT-65" x="127.734375"/>
     <use xlink:href="#ArialMT-63" x="183.349609"/>
     <use xlink:href="#ArialMT-74" x="233.349609"/>
     <use xlink:href="#ArialMT-69" x="261.132812"/>
     <use xlink:href="#ArialMT-6f" x="283.349609"/>
     <use xlink:href="#ArialMT-6e" x="338.964844"/>
    </g>
   </g>
   <g id="line2d_25">
    <path d="M 323.1645 68.112875 
L 331.9645 68.112875 
L 340.7645 68.112875 
" style="fill: none; stroke: #023eff; stroke-width: 1.5; stroke-linecap: round"/>
   </g>
   <g id="text_18">
    <!-- East -->
    <g style="fill: #262626" transform="translate(347.8045 71.192875) scale(0.088 -0.088)">
     <use xlink:href="#ArialMT-45"/>
     <use xlink:href="#ArialMT-61" x="66.699219"/>
     <use xlink:href="#ArialMT-73" x="122.314453"/>
     <use xlink:href="#ArialMT-74" x="172.314453"/>
    </g>
   </g>
   <g id="line2d_26">
    <path d="M 323.1645 80.56075 
L 331.9645 80.56075 
L 340.7645 80.56075 
" style="fill: none; stroke: #ff7c00; stroke-width: 1.5; stroke-linecap: round"/>
   </g>
   <g id="text_19">
    <!-- West -->
    <g style="fill: #262626" transform="translate(347.8045 83.64075) scale(0.088 -0.088)">
     <defs>
      <path id="ArialMT-57" d="M 1294 0 
L 78 4581 
L 700 4581 
L 1397 1578 
Q 1509 1106 1591 641 
Q 1766 1375 1797 1488 
L 2669 4581 
L 3400 4581 
L 4056 2263 
Q 4303 1400 4413 641 
Q 4500 1075 4641 1638 
L 5359 4581 
L 5969 4581 
L 4713 0 
L 4128 0 
L 3163 3491 
Q 3041 3928 3019 4028 
Q 2947 3713 2884 3491 
L 1913 0 
L 1294 0 
z
" transform="scale(0.015625)"/>
     </defs>
     <use xlink:href="#ArialMT-57"/>
     <use xlink:href="#ArialMT-65" x="92.634766"/>
     <use xlink:href="#ArialMT-73" x="148.25"/>
     <use xlink:href="#ArialMT-74" x="198.25"/>
    </g>
   </g>
   <g id="line2d_27">
    <path d="M 323.1645 93.008625 
L 331.9645 93.008625 
L 340.7645 93.008625 
" style="fill: none; stroke: #1ac938; stroke-width: 1.5; stroke-linecap: round"/>
   </g>
   <g id="text_20">
    <!-- North -->
    <g style="fill: #262626" transform="translate(347.8045 96.088625) scale(0.088 -0.088)">
     <defs>
      <path id="ArialMT-4e" d="M 488 0 
L 488 4581 
L 1109 4581 
L 3516 984 
L 3516 4581 
L 4097 4581 
L 4097 0 
L 3475 0 
L 1069 3600 
L 1069 0 
L 488 0 
z
" transform="scale(0.015625)"/>
      <path id="ArialMT-68" d="M 422 0 
L 422 4581 
L 984 4581 
L 984 2938 
Q 1378 3394 1978 3394 
Q 2347 3394 2619 3248 
Q 2891 3103 3008 2847 
Q 3125 2591 3125 2103 
L 3125 0 
L 2563 0 
L 2563 2103 
Q 2563 2525 2380 2717 
Q 2197 2909 1863 2909 
Q 1613 2909 1392 2779 
Q 1172 2650 1078 2428 
Q 984 2206 984 1816 
L 984 0 
L 422 0 
z
" transform="scale(0.015625)"/>
     </defs>
     <use xlink:href="#ArialMT-4e"/>
     <use xlink:href="#ArialMT-6f" x="72.216797"/>
     <use xlink:href="#ArialMT-72" x="127.832031"/>
     <use xlink:href="#ArialMT-74" x="161.132812"/>
     <use xlink:href="#ArialMT-68" x="188.916016"/>
    </g>
   </g>
   <g id="line2d_28">
    <path d="M 323.1645 105.4565 
L 331.9645 105.4565 
L 340.7645 105.4565 
" style="fill: none; stroke: #e8000b; stroke-width: 1.5; stroke-linecap: round"/>
   </g>
   <g id="text_21">
    <!-- South -->
    <g style="fill: #262626" transform="translate(347.8045 108.5365) scale(0.088 -0.088)">
     <defs>
      <path id="ArialMT-53" d="M 288 1472 
L 859 1522 
Q 900 1178 1048 958 
Q 1197 738 1509 602 
Q 1822 466 2213 466 
Q 2559 466 2825 569 
Q 3091 672 3220 851 
Q 3350 1031 3350 1244 
Q 3350 1459 3225 1620 
Q 3100 1781 2813 1891 
Q 2628 1963 1997 2114 
Q 1366 2266 1113 2400 
Q 784 2572 623 2826 
Q 463 3081 463 3397 
Q 463 3744 659 4045 
Q 856 4347 1234 4503 
Q 1613 4659 2075 4659 
Q 2584 4659 2973 4495 
Q 3363 4331 3572 4012 
Q 3781 3694 3797 3291 
L 3216 3247 
Q 3169 3681 2898 3903 
Q 2628 4125 2100 4125 
Q 1550 4125 1298 3923 
Q 1047 3722 1047 3438 
Q 1047 3191 1225 3031 
Q 1400 2872 2139 2705 
Q 2878 2538 3153 2413 
Q 3553 2228 3743 1945 
Q 3934 1663 3934 1294 
Q 3934 928 3725 604 
Q 3516 281 3123 101 
Q 2731 -78 2241 -78 
Q 1619 -78 1198 103 
Q 778 284 539 648 
Q 300 1013 288 1472 
z
" transform="scale(0.015625)"/>
     </defs>
     <use xlink:href="#ArialMT-53"/>
     <use xlink:href="#ArialMT-6f" x="66.699219"/>
     <use xlink:href="#ArialMT-75" x="122.314453"/>
     <use xlink:href="#ArialMT-74" x="177.929688"/>
     <use xlink:href="#ArialMT-68" x="205.712891"/>
    </g>
   </g>
  </g>
 </g>
 <defs>
  <clipPath id="p14a655d2ee">
   <rect x="49.57024" y="23.12925" width="124.684752" height="99.16275"/>
  </clipPath>
  <clipPath id="pb3613d032d">
   <rect x="184.166448" y="23.12925" width="124.684752" height="99.16275"/>
  </clipPath>
 </defs>
</svg>
