<?xml version="1.0" encoding="utf-8" standalone="no"?>
<!DOCTYPE svg PUBLIC "-//W3C//DTD SVG 1.1//EN"
  "http://www.w3.org/Graphics/SVG/1.1/DTD/svg11.dtd">
<svg xmlns:xlink="http://www.w3.org/1999/xlink" width="378.72pt" height="162pt" viewBox="0 0 378.72 162" xmlns="http://www.w3.org/2000/svg" version="1.1">
 <metadata>
  <rdf:RDF xmlns:dc="http://purl.org/dc/elements/1.1/" xmlns:cc="http://creativecommons.org/ns#" xmlns:rdf="http://www.w3.org/1999/02/22-rdf-syntax-ns#">
   <cc:Work>
    <dc:type rdf:resource="http://purl.org/dc/dcmitype/StillImage"/>
    <dc:date>2024-08-23T23:33:39.916659</dc:date>
    <dc:format>image/svg+xml</dc:format>
    <dc:creator>
     <cc:Agent>
      <dc:title>Matplotlib v3.9.0, https://matplotlib.org/</dc:title>
     </cc:Agent>
    </dc:creator>
   </cc:Work>
  </rdf:RDF>
 </metadata>
 <defs>
  <style type="text/css">*{stroke-linejoin: round; stroke-linecap: butt}</style>
 </defs>
 <g id="figure_1">
  <g id="patch_1">
   <path d="M 0 162 
L 378.72 162 
L 378.72 0 
L 0 0 
z
" style="fill: #ffffff"/>
  </g>
  <g id="axes_1">
   <g id="patch_2">
    <path d="M 49.57024 122.292 
L 174.254992 122.292 
L 174.254992 22.848 
L 49.57024 22.848 
z
" style="fill: #eaeaf2"/>
   </g>
   <g id="matplotlib.axis_1">
    <g id="xtick_1">
     <g id="line2d_1">
      <path d="M 52.924468 122.292 
L 52.924468 22.848 
" clip-path="url(#p6907853319)" style="fill: none; stroke: #ffffff; stroke-linecap: round"/>
     </g>
     <g id="text_1">
      <!-- 0 -->
      <g style="fill: #262626" transform="translate(50.477656 138.090875) scale(0.088 -0.088)">
       <defs>
        <path id="ArialMT-30" d="M 266 2259 
Q 266 3072 433 3567 
Q 600 4063 929 4331 
Q 1259 4600 1759 4600 
Q 2128 4600 2406 4451 
Q 2684 4303 2865 4023 
Q 3047 3744 3150 3342 
Q 3253 2941 3253 2259 
Q 3253 1453 3087 958 
Q 2922 463 2592 192 
Q 2263 -78 1759 -78 
Q 1097 -78 719 397 
Q 266 969 266 2259 
z
M 844 2259 
Q 844 1131 1108 757 
Q 1372 384 1759 384 
Q 2147 384 2411 759 
Q 2675 1134 2675 2259 
Q 2675 3391 2411 3762 
Q 2147 4134 1753 4134 
Q 1366 4134 1134 3806 
Q 844 3388 844 2259 
z
" transform="scale(0.015625)"/>
       </defs>
       <use xlink:href="#ArialMT-30"/>
      </g>
     </g>
    </g>
    <g id="xtick_2">
     <g id="line2d_2">
      <path d="M 99.189682 122.292 
L 99.189682 22.848 
" clip-path="url(#p6907853319)" style="fill: none; stroke: #ffffff; stroke-linecap: round"/>
     </g>
     <g id="text_2">
      <!-- 20 -->
      <g style="fill: #262626" transform="translate(94.296057 138.090875) scale(0.088 -0.088)">
       <defs>
        <path id="ArialMT-32" d="M 3222 541 
L 3222 0 
L 194 0 
Q 188 203 259 391 
Q 375 700 629 1000 
Q 884 1300 1366 1694 
Q 2113 2306 2375 2664 
Q 2638 3022 2638 3341 
Q 2638 3675 2398 3904 
Q 2159 4134 1775 4134 
Q 1369 4134 1125 3890 
Q 881 3647 878 3216 
L 300 3275 
Q 359 3922 746 4261 
Q 1134 4600 1788 4600 
Q 2447 4600 2831 4234 
Q 3216 3869 3216 3328 
Q 3216 3053 3103 2787 
Q 2991 2522 2730 2228 
Q 2469 1934 1863 1422 
Q 1356 997 1212 845 
Q 1069 694 975 541 
L 3222 541 
z
" transform="scale(0.015625)"/>
       </defs>
       <use xlink:href="#ArialMT-32"/>
       <use xlink:href="#ArialMT-30" x="55.615234"/>
      </g>
     </g>
    </g>
    <g id="xtick_3">
     <g id="line2d_3">
      <path d="M 145.454896 122.292 
L 145.454896 22.848 
" clip-path="url(#p6907853319)" style="fill: none; stroke: #ffffff; stroke-linecap: round"/>
     </g>
     <g id="text_3">
      <!-- 40 -->
      <g style="fill: #262626" transform="translate(140.561271 138.090875) scale(0.088 -0.088)">
       <defs>
        <path id="ArialMT-34" d="M 2069 0 
L 2069 1097 
L 81 1097 
L 81 1613 
L 2172 4581 
L 2631 4581 
L 2631 1613 
L 3250 1613 
L 3250 1097 
L 2631 1097 
L 2631 0 
L 2069 0 
z
M 2069 1613 
L 2069 3678 
L 634 1613 
L 2069 1613 
z
" transform="scale(0.015625)"/>
       </defs>
       <use xlink:href="#ArialMT-34"/>
       <use xlink:href="#ArialMT-30" x="55.615234"/>
      </g>
     </g>
    </g>
    <g id="text_4">
     <!-- Frame -->
     <g style="fill: #262626" transform="translate(98.045866 150.711375) scale(0.096 -0.096)">
      <defs>
       <path id="ArialMT-46" d="M 525 0 
L 525 4581 
L 3616 4581 
L 3616 4041 
L 1131 4041 
L 1131 2622 
L 3281 2622 
L 3281 2081 
L 1131 2081 
L 1131 0 
L 525 0 
z
" transform="scale(0.015625)"/>
       <path id="ArialMT-72" d="M 416 0 
L 416 3319 
L 922 3319 
L 922 2816 
Q 1116 3169 1280 3281 
Q 1444 3394 1641 3394 
Q 1925 3394 2219 3213 
L 2025 2691 
Q 1819 2813 1613 2813 
Q 1428 2813 1281 2702 
Q 1134 2591 1072 2394 
Q 978 2094 978 1738 
L 978 0 
L 416 0 
z
" transform="scale(0.015625)"/>
       <path id="ArialMT-61" d="M 2588 409 
Q 2275 144 1986 34 
Q 1697 -75 1366 -75 
Q 819 -75 525 192 
Q 231 459 231 875 
Q 231 1119 342 1320 
Q 453 1522 633 1644 
Q 813 1766 1038 1828 
Q 1203 1872 1538 1913 
Q 2219 1994 2541 2106 
Q 2544 2222 2544 2253 
Q 2544 2597 2384 2738 
Q 2169 2928 1744 2928 
Q 1347 2928 1158 2789 
Q 969 2650 878 2297 
L 328 2372 
Q 403 2725 575 2942 
Q 747 3159 1072 3276 
Q 1397 3394 1825 3394 
Q 2250 3394 2515 3294 
Q 2781 3194 2906 3042 
Q 3031 2891 3081 2659 
Q 3109 2516 3109 2141 
L 3109 1391 
Q 3109 606 3145 398 
Q 3181 191 3288 0 
L 2700 0 
Q 2613 175 2588 409 
z
M 2541 1666 
Q 2234 1541 1622 1453 
Q 1275 1403 1131 1340 
Q 988 1278 909 1158 
Q 831 1038 831 891 
Q 831 666 1001 516 
Q 1172 366 1500 366 
Q 1825 366 2078 508 
Q 2331 650 2450 897 
Q 2541 1088 2541 1459 
L 2541 1666 
z
" transform="scale(0.015625)"/>
       <path id="ArialMT-6d" d="M 422 0 
L 422 3319 
L 925 3319 
L 925 2853 
Q 1081 3097 1340 3245 
Q 1600 3394 1931 3394 
Q 2300 3394 2536 3241 
Q 2772 3088 2869 2813 
Q 3263 3394 3894 3394 
Q 4388 3394 4653 3120 
Q 4919 2847 4919 2278 
L 4919 0 
L 4359 0 
L 4359 2091 
Q 4359 2428 4304 2576 
Q 4250 2725 4106 2815 
Q 3963 2906 3769 2906 
Q 3419 2906 3187 2673 
Q 2956 2441 2956 1928 
L 2956 0 
L 2394 0 
L 2394 2156 
Q 2394 2531 2256 2718 
Q 2119 2906 1806 2906 
Q 1569 2906 1367 2781 
Q 1166 2656 1075 2415 
Q 984 2175 984 1722 
L 984 0 
L 422 0 
z
" transform="scale(0.015625)"/>
       <path id="ArialMT-65" d="M 2694 1069 
L 3275 997 
Q 3138 488 2766 206 
Q 2394 -75 1816 -75 
Q 1088 -75 661 373 
Q 234 822 234 1631 
Q 234 2469 665 2931 
Q 1097 3394 1784 3394 
Q 2450 3394 2872 2941 
Q 3294 2488 3294 1666 
Q 3294 1616 3291 1516 
L 816 1516 
Q 847 969 1125 678 
Q 1403 388 1819 388 
Q 2128 388 2347 550 
Q 2566 713 2694 1069 
z
M 847 1978 
L 2700 1978 
Q 2663 2397 2488 2606 
Q 2219 2931 1791 2931 
Q 1403 2931 1139 2672 
Q 875 2413 847 1978 
z
" transform="scale(0.015625)"/>
      </defs>
      <use xlink:href="#ArialMT-46"/>
      <use xlink:href="#ArialMT-72" x="61.083984"/>
      <use xlink:href="#ArialMT-61" x="94.384766"/>
      <use xlink:href="#ArialMT-6d" x="150"/>
      <use xlink:href="#ArialMT-65" x="233.300781"/>
     </g>
    </g>
   </g>
   <g id="matplotlib.axis_2">
    <g id="ytick_1">
     <g id="line2d_4">
      <path d="M 49.57024 114.027323 
L 174.254992 114.027323 
" clip-path="url(#p6907853319)" style="fill: none; stroke: #ffffff; stroke-linecap: round"/>
     </g>
     <g id="text_5">
      <!-- 20 -->
      <g style="fill: #262626" transform="translate(30.28299 117.17676) scale(0.088 -0.088)">
       <use xlink:href="#ArialMT-32"/>
       <use xlink:href="#ArialMT-30" x="55.615234"/>
      </g>
     </g>
    </g>
    <g id="ytick_2">
     <g id="line2d_5">
      <path d="M 49.57024 81.293911 
L 174.254992 81.293911 
" clip-path="url(#p6907853319)" style="fill: none; stroke: #ffffff; stroke-linecap: round"/>
     </g>
     <g id="text_6">
      <!-- 30 -->
      <g style="fill: #262626" transform="translate(30.28299 84.443349) scale(0.088 -0.088)">
       <defs>
        <path id="ArialMT-33" d="M 269 1209 
L 831 1284 
Q 928 806 1161 595 
Q 1394 384 1728 384 
Q 2125 384 2398 659 
Q 2672 934 2672 1341 
Q 2672 1728 2419 1979 
Q 2166 2231 1775 2231 
Q 1616 2231 1378 2169 
L 1441 2663 
Q 1497 2656 1531 2656 
Q 1891 2656 2178 2843 
Q 2466 3031 2466 3422 
Q 2466 3731 2256 3934 
Q 2047 4138 1716 4138 
Q 1388 4138 1169 3931 
Q 950 3725 888 3313 
L 325 3413 
Q 428 3978 793 4289 
Q 1159 4600 1703 4600 
Q 2078 4600 2393 4439 
Q 2709 4278 2876 4000 
Q 3044 3722 3044 3409 
Q 3044 3113 2884 2869 
Q 2725 2625 2413 2481 
Q 2819 2388 3044 2092 
Q 3269 1797 3269 1353 
Q 3269 753 2831 336 
Q 2394 -81 1725 -81 
Q 1122 -81 723 278 
Q 325 638 269 1209 
z
" transform="scale(0.015625)"/>
       </defs>
       <use xlink:href="#ArialMT-33"/>
       <use xlink:href="#ArialMT-30" x="55.615234"/>
      </g>
     </g>
    </g>
    <g id="ytick_3">
     <g id="line2d_6">
      <path d="M 49.57024 48.5605 
L 174.254992 48.5605 
" clip-path="url(#p6907853319)" style="fill: none; stroke: #ffffff; stroke-linecap: round"/>
     </g>
     <g id="text_7">
      <!-- 40 -->
      <g style="fill: #262626" transform="translate(30.28299 51.709937) scale(0.088 -0.088)">
       <use xlink:href="#ArialMT-34"/>
       <use xlink:href="#ArialMT-30" x="55.615234"/>
      </g>
     </g>
    </g>
    <g id="text_8">
     <!-- RTT (ms) -->
     <g style="fill: #262626" transform="translate(24.26249 92.66025) rotate(-90) scale(0.096 -0.096)">
      <defs>
       <path id="ArialMT-52" d="M 503 0 
L 503 4581 
L 2534 4581 
Q 3147 4581 3465 4457 
Q 3784 4334 3975 4021 
Q 4166 3709 4166 3331 
Q 4166 2844 3850 2509 
Q 3534 2175 2875 2084 
Q 3116 1969 3241 1856 
Q 3506 1613 3744 1247 
L 4541 0 
L 3778 0 
L 3172 953 
Q 2906 1366 2734 1584 
Q 2563 1803 2427 1890 
Q 2291 1978 2150 2013 
Q 2047 2034 1813 2034 
L 1109 2034 
L 1109 0 
L 503 0 
z
M 1109 2559 
L 2413 2559 
Q 2828 2559 3062 2645 
Q 3297 2731 3419 2920 
Q 3541 3109 3541 3331 
Q 3541 3656 3305 3865 
Q 3069 4075 2559 4075 
L 1109 4075 
L 1109 2559 
z
" transform="scale(0.015625)"/>
       <path id="ArialMT-54" d="M 1659 0 
L 1659 4041 
L 150 4041 
L 150 4581 
L 3781 4581 
L 3781 4041 
L 2266 4041 
L 2266 0 
L 1659 0 
z
" transform="scale(0.015625)"/>
       <path id="ArialMT-20" transform="scale(0.015625)"/>
       <path id="ArialMT-28" d="M 1497 -1347 
Q 1031 -759 709 28 
Q 388 816 388 1659 
Q 388 2403 628 3084 
Q 909 3875 1497 4659 
L 1900 4659 
Q 1522 4009 1400 3731 
Q 1209 3300 1100 2831 
Q 966 2247 966 1656 
Q 966 153 1900 -1347 
L 1497 -1347 
z
" transform="scale(0.015625)"/>
       <path id="ArialMT-73" d="M 197 991 
L 753 1078 
Q 800 744 1014 566 
Q 1228 388 1613 388 
Q 2000 388 2187 545 
Q 2375 703 2375 916 
Q 2375 1106 2209 1216 
Q 2094 1291 1634 1406 
Q 1016 1563 777 1677 
Q 538 1791 414 1992 
Q 291 2194 291 2438 
Q 291 2659 392 2848 
Q 494 3038 669 3163 
Q 800 3259 1026 3326 
Q 1253 3394 1513 3394 
Q 1903 3394 2198 3281 
Q 2494 3169 2634 2976 
Q 2775 2784 2828 2463 
L 2278 2388 
Q 2241 2644 2061 2787 
Q 1881 2931 1553 2931 
Q 1166 2931 1000 2803 
Q 834 2675 834 2503 
Q 834 2394 903 2306 
Q 972 2216 1119 2156 
Q 1203 2125 1616 2013 
Q 2213 1853 2448 1751 
Q 2684 1650 2818 1456 
Q 2953 1263 2953 975 
Q 2953 694 2789 445 
Q 2625 197 2315 61 
Q 2006 -75 1616 -75 
Q 969 -75 630 194 
Q 291 463 197 991 
z
" transform="scale(0.015625)"/>
       <path id="ArialMT-29" d="M 791 -1347 
L 388 -1347 
Q 1322 153 1322 1656 
Q 1322 2244 1188 2822 
Q 1081 3291 891 3722 
Q 769 4003 388 4659 
L 791 4659 
Q 1378 3875 1659 3084 
Q 1900 2403 1900 1659 
Q 1900 816 1576 28 
Q 1253 -759 791 -1347 
z
" transform="scale(0.015625)"/>
      </defs>
      <use xlink:href="#ArialMT-52"/>
      <use xlink:href="#ArialMT-54" x="70.466797"/>
      <use xlink:href="#ArialMT-54" x="131.550781"/>
      <use xlink:href="#ArialMT-20" x="190.884766"/>
      <use xlink:href="#ArialMT-28" x="218.667969"/>
      <use xlink:href="#ArialMT-6d" x="251.96875"/>
      <use xlink:href="#ArialMT-73" x="335.269531"/>
      <use xlink:href="#ArialMT-29" x="385.269531"/>
     </g>
    </g>
   </g>
   <g id="PolyCollection_1">
    <defs>
     <path id="mb6fd487c06" d="M 140.828374 -64.055099 
L 140.828374 -62.812698 
L 143.141635 -62.964344 
L 145.454896 -63.033721 
L 147.768157 -63.116414 
L 150.081417 -63.212694 
L 152.394678 -63.322698 
L 154.707939 -63.343941 
L 157.021199 -63.584873 
L 161.647721 -63.699634 
L 163.960981 -63.567992 
L 166.274242 -63.464813 
L 168.587503 -65.893081 
L 168.587503 -68.038816 
L 168.587503 -68.038816 
L 166.274242 -63.464813 
L 163.960981 -63.567992 
L 161.647721 -63.699634 
L 157.021199 -64.831527 
L 154.707939 -64.679522 
L 152.394678 -64.541497 
L 150.081417 -64.417262 
L 147.768157 -64.306623 
L 145.454896 -64.209487 
L 143.141635 -64.125639 
L 140.828374 -64.055099 
z
" style="stroke: #023eff; stroke-opacity: 0.2"/>
    </defs>
    <g clip-path="url(#p6907853319)">
     <use xlink:href="#mb6fd487c06" x="0" y="162" style="fill: #023eff; fill-opacity: 0.2; stroke: #023eff; stroke-opacity: 0.2"/>
    </g>
   </g>
   <g id="PolyCollection_2">
    <defs>
     <path id="mc2c3c9a55d" d="M 55.237729 -61.676572 
L 55.237729 -54.202511 
L 57.550989 -60.660928 
L 59.86425 -61.830469 
L 62.177511 -68.791301 
L 64.490771 -72.941928 
L 66.804032 -83.609451 
L 69.117293 -83.690235 
L 71.430554 -83.7183 
L 73.743814 -83.771781 
L 80.683596 -76.680691 
L 82.996857 -76.339766 
L 85.310118 -76.769772 
L 87.623378 -76.730356 
L 89.936639 -76.420961 
L 92.2499 -76.74029 
L 94.563161 -76.067837 
L 96.876421 -76.111407 
L 108.442725 -70.523623 
L 110.755985 -70.323735 
L 113.069246 -70.379682 
L 115.382507 -70.202266 
L 117.695768 -54.205298 
L 120.009028 -61.830631 
L 122.322289 -68.79225 
L 124.63555 -72.946934 
L 126.94881 -83.605176 
L 129.262071 -83.666136 
L 131.575332 -83.714803 
L 133.888592 -83.766087 
L 140.828374 -76.597039 
L 143.141635 -76.633432 
L 145.454896 -76.605899 
L 147.768157 -76.652685 
L 150.081417 -76.706752 
L 152.394678 -76.809998 
L 154.707939 -76.029171 
L 157.021199 -75.708733 
L 168.587503 -70.542179 
L 168.587503 -70.542179 
L 168.587503 -70.542179 
L 157.021199 -82.049205 
L 154.707939 -82.05262 
L 152.394678 -82.6678 
L 150.081417 -82.80995 
L 147.768157 -82.738746 
L 145.454896 -82.674428 
L 143.141635 -82.702411 
L 140.828374 -82.7028 
L 133.888592 -83.766087 
L 131.575332 -83.714803 
L 129.262071 -83.676668 
L 126.94881 -83.643728 
L 124.63555 -78.648747 
L 122.322289 -75.717438 
L 120.009028 -77.035709 
L 117.695768 -61.664903 
L 115.382507 -70.374459 
L 113.069246 -70.576923 
L 110.755985 -70.323735 
L 108.442725 -70.523623 
L 96.876421 -82.009653 
L 94.563161 -81.973894 
L 92.2499 -82.787603 
L 89.936639 -82.622094 
L 87.623378 -82.698079 
L 85.310118 -82.71497 
L 82.996857 -82.506053 
L 80.683596 -82.912204 
L 73.743814 -83.771781 
L 71.430554 -83.7183 
L 69.117293 -83.690235 
L 66.804032 -83.64559 
L 64.490771 -78.64689 
L 62.177511 -75.700006 
L 59.86425 -75.868104 
L 57.550989 -75.866719 
L 55.237729 -61.676572 
z
" style="stroke: #ff7c00; stroke-opacity: 0.2"/>
    </defs>
    <g clip-path="url(#p6907853319)">
     <use xlink:href="#mc2c3c9a55d" x="0" y="162" style="fill: #ff7c00; fill-opacity: 0.2; stroke: #ff7c00; stroke-opacity: 0.2"/>
    </g>
   </g>
   <g id="PolyCollection_3"/>
   <g id="PolyCollection_4"/>
   <g id="line2d_7">
    <path d="M 140.828374 98.518317 
L 143.141635 98.455009 
L 145.454896 98.378396 
L 147.768157 98.288482 
L 150.081417 98.185022 
L 152.394678 98.067902 
L 154.707939 97.9369 
L 157.021199 97.7918 
L 161.647721 98.300366 
L 163.960981 98.432008 
L 166.274242 98.535187 
L 168.587503 95.034052 
" clip-path="url(#p6907853319)" style="fill: none; stroke: #023eff; stroke-width: 1.5; stroke-linecap: round"/>
   </g>
   <g id="line2d_8">
    <path d="M 55.237729 104.068227 
L 57.550989 93.151338 
L 59.86425 93.150714 
L 62.177511 89.754346 
L 64.490771 86.009 
L 66.804032 78.37248 
L 69.117293 78.309765 
L 71.430554 78.2817 
L 73.743814 78.228219 
L 80.683596 82.203552 
L 82.996857 82.237818 
L 85.310118 82.258669 
L 87.623378 82.265878 
L 89.936639 82.259304 
L 92.2499 82.23873 
L 94.563161 82.920959 
L 96.876421 82.851151 
L 108.442725 91.476377 
L 110.755985 91.676265 
L 113.069246 91.521698 
L 115.382507 91.711637 
L 117.695768 104.0649 
L 120.009028 93.151641 
L 122.322289 89.752355 
L 124.63555 86.010873 
L 126.94881 78.375548 
L 129.262071 78.328598 
L 131.575332 78.285197 
L 133.888592 78.233913 
L 140.828374 82.199933 
L 143.141635 82.235437 
L 145.454896 82.257395 
L 147.768157 82.265809 
L 150.081417 82.260409 
L 152.394678 82.241075 
L 154.707939 82.926343 
L 157.021199 82.857732 
L 168.587503 91.457821 
" clip-path="url(#p6907853319)" style="fill: none; stroke: #ff7c00; stroke-width: 1.5; stroke-linecap: round"/>
   </g>
   <g id="line2d_9"/>
   <g id="line2d_10"/>
   <g id="patch_3">
    <path d="M 49.57024 122.292 
L 49.57024 22.848 
" style="fill: none; stroke: #ffffff; stroke-width: 1.25; stroke-linejoin: miter; stroke-linecap: square"/>
   </g>
   <g id="patch_4">
    <path d="M 49.57024 122.292 
L 174.254992 122.292 
" style="fill: none; stroke: #ffffff; stroke-width: 1.25; stroke-linejoin: miter; stroke-linecap: square"/>
   </g>
   <g id="text_9">
    <!-- TransOrbital -->
    <g style="fill: #262626" transform="translate(85.687366 16.848) scale(0.096 -0.096)">
     <defs>
      <path id="ArialMT-6e" d="M 422 0 
L 422 3319 
L 928 3319 
L 928 2847 
Q 1294 3394 1984 3394 
Q 2284 3394 2536 3286 
Q 2788 3178 2913 3003 
Q 3038 2828 3088 2588 
Q 3119 2431 3119 2041 
L 3119 0 
L 2556 0 
L 2556 2019 
Q 2556 2363 2490 2533 
Q 2425 2703 2258 2804 
Q 2091 2906 1866 2906 
Q 1506 2906 1245 2678 
Q 984 2450 984 1813 
L 984 0 
L 422 0 
z
" transform="scale(0.015625)"/>
      <path id="ArialMT-4f" d="M 309 2231 
Q 309 3372 921 4017 
Q 1534 4663 2503 4663 
Q 3138 4663 3647 4359 
Q 4156 4056 4423 3514 
Q 4691 2972 4691 2284 
Q 4691 1588 4409 1038 
Q 4128 488 3612 205 
Q 3097 -78 2500 -78 
Q 1853 -78 1343 234 
Q 834 547 571 1087 
Q 309 1628 309 2231 
z
M 934 2222 
Q 934 1394 1379 917 
Q 1825 441 2497 441 
Q 3181 441 3623 922 
Q 4066 1403 4066 2288 
Q 4066 2847 3877 3264 
Q 3688 3681 3323 3911 
Q 2959 4141 2506 4141 
Q 1863 4141 1398 3698 
Q 934 3256 934 2222 
z
" transform="scale(0.015625)"/>
      <path id="ArialMT-62" d="M 941 0 
L 419 0 
L 419 4581 
L 981 4581 
L 981 2947 
Q 1338 3394 1891 3394 
Q 2197 3394 2470 3270 
Q 2744 3147 2920 2923 
Q 3097 2700 3197 2384 
Q 3297 2069 3297 1709 
Q 3297 856 2875 390 
Q 2453 -75 1863 -75 
Q 1275 -75 941 416 
L 941 0 
z
M 934 1684 
Q 934 1088 1097 822 
Q 1363 388 1816 388 
Q 2184 388 2453 708 
Q 2722 1028 2722 1663 
Q 2722 2313 2464 2622 
Q 2206 2931 1841 2931 
Q 1472 2931 1203 2611 
Q 934 2291 934 1684 
z
" transform="scale(0.015625)"/>
      <path id="ArialMT-69" d="M 425 3934 
L 425 4581 
L 988 4581 
L 988 3934 
L 425 3934 
z
M 425 0 
L 425 3319 
L 988 3319 
L 988 0 
L 425 0 
z
" transform="scale(0.015625)"/>
      <path id="ArialMT-74" d="M 1650 503 
L 1731 6 
Q 1494 -44 1306 -44 
Q 1000 -44 831 53 
Q 663 150 594 308 
Q 525 466 525 972 
L 525 2881 
L 113 2881 
L 113 3319 
L 525 3319 
L 525 4141 
L 1084 4478 
L 1084 3319 
L 1650 3319 
L 1650 2881 
L 1084 2881 
L 1084 941 
Q 1084 700 1114 631 
Q 1144 563 1211 522 
Q 1278 481 1403 481 
Q 1497 481 1650 503 
z
" transform="scale(0.015625)"/>
      <path id="ArialMT-6c" d="M 409 0 
L 409 4581 
L 972 4581 
L 972 0 
L 409 0 
z
" transform="scale(0.015625)"/>
     </defs>
     <use xlink:href="#ArialMT-54"/>
     <use xlink:href="#ArialMT-72" x="57.333984"/>
     <use xlink:href="#ArialMT-61" x="90.634766"/>
     <use xlink:href="#ArialMT-6e" x="146.25"/>
     <use xlink:href="#ArialMT-73" x="201.865234"/>
     <use xlink:href="#ArialMT-4f" x="251.865234"/>
     <use xlink:href="#ArialMT-72" x="329.648438"/>
     <use xlink:href="#ArialMT-62" x="362.949219"/>
     <use xlink:href="#ArialMT-69" x="418.564453"/>
     <use xlink:href="#ArialMT-74" x="440.78125"/>
     <use xlink:href="#ArialMT-61" x="468.564453"/>
     <use xlink:href="#ArialMT-6c" x="524.179688"/>
    </g>
   </g>
  </g>
  <g id="axes_2">
   <g id="patch_5">
    <path d="M 184.166448 122.292 
L 308.8512 122.292 
L 308.8512 22.848 
L 184.166448 22.848 
z
" style="fill: #eaeaf2"/>
   </g>
   <g id="matplotlib.axis_3">
    <g id="xtick_4">
     <g id="line2d_11">
      <path d="M 187.520676 122.292 
L 187.520676 22.848 
" clip-path="url(#p33e31ffaaf)" style="fill: none; stroke: #ffffff; stroke-linecap: round"/>
     </g>
     <g id="text_10">
      <!-- 0 -->
      <g style="fill: #262626" transform="translate(185.073864 138.090875) scale(0.088 -0.088)">
       <use xlink:href="#ArialMT-30"/>
      </g>
     </g>
    </g>
    <g id="xtick_5">
     <g id="line2d_12">
      <path d="M 233.78589 122.292 
L 233.78589 22.848 
" clip-path="url(#p33e31ffaaf)" style="fill: none; stroke: #ffffff; stroke-linecap: round"/>
     </g>
     <g id="text_11">
      <!-- 20 -->
      <g style="fill: #262626" transform="translate(228.892265 138.090875) scale(0.088 -0.088)">
       <use xlink:href="#ArialMT-32"/>
       <use xlink:href="#ArialMT-30" x="55.615234"/>
      </g>
     </g>
    </g>
    <g id="xtick_6">
     <g id="line2d_13">
      <path d="M 280.051104 122.292 
L 280.051104 22.848 
" clip-path="url(#p33e31ffaaf)" style="fill: none; stroke: #ffffff; stroke-linecap: round"/>
     </g>
     <g id="text_12">
      <!-- 40 -->
      <g style="fill: #262626" transform="translate(275.157479 138.090875) scale(0.088 -0.088)">
       <use xlink:href="#ArialMT-34"/>
       <use xlink:href="#ArialMT-30" x="55.615234"/>
      </g>
     </g>
    </g>
    <g id="text_13">
     <!-- Frame -->
     <g style="fill: #262626" transform="translate(232.642074 150.711375) scale(0.096 -0.096)">
      <use xlink:href="#ArialMT-46"/>
      <use xlink:href="#ArialMT-72" x="61.083984"/>
      <use xlink:href="#ArialMT-61" x="94.384766"/>
      <use xlink:href="#ArialMT-6d" x="150"/>
      <use xlink:href="#ArialMT-65" x="233.300781"/>
     </g>
    </g>
   </g>
   <g id="matplotlib.axis_4">
    <g id="ytick_4">
     <g id="line2d_14">
      <path d="M 184.166448 114.027323 
L 308.8512 114.027323 
" clip-path="url(#p33e31ffaaf)" style="fill: none; stroke: #ffffff; stroke-linecap: round"/>
     </g>
    </g>
    <g id="ytick_5">
     <g id="line2d_15">
      <path d="M 184.166448 81.293911 
L 308.8512 81.293911 
" clip-path="url(#p33e31ffaaf)" style="fill: none; stroke: #ffffff; stroke-linecap: round"/>
     </g>
    </g>
    <g id="ytick_6">
     <g id="line2d_16">
      <path d="M 184.166448 48.5605 
L 308.8512 48.5605 
" clip-path="url(#p33e31ffaaf)" style="fill: none; stroke: #ffffff; stroke-linecap: round"/>
     </g>
    </g>
   </g>
   <g id="PolyCollection_5">
    <defs>
     <path id="m3652178afc" d="M 189.833937 -70.878752 
L 189.833937 -64.879234 
L 192.147198 -69.271759 
L 194.460459 -69.272784 
L 196.773719 -70.210466 
L 199.08698 -71.185879 
L 201.400241 -61.162289 
L 203.713501 -60.888545 
L 206.026762 -60.933394 
L 208.340023 -58.243082 
L 210.653283 -58.02154 
L 212.966544 -57.919977 
L 215.279805 -45.893891 
L 217.593066 -48.128975 
L 219.906326 -48.576165 
L 222.219587 -48.640747 
L 224.532848 -48.71025 
L 226.846108 -48.810545 
L 229.159369 -45.298659 
L 231.47263 -46.863713 
L 233.78589 -44.323188 
L 236.099151 -44.376265 
L 238.412412 -44.412133 
L 240.725672 -44.550755 
L 243.038933 -45.370878 
L 245.352194 -49.065017 
L 247.665455 -57.577427 
L 249.978715 -57.933907 
L 252.291976 -65.132779 
L 254.605237 -69.246695 
L 256.918497 -69.275815 
L 259.231758 -71.034639 
L 261.545019 -61.377999 
L 263.858279 -60.696712 
L 266.17154 -60.977457 
L 268.484801 -59.944199 
L 270.798062 -58.108674 
L 273.111322 -57.777875 
L 275.424583 -45.784632 
L 277.737844 -48.104781 
L 280.051104 -48.572052 
L 282.364365 -48.63356 
L 284.677626 -48.712266 
L 286.990886 -48.810172 
L 289.304147 -45.31839 
L 291.617408 -46.83237 
L 293.930669 -44.228182 
L 296.243929 -44.305068 
L 298.55719 -44.349466 
L 300.870451 -44.484095 
L 303.183711 -44.672092 
L 303.183711 -48.98343 
L 303.183711 -48.98343 
L 300.870451 -48.726922 
L 298.55719 -48.679577 
L 296.243929 -48.585606 
L 293.930669 -48.51503 
L 291.617408 -51.316906 
L 289.304147 -50.399008 
L 286.990886 -49.028333 
L 284.677626 -48.9371 
L 282.364365 -48.869263 
L 280.051104 -48.820736 
L 277.737844 -48.881403 
L 275.424583 -50.256847 
L 273.111322 -62.952411 
L 270.798062 -63.195915 
L 268.484801 -65.853818 
L 266.17154 -65.488177 
L 263.858279 -65.561584 
L 261.545019 -65.807375 
L 259.231758 -75.563295 
L 256.918497 -73.421581 
L 254.605237 -73.297578 
L 252.291976 -71.00382 
L 249.978715 -65.224348 
L 247.665455 -65.190476 
L 245.352194 -52.731378 
L 243.038933 -49.752721 
L 240.725672 -48.899685 
L 238.412412 -48.604042 
L 236.099151 -48.605316 
L 233.78589 -48.425173 
L 231.47263 -51.282259 
L 229.159369 -50.381383 
L 226.846108 -49.048892 
L 224.532848 -48.94712 
L 222.219587 -48.873444 
L 219.906326 -48.840716 
L 217.593066 -48.925588 
L 215.279805 -50.306851 
L 212.966544 -63.029634 
L 210.653283 -63.161924 
L 208.340023 -63.216488 
L 206.026762 -65.555703 
L 203.713501 -65.197024 
L 201.400241 -65.715217 
L 199.08698 -75.690907 
L 196.773719 -74.677136 
L 194.460459 -73.413764 
L 192.147198 -73.319898 
L 189.833937 -70.878752 
z
" style="stroke: #023eff; stroke-opacity: 0.2"/>
    </defs>
    <g clip-path="url(#p33e31ffaaf)">
     <use xlink:href="#m3652178afc" x="0" y="162" style="fill: #023eff; fill-opacity: 0.2; stroke: #023eff; stroke-opacity: 0.2"/>
    </g>
   </g>
   <g id="PolyCollection_6">
    <defs>
     <path id="md7d8b0357e" d="M 189.833937 -68.379164 
L 189.833937 -63.043068 
L 192.147198 -70.170407 
L 194.460459 -70.175157 
L 196.773719 -70.316456 
L 199.08698 -72.107083 
L 201.400241 -72.093123 
L 203.713501 -55.240324 
L 206.026762 -55.623089 
L 208.340023 -50.683185 
L 210.653283 -50.654912 
L 212.966544 -50.707989 
L 215.279805 -62.976495 
L 217.593066 -68.872054 
L 219.906326 -68.679486 
L 222.219587 -68.661414 
L 224.532848 -68.711038 
L 226.846108 -68.514978 
L 229.159369 -59.717664 
L 231.47263 -59.490039 
L 233.78589 -56.735132 
L 236.099151 -56.246009 
L 238.412412 -56.252814 
L 240.725672 -60.578845 
L 243.038933 -61.167655 
L 245.352194 -60.68964 
L 247.665455 -58.015134 
L 249.978715 -58.591035 
L 252.291976 -62.971927 
L 254.605237 -70.127943 
L 256.918497 -70.113282 
L 259.231758 -72.198706 
L 261.545019 -72.093651 
L 263.858279 -55.278502 
L 266.17154 -55.420471 
L 268.484801 -50.681503 
L 270.798062 -50.66317 
L 273.111322 -50.860126 
L 275.424583 -63.013096 
L 277.737844 -68.903736 
L 280.051104 -68.596314 
L 282.364365 -68.613419 
L 284.677626 -68.358801 
L 286.990886 -68.213993 
L 289.304147 -59.752881 
L 291.617408 -59.194635 
L 293.930669 -56.621322 
L 296.243929 -56.07092 
L 298.55719 -55.884079 
L 300.870451 -60.811501 
L 303.183711 -61.235583 
L 303.183711 -68.795094 
L 303.183711 -68.795094 
L 300.870451 -68.220698 
L 298.55719 -62.895762 
L 296.243929 -63.138423 
L 293.930669 -63.217267 
L 291.617408 -65.081683 
L 289.304147 -65.868437 
L 286.990886 -74.493473 
L 284.677626 -74.771595 
L 282.364365 -74.943114 
L 280.051104 -75.046986 
L 277.737844 -75.170105 
L 275.424583 -67.948686 
L 273.111322 -55.214749 
L 270.798062 -55.314844 
L 268.484801 -55.248156 
L 266.17154 -61.571005 
L 263.858279 -61.58801 
L 261.545019 -77.361407 
L 259.231758 -76.962747 
L 256.918497 -72.822986 
L 254.605237 -72.635213 
L 252.291976 -68.613276 
L 249.978715 -66.46135 
L 247.665455 -66.100927 
L 245.352194 -68.220644 
L 243.038933 -68.694436 
L 240.725672 -67.902115 
L 238.412412 -62.807878 
L 236.099151 -62.791891 
L 233.78589 -63.131278 
L 231.47263 -65.348654 
L 229.159369 -65.995695 
L 226.846108 -74.783082 
L 224.532848 -74.870905 
L 222.219587 -74.770606 
L 219.906326 -75.076423 
L 217.593066 -75.185308 
L 215.279805 -67.901745 
L 212.966544 -55.426455 
L 210.653283 -55.203509 
L 208.340023 -55.410738 
L 206.026762 -61.916893 
L 203.713501 -61.584487 
L 201.400241 -77.176407 
L 199.08698 -77.269918 
L 196.773719 -72.669015 
L 194.460459 -72.699428 
L 192.147198 -72.611957 
L 189.833937 -68.379164 
z
" style="stroke: #ff7c00; stroke-opacity: 0.2"/>
    </defs>
    <g clip-path="url(#p33e31ffaaf)">
     <use xlink:href="#md7d8b0357e" x="0" y="162" style="fill: #ff7c00; fill-opacity: 0.2; stroke: #ff7c00; stroke-opacity: 0.2"/>
    </g>
   </g>
   <g id="PolyCollection_7">
    <defs>
     <path id="me07cd7ac9f" d="M 189.833937 -125.97326 
L 189.833937 -111.091606 
L 192.147198 -111.315518 
L 194.460459 -111.308305 
L 196.773719 -111.524088 
L 199.08698 -112.362386 
L 201.400241 -112.213638 
L 203.713501 -112.786212 
L 206.026762 -112.527765 
L 208.340023 -112.749346 
L 210.653283 -112.325217 
L 212.966544 -115.593659 
L 215.279805 -110.452338 
L 217.593066 -110.181688 
L 219.906326 -110.197859 
L 222.219587 -110.441532 
L 224.532848 -110.219484 
L 226.846108 -110.174098 
L 229.159369 -110.849875 
L 231.47263 -124.86046 
L 233.78589 -125.136654 
L 236.099151 -125.372683 
L 238.412412 -123.611775 
L 240.725672 -122.254451 
L 243.038933 -122.400771 
L 245.352194 -124.771026 
L 247.665455 -119.607543 
L 249.978715 -119.780443 
L 252.291976 -111.760418 
L 254.605237 -111.849207 
L 256.918497 -111.987745 
L 259.231758 -111.67498 
L 261.545019 -111.795306 
L 263.858279 -111.934402 
L 266.17154 -112.490173 
L 268.484801 -113.903231 
L 270.798062 -112.093081 
L 273.111322 -115.950607 
L 275.424583 -111.069131 
L 277.737844 -110.187957 
L 280.051104 -109.608206 
L 282.364365 -110.00376 
L 284.677626 -110.080591 
L 286.990886 -110.579074 
L 289.304147 -110.698221 
L 291.617408 -125.013481 
L 293.930669 -124.775313 
L 296.243929 -125.481617 
L 298.55719 -123.683519 
L 300.870451 -121.978167 
L 303.183711 -122.476839 
L 303.183711 -132.240147 
L 303.183711 -132.240147 
L 300.870451 -131.903599 
L 298.55719 -132.697001 
L 296.243929 -134.51508 
L 293.930669 -134.566251 
L 291.617408 -134.438021 
L 289.304147 -124.053509 
L 286.990886 -124.437745 
L 284.677626 -124.742662 
L 282.364365 -123.988941 
L 280.051104 -123.527764 
L 277.737844 -123.331695 
L 275.424583 -124.80686 
L 273.111322 -129.557125 
L 270.798062 -125.793687 
L 268.484801 -127.346356 
L 266.17154 -125.863131 
L 263.858279 -126.664881 
L 261.545019 -126.57674 
L 259.231758 -126.345986 
L 256.918497 -126.409069 
L 254.605237 -125.891502 
L 252.291976 -125.38982 
L 249.978715 -131.248638 
L 247.665455 -130.906477 
L 245.352194 -134.390789 
L 243.038933 -132.155853 
L 240.725672 -132.151504 
L 238.412412 -133.079561 
L 236.099151 -134.631818 
L 233.78589 -134.169361 
L 231.47263 -134.000887 
L 229.159369 -123.9593 
L 226.846108 -123.949732 
L 224.532848 -123.764153 
L 222.219587 -123.596109 
L 219.906326 -123.270146 
L 217.593066 -123.475578 
L 215.279805 -123.28803 
L 212.966544 -129.951637 
L 210.653283 -126.480167 
L 208.340023 -126.740986 
L 206.026762 -126.049473 
L 203.713501 -126.598509 
L 201.400241 -126.902257 
L 199.08698 -127.262445 
L 196.773719 -125.550643 
L 194.460459 -125.61763 
L 192.147198 -125.895463 
L 189.833937 -125.97326 
z
" style="stroke: #1ac938; stroke-opacity: 0.2"/>
    </defs>
    <g clip-path="url(#p33e31ffaaf)">
     <use xlink:href="#me07cd7ac9f" x="0" y="162" style="fill: #1ac938; fill-opacity: 0.2; stroke: #1ac938; stroke-opacity: 0.2"/>
    </g>
   </g>
   <g id="PolyCollection_8">
    <defs>
     <path id="mbdc65fdac8" d="M 189.833937 -108.351387 
L 189.833937 -101.694782 
L 192.147198 -101.64858 
L 194.460459 -101.542808 
L 196.773719 -101.950777 
L 199.08698 -103.943824 
L 201.400241 -104.441753 
L 203.713501 -103.692995 
L 206.026762 -103.607744 
L 208.340023 -103.663355 
L 210.653283 -103.725426 
L 212.966544 -103.713506 
L 215.279805 -103.842596 
L 217.593066 -104.106029 
L 219.906326 -104.020679 
L 222.219587 -103.547632 
L 224.532848 -104.407927 
L 226.846108 -104.904882 
L 229.159369 -104.873014 
L 231.47263 -116.348049 
L 233.78589 -116.481085 
L 236.099151 -116.568488 
L 238.412412 -116.784419 
L 240.725672 -112.39288 
L 243.038933 -112.501927 
L 245.352194 -113.492748 
L 247.665455 -109.450571 
L 249.978715 -109.475479 
L 252.291976 -101.399547 
L 254.605237 -101.44689 
L 256.918497 -101.720973 
L 259.231758 -103.993075 
L 261.545019 -104.127132 
L 263.858279 -103.642074 
L 266.17154 -103.874197 
L 268.484801 -103.635809 
L 270.798062 -103.968032 
L 273.111322 -103.810103 
L 275.424583 -103.977128 
L 277.737844 -103.622201 
L 280.051104 -103.752893 
L 282.364365 -104.042673 
L 284.677626 -104.395185 
L 286.990886 -104.869218 
L 289.304147 -105.294279 
L 291.617408 -116.191976 
L 293.930669 -116.372376 
L 296.243929 -116.587065 
L 298.55719 -116.799577 
L 300.870451 -112.38435 
L 303.183711 -112.674846 
L 303.183711 -116.983439 
L 303.183711 -116.983439 
L 300.870451 -116.809836 
L 298.55719 -120.662077 
L 296.243929 -120.513025 
L 293.930669 -120.232096 
L 291.617408 -120.408894 
L 289.304147 -112.765856 
L 286.990886 -112.741283 
L 284.677626 -112.192538 
L 282.364365 -111.463184 
L 280.051104 -111.333575 
L 277.737844 -111.236191 
L 275.424583 -111.081321 
L 273.111322 -111.044344 
L 270.798062 -111.274622 
L 268.484801 -110.825489 
L 266.17154 -110.794791 
L 263.858279 -110.888364 
L 261.545019 -111.357959 
L 259.231758 -111.413124 
L 256.918497 -108.574123 
L 254.605237 -108.278717 
L 252.291976 -108.345649 
L 249.978715 -114.2449 
L 247.665455 -114.169096 
L 245.352194 -117.980247 
L 243.038933 -117.147663 
L 240.725672 -117.018293 
L 238.412412 -120.780208 
L 236.099151 -120.543161 
L 233.78589 -120.324943 
L 231.47263 -120.409833 
L 229.159369 -112.757247 
L 226.846108 -112.98802 
L 224.532848 -111.987633 
L 222.219587 -111.52591 
L 219.906326 -111.384068 
L 217.593066 -111.305982 
L 215.279805 -111.050188 
L 212.966544 -111.160924 
L 210.653283 -111.093684 
L 208.340023 -110.931302 
L 206.026762 -110.902376 
L 203.713501 -110.813058 
L 201.400241 -111.181128 
L 199.08698 -111.428805 
L 196.773719 -108.191042 
L 194.460459 -108.736479 
L 192.147198 -108.470956 
L 189.833937 -108.351387 
z
" style="stroke: #e8000b; stroke-opacity: 0.2"/>
    </defs>
    <g clip-path="url(#p33e31ffaaf)">
     <use xlink:href="#mbdc65fdac8" x="0" y="162" style="fill: #e8000b; fill-opacity: 0.2; stroke: #e8000b; stroke-opacity: 0.2"/>
    </g>
   </g>
   <g id="line2d_17">
    <path d="M 189.833937 94.012436 
L 192.147198 90.703148 
L 194.460459 90.701239 
L 196.773719 89.472325 
L 199.08698 88.624888 
L 201.400241 98.453064 
L 203.713501 98.801303 
L 206.026762 98.702248 
L 208.340023 101.237991 
L 210.653283 101.260345 
L 212.966544 101.338395 
L 215.279805 114.093107 
L 217.593066 113.44009 
L 219.906326 113.299892 
L 222.219587 113.244109 
L 224.532848 113.167355 
L 226.846108 113.06979 
L 229.159369 114.13265 
L 231.47263 112.930494 
L 233.78589 115.634224 
L 236.099151 115.502419 
L 238.412412 115.497381 
L 240.725672 115.36042 
L 243.038933 114.552661 
L 245.352194 111.012975 
L 247.665455 100.613893 
L 249.978715 100.238497 
L 252.291976 94.017227 
L 254.605237 90.703943 
L 256.918497 90.664952 
L 259.231758 88.624147 
L 261.545019 98.451269 
L 263.858279 98.800312 
L 266.17154 98.702433 
L 268.484801 99.052187 
L 270.798062 101.262815 
L 273.111322 101.342322 
L 275.424583 114.100487 
L 277.737844 113.442545 
L 280.051104 113.303711 
L 282.364365 113.249769 
L 284.677626 113.17479 
L 286.990886 113.07901 
L 289.304147 114.137221 
L 291.617408 112.9379 
L 293.930669 115.641081 
L 296.243929 115.511311 
L 298.55719 115.508163 
L 300.870451 115.373136 
L 303.183711 115.215282 
" clip-path="url(#p33e31ffaaf)" style="fill: none; stroke: #023eff; stroke-width: 1.5; stroke-linecap: round"/>
   </g>
   <g id="line2d_18">
    <path d="M 189.833937 96.317135 
L 192.147198 90.572894 
L 194.460459 90.566415 
L 196.773719 90.451676 
L 199.08698 87.409528 
L 201.400241 87.312223 
L 203.713501 103.398641 
L 206.026762 103.403347 
L 208.340023 109.034093 
L 210.653283 109.015577 
L 212.966544 108.986104 
L 215.279805 96.498241 
L 217.593066 89.893432 
L 219.906326 90.035826 
L 222.219587 90.16205 
L 224.532848 90.272163 
L 226.846108 90.366207 
L 229.159369 99.192921 
L 231.47263 99.761 
L 233.78589 102.213174 
L 236.099151 102.535647 
L 238.412412 102.568767 
L 240.725672 97.710494 
L 243.038933 97.022101 
L 245.352194 97.635116 
L 247.665455 99.704371 
L 249.978715 99.657113 
L 252.291976 96.32077 
L 254.605237 90.575718 
L 256.918497 90.46215 
L 259.231758 87.41723 
L 261.545019 87.321315 
L 263.858279 103.397717 
L 266.17154 103.403392 
L 268.484801 109.035171 
L 270.798062 109.017614 
L 273.111322 108.989059 
L 275.424583 96.49604 
L 277.737844 89.880414 
L 280.051104 90.024141 
L 282.364365 90.151766 
L 284.677626 90.263244 
L 286.990886 90.358684 
L 289.304147 99.184055 
L 291.617408 99.754989 
L 293.930669 102.207217 
L 296.243929 102.531905 
L 298.55719 102.566641 
L 300.870451 97.712261 
L 303.183711 97.023965 
" clip-path="url(#p33e31ffaaf)" style="fill: none; stroke: #ff7c00; stroke-width: 1.5; stroke-linecap: round"/>
   </g>
   <g id="line2d_19">
    <path d="M 189.833937 43.429007 
L 192.147198 43.404081 
L 194.460459 43.401839 
L 196.773719 43.353934 
L 199.08698 42.695577 
L 201.400241 42.591361 
L 203.713501 42.691236 
L 206.026762 42.723166 
L 208.340023 42.109437 
L 210.653283 42.733236 
L 212.966544 39.423309 
L 215.279805 45.319571 
L 217.593066 45.271562 
L 219.906326 45.207474 
L 222.219587 45.127238 
L 224.532848 45.030975 
L 226.846108 44.918627 
L 229.159369 44.790264 
L 231.47263 32.565254 
L 233.78589 32.358852 
L 236.099151 32.137561 
L 238.412412 33.684894 
L 240.725672 35.065962 
L 243.038933 34.845243 
L 245.352194 32.294293 
L 247.665455 36.650468 
L 249.978715 36.55807 
L 252.291976 43.429368 
L 254.605237 43.405071 
L 256.918497 43.359042 
L 259.231758 42.703684 
L 261.545019 42.601329 
L 263.858279 42.687538 
L 266.17154 42.72109 
L 268.484801 42.109743 
L 270.798062 42.734391 
L 273.111322 39.428412 
L 275.424583 43.888799 
L 277.737844 45.276459 
L 280.051104 45.213708 
L 282.364365 45.134888 
L 284.677626 45.039929 
L 286.990886 44.92899 
L 289.304147 44.802009 
L 291.617408 32.582446 
L 293.930669 32.377308 
L 296.243929 32.157285 
L 298.55719 33.701007 
L 300.870451 35.084422 
L 303.183711 34.864814 
" clip-path="url(#p33e31ffaaf)" style="fill: none; stroke: #1ac938; stroke-width: 1.5; stroke-linecap: round"/>
   </g>
   <g id="line2d_20">
    <path d="M 189.833937 56.935078 
L 192.147198 56.905627 
L 194.460459 56.90336 
L 196.773719 56.858229 
L 199.08698 54.190716 
L 201.400241 54.141771 
L 203.713501 54.614236 
L 206.026762 54.614729 
L 208.340023 54.601297 
L 210.653283 54.574007 
L 212.966544 54.532988 
L 215.279805 54.478218 
L 217.593066 54.409815 
L 219.906326 54.327768 
L 222.219587 54.231905 
L 224.532848 53.590732 
L 226.846108 52.926171 
L 229.159369 52.853929 
L 231.47263 43.65528 
L 233.78589 43.541038 
L 236.099151 43.408862 
L 238.412412 43.258665 
L 240.725672 47.395066 
L 243.038933 47.21583 
L 245.352194 46.29588 
L 247.665455 50.130571 
L 249.978715 50.009779 
L 252.291976 56.935641 
L 254.605237 56.906625 
L 256.918497 56.862726 
L 259.231758 54.194177 
L 261.545019 54.146788 
L 263.858279 54.613559 
L 266.17154 54.615262 
L 268.484801 54.602989 
L 270.798062 54.57692 
L 273.111322 54.537078 
L 275.424583 54.483549 
L 277.737844 54.416353 
L 280.051104 54.335434 
L 282.364365 54.240799 
L 284.677626 53.597696 
L 286.990886 52.931514 
L 289.304147 52.860888 
L 291.617408 43.664308 
L 293.930669 43.551615 
L 296.243929 43.42095 
L 298.55719 43.272353 
L 300.870451 47.409707 
L 303.183711 47.231894 
" clip-path="url(#p33e31ffaaf)" style="fill: none; stroke: #e8000b; stroke-width: 1.5; stroke-linecap: round"/>
   </g>
   <g id="patch_6">
    <path d="M 184.166448 122.292 
L 184.166448 22.848 
" style="fill: none; stroke: #ffffff; stroke-width: 1.25; stroke-linejoin: miter; stroke-linecap: square"/>
   </g>
   <g id="patch_7">
    <path d="M 184.166448 122.292 
L 308.8512 122.292 
" style="fill: none; stroke: #ffffff; stroke-width: 1.25; stroke-linejoin: miter; stroke-linecap: square"/>
   </g>
   <g id="text_14">
    <!-- IntraOrbital -->
    <g style="fill: #262626" transform="translate(222.768324 16.848) scale(0.096 -0.096)">
     <defs>
      <path id="ArialMT-49" d="M 597 0 
L 597 4581 
L 1203 4581 
L 1203 0 
L 597 0 
z
" transform="scale(0.015625)"/>
     </defs>
     <use xlink:href="#ArialMT-49"/>
     <use xlink:href="#ArialMT-6e" x="27.783203"/>
     <use xlink:href="#ArialMT-74" x="83.398438"/>
     <use xlink:href="#ArialMT-72" x="111.181641"/>
     <use xlink:href="#ArialMT-61" x="144.482422"/>
     <use xlink:href="#ArialMT-4f" x="200.097656"/>
     <use xlink:href="#ArialMT-72" x="277.880859"/>
     <use xlink:href="#ArialMT-62" x="311.181641"/>
     <use xlink:href="#ArialMT-69" x="366.796875"/>
     <use xlink:href="#ArialMT-74" x="389.013672"/>
     <use xlink:href="#ArialMT-61" x="416.796875"/>
     <use xlink:href="#ArialMT-6c" x="472.412109"/>
    </g>
   </g>
  </g>
  <g id="legend_1">
   <g id="text_15">
    <!-- Direction -->
    <g style="fill: #262626" transform="translate(328.04325 58.586) scale(0.096 -0.096)">
     <defs>
      <path id="ArialMT-44" d="M 494 0 
L 494 4581 
L 2072 4581 
Q 2606 4581 2888 4516 
Q 3281 4425 3559 4188 
Q 3922 3881 4101 3404 
Q 4281 2928 4281 2316 
Q 4281 1794 4159 1391 
Q 4038 988 3847 723 
Q 3656 459 3429 307 
Q 3203 156 2883 78 
Q 2563 0 2147 0 
L 494 0 
z
M 1100 541 
L 2078 541 
Q 2531 541 2789 625 
Q 3047 709 3200 863 
Q 3416 1078 3536 1442 
Q 3656 1806 3656 2325 
Q 3656 3044 3420 3430 
Q 3184 3816 2847 3947 
Q 2603 4041 2063 4041 
L 1100 4041 
L 1100 541 
z
" transform="scale(0.015625)"/>
      <path id="ArialMT-63" d="M 2588 1216 
L 3141 1144 
Q 3050 572 2676 248 
Q 2303 -75 1759 -75 
Q 1078 -75 664 370 
Q 250 816 250 1647 
Q 250 2184 428 2587 
Q 606 2991 970 3192 
Q 1334 3394 1763 3394 
Q 2303 3394 2647 3120 
Q 2991 2847 3088 2344 
L 2541 2259 
Q 2463 2594 2264 2762 
Q 2066 2931 1784 2931 
Q 1359 2931 1093 2626 
Q 828 2322 828 1663 
Q 828 994 1084 691 
Q 1341 388 1753 388 
Q 2084 388 2306 591 
Q 2528 794 2588 1216 
z
" transform="scale(0.015625)"/>
      <path id="ArialMT-6f" d="M 213 1659 
Q 213 2581 725 3025 
Q 1153 3394 1769 3394 
Q 2453 3394 2887 2945 
Q 3322 2497 3322 1706 
Q 3322 1066 3130 698 
Q 2938 331 2570 128 
Q 2203 -75 1769 -75 
Q 1072 -75 642 372 
Q 213 819 213 1659 
z
M 791 1659 
Q 791 1022 1069 705 
Q 1347 388 1769 388 
Q 2188 388 2466 706 
Q 2744 1025 2744 1678 
Q 2744 2294 2464 2611 
Q 2184 2928 1769 2928 
Q 1347 2928 1069 2612 
Q 791 2297 791 1659 
z
" transform="scale(0.015625)"/>
     </defs>
     <use xlink:href="#ArialMT-44"/>
     <use xlink:href="#ArialMT-69" x="72.216797"/>
     <use xlink:href="#ArialMT-72" x="94.433594"/>
     <use xlink:href="#ArialMT-65" x="127.734375"/>
     <use xlink:href="#ArialMT-63" x="183.349609"/>
     <use xlink:href="#ArialMT-74" x="233.349609"/>
     <use xlink:href="#ArialMT-69" x="261.132812"/>
     <use xlink:href="#ArialMT-6f" x="283.349609"/>
     <use xlink:href="#ArialMT-6e" x="338.964844"/>
    </g>
   </g>
   <g id="line2d_21">
    <path d="M 323.1645 68.112875 
L 331.9645 68.112875 
L 340.7645 68.112875 
" style="fill: none; stroke: #023eff; stroke-width: 1.5; stroke-linecap: round"/>
   </g>
   <g id="text_16">
    <!-- East -->
    <g style="fill: #262626" transform="translate(347.8045 71.192875) scale(0.088 -0.088)">
     <defs>
      <path id="ArialMT-45" d="M 506 0 
L 506 4581 
L 3819 4581 
L 3819 4041 
L 1113 4041 
L 1113 2638 
L 3647 2638 
L 3647 2100 
L 1113 2100 
L 1113 541 
L 3925 541 
L 3925 0 
L 506 0 
z
" transform="scale(0.015625)"/>
     </defs>
     <use xlink:href="#ArialMT-45"/>
     <use xlink:href="#ArialMT-61" x="66.699219"/>
     <use xlink:href="#ArialMT-73" x="122.314453"/>
     <use xlink:href="#ArialMT-74" x="172.314453"/>
    </g>
   </g>
   <g id="line2d_22">
    <path d="M 323.1645 80.56075 
L 331.9645 80.56075 
L 340.7645 80.56075 
" style="fill: none; stroke: #ff7c00; stroke-width: 1.5; stroke-linecap: round"/>
   </g>
   <g id="text_17">
    <!-- West -->
    <g style="fill: #262626" transform="translate(347.8045 83.64075) scale(0.088 -0.088)">
     <defs>
      <path id="ArialMT-57" d="M 1294 0 
L 78 4581 
L 700 4581 
L 1397 1578 
Q 1509 1106 1591 641 
Q 1766 1375 1797 1488 
L 2669 4581 
L 3400 4581 
L 4056 2263 
Q 4303 1400 4413 641 
Q 4500 1075 4641 1638 
L 5359 4581 
L 5969 4581 
L 4713 0 
L 4128 0 
L 3163 3491 
Q 3041 3928 3019 4028 
Q 2947 3713 2884 3491 
L 1913 0 
L 1294 0 
z
" transform="scale(0.015625)"/>
     </defs>
     <use xlink:href="#ArialMT-57"/>
     <use xlink:href="#ArialMT-65" x="92.634766"/>
     <use xlink:href="#ArialMT-73" x="148.25"/>
     <use xlink:href="#ArialMT-74" x="198.25"/>
    </g>
   </g>
   <g id="line2d_23">
    <path d="M 323.1645 93.008625 
L 331.9645 93.008625 
L 340.7645 93.008625 
" style="fill: none; stroke: #1ac938; stroke-width: 1.5; stroke-linecap: round"/>
   </g>
   <g id="text_18">
    <!-- North -->
    <g style="fill: #262626" transform="translate(347.8045 96.088625) scale(0.088 -0.088)">
     <defs>
      <path id="ArialMT-4e" d="M 488 0 
L 488 4581 
L 1109 4581 
L 3516 984 
L 3516 4581 
L 4097 4581 
L 4097 0 
L 3475 0 
L 1069 3600 
L 1069 0 
L 488 0 
z
" transform="scale(0.015625)"/>
      <path id="ArialMT-68" d="M 422 0 
L 422 4581 
L 984 4581 
L 984 2938 
Q 1378 3394 1978 3394 
Q 2347 3394 2619 3248 
Q 2891 3103 3008 2847 
Q 3125 2591 3125 2103 
L 3125 0 
L 2563 0 
L 2563 2103 
Q 2563 2525 2380 2717 
Q 2197 2909 1863 2909 
Q 1613 2909 1392 2779 
Q 1172 2650 1078 2428 
Q 984 2206 984 1816 
L 984 0 
L 422 0 
z
" transform="scale(0.015625)"/>
     </defs>
     <use xlink:href="#ArialMT-4e"/>
     <use xlink:href="#ArialMT-6f" x="72.216797"/>
     <use xlink:href="#ArialMT-72" x="127.832031"/>
     <use xlink:href="#ArialMT-74" x="161.132812"/>
     <use xlink:href="#ArialMT-68" x="188.916016"/>
    </g>
   </g>
   <g id="line2d_24">
    <path d="M 323.1645 105.4565 
L 331.9645 105.4565 
L 340.7645 105.4565 
" style="fill: none; stroke: #e8000b; stroke-width: 1.5; stroke-linecap: round"/>
   </g>
   <g id="text_19">
    <!-- South -->
    <g style="fill: #262626" transform="translate(347.8045 108.5365) scale(0.088 -0.088)">
     <defs>
      <path id="ArialMT-53" d="M 288 1472 
L 859 1522 
Q 900 1178 1048 958 
Q 1197 738 1509 602 
Q 1822 466 2213 466 
Q 2559 466 2825 569 
Q 3091 672 3220 851 
Q 3350 1031 3350 1244 
Q 3350 1459 3225 1620 
Q 3100 1781 2813 1891 
Q 2628 1963 1997 2114 
Q 1366 2266 1113 2400 
Q 784 2572 623 2826 
Q 463 3081 463 3397 
Q 463 3744 659 4045 
Q 856 4347 1234 4503 
Q 1613 4659 2075 4659 
Q 2584 4659 2973 4495 
Q 3363 4331 3572 4012 
Q 3781 3694 3797 3291 
L 3216 3247 
Q 3169 3681 2898 3903 
Q 2628 4125 2100 4125 
Q 1550 4125 1298 3923 
Q 1047 3722 1047 3438 
Q 1047 3191 1225 3031 
Q 1400 2872 2139 2705 
Q 2878 2538 3153 2413 
Q 3553 2228 3743 1945 
Q 3934 1663 3934 1294 
Q 3934 928 3725 604 
Q 3516 281 3123 101 
Q 2731 -78 2241 -78 
Q 1619 -78 1198 103 
Q 778 284 539 648 
Q 300 1013 288 1472 
z
" transform="scale(0.015625)"/>
      <path id="ArialMT-75" d="M 2597 0 
L 2597 488 
Q 2209 -75 1544 -75 
Q 1250 -75 995 37 
Q 741 150 617 320 
Q 494 491 444 738 
Q 409 903 409 1263 
L 409 3319 
L 972 3319 
L 972 1478 
Q 972 1038 1006 884 
Q 1059 663 1231 536 
Q 1403 409 1656 409 
Q 1909 409 2131 539 
Q 2353 669 2445 892 
Q 2538 1116 2538 1541 
L 2538 3319 
L 3100 3319 
L 3100 0 
L 2597 0 
z
" transform="scale(0.015625)"/>
     </defs>
     <use xlink:href="#ArialMT-53"/>
     <use xlink:href="#ArialMT-6f" x="66.699219"/>
     <use xlink:href="#ArialMT-75" x="122.314453"/>
     <use xlink:href="#ArialMT-74" x="177.929688"/>
     <use xlink:href="#ArialMT-68" x="205.712891"/>
    </g>
   </g>
  </g>
 </g>
 <defs>
  <clipPath id="p6907853319">
   <rect x="49.57024" y="22.848" width="124.684752" height="99.444"/>
  </clipPath>
  <clipPath id="p33e31ffaaf">
   <rect x="184.166448" y="22.848" width="124.684752" height="99.444"/>
  </clipPath>
 </defs>
</svg>
