<?xml version="1.0" encoding="utf-8" standalone="no"?>
<!DOCTYPE svg PUBLIC "-//W3C//DTD SVG 1.1//EN"
  "http://www.w3.org/Graphics/SVG/1.1/DTD/svg11.dtd">
<svg xmlns:xlink="http://www.w3.org/1999/xlink" width="378.72pt" height="162pt" viewBox="0 0 378.72 162" xmlns="http://www.w3.org/2000/svg" version="1.1">
 <metadata>
  <rdf:RDF xmlns:dc="http://purl.org/dc/elements/1.1/" xmlns:cc="http://creativecommons.org/ns#" xmlns:rdf="http://www.w3.org/1999/02/22-rdf-syntax-ns#">
   <cc:Work>
    <dc:type rdf:resource="http://purl.org/dc/dcmitype/StillImage"/>
    <dc:date>2024-08-26T15:08:15.231774</dc:date>
    <dc:format>image/svg+xml</dc:format>
    <dc:creator>
     <cc:Agent>
      <dc:title>Matplotlib v3.9.0, https://matplotlib.org/</dc:title>
     </cc:Agent>
    </dc:creator>
   </cc:Work>
  </rdf:RDF>
 </metadata>
 <defs>
  <style type="text/css">*{stroke-linejoin: round; stroke-linecap: butt}</style>
 </defs>
 <g id="figure_1">
  <g id="patch_1">
   <path d="M 0 162 
L 378.72 162 
L 378.72 0 
L 0 0 
z
" style="fill: #ffffff"/>
  </g>
  <g id="axes_1">
   <g id="patch_2">
    <path d="M 55.35624 122.292 
L 177.168511 122.292 
L 177.168511 23.12925 
L 55.35624 23.12925 
z
" style="fill: #eaeaf2"/>
   </g>
   <g id="matplotlib.axis_1">
    <g id="xtick_1">
     <g id="line2d_1">
      <path d="M 58.633193 122.292 
L 58.633193 23.12925 
" clip-path="url(#pd43a08a03f)" style="fill: none; stroke: #ffffff; stroke-linecap: round"/>
     </g>
     <g id="text_1">
      <!-- 0 -->
      <g style="fill: #262626" transform="translate(56.186381 138.090875) scale(0.088 -0.088)">
       <defs>
        <path id="ArialMT-30" d="M 266 2259 
Q 266 3072 433 3567 
Q 600 4063 929 4331 
Q 1259 4600 1759 4600 
Q 2128 4600 2406 4451 
Q 2684 4303 2865 4023 
Q 3047 3744 3150 3342 
Q 3253 2941 3253 2259 
Q 3253 1453 3087 958 
Q 2922 463 2592 192 
Q 2263 -78 1759 -78 
Q 1097 -78 719 397 
Q 266 969 266 2259 
z
M 844 2259 
Q 844 1131 1108 757 
Q 1372 384 1759 384 
Q 2147 384 2411 759 
Q 2675 1134 2675 2259 
Q 2675 3391 2411 3762 
Q 2147 4134 1753 4134 
Q 1366 4134 1134 3806 
Q 844 3388 844 2259 
z
" transform="scale(0.015625)"/>
       </defs>
       <use xlink:href="#ArialMT-30"/>
      </g>
     </g>
    </g>
    <g id="xtick_2">
     <g id="line2d_2">
      <path d="M 103.832552 122.292 
L 103.832552 23.12925 
" clip-path="url(#pd43a08a03f)" style="fill: none; stroke: #ffffff; stroke-linecap: round"/>
     </g>
     <g id="text_2">
      <!-- 20 -->
      <g style="fill: #262626" transform="translate(98.938927 138.090875) scale(0.088 -0.088)">
       <defs>
        <path id="ArialMT-32" d="M 3222 541 
L 3222 0 
L 194 0 
Q 188 203 259 391 
Q 375 700 629 1000 
Q 884 1300 1366 1694 
Q 2113 2306 2375 2664 
Q 2638 3022 2638 3341 
Q 2638 3675 2398 3904 
Q 2159 4134 1775 4134 
Q 1369 4134 1125 3890 
Q 881 3647 878 3216 
L 300 3275 
Q 359 3922 746 4261 
Q 1134 4600 1788 4600 
Q 2447 4600 2831 4234 
Q 3216 3869 3216 3328 
Q 3216 3053 3103 2787 
Q 2991 2522 2730 2228 
Q 2469 1934 1863 1422 
Q 1356 997 1212 845 
Q 1069 694 975 541 
L 3222 541 
z
" transform="scale(0.015625)"/>
       </defs>
       <use xlink:href="#ArialMT-32"/>
       <use xlink:href="#ArialMT-30" x="55.615234"/>
      </g>
     </g>
    </g>
    <g id="xtick_3">
     <g id="line2d_3">
      <path d="M 149.03191 122.292 
L 149.03191 23.12925 
" clip-path="url(#pd43a08a03f)" style="fill: none; stroke: #ffffff; stroke-linecap: round"/>
     </g>
     <g id="text_3">
      <!-- 40 -->
      <g style="fill: #262626" transform="translate(144.138285 138.090875) scale(0.088 -0.088)">
       <defs>
        <path id="ArialMT-34" d="M 2069 0 
L 2069 1097 
L 81 1097 
L 81 1613 
L 2172 4581 
L 2631 4581 
L 2631 1613 
L 3250 1613 
L 3250 1097 
L 2631 1097 
L 2631 0 
L 2069 0 
z
M 2069 1613 
L 2069 3678 
L 634 1613 
L 2069 1613 
z
" transform="scale(0.015625)"/>
       </defs>
       <use xlink:href="#ArialMT-34"/>
       <use xlink:href="#ArialMT-30" x="55.615234"/>
      </g>
     </g>
    </g>
    <g id="text_4">
     <!-- Frame -->
     <g style="fill: #262626" transform="translate(102.395625 150.711375) scale(0.096 -0.096)">
      <defs>
       <path id="ArialMT-46" d="M 525 0 
L 525 4581 
L 3616 4581 
L 3616 4041 
L 1131 4041 
L 1131 2622 
L 3281 2622 
L 3281 2081 
L 1131 2081 
L 1131 0 
L 525 0 
z
" transform="scale(0.015625)"/>
       <path id="ArialMT-72" d="M 416 0 
L 416 3319 
L 922 3319 
L 922 2816 
Q 1116 3169 1280 3281 
Q 1444 3394 1641 3394 
Q 1925 3394 2219 3213 
L 2025 2691 
Q 1819 2813 1613 2813 
Q 1428 2813 1281 2702 
Q 1134 2591 1072 2394 
Q 978 2094 978 1738 
L 978 0 
L 416 0 
z
" transform="scale(0.015625)"/>
       <path id="ArialMT-61" d="M 2588 409 
Q 2275 144 1986 34 
Q 1697 -75 1366 -75 
Q 819 -75 525 192 
Q 231 459 231 875 
Q 231 1119 342 1320 
Q 453 1522 633 1644 
Q 813 1766 1038 1828 
Q 1203 1872 1538 1913 
Q 2219 1994 2541 2106 
Q 2544 2222 2544 2253 
Q 2544 2597 2384 2738 
Q 2169 2928 1744 2928 
Q 1347 2928 1158 2789 
Q 969 2650 878 2297 
L 328 2372 
Q 403 2725 575 2942 
Q 747 3159 1072 3276 
Q 1397 3394 1825 3394 
Q 2250 3394 2515 3294 
Q 2781 3194 2906 3042 
Q 3031 2891 3081 2659 
Q 3109 2516 3109 2141 
L 3109 1391 
Q 3109 606 3145 398 
Q 3181 191 3288 0 
L 2700 0 
Q 2613 175 2588 409 
z
M 2541 1666 
Q 2234 1541 1622 1453 
Q 1275 1403 1131 1340 
Q 988 1278 909 1158 
Q 831 1038 831 891 
Q 831 666 1001 516 
Q 1172 366 1500 366 
Q 1825 366 2078 508 
Q 2331 650 2450 897 
Q 2541 1088 2541 1459 
L 2541 1666 
z
" transform="scale(0.015625)"/>
       <path id="ArialMT-6d" d="M 422 0 
L 422 3319 
L 925 3319 
L 925 2853 
Q 1081 3097 1340 3245 
Q 1600 3394 1931 3394 
Q 2300 3394 2536 3241 
Q 2772 3088 2869 2813 
Q 3263 3394 3894 3394 
Q 4388 3394 4653 3120 
Q 4919 2847 4919 2278 
L 4919 0 
L 4359 0 
L 4359 2091 
Q 4359 2428 4304 2576 
Q 4250 2725 4106 2815 
Q 3963 2906 3769 2906 
Q 3419 2906 3187 2673 
Q 2956 2441 2956 1928 
L 2956 0 
L 2394 0 
L 2394 2156 
Q 2394 2531 2256 2718 
Q 2119 2906 1806 2906 
Q 1569 2906 1367 2781 
Q 1166 2656 1075 2415 
Q 984 2175 984 1722 
L 984 0 
L 422 0 
z
" transform="scale(0.015625)"/>
       <path id="ArialMT-65" d="M 2694 1069 
L 3275 997 
Q 3138 488 2766 206 
Q 2394 -75 1816 -75 
Q 1088 -75 661 373 
Q 234 822 234 1631 
Q 234 2469 665 2931 
Q 1097 3394 1784 3394 
Q 2450 3394 2872 2941 
Q 3294 2488 3294 1666 
Q 3294 1616 3291 1516 
L 816 1516 
Q 847 969 1125 678 
Q 1403 388 1819 388 
Q 2128 388 2347 550 
Q 2566 713 2694 1069 
z
M 847 1978 
L 2700 1978 
Q 2663 2397 2488 2606 
Q 2219 2931 1791 2931 
Q 1403 2931 1139 2672 
Q 875 2413 847 1978 
z
" transform="scale(0.015625)"/>
      </defs>
      <use xlink:href="#ArialMT-46"/>
      <use xlink:href="#ArialMT-72" x="61.083984"/>
      <use xlink:href="#ArialMT-61" x="94.384766"/>
      <use xlink:href="#ArialMT-6d" x="150"/>
      <use xlink:href="#ArialMT-65" x="233.300781"/>
     </g>
    </g>
   </g>
   <g id="matplotlib.axis_2">
    <g id="ytick_1">
     <g id="line2d_4">
      <path d="M 55.35624 116.802842 
L 177.168511 116.802842 
" clip-path="url(#pd43a08a03f)" style="fill: none; stroke: #ffffff; stroke-linecap: round"/>
     </g>
     <g id="text_5">
      <!-- 20 -->
      <g style="fill: #262626" transform="translate(36.06899 119.95228) scale(0.088 -0.088)">
       <use xlink:href="#ArialMT-32"/>
       <use xlink:href="#ArialMT-30" x="55.615234"/>
      </g>
     </g>
    </g>
    <g id="ytick_2">
     <g id="line2d_5">
      <path d="M 55.35624 94.101711 
L 177.168511 94.101711 
" clip-path="url(#pd43a08a03f)" style="fill: none; stroke: #ffffff; stroke-linecap: round"/>
     </g>
     <g id="text_6">
      <!-- 40 -->
      <g style="fill: #262626" transform="translate(36.06899 97.251149) scale(0.088 -0.088)">
       <use xlink:href="#ArialMT-34"/>
       <use xlink:href="#ArialMT-30" x="55.615234"/>
      </g>
     </g>
    </g>
    <g id="ytick_3">
     <g id="line2d_6">
      <path d="M 55.35624 71.40058 
L 177.168511 71.40058 
" clip-path="url(#pd43a08a03f)" style="fill: none; stroke: #ffffff; stroke-linecap: round"/>
     </g>
     <g id="text_7">
      <!-- 60 -->
      <g style="fill: #262626" transform="translate(36.06899 74.550018) scale(0.088 -0.088)">
       <defs>
        <path id="ArialMT-36" d="M 3184 3459 
L 2625 3416 
Q 2550 3747 2413 3897 
Q 2184 4138 1850 4138 
Q 1581 4138 1378 3988 
Q 1113 3794 959 3422 
Q 806 3050 800 2363 
Q 1003 2672 1297 2822 
Q 1591 2972 1913 2972 
Q 2475 2972 2870 2558 
Q 3266 2144 3266 1488 
Q 3266 1056 3080 686 
Q 2894 316 2569 119 
Q 2244 -78 1831 -78 
Q 1128 -78 684 439 
Q 241 956 241 2144 
Q 241 3472 731 4075 
Q 1159 4600 1884 4600 
Q 2425 4600 2770 4297 
Q 3116 3994 3184 3459 
z
M 888 1484 
Q 888 1194 1011 928 
Q 1134 663 1356 523 
Q 1578 384 1822 384 
Q 2178 384 2434 671 
Q 2691 959 2691 1453 
Q 2691 1928 2437 2201 
Q 2184 2475 1800 2475 
Q 1419 2475 1153 2201 
Q 888 1928 888 1484 
z
" transform="scale(0.015625)"/>
       </defs>
       <use xlink:href="#ArialMT-36"/>
       <use xlink:href="#ArialMT-30" x="55.615234"/>
      </g>
     </g>
    </g>
    <g id="ytick_4">
     <g id="line2d_7">
      <path d="M 55.35624 48.699449 
L 177.168511 48.699449 
" clip-path="url(#pd43a08a03f)" style="fill: none; stroke: #ffffff; stroke-linecap: round"/>
     </g>
     <g id="text_8">
      <!-- 80 -->
      <g style="fill: #262626" transform="translate(36.06899 51.848887) scale(0.088 -0.088)">
       <defs>
        <path id="ArialMT-38" d="M 1131 2484 
Q 781 2613 612 2850 
Q 444 3088 444 3419 
Q 444 3919 803 4259 
Q 1163 4600 1759 4600 
Q 2359 4600 2725 4251 
Q 3091 3903 3091 3403 
Q 3091 3084 2923 2848 
Q 2756 2613 2416 2484 
Q 2838 2347 3058 2040 
Q 3278 1734 3278 1309 
Q 3278 722 2862 322 
Q 2447 -78 1769 -78 
Q 1091 -78 675 323 
Q 259 725 259 1325 
Q 259 1772 486 2073 
Q 713 2375 1131 2484 
z
M 1019 3438 
Q 1019 3113 1228 2906 
Q 1438 2700 1772 2700 
Q 2097 2700 2305 2904 
Q 2513 3109 2513 3406 
Q 2513 3716 2298 3927 
Q 2084 4138 1766 4138 
Q 1444 4138 1231 3931 
Q 1019 3725 1019 3438 
z
M 838 1322 
Q 838 1081 952 856 
Q 1066 631 1291 507 
Q 1516 384 1775 384 
Q 2178 384 2440 643 
Q 2703 903 2703 1303 
Q 2703 1709 2433 1975 
Q 2163 2241 1756 2241 
Q 1359 2241 1098 1978 
Q 838 1716 838 1322 
z
" transform="scale(0.015625)"/>
       </defs>
       <use xlink:href="#ArialMT-38"/>
       <use xlink:href="#ArialMT-30" x="55.615234"/>
      </g>
     </g>
    </g>
    <g id="ytick_5">
     <g id="line2d_8">
      <path d="M 55.35624 25.998319 
L 177.168511 25.998319 
" clip-path="url(#pd43a08a03f)" style="fill: none; stroke: #ffffff; stroke-linecap: round"/>
     </g>
     <g id="text_9">
      <!-- 100 -->
      <g style="fill: #262626" transform="translate(31.175365 29.147756) scale(0.088 -0.088)">
       <defs>
        <path id="ArialMT-31" d="M 2384 0 
L 1822 0 
L 1822 3584 
Q 1619 3391 1289 3197 
Q 959 3003 697 2906 
L 697 3450 
Q 1169 3672 1522 3987 
Q 1875 4303 2022 4600 
L 2384 4600 
L 2384 0 
z
" transform="scale(0.015625)"/>
       </defs>
       <use xlink:href="#ArialMT-31"/>
       <use xlink:href="#ArialMT-30" x="55.615234"/>
       <use xlink:href="#ArialMT-30" x="111.230469"/>
      </g>
     </g>
    </g>
    <g id="text_10">
     <!-- RTT (ms) -->
     <g style="fill: #262626" transform="translate(25.154865 92.800875) rotate(-90) scale(0.096 -0.096)">
      <defs>
       <path id="ArialMT-52" d="M 503 0 
L 503 4581 
L 2534 4581 
Q 3147 4581 3465 4457 
Q 3784 4334 3975 4021 
Q 4166 3709 4166 3331 
Q 4166 2844 3850 2509 
Q 3534 2175 2875 2084 
Q 3116 1969 3241 1856 
Q 3506 1613 3744 1247 
L 4541 0 
L 3778 0 
L 3172 953 
Q 2906 1366 2734 1584 
Q 2563 1803 2427 1890 
Q 2291 1978 2150 2013 
Q 2047 2034 1813 2034 
L 1109 2034 
L 1109 0 
L 503 0 
z
M 1109 2559 
L 2413 2559 
Q 2828 2559 3062 2645 
Q 3297 2731 3419 2920 
Q 3541 3109 3541 3331 
Q 3541 3656 3305 3865 
Q 3069 4075 2559 4075 
L 1109 4075 
L 1109 2559 
z
" transform="scale(0.015625)"/>
       <path id="ArialMT-54" d="M 1659 0 
L 1659 4041 
L 150 4041 
L 150 4581 
L 3781 4581 
L 3781 4041 
L 2266 4041 
L 2266 0 
L 1659 0 
z
" transform="scale(0.015625)"/>
       <path id="ArialMT-20" transform="scale(0.015625)"/>
       <path id="ArialMT-28" d="M 1497 -1347 
Q 1031 -759 709 28 
Q 388 816 388 1659 
Q 388 2403 628 3084 
Q 909 3875 1497 4659 
L 1900 4659 
Q 1522 4009 1400 3731 
Q 1209 3300 1100 2831 
Q 966 2247 966 1656 
Q 966 153 1900 -1347 
L 1497 -1347 
z
" transform="scale(0.015625)"/>
       <path id="ArialMT-73" d="M 197 991 
L 753 1078 
Q 800 744 1014 566 
Q 1228 388 1613 388 
Q 2000 388 2187 545 
Q 2375 703 2375 916 
Q 2375 1106 2209 1216 
Q 2094 1291 1634 1406 
Q 1016 1563 777 1677 
Q 538 1791 414 1992 
Q 291 2194 291 2438 
Q 291 2659 392 2848 
Q 494 3038 669 3163 
Q 800 3259 1026 3326 
Q 1253 3394 1513 3394 
Q 1903 3394 2198 3281 
Q 2494 3169 2634 2976 
Q 2775 2784 2828 2463 
L 2278 2388 
Q 2241 2644 2061 2787 
Q 1881 2931 1553 2931 
Q 1166 2931 1000 2803 
Q 834 2675 834 2503 
Q 834 2394 903 2306 
Q 972 2216 1119 2156 
Q 1203 2125 1616 2013 
Q 2213 1853 2448 1751 
Q 2684 1650 2818 1456 
Q 2953 1263 2953 975 
Q 2953 694 2789 445 
Q 2625 197 2315 61 
Q 2006 -75 1616 -75 
Q 969 -75 630 194 
Q 291 463 197 991 
z
" transform="scale(0.015625)"/>
       <path id="ArialMT-29" d="M 791 -1347 
L 388 -1347 
Q 1322 153 1322 1656 
Q 1322 2244 1188 2822 
Q 1081 3291 891 3722 
Q 769 4003 388 4659 
L 791 4659 
Q 1378 3875 1659 3084 
Q 1900 2403 1900 1659 
Q 1900 816 1576 28 
Q 1253 -759 791 -1347 
z
" transform="scale(0.015625)"/>
      </defs>
      <use xlink:href="#ArialMT-52"/>
      <use xlink:href="#ArialMT-54" x="70.466797"/>
      <use xlink:href="#ArialMT-54" x="131.550781"/>
      <use xlink:href="#ArialMT-20" x="190.884766"/>
      <use xlink:href="#ArialMT-28" x="218.667969"/>
      <use xlink:href="#ArialMT-6d" x="251.96875"/>
      <use xlink:href="#ArialMT-73" x="335.269531"/>
      <use xlink:href="#ArialMT-29" x="385.269531"/>
     </g>
    </g>
   </g>
   <g id="PolyCollection_1">
    <defs>
     <path id="m9c41763dfc" d="M 60.893161 -89.93257 
L 60.893161 -78.59738 
L 63.153129 -96.45141 
L 65.413097 -96.427114 
L 67.673065 -100.429511 
L 69.933033 -100.457279 
L 72.193001 -100.476606 
L 74.452969 -100.528016 
L 76.712937 -100.571261 
L 78.972905 -100.682726 
L 81.232873 -100.735096 
L 83.492841 -99.310553 
L 85.752809 -59.563937 
L 88.012776 -59.730511 
L 90.272744 -66.712659 
L 92.532712 -66.884937 
L 94.79268 -66.878022 
L 97.052648 -66.590077 
L 99.312616 -67.367279 
L 101.572584 -67.86687 
L 103.832552 -67.361588 
L 106.09252 -96.360362 
L 108.352488 -96.40558 
L 110.612456 -96.377873 
L 112.872424 -96.389366 
L 115.132391 -77.722829 
L 117.392359 -78.570288 
L 119.652327 -78.569118 
L 121.912295 -78.569863 
L 124.172263 -96.442176 
L 126.432231 -100.427359 
L 128.692199 -100.454689 
L 130.952167 -100.487062 
L 133.212135 -100.524525 
L 135.472103 -100.56696 
L 137.732071 -100.678485 
L 139.992039 -100.730324 
L 142.252007 -99.310846 
L 144.511974 -59.563502 
L 146.771942 -59.729323 
L 149.03191 -66.721066 
L 151.291878 -66.884608 
L 153.551846 -67.172552 
L 155.811814 -66.961772 
L 158.071782 -67.369758 
L 160.33175 -67.86963 
L 162.591718 -67.361212 
L 164.851686 -96.242038 
L 167.111654 -96.385335 
L 169.371622 -96.377979 
L 171.631589 -96.389767 
L 171.631589 -98.511504 
L 171.631589 -98.511504 
L 169.371622 -98.471178 
L 167.111654 -98.485745 
L 164.851686 -98.34042 
L 162.591718 -74.560924 
L 160.33175 -74.568622 
L 158.071782 -74.56486 
L 155.811814 -74.770487 
L 153.551846 -74.272737 
L 151.291878 -74.275394 
L 149.03191 -74.143181 
L 146.771942 -59.882827 
L 144.511974 -59.78955 
L 142.252007 -99.535978 
L 139.992039 -100.954653 
L 137.732071 -100.902124 
L 135.472103 -100.734421 
L 133.212135 -100.688909 
L 130.952167 -100.648581 
L 128.692199 -100.613199 
L 126.432231 -100.582708 
L 124.172263 -98.542891 
L 121.912295 -89.907099 
L 119.652327 -89.939165 
L 117.392359 -89.855511 
L 115.132391 -89.133547 
L 112.872424 -98.482614 
L 110.612456 -98.485099 
L 108.352488 -98.49176 
L 106.09252 -98.459645 
L 103.832552 -75.068898 
L 101.572584 -75.061221 
L 99.312616 -74.565618 
L 97.052648 -74.771521 
L 94.79268 -74.290304 
L 92.532712 -74.327191 
L 90.272744 -74.167928 
L 88.012776 -59.883691 
L 85.752809 -59.808917 
L 83.492841 -99.53576 
L 81.232873 -100.959493 
L 78.972905 -100.906421 
L 76.712937 -100.752553 
L 74.452969 -100.69264 
L 72.193001 -100.65186 
L 69.933033 -100.616057 
L 67.673065 -100.585137 
L 65.413097 -98.536313 
L 63.153129 -98.518116 
L 60.893161 -89.93257 
z
" style="stroke: #023eff; stroke-opacity: 0.2"/>
    </defs>
    <g clip-path="url(#pd43a08a03f)">
     <use xlink:href="#m9c41763dfc" x="0" y="162" style="fill: #023eff; fill-opacity: 0.2; stroke: #023eff; stroke-opacity: 0.2"/>
    </g>
   </g>
   <g id="PolyCollection_2">
    <defs>
     <path id="m32d3c5ca46" d="M 60.893161 -87.680649 
L 60.893161 -71.158812 
L 63.153129 -107.008249 
L 65.413097 -107.011522 
L 67.673065 -116.294051 
L 69.933033 -116.363009 
L 72.193001 -116.437466 
L 74.452969 -116.517456 
L 76.712937 -116.603188 
L 78.972905 -116.873893 
L 81.232873 -116.965419 
L 83.492841 -114.836001 
L 85.752809 -78.970201 
L 88.012776 -79.068342 
L 90.272744 -76.411636 
L 92.532712 -76.761308 
L 94.79268 -76.776668 
L 97.052648 -76.795944 
L 99.312616 -76.819122 
L 101.572584 -76.846236 
L 103.832552 -76.877262 
L 106.09252 -106.733872 
L 108.352488 -106.750585 
L 110.612456 -106.772157 
L 112.872424 -106.798656 
L 115.132391 -71.073856 
L 117.392359 -71.097158 
L 119.652327 -69.748868 
L 121.912295 -71.157882 
L 124.172263 -107.006794 
L 126.432231 -116.288353 
L 128.692199 -116.356834 
L 130.952167 -116.430806 
L 133.212135 -116.510312 
L 135.472103 -116.595542 
L 137.732071 -116.86629 
L 139.992039 -116.957227 
L 142.252007 -114.834555 
L 144.511974 -78.969293 
L 146.771942 -79.067075 
L 149.03191 -76.382371 
L 151.291878 -76.760167 
L 153.551846 -76.775173 
L 155.811814 -76.794115 
L 158.071782 -76.816979 
L 160.33175 -76.843721 
L 162.591718 -76.874404 
L 164.851686 -106.732634 
L 167.111654 -106.748931 
L 169.371622 -106.770078 
L 171.631589 -106.796153 
L 171.631589 -106.796153 
L 171.631589 -106.796153 
L 169.371622 -106.770078 
L 167.111654 -106.748931 
L 164.851686 -106.732634 
L 162.591718 -90.678552 
L 160.33175 -90.630306 
L 158.071782 -90.615139 
L 155.811814 -90.604295 
L 153.551846 -90.597833 
L 151.291878 -90.595779 
L 149.03191 -90.416415 
L 146.771942 -95.39147 
L 144.511974 -95.183024 
L 142.252007 -114.834555 
L 139.992039 -116.957227 
L 137.732071 -116.86629 
L 135.472103 -116.595542 
L 133.212135 -116.510312 
L 130.952167 -116.430806 
L 128.692199 -116.356834 
L 126.432231 -116.288353 
L 124.172263 -107.006794 
L 121.912295 -87.679541 
L 119.652327 -87.640345 
L 117.392359 -87.640505 
L 115.132391 -87.57675 
L 112.872424 -106.798656 
L 110.612456 -106.772157 
L 108.352488 -106.750585 
L 106.09252 -106.733872 
L 103.832552 -90.651776 
L 101.572584 -90.631856 
L 99.312616 -91.766027 
L 97.052648 -90.605068 
L 94.79268 -90.598234 
L 92.532712 -90.595786 
L 90.272744 -90.415647 
L 88.012776 -95.359149 
L 85.752809 -95.184177 
L 83.492841 -114.836001 
L 81.232873 -116.965419 
L 78.972905 -116.873893 
L 76.712937 -116.603188 
L 74.452969 -116.517456 
L 72.193001 -116.437466 
L 69.933033 -116.363009 
L 67.673065 -116.294051 
L 65.413097 -107.011522 
L 63.153129 -107.008249 
L 60.893161 -87.680649 
z
" style="stroke: #ff7c00; stroke-opacity: 0.2"/>
    </defs>
    <g clip-path="url(#pd43a08a03f)">
     <use xlink:href="#m32d3c5ca46" x="0" y="162" style="fill: #ff7c00; fill-opacity: 0.2; stroke: #ff7c00; stroke-opacity: 0.2"/>
    </g>
   </g>
   <g id="PolyCollection_3"/>
   <g id="PolyCollection_4"/>
   <g id="line2d_9">
    <path d="M 60.893161 77.731 
L 63.153129 64.506892 
L 65.413097 64.505593 
L 67.673065 61.492676 
L 69.933033 61.463332 
L 72.193001 61.429027 
L 74.452969 61.389672 
L 76.712937 61.345065 
L 78.972905 61.205426 
L 81.232873 61.152705 
L 83.492841 62.576843 
L 85.752809 102.322995 
L 88.012776 102.192899 
L 90.272744 91.568212 
L 92.532712 91.393719 
L 94.79268 91.389197 
L 97.052648 91.381209 
L 99.312616 91.035633 
L 101.572584 91.038396 
L 103.832552 91.036902 
L 106.09252 64.578369 
L 108.352488 64.55133 
L 110.612456 64.558017 
L 112.872424 64.560418 
L 115.132391 77.77306 
L 117.392359 77.7637 
L 119.652327 77.749882 
L 121.912295 77.731542 
L 124.172263 64.507466 
L 126.432231 61.494967 
L 128.692199 61.466056 
L 130.952167 61.432179 
L 133.212135 61.393283 
L 135.472103 61.349136 
L 137.732071 61.209696 
L 139.992039 61.157512 
L 142.252007 62.576588 
L 144.511974 102.323474 
L 146.771942 102.193765 
L 149.03191 91.56777 
L 151.291878 91.393939 
L 153.551846 91.389738 
L 155.811814 91.382041 
L 158.071782 91.035181 
L 160.33175 91.038342 
L 162.591718 91.037219 
L 164.851686 64.578547 
L 167.111654 64.550546 
L 169.371622 64.557597 
L 171.631589 64.560385 
" clip-path="url(#pd43a08a03f)" style="fill: none; stroke: #023eff; stroke-width: 1.5; stroke-linecap: round"/>
   </g>
   <g id="line2d_10">
    <path d="M 60.893161 82.58027 
L 63.153129 54.991751 
L 65.413097 54.988478 
L 67.673065 45.705949 
L 69.933033 45.636991 
L 72.193001 45.562534 
L 74.452969 45.482544 
L 76.712937 45.396812 
L 78.972905 45.126107 
L 81.232873 45.034581 
L 83.492841 47.163999 
L 85.752809 74.922811 
L 88.012776 74.786255 
L 90.272744 78.586359 
L 92.532712 78.321453 
L 94.79268 78.312549 
L 97.052648 78.299494 
L 99.312616 78.282307 
L 101.572584 78.260954 
L 103.832552 78.235481 
L 106.09252 55.266128 
L 108.352488 55.249415 
L 110.612456 55.227843 
L 112.872424 55.201344 
L 115.132391 82.674697 
L 117.392359 82.648365 
L 119.652327 82.61726 
L 121.912295 82.581288 
L 124.172263 54.993206 
L 126.432231 45.711647 
L 128.692199 45.643166 
L 130.952167 45.569194 
L 133.212135 45.489688 
L 135.472103 45.404458 
L 137.732071 45.13371 
L 139.992039 45.042773 
L 142.252007 47.165445 
L 144.511974 74.923841 
L 146.771942 74.787696 
L 149.03191 78.586019 
L 151.291878 78.322027 
L 153.551846 78.313497 
L 155.811814 78.300795 
L 158.071782 78.283941 
L 160.33175 78.262987 
L 162.591718 78.237871 
L 164.851686 55.267366 
L 167.111654 55.251069 
L 169.371622 55.229922 
L 171.631589 55.203847 
" clip-path="url(#pd43a08a03f)" style="fill: none; stroke: #ff7c00; stroke-width: 1.5; stroke-linecap: round"/>
   </g>
   <g id="line2d_11"/>
   <g id="line2d_12"/>
   <g id="patch_3">
    <path d="M 55.35624 122.292 
L 55.35624 23.12925 
" style="fill: none; stroke: #ffffff; stroke-width: 1.25; stroke-linejoin: miter; stroke-linecap: square"/>
   </g>
   <g id="patch_4">
    <path d="M 55.35624 122.292 
L 177.168511 122.292 
" style="fill: none; stroke: #ffffff; stroke-width: 1.25; stroke-linejoin: miter; stroke-linecap: square"/>
   </g>
   <g id="text_11">
    <!-- Polar -->
    <g style="fill: #262626" transform="translate(105.057375 17.12925) scale(0.096 -0.096)">
     <defs>
      <path id="ArialMT-50" d="M 494 0 
L 494 4581 
L 2222 4581 
Q 2678 4581 2919 4538 
Q 3256 4481 3484 4323 
Q 3713 4166 3852 3881 
Q 3991 3597 3991 3256 
Q 3991 2672 3619 2267 
Q 3247 1863 2275 1863 
L 1100 1863 
L 1100 0 
L 494 0 
z
M 1100 2403 
L 2284 2403 
Q 2872 2403 3119 2622 
Q 3366 2841 3366 3238 
Q 3366 3525 3220 3729 
Q 3075 3934 2838 4000 
Q 2684 4041 2272 4041 
L 1100 4041 
L 1100 2403 
z
" transform="scale(0.015625)"/>
      <path id="ArialMT-6f" d="M 213 1659 
Q 213 2581 725 3025 
Q 1153 3394 1769 3394 
Q 2453 3394 2887 2945 
Q 3322 2497 3322 1706 
Q 3322 1066 3130 698 
Q 2938 331 2570 128 
Q 2203 -75 1769 -75 
Q 1072 -75 642 372 
Q 213 819 213 1659 
z
M 791 1659 
Q 791 1022 1069 705 
Q 1347 388 1769 388 
Q 2188 388 2466 706 
Q 2744 1025 2744 1678 
Q 2744 2294 2464 2611 
Q 2184 2928 1769 2928 
Q 1347 2928 1069 2612 
Q 791 2297 791 1659 
z
" transform="scale(0.015625)"/>
      <path id="ArialMT-6c" d="M 409 0 
L 409 4581 
L 972 4581 
L 972 0 
L 409 0 
z
" transform="scale(0.015625)"/>
     </defs>
     <use xlink:href="#ArialMT-50"/>
     <use xlink:href="#ArialMT-6f" x="66.699219"/>
     <use xlink:href="#ArialMT-6c" x="122.314453"/>
     <use xlink:href="#ArialMT-61" x="144.53125"/>
     <use xlink:href="#ArialMT-72" x="200.146484"/>
    </g>
   </g>
  </g>
  <g id="axes_2">
   <g id="patch_5">
    <path d="M 187.038929 122.292 
L 308.8512 122.292 
L 308.8512 23.12925 
L 187.038929 23.12925 
z
" style="fill: #eaeaf2"/>
   </g>
   <g id="matplotlib.axis_3">
    <g id="xtick_4">
     <g id="line2d_13">
      <path d="M 190.315883 122.292 
L 190.315883 23.12925 
" clip-path="url(#paa8a6d7339)" style="fill: none; stroke: #ffffff; stroke-linecap: round"/>
     </g>
     <g id="text_12">
      <!-- 0 -->
      <g style="fill: #262626" transform="translate(187.86907 138.090875) scale(0.088 -0.088)">
       <use xlink:href="#ArialMT-30"/>
      </g>
     </g>
    </g>
    <g id="xtick_5">
     <g id="line2d_14">
      <path d="M 235.515241 122.292 
L 235.515241 23.12925 
" clip-path="url(#paa8a6d7339)" style="fill: none; stroke: #ffffff; stroke-linecap: round"/>
     </g>
     <g id="text_13">
      <!-- 20 -->
      <g style="fill: #262626" transform="translate(230.621616 138.090875) scale(0.088 -0.088)">
       <use xlink:href="#ArialMT-32"/>
       <use xlink:href="#ArialMT-30" x="55.615234"/>
      </g>
     </g>
    </g>
    <g id="xtick_6">
     <g id="line2d_15">
      <path d="M 280.714599 122.292 
L 280.714599 23.12925 
" clip-path="url(#paa8a6d7339)" style="fill: none; stroke: #ffffff; stroke-linecap: round"/>
     </g>
     <g id="text_14">
      <!-- 40 -->
      <g style="fill: #262626" transform="translate(275.820974 138.090875) scale(0.088 -0.088)">
       <use xlink:href="#ArialMT-34"/>
       <use xlink:href="#ArialMT-30" x="55.615234"/>
      </g>
     </g>
    </g>
    <g id="text_15">
     <!-- Frame -->
     <g style="fill: #262626" transform="translate(234.078315 150.711375) scale(0.096 -0.096)">
      <use xlink:href="#ArialMT-46"/>
      <use xlink:href="#ArialMT-72" x="61.083984"/>
      <use xlink:href="#ArialMT-61" x="94.384766"/>
      <use xlink:href="#ArialMT-6d" x="150"/>
      <use xlink:href="#ArialMT-65" x="233.300781"/>
     </g>
    </g>
   </g>
   <g id="matplotlib.axis_4">
    <g id="ytick_6">
     <g id="line2d_16">
      <path d="M 187.038929 116.802842 
L 308.8512 116.802842 
" clip-path="url(#paa8a6d7339)" style="fill: none; stroke: #ffffff; stroke-linecap: round"/>
     </g>
    </g>
    <g id="ytick_7">
     <g id="line2d_17">
      <path d="M 187.038929 94.101711 
L 308.8512 94.101711 
" clip-path="url(#paa8a6d7339)" style="fill: none; stroke: #ffffff; stroke-linecap: round"/>
     </g>
    </g>
    <g id="ytick_8">
     <g id="line2d_18">
      <path d="M 187.038929 71.40058 
L 308.8512 71.40058 
" clip-path="url(#paa8a6d7339)" style="fill: none; stroke: #ffffff; stroke-linecap: round"/>
     </g>
    </g>
    <g id="ytick_9">
     <g id="line2d_19">
      <path d="M 187.038929 48.699449 
L 308.8512 48.699449 
" clip-path="url(#paa8a6d7339)" style="fill: none; stroke: #ffffff; stroke-linecap: round"/>
     </g>
    </g>
    <g id="ytick_10">
     <g id="line2d_20">
      <path d="M 187.038929 25.998319 
L 308.8512 25.998319 
" clip-path="url(#paa8a6d7339)" style="fill: none; stroke: #ffffff; stroke-linecap: round"/>
     </g>
    </g>
   </g>
   <g id="PolyCollection_5">
    <defs>
     <path id="mf53ac41282" d="M 208.395626 -83.591403 
L 208.395626 -83.591403 
L 210.655594 -83.466066 
L 212.915562 -109.035847 
L 215.17553 -110.411061 
L 217.435498 -110.664452 
L 219.695466 -110.63148 
L 221.955433 -110.590308 
L 224.215401 -112.327119 
L 226.475369 -112.468481 
L 228.735337 -112.526061 
L 230.995305 -110.659346 
L 233.255273 -110.664837 
L 267.154792 -83.602618 
L 269.41476 -83.476635 
L 271.674728 -109.045271 
L 273.934696 -110.408298 
L 276.194664 -110.670208 
L 278.454631 -110.616999 
L 280.714599 -110.60523 
L 282.974567 -112.361889 
L 285.234535 -112.471316 
L 287.494503 -112.461636 
L 289.754471 -110.599583 
L 292.014439 -110.572509 
L 292.014439 -116.026929 
L 292.014439 -116.026929 
L 289.754471 -115.609934 
L 287.494503 -113.684448 
L 285.234535 -113.580693 
L 282.974567 -113.501458 
L 280.714599 -110.922501 
L 278.454631 -110.918009 
L 276.194664 -110.936104 
L 273.934696 -110.597812 
L 271.674728 -110.560591 
L 269.41476 -83.476635 
L 267.154792 -83.602618 
L 233.255273 -115.795181 
L 230.995305 -115.691922 
L 228.735337 -113.643118 
L 226.475369 -113.60461 
L 224.215401 -113.501393 
L 221.955433 -110.913374 
L 219.695466 -110.921622 
L 217.435498 -110.936266 
L 215.17553 -110.595483 
L 212.915562 -110.558435 
L 210.655594 -83.466066 
L 208.395626 -83.591403 
z
" style="stroke: #023eff; stroke-opacity: 0.2"/>
    </defs>
    <g clip-path="url(#paa8a6d7339)">
     <use xlink:href="#mf53ac41282" x="0" y="162" style="fill: #023eff; fill-opacity: 0.2; stroke: #023eff; stroke-opacity: 0.2"/>
    </g>
   </g>
   <g id="PolyCollection_6">
    <defs>
     <path id="macafeed85f" d="M 212.915562 -129.122275 
L 212.915562 -123.244369 
L 215.17553 -123.256534 
L 217.435498 -119.952283 
L 219.695466 -119.391256 
L 221.955433 -119.612829 
L 224.215401 -119.15216 
L 226.475369 -119.842505 
L 228.735337 -119.584916 
L 230.995305 -110.248224 
L 233.255273 -110.30834 
L 271.674728 -123.283916 
L 273.934696 -123.620689 
L 276.194664 -119.913889 
L 278.454631 -119.503866 
L 280.714599 -119.269174 
L 282.974567 -119.478283 
L 285.234535 -119.525019 
L 287.494503 -119.805176 
L 289.754471 -110.243357 
L 292.014439 -110.302846 
L 292.014439 -134.362859 
L 292.014439 -134.362859 
L 289.754471 -134.35991 
L 287.494503 -125.104305 
L 285.234535 -124.806733 
L 282.974567 -124.538309 
L 280.714599 -124.688517 
L 278.454631 -124.470597 
L 276.194664 -125.538751 
L 273.934696 -129.073192 
L 271.674728 -129.128652 
L 233.255273 -134.363352 
L 230.995305 -134.359979 
L 228.735337 -124.986116 
L 226.475369 -124.815204 
L 224.215401 -124.530125 
L 221.955433 -124.44249 
L 219.695466 -124.661694 
L 217.435498 -125.530784 
L 215.17553 -129.317647 
L 212.915562 -129.122275 
z
" style="stroke: #ff7c00; stroke-opacity: 0.2"/>
    </defs>
    <g clip-path="url(#paa8a6d7339)">
     <use xlink:href="#macafeed85f" x="0" y="162" style="fill: #ff7c00; fill-opacity: 0.2; stroke: #ff7c00; stroke-opacity: 0.2"/>
    </g>
   </g>
   <g id="PolyCollection_7">
    <defs>
     <path id="mcb7ef51fe8" d="M 192.575851 -46.215109 
L 192.575851 -44.683815 
L 194.835818 -45.115195 
L 197.095786 -45.176178 
L 199.355754 -45.132717 
L 201.615722 -45.147458 
L 203.87569 -45.230753 
L 206.135658 -45.251783 
L 208.395626 -45.25013 
L 210.655594 -45.258304 
L 212.915562 -45.668659 
L 215.17553 -45.713062 
L 217.435498 -45.712301 
L 219.695466 -45.76562 
L 221.955433 -45.823838 
L 224.215401 -45.933986 
L 226.475369 -46.006567 
L 228.735337 -46.513914 
L 230.995305 -44.557866 
L 233.255273 -44.609107 
L 235.515241 -69.845654 
L 237.775209 -69.942386 
L 240.035177 -69.606534 
L 242.295145 -69.657551 
L 244.555113 -69.465946 
L 246.815081 -44.725189 
L 249.075049 -44.215398 
L 251.335016 -44.664153 
L 253.594984 -44.684925 
L 255.854952 -45.164605 
L 258.11492 -45.126236 
L 260.374888 -45.128417 
L 262.634856 -45.171846 
L 264.894824 -45.184676 
L 267.154792 -45.272779 
L 269.41476 -45.302269 
L 271.674728 -45.652101 
L 273.934696 -45.696311 
L 276.194664 -45.736958 
L 278.454631 -45.770297 
L 280.714599 -45.852064 
L 282.974567 -45.901857 
L 285.234535 -46.031323 
L 287.494503 -46.519959 
L 289.754471 -44.582163 
L 292.014439 -44.600171 
L 294.274407 -69.847257 
L 296.534375 -70.078199 
L 298.794343 -69.638826 
L 301.054311 -69.561407 
L 303.314279 -69.77244 
L 303.314279 -73.297356 
L 303.314279 -73.297356 
L 301.054311 -73.477305 
L 298.794343 -73.518608 
L 296.534375 -74.309756 
L 294.274407 -73.751472 
L 292.014439 -46.394599 
L 289.754471 -46.350455 
L 287.494503 -47.797868 
L 285.234535 -47.509413 
L 282.974567 -47.436014 
L 280.714599 -47.345409 
L 278.454631 -47.30155 
L 276.194664 -47.248497 
L 273.934696 -47.242274 
L 271.674728 -47.185163 
L 269.41476 -46.741042 
L 267.154792 -46.67237 
L 264.894824 -46.670684 
L 262.634856 -46.629036 
L 260.374888 -46.626099 
L 258.11492 -46.548425 
L 255.854952 -46.543598 
L 253.594984 -46.307538 
L 251.335016 -46.24533 
L 249.075049 -45.702963 
L 246.815081 -46.210747 
L 244.555113 -73.606664 
L 242.295145 -73.345036 
L 240.035177 -73.385304 
L 237.775209 -74.174906 
L 235.515241 -73.917837 
L 233.255273 -46.410292 
L 230.995305 -46.336829 
L 228.735337 -47.843993 
L 226.475369 -47.463514 
L 224.215401 -47.411227 
L 221.955433 -47.357705 
L 219.695466 -47.267155 
L 217.435498 -47.257314 
L 215.17553 -47.22413 
L 212.915562 -47.181144 
L 210.655594 -46.708985 
L 208.395626 -46.669384 
L 206.135658 -46.655662 
L 203.87569 -46.714097 
L 201.615722 -46.62234 
L 199.355754 -46.600106 
L 197.095786 -46.536265 
L 194.835818 -46.61696 
L 192.575851 -46.215109 
z
" style="stroke: #1ac938; stroke-opacity: 0.2"/>
    </defs>
    <g clip-path="url(#paa8a6d7339)">
     <use xlink:href="#mcb7ef51fe8" x="0" y="162" style="fill: #1ac938; fill-opacity: 0.2; stroke: #1ac938; stroke-opacity: 0.2"/>
    </g>
   </g>
   <g id="PolyCollection_8">
    <defs>
     <path id="m6f970b7200" d="M 192.575851 -72.535758 
L 192.575851 -64.778537 
L 194.835818 -64.744555 
L 197.095786 -64.79991 
L 199.355754 -64.802322 
L 201.615722 -65.017803 
L 203.87569 -64.939194 
L 206.135658 -64.331843 
L 208.395626 -62.926774 
L 210.655594 -63.324123 
L 212.915562 -64.112827 
L 215.17553 -63.897226 
L 217.435498 -64.044918 
L 219.695466 -65.583555 
L 221.955433 -65.48493 
L 224.215401 -65.872767 
L 226.475369 -64.936329 
L 228.735337 -65.239902 
L 230.995305 -60.772981 
L 233.255273 -60.560588 
L 235.515241 -71.447614 
L 237.775209 -71.392448 
L 240.035177 -71.182755 
L 242.295145 -73.007995 
L 244.555113 -72.991195 
L 246.815081 -64.172007 
L 249.075049 -64.138771 
L 251.335016 -64.760166 
L 253.594984 -64.58831 
L 255.854952 -64.530902 
L 258.11492 -64.851009 
L 260.374888 -65.205791 
L 262.634856 -64.807239 
L 264.894824 -64.242357 
L 267.154792 -64.188918 
L 269.41476 -63.562405 
L 271.674728 -63.910717 
L 273.934696 -63.896518 
L 276.194664 -63.995926 
L 278.454631 -65.618924 
L 280.714599 -65.694875 
L 282.974567 -65.829219 
L 285.234535 -65.298397 
L 287.494503 -65.520499 
L 289.754471 -61.024818 
L 292.014439 -60.808109 
L 294.274407 -71.3262 
L 296.534375 -71.417114 
L 298.794343 -71.343392 
L 301.054311 -73.139758 
L 303.314279 -72.991 
L 303.314279 -77.441529 
L 303.314279 -77.441529 
L 301.054311 -77.390315 
L 298.794343 -74.375588 
L 296.534375 -74.729017 
L 294.274407 -74.75921 
L 292.014439 -67.856275 
L 289.754471 -67.972268 
L 287.494503 -72.490716 
L 285.234535 -73.770736 
L 282.974567 -74.337378 
L 280.714599 -74.055742 
L 278.454631 -74.185335 
L 276.194664 -71.138947 
L 273.934696 -71.346957 
L 271.674728 -71.153651 
L 269.41476 -70.452147 
L 267.154792 -72.47088 
L 264.894824 -72.474699 
L 262.634856 -72.928049 
L 260.374888 -73.077667 
L 258.11492 -72.755286 
L 255.854952 -72.988446 
L 253.594984 -72.643067 
L 251.335016 -72.67089 
L 249.075049 -71.471963 
L 246.815081 -71.781279 
L 244.555113 -77.377665 
L 242.295145 -77.34959 
L 240.035177 -74.530909 
L 237.775209 -74.703013 
L 235.515241 -74.780199 
L 233.255273 -67.927104 
L 230.995305 -67.896575 
L 228.735337 -72.903014 
L 226.475369 -72.628248 
L 224.215401 -74.134879 
L 221.955433 -74.145217 
L 219.695466 -74.013833 
L 217.435498 -71.095885 
L 215.17553 -71.38971 
L 212.915562 -70.860886 
L 210.655594 -70.290493 
L 208.395626 -70.416148 
L 206.135658 -72.326294 
L 203.87569 -72.858146 
L 201.615722 -72.934574 
L 199.355754 -73.044975 
L 197.095786 -73.02556 
L 194.835818 -72.447939 
L 192.575851 -72.535758 
z
" style="stroke: #e8000b; stroke-opacity: 0.2"/>
    </defs>
    <g clip-path="url(#paa8a6d7339)">
     <use xlink:href="#m6f970b7200" x="0" y="162" style="fill: #e8000b; fill-opacity: 0.2; stroke: #e8000b; stroke-opacity: 0.2"/>
    </g>
   </g>
   <g id="line2d_21">
    <path d="M 208.395626 78.408597 
L 210.655594 78.533934 
L 212.915562 51.974356 
L 215.17553 51.496116 
L 217.435498 51.201049 
L 219.695466 51.231539 
L 221.955433 51.24293 
L 224.215401 49.0796 
L 226.475369 48.958663 
L 228.735337 48.925871 
L 230.995305 48.935935 
L 233.255273 48.899908 
L 267.154792 78.397382 
L 269.41476 78.523365 
L 271.674728 51.975037 
L 273.934696 51.497605 
L 276.194664 51.198104 
L 278.454631 51.229176 
L 280.714599 51.240862 
L 282.974567 49.083054 
L 285.234535 48.961226 
L 287.494503 48.928958 
L 289.754471 48.938775 
L 292.014439 48.903261 
" clip-path="url(#paa8a6d7339)" style="fill: none; stroke: #023eff; stroke-width: 1.5; stroke-linecap: round"/>
   </g>
   <g id="line2d_22">
    <path d="M 212.915562 35.69409 
L 215.17553 35.692649 
L 217.435498 39.23426 
L 219.695466 39.983412 
L 221.955433 40.114953 
L 224.215401 40.148196 
L 226.475369 39.722011 
L 228.735337 39.692209 
L 230.995305 39.695898 
L 233.255273 39.664154 
L 271.674728 35.693928 
L 273.934696 35.693059 
L 276.194664 39.235555 
L 278.454631 39.983015 
L 280.714599 40.115207 
L 282.974567 40.148965 
L 285.234535 39.724297 
L 287.494503 39.695049 
L 289.754471 39.698366 
L 292.014439 39.667148 
" clip-path="url(#paa8a6d7339)" style="fill: none; stroke: #ff7c00; stroke-width: 1.5; stroke-linecap: round"/>
   </g>
   <g id="line2d_23">
    <path d="M 192.575851 116.52213 
L 194.835818 116.145996 
L 197.095786 116.145463 
L 199.355754 116.133513 
L 201.615722 116.115818 
L 203.87569 116.092403 
L 206.135658 116.063276 
L 208.395626 116.028455 
L 210.655594 115.987904 
L 212.915562 115.572247 
L 215.17553 115.535404 
L 217.435498 115.491835 
L 219.695466 115.441491 
L 221.955433 115.384401 
L 224.215401 115.32053 
L 226.475369 115.249837 
L 228.735337 114.830274 
L 230.995305 116.539795 
L 233.255273 116.468068 
L 235.515241 90.229705 
L 237.775209 89.861083 
L 240.035177 90.466597 
L 242.295145 90.476813 
L 244.555113 90.482551 
L 246.815081 116.557466 
L 249.075049 117.064623 
L 251.335016 116.539112 
L 253.594984 116.522634 
L 255.854952 116.146219 
L 258.11492 116.134789 
L 260.374888 116.117586 
L 262.634856 116.094662 
L 264.894824 116.066027 
L 267.154792 116.031693 
L 269.41476 115.991646 
L 271.674728 115.575137 
L 273.934696 115.538864 
L 276.194664 115.495864 
L 278.454631 115.446117 
L 280.714599 115.38961 
L 282.974567 115.326328 
L 285.234535 115.256228 
L 287.494503 114.835994 
L 289.754471 116.545603 
L 292.014439 116.474591 
L 294.274407 90.230449 
L 296.534375 89.861364 
L 298.794343 90.465474 
L 301.054311 90.476077 
L 303.314279 90.482215 
" clip-path="url(#paa8a6d7339)" style="fill: none; stroke: #1ac938; stroke-width: 1.5; stroke-linecap: round"/>
   </g>
   <g id="line2d_24">
    <path d="M 192.575851 93.291369 
L 194.835818 93.126231 
L 197.095786 93.125565 
L 199.355754 93.111843 
L 201.615722 93.09312 
L 203.87569 93.06934 
L 206.135658 93.571677 
L 208.395626 95.022514 
L 210.655594 95.025236 
L 212.915562 94.321243 
L 215.17553 94.322815 
L 217.435498 94.320419 
L 219.695466 92.024491 
L 221.955433 92.033513 
L 224.215401 92.037216 
L 226.475369 93.437225 
L 228.735337 92.939811 
L 230.995305 97.536595 
L 233.255273 97.548764 
L 235.515241 88.886066 
L 237.775209 88.904482 
L 240.035177 89.095123 
L 242.295145 86.745414 
L 244.555113 86.758525 
L 246.815081 94.113906 
L 249.075049 94.117066 
L 251.335016 93.294821 
L 253.594984 93.291505 
L 255.854952 93.126524 
L 258.11492 93.113201 
L 260.374888 93.09492 
L 262.634856 93.071568 
L 264.894824 93.572431 
L 267.154792 93.561312 
L 269.41476 95.025096 
L 271.674728 94.320877 
L 273.934696 94.322793 
L 276.194664 94.32073 
L 278.454631 92.02341 
L 280.714599 92.032911 
L 282.974567 92.037078 
L 285.234535 92.035896 
L 287.494503 92.939331 
L 289.754471 97.535151 
L 292.014439 97.547966 
L 294.274407 88.884141 
L 296.534375 88.903121 
L 298.794343 89.092336 
L 301.054311 86.74404 
L 303.314279 86.757555 
" clip-path="url(#paa8a6d7339)" style="fill: none; stroke: #e8000b; stroke-width: 1.5; stroke-linecap: round"/>
   </g>
   <g id="patch_6">
    <path d="M 187.038929 122.292 
L 187.038929 23.12925 
" style="fill: none; stroke: #ffffff; stroke-width: 1.25; stroke-linejoin: miter; stroke-linecap: square"/>
   </g>
   <g id="patch_7">
    <path d="M 187.038929 122.292 
L 308.8512 122.292 
" style="fill: none; stroke: #ffffff; stroke-width: 1.25; stroke-linejoin: miter; stroke-linecap: square"/>
   </g>
   <g id="text_16">
    <!-- Equatorial -->
    <g style="fill: #262626" transform="translate(226.332315 17.12925) scale(0.096 -0.096)">
     <defs>
      <path id="ArialMT-45" d="M 506 0 
L 506 4581 
L 3819 4581 
L 3819 4041 
L 1113 4041 
L 1113 2638 
L 3647 2638 
L 3647 2100 
L 1113 2100 
L 1113 541 
L 3925 541 
L 3925 0 
L 506 0 
z
" transform="scale(0.015625)"/>
      <path id="ArialMT-71" d="M 2538 -1272 
L 2538 353 
Q 2406 169 2170 47 
Q 1934 -75 1669 -75 
Q 1078 -75 651 397 
Q 225 869 225 1691 
Q 225 2191 398 2587 
Q 572 2984 901 3189 
Q 1231 3394 1625 3394 
Q 2241 3394 2594 2875 
L 2594 3319 
L 3100 3319 
L 3100 -1272 
L 2538 -1272 
z
M 803 1669 
Q 803 1028 1072 708 
Q 1341 388 1716 388 
Q 2075 388 2334 692 
Q 2594 997 2594 1619 
Q 2594 2281 2320 2615 
Q 2047 2950 1678 2950 
Q 1313 2950 1058 2639 
Q 803 2328 803 1669 
z
" transform="scale(0.015625)"/>
      <path id="ArialMT-75" d="M 2597 0 
L 2597 488 
Q 2209 -75 1544 -75 
Q 1250 -75 995 37 
Q 741 150 617 320 
Q 494 491 444 738 
Q 409 903 409 1263 
L 409 3319 
L 972 3319 
L 972 1478 
Q 972 1038 1006 884 
Q 1059 663 1231 536 
Q 1403 409 1656 409 
Q 1909 409 2131 539 
Q 2353 669 2445 892 
Q 2538 1116 2538 1541 
L 2538 3319 
L 3100 3319 
L 3100 0 
L 2597 0 
z
" transform="scale(0.015625)"/>
      <path id="ArialMT-74" d="M 1650 503 
L 1731 6 
Q 1494 -44 1306 -44 
Q 1000 -44 831 53 
Q 663 150 594 308 
Q 525 466 525 972 
L 525 2881 
L 113 2881 
L 113 3319 
L 525 3319 
L 525 4141 
L 1084 4478 
L 1084 3319 
L 1650 3319 
L 1650 2881 
L 1084 2881 
L 1084 941 
Q 1084 700 1114 631 
Q 1144 563 1211 522 
Q 1278 481 1403 481 
Q 1497 481 1650 503 
z
" transform="scale(0.015625)"/>
      <path id="ArialMT-69" d="M 425 3934 
L 425 4581 
L 988 4581 
L 988 3934 
L 425 3934 
z
M 425 0 
L 425 3319 
L 988 3319 
L 988 0 
L 425 0 
z
" transform="scale(0.015625)"/>
     </defs>
     <use xlink:href="#ArialMT-45"/>
     <use xlink:href="#ArialMT-71" x="66.699219"/>
     <use xlink:href="#ArialMT-75" x="122.314453"/>
     <use xlink:href="#ArialMT-61" x="177.929688"/>
     <use xlink:href="#ArialMT-74" x="233.544922"/>
     <use xlink:href="#ArialMT-6f" x="261.328125"/>
     <use xlink:href="#ArialMT-72" x="316.943359"/>
     <use xlink:href="#ArialMT-69" x="350.244141"/>
     <use xlink:href="#ArialMT-61" x="372.460938"/>
     <use xlink:href="#ArialMT-6c" x="428.076172"/>
    </g>
   </g>
  </g>
  <g id="legend_1">
   <g id="text_17">
    <!-- Direction -->
    <g style="fill: #262626" transform="translate(328.04325 58.586) scale(0.096 -0.096)">
     <defs>
      <path id="ArialMT-44" d="M 494 0 
L 494 4581 
L 2072 4581 
Q 2606 4581 2888 4516 
Q 3281 4425 3559 4188 
Q 3922 3881 4101 3404 
Q 4281 2928 4281 2316 
Q 4281 1794 4159 1391 
Q 4038 988 3847 723 
Q 3656 459 3429 307 
Q 3203 156 2883 78 
Q 2563 0 2147 0 
L 494 0 
z
M 1100 541 
L 2078 541 
Q 2531 541 2789 625 
Q 3047 709 3200 863 
Q 3416 1078 3536 1442 
Q 3656 1806 3656 2325 
Q 3656 3044 3420 3430 
Q 3184 3816 2847 3947 
Q 2603 4041 2063 4041 
L 1100 4041 
L 1100 541 
z
" transform="scale(0.015625)"/>
      <path id="ArialMT-63" d="M 2588 1216 
L 3141 1144 
Q 3050 572 2676 248 
Q 2303 -75 1759 -75 
Q 1078 -75 664 370 
Q 250 816 250 1647 
Q 250 2184 428 2587 
Q 606 2991 970 3192 
Q 1334 3394 1763 3394 
Q 2303 3394 2647 3120 
Q 2991 2847 3088 2344 
L 2541 2259 
Q 2463 2594 2264 2762 
Q 2066 2931 1784 2931 
Q 1359 2931 1093 2626 
Q 828 2322 828 1663 
Q 828 994 1084 691 
Q 1341 388 1753 388 
Q 2084 388 2306 591 
Q 2528 794 2588 1216 
z
" transform="scale(0.015625)"/>
      <path id="ArialMT-6e" d="M 422 0 
L 422 3319 
L 928 3319 
L 928 2847 
Q 1294 3394 1984 3394 
Q 2284 3394 2536 3286 
Q 2788 3178 2913 3003 
Q 3038 2828 3088 2588 
Q 3119 2431 3119 2041 
L 3119 0 
L 2556 0 
L 2556 2019 
Q 2556 2363 2490 2533 
Q 2425 2703 2258 2804 
Q 2091 2906 1866 2906 
Q 1506 2906 1245 2678 
Q 984 2450 984 1813 
L 984 0 
L 422 0 
z
" transform="scale(0.015625)"/>
     </defs>
     <use xlink:href="#ArialMT-44"/>
     <use xlink:href="#ArialMT-69" x="72.216797"/>
     <use xlink:href="#ArialMT-72" x="94.433594"/>
     <use xlink:href="#ArialMT-65" x="127.734375"/>
     <use xlink:href="#ArialMT-63" x="183.349609"/>
     <use xlink:href="#ArialMT-74" x="233.349609"/>
     <use xlink:href="#ArialMT-69" x="261.132812"/>
     <use xlink:href="#ArialMT-6f" x="283.349609"/>
     <use xlink:href="#ArialMT-6e" x="338.964844"/>
    </g>
   </g>
   <g id="line2d_25">
    <path d="M 323.1645 68.112875 
L 331.9645 68.112875 
L 340.7645 68.112875 
" style="fill: none; stroke: #023eff; stroke-width: 1.5; stroke-linecap: round"/>
   </g>
   <g id="text_18">
    <!-- East -->
    <g style="fill: #262626" transform="translate(347.8045 71.192875) scale(0.088 -0.088)">
     <use xlink:href="#ArialMT-45"/>
     <use xlink:href="#ArialMT-61" x="66.699219"/>
     <use xlink:href="#ArialMT-73" x="122.314453"/>
     <use xlink:href="#ArialMT-74" x="172.314453"/>
    </g>
   </g>
   <g id="line2d_26">
    <path d="M 323.1645 80.56075 
L 331.9645 80.56075 
L 340.7645 80.56075 
" style="fill: none; stroke: #ff7c00; stroke-width: 1.5; stroke-linecap: round"/>
   </g>
   <g id="text_19">
    <!-- West -->
    <g style="fill: #262626" transform="translate(347.8045 83.64075) scale(0.088 -0.088)">
     <defs>
      <path id="ArialMT-57" d="M 1294 0 
L 78 4581 
L 700 4581 
L 1397 1578 
Q 1509 1106 1591 641 
Q 1766 1375 1797 1488 
L 2669 4581 
L 3400 4581 
L 4056 2263 
Q 4303 1400 4413 641 
Q 4500 1075 4641 1638 
L 5359 4581 
L 5969 4581 
L 4713 0 
L 4128 0 
L 3163 3491 
Q 3041 3928 3019 4028 
Q 2947 3713 2884 3491 
L 1913 0 
L 1294 0 
z
" transform="scale(0.015625)"/>
     </defs>
     <use xlink:href="#ArialMT-57"/>
     <use xlink:href="#ArialMT-65" x="92.634766"/>
     <use xlink:href="#ArialMT-73" x="148.25"/>
     <use xlink:href="#ArialMT-74" x="198.25"/>
    </g>
   </g>
   <g id="line2d_27">
    <path d="M 323.1645 93.008625 
L 331.9645 93.008625 
L 340.7645 93.008625 
" style="fill: none; stroke: #1ac938; stroke-width: 1.5; stroke-linecap: round"/>
   </g>
   <g id="text_20">
    <!-- North -->
    <g style="fill: #262626" transform="translate(347.8045 96.088625) scale(0.088 -0.088)">
     <defs>
      <path id="ArialMT-4e" d="M 488 0 
L 488 4581 
L 1109 4581 
L 3516 984 
L 3516 4581 
L 4097 4581 
L 4097 0 
L 3475 0 
L 1069 3600 
L 1069 0 
L 488 0 
z
" transform="scale(0.015625)"/>
      <path id="ArialMT-68" d="M 422 0 
L 422 4581 
L 984 4581 
L 984 2938 
Q 1378 3394 1978 3394 
Q 2347 3394 2619 3248 
Q 2891 3103 3008 2847 
Q 3125 2591 3125 2103 
L 3125 0 
L 2563 0 
L 2563 2103 
Q 2563 2525 2380 2717 
Q 2197 2909 1863 2909 
Q 1613 2909 1392 2779 
Q 1172 2650 1078 2428 
Q 984 2206 984 1816 
L 984 0 
L 422 0 
z
" transform="scale(0.015625)"/>
     </defs>
     <use xlink:href="#ArialMT-4e"/>
     <use xlink:href="#ArialMT-6f" x="72.216797"/>
     <use xlink:href="#ArialMT-72" x="127.832031"/>
     <use xlink:href="#ArialMT-74" x="161.132812"/>
     <use xlink:href="#ArialMT-68" x="188.916016"/>
    </g>
   </g>
   <g id="line2d_28">
    <path d="M 323.1645 105.4565 
L 331.9645 105.4565 
L 340.7645 105.4565 
" style="fill: none; stroke: #e8000b; stroke-width: 1.5; stroke-linecap: round"/>
   </g>
   <g id="text_21">
    <!-- South -->
    <g style="fill: #262626" transform="translate(347.8045 108.5365) scale(0.088 -0.088)">
     <defs>
      <path id="ArialMT-53" d="M 288 1472 
L 859 1522 
Q 900 1178 1048 958 
Q 1197 738 1509 602 
Q 1822 466 2213 466 
Q 2559 466 2825 569 
Q 3091 672 3220 851 
Q 3350 1031 3350 1244 
Q 3350 1459 3225 1620 
Q 3100 1781 2813 1891 
Q 2628 1963 1997 2114 
Q 1366 2266 1113 2400 
Q 784 2572 623 2826 
Q 463 3081 463 3397 
Q 463 3744 659 4045 
Q 856 4347 1234 4503 
Q 1613 4659 2075 4659 
Q 2584 4659 2973 4495 
Q 3363 4331 3572 4012 
Q 3781 3694 3797 3291 
L 3216 3247 
Q 3169 3681 2898 3903 
Q 2628 4125 2100 4125 
Q 1550 4125 1298 3923 
Q 1047 3722 1047 3438 
Q 1047 3191 1225 3031 
Q 1400 2872 2139 2705 
Q 2878 2538 3153 2413 
Q 3553 2228 3743 1945 
Q 3934 1663 3934 1294 
Q 3934 928 3725 604 
Q 3516 281 3123 101 
Q 2731 -78 2241 -78 
Q 1619 -78 1198 103 
Q 778 284 539 648 
Q 300 1013 288 1472 
z
" transform="scale(0.015625)"/>
     </defs>
     <use xlink:href="#ArialMT-53"/>
     <use xlink:href="#ArialMT-6f" x="66.699219"/>
     <use xlink:href="#ArialMT-75" x="122.314453"/>
     <use xlink:href="#ArialMT-74" x="177.929688"/>
     <use xlink:href="#ArialMT-68" x="205.712891"/>
    </g>
   </g>
  </g>
 </g>
 <defs>
  <clipPath id="pd43a08a03f">
   <rect x="55.35624" y="23.12925" width="121.812271" height="99.16275"/>
  </clipPath>
  <clipPath id="paa8a6d7339">
   <rect x="187.038929" y="23.12925" width="121.812271" height="99.16275"/>
  </clipPath>
 </defs>
</svg>
