<?xml version="1.0" encoding="utf-8" standalone="no"?>
<!DOCTYPE svg PUBLIC "-//W3C//DTD SVG 1.1//EN"
  "http://www.w3.org/Graphics/SVG/1.1/DTD/svg11.dtd">
<svg xmlns:xlink="http://www.w3.org/1999/xlink" width="378.72pt" height="162pt" viewBox="0 0 378.72 162" xmlns="http://www.w3.org/2000/svg" version="1.1">
 <metadata>
  <rdf:RDF xmlns:dc="http://purl.org/dc/elements/1.1/" xmlns:cc="http://creativecommons.org/ns#" xmlns:rdf="http://www.w3.org/1999/02/22-rdf-syntax-ns#">
   <cc:Work>
    <dc:type rdf:resource="http://purl.org/dc/dcmitype/StillImage"/>
    <dc:date>2024-08-23T23:33:35.801792</dc:date>
    <dc:format>image/svg+xml</dc:format>
    <dc:creator>
     <cc:Agent>
      <dc:title>Matplotlib v3.9.0, https://matplotlib.org/</dc:title>
     </cc:Agent>
    </dc:creator>
   </cc:Work>
  </rdf:RDF>
 </metadata>
 <defs>
  <style type="text/css">*{stroke-linejoin: round; stroke-linecap: butt}</style>
 </defs>
 <g id="figure_1">
  <g id="patch_1">
   <path d="M 0 162 
L 378.72 162 
L 378.72 0 
L 0 0 
z
" style="fill: #ffffff"/>
  </g>
  <g id="axes_1">
   <g id="patch_2">
    <path d="M 55.35624 122.292 
L 177.168511 122.292 
L 177.168511 23.12925 
L 55.35624 23.12925 
z
" style="fill: #eaeaf2"/>
   </g>
   <g id="matplotlib.axis_1">
    <g id="xtick_1">
     <g id="line2d_1">
      <path d="M 58.633193 122.292 
L 58.633193 23.12925 
" clip-path="url(#pade9182cc1)" style="fill: none; stroke: #ffffff; stroke-linecap: round"/>
     </g>
     <g id="text_1">
      <!-- 0 -->
      <g style="fill: #262626" transform="translate(56.186381 138.090875) scale(0.088 -0.088)">
       <defs>
        <path id="ArialMT-30" d="M 266 2259 
Q 266 3072 433 3567 
Q 600 4063 929 4331 
Q 1259 4600 1759 4600 
Q 2128 4600 2406 4451 
Q 2684 4303 2865 4023 
Q 3047 3744 3150 3342 
Q 3253 2941 3253 2259 
Q 3253 1453 3087 958 
Q 2922 463 2592 192 
Q 2263 -78 1759 -78 
Q 1097 -78 719 397 
Q 266 969 266 2259 
z
M 844 2259 
Q 844 1131 1108 757 
Q 1372 384 1759 384 
Q 2147 384 2411 759 
Q 2675 1134 2675 2259 
Q 2675 3391 2411 3762 
Q 2147 4134 1753 4134 
Q 1366 4134 1134 3806 
Q 844 3388 844 2259 
z
" transform="scale(0.015625)"/>
       </defs>
       <use xlink:href="#ArialMT-30"/>
      </g>
     </g>
    </g>
    <g id="xtick_2">
     <g id="line2d_2">
      <path d="M 103.832552 122.292 
L 103.832552 23.12925 
" clip-path="url(#pade9182cc1)" style="fill: none; stroke: #ffffff; stroke-linecap: round"/>
     </g>
     <g id="text_2">
      <!-- 20 -->
      <g style="fill: #262626" transform="translate(98.938927 138.090875) scale(0.088 -0.088)">
       <defs>
        <path id="ArialMT-32" d="M 3222 541 
L 3222 0 
L 194 0 
Q 188 203 259 391 
Q 375 700 629 1000 
Q 884 1300 1366 1694 
Q 2113 2306 2375 2664 
Q 2638 3022 2638 3341 
Q 2638 3675 2398 3904 
Q 2159 4134 1775 4134 
Q 1369 4134 1125 3890 
Q 881 3647 878 3216 
L 300 3275 
Q 359 3922 746 4261 
Q 1134 4600 1788 4600 
Q 2447 4600 2831 4234 
Q 3216 3869 3216 3328 
Q 3216 3053 3103 2787 
Q 2991 2522 2730 2228 
Q 2469 1934 1863 1422 
Q 1356 997 1212 845 
Q 1069 694 975 541 
L 3222 541 
z
" transform="scale(0.015625)"/>
       </defs>
       <use xlink:href="#ArialMT-32"/>
       <use xlink:href="#ArialMT-30" x="55.615234"/>
      </g>
     </g>
    </g>
    <g id="xtick_3">
     <g id="line2d_3">
      <path d="M 149.03191 122.292 
L 149.03191 23.12925 
" clip-path="url(#pade9182cc1)" style="fill: none; stroke: #ffffff; stroke-linecap: round"/>
     </g>
     <g id="text_3">
      <!-- 40 -->
      <g style="fill: #262626" transform="translate(144.138285 138.090875) scale(0.088 -0.088)">
       <defs>
        <path id="ArialMT-34" d="M 2069 0 
L 2069 1097 
L 81 1097 
L 81 1613 
L 2172 4581 
L 2631 4581 
L 2631 1613 
L 3250 1613 
L 3250 1097 
L 2631 1097 
L 2631 0 
L 2069 0 
z
M 2069 1613 
L 2069 3678 
L 634 1613 
L 2069 1613 
z
" transform="scale(0.015625)"/>
       </defs>
       <use xlink:href="#ArialMT-34"/>
       <use xlink:href="#ArialMT-30" x="55.615234"/>
      </g>
     </g>
    </g>
    <g id="text_4">
     <!-- Frame -->
     <g style="fill: #262626" transform="translate(102.395625 150.711375) scale(0.096 -0.096)">
      <defs>
       <path id="ArialMT-46" d="M 525 0 
L 525 4581 
L 3616 4581 
L 3616 4041 
L 1131 4041 
L 1131 2622 
L 3281 2622 
L 3281 2081 
L 1131 2081 
L 1131 0 
L 525 0 
z
" transform="scale(0.015625)"/>
       <path id="ArialMT-72" d="M 416 0 
L 416 3319 
L 922 3319 
L 922 2816 
Q 1116 3169 1280 3281 
Q 1444 3394 1641 3394 
Q 1925 3394 2219 3213 
L 2025 2691 
Q 1819 2813 1613 2813 
Q 1428 2813 1281 2702 
Q 1134 2591 1072 2394 
Q 978 2094 978 1738 
L 978 0 
L 416 0 
z
" transform="scale(0.015625)"/>
       <path id="ArialMT-61" d="M 2588 409 
Q 2275 144 1986 34 
Q 1697 -75 1366 -75 
Q 819 -75 525 192 
Q 231 459 231 875 
Q 231 1119 342 1320 
Q 453 1522 633 1644 
Q 813 1766 1038 1828 
Q 1203 1872 1538 1913 
Q 2219 1994 2541 2106 
Q 2544 2222 2544 2253 
Q 2544 2597 2384 2738 
Q 2169 2928 1744 2928 
Q 1347 2928 1158 2789 
Q 969 2650 878 2297 
L 328 2372 
Q 403 2725 575 2942 
Q 747 3159 1072 3276 
Q 1397 3394 1825 3394 
Q 2250 3394 2515 3294 
Q 2781 3194 2906 3042 
Q 3031 2891 3081 2659 
Q 3109 2516 3109 2141 
L 3109 1391 
Q 3109 606 3145 398 
Q 3181 191 3288 0 
L 2700 0 
Q 2613 175 2588 409 
z
M 2541 1666 
Q 2234 1541 1622 1453 
Q 1275 1403 1131 1340 
Q 988 1278 909 1158 
Q 831 1038 831 891 
Q 831 666 1001 516 
Q 1172 366 1500 366 
Q 1825 366 2078 508 
Q 2331 650 2450 897 
Q 2541 1088 2541 1459 
L 2541 1666 
z
" transform="scale(0.015625)"/>
       <path id="ArialMT-6d" d="M 422 0 
L 422 3319 
L 925 3319 
L 925 2853 
Q 1081 3097 1340 3245 
Q 1600 3394 1931 3394 
Q 2300 3394 2536 3241 
Q 2772 3088 2869 2813 
Q 3263 3394 3894 3394 
Q 4388 3394 4653 3120 
Q 4919 2847 4919 2278 
L 4919 0 
L 4359 0 
L 4359 2091 
Q 4359 2428 4304 2576 
Q 4250 2725 4106 2815 
Q 3963 2906 3769 2906 
Q 3419 2906 3187 2673 
Q 2956 2441 2956 1928 
L 2956 0 
L 2394 0 
L 2394 2156 
Q 2394 2531 2256 2718 
Q 2119 2906 1806 2906 
Q 1569 2906 1367 2781 
Q 1166 2656 1075 2415 
Q 984 2175 984 1722 
L 984 0 
L 422 0 
z
" transform="scale(0.015625)"/>
       <path id="ArialMT-65" d="M 2694 1069 
L 3275 997 
Q 3138 488 2766 206 
Q 2394 -75 1816 -75 
Q 1088 -75 661 373 
Q 234 822 234 1631 
Q 234 2469 665 2931 
Q 1097 3394 1784 3394 
Q 2450 3394 2872 2941 
Q 3294 2488 3294 1666 
Q 3294 1616 3291 1516 
L 816 1516 
Q 847 969 1125 678 
Q 1403 388 1819 388 
Q 2128 388 2347 550 
Q 2566 713 2694 1069 
z
M 847 1978 
L 2700 1978 
Q 2663 2397 2488 2606 
Q 2219 2931 1791 2931 
Q 1403 2931 1139 2672 
Q 875 2413 847 1978 
z
" transform="scale(0.015625)"/>
      </defs>
      <use xlink:href="#ArialMT-46"/>
      <use xlink:href="#ArialMT-72" x="61.083984"/>
      <use xlink:href="#ArialMT-61" x="94.384766"/>
      <use xlink:href="#ArialMT-6d" x="150"/>
      <use xlink:href="#ArialMT-65" x="233.300781"/>
     </g>
    </g>
   </g>
   <g id="matplotlib.axis_2">
    <g id="ytick_1">
     <g id="line2d_4">
      <path d="M 55.35624 116.798118 
L 177.168511 116.798118 
" clip-path="url(#pade9182cc1)" style="fill: none; stroke: #ffffff; stroke-linecap: round"/>
     </g>
     <g id="text_5">
      <!-- 20 -->
      <g style="fill: #262626" transform="translate(36.06899 119.947555) scale(0.088 -0.088)">
       <use xlink:href="#ArialMT-32"/>
       <use xlink:href="#ArialMT-30" x="55.615234"/>
      </g>
     </g>
    </g>
    <g id="ytick_2">
     <g id="line2d_5">
      <path d="M 55.35624 94.09819 
L 177.168511 94.09819 
" clip-path="url(#pade9182cc1)" style="fill: none; stroke: #ffffff; stroke-linecap: round"/>
     </g>
     <g id="text_6">
      <!-- 40 -->
      <g style="fill: #262626" transform="translate(36.06899 97.247627) scale(0.088 -0.088)">
       <use xlink:href="#ArialMT-34"/>
       <use xlink:href="#ArialMT-30" x="55.615234"/>
      </g>
     </g>
    </g>
    <g id="ytick_3">
     <g id="line2d_6">
      <path d="M 55.35624 71.398262 
L 177.168511 71.398262 
" clip-path="url(#pade9182cc1)" style="fill: none; stroke: #ffffff; stroke-linecap: round"/>
     </g>
     <g id="text_7">
      <!-- 60 -->
      <g style="fill: #262626" transform="translate(36.06899 74.547699) scale(0.088 -0.088)">
       <defs>
        <path id="ArialMT-36" d="M 3184 3459 
L 2625 3416 
Q 2550 3747 2413 3897 
Q 2184 4138 1850 4138 
Q 1581 4138 1378 3988 
Q 1113 3794 959 3422 
Q 806 3050 800 2363 
Q 1003 2672 1297 2822 
Q 1591 2972 1913 2972 
Q 2475 2972 2870 2558 
Q 3266 2144 3266 1488 
Q 3266 1056 3080 686 
Q 2894 316 2569 119 
Q 2244 -78 1831 -78 
Q 1128 -78 684 439 
Q 241 956 241 2144 
Q 241 3472 731 4075 
Q 1159 4600 1884 4600 
Q 2425 4600 2770 4297 
Q 3116 3994 3184 3459 
z
M 888 1484 
Q 888 1194 1011 928 
Q 1134 663 1356 523 
Q 1578 384 1822 384 
Q 2178 384 2434 671 
Q 2691 959 2691 1453 
Q 2691 1928 2437 2201 
Q 2184 2475 1800 2475 
Q 1419 2475 1153 2201 
Q 888 1928 888 1484 
z
" transform="scale(0.015625)"/>
       </defs>
       <use xlink:href="#ArialMT-36"/>
       <use xlink:href="#ArialMT-30" x="55.615234"/>
      </g>
     </g>
    </g>
    <g id="ytick_4">
     <g id="line2d_7">
      <path d="M 55.35624 48.698333 
L 177.168511 48.698333 
" clip-path="url(#pade9182cc1)" style="fill: none; stroke: #ffffff; stroke-linecap: round"/>
     </g>
     <g id="text_8">
      <!-- 80 -->
      <g style="fill: #262626" transform="translate(36.06899 51.847771) scale(0.088 -0.088)">
       <defs>
        <path id="ArialMT-38" d="M 1131 2484 
Q 781 2613 612 2850 
Q 444 3088 444 3419 
Q 444 3919 803 4259 
Q 1163 4600 1759 4600 
Q 2359 4600 2725 4251 
Q 3091 3903 3091 3403 
Q 3091 3084 2923 2848 
Q 2756 2613 2416 2484 
Q 2838 2347 3058 2040 
Q 3278 1734 3278 1309 
Q 3278 722 2862 322 
Q 2447 -78 1769 -78 
Q 1091 -78 675 323 
Q 259 725 259 1325 
Q 259 1772 486 2073 
Q 713 2375 1131 2484 
z
M 1019 3438 
Q 1019 3113 1228 2906 
Q 1438 2700 1772 2700 
Q 2097 2700 2305 2904 
Q 2513 3109 2513 3406 
Q 2513 3716 2298 3927 
Q 2084 4138 1766 4138 
Q 1444 4138 1231 3931 
Q 1019 3725 1019 3438 
z
M 838 1322 
Q 838 1081 952 856 
Q 1066 631 1291 507 
Q 1516 384 1775 384 
Q 2178 384 2440 643 
Q 2703 903 2703 1303 
Q 2703 1709 2433 1975 
Q 2163 2241 1756 2241 
Q 1359 2241 1098 1978 
Q 838 1716 838 1322 
z
" transform="scale(0.015625)"/>
       </defs>
       <use xlink:href="#ArialMT-38"/>
       <use xlink:href="#ArialMT-30" x="55.615234"/>
      </g>
     </g>
    </g>
    <g id="ytick_5">
     <g id="line2d_8">
      <path d="M 55.35624 25.998405 
L 177.168511 25.998405 
" clip-path="url(#pade9182cc1)" style="fill: none; stroke: #ffffff; stroke-linecap: round"/>
     </g>
     <g id="text_9">
      <!-- 100 -->
      <g style="fill: #262626" transform="translate(31.175365 29.147843) scale(0.088 -0.088)">
       <defs>
        <path id="ArialMT-31" d="M 2384 0 
L 1822 0 
L 1822 3584 
Q 1619 3391 1289 3197 
Q 959 3003 697 2906 
L 697 3450 
Q 1169 3672 1522 3987 
Q 1875 4303 2022 4600 
L 2384 4600 
L 2384 0 
z
" transform="scale(0.015625)"/>
       </defs>
       <use xlink:href="#ArialMT-31"/>
       <use xlink:href="#ArialMT-30" x="55.615234"/>
       <use xlink:href="#ArialMT-30" x="111.230469"/>
      </g>
     </g>
    </g>
    <g id="text_10">
     <!-- RTT (ms) -->
     <g style="fill: #262626" transform="translate(25.154865 92.800875) rotate(-90) scale(0.096 -0.096)">
      <defs>
       <path id="ArialMT-52" d="M 503 0 
L 503 4581 
L 2534 4581 
Q 3147 4581 3465 4457 
Q 3784 4334 3975 4021 
Q 4166 3709 4166 3331 
Q 4166 2844 3850 2509 
Q 3534 2175 2875 2084 
Q 3116 1969 3241 1856 
Q 3506 1613 3744 1247 
L 4541 0 
L 3778 0 
L 3172 953 
Q 2906 1366 2734 1584 
Q 2563 1803 2427 1890 
Q 2291 1978 2150 2013 
Q 2047 2034 1813 2034 
L 1109 2034 
L 1109 0 
L 503 0 
z
M 1109 2559 
L 2413 2559 
Q 2828 2559 3062 2645 
Q 3297 2731 3419 2920 
Q 3541 3109 3541 3331 
Q 3541 3656 3305 3865 
Q 3069 4075 2559 4075 
L 1109 4075 
L 1109 2559 
z
" transform="scale(0.015625)"/>
       <path id="ArialMT-54" d="M 1659 0 
L 1659 4041 
L 150 4041 
L 150 4581 
L 3781 4581 
L 3781 4041 
L 2266 4041 
L 2266 0 
L 1659 0 
z
" transform="scale(0.015625)"/>
       <path id="ArialMT-20" transform="scale(0.015625)"/>
       <path id="ArialMT-28" d="M 1497 -1347 
Q 1031 -759 709 28 
Q 388 816 388 1659 
Q 388 2403 628 3084 
Q 909 3875 1497 4659 
L 1900 4659 
Q 1522 4009 1400 3731 
Q 1209 3300 1100 2831 
Q 966 2247 966 1656 
Q 966 153 1900 -1347 
L 1497 -1347 
z
" transform="scale(0.015625)"/>
       <path id="ArialMT-73" d="M 197 991 
L 753 1078 
Q 800 744 1014 566 
Q 1228 388 1613 388 
Q 2000 388 2187 545 
Q 2375 703 2375 916 
Q 2375 1106 2209 1216 
Q 2094 1291 1634 1406 
Q 1016 1563 777 1677 
Q 538 1791 414 1992 
Q 291 2194 291 2438 
Q 291 2659 392 2848 
Q 494 3038 669 3163 
Q 800 3259 1026 3326 
Q 1253 3394 1513 3394 
Q 1903 3394 2198 3281 
Q 2494 3169 2634 2976 
Q 2775 2784 2828 2463 
L 2278 2388 
Q 2241 2644 2061 2787 
Q 1881 2931 1553 2931 
Q 1166 2931 1000 2803 
Q 834 2675 834 2503 
Q 834 2394 903 2306 
Q 972 2216 1119 2156 
Q 1203 2125 1616 2013 
Q 2213 1853 2448 1751 
Q 2684 1650 2818 1456 
Q 2953 1263 2953 975 
Q 2953 694 2789 445 
Q 2625 197 2315 61 
Q 2006 -75 1616 -75 
Q 969 -75 630 194 
Q 291 463 197 991 
z
" transform="scale(0.015625)"/>
       <path id="ArialMT-29" d="M 791 -1347 
L 388 -1347 
Q 1322 153 1322 1656 
Q 1322 2244 1188 2822 
Q 1081 3291 891 3722 
Q 769 4003 388 4659 
L 791 4659 
Q 1378 3875 1659 3084 
Q 1900 2403 1900 1659 
Q 1900 816 1576 28 
Q 1253 -759 791 -1347 
z
" transform="scale(0.015625)"/>
      </defs>
      <use xlink:href="#ArialMT-52"/>
      <use xlink:href="#ArialMT-54" x="70.466797"/>
      <use xlink:href="#ArialMT-54" x="131.550781"/>
      <use xlink:href="#ArialMT-20" x="190.884766"/>
      <use xlink:href="#ArialMT-28" x="218.667969"/>
      <use xlink:href="#ArialMT-6d" x="251.96875"/>
      <use xlink:href="#ArialMT-73" x="335.269531"/>
      <use xlink:href="#ArialMT-29" x="385.269531"/>
     </g>
    </g>
   </g>
   <g id="PolyCollection_1">
    <defs>
     <path id="m0cfa9e9b91" d="M 60.893161 -89.926668 
L 60.893161 -78.592079 
L 63.153129 -96.402504 
L 65.413097 -96.437798 
L 67.673065 -100.431309 
L 69.933033 -100.459075 
L 72.193001 -100.491881 
L 74.452969 -100.529809 
L 76.712937 -100.559107 
L 78.972905 -100.684511 
L 81.232873 -100.736878 
L 83.492841 -99.31241 
L 85.752809 -59.567901 
L 88.012776 -59.734466 
L 90.272744 -66.707951 
L 92.532712 -67.010247 
L 94.79268 -66.96966 
L 97.052648 -66.966751 
L 99.312616 -67.366735 
L 101.572584 -67.363059 
L 103.832552 -67.368654 
L 106.09252 -96.376515 
L 108.352488 -96.37333 
L 110.612456 -96.269382 
L 112.872424 -96.253354 
L 115.132391 -78.554773 
L 117.392359 -78.549748 
L 119.652327 -78.572075 
L 121.912295 -77.810789 
L 124.172263 -96.452842 
L 126.432231 -100.429157 
L 128.692199 -100.456486 
L 130.952167 -100.475398 
L 133.212135 -100.526317 
L 135.472103 -100.569099 
L 137.732071 -100.68027 
L 139.992039 -100.732106 
L 142.252007 -99.312703 
L 144.511974 -59.567466 
L 146.771942 -59.733597 
L 149.03191 -66.682123 
L 151.291878 -66.922927 
L 153.551846 -66.916173 
L 155.811814 -66.947966 
L 158.071782 -66.861177 
L 160.33175 -67.853651 
L 162.591718 -67.368275 
L 164.851686 -96.403838 
L 167.111654 -96.387347 
L 169.371622 -96.429828 
L 171.631589 -96.398942 
L 171.631589 -98.491731 
L 171.631589 -98.491731 
L 169.371622 -98.50855 
L 167.111654 -98.487816 
L 164.851686 -98.451919 
L 162.591718 -75.058092 
L 160.33175 -74.554915 
L 158.071782 -74.570583 
L 155.811814 -74.330354 
L 153.551846 -74.311107 
L 151.291878 -74.331563 
L 149.03191 -74.664541 
L 146.771942 -59.887093 
L 144.511974 -59.793502 
L 142.252007 -99.537824 
L 139.992039 -100.956423 
L 137.732071 -100.903897 
L 135.472103 -100.736202 
L 133.212135 -100.690693 
L 130.952167 -100.650367 
L 128.692199 -100.614988 
L 126.432231 -100.584498 
L 124.172263 -98.544578 
L 121.912295 -89.94246 
L 119.652327 -89.925625 
L 117.392359 -89.912695 
L 115.132391 -89.889207 
L 112.872424 -98.491514 
L 110.612456 -98.501055 
L 108.352488 -98.52107 
L 106.09252 -98.475454 
L 103.832552 -75.064739 
L 101.572584 -74.56198 
L 99.312616 -74.567341 
L 97.052648 -74.79163 
L 94.79268 -74.3111 
L 92.532712 -74.347763 
L 90.272744 -74.621172 
L 88.012776 -59.887637 
L 85.752809 -59.794024 
L 83.492841 -99.556372 
L 81.232873 -100.942564 
L 78.972905 -100.908194 
L 76.712937 -100.740389 
L 74.452969 -100.694424 
L 72.193001 -100.653646 
L 69.933033 -100.617845 
L 67.673065 -100.586927 
L 65.413097 -98.529537 
L 63.153129 -98.664988 
L 60.893161 -89.926668 
z
" style="stroke: #023eff; stroke-opacity: 0.2"/>
    </defs>
    <g clip-path="url(#pade9182cc1)">
     <use xlink:href="#m0cfa9e9b91" x="0" y="162" style="fill: #023eff; fill-opacity: 0.2; stroke: #023eff; stroke-opacity: 0.2"/>
    </g>
   </g>
   <g id="PolyCollection_2">
    <defs>
     <path id="mde6945cbab" d="M 60.893161 -89.059869 
L 60.893161 -71.162161 
L 63.153129 -107.009698 
L 65.413097 -107.012971 
L 67.673065 -116.295008 
L 69.933033 -116.363963 
L 72.193001 -116.438416 
L 74.452969 -116.518402 
L 76.712937 -116.604129 
L 78.972905 -116.87482 
L 81.232873 -116.966341 
L 83.492841 -114.837036 
L 85.752809 -78.973136 
L 88.012776 -77.713776 
L 90.272744 -76.414707 
L 92.532712 -76.76436 
L 94.79268 -75.627984 
L 97.052648 -76.798994 
L 99.312616 -76.793428 
L 101.572584 -76.849284 
L 103.832552 -76.880308 
L 106.09252 -106.735336 
L 108.352488 -106.752048 
L 110.612456 -106.773619 
L 112.872424 -106.800116 
L 115.132391 -71.077209 
L 117.392359 -69.724837 
L 119.652327 -71.128486 
L 121.912295 -72.503545 
L 124.172263 -107.008243 
L 126.432231 -116.28931 
L 128.692199 -116.357788 
L 130.952167 -116.431756 
L 133.212135 -116.511258 
L 135.472103 -116.596483 
L 137.732071 -116.867217 
L 139.992039 -116.958149 
L 142.252007 -114.83559 
L 144.511974 -78.972228 
L 146.771942 -79.070005 
L 149.03191 -76.414619 
L 151.291878 -76.734396 
L 153.551846 -76.778225 
L 155.811814 -75.646378 
L 158.071782 -76.820028 
L 160.33175 -76.846768 
L 162.591718 -76.87745 
L 164.851686 -106.734098 
L 167.111654 -106.750394 
L 169.371622 -106.771541 
L 171.631589 -106.797614 
L 171.631589 -106.797614 
L 171.631589 -106.797614 
L 169.371622 -106.771541 
L 167.111654 -106.750394 
L 164.851686 -106.734098 
L 162.591718 -90.65217 
L 160.33175 -90.632623 
L 158.071782 -91.767243 
L 155.811814 -90.606613 
L 153.551846 -90.600151 
L 151.291878 -90.598098 
L 149.03191 -90.418743 
L 146.771942 -95.359598 
L 144.511974 -95.1851 
L 142.252007 -114.83559 
L 139.992039 -116.958149 
L 137.732071 -116.867217 
L 135.472103 -116.596483 
L 133.212135 -116.511258 
L 130.952167 -116.431756 
L 128.692199 -116.357788 
L 126.432231 -116.28931 
L 124.172263 -107.008243 
L 121.912295 -87.682014 
L 119.652327 -87.642821 
L 117.392359 -87.608589 
L 115.132391 -87.579229 
L 112.872424 -106.800116 
L 110.612456 -106.773619 
L 108.352488 -106.752048 
L 106.09252 -106.735336 
L 103.832552 -90.654092 
L 101.572584 -90.634174 
L 99.312616 -90.618583 
L 97.052648 -90.607386 
L 94.79268 -91.752289 
L 92.532712 -90.598105 
L 90.272744 -90.417975 
L 88.012776 -95.361215 
L 85.752809 -95.186253 
L 83.492841 -114.837036 
L 81.232873 -116.966341 
L 78.972905 -116.87482 
L 76.712937 -116.604129 
L 74.452969 -116.518402 
L 72.193001 -116.438416 
L 69.933033 -116.363963 
L 67.673065 -116.295008 
L 65.413097 -107.012971 
L 63.153129 -107.009698 
L 60.893161 -89.059869 
z
" style="stroke: #ff7c00; stroke-opacity: 0.2"/>
    </defs>
    <g clip-path="url(#pade9182cc1)">
     <use xlink:href="#mde6945cbab" x="0" y="162" style="fill: #ff7c00; fill-opacity: 0.2; stroke: #ff7c00; stroke-opacity: 0.2"/>
    </g>
   </g>
   <g id="PolyCollection_3"/>
   <g id="PolyCollection_4"/>
   <g id="line2d_9">
    <path d="M 60.893161 77.728345 
L 63.153129 64.504938 
L 65.413097 64.50364 
L 67.673065 61.490882 
L 69.933033 61.46154 
L 72.193001 61.427236 
L 74.452969 61.387884 
L 76.712937 61.343279 
L 78.972905 61.203648 
L 81.232873 61.15093 
L 83.492841 62.574992 
L 85.752809 102.319038 
L 88.012776 102.188949 
L 90.272744 91.564825 
L 92.532712 91.39034 
L 94.79268 91.385819 
L 97.052648 91.377832 
L 99.312616 91.032274 
L 101.572584 91.035036 
L 103.832552 91.033543 
L 106.09252 64.576411 
L 108.352488 64.549374 
L 110.612456 64.55606 
L 112.872424 64.558462 
L 115.132391 77.770404 
L 117.392359 77.761044 
L 119.652327 77.747227 
L 121.912295 77.728888 
L 124.172263 64.505513 
L 126.432231 61.493173 
L 128.692199 61.464263 
L 130.952167 61.430388 
L 133.212135 61.391495 
L 135.472103 61.347349 
L 137.732071 61.207917 
L 139.992039 61.155736 
L 142.252007 62.574737 
L 144.511974 102.319516 
L 146.771942 102.189815 
L 149.03191 91.564383 
L 151.291878 91.390561 
L 153.551846 91.38636 
L 155.811814 91.378663 
L 158.071782 91.031822 
L 160.33175 91.034983 
L 162.591718 91.03386 
L 164.851686 64.57659 
L 167.111654 64.54859 
L 169.371622 64.55564 
L 171.631589 64.558429 
" clip-path="url(#pade9182cc1)" style="fill: none; stroke: #023eff; stroke-width: 1.5; stroke-linecap: round"/>
   </g>
   <g id="line2d_10">
    <path d="M 60.893161 82.577358 
L 63.153129 54.990302 
L 65.413097 54.987029 
L 67.673065 45.704992 
L 69.933033 45.636037 
L 72.193001 45.561584 
L 74.452969 45.481598 
L 76.712937 45.395871 
L 78.972905 45.12518 
L 81.232873 45.033659 
L 83.492841 47.162964 
L 85.752809 74.920305 
L 88.012776 74.783756 
L 90.272744 78.583659 
L 92.532712 78.318768 
L 94.79268 78.309864 
L 97.052648 78.29681 
L 99.312616 78.279623 
L 101.572584 78.258271 
L 103.832552 78.2328 
L 106.09252 55.264664 
L 108.352488 55.247952 
L 110.612456 55.226381 
L 112.872424 55.199884 
L 115.132391 82.671781 
L 117.392359 82.64545 
L 119.652327 82.614347 
L 121.912295 82.578377 
L 124.172263 54.991757 
L 126.432231 45.71069 
L 128.692199 45.642212 
L 130.952167 45.568244 
L 133.212135 45.488742 
L 135.472103 45.403517 
L 137.732071 45.132783 
L 139.992039 45.041851 
L 142.252007 47.16441 
L 144.511974 74.921336 
L 146.771942 74.785198 
L 149.03191 78.583319 
L 151.291878 78.319341 
L 153.551846 78.310812 
L 155.811814 78.298111 
L 158.071782 78.281258 
L 160.33175 78.260304 
L 162.591718 78.23519 
L 164.851686 55.265902 
L 167.111654 55.249606 
L 169.371622 55.228459 
L 171.631589 55.202386 
" clip-path="url(#pade9182cc1)" style="fill: none; stroke: #ff7c00; stroke-width: 1.5; stroke-linecap: round"/>
   </g>
   <g id="line2d_11"/>
   <g id="line2d_12"/>
   <g id="patch_3">
    <path d="M 55.35624 122.292 
L 55.35624 23.12925 
" style="fill: none; stroke: #ffffff; stroke-width: 1.25; stroke-linejoin: miter; stroke-linecap: square"/>
   </g>
   <g id="patch_4">
    <path d="M 55.35624 122.292 
L 177.168511 122.292 
" style="fill: none; stroke: #ffffff; stroke-width: 1.25; stroke-linejoin: miter; stroke-linecap: square"/>
   </g>
   <g id="text_11">
    <!-- Polar -->
    <g style="fill: #262626" transform="translate(105.057375 17.12925) scale(0.096 -0.096)">
     <defs>
      <path id="ArialMT-50" d="M 494 0 
L 494 4581 
L 2222 4581 
Q 2678 4581 2919 4538 
Q 3256 4481 3484 4323 
Q 3713 4166 3852 3881 
Q 3991 3597 3991 3256 
Q 3991 2672 3619 2267 
Q 3247 1863 2275 1863 
L 1100 1863 
L 1100 0 
L 494 0 
z
M 1100 2403 
L 2284 2403 
Q 2872 2403 3119 2622 
Q 3366 2841 3366 3238 
Q 3366 3525 3220 3729 
Q 3075 3934 2838 4000 
Q 2684 4041 2272 4041 
L 1100 4041 
L 1100 2403 
z
" transform="scale(0.015625)"/>
      <path id="ArialMT-6f" d="M 213 1659 
Q 213 2581 725 3025 
Q 1153 3394 1769 3394 
Q 2453 3394 2887 2945 
Q 3322 2497 3322 1706 
Q 3322 1066 3130 698 
Q 2938 331 2570 128 
Q 2203 -75 1769 -75 
Q 1072 -75 642 372 
Q 213 819 213 1659 
z
M 791 1659 
Q 791 1022 1069 705 
Q 1347 388 1769 388 
Q 2188 388 2466 706 
Q 2744 1025 2744 1678 
Q 2744 2294 2464 2611 
Q 2184 2928 1769 2928 
Q 1347 2928 1069 2612 
Q 791 2297 791 1659 
z
" transform="scale(0.015625)"/>
      <path id="ArialMT-6c" d="M 409 0 
L 409 4581 
L 972 4581 
L 972 0 
L 409 0 
z
" transform="scale(0.015625)"/>
     </defs>
     <use xlink:href="#ArialMT-50"/>
     <use xlink:href="#ArialMT-6f" x="66.699219"/>
     <use xlink:href="#ArialMT-6c" x="122.314453"/>
     <use xlink:href="#ArialMT-61" x="144.53125"/>
     <use xlink:href="#ArialMT-72" x="200.146484"/>
    </g>
   </g>
  </g>
  <g id="axes_2">
   <g id="patch_5">
    <path d="M 187.038929 122.292 
L 308.8512 122.292 
L 308.8512 23.12925 
L 187.038929 23.12925 
z
" style="fill: #eaeaf2"/>
   </g>
   <g id="matplotlib.axis_3">
    <g id="xtick_4">
     <g id="line2d_13">
      <path d="M 190.315883 122.292 
L 190.315883 23.12925 
" clip-path="url(#p3a2b214a1f)" style="fill: none; stroke: #ffffff; stroke-linecap: round"/>
     </g>
     <g id="text_12">
      <!-- 0 -->
      <g style="fill: #262626" transform="translate(187.86907 138.090875) scale(0.088 -0.088)">
       <use xlink:href="#ArialMT-30"/>
      </g>
     </g>
    </g>
    <g id="xtick_5">
     <g id="line2d_14">
      <path d="M 235.515241 122.292 
L 235.515241 23.12925 
" clip-path="url(#p3a2b214a1f)" style="fill: none; stroke: #ffffff; stroke-linecap: round"/>
     </g>
     <g id="text_13">
      <!-- 20 -->
      <g style="fill: #262626" transform="translate(230.621616 138.090875) scale(0.088 -0.088)">
       <use xlink:href="#ArialMT-32"/>
       <use xlink:href="#ArialMT-30" x="55.615234"/>
      </g>
     </g>
    </g>
    <g id="xtick_6">
     <g id="line2d_15">
      <path d="M 280.714599 122.292 
L 280.714599 23.12925 
" clip-path="url(#p3a2b214a1f)" style="fill: none; stroke: #ffffff; stroke-linecap: round"/>
     </g>
     <g id="text_14">
      <!-- 40 -->
      <g style="fill: #262626" transform="translate(275.820974 138.090875) scale(0.088 -0.088)">
       <use xlink:href="#ArialMT-34"/>
       <use xlink:href="#ArialMT-30" x="55.615234"/>
      </g>
     </g>
    </g>
    <g id="text_15">
     <!-- Frame -->
     <g style="fill: #262626" transform="translate(234.078315 150.711375) scale(0.096 -0.096)">
      <use xlink:href="#ArialMT-46"/>
      <use xlink:href="#ArialMT-72" x="61.083984"/>
      <use xlink:href="#ArialMT-61" x="94.384766"/>
      <use xlink:href="#ArialMT-6d" x="150"/>
      <use xlink:href="#ArialMT-65" x="233.300781"/>
     </g>
    </g>
   </g>
   <g id="matplotlib.axis_4">
    <g id="ytick_6">
     <g id="line2d_16">
      <path d="M 187.038929 116.798118 
L 308.8512 116.798118 
" clip-path="url(#p3a2b214a1f)" style="fill: none; stroke: #ffffff; stroke-linecap: round"/>
     </g>
    </g>
    <g id="ytick_7">
     <g id="line2d_17">
      <path d="M 187.038929 94.09819 
L 308.8512 94.09819 
" clip-path="url(#p3a2b214a1f)" style="fill: none; stroke: #ffffff; stroke-linecap: round"/>
     </g>
    </g>
    <g id="ytick_8">
     <g id="line2d_18">
      <path d="M 187.038929 71.398262 
L 308.8512 71.398262 
" clip-path="url(#p3a2b214a1f)" style="fill: none; stroke: #ffffff; stroke-linecap: round"/>
     </g>
    </g>
    <g id="ytick_9">
     <g id="line2d_19">
      <path d="M 187.038929 48.698333 
L 308.8512 48.698333 
" clip-path="url(#p3a2b214a1f)" style="fill: none; stroke: #ffffff; stroke-linecap: round"/>
     </g>
    </g>
    <g id="ytick_10">
     <g id="line2d_20">
      <path d="M 187.038929 25.998405 
L 308.8512 25.998405 
" clip-path="url(#p3a2b214a1f)" style="fill: none; stroke: #ffffff; stroke-linecap: round"/>
     </g>
    </g>
   </g>
   <g id="PolyCollection_5">
    <defs>
     <path id="mec0d6a5d1e" d="M 208.395626 -83.594093 
L 208.395626 -83.594093 
L 210.655594 -83.468762 
L 212.915562 -109.029522 
L 215.17553 -110.405494 
L 217.435498 -110.665878 
L 219.695466 -110.620344 
L 221.955433 -110.598882 
L 224.215401 -112.36376 
L 226.475369 -112.486674 
L 228.735337 -112.538062 
L 230.995305 -110.660602 
L 233.255273 -110.498191 
L 267.154792 -83.605307 
L 269.41476 -83.479331 
L 271.674728 -109.04899 
L 273.934696 -110.41237 
L 276.194664 -110.67496 
L 278.454631 -110.632936 
L 280.714599 -110.596643 
L 282.974567 -112.396018 
L 285.234535 -112.47918 
L 287.494503 -112.49931 
L 289.754471 -110.51378 
L 292.014439 -110.499128 
L 292.014439 -115.791158 
L 292.014439 -115.791158 
L 289.754471 -115.684222 
L 287.494503 -113.695224 
L 285.234535 -113.619863 
L 282.974567 -113.523301 
L 280.714599 -110.918211 
L 278.454631 -110.92118 
L 276.194664 -110.934642 
L 273.934696 -110.600796 
L 271.674728 -110.563697 
L 269.41476 -83.479331 
L 267.154792 -83.605307 
L 233.255273 -116.037634 
L 230.995305 -115.618143 
L 228.735337 -113.677822 
L 226.475369 -113.603985 
L 224.215401 -113.434923 
L 221.955433 -110.916876 
L 219.695466 -110.917087 
L 217.435498 -110.942359 
L 215.17553 -110.596171 
L 212.915562 -110.569193 
L 210.655594 -83.468762 
L 208.395626 -83.594093 
z
" style="stroke: #023eff; stroke-opacity: 0.2"/>
    </defs>
    <g clip-path="url(#p3a2b214a1f)">
     <use xlink:href="#mec0d6a5d1e" x="0" y="162" style="fill: #023eff; fill-opacity: 0.2; stroke: #023eff; stroke-opacity: 0.2"/>
    </g>
   </g>
   <g id="PolyCollection_6">
    <defs>
     <path id="md1bc1ddddb" d="M 212.915562 -129.367716 
L 212.915562 -123.324567 
L 215.17553 -123.377666 
L 217.435498 -120.227804 
L 219.695466 -119.589343 
L 221.955433 -119.353686 
L 224.215401 -119.201248 
L 226.475369 -119.59651 
L 228.735337 -119.789724 
L 230.995305 -110.249502 
L 233.255273 -110.309615 
L 271.674728 -123.284503 
L 273.934696 -123.252725 
L 276.194664 -120.212104 
L 278.454631 -119.438229 
L 280.714599 -119.506374 
L 282.974567 -119.23676 
L 285.234535 -119.763312 
L 287.494503 -119.622748 
L 289.754471 -110.244635 
L 292.014439 -110.304121 
L 292.014439 -134.362859 
L 292.014439 -134.362859 
L 289.754471 -134.35991 
L 287.494503 -125.073041 
L 285.234535 -124.961864 
L 282.974567 -124.247815 
L 280.714599 -124.485307 
L 278.454631 -124.518405 
L 276.194664 -125.464583 
L 273.934696 -129.237461 
L 271.674728 -129.210656 
L 233.255273 -134.363352 
L 230.995305 -134.359979 
L 228.735337 -124.857559 
L 226.475369 -124.667127 
L 224.215401 -124.404235 
L 221.955433 -124.48911 
L 219.695466 -124.44403 
L 217.435498 -125.262097 
L 215.17553 -129.196357 
L 212.915562 -129.367716 
z
" style="stroke: #ff7c00; stroke-opacity: 0.2"/>
    </defs>
    <g clip-path="url(#p3a2b214a1f)">
     <use xlink:href="#md1bc1ddddb" x="0" y="162" style="fill: #ff7c00; fill-opacity: 0.2; stroke: #ff7c00; stroke-opacity: 0.2"/>
    </g>
   </g>
   <g id="PolyCollection_7">
    <defs>
     <path id="mf76fac03f5" d="M 192.575851 -46.203908 
L 192.575851 -44.75571 
L 194.835818 -45.151384 
L 197.095786 -45.177369 
L 199.355754 -45.138493 
L 201.615722 -45.14595 
L 203.87569 -45.191886 
L 206.135658 -45.255127 
L 208.395626 -45.189866 
L 210.655594 -45.261327 
L 212.915562 -45.636196 
L 215.17553 -45.722663 
L 217.435498 -45.716321 
L 219.695466 -45.827094 
L 221.955433 -45.898212 
L 224.215401 -45.896368 
L 226.475369 -45.951954 
L 228.735337 -46.540599 
L 230.995305 -44.657127 
L 233.255273 -44.722935 
L 235.515241 -69.69635 
L 237.775209 -70.016767 
L 240.035177 -69.794702 
L 242.295145 -69.617627 
L 244.555113 -69.529919 
L 246.815081 -44.704718 
L 249.075049 -44.215398 
L 251.335016 -44.705346 
L 253.594984 -44.768836 
L 255.854952 -45.117987 
L 258.11492 -45.073795 
L 260.374888 -45.176389 
L 262.634856 -45.172301 
L 264.894824 -45.186366 
L 267.154792 -45.211286 
L 269.41476 -45.235989 
L 271.674728 -45.664214 
L 273.934696 -45.742149 
L 276.194664 -45.740962 
L 278.454631 -45.799492 
L 280.714599 -45.899153 
L 282.974567 -45.918626 
L 285.234535 -45.987561 
L 287.494503 -46.49032 
L 289.754471 -44.610167 
L 292.014439 -44.566736 
L 294.274407 -69.743691 
L 296.534375 -70.087415 
L 298.794343 -69.574827 
L 301.054311 -69.689609 
L 303.314279 -69.664932 
L 303.314279 -73.482292 
L 303.314279 -73.482292 
L 301.054311 -73.415945 
L 298.794343 -73.574406 
L 296.534375 -74.260529 
L 294.274407 -73.927079 
L 292.014439 -46.354679 
L 289.754471 -46.305415 
L 287.494503 -47.834697 
L 285.234535 -47.51952 
L 282.974567 -47.458986 
L 280.714599 -47.345496 
L 278.454631 -47.247263 
L 276.194664 -47.25927 
L 273.934696 -47.17067 
L 271.674728 -47.232855 
L 269.41476 -46.7188 
L 267.154792 -46.748695 
L 264.894824 -46.686856 
L 262.634856 -46.600504 
L 260.374888 -46.599724 
L 258.11492 -46.652003 
L 255.854952 -46.605393 
L 253.594984 -46.273834 
L 251.335016 -46.281772 
L 249.075049 -45.643983 
L 246.815081 -46.224545 
L 244.555113 -73.389406 
L 242.295145 -73.433236 
L 240.035177 -73.45791 
L 237.775209 -74.210885 
L 235.515241 -73.667741 
L 233.255273 -46.398515 
L 230.995305 -46.285068 
L 228.735337 -47.851642 
L 226.475369 -47.521343 
L 224.215401 -47.427244 
L 221.955433 -47.423798 
L 219.695466 -47.335118 
L 217.435498 -47.291561 
L 215.17553 -47.195903 
L 212.915562 -47.224861 
L 210.655594 -46.649884 
L 208.395626 -46.751908 
L 206.135658 -46.647857 
L 203.87569 -46.652 
L 201.615722 -46.594941 
L 199.355754 -46.592113 
L 197.095786 -46.575778 
L 194.835818 -46.645556 
L 192.575851 -46.203908 
z
" style="stroke: #1ac938; stroke-opacity: 0.2"/>
    </defs>
    <g clip-path="url(#p3a2b214a1f)">
     <use xlink:href="#mf76fac03f5" x="0" y="162" style="fill: #1ac938; fill-opacity: 0.2; stroke: #1ac938; stroke-opacity: 0.2"/>
    </g>
   </g>
   <g id="PolyCollection_8">
    <defs>
     <path id="m6871561bc3" d="M 192.575851 -72.544091 
L 192.575851 -64.835186 
L 194.835818 -64.784555 
L 197.095786 -64.808284 
L 199.355754 -64.545799 
L 201.615722 -64.834811 
L 203.87569 -65.075188 
L 206.135658 -64.359048 
L 208.395626 -63.499015 
L 210.655594 -63.218277 
L 212.915562 -64.231221 
L 215.17553 -64.460434 
L 217.435498 -64.157861 
L 219.695466 -65.764428 
L 221.955433 -65.801578 
L 224.215401 -65.96127 
L 226.475369 -64.549793 
L 228.735337 -65.27677 
L 230.995305 -61.021676 
L 233.255273 -60.793436 
L 235.515241 -71.499966 
L 237.775209 -71.443272 
L 240.035177 -71.250311 
L 242.295145 -72.993563 
L 244.555113 -72.994446 
L 246.815081 -63.878335 
L 249.075049 -64.069207 
L 251.335016 -64.908448 
L 253.594984 -64.557376 
L 255.854952 -64.930403 
L 258.11492 -64.754321 
L 260.374888 -64.667777 
L 262.634856 -64.784374 
L 264.894824 -64.035285 
L 267.154792 -64.305477 
L 269.41476 -63.373228 
L 271.674728 -63.893417 
L 273.934696 -64.168104 
L 276.194664 -63.822768 
L 278.454631 -65.761661 
L 280.714599 -65.709971 
L 282.974567 -65.771383 
L 285.234535 -65.981461 
L 287.494503 -65.406719 
L 289.754471 -60.846694 
L 292.014439 -60.859068 
L 294.274407 -71.378163 
L 296.534375 -71.443665 
L 298.794343 -71.28383 
L 301.054311 -73.163361 
L 303.314279 -73.146206 
L 303.314279 -77.389936 
L 303.314279 -77.389936 
L 301.054311 -77.506836 
L 298.794343 -74.442464 
L 296.534375 -74.779801 
L 294.274407 -74.812115 
L 292.014439 -67.966965 
L 289.754471 -68.025997 
L 287.494503 -72.969911 
L 285.234535 -73.984112 
L 282.974567 -73.953467 
L 280.714599 -74.112222 
L 278.454631 -73.955088 
L 276.194664 -71.252747 
L 273.934696 -71.260355 
L 271.674728 -71.270039 
L 269.41476 -70.908546 
L 267.154792 -72.316553 
L 264.894824 -72.406471 
L 262.634856 -72.980587 
L 260.374888 -73.033785 
L 258.11492 -72.519036 
L 255.854952 -72.6153 
L 253.594984 -72.413565 
L 251.335016 -72.440238 
L 249.075049 -71.805644 
L 246.815081 -71.754191 
L 244.555113 -77.540545 
L 242.295145 -77.559995 
L 240.035177 -74.565955 
L 237.775209 -74.683024 
L 235.515241 -74.783412 
L 233.255273 -68.044628 
L 230.995305 -68.01308 
L 228.735337 -72.56259 
L 226.475369 -72.460567 
L 224.215401 -73.86646 
L 221.955433 -74.240589 
L 219.695466 -73.849495 
L 217.435498 -71.325566 
L 215.17553 -71.216589 
L 212.915562 -71.381022 
L 210.655594 -70.783612 
L 208.395626 -70.681493 
L 206.135658 -72.67757 
L 203.87569 -72.979242 
L 201.615722 -72.752329 
L 199.355754 -72.911899 
L 197.095786 -72.678371 
L 194.835818 -72.958265 
L 192.575851 -72.544091 
z
" style="stroke: #e8000b; stroke-opacity: 0.2"/>
    </defs>
    <g clip-path="url(#p3a2b214a1f)">
     <use xlink:href="#m6871561bc3" x="0" y="162" style="fill: #e8000b; fill-opacity: 0.2; stroke: #e8000b; stroke-opacity: 0.2"/>
    </g>
   </g>
   <g id="line2d_21">
    <path d="M 208.395626 78.405907 
L 210.655594 78.531238 
L 212.915562 51.973066 
L 215.17553 51.494852 
L 217.435498 51.1998 
L 219.695466 51.230288 
L 221.955433 51.241679 
L 224.215401 49.078464 
L 226.475369 48.957533 
L 228.735337 48.924743 
L 230.995305 48.934806 
L 233.255273 48.898781 
L 267.154792 78.394693 
L 269.41476 78.520669 
L 271.674728 51.973747 
L 273.934696 51.496341 
L 276.194664 51.196856 
L 278.454631 51.227926 
L 280.714599 51.239611 
L 282.974567 49.081917 
L 285.234535 48.960096 
L 287.494503 48.927829 
L 289.754471 48.937646 
L 292.014439 48.902134 
" clip-path="url(#p3a2b214a1f)" style="fill: none; stroke: #023eff; stroke-width: 1.5; stroke-linecap: round"/>
   </g>
   <g id="line2d_22">
    <path d="M 212.915562 35.693663 
L 215.17553 35.692222 
L 217.435498 39.233645 
L 219.695466 39.982758 
L 221.955433 40.114292 
L 224.215401 40.147533 
L 226.475369 39.721371 
L 228.735337 39.691571 
L 230.995305 39.695259 
L 233.255273 39.663516 
L 271.674728 35.693501 
L 273.934696 35.692632 
L 276.194664 39.234941 
L 278.454631 39.982361 
L 280.714599 40.114546 
L 282.974567 40.148302 
L 285.234535 39.723657 
L 287.494503 39.69441 
L 289.754471 39.697727 
L 292.014439 39.66651 
" clip-path="url(#p3a2b214a1f)" style="fill: none; stroke: #ff7c00; stroke-width: 1.5; stroke-linecap: round"/>
   </g>
   <g id="line2d_23">
    <path d="M 192.575851 116.51742 
L 194.835818 116.141306 
L 197.095786 116.140773 
L 199.355754 116.128824 
L 201.615722 116.11113 
L 203.87569 116.087716 
L 206.135658 116.058591 
L 208.395626 116.023772 
L 210.655594 115.983222 
L 212.915562 115.567588 
L 215.17553 115.530747 
L 217.435498 115.48718 
L 219.695466 115.436839 
L 221.955433 115.379752 
L 224.215401 115.315884 
L 226.475369 115.245195 
L 228.735337 114.825654 
L 230.995305 116.535084 
L 233.255273 116.463362 
L 235.515241 90.226389 
L 237.775209 89.857786 
L 240.035177 90.463268 
L 242.295145 90.473484 
L 244.555113 90.479221 
L 246.815081 116.552754 
L 249.075049 117.059885 
L 251.335016 116.534401 
L 253.594984 116.517925 
L 255.854952 116.14153 
L 258.11492 116.1301 
L 260.374888 116.112898 
L 262.634856 116.089975 
L 264.894824 116.061341 
L 267.154792 116.02701 
L 269.41476 115.986964 
L 271.674728 115.570477 
L 273.934696 115.534207 
L 276.194664 115.491209 
L 278.454631 115.441465 
L 280.714599 115.38496 
L 282.974567 115.321682 
L 285.234535 115.251586 
L 287.494503 114.831374 
L 289.754471 116.540892 
L 292.014439 116.469884 
L 294.274407 90.227132 
L 296.534375 89.858067 
L 298.794343 90.462146 
L 301.054311 90.472748 
L 303.314279 90.478885 
" clip-path="url(#p3a2b214a1f)" style="fill: none; stroke: #1ac938; stroke-width: 1.5; stroke-linecap: round"/>
   </g>
   <g id="line2d_24">
    <path d="M 192.575851 93.287891 
L 194.835818 93.122761 
L 197.095786 93.122095 
L 199.355754 93.108373 
L 201.615722 93.089652 
L 203.87569 93.065873 
L 206.135658 93.568184 
L 208.395626 95.018943 
L 210.655594 95.021665 
L 212.915562 94.31771 
L 215.17553 94.319282 
L 217.435498 94.316886 
L 219.695466 92.02108 
L 221.955433 92.030101 
L 224.215401 92.033804 
L 226.475369 93.433738 
L 228.735337 92.936351 
L 230.995305 97.532891 
L 233.255273 97.545059 
L 235.515241 88.882821 
L 237.775209 88.901236 
L 240.035177 89.091867 
L 242.295145 86.742282 
L 244.555113 86.755392 
L 246.815081 94.110384 
L 249.075049 94.113544 
L 251.335016 93.291342 
L 253.594984 93.288027 
L 255.854952 93.123054 
L 258.11492 93.109732 
L 260.374888 93.091452 
L 262.634856 93.068101 
L 264.894824 93.568938 
L 267.154792 93.557819 
L 269.41476 95.021525 
L 271.674728 94.317344 
L 273.934696 94.319259 
L 276.194664 94.317197 
L 278.454631 92.019998 
L 280.714599 92.029499 
L 282.974567 92.033666 
L 285.234535 92.032484 
L 287.494503 92.935871 
L 289.754471 97.531448 
L 292.014439 97.544262 
L 294.274407 88.880895 
L 296.534375 88.899875 
L 298.794343 89.08908 
L 301.054311 86.740908 
L 303.314279 86.754422 
" clip-path="url(#p3a2b214a1f)" style="fill: none; stroke: #e8000b; stroke-width: 1.5; stroke-linecap: round"/>
   </g>
   <g id="patch_6">
    <path d="M 187.038929 122.292 
L 187.038929 23.12925 
" style="fill: none; stroke: #ffffff; stroke-width: 1.25; stroke-linejoin: miter; stroke-linecap: square"/>
   </g>
   <g id="patch_7">
    <path d="M 187.038929 122.292 
L 308.8512 122.292 
" style="fill: none; stroke: #ffffff; stroke-width: 1.25; stroke-linejoin: miter; stroke-linecap: square"/>
   </g>
   <g id="text_16">
    <!-- Equatorial -->
    <g style="fill: #262626" transform="translate(226.332315 17.12925) scale(0.096 -0.096)">
     <defs>
      <path id="ArialMT-45" d="M 506 0 
L 506 4581 
L 3819 4581 
L 3819 4041 
L 1113 4041 
L 1113 2638 
L 3647 2638 
L 3647 2100 
L 1113 2100 
L 1113 541 
L 3925 541 
L 3925 0 
L 506 0 
z
" transform="scale(0.015625)"/>
      <path id="ArialMT-71" d="M 2538 -1272 
L 2538 353 
Q 2406 169 2170 47 
Q 1934 -75 1669 -75 
Q 1078 -75 651 397 
Q 225 869 225 1691 
Q 225 2191 398 2587 
Q 572 2984 901 3189 
Q 1231 3394 1625 3394 
Q 2241 3394 2594 2875 
L 2594 3319 
L 3100 3319 
L 3100 -1272 
L 2538 -1272 
z
M 803 1669 
Q 803 1028 1072 708 
Q 1341 388 1716 388 
Q 2075 388 2334 692 
Q 2594 997 2594 1619 
Q 2594 2281 2320 2615 
Q 2047 2950 1678 2950 
Q 1313 2950 1058 2639 
Q 803 2328 803 1669 
z
" transform="scale(0.015625)"/>
      <path id="ArialMT-75" d="M 2597 0 
L 2597 488 
Q 2209 -75 1544 -75 
Q 1250 -75 995 37 
Q 741 150 617 320 
Q 494 491 444 738 
Q 409 903 409 1263 
L 409 3319 
L 972 3319 
L 972 1478 
Q 972 1038 1006 884 
Q 1059 663 1231 536 
Q 1403 409 1656 409 
Q 1909 409 2131 539 
Q 2353 669 2445 892 
Q 2538 1116 2538 1541 
L 2538 3319 
L 3100 3319 
L 3100 0 
L 2597 0 
z
" transform="scale(0.015625)"/>
      <path id="ArialMT-74" d="M 1650 503 
L 1731 6 
Q 1494 -44 1306 -44 
Q 1000 -44 831 53 
Q 663 150 594 308 
Q 525 466 525 972 
L 525 2881 
L 113 2881 
L 113 3319 
L 525 3319 
L 525 4141 
L 1084 4478 
L 1084 3319 
L 1650 3319 
L 1650 2881 
L 1084 2881 
L 1084 941 
Q 1084 700 1114 631 
Q 1144 563 1211 522 
Q 1278 481 1403 481 
Q 1497 481 1650 503 
z
" transform="scale(0.015625)"/>
      <path id="ArialMT-69" d="M 425 3934 
L 425 4581 
L 988 4581 
L 988 3934 
L 425 3934 
z
M 425 0 
L 425 3319 
L 988 3319 
L 988 0 
L 425 0 
z
" transform="scale(0.015625)"/>
     </defs>
     <use xlink:href="#ArialMT-45"/>
     <use xlink:href="#ArialMT-71" x="66.699219"/>
     <use xlink:href="#ArialMT-75" x="122.314453"/>
     <use xlink:href="#ArialMT-61" x="177.929688"/>
     <use xlink:href="#ArialMT-74" x="233.544922"/>
     <use xlink:href="#ArialMT-6f" x="261.328125"/>
     <use xlink:href="#ArialMT-72" x="316.943359"/>
     <use xlink:href="#ArialMT-69" x="350.244141"/>
     <use xlink:href="#ArialMT-61" x="372.460938"/>
     <use xlink:href="#ArialMT-6c" x="428.076172"/>
    </g>
   </g>
  </g>
  <g id="legend_1">
   <g id="text_17">
    <!-- Direction -->
    <g style="fill: #262626" transform="translate(328.04325 58.586) scale(0.096 -0.096)">
     <defs>
      <path id="ArialMT-44" d="M 494 0 
L 494 4581 
L 2072 4581 
Q 2606 4581 2888 4516 
Q 3281 4425 3559 4188 
Q 3922 3881 4101 3404 
Q 4281 2928 4281 2316 
Q 4281 1794 4159 1391 
Q 4038 988 3847 723 
Q 3656 459 3429 307 
Q 3203 156 2883 78 
Q 2563 0 2147 0 
L 494 0 
z
M 1100 541 
L 2078 541 
Q 2531 541 2789 625 
Q 3047 709 3200 863 
Q 3416 1078 3536 1442 
Q 3656 1806 3656 2325 
Q 3656 3044 3420 3430 
Q 3184 3816 2847 3947 
Q 2603 4041 2063 4041 
L 1100 4041 
L 1100 541 
z
" transform="scale(0.015625)"/>
      <path id="ArialMT-63" d="M 2588 1216 
L 3141 1144 
Q 3050 572 2676 248 
Q 2303 -75 1759 -75 
Q 1078 -75 664 370 
Q 250 816 250 1647 
Q 250 2184 428 2587 
Q 606 2991 970 3192 
Q 1334 3394 1763 3394 
Q 2303 3394 2647 3120 
Q 2991 2847 3088 2344 
L 2541 2259 
Q 2463 2594 2264 2762 
Q 2066 2931 1784 2931 
Q 1359 2931 1093 2626 
Q 828 2322 828 1663 
Q 828 994 1084 691 
Q 1341 388 1753 388 
Q 2084 388 2306 591 
Q 2528 794 2588 1216 
z
" transform="scale(0.015625)"/>
      <path id="ArialMT-6e" d="M 422 0 
L 422 3319 
L 928 3319 
L 928 2847 
Q 1294 3394 1984 3394 
Q 2284 3394 2536 3286 
Q 2788 3178 2913 3003 
Q 3038 2828 3088 2588 
Q 3119 2431 3119 2041 
L 3119 0 
L 2556 0 
L 2556 2019 
Q 2556 2363 2490 2533 
Q 2425 2703 2258 2804 
Q 2091 2906 1866 2906 
Q 1506 2906 1245 2678 
Q 984 2450 984 1813 
L 984 0 
L 422 0 
z
" transform="scale(0.015625)"/>
     </defs>
     <use xlink:href="#ArialMT-44"/>
     <use xlink:href="#ArialMT-69" x="72.216797"/>
     <use xlink:href="#ArialMT-72" x="94.433594"/>
     <use xlink:href="#ArialMT-65" x="127.734375"/>
     <use xlink:href="#ArialMT-63" x="183.349609"/>
     <use xlink:href="#ArialMT-74" x="233.349609"/>
     <use xlink:href="#ArialMT-69" x="261.132812"/>
     <use xlink:href="#ArialMT-6f" x="283.349609"/>
     <use xlink:href="#ArialMT-6e" x="338.964844"/>
    </g>
   </g>
   <g id="line2d_25">
    <path d="M 323.1645 68.112875 
L 331.9645 68.112875 
L 340.7645 68.112875 
" style="fill: none; stroke: #023eff; stroke-width: 1.5; stroke-linecap: round"/>
   </g>
   <g id="text_18">
    <!-- East -->
    <g style="fill: #262626" transform="translate(347.8045 71.192875) scale(0.088 -0.088)">
     <use xlink:href="#ArialMT-45"/>
     <use xlink:href="#ArialMT-61" x="66.699219"/>
     <use xlink:href="#ArialMT-73" x="122.314453"/>
     <use xlink:href="#ArialMT-74" x="172.314453"/>
    </g>
   </g>
   <g id="line2d_26">
    <path d="M 323.1645 80.56075 
L 331.9645 80.56075 
L 340.7645 80.56075 
" style="fill: none; stroke: #ff7c00; stroke-width: 1.5; stroke-linecap: round"/>
   </g>
   <g id="text_19">
    <!-- West -->
    <g style="fill: #262626" transform="translate(347.8045 83.64075) scale(0.088 -0.088)">
     <defs>
      <path id="ArialMT-57" d="M 1294 0 
L 78 4581 
L 700 4581 
L 1397 1578 
Q 1509 1106 1591 641 
Q 1766 1375 1797 1488 
L 2669 4581 
L 3400 4581 
L 4056 2263 
Q 4303 1400 4413 641 
Q 4500 1075 4641 1638 
L 5359 4581 
L 5969 4581 
L 4713 0 
L 4128 0 
L 3163 3491 
Q 3041 3928 3019 4028 
Q 2947 3713 2884 3491 
L 1913 0 
L 1294 0 
z
" transform="scale(0.015625)"/>
     </defs>
     <use xlink:href="#ArialMT-57"/>
     <use xlink:href="#ArialMT-65" x="92.634766"/>
     <use xlink:href="#ArialMT-73" x="148.25"/>
     <use xlink:href="#ArialMT-74" x="198.25"/>
    </g>
   </g>
   <g id="line2d_27">
    <path d="M 323.1645 93.008625 
L 331.9645 93.008625 
L 340.7645 93.008625 
" style="fill: none; stroke: #1ac938; stroke-width: 1.5; stroke-linecap: round"/>
   </g>
   <g id="text_20">
    <!-- North -->
    <g style="fill: #262626" transform="translate(347.8045 96.088625) scale(0.088 -0.088)">
     <defs>
      <path id="ArialMT-4e" d="M 488 0 
L 488 4581 
L 1109 4581 
L 3516 984 
L 3516 4581 
L 4097 4581 
L 4097 0 
L 3475 0 
L 1069 3600 
L 1069 0 
L 488 0 
z
" transform="scale(0.015625)"/>
      <path id="ArialMT-68" d="M 422 0 
L 422 4581 
L 984 4581 
L 984 2938 
Q 1378 3394 1978 3394 
Q 2347 3394 2619 3248 
Q 2891 3103 3008 2847 
Q 3125 2591 3125 2103 
L 3125 0 
L 2563 0 
L 2563 2103 
Q 2563 2525 2380 2717 
Q 2197 2909 1863 2909 
Q 1613 2909 1392 2779 
Q 1172 2650 1078 2428 
Q 984 2206 984 1816 
L 984 0 
L 422 0 
z
" transform="scale(0.015625)"/>
     </defs>
     <use xlink:href="#ArialMT-4e"/>
     <use xlink:href="#ArialMT-6f" x="72.216797"/>
     <use xlink:href="#ArialMT-72" x="127.832031"/>
     <use xlink:href="#ArialMT-74" x="161.132812"/>
     <use xlink:href="#ArialMT-68" x="188.916016"/>
    </g>
   </g>
   <g id="line2d_28">
    <path d="M 323.1645 105.4565 
L 331.9645 105.4565 
L 340.7645 105.4565 
" style="fill: none; stroke: #e8000b; stroke-width: 1.5; stroke-linecap: round"/>
   </g>
   <g id="text_21">
    <!-- South -->
    <g style="fill: #262626" transform="translate(347.8045 108.5365) scale(0.088 -0.088)">
     <defs>
      <path id="ArialMT-53" d="M 288 1472 
L 859 1522 
Q 900 1178 1048 958 
Q 1197 738 1509 602 
Q 1822 466 2213 466 
Q 2559 466 2825 569 
Q 3091 672 3220 851 
Q 3350 1031 3350 1244 
Q 3350 1459 3225 1620 
Q 3100 1781 2813 1891 
Q 2628 1963 1997 2114 
Q 1366 2266 1113 2400 
Q 784 2572 623 2826 
Q 463 3081 463 3397 
Q 463 3744 659 4045 
Q 856 4347 1234 4503 
Q 1613 4659 2075 4659 
Q 2584 4659 2973 4495 
Q 3363 4331 3572 4012 
Q 3781 3694 3797 3291 
L 3216 3247 
Q 3169 3681 2898 3903 
Q 2628 4125 2100 4125 
Q 1550 4125 1298 3923 
Q 1047 3722 1047 3438 
Q 1047 3191 1225 3031 
Q 1400 2872 2139 2705 
Q 2878 2538 3153 2413 
Q 3553 2228 3743 1945 
Q 3934 1663 3934 1294 
Q 3934 928 3725 604 
Q 3516 281 3123 101 
Q 2731 -78 2241 -78 
Q 1619 -78 1198 103 
Q 778 284 539 648 
Q 300 1013 288 1472 
z
" transform="scale(0.015625)"/>
     </defs>
     <use xlink:href="#ArialMT-53"/>
     <use xlink:href="#ArialMT-6f" x="66.699219"/>
     <use xlink:href="#ArialMT-75" x="122.314453"/>
     <use xlink:href="#ArialMT-74" x="177.929688"/>
     <use xlink:href="#ArialMT-68" x="205.712891"/>
    </g>
   </g>
  </g>
 </g>
 <defs>
  <clipPath id="pade9182cc1">
   <rect x="55.35624" y="23.12925" width="121.812271" height="99.16275"/>
  </clipPath>
  <clipPath id="p3a2b214a1f">
   <rect x="187.038929" y="23.12925" width="121.812271" height="99.16275"/>
  </clipPath>
 </defs>
</svg>
